<?xml version="1.0" encoding="UTF-8" standalone="no"?>
<!-- Created with Inkscape (http://www.inkscape.org/) -->

<svg
   xmlns:dc="http://purl.org/dc/elements/1.1/"
   xmlns:cc="http://creativecommons.org/ns#"
   xmlns:rdf="http://www.w3.org/1999/02/22-rdf-syntax-ns#"
   xmlns:svg="http://www.w3.org/2000/svg"
   xmlns="http://www.w3.org/2000/svg"
   xmlns:xlink="http://www.w3.org/1999/xlink"
   xmlns:sodipodi="http://sodipodi.sourceforge.net/DTD/sodipodi-0.dtd"
   xmlns:inkscape="http://www.inkscape.org/namespaces/inkscape"
   height="128"
   id="svg11300"
   inkscape:export-filename="/home/mma/BZR-WORK/breathe-icon-set/source_svg/rendered/computer.png"
   inkscape:export-xdpi="90.000000"
   inkscape:export-ydpi="90.000000"
   inkscape:output_extension="org.inkscape.output.svg.inkscape"
   inkscape:version="0.46+devel r21673"
   sodipodi:docname="gnome-screenshot.svg"
   sodipodi:version="0.32"
   style="display:inline;enable-background:new"
   version="1.0"
   width="128">
  <title
     id="title4119">Breathe Icon Theme computer</title>
  <defs
     id="defs3">
    <linearGradient
       gradientTransform="translate(-33.069856,49.527443)"
       gradientUnits="userSpaceOnUse"
       id="linearGradient6017"
       inkscape:collect="always"
       x1="96.661331"
       x2="77.193962"
       xlink:href="#linearGradient4376"
       y1="22.425421"
       y2="92.268867" />
    <linearGradient
       gradientTransform="matrix(0.5045632,0,0,0.5260623,-28.609564,46.604978)"
       gradientUnits="userSpaceOnUse"
       id="linearGradient6015"
       inkscape:collect="always"
       x1="207.77928"
       x2="149.50107"
       xlink:href="#linearGradient4159"
       y1="201.74884"
       y2="114.76468" />
    <radialGradient
       cx="80.759178"
       cy="99.801353"
       fx="80.759178"
       fy="99.801353"
       gradientTransform="matrix(3.5740621,-0.0744137,0.03394061,1.630155,-244.33631,-8.1027823)"
       gradientUnits="userSpaceOnUse"
       id="radialGradient6013"
       inkscape:collect="always"
       r="25.51963"
       xlink:href="#XMLID_18_" />
    <linearGradient
       gradientTransform="matrix(0.5045632,0,0,0.5260623,-28.609564,46.604978)"
       gradientUnits="userSpaceOnUse"
       id="linearGradient6011"
       inkscape:collect="always"
       x1="234.77432"
       x2="160.43944"
       xlink:href="#linearGradient2558"
       y1="233.65239"
       y2="199.58224" />
    <linearGradient
       gradientUnits="userSpaceOnUse"
       id="linearGradient6009"
       inkscape:collect="always"
       x1="-105.625"
       x2="-105.625"
       xlink:href="#linearGradient3905"
       y1="231.21875"
       y2="207.0625" />
    <linearGradient
       gradientUnits="userSpaceOnUse"
       id="linearGradient5047"
       inkscape:collect="always"
       x1="81.683823"
       x2="83.625"
       xlink:href="#linearGradient4345"
       y1="99.397057"
       y2="104.07353" />
    <linearGradient
       gradientUnits="userSpaceOnUse"
       id="linearGradient5045"
       inkscape:collect="always"
       x1="81.683823"
       x2="83.625"
       xlink:href="#linearGradient4345"
       y1="99.397057"
       y2="104.07353" />
    <linearGradient
       gradientUnits="userSpaceOnUse"
       id="linearGradient5043"
       inkscape:collect="always"
       x1="81.683823"
       x2="83.625"
       xlink:href="#linearGradient4345"
       y1="99.397057"
       y2="104.07353" />
    <linearGradient
       gradientUnits="userSpaceOnUse"
       id="linearGradient5041"
       inkscape:collect="always"
       x1="81.683823"
       x2="83.625"
       xlink:href="#linearGradient4345"
       y1="99.397057"
       y2="104.07353" />
    <linearGradient
       gradientUnits="userSpaceOnUse"
       id="linearGradient5039"
       inkscape:collect="always"
       x1="81.683823"
       x2="83.625"
       xlink:href="#linearGradient4345"
       y1="99.397057"
       y2="104.07353" />
    <linearGradient
       id="linearGradient4265">
      <stop
         id="stop4267"
         offset="0"
         style="stop-color:#000000;stop-opacity:1" />
      <stop
         id="stop4269"
         offset="0.45918366"
         style="stop-color:#959595;stop-opacity:1" />
      <stop
         id="stop4271"
         offset="0.70238096"
         style="stop-color:#545454;stop-opacity:1" />
      <stop
         id="stop4273"
         offset="1"
         style="stop-color:#000000;stop-opacity:1" />
    </linearGradient>
    <linearGradient
       gradientTransform="matrix(1.0882909,0,0,1.0882909,-3.7474962,-17.83661)"
       gradientUnits="userSpaceOnUse"
       id="linearGradient7985"
       inkscape:collect="always"
       x1="44.038097"
       x2="92.038094"
       xlink:href="#linearGradient4265"
       y1="120.68687"
       y2="121.81187" />
    <linearGradient
       id="linearGradient4251">
      <stop
         id="stop4253"
         offset="0"
         style="stop-color:#d4d2d1;stop-opacity:1" />
      <stop
         id="stop4259"
         offset="0.30498865"
         style="stop-color:#141414;stop-opacity:1" />
      <stop
         id="stop4261"
         offset="0.70238096"
         style="stop-color:#000000;stop-opacity:1" />
      <stop
         id="stop4255"
         offset="1"
         style="stop-color:#c4c1c0;stop-opacity:1" />
    </linearGradient>
    <linearGradient
       gradientTransform="matrix(1.0882909,0,0,1.0882909,-3.7474962,-17.83661)"
       gradientUnits="userSpaceOnUse"
       id="linearGradient7988"
       inkscape:collect="always"
       x1="36.913097"
       x2="89.163094"
       xlink:href="#linearGradient4251"
       y1="121.81187"
       y2="121.81187" />
    <linearGradient
       gradientUnits="userSpaceOnUse"
       id="linearGradient5033"
       inkscape:collect="always"
       x1="27.342083"
       x2="215.33272"
       xlink:href="#linearGradient4057"
       y1="185.38643"
       y2="29.899771" />
    <linearGradient
       gradientTransform="matrix(0.5757902,0,0,0.4780628,-7.1841241,3.0728537)"
       gradientUnits="userSpaceOnUse"
       id="linearGradient8006"
       inkscape:collect="always"
       x1="17.717955"
       x2="239.95963"
       xlink:href="#linearGradient3366"
       y1="102.33291"
       y2="102.33291" />
    <linearGradient
       id="linearGradient4376"
       inkscape:collect="always">
      <stop
         id="stop4873"
         offset="0"
         style="stop-color:#ffffff;stop-opacity:1;" />
      <stop
         id="stop4380"
         offset="1"
         style="stop-color:#ffffff;stop-opacity:0;" />
    </linearGradient>
    <filter
       color-interpolation-filters="sRGB"
       id="filter4145"
       inkscape:collect="always">
      <feGaussianBlur
         id="feGaussianBlur4147"
         inkscape:collect="always"
         stdDeviation="3.9383346" />
    </filter>
    <linearGradient
       id="linearGradient4345"
       inkscape:collect="always">
      <stop
         id="stop4347"
         offset="0"
         style="stop-color:#656565;stop-opacity:1;" />
      <stop
         id="stop4349"
         offset="1"
         style="stop-color:#656565;stop-opacity:0;" />
    </linearGradient>
    <filter
       color-interpolation-filters="sRGB"
       height="2.5719993"
       id="filter3384"
       inkscape:collect="always"
       width="1.0495118"
       x="-0.024755906"
       y="-0.78599972">
      <feGaussianBlur
         id="feGaussianBlur3386"
         inkscape:collect="always"
         stdDeviation="2.2471568" />
    </filter>
    <filter
       color-interpolation-filters="sRGB"
       height="1.0586964"
       id="filter3362"
       inkscape:collect="always"
       width="2.7784989"
       x="-0.88924938"
       y="-0.029348183">
      <feGaussianBlur
         id="feGaussianBlur3364"
         inkscape:collect="always"
         stdDeviation="2.1186219" />
    </filter>
    <linearGradient
       id="linearGradient3366">
      <stop
         id="stop3368"
         offset="0"
         style="stop-color:#d5d5d1;stop-opacity:1;" />
      <stop
         id="stop3374"
         offset="0.5"
         style="stop-color:#e2e2e1;stop-opacity:1;" />
      <stop
         id="stop3370"
         offset="1"
         style="stop-color:#d0d0cb;stop-opacity:1;" />
    </linearGradient>
    <linearGradient
       id="linearGradient4057">
      <stop
         id="stop4059"
         offset="0"
         style="stop-color:#cc6a00;stop-opacity:1;" />
      <stop
         id="stop4061"
         offset="0.38323474"
         style="stop-color:#ff8400;stop-opacity:1;" />
      <stop
         id="stop4063"
         offset="0.69996178"
         style="stop-color:#ffbe33;stop-opacity:1;" />
      <stop
         id="stop4065"
         offset="1"
         style="stop-color:#ffefcc;stop-opacity:1;" />
    </linearGradient>
    <filter
       color-interpolation-filters="sRGB"
       height="1.4562656"
       id="filter3631"
       inkscape:collect="always"
       width="1.8759423"
       x="-0.43797117"
       y="-0.22813281">
      <feGaussianBlur
         id="feGaussianBlur3633"
         inkscape:collect="always"
         stdDeviation="2.4122631" />
    </filter>
    <filter
       color-interpolation-filters="sRGB"
       height="1.7557592"
       id="filter4281"
       inkscape:collect="always"
       width="1.0378006"
       x="-0.018900301"
       y="-0.37787962">
      <feGaussianBlur
         id="feGaussianBlur4283"
         inkscape:collect="always"
         stdDeviation="0.42624116" />
    </filter>
    <linearGradient
       id="linearGradient4159"
       inkscape:collect="always">
      <stop
         id="stop4161"
         offset="0"
         style="stop-color:#884c25;stop-opacity:1" />
      <stop
         id="stop4163"
         offset="1"
         style="stop-color:#e5bba0;stop-opacity:1" />
    </linearGradient>
    <linearGradient
       gradientUnits="userSpaceOnUse"
       id="XMLID_18_"
       x1="26"
       x2="220"
       y1="69"
       y2="69">
      <stop
         id="stop3354"
         offset="0"
         style="stop-color:#f46f0f;stop-opacity:1;" />
      <stop
         id="stop3364"
         offset="1"
         style="stop-color:#f8a039;stop-opacity:1;" />
    </linearGradient>
    <filter
       color-interpolation-filters="sRGB"
       height="1.3125713"
       id="filter3897"
       inkscape:collect="always"
       width="1.8107973"
       x="-0.40539867"
       y="-0.15628564">
      <feGaussianBlur
         id="feGaussianBlur3899"
         inkscape:collect="always"
         stdDeviation="1.5730313" />
    </filter>
    <linearGradient
       id="linearGradient3905"
       inkscape:collect="always">
      <stop
         id="stop3907"
         offset="0"
         style="stop-color:#90ff90;stop-opacity:1" />
      <stop
         id="stop3909"
         offset="1"
         style="stop-color:#00ae00;stop-opacity:1" />
    </linearGradient>
    <linearGradient
       id="linearGradient2558"
       inkscape:collect="always">
      <stop
         id="stop2560"
         offset="0"
         style="stop-color:#cccccc;stop-opacity:1" />
      <stop
         id="stop2562"
         offset="1"
         style="stop-color:#ffffff;stop-opacity:1" />
    </linearGradient>
  </defs>
  <sodipodi:namedview
     bordercolor="#666666"
     borderopacity="0.25490196"
     fill="#f57900"
     gridtolerance="12"
     guidetolerance="13"
     height="300px"
     id="base"
     inkscape:current-layer="layer6"
     inkscape:cx="1.45105"
     inkscape:cy="18.13961"
     inkscape:document-units="px"
     inkscape:grid-bbox="true"
     inkscape:guide-bbox="true"
     inkscape:pageopacity="0.0"
     inkscape:pageshadow="2"
     inkscape:showpageshadow="false"
     inkscape:snap-bbox="true"
     inkscape:snap-nodes="false"
     inkscape:window-height="687"
     inkscape:window-maximized="0"
     inkscape:window-width="1013"
     inkscape:window-x="118"
     inkscape:window-y="24"
     inkscape:zoom="1"
     objecttolerance="7"
     pagecolor="#ffffff"
     showgrid="false"
     showguides="true"
     stroke="#ef2929"
     width="400px">
    <inkscape:grid
       empspacing="5"
       enabled="true"
       id="grid5883"
       spacingx="1px"
       spacingy="1px"
       type="xygrid"
       visible="true" />
  </sodipodi:namedview>
  <metadata
     id="metadata4">
    <rdf:RDF>
      <cc:Work
         rdf:about="">
        <dc:format>image/svg+xml</dc:format>
        <dc:type
           rdf:resource="http://purl.org/dc/dcmitype/StillImage" />
        <dc:creator>
          <cc:Agent>
            <dc:title>Breathe Icon Team</dc:title>
          </cc:Agent>
        </dc:creator>
        <dc:source />
        <cc:license
           rdf:resource="http://creativecommons.org/licenses/by-sa/3.0/" />
        <dc:title>Breathe Icon Theme icon</dc:title>
        <dc:subject>
          <rdf:Bag />
        </dc:subject>
        <dc:date />
        <dc:rights>
          <cc:Agent>
            <dc:title />
          </cc:Agent>
        </dc:rights>
        <dc:publisher>
          <cc:Agent>
            <dc:title />
          </cc:Agent>
        </dc:publisher>
        <dc:identifier />
        <dc:relation />
        <dc:language />
        <dc:coverage />
        <dc:description />
        <dc:contributor>
          <cc:Agent>
            <dc:title>Jakub Steiner, Cory Kontros, Oxygen and Breathe icon teams</dc:title>
          </cc:Agent>
        </dc:contributor>
      </cc:Work>
      <cc:License
         rdf:about="http://creativecommons.org/licenses/by-sa/3.0/">
        <cc:permits
           rdf:resource="http://creativecommons.org/ns#Reproduction" />
        <cc:permits
           rdf:resource="http://creativecommons.org/ns#Distribution" />
        <cc:requires
           rdf:resource="http://creativecommons.org/ns#Notice" />
        <cc:requires
           rdf:resource="http://creativecommons.org/ns#Attribution" />
        <cc:prohibits
           rdf:resource="http://creativecommons.org/ns#CommercialUse" />
        <cc:permits
           rdf:resource="http://creativecommons.org/ns#DerivativeWorks" />
        <cc:requires
           rdf:resource="http://creativecommons.org/ns#ShareAlike" />
      </cc:License>
    </rdf:RDF>
  </metadata>
  <g
     id="layer1"
     inkscape:groupmode="layer"
     inkscape:label="apps/gnome-screenshot"
     style="display:inline"
     transform="translate(-3,-4)">
    <rect
       height="256"
       id="256x256"
       inkscape:label="256x256"
       style="fill:#eeeeec;fill-opacity:1;fill-rule:nonzero;stroke:none;stroke-width:5;marker:none;visibility:visible;display:none;overflow:visible;enable-background:accumulate"
       width="256"
       x="26.5"
       y="32.823101" />
    <rect
       height="48"
       id="48x48"
       inkscape:label="48x48"
       style="fill:#eeeeec;fill-opacity:1;fill-rule:nonzero;stroke:none;stroke-width:5;marker:none;visibility:visible;display:none;overflow:visible;enable-background:accumulate"
       width="48"
       x="-35.5"
       y="32.823101" />
    <text
       id="text6091"
       sodipodi:linespacing="125%"
       style="font-size:56.11526489px;font-style:normal;font-variant:normal;font-weight:bold;font-stretch:normal;text-indent:0;text-align:start;text-decoration:none;line-height:125%;letter-spacing:normal;word-spacing:normal;text-transform:none;direction:ltr;block-progression:tb;writing-mode:lr-tb;text-anchor:start;fill:#2e3436;fill-opacity:1;fill-rule:nonzero;stroke:none;stroke-width:5;marker:none;visibility:visible;display:none;overflow:visible;enable-background:accumulate;font-family:Myriad"
       x="-418.41196"
       xml:space="preserve"
       y="34.084831"><tspan
         id="tspan6093"
         sodipodi:role="line"
         x="-418.41196"
         y="34.084831">audio-x-generic</tspan></text>
    <g
       id="layer6"
       inkscape:groupmode="layer"
       inkscape:label="plate"
       sodipodi:insensitive="true"
       style="display:none" />
    <g
       id="Livello_1"
       transform="translate(387.11439,42.495045)" />
    <g
       id="g3290"
       transform="translate(443.11439,59.884345)" />
    <g
       id="g7148"
       transform="matrix(0.1956571,0,0,0.1956571,345.26471,19.402885)" />
    <g
       id="g7555"
       transform="matrix(0.1333333,0,0,0.1333333,319.90372,105.99052)" />
    <g
       id="g9283"
       transform="matrix(1.0666666,0,0,1.0666666,384.44667,40.470571)" />
  </g>
  <g
     id="g8093"
     style="display:inline;enable-background:new"
     transform="translate(-2.9999843,-3.9999998)">
    <path
       d="m 37.413097,124.41789 c 0,0 0.621631,1.62404 1.125,1.86113 16.013744,1.08107 33.195526,1.17404 51.874999,0 0.50337,-0.23709 1.124999,-1.86113 1.125001,-1.86113 -19.247998,1.95222 -36.492967,0.72469 -54.125,0 z"
       id="path4277"
       sodipodi:nodetypes="ccccc"
       style="opacity:0.7;fill:#000000;fill-opacity:1;fill-rule:evenodd;stroke:none;display:inline;filter:url(#filter4281);enable-background:new"
       transform="matrix(1.1167265,0,0,1.7278775,-5.5808972,-98.566932)" />
    <path
       d="m 56.766059,95.510661 19.695483,0 0.57928,17.378359 c -3.456235,0.52745 -11.140271,0.92993 -21.240227,-0.1931 l 0.965464,-17.185259 0,0 0,0 z"
       id="rect2540"
       sodipodi:nodetypes="cccccc"
       style="fill:#000000;fill-opacity:1;stroke:none" />
    <rect
       height="88.219208"
       id="rect2532"
       rx="2.2455792"
       ry="2.2455792"
       style="fill:url(#linearGradient8006);fill-opacity:1;stroke:#797979;stroke-width:0.49599999;stroke-linecap:round;stroke-linejoin:miter;stroke-miterlimit:4;stroke-opacity:1;stroke-dasharray:none;stroke-dashoffset:1.26169998"
       width="127.50394"
       x="3.2480159"
       y="7.884809" />
    <path
       d="m 10.003399,9.9760213 -0.2245929,0.2271447 -0.8488027,0 0,0.676412 0.7338748,0 -0.2245938,0.227223 -0.2820578,0 -0.2272232,-0.17239 0,1.13086 -0.2820578,0 0,-2.0892497 1.3554534,0 z m 1.673217,1.8620257 -0.224594,0.227224 -1.13086,0 -0.224594,-0.221964 0,-1.8672857 0.282058,0 0,1.8620257 1.29799,0 z m 1.637352,0.227224 -0.282057,0 0,-0.95847 -0.791339,0 -0.224594,-0.17239 0,1.13086 -0.282058,0 0,-1.862105 0.224594,-0.2271447 1.13086,0 0.224594,0.2271447 0,1.862105 z m -0.282057,-1.185693 0,-0.676412 -1.015933,0 0,0.676412 1.015933,0 z m 2.348035,-0.9035567 -0.224595,0.2271447 -0.564114,0 0,1.862105 -0.282058,0 0,-1.862105 -0.733875,0 0.224594,-0.2271447 1.580048,0 z m 1.461216,1.8620257 -0.227145,0.227224 -1.355454,0 0,-2.0892497 0.958469,0 0.227224,0.2271447 0,0.451817 -0.227224,0.224595 0.396985,0 0.227145,0.227223 0,0.731246 z m -0.678963,-0.958469 0,-0.676412 -0.621579,0 0,0.676412 0.621579,0 z m 0.394355,0.958469 0,-0.731246 -0.79134,0 -0.224594,-0.17239 0,0.903636 1.015934,0 z m 2.110689,0 -0.227145,0.227224 -1.12823,0 -0.227224,-0.221964 0,-1.8672857 0.282058,0 0,1.8620257 1.015932,0 0,-1.8620257 0.284609,0 0,1.8620257 z m 1.828393,0.227224 -0.279508,0 -1.013302,-1.687085 0,1.687085 -0.279428,0 0,-1.854215 0.336891,-0.3395217 0.955839,1.6322517 0,-1.5277647 0.279508,0 0,2.0892497 z m 2.066216,-2.0892497 -0.224594,0.2271447 -0.564114,0 0,1.862105 -0.282058,0 0,-1.862105 -0.733876,0 0.224594,-0.2271447 1.580048,0 z m 1.461215,1.8620257 -0.227143,0.227224 -1.12823,0 -0.227225,-0.221964 0,-1.8672857 0.282058,0 0,1.8620257 1.015933,0 0,-1.8620257 0.284607,0 0,1.8620257 z"
       id="text2449"
       style="font-size:2.99965978px;font-style:normal;font-variant:normal;font-weight:normal;font-stretch:normal;fill:#585954;fill-opacity:1;stroke:none;font-family:Droid Sans;-inkscape-font-specification:Droid Sans" />
    <path
       d="m 27.84375,19.78125 0,165.09375 202,0 0,-165.09375 -202,0 z"
       id="path2538"
       inkscape:original="M 18.125 10.0625 L 18.125 194.59375 L 239.5625 194.59375 L 239.5625 10.0625 L 18.125 10.0625 z "
       inkscape:radius="-9.7300129"
       sodipodi:type="inkscape:offset"
       style="fill:url(#linearGradient5033);fill-opacity:1;stroke:#3d3b37;stroke-width:1.53255475;stroke-linecap:round;stroke-linejoin:miter;stroke-miterlimit:4;stroke-opacity:1;stroke-dasharray:none;stroke-dashoffset:1.26169998"
       transform="matrix(0.5739165,0,0,0.458101,-7.1358974,3.4637797)" />
    <path
       d="m 19.5638,14.130453 4.00257,5.14616 0,158.387387 -5.71796,9.72053 1.71539,-173.254077 0,0 z"
       id="path3340"
       style="opacity:0.4;fill:#000000;fill-opacity:1;fill-rule:evenodd;stroke:none;filter:url(#filter3362)"
       transform="matrix(0.4030532,0,0,0.4780628,-4.1761596,3.0728537)" />
    <path
       d="m 19.5638,14.130453 4.00257,5.14616 0,158.387387 -5.71796,9.72053 1.71539,-173.254077 0,0 z"
       id="path3376"
       style="opacity:0.4;fill:#000000;fill-opacity:1;fill-rule:evenodd;stroke:none;filter:url(#filter3362)"
       transform="matrix(-0.4030532,0,0,0.4780628,138.17611,3.0728537)" />
    <path
       d="m 19.5638,14.130453 4.00257,5.14616 0,158.387387 -5.71796,9.72053 1.71539,-173.254077 0,0 z"
       id="path3378"
       style="opacity:0.4;fill:#464646;fill-opacity:1;fill-rule:evenodd;stroke:none;filter:url(#filter3362)"
       transform="matrix(0,0.334644,-0.6974091,0,137.26919,1.7207208)" />
    <path
       d="m 122.125,197.68504 -1.75,25.37746 c 4.59135,3.31854 9.08308,7.14379 13.21875,-0.0856 l -1.75,-25.29182 -9.71875,0 0,-4e-5 z"
       id="path3621"
       sodipodi:nodetypes="cccccc"
       style="opacity:0.5;fill:#cccccc;fill-opacity:1;stroke:none;filter:url(#filter3631)"
       transform="matrix(0.5755076,0,0,0.4994268,-7.1477107,-2.0936888)" />
    <path
       d="m 19.911721,191.56952 4.00257,-3.43078 210.992589,0.5718 2.85897,3.43077 -4.00257,2.85898 -212.707969,-0.5718 -1.14359,-2.85897 0,0 z"
       id="path3382"
       style="opacity:0.7;fill:#605f5a;fill-opacity:1;fill-rule:evenodd;stroke:none;filter:url(#filter3384)"
       transform="matrix(0.5757902,0,0,0.4780628,-7.1841242,3.0728537)" />
    <g
       id="g3776"
       style="fill:#585954;fill-opacity:1"
       transform="matrix(0.06140116,0,0,0.06140116,77.127568,73.180171)">
      <circle
         cx="9.1239996"
         cy="46.903999"
         d="m 18.247999,46.903999 c 0,5.039046 -4.084954,9.124 -9.1239994,9.124 C 4.0849538,56.027999 0,51.943045 0,46.903999 0,41.864953 4.0849538,37.78 9.1239996,37.78 c 5.0390454,0 9.1239994,4.084953 9.1239994,9.123999 z"
         id="circle3706"
         r="9.1239996"
         sodipodi:cx="9.1239996"
         sodipodi:cy="46.903999"
         sodipodi:rx="9.1239996"
         sodipodi:ry="9.1239996"
         style="fill:#585954;fill-opacity:1"
         transform="translate(-210.30076,261.44294)" />
      <circle
         cx="74.547997"
         cy="84.667"
         d="m 83.671996,84.667 c 0,5.039046 -4.084954,9.123999 -9.123999,9.123999 -5.039046,0 -9.124,-4.084953 -9.124,-9.123999 0,-5.039046 4.084954,-9.124 9.124,-9.124 5.039045,0 9.123999,4.084954 9.123999,9.124 z"
         id="circle3708"
         r="9.1239996"
         sodipodi:cx="74.547997"
         sodipodi:cy="84.667"
         sodipodi:rx="9.1239996"
         sodipodi:ry="9.1239996"
         style="fill:#585954;fill-opacity:1"
         transform="translate(-210.30076,261.44294)" />
      <circle
         cx="74.540001"
         cy="9.1260004"
         d="m 83.664001,9.1260004 c 0,5.0390456 -4.084954,9.1239996 -9.124,9.1239996 -5.039046,0 -9.124,-4.084954 -9.124,-9.1239996 0,-5.0390458 4.084954,-9.12399959 9.124,-9.12399959 5.039046,0 9.124,4.08495379 9.124,9.12399959 z"
         id="circle3710"
         r="9.1239996"
         sodipodi:cx="74.540001"
         sodipodi:cy="9.1260004"
         sodipodi:rx="9.1239996"
         sodipodi:ry="9.1239996"
         style="fill:#585954;fill-opacity:1"
         transform="translate(-210.30076,261.44294)" />
      <path
         d="m -157.56176,285.76994 c 11.361,0 20.787,8.436 22.348,19.373 l 15.632,0 c -0.71,-8.594 -4.273,-16.604 -10.23,-22.921 -3.815,1.943 -8.506,1.98 -12.491,-0.32 -3.988,-2.303 -6.302,-6.387 -6.524,-10.667 -2.831,-0.66 -5.756,-1.002 -8.735,-1.002 -5.704,0 -11.216,1.245 -16.229,3.606 l 7.826,13.555 c 2.599,-1.046 5.435,-1.624 8.403,-1.624 z"
         id="path3712"
         style="fill:#585954;fill-opacity:1" />
      <path
         d="m -180.13776,308.34694 c 0,-7.193 3.381,-13.61 8.636,-17.747 l -7.824,-13.553 c -1.835,1.282 -3.571,2.733 -5.188,4.349 -4.528,4.528 -7.775,9.995 -9.562,15.962 3.6,2.332 5.984,6.38 5.984,10.989 0,4.608 -2.384,8.657 -5.984,10.988 1.787,5.967 5.034,11.434 9.562,15.962 1.616,1.616 3.35,3.065 5.184,4.348 l 7.825,-13.554 c -5.254,-4.137 -8.633,-10.554 -8.633,-17.744 l 0,0 z"
         id="path3714"
         style="fill:#585954;fill-opacity:1" />
      <path
         d="m -135.21276,311.54094 c -1.557,10.941 -10.985,19.382 -22.349,19.382 -2.97,0 -5.807,-0.578 -8.406,-1.626 l -7.827,13.556 c 5.012,2.362 10.526,3.608 16.232,3.608 2.981,0 5.91,-0.344 8.742,-1.004 0.218,-4.285 2.533,-8.376 6.524,-10.68 3.986,-2.302 8.679,-2.265 12.495,-0.318 5.952,-6.318 9.511,-14.327 10.219,-22.918 l -15.63,0 z"
         id="path3716"
         style="fill:#585954;fill-opacity:1" />
    </g>
    <path
       d="m 61.002278,109.1851 13.435969,0"
       id="path4045"
       style="opacity:0.85;fill:none;stroke:#000000;stroke-width:1.08829093;stroke-linecap:round;stroke-linejoin:miter;stroke-miterlimit:4;stroke-opacity:1;stroke-dasharray:none" />
    <path
       d="m 36.968836,116.1592 c 0,0 0.676516,1.30578 1.224327,1.4964 17.427612,0.86922 36.126389,0.94396 56.45509,0 0.547813,-0.19062 1.224326,-1.4964 1.224328,-1.4964 -19.907594,-6.80892 -38.949337,-6.61641 -58.903745,0 z"
       id="path4246"
       sodipodi:nodetypes="ccccc"
       style="fill:url(#linearGradient7988);fill-opacity:1;fill-rule:evenodd;stroke:#000000;stroke-width:1.08829093;stroke-linecap:round;stroke-linejoin:round;stroke-miterlimit:4;stroke-opacity:1;stroke-dasharray:none" />
    <path
       d="m 36.968836,116.1592 c 0,0 0.676516,1.30578 1.224327,1.4964 17.427612,0.86922 36.126389,0.94396 56.45509,0 0.547813,-0.19062 1.224326,-1.4964 1.224328,-1.4964 -20.947421,1.56964 -39.714964,0.58267 -58.903745,0 z"
       id="path4263"
       sodipodi:nodetypes="ccccc"
       style="fill:url(#linearGradient7985);fill-opacity:1;fill-rule:evenodd;stroke:none;display:inline;enable-background:new" />
    <g
       id="g4369"
       transform="matrix(1.0882909,0,0,1.0882909,6.0744775,-17.83661)">
      <path
         d="m 86.125,101.25 c 0,1.38071 -1.119288,2.5 -2.5,2.5 -1.380712,0 -2.5,-1.11929 -2.5,-2.5 0,-1.380712 1.119288,-2.5 2.5,-2.5 1.380712,0 2.5,1.119288 2.5,2.5 z"
         id="path4343"
         sodipodi:cx="83.625"
         sodipodi:cy="101.25"
         sodipodi:rx="2.5"
         sodipodi:ry="2.5"
         sodipodi:type="arc"
         style="opacity:0.96000001;fill:#eeeeee;fill-opacity:1;fill-rule:evenodd;stroke:url(#linearGradient5039);stroke-width:1.29411757;stroke-linecap:round;stroke-linejoin:round;stroke-miterlimit:4;stroke-opacity:1;stroke-dasharray:none;stroke-dashoffset:0;marker:none;visibility:visible;display:inline;overflow:visible;enable-background:accumulate"
         transform="matrix(0.5741292,0,0,0.5741292,35.613451,42.898643)" />
      <path
         d="m 86.125,101.25 c 0,1.38071 -1.119288,2.5 -2.5,2.5 -1.380712,0 -2.5,-1.11929 -2.5,-2.5 0,-1.380712 1.119288,-2.5 2.5,-2.5 1.380712,0 2.5,1.119288 2.5,2.5 z"
         id="path4353"
         sodipodi:cx="83.625"
         sodipodi:cy="101.25"
         sodipodi:rx="2.5"
         sodipodi:ry="2.5"
         sodipodi:type="arc"
         style="opacity:0.96000001;fill:#eeeeee;fill-opacity:1;fill-rule:evenodd;stroke:url(#linearGradient5041);stroke-width:1.29411757;stroke-linecap:round;stroke-linejoin:round;stroke-miterlimit:4;stroke-opacity:1;stroke-dasharray:none;stroke-dashoffset:0;marker:none;visibility:visible;display:inline;overflow:visible;enable-background:accumulate"
         transform="matrix(0.5741292,0,0,0.5741292,41.613451,42.898643)" />
      <path
         d="m 86.125,101.25 c 0,1.38071 -1.119288,2.5 -2.5,2.5 -1.380712,0 -2.5,-1.11929 -2.5,-2.5 0,-1.380712 1.119288,-2.5 2.5,-2.5 1.380712,0 2.5,1.119288 2.5,2.5 z"
         id="path4357"
         sodipodi:cx="83.625"
         sodipodi:cy="101.25"
         sodipodi:rx="2.5"
         sodipodi:ry="2.5"
         sodipodi:type="arc"
         style="opacity:0.96000001;fill:#eeeeee;fill-opacity:1;fill-rule:evenodd;stroke:url(#linearGradient5043);stroke-width:1.29411757;stroke-linecap:round;stroke-linejoin:round;stroke-miterlimit:4;stroke-opacity:1;stroke-dasharray:none;stroke-dashoffset:0;marker:none;visibility:visible;display:inline;overflow:visible;enable-background:accumulate"
         transform="matrix(0.5741292,0,0,0.5741292,47.613451,42.898643)" />
      <path
         d="m 86.125,101.25 c 0,1.38071 -1.119288,2.5 -2.5,2.5 -1.380712,0 -2.5,-1.11929 -2.5,-2.5 0,-1.380712 1.119288,-2.5 2.5,-2.5 1.380712,0 2.5,1.119288 2.5,2.5 z"
         id="path4361"
         sodipodi:cx="83.625"
         sodipodi:cy="101.25"
         sodipodi:rx="2.5"
         sodipodi:ry="2.5"
         sodipodi:type="arc"
         style="opacity:0.96000001;fill:#eeeeee;fill-opacity:1;fill-rule:evenodd;stroke:url(#linearGradient5045);stroke-width:1.29411757;stroke-linecap:round;stroke-linejoin:round;stroke-miterlimit:4;stroke-opacity:1;stroke-dasharray:none;stroke-dashoffset:0;marker:none;visibility:visible;display:inline;overflow:visible;enable-background:accumulate"
         transform="matrix(0.5741292,0,0,0.5741292,53.613451,42.898643)" />
      <path
         d="m 86.125,101.25 c 0,1.38071 -1.119288,2.5 -2.5,2.5 -1.380712,0 -2.5,-1.11929 -2.5,-2.5 0,-1.380712 1.119288,-2.5 2.5,-2.5 1.380712,0 2.5,1.119288 2.5,2.5 z"
         id="path4365"
         sodipodi:cx="83.625"
         sodipodi:cy="101.25"
         sodipodi:rx="2.5"
         sodipodi:ry="2.5"
         sodipodi:type="arc"
         style="opacity:0.96000001;fill:#eeeeee;fill-opacity:1;fill-rule:evenodd;stroke:url(#linearGradient5047);stroke-width:1.29411757;stroke-linecap:round;stroke-linejoin:round;stroke-miterlimit:4;stroke-opacity:1;stroke-dasharray:none;stroke-dashoffset:0;marker:none;visibility:visible;display:inline;overflow:visible;enable-background:accumulate"
         transform="matrix(0.5741292,0,0,0.5741292,59.613451,42.898643)" />
    </g>
    <g
       id="g5070"
       style="display:inline;enable-background:new"
       transform="translate(7.938013,1.2919388)">
      <path
         d="m 22.302663,20.762194 42.507529,0 0,39.381976 -42.507529,0 0,-39.381976 z"
         id="rect4069"
         style="opacity:0.75;fill:#ffffff;fill-opacity:1;stroke:#532e16;stroke-width:1.51368964;stroke-miterlimit:4;stroke-opacity:1" />
      <rect
         height="8.9133692"
         id="rect4069-3"
         style="fill:#532e16;fill-opacity:1;stroke:none"
         width="43.29446"
         x="21.909199"
         y="20.368731" />
      <rect
         height="39.381981"
         id="rect4069-6"
         style="opacity:0.75;fill:#ffffff;fill-opacity:1;stroke:#532e16;stroke-width:1.51368964;stroke-miterlimit:4;stroke-opacity:1;stroke-dasharray:none"
         width="42.507534"
         x="52.93309"
         y="37.95274" />
      <rect
         height="8.9133692"
         id="rect4069-3-4"
         style="fill:#532e16;fill-opacity:1;stroke:none"
         width="43.29446"
         x="52.539623"
         y="37.559277" />
    </g>
    <g
       id="g4747"
       style="display:inline;enable-background:new"
       transform="translate(34.315062,-44.512495)">
      <rect
         height="142.38092"
         id="rect4055"
         rx="0"
         ry="0"
         style="fill:none;stroke:#000000;stroke-width:3;stroke-miterlimit:4;stroke-opacity:1;stroke-dasharray:none;filter:url(#filter4145)"
         transform="matrix(0.5045632,0,0,0.5260623,-28.609564,46.604978)"
         width="120.17472"
         x="122.65254"
         y="96.18" />
      <g
         id="g3911"
         transform="matrix(0.1290988,0,0,0.1345996,101.65491,121.00862)">
        <rect
           height="30.353411"
           id="rect3864"
           rx="4.9020467"
           ry="4.9020467"
           style="fill:#00ff00;fill-opacity:1;fill-rule:nonzero;stroke:#00a700;stroke-width:1;stroke-linecap:square;stroke-linejoin:round;stroke-miterlimit:4;stroke-opacity:1;stroke-dasharray:none;stroke-dashoffset:1.2"
           width="15.486434"
           x="-113.36069"
           y="203.96558" />
        <path
           d="m -108.46875,203.71875 c -2.66421,0 -5.15625,2.49204 -5.15625,5.15625 l 0,20.53125 c 0,2.66421 2.49204,5.15625 5.15625,5.15625 l 5.6875,0 c 2.66421,0 5.15625,-2.49204 5.15625,-5.15625 l 0,-20.53125 c 0,-2.66421 -2.49204,-5.15625 -5.15625,-5.15625 l -5.6875,0 z"
           id="path3901"
           inkscape:original="M -108.46875 207.0625 C -109.51896 207.0625 -110.28125 207.82479 -110.28125 208.875 L -110.28125 229.40625 C -110.28125 230.45646 -109.51896 231.21875 -108.46875 231.21875 L -102.78125 231.21875 C -101.73104 231.21875 -100.96875 230.45646 -100.96875 229.40625 L -100.96875 208.875 C -100.96875 207.82479 -101.73104 207.0625 -102.78125 207.0625 L -108.46875 207.0625 z "
           inkscape:radius="3.3354242"
           sodipodi:type="inkscape:offset"
           style="fill:url(#linearGradient6009);fill-opacity:1;fill-rule:nonzero;stroke:none;filter:url(#filter3897)" />
      </g>
      <rect
         height="74.901237"
         id="rect4055-0"
         rx="0"
         ry="0"
         style="fill:url(#linearGradient6011);fill-opacity:1;fill-rule:nonzero;stroke:#404040;stroke-opacity:1"
         width="60.635742"
         x="33.276394"
         y="97.201653" />
      <rect
         height="48.229229"
         id="rect4157"
         style="fill:url(#radialGradient6013);fill-opacity:1;fill-rule:nonzero;stroke:url(#linearGradient6015);stroke-width:1.03040123;stroke-linecap:round;stroke-linejoin:round;stroke-miterlimit:4;stroke-opacity:1;stroke-dasharray:none;stroke-dashoffset:1.2"
         width="50.008862"
         x="38.589832"
         y="103.71912" />
      <path
         d="m 41.418943,110.67519 25.857381,0 0,24.97686 -25.857381,0 0,-24.97686 z"
         id="rect4069-7"
         style="opacity:0.75;fill:#ffffff;fill-opacity:1;stroke:#532e16;stroke-width:0.94019151;stroke-miterlimit:4;stroke-opacity:1" />
      <rect
         height="5.6530418"
         id="rect4069-3-6"
         style="fill:#532e16;fill-opacity:1;stroke:none"
         width="26.336075"
         x="41.179592"
         y="110.42565" />
      <rect
         height="24.97686"
         id="rect4069-6-7"
         style="opacity:0.753;fill:#ffffff;fill-opacity:1;stroke:#532e16;stroke-width:0.94019151;stroke-miterlimit:4;stroke-opacity:1;stroke-dasharray:none"
         width="25.857384"
         x="60.051464"
         y="121.57779" />
      <rect
         height="5.6530418"
         id="rect4069-3-4-3"
         style="fill:#532e16;fill-opacity:1;stroke:none"
         width="26.336075"
         x="59.812122"
         y="121.32825" />
      <path
         d="m 38.591946,103.71562 0,45.73454 C 53.145487,126.7914 72.652198,112.98375 88.591008,103.97865 l 0,-0.26303 -49.999062,0 z"
         id="rect4157-8"
         style="fill:url(#linearGradient6017);fill-opacity:1;fill-rule:nonzero;stroke:none" />
    </g>
  </g>
  <g
     id="g6056"
     style="display:inline;enable-background:new"
     transform="translate(-3.0000076,-5.3939303)">
    <g
       id="g4524"
       style="fill:#585954;fill-opacity:1"
       transform="matrix(0.02664547,0,0,0.02664547,162.39492,29.900461)" />
    <g
       id="g4544"
       transform="matrix(0.4886802,0,0,0.4886802,125.44515,-11.104968)" />
    <g
       id="g5791"
       style="display:inline;enable-background:new"
       transform="matrix(0.8914833,0,0,0.9074773,17.548334,3.8525667)" />
    <g
       id="g5908"
       style="display:inline;enable-background:new"
       transform="translate(2.7324934,2.5266167)">
      <g
         id="g4653"
         transform="matrix(0.04873873,0,0,0.05081547,180.24048,29.833734)" />
    </g>
  </g>
  <g
     id="g6318"
     style="display:inline;enable-background:new"
     transform="translate(-3,-4.945402)">
    <g
       id="g4658"
       style="fill:#585954;fill-opacity:1"
       transform="matrix(0.01848495,0,0,0.01848495,153.0019,72.094724)" />
    <g
       id="g4678"
       transform="matrix(0.3431854,0,0,0.3431854,126.14035,43.143803)" />
    <g
       id="g6015"
       style="display:inline;enable-background:new"
       transform="matrix(0.9336062,0,0,0.9336062,13.533272,10.219685)" />
    <g
       id="g5966"
       style="display:inline;enable-background:new"
       transform="matrix(1.0157146,0,0,1.0897248,-13.836863,-2.9164049)">
      <g
         id="g3622"
         transform="matrix(0.03273931,0,0,0.03413432,177.57248,69.309689)" />
    </g>
  </g>
  <g
     id="g7839"
     style="display:inline;enable-background:new"
     transform="translate(-3.0000076,-4.0000014)">
    <g
       id="g4885"
       transform="matrix(1.2912127,0,0,1.2912127,-42.487714,-32.446069)" />
    <g
       id="g4804"
       style="fill:#585954;fill-opacity:1"
       transform="matrix(0.02089748,0,0,0.02089748,149.41473,98.531531)" />
    <g
       id="g6234"
       style="display:inline;enable-background:new"
       transform="matrix(1,0,0,0.9275928,0.1737316,7.1092112)" />
    <g
       id="g7759"
       transform="translate(-0.5000014,-0.5029082)">
      <g
         id="g4841"
         transform="matrix(0.01745745,0,0,0.02191212,156.81331,103.15533)" />
    </g>
  </g>
  <g
     id="g2760"
     transform="matrix(0.02505974,0,0,0.02450002,146.38814,117.13006)" />
  <g
     id="g7917"
     transform="translate(-2.9995648,-3.7996014)" />
  <g
     id="g7913"
     transform="translate(-3.1997427,-3.7996014)" />
</svg>
