<?xml version="1.0" encoding="UTF-8" standalone="no"?>
<!-- Created with Inkscape (http://www.inkscape.org/) -->

<svg
   xmlns:dc="http://purl.org/dc/elements/1.1/"
   xmlns:cc="http://creativecommons.org/ns#"
   xmlns:rdf="http://www.w3.org/1999/02/22-rdf-syntax-ns#"
   xmlns:svg="http://www.w3.org/2000/svg"
   xmlns="http://www.w3.org/2000/svg"
   xmlns:xlink="http://www.w3.org/1999/xlink"
   xmlns:sodipodi="http://sodipodi.sourceforge.net/DTD/sodipodi-0.dtd"
   xmlns:inkscape="http://www.inkscape.org/namespaces/inkscape"
   height="128"
   id="svg11300"
   inkscape:export-filename="/home/mma/BZR-WORK/breathe-icon-set/source_svg/rendered/computer.png"
   inkscape:export-xdpi="90.000000"
   inkscape:export-ydpi="90.000000"
   inkscape:output_extension="org.inkscape.output.svg.inkscape"
   inkscape:version="0.46+devel r21673"
   sodipodi:docname="preferences-desktop-keyboard.svg"
   sodipodi:version="0.32"
   style="display:inline;enable-background:new"
   version="1.0"
   width="128">
  <title
     id="title4119">Breathe Icon Theme computer</title>
  <defs
     id="defs3">
    <linearGradient
       id="linearGradient3257"
       inkscape:collect="always">
      <stop
         id="stop3259"
         offset="0"
         style="stop-color:#505050;stop-opacity:1" />
      <stop
         id="stop3261"
         offset="1"
         style="stop-color:#1f1f1f;stop-opacity:1" />
    </linearGradient>
    <linearGradient
       id="linearGradient3245"
       inkscape:collect="always">
      <stop
         id="stop3247"
         offset="0"
         style="stop-color:#ffffff;stop-opacity:1;" />
      <stop
         id="stop3249"
         offset="1"
         style="stop-color:#ffffff;stop-opacity:0;" />
    </linearGradient>
    <filter
       color-interpolation-filters="sRGB"
       id="filter3932"
       inkscape:collect="always">
      <feGaussianBlur
         id="feGaussianBlur3934"
         inkscape:collect="always"
         stdDeviation="1.6008295" />
    </filter>
    <linearGradient
       gradientUnits="userSpaceOnUse"
       id="linearGradient3988"
       inkscape:collect="always"
       x1="46.635422"
       x2="8.0981007"
       xlink:href="#linearGradient3257"
       y1="31.988729"
       y2="31.988729" />
    <linearGradient
       gradientUnits="userSpaceOnUse"
       id="linearGradient3990"
       inkscape:collect="always"
       x1="7.7326341"
       x2="27.679417"
       xlink:href="#linearGradient3245"
       y1="14.348297"
       y2="30.256496" />
    <linearGradient
       gradientUnits="userSpaceOnUse"
       id="linearGradient3992"
       inkscape:collect="always"
       x1="46.635422"
       x2="8.0981007"
       xlink:href="#linearGradient3257"
       y1="31.988729"
       y2="31.988729" />
    <linearGradient
       gradientUnits="userSpaceOnUse"
       id="linearGradient3994"
       inkscape:collect="always"
       x1="7.7326341"
       x2="27.679417"
       xlink:href="#linearGradient3245"
       y1="14.348297"
       y2="30.256496" />
    <linearGradient
       gradientUnits="userSpaceOnUse"
       id="linearGradient3996"
       inkscape:collect="always"
       x1="46.635422"
       x2="8.0981007"
       xlink:href="#linearGradient3257"
       y1="31.988729"
       y2="31.988729" />
    <linearGradient
       gradientUnits="userSpaceOnUse"
       id="linearGradient3998"
       inkscape:collect="always"
       x1="7.7326341"
       x2="27.679417"
       xlink:href="#linearGradient3245"
       y1="14.348297"
       y2="30.256496" />
    <linearGradient
       gradientUnits="userSpaceOnUse"
       id="linearGradient4000"
       inkscape:collect="always"
       x1="46.635422"
       x2="8.0981007"
       xlink:href="#linearGradient3257"
       y1="31.988729"
       y2="31.988729" />
    <linearGradient
       gradientUnits="userSpaceOnUse"
       id="linearGradient4002"
       inkscape:collect="always"
       x1="7.7326341"
       x2="27.679417"
       xlink:href="#linearGradient3245"
       y1="14.348297"
       y2="30.256496" />
    <linearGradient
       gradientUnits="userSpaceOnUse"
       id="linearGradient4004"
       inkscape:collect="always"
       x1="46.635422"
       x2="8.0981007"
       xlink:href="#linearGradient3257"
       y1="31.988729"
       y2="31.988729" />
    <linearGradient
       gradientUnits="userSpaceOnUse"
       id="linearGradient4006"
       inkscape:collect="always"
       x1="7.7326341"
       x2="27.679417"
       xlink:href="#linearGradient3245"
       y1="14.348297"
       y2="30.256496" />
    <linearGradient
       gradientUnits="userSpaceOnUse"
       id="linearGradient4008"
       inkscape:collect="always"
       x1="46.635422"
       x2="8.0981007"
       xlink:href="#linearGradient3257"
       y1="31.988729"
       y2="31.988729" />
    <linearGradient
       gradientUnits="userSpaceOnUse"
       id="linearGradient4010"
       inkscape:collect="always"
       x1="7.7326341"
       x2="27.679417"
       xlink:href="#linearGradient3245"
       y1="14.348297"
       y2="30.256496" />
    <linearGradient
       gradientUnits="userSpaceOnUse"
       id="linearGradient4012"
       inkscape:collect="always"
       x1="46.635422"
       x2="8.0981007"
       xlink:href="#linearGradient3257"
       y1="31.988729"
       y2="31.988729" />
    <linearGradient
       gradientUnits="userSpaceOnUse"
       id="linearGradient4014"
       inkscape:collect="always"
       x1="7.7326341"
       x2="27.679417"
       xlink:href="#linearGradient3245"
       y1="14.348297"
       y2="30.256496" />
    <linearGradient
       gradientUnits="userSpaceOnUse"
       id="linearGradient4016"
       inkscape:collect="always"
       x1="46.635422"
       x2="8.0981007"
       xlink:href="#linearGradient3257"
       y1="31.988729"
       y2="31.988729" />
    <linearGradient
       gradientUnits="userSpaceOnUse"
       id="linearGradient4018"
       inkscape:collect="always"
       x1="7.7326341"
       x2="27.679417"
       xlink:href="#linearGradient3245"
       y1="14.348297"
       y2="30.256496" />
    <linearGradient
       gradientUnits="userSpaceOnUse"
       id="linearGradient4020"
       inkscape:collect="always"
       x1="46.635422"
       x2="8.0981007"
       xlink:href="#linearGradient3257"
       y1="31.988729"
       y2="31.988729" />
    <linearGradient
       gradientUnits="userSpaceOnUse"
       id="linearGradient4022"
       inkscape:collect="always"
       x1="7.7326341"
       x2="27.679417"
       xlink:href="#linearGradient3245"
       y1="14.348297"
       y2="30.256496" />
  </defs>
  <sodipodi:namedview
     bordercolor="#666666"
     borderopacity="0.25490196"
     fill="#f57900"
     gridtolerance="12"
     guidetolerance="13"
     height="300px"
     id="base"
     inkscape:current-layer="layer6"
     inkscape:cx="-6.14295"
     inkscape:cy="22.854166"
     inkscape:document-units="px"
     inkscape:grid-bbox="true"
     inkscape:guide-bbox="true"
     inkscape:pageopacity="0.0"
     inkscape:pageshadow="2"
     inkscape:showpageshadow="false"
     inkscape:snap-bbox="true"
     inkscape:snap-nodes="false"
     inkscape:window-height="904"
     inkscape:window-maximized="0"
     inkscape:window-width="1280"
     inkscape:window-x="228"
     inkscape:window-y="174"
     inkscape:zoom="1"
     objecttolerance="7"
     pagecolor="#ffffff"
     showgrid="false"
     showguides="true"
     stroke="#ef2929"
     width="400px">
    <inkscape:grid
       empspacing="5"
       enabled="true"
       id="grid5883"
       spacingx="1px"
       spacingy="1px"
       type="xygrid"
       visible="true" />
  </sodipodi:namedview>
  <metadata
     id="metadata4">
    <rdf:RDF>
      <cc:Work
         rdf:about="">
        <dc:format>image/svg+xml</dc:format>
        <dc:type
           rdf:resource="http://purl.org/dc/dcmitype/StillImage" />
        <dc:creator>
          <cc:Agent>
            <dc:title>Breathe Icon Team</dc:title>
          </cc:Agent>
        </dc:creator>
        <dc:source />
        <cc:license
           rdf:resource="http://creativecommons.org/licenses/by-sa/3.0/" />
        <dc:title>Breathe Icon Theme template</dc:title>
        <dc:subject>
          <rdf:Bag />
        </dc:subject>
        <dc:date />
        <dc:rights>
          <cc:Agent>
            <dc:title />
          </cc:Agent>
        </dc:rights>
        <dc:publisher>
          <cc:Agent>
            <dc:title />
          </cc:Agent>
        </dc:publisher>
        <dc:identifier />
        <dc:relation />
        <dc:language />
        <dc:coverage />
        <dc:description>template</dc:description>
        <dc:contributor>
          <cc:Agent>
            <dc:title>Jakub Steiner, Cory Kontros, Oxygen icon team</dc:title>
          </cc:Agent>
        </dc:contributor>
      </cc:Work>
      <cc:License
         rdf:about="http://creativecommons.org/licenses/by-sa/3.0/">
        <cc:permits
           rdf:resource="http://creativecommons.org/ns#Reproduction" />
        <cc:permits
           rdf:resource="http://creativecommons.org/ns#Distribution" />
        <cc:requires
           rdf:resource="http://creativecommons.org/ns#Notice" />
        <cc:requires
           rdf:resource="http://creativecommons.org/ns#Attribution" />
        <cc:prohibits
           rdf:resource="http://creativecommons.org/ns#CommercialUse" />
        <cc:permits
           rdf:resource="http://creativecommons.org/ns#DerivativeWorks" />
        <cc:requires
           rdf:resource="http://creativecommons.org/ns#ShareAlike" />
      </cc:License>
    </rdf:RDF>
  </metadata>
  <g
     id="layer1"
     inkscape:groupmode="layer"
     inkscape:label="apps/preferences-desktop-keyboard"
     sodipodi:insensitive="true"
     style="display:inline"
     transform="translate(-3,-4)">
    <rect
       height="256"
       id="256x256"
       inkscape:label="256x256"
       style="fill:#eeeeec;fill-opacity:1;fill-rule:nonzero;stroke:none;stroke-width:5;marker:none;visibility:visible;display:none;overflow:visible;enable-background:accumulate"
       width="256"
       x="26.5"
       y="32.823101" />
    <rect
       height="48"
       id="48x48"
       inkscape:label="48x48"
       style="fill:#eeeeec;fill-opacity:1;fill-rule:nonzero;stroke:none;stroke-width:5;marker:none;visibility:visible;display:none;overflow:visible;enable-background:accumulate"
       width="48"
       x="-35.5"
       y="32.823101" />
    <text
       id="text6091"
       sodipodi:linespacing="125%"
       style="font-size:56.11526489px;font-style:normal;font-variant:normal;font-weight:bold;font-stretch:normal;text-indent:0;text-align:start;text-decoration:none;line-height:125%;letter-spacing:normal;word-spacing:normal;text-transform:none;direction:ltr;block-progression:tb;writing-mode:lr-tb;text-anchor:start;fill:#2e3436;fill-opacity:1;fill-rule:nonzero;stroke:none;stroke-width:5;marker:none;visibility:visible;display:none;overflow:visible;enable-background:accumulate;font-family:Myriad"
       x="-418.41196"
       xml:space="preserve"
       y="34.084831"><tspan
         id="tspan6093"
         sodipodi:role="line"
         x="-418.41196"
         y="34.084831">audio-x-generic</tspan></text>
    <g
       id="layer6"
       inkscape:groupmode="layer"
       inkscape:label="plate"
       sodipodi:insensitive="true"
       style="display:none" />
    <g
       id="Livello_1"
       transform="translate(387.11439,42.495045)" />
    <g
       id="g3290"
       transform="translate(443.11439,59.884345)" />
    <g
       id="g7148"
       transform="matrix(0.1956571,0,0,0.1956571,345.26471,19.402885)" />
    <g
       id="g7555"
       transform="matrix(0.1333333,0,0,0.1333333,319.90372,105.99052)" />
    <g
       id="g9283"
       transform="matrix(1.0666666,0,0,1.0666666,384.44667,40.470571)" />
    <g
       id="g3936"
       transform="matrix(1.0160239,0,0,1.0160239,-1.0750332,-1.0857377)">
      <path
         d="m 23.75,22.28125 c -3.970798,-0.01262 -8.27479,0.166664 -13,0.53125 -2.3517097,0 -3.9840406,1.919109 -4.25,4.25 -0.7073914,6.199644 -0.6384153,13.171641 0,20.71875 0.198006,2.340756 1.8982899,4.25 4.25,4.25 9.102785,1.11071 16.655161,0.678488 23.96875,0 2.351709,0 4.114952,-1.903525 4.25,-4.25 0.387898,-6.739758 0.619951,-13.524544 0,-20.71875 -0.201662,-2.340215 -1.898291,-4.25 -4.25,-4.25 C 31.350924,22.498394 27.720798,22.29387 23.75,22.28125 z m 34.3125,0 c -3.970799,-0.01262 -8.274791,0.166664 -13,0.53125 -2.351711,0 -3.984041,1.919109 -4.25,4.25 -0.707392,6.199644 -0.638416,13.171641 0,20.71875 0.198005,2.340756 1.89829,4.25 4.25,4.25 9.102784,1.11071 16.655161,0.678488 23.96875,0 2.351714,0 4.114952,-1.903525 4.25,-4.25 0.387899,-6.739758 0.619951,-13.524544 0,-20.71875 -0.201662,-2.340215 -1.89829,-4.25 -4.25,-4.25 -3.367824,-0.314106 -6.997951,-0.51863 -10.96875,-0.53125 z m 34.3125,0 c -3.970798,-0.01262 -8.274791,0.166664 -13,0.53125 -2.351708,0 -3.984041,1.919109 -4.25,4.25 -0.707396,6.199644 -0.638416,13.171641 0,20.71875 0.198001,2.340756 1.89829,4.25 4.25,4.25 9.102787,1.11071 16.655164,0.678488 23.96875,0 2.35171,0 4.11495,-1.903525 4.25,-4.25 0.3879,-6.739758 0.61995,-13.524544 0,-20.71875 -0.20167,-2.340215 -1.89829,-4.25 -4.25,-4.25 C 99.975926,22.498394 96.345798,22.29387 92.375,22.28125 z m -58.59375,30.5 C 29.810452,52.76863 25.47521,52.947914 20.75,53.3125 c -2.351709,0 -3.98404,1.91911 -4.25,4.25 -0.707391,6.199644 -0.638415,13.171641 0,20.71875 0.198006,2.340754 1.89829,4.25 4.25,4.25 9.102786,1.110713 16.686411,0.678488 24,0 2.351708,3e-6 4.083702,-1.903525 4.21875,-4.25 0.387897,-6.739761 0.619951,-13.524544 0,-20.71875 -0.201664,-2.340215 -1.86704,-4.25 -4.21875,-4.25 -3.367826,-0.314106 -6.997952,-0.51863 -10.96875,-0.53125 z m 34.3125,0 c -3.970799,-0.01262 -8.306041,0.166664 -13.03125,0.53125 -2.351709,0 -3.984041,1.91911 -4.25,4.25 -0.707393,6.199644 -0.638416,13.171641 0,20.71875 0.198004,2.340754 1.89829,4.25 4.25,4.25 9.102786,1.110713 16.686411,0.678488 24,0 2.351712,3e-6 4.083702,-1.903525 4.21875,-4.25 0.387897,-6.739761 0.619951,-13.524544 0,-20.71875 -0.201664,-2.340215 -1.86704,-4.25 -4.21875,-4.25 -3.367824,-0.314106 -6.997951,-0.51863 -10.96875,-0.53125 z m 34.3125,0 c -3.970797,-0.01262 -8.30604,0.166664 -13.03125,0.53125 -2.351709,0 -3.984041,1.91911 -4.25,4.25 -0.707389,6.199644 -0.638416,13.171641 0,20.71875 0.198008,2.340754 1.89829,4.25 4.25,4.25 9.102786,1.110713 16.68642,0.678488 24,0 2.35171,3e-6 4.0837,-1.903525 4.21875,-4.25 0.3879,-6.739761 0.61995,-13.524544 0,-20.71875 -0.20166,-2.340215 -1.86704,-4.25 -4.21875,-4.25 -3.36783,-0.314106 -6.99795,-0.51863 -10.96875,-0.53125 z m -58.625,30.5 c -3.970798,-0.01262 -8.27479,0.166664 -13,0.53125 -2.35171,0 -3.984041,1.91911 -4.25,4.25 -0.707392,6.199644 -0.638416,13.17164 0,20.71875 0.198005,2.34076 1.89829,4.25 4.25,4.25 9.102785,1.11071 16.655161,0.67849 23.96875,0 2.351712,0 4.114952,-1.90352 4.25,-4.25 0.387897,-6.73976 0.619951,-13.524544 0,-20.71875 -0.201664,-2.340215 -1.89829,-4.25 -4.25,-4.25 -3.367825,-0.314106 -6.997952,-0.51863 -10.96875,-0.53125 z m 34.3125,0 c -3.970798,-0.01262 -8.27479,0.166664 -13,0.53125 -2.35171,0 -3.984041,1.91911 -4.25,4.25 -0.707394,6.199644 -0.638416,13.17164 0,20.71875 0.198003,2.34076 1.89829,4.25 4.25,4.25 9.102785,1.11071 16.655161,0.67849 23.96875,0 2.351712,0 4.114952,-1.90352 4.25,-4.25 0.387897,-6.73976 0.619951,-13.524544 0,-20.71875 -0.201664,-2.340215 -1.89829,-4.25 -4.25,-4.25 -3.367825,-0.314106 -6.997952,-0.51863 -10.96875,-0.53125 z m 34.3125,0 c -3.9708,-0.01262 -8.27479,0.166664 -13,0.53125 -2.35171,0 -3.984041,1.91911 -4.25,4.25 -0.70739,6.199644 -0.638416,13.17164 0,20.71875 0.198007,2.34076 1.89829,4.25 4.25,4.25 9.10278,1.11071 16.65516,0.67849 23.96875,0 2.35171,0 4.11495,-1.90352 4.25,-4.25 0.3879,-6.73976 0.61995,-13.524544 0,-20.71875 -0.20166,-2.340215 -1.89829,-4.25 -4.25,-4.25 -3.36783,-0.314106 -6.99795,-0.51863 -10.96875,-0.53125 z"
         id="path3566"
         style="fill:none;stroke:#000000;stroke-width:2;stroke-linecap:round;stroke-linejoin:round;stroke-miterlimit:4;stroke-opacity:1;stroke-dasharray:none;stroke-dashoffset:0.42563931;marker:none;visibility:visible;display:inline;overflow:visible;filter:url(#filter3932);enable-background:new" />
      <g
         id="g3474"
         transform="translate(3,-0.2606688)">
        <g
           id="g3416"
           transform="matrix(0.953125,0,0,0.953125,-2.1222702,5.3421881)">
          <g
             id="g3265"
             transform="matrix(0.7128934,0,0,0.7128934,1.6294526,8.54871)">
            <path
               d="m 15.25,15.75 c -2.872053,0 -4.862694,2.340873 -5.1875,5.1875 -0.8639101,7.57139 -0.7796722,16.095505 0,25.3125 0.241817,2.858675 2.315447,5.1875 5.1875,5.1875 11.116883,1.356467 20.349444,0.828611 29.28125,0 2.872053,0 5.022571,-2.32184 5.1875,-5.1875 0.473723,-8.23101 0.757122,-16.526491 0,-25.3125 C 49.472465,18.079487 47.403303,15.75 44.53125,15.75 36.305257,14.982788 26.791435,14.859491 15.25,15.75 z"
               id="path3239"
               sodipodi:nodetypes="cssccsscc"
               style="fill:#1a1a1a;fill-opacity:1;fill-rule:nonzero;stroke:none;stroke-width:0.5;marker:none;visibility:visible;display:inline;overflow:visible;enable-background:new"
               transform="matrix(1.2050826,0,0,1.2050826,-6.1300473,-4.8894938)" />
            <path
               d="m 15.247679,15.763157 c 6.91228,-1.219814 16.670794,-1.219814 29.275541,0 2.872053,0 5.184211,2.312158 5.184211,5.184211 2.171724,8.437048 0.981533,16.874096 0,25.311144 0,2.872052 -2.312158,5.18421 -5.184211,5.18421 -8.380369,1.102515 -16.912291,2.083789 -29.275541,0 -2.872053,0 -5.184211,-2.312158 -5.184211,-5.18421 -1.0647297,-8.437048 -2.6819705,-16.705215 0,-25.311144 0.842423,-2.703172 2.312158,-5.184211 5.184211,-5.184211 z"
               id="rect2465"
               sodipodi:nodetypes="cccccccsc"
               style="fill:url(#linearGradient3988);fill-opacity:1;fill-rule:nonzero;stroke:url(#linearGradient3990);stroke-width:1;stroke-linecap:round;stroke-linejoin:round;stroke-miterlimit:4;stroke-opacity:1;stroke-dasharray:none;stroke-dashoffset:0.42563931;marker:none;visibility:visible;display:inline;overflow:visible;enable-background:new" />
            <path
               d="m 23.502029,40.93198 -2.55664,0 0,-17.746094 -5.714844,0 0,-2.242187 13.972656,0 0,2.242187 -5.701172,0 0,17.746094"
               id="text3253"
               style="font-size:12px;font-style:normal;font-variant:normal;font-weight:normal;font-stretch:normal;fill:#cccccc;fill-opacity:1;stroke:none;font-family:Droid Sans;-inkscape-font-specification:Droid Sans" />
          </g>
          <g
             id="g3275"
             style="display:inline;enable-background:new"
             transform="matrix(0.7128934,0,0,0.7128934,37.629453,8.54871)">
            <path
               d="m 15.25,15.75 c -2.872053,0 -4.862694,2.340873 -5.1875,5.1875 -0.8639101,7.57139 -0.7796722,16.095505 0,25.3125 0.241817,2.858675 2.315447,5.1875 5.1875,5.1875 11.116883,1.356467 20.349444,0.828611 29.28125,0 2.872053,0 5.022571,-2.32184 5.1875,-5.1875 0.473723,-8.23101 0.757122,-16.526491 0,-25.3125 C 49.472465,18.079487 47.403303,15.75 44.53125,15.75 36.305257,14.982788 26.791435,14.859491 15.25,15.75 z"
               id="path3277"
               sodipodi:nodetypes="cssccsscc"
               style="fill:#1a1a1a;fill-opacity:1;fill-rule:nonzero;stroke:none;stroke-width:0.5;marker:none;visibility:visible;display:inline;overflow:visible;enable-background:new"
               transform="matrix(1.2050826,0,0,1.2050826,-6.1300473,-4.8894938)" />
            <path
               d="m 15.247679,15.763157 c 6.91228,-1.219814 16.670794,-1.219814 29.275541,0 2.872053,0 5.184211,2.312158 5.184211,5.184211 2.171724,8.437048 0.981533,16.874096 0,25.311144 0,2.872052 -2.312158,5.18421 -5.184211,5.18421 -8.380369,1.102515 -16.912291,2.083789 -29.275541,0 -2.872053,0 -5.184211,-2.312158 -5.184211,-5.18421 -1.0647297,-8.437048 -2.6819705,-16.705215 0,-25.311144 0.842423,-2.703172 2.312158,-5.184211 5.184211,-5.184211 z"
               id="path3279"
               sodipodi:nodetypes="cccccccsc"
               style="fill:url(#linearGradient3992);fill-opacity:1;fill-rule:nonzero;stroke:url(#linearGradient3994);stroke-width:1;stroke-linecap:round;stroke-linejoin:round;stroke-miterlimit:4;stroke-opacity:1;stroke-dasharray:none;stroke-dashoffset:0.42563931;marker:none;visibility:visible;display:inline;overflow:visible;enable-background:new" />
            <path
               d="m 22.326248,31.047215 4.648438,-10.103516 2.734375,0 -6.097657,12.208984 0,7.779297 -2.55664,0 0,-7.642578 -6.097656,-12.345703 2.77539,0 4.59375,10.103516"
               id="text3281"
               style="font-size:12px;font-style:normal;font-variant:normal;font-weight:normal;font-stretch:normal;fill:#cccccc;fill-opacity:1;stroke:none;font-family:Droid Sans;-inkscape-font-specification:Droid Sans" />
          </g>
          <g
             id="g3289"
             style="display:inline;enable-background:new"
             transform="matrix(0.7128934,0,0,0.7128934,73.629453,8.54871)">
            <path
               d="m 15.25,15.75 c -2.872053,0 -4.862694,2.340873 -5.1875,5.1875 -0.8639101,7.57139 -0.7796722,16.095505 0,25.3125 0.241817,2.858675 2.315447,5.1875 5.1875,5.1875 11.116883,1.356467 20.349444,0.828611 29.28125,0 2.872053,0 5.022571,-2.32184 5.1875,-5.1875 0.473723,-8.23101 0.757122,-16.526491 0,-25.3125 C 49.472465,18.079487 47.403303,15.75 44.53125,15.75 36.305257,14.982788 26.791435,14.859491 15.25,15.75 z"
               id="path3291"
               sodipodi:nodetypes="cssccsscc"
               style="fill:#1a1a1a;fill-opacity:1;fill-rule:nonzero;stroke:none;stroke-width:0.5;marker:none;visibility:visible;display:inline;overflow:visible;enable-background:new"
               transform="matrix(1.2050826,0,0,1.2050826,-6.1300473,-4.8894938)" />
            <path
               d="m 15.247679,15.763157 c 6.91228,-1.219814 16.670794,-1.219814 29.275541,0 2.872053,0 5.184211,2.312158 5.184211,5.184211 2.171724,8.437048 0.981533,16.874096 0,25.311144 0,2.872052 -2.312158,5.18421 -5.184211,5.18421 -8.380369,1.102515 -16.912291,2.083789 -29.275541,0 -2.872053,0 -5.184211,-2.312158 -5.184211,-5.18421 -1.0647297,-8.437048 -2.6819705,-16.705215 0,-25.311144 0.842423,-2.703172 2.312158,-5.184211 5.184211,-5.184211 z"
               id="path3293"
               sodipodi:nodetypes="cccccccsc"
               style="fill:url(#linearGradient3996);fill-opacity:1;fill-rule:nonzero;stroke:url(#linearGradient3998);stroke-width:1;stroke-linecap:round;stroke-linejoin:round;stroke-miterlimit:4;stroke-opacity:1;stroke-dasharray:none;stroke-dashoffset:0.42563931;marker:none;visibility:visible;display:inline;overflow:visible;enable-background:new" />
            <path
               d="m 31.978592,20.916355 0,12.960938 c -1.7e-5,1.039068 -0.150408,2.005213 -0.451172,2.898437 -0.300797,0.893233 -0.756526,1.667971 -1.367187,2.324219 -0.601578,0.656251 -1.362645,1.171225 -2.283204,1.544922 -0.91147,0.373698 -1.98699,0.560546 -3.226562,0.560547 -1.166675,-1e-6 -2.196622,-0.173178 -3.089844,-0.519532 C 20.667388,40.330418 19.915436,39.829117 19.304764,39.18198 18.703198,38.534847 18.247469,37.760108 17.937576,36.857761 17.627678,35.946308 17.47273,34.93459 17.472733,33.822605 l 0,-12.878906 2.55664,0 0,13.015625 c -5e-6,1.595057 0.391922,2.830082 1.175781,3.705078 0.792962,0.875002 1.986971,1.312502 3.582032,1.3125 0.811187,2e-6 1.508452,-0.123045 2.091797,-0.369141 0.58332,-0.246091 1.061836,-0.592445 1.435546,-1.039062 0.373685,-0.446611 0.651679,-0.979813 0.833985,-1.599609 0.182277,-0.619787 0.27798,-1.298822 0.287109,-2.03711 l 0,-13.015625 2.542969,0"
               id="text3295"
               style="font-size:12px;font-style:normal;font-variant:normal;font-weight:normal;font-stretch:normal;fill:#cccccc;fill-opacity:1;stroke:none;font-family:Droid Sans;-inkscape-font-specification:Droid Sans" />
          </g>
        </g>
        <g
           id="g3445"
           transform="matrix(0.953125,0,0,0.953125,-3.551959,3.4359381)">
          <g
             id="g3303"
             style="display:inline;enable-background:new"
             transform="matrix(0.7128934,0,0,0.7128934,13.629453,42.54871)">
            <path
               d="m 15.25,15.75 c -2.872053,0 -4.862694,2.340873 -5.1875,5.1875 -0.8639101,7.57139 -0.7796722,16.095505 0,25.3125 0.241817,2.858675 2.315447,5.1875 5.1875,5.1875 11.116883,1.356467 20.349444,0.828611 29.28125,0 2.872053,0 5.022571,-2.32184 5.1875,-5.1875 0.473723,-8.23101 0.757122,-16.526491 0,-25.3125 C 49.472465,18.079487 47.403303,15.75 44.53125,15.75 36.305257,14.982788 26.791435,14.859491 15.25,15.75 z"
               id="path3305"
               sodipodi:nodetypes="cssccsscc"
               style="fill:#1a1a1a;fill-opacity:1;fill-rule:nonzero;stroke:none;stroke-width:0.5;marker:none;visibility:visible;display:inline;overflow:visible;enable-background:new"
               transform="matrix(1.2050826,0,0,1.2050826,-6.1300473,-4.8894938)" />
            <path
               d="m 15.247679,15.763157 c 6.91228,-1.219814 16.670794,-1.219814 29.275541,0 2.872053,0 5.184211,2.312158 5.184211,5.184211 2.171724,8.437048 0.981533,16.874096 0,25.311144 0,2.872052 -2.312158,5.18421 -5.184211,5.18421 -8.380369,1.102515 -16.912291,2.083789 -29.275541,0 -2.872053,0 -5.184211,-2.312158 -5.184211,-5.18421 -1.0647297,-8.437048 -2.6819705,-16.705215 0,-25.311144 0.842423,-2.703172 2.312158,-5.184211 5.184211,-5.184211 z"
               id="path3307"
               sodipodi:nodetypes="cccccccsc"
               style="fill:url(#linearGradient4000);fill-opacity:1;fill-rule:nonzero;stroke:url(#linearGradient4002);stroke-width:1;stroke-linecap:round;stroke-linejoin:round;stroke-miterlimit:4;stroke-opacity:1;stroke-dasharray:none;stroke-dashoffset:0.42563931;marker:none;visibility:visible;display:inline;overflow:visible;enable-background:new" />
            <path
               d="m 25.648514,30.377293 6.617187,0 0,9.802734 c -0.501319,0.164063 -1.007177,0.309896 -1.517578,0.4375 -0.510432,0.127604 -1.03452,0.232422 -1.572265,0.314453 -0.537775,0.09115 -1.102878,0.159505 -1.695313,0.205078 -0.59246,0.04557 -1.23048,0.06836 -1.914062,0.06836 -1.430999,-1e-6 -2.697925,-0.23698 -3.800782,-0.710938 -1.10287,-0.483072 -2.032557,-1.166665 -2.789062,-2.050781 -0.756514,-0.893226 -1.330732,-1.973303 -1.722656,-3.240234 -0.391929,-1.276035 -0.587893,-2.707023 -0.587891,-4.292969 -2e-6,-1.567697 0.214191,-2.985013 0.642578,-4.251953 0.437497,-1.266912 1.07096,-2.342432 1.900391,-3.226563 0.829422,-0.893211 1.850254,-1.576804 3.0625,-2.050781 1.221345,-0.483053 2.611318,-0.724589 4.169922,-0.724609 1.011706,2e-5 1.982408,0.10028 2.912109,0.300781 0.929672,0.20054 1.795557,0.492207 2.597656,0.875 l -0.984375,2.214844 C 30.638732,23.892284 30.283264,23.74645 29.900467,23.609715 29.526754,23.473013 29.139385,23.354524 28.738358,23.254246 28.337302,23.144889 27.922589,23.0583 27.494217,22.99448 27.074934,22.9307 26.655664,22.8988 26.236404,22.89878 c -1.111989,1.8e-5 -2.096363,0.186867 -2.953125,0.560547 -0.856778,0.3646 -1.576829,0.893246 -2.160156,1.585937 -0.574224,0.692724 -1.011724,1.535822 -1.3125,2.529297 -0.300786,0.993502 -0.451176,2.114595 -0.451172,3.363282 -4e-6,1.184904 0.123043,2.269538 0.369141,3.253906 0.255203,0.984381 0.656244,1.832036 1.203125,2.542969 0.546868,0.71094 1.253248,1.262372 2.119141,1.654296 0.865876,0.39193 1.909495,0.587893 3.130859,0.587891 0.40103,2e-6 0.765613,-0.0091 1.09375,-0.02734 0.337227,-0.02734 0.647122,-0.05924 0.929687,-0.0957 0.282539,-0.03646 0.546862,-0.07747 0.792969,-0.123047 0.255194,-0.05469 0.501288,-0.104815 0.738281,-0.15039 l 0,-5.960938 -4.08789,0 0,-2.242187"
               id="text3309"
               style="font-size:12px;font-style:normal;font-variant:normal;font-weight:normal;font-stretch:normal;fill:#cccccc;fill-opacity:1;stroke:none;font-family:Droid Sans;-inkscape-font-specification:Droid Sans" />
          </g>
          <g
             id="g3313"
             style="display:inline;enable-background:new"
             transform="matrix(0.7128934,0,0,0.7128934,49.629453,42.54871)">
            <path
               d="m 15.25,15.75 c -2.872053,0 -4.862694,2.340873 -5.1875,5.1875 -0.8639101,7.57139 -0.7796722,16.095505 0,25.3125 0.241817,2.858675 2.315447,5.1875 5.1875,5.1875 11.116883,1.356467 20.349444,0.828611 29.28125,0 2.872053,0 5.022571,-2.32184 5.1875,-5.1875 0.473723,-8.23101 0.757122,-16.526491 0,-25.3125 C 49.472465,18.079487 47.403303,15.75 44.53125,15.75 36.305257,14.982788 26.791435,14.859491 15.25,15.75 z"
               id="path3315"
               sodipodi:nodetypes="cssccsscc"
               style="fill:#1a1a1a;fill-opacity:1;fill-rule:nonzero;stroke:none;stroke-width:0.5;marker:none;visibility:visible;display:inline;overflow:visible;enable-background:new"
               transform="matrix(1.2050826,0,0,1.2050826,-6.1300473,-4.8894938)" />
            <path
               d="m 15.247679,15.763157 c 6.91228,-1.219814 16.670794,-1.219814 29.275541,0 2.872053,0 5.184211,2.312158 5.184211,5.184211 2.171724,8.437048 0.981533,16.874096 0,25.311144 0,2.872052 -2.312158,5.18421 -5.184211,5.18421 -8.380369,1.102515 -16.912291,2.083789 -29.275541,0 -2.872053,0 -5.184211,-2.312158 -5.184211,-5.18421 -1.0647297,-8.437048 -2.6819705,-16.705215 0,-25.311144 0.842423,-2.703172 2.312158,-5.184211 5.184211,-5.184211 z"
               id="path3317"
               sodipodi:nodetypes="cccccccsc"
               style="fill:url(#linearGradient4004);fill-opacity:1;fill-rule:nonzero;stroke:url(#linearGradient4006);stroke-width:1;stroke-linecap:round;stroke-linejoin:round;stroke-miterlimit:4;stroke-opacity:1;stroke-dasharray:none;stroke-dashoffset:0.42563931;marker:none;visibility:visible;display:inline;overflow:visible;enable-background:new" />
            <path
               d="m 31.869217,40.93198 -2.542969,0 0,-9.324219 -9.105469,0 0,9.324219 -2.542968,0 0,-19.988281 2.542968,0 0,8.421875 9.105469,0 0,-8.421875 2.542969,0 0,19.988281"
               id="text3319"
               style="font-size:12px;font-style:normal;font-variant:normal;font-weight:normal;font-stretch:normal;fill:#cccccc;fill-opacity:1;stroke:none;font-family:Droid Sans;-inkscape-font-specification:Droid Sans" />
          </g>
          <g
             id="g3323"
             style="display:inline;enable-background:new"
             transform="matrix(0.7128934,0,0,0.7128934,85.629453,42.54871)">
            <path
               d="m 15.25,15.75 c -2.872053,0 -4.862694,2.340873 -5.1875,5.1875 -0.8639101,7.57139 -0.7796722,16.095505 0,25.3125 0.241817,2.858675 2.315447,5.1875 5.1875,5.1875 11.116883,1.356467 20.349444,0.828611 29.28125,0 2.872053,0 5.022571,-2.32184 5.1875,-5.1875 0.473723,-8.23101 0.757122,-16.526491 0,-25.3125 C 49.472465,18.079487 47.403303,15.75 44.53125,15.75 36.305257,14.982788 26.791435,14.859491 15.25,15.75 z"
               id="path3325"
               sodipodi:nodetypes="cssccsscc"
               style="fill:#1a1a1a;fill-opacity:1;fill-rule:nonzero;stroke:none;stroke-width:0.5;marker:none;visibility:visible;display:inline;overflow:visible;enable-background:new"
               transform="matrix(1.2050826,0,0,1.2050826,-6.1300473,-4.8894938)" />
            <path
               d="m 15.247679,15.763157 c 6.91228,-1.219814 16.670794,-1.219814 29.275541,0 2.872053,0 5.184211,2.312158 5.184211,5.184211 2.171724,8.437048 0.981533,16.874096 0,25.311144 0,2.872052 -2.312158,5.18421 -5.184211,5.18421 -8.380369,1.102515 -16.912291,2.083789 -29.275541,0 -2.872053,0 -5.184211,-2.312158 -5.184211,-5.18421 -1.0647297,-8.437048 -2.6819705,-16.705215 0,-25.311144 0.842423,-2.703172 2.312158,-5.184211 5.184211,-5.184211 z"
               id="path3327"
               sodipodi:nodetypes="cccccccsc"
               style="fill:url(#linearGradient4008);fill-opacity:1;fill-rule:nonzero;stroke:url(#linearGradient4010);stroke-width:1;stroke-linecap:round;stroke-linejoin:round;stroke-miterlimit:4;stroke-opacity:1;stroke-dasharray:none;stroke-dashoffset:0.42563931;marker:none;visibility:visible;display:inline;overflow:visible;enable-background:new" />
            <path
               d="m 20.401087,46.25034 c -0.464843,-6e-6 -0.870442,-0.03191 -1.216797,-0.0957 -0.346352,-0.05469 -0.647133,-0.132166 -0.902344,-0.232421 l 0,-2.1875 c 0.309898,0.08203 0.64258,0.14583 0.998047,0.191406 0.35547,0.05468 0.738282,0.08203 1.148438,0.08203 0.337239,-3e-6 0.674478,-0.04558 1.011718,-0.136719 0.346353,-0.08203 0.656249,-0.236982 0.929688,-0.464843 0.28255,-0.227867 0.510414,-0.54232 0.683594,-0.94336 0.173174,-0.401043 0.259763,-0.911459 0.259765,-1.53125 l 0,-19.988281 2.556641,0 0,19.714844 c -5e-6,0.95703 -0.136724,1.786456 -0.410156,2.488281 -0.264328,0.70182 -0.638025,1.280595 -1.121094,1.736328 -0.473962,0.464839 -1.04818,0.806636 -1.722656,1.025391 -0.665366,0.227859 -1.403647,0.341791 -2.214844,0.341797"
               id="text3329"
               style="font-size:12px;font-style:normal;font-variant:normal;font-weight:normal;font-stretch:normal;fill:#cccccc;fill-opacity:1;stroke:none;font-family:Droid Sans;-inkscape-font-specification:Droid Sans" />
          </g>
        </g>
        <g
           id="g3387"
           transform="matrix(0.953125,0,0,0.953125,0.7371025,1.5296881)">
          <g
             id="g3345"
             style="display:inline;enable-background:new"
             transform="matrix(0.7128934,0,0,0.7128934,19.629453,76.54871)">
            <path
               d="m 15.25,15.75 c -2.872053,0 -4.862694,2.340873 -5.1875,5.1875 -0.8639101,7.57139 -0.7796722,16.095505 0,25.3125 0.241817,2.858675 2.315447,5.1875 5.1875,5.1875 11.116883,1.356467 20.349444,0.828611 29.28125,0 2.872053,0 5.022571,-2.32184 5.1875,-5.1875 0.473723,-8.23101 0.757122,-16.526491 0,-25.3125 C 49.472465,18.079487 47.403303,15.75 44.53125,15.75 36.305257,14.982788 26.791435,14.859491 15.25,15.75 z"
               id="path3347"
               sodipodi:nodetypes="cssccsscc"
               style="fill:#1a1a1a;fill-opacity:1;fill-rule:nonzero;stroke:none;stroke-width:0.5;marker:none;visibility:visible;display:inline;overflow:visible;enable-background:new"
               transform="matrix(1.2050826,0,0,1.2050826,-6.1300473,-4.8894938)" />
            <path
               d="m 15.247679,15.763157 c 6.91228,-1.219814 16.670794,-1.219814 29.275541,0 2.872053,0 5.184211,2.312158 5.184211,5.184211 2.171724,8.437048 0.981533,16.874096 0,25.311144 0,2.872052 -2.312158,5.18421 -5.184211,5.18421 -8.380369,1.102515 -16.912291,2.083789 -29.275541,0 -2.872053,0 -5.184211,-2.312158 -5.184211,-5.18421 -1.0647297,-8.437048 -2.6819705,-16.705215 0,-25.311144 0.842423,-2.703172 2.312158,-5.184211 5.184211,-5.184211 z"
               id="path3349"
               sodipodi:nodetypes="cccccccsc"
               style="fill:url(#linearGradient4012);fill-opacity:1;fill-rule:nonzero;stroke:url(#linearGradient4014);stroke-width:1;stroke-linecap:round;stroke-linejoin:round;stroke-miterlimit:4;stroke-opacity:1;stroke-dasharray:none;stroke-dashoffset:0.42563931;marker:none;visibility:visible;display:inline;overflow:visible;enable-background:new" />
            <path
               d="m 17.677811,20.943699 5.455078,0 c 1.166657,2e-5 2.192047,0.09117 3.076172,0.273437 0.893217,0.173197 1.636054,0.460306 2.228515,0.861329 0.601549,0.391945 1.05272,0.911476 1.353516,1.558593 0.300766,0.638038 0.451157,1.426448 0.451172,2.365235 -1.5e-5,0.565118 -0.09116,1.093763 -0.273438,1.585937 -0.173192,0.4922 -0.4284,0.925143 -0.765625,1.298828 -0.337253,0.37371 -0.756524,0.688163 -1.257812,0.94336 -0.4922,0.246104 -1.052747,0.410167 -1.681641,0.492187 l 0,0.136719 c 0.628894,0.109385 1.216785,0.26889 1.763672,0.478516 0.555976,0.20053 1.039048,0.483082 1.449219,0.847656 0.410141,0.355477 0.733708,0.806649 0.970703,1.353515 0.236963,0.546883 0.355453,1.212247 0.355469,1.996094 -1.6e-5,0.911463 -0.150407,1.727218 -0.451172,2.447266 -0.291682,0.71094 -0.720067,1.317059 -1.285156,1.818359 -0.556004,0.492189 -1.235039,0.870444 -2.03711,1.134766 -0.802094,0.264323 -1.708995,0.396484 -2.720703,0.396484 l -6.630859,0 0,-19.988281 m 2.542968,8.476562 3.335938,0 c 0.765616,1.2e-5 1.408193,-0.06835 1.927734,-0.205078 0.51952,-0.136707 0.938791,-0.337227 1.257813,-0.601562 0.318998,-0.273425 0.546862,-0.610664 0.683594,-1.011719 0.14582,-0.410143 0.218737,-0.8841 0.21875,-1.421875 -1.3e-5,-1.093734 -0.350924,-1.877588 -1.052735,-2.351562 -0.701834,-0.473941 -1.809254,-0.71092 -3.322265,-0.710938 l -3.048829,0 0,6.302734 m 0,2.132813 0,7.21875 3.636719,0 c 0.802074,2e-6 1.471995,-0.09114 2.009766,-0.273438 0.546863,-0.182289 0.984363,-0.437497 1.3125,-0.765625 0.337227,-0.328121 0.578763,-0.720048 0.724609,-1.175781 0.14582,-0.464839 0.218737,-0.975255 0.21875,-1.53125 -1.3e-5,-0.51041 -0.07749,-0.979811 -0.232422,-1.408203 C 27.744855,33.189149 27.498762,32.824566 27.15242,32.523777 26.815169,32.21389 26.363997,31.976911 25.798904,31.81284 25.23379,31.639672 24.531968,31.553083 23.693436,31.553074 l -3.472657,0"
               id="text3351"
               style="font-size:12px;font-style:normal;font-variant:normal;font-weight:normal;font-stretch:normal;fill:#cccccc;fill-opacity:1;stroke:none;font-family:Droid Sans;-inkscape-font-specification:Droid Sans" />
          </g>
          <g
             id="g3355"
             style="display:inline;enable-background:new"
             transform="matrix(0.7128934,0,0,0.7128934,55.629453,76.54871)">
            <path
               d="m 15.25,15.75 c -2.872053,0 -4.862694,2.340873 -5.1875,5.1875 -0.8639101,7.57139 -0.7796722,16.095505 0,25.3125 0.241817,2.858675 2.315447,5.1875 5.1875,5.1875 11.116883,1.356467 20.349444,0.828611 29.28125,0 2.872053,0 5.022571,-2.32184 5.1875,-5.1875 0.473723,-8.23101 0.757122,-16.526491 0,-25.3125 C 49.472465,18.079487 47.403303,15.75 44.53125,15.75 36.305257,14.982788 26.791435,14.859491 15.25,15.75 z"
               id="path3357"
               sodipodi:nodetypes="cssccsscc"
               style="fill:#1a1a1a;fill-opacity:1;fill-rule:nonzero;stroke:none;stroke-width:0.5;marker:none;visibility:visible;display:inline;overflow:visible;enable-background:new"
               transform="matrix(1.2050826,0,0,1.2050826,-6.1300473,-4.8894938)" />
            <path
               d="m 15.247679,15.763157 c 6.91228,-1.219814 16.670794,-1.219814 29.275541,0 2.872053,0 5.184211,2.312158 5.184211,5.184211 2.171724,8.437048 0.981533,16.874096 0,25.311144 0,2.872052 -2.312158,5.18421 -5.184211,5.18421 -8.380369,1.102515 -16.912291,2.083789 -29.275541,0 -2.872053,0 -5.184211,-2.312158 -5.184211,-5.18421 -1.0647297,-8.437048 -2.6819705,-16.705215 0,-25.311144 0.842423,-2.703172 2.312158,-5.184211 5.184211,-5.184211 z"
               id="path3359"
               sodipodi:nodetypes="cccccccsc"
               style="fill:url(#linearGradient4016);fill-opacity:1;fill-rule:nonzero;stroke:url(#linearGradient4018);stroke-width:1;stroke-linecap:round;stroke-linejoin:round;stroke-miterlimit:4;stroke-opacity:1;stroke-dasharray:none;stroke-dashoffset:0.42563931;marker:none;visibility:visible;display:inline;overflow:visible;enable-background:new" />
            <path
               d="m 32.648514,40.93198 -2.939453,0 -9.830078,-16.542969 -0.109375,0 c 0.05468,0.701839 0.100255,1.399104 0.136718,2.091797 0.03645,0.592462 0.0638,1.212253 0.08203,1.859375 0.02734,0.647148 0.04101,1.23048 0.04101,1.75 l 0,10.841797 -2.351562,0 0,-19.988281 2.912109,0 9.789063,16.460937 0.0957,0 c -0.02736,-0.692704 -0.05926,-1.376297 -0.0957,-2.050781 -0.0091,-0.291661 -0.0228,-0.587884 -0.04102,-0.888672 -0.0091,-0.309889 -0.0228,-0.615227 -0.04102,-0.916015 -0.0091,-0.309889 -0.01824,-0.606112 -0.02734,-0.888672 -1.6e-5,-0.282544 -1.6e-5,-0.542309 0,-0.779297 l 0,-10.9375 2.378906,0 0,19.988281"
               id="text3361"
               style="font-size:12px;font-style:normal;font-variant:normal;font-weight:normal;font-stretch:normal;fill:#cccccc;fill-opacity:1;stroke:none;font-family:Droid Sans;-inkscape-font-specification:Droid Sans" />
          </g>
          <g
             id="g3365"
             style="display:inline;enable-background:new"
             transform="matrix(0.7128934,0,0,0.7128934,91.629453,76.54871)">
            <path
               d="m 15.25,15.75 c -2.872053,0 -4.862694,2.340873 -5.1875,5.1875 -0.8639101,7.57139 -0.7796722,16.095505 0,25.3125 0.241817,2.858675 2.315447,5.1875 5.1875,5.1875 11.116883,1.356467 20.349444,0.828611 29.28125,0 2.872053,0 5.022571,-2.32184 5.1875,-5.1875 0.473723,-8.23101 0.757122,-16.526491 0,-25.3125 C 49.472465,18.079487 47.403303,15.75 44.53125,15.75 36.305257,14.982788 26.791435,14.859491 15.25,15.75 z"
               id="path3367"
               sodipodi:nodetypes="cssccsscc"
               style="fill:#1a1a1a;fill-opacity:1;fill-rule:nonzero;stroke:none;stroke-width:0.5;marker:none;visibility:visible;display:inline;overflow:visible;enable-background:new"
               transform="matrix(1.2050826,0,0,1.2050826,-6.1300473,-4.8894938)" />
            <path
               d="m 15.247679,15.763157 c 6.91228,-1.219814 16.670794,-1.219814 29.275541,0 2.872053,0 5.184211,2.312158 5.184211,5.184211 2.171724,8.437048 0.981533,16.874096 0,25.311144 0,2.872052 -2.312158,5.18421 -5.184211,5.18421 -8.380369,1.102515 -16.912291,2.083789 -29.275541,0 -2.872053,0 -5.184211,-2.312158 -5.184211,-5.18421 -1.0647297,-8.437048 -2.6819705,-16.705215 0,-25.311144 0.842423,-2.703172 2.312158,-5.184211 5.184211,-5.184211 z"
               id="path3369"
               sodipodi:nodetypes="cccccccsc"
               style="fill:url(#linearGradient4020);fill-opacity:1;fill-rule:nonzero;stroke:url(#linearGradient4022);stroke-width:1;stroke-linecap:round;stroke-linejoin:round;stroke-miterlimit:4;stroke-opacity:1;stroke-dasharray:none;stroke-dashoffset:0.42563931;marker:none;visibility:visible;display:inline;overflow:visible;enable-background:new" />
            <path
               d="m 25.935623,40.93198 -6.05664,-17.5 -0.109375,0 c 0.05468,0.674496 0.100255,1.344417 0.136718,2.009766 0.03645,0.574233 0.0638,1.180353 0.08203,1.818359 0.02734,0.628919 0.04101,1.203138 0.04101,1.722656 l 0,11.949219 -2.351562,0 0,-19.988281 3.773437,0 5.632813,16.296875 0.08203,0 5.660156,-16.296875 3.773438,0 0,19.988281 -2.542969,0 0,-12.126953 c -1.9e-5,-0.473946 0.0091,-1.016263 0.02734,-1.626953 0.01821,-0.610663 0.041,-1.193996 0.06836,-1.75 0.03644,-0.647119 0.06834,-1.303369 0.0957,-1.96875 l -0.109375,0 -6.111328,17.472656 -2.091797,0"
               id="text3371"
               style="font-size:12px;font-style:normal;font-variant:normal;font-weight:normal;font-stretch:normal;fill:#cccccc;fill-opacity:1;stroke:none;font-family:Droid Sans;-inkscape-font-specification:Droid Sans" />
          </g>
        </g>
      </g>
    </g>
    <g
       id="g4284"
       style="display:inline;enable-background:new"
       transform="matrix(0.378993,0,0,0.378993,132.60693,2.2299235)">
      <g
         id="g4288"
         transform="translate(3,-0.2606688)">
        <g
           id="g4290"
           transform="matrix(0.953125,0,0,0.953125,-2.1222702,5.3421881)">
          <g
             id="g4292"
             transform="matrix(0.7128934,0,0,0.7128934,1.6294526,8.54871)" />
          <g
             id="g4302"
             style="display:inline;enable-background:new"
             transform="matrix(0.7128934,0,0,0.7128934,37.629453,8.54871)" />
          <g
             id="g4312"
             style="display:inline;enable-background:new"
             transform="matrix(0.7128934,0,0,0.7128934,73.629453,8.54871)" />
        </g>
        <g
           id="g4322"
           transform="matrix(0.953125,0,0,0.953125,-3.551959,3.4359381)">
          <g
             id="g4324"
             style="display:inline;enable-background:new"
             transform="matrix(0.7128934,0,0,0.7128934,13.629453,42.54871)" />
          <g
             id="g4334"
             style="display:inline;enable-background:new"
             transform="matrix(0.7128934,0,0,0.7128934,49.629453,42.54871)" />
          <g
             id="g4344"
             style="display:inline;enable-background:new"
             transform="matrix(0.7128934,0,0,0.7128934,85.629453,42.54871)" />
        </g>
        <g
           id="g4354"
           transform="matrix(0.953125,0,0,0.953125,0.7371025,1.5296881)">
          <g
             id="g4356"
             style="display:inline;enable-background:new"
             transform="matrix(0.7128934,0,0,0.7128934,19.629453,76.54871)" />
          <g
             id="g4366"
             style="display:inline;enable-background:new"
             transform="matrix(0.7128934,0,0,0.7128934,55.629453,76.54871)" />
          <g
             id="g4376"
             style="display:inline;enable-background:new"
             transform="matrix(0.7128934,0,0,0.7128934,91.629453,76.54871)" />
        </g>
      </g>
    </g>
    <g
       id="g6131"
       transform="translate(0.474691,-0.4942119)">
      <g
         id="g5882"
         transform="matrix(0.8959916,0,0,0.8959916,-15.450552,4.8535367)">
        <g
           id="g5551"
           style="display:inline;enable-background:new"
           transform="matrix(0.2575168,0,0,0.2575168,166.15738,53.618817)" />
        <g
           id="g5561"
           style="display:inline;enable-background:new"
           transform="matrix(0.2575168,0,0,0.2575168,179.16158,53.618817)" />
        <g
           id="g5583"
           style="display:inline;enable-background:new"
           transform="matrix(0.2575168,0,0,0.2575168,169.95027,65.178103)" />
        <g
           id="g5593"
           style="display:inline;enable-background:new"
           transform="matrix(0.2575168,0,0,0.2575168,182.95447,65.178103)" />
        <g
           id="g5615"
           style="display:inline;enable-background:new"
           transform="matrix(0.2575168,0,0,0.2575168,173.74317,76.737389)" />
        <g
           id="g5625"
           style="display:inline;enable-background:new"
           transform="matrix(0.2575168,0,0,0.2575168,186.74737,76.737389)" />
      </g>
    </g>
    <g
       id="g6616"
       transform="translate(-33.489102,-72.556626)">
      <g
         id="g6369"
         transform="matrix(0.7959344,0,0,0.7959344,35.185575,39.98174)">
        <g
           id="g6199"
           style="display:inline;enable-background:new"
           transform="matrix(0.2307329,0,0,0.2307329,166.89976,154.40134)" />
        <g
           id="g6209"
           style="display:inline;enable-background:new"
           transform="matrix(0.2307329,0,0,0.2307329,178.55141,154.40134)" />
        <g
           id="g6219"
           style="display:inline;enable-background:new"
           transform="matrix(0.2307329,0,0,0.2307329,170.29815,164.75836)" />
        <g
           id="g6229"
           style="display:inline;enable-background:new"
           transform="matrix(0.2307329,0,0,0.2307329,181.94981,164.75836)" />
      </g>
    </g>
    <g
       id="g6656"
       style="display:inline;enable-background:new"
       transform="matrix(0.7272729,0,0,0.7272729,11.46244,-2.2230304)">
      <g
         id="g6660"
         transform="matrix(0.7959344,0,0,0.7959344,35.185575,39.98174)">
        <g
           id="g6662"
           style="display:inline;enable-background:new"
           transform="matrix(0.2307329,0,0,0.2307329,166.89976,154.40134)" />
        <g
           id="g6672"
           style="display:inline;enable-background:new"
           transform="matrix(0.2307329,0,0,0.2307329,178.55141,154.40134)" />
        <g
           id="g6682"
           style="display:inline;enable-background:new"
           transform="matrix(0.2307329,0,0,0.2307329,170.29815,164.75836)" />
        <g
           id="g6692"
           style="display:inline;enable-background:new"
           transform="matrix(0.2307329,0,0,0.2307329,181.94981,164.75836)" />
      </g>
    </g>
  </g>
</svg>
