<?xml version="1.0" encoding="UTF-8" standalone="no"?>
<!-- Created with Inkscape (http://www.inkscape.org/) -->

<svg
   xmlns:dc="http://purl.org/dc/elements/1.1/"
   xmlns:cc="http://creativecommons.org/ns#"
   xmlns:rdf="http://www.w3.org/1999/02/22-rdf-syntax-ns#"
   xmlns:svg="http://www.w3.org/2000/svg"
   xmlns="http://www.w3.org/2000/svg"
   xmlns:xlink="http://www.w3.org/1999/xlink"
   xmlns:sodipodi="http://sodipodi.sourceforge.net/DTD/sodipodi-0.dtd"
   xmlns:inkscape="http://www.inkscape.org/namespaces/inkscape"
   height="128"
   id="svg11300"
   inkscape:export-filename="/home/mma/BZR-WORK/breathe-icon-set/source_svg/rendered/computer.png"
   inkscape:export-xdpi="90.000000"
   inkscape:export-ydpi="90.000000"
   inkscape:output_extension="org.inkscape.output.svg.inkscape"
   inkscape:version="0.46+devel r21673"
   sodipodi:docname="emblem-downloads.svg"
   sodipodi:version="0.32"
   style="display:inline;enable-background:new"
   version="1.0"
   width="128">
  <title
     id="title4119">Breathe Icon Theme computer</title>
  <defs
     id="defs3">
    <linearGradient
       id="linearGradient3349">
      <stop
         id="stop3351"
         offset="0"
         style="stop-color:#188d00;stop-opacity:1;" />
      <stop
         id="stop3357"
         offset="0.73269498"
         style="stop-color:#88fe4d;stop-opacity:1;" />
      <stop
         id="stop3353"
         offset="1"
         style="stop-color:#6cba10;stop-opacity:0;" />
    </linearGradient>
    <linearGradient
       id="linearGradient4203">
      <stop
         id="stop4205"
         offset="0"
         style="stop-color: rgb(218, 232, 251); stop-opacity: 1;" />
      <stop
         id="stop4209"
         offset="0.5"
         style="stop-color: rgb(218, 232, 251); stop-opacity: 1;" />
      <stop
         id="stop4207"
         offset="1"
         style="stop-color: rgb(255, 255, 255); stop-opacity: 0;" />
    </linearGradient>
    <linearGradient
       gradientTransform="matrix(1.00063,-0.0830748,0.0830634,1.00077,-5.1379,5.7394)"
       gradientUnits="userSpaceOnUse"
       id="linearGradient3635"
       inkscape:collect="always"
       x1="59.714737"
       x2="86.140335"
       xlink:href="#linearGradient4203"
       y1="12.876541"
       y2="116.37654" />
    <linearGradient
       id="linearGradient4354">
      <stop
         id="stop4356"
         offset="0"
         style="stop-color: rgb(46, 104, 158); stop-opacity: 1;" />
      <stop
         id="stop6436"
         offset="0.5"
         style="stop-color: rgb(173, 196, 215); stop-opacity: 1;" />
      <stop
         id="stop4358"
         offset="1"
         style="stop-color: rgb(255, 255, 255); stop-opacity: 1;" />
    </linearGradient>
    <linearGradient
       gradientTransform="matrix(1.04056,0,0,1,259.557,29.0568)"
       gradientUnits="userSpaceOnUse"
       id="linearGradient3633"
       inkscape:collect="always"
       x1="-168.80466"
       x2="-204.75359"
       xlink:href="#linearGradient4354"
       y1="77.371254"
       y2="9.9931555" />
    <linearGradient
       id="linearGradient3410">
      <stop
         id="stop3412"
         offset="0"
         style="stop-color: rgb(14, 24, 87); stop-opacity: 1;" />
      <stop
         id="stop3414"
         offset="1"
         style="stop-color: rgb(34, 146, 245); stop-opacity: 1;" />
    </linearGradient>
    <linearGradient
       gradientTransform="matrix(0.961358,0,0,0.923889,-190.764,-388.699)"
       gradientUnits="userSpaceOnUse"
       id="linearGradient3631"
       inkscape:collect="always"
       x1="289.84161"
       x2="235.05197"
       xlink:href="#linearGradient3410"
       y1="546.79462"
       y2="436.69836" />
    <filter
       color-interpolation-filters="sRGB"
       id="filter3327"
       inkscape:collect="always">
      <feGaussianBlur
         id="feGaussianBlur3329"
         inkscape:collect="always"
         stdDeviation="1.7106367" />
    </filter>
    <linearGradient
       gradientUnits="userSpaceOnUse"
       id="linearGradient3355"
       inkscape:collect="always"
       x1="67.721596"
       x2="67.721596"
       xlink:href="#linearGradient3349"
       y1="122.5"
       y2="24.204546" />
  </defs>
  <sodipodi:namedview
     bordercolor="#666666"
     borderopacity="0.25490196"
     fill="#f57900"
     gridtolerance="12"
     guidetolerance="13"
     height="300px"
     id="base"
     inkscape:current-layer="layer6"
     inkscape:cx="133.09209"
     inkscape:cy="24.989776"
     inkscape:document-units="px"
     inkscape:grid-bbox="true"
     inkscape:guide-bbox="true"
     inkscape:pageopacity="0.0"
     inkscape:pageshadow="2"
     inkscape:showpageshadow="false"
     inkscape:snap-bbox="true"
     inkscape:snap-global="false"
     inkscape:snap-nodes="false"
     inkscape:window-height="717"
     inkscape:window-maximized="0"
     inkscape:window-width="1023"
     inkscape:window-x="231"
     inkscape:window-y="55"
     inkscape:zoom="1"
     objecttolerance="7"
     pagecolor="#ffffff"
     showgrid="false"
     showguides="true"
     stroke="#ef2929"
     width="400px">
    <inkscape:grid
       empspacing="5"
       enabled="true"
       id="grid5883"
       spacingx="1px"
       spacingy="1px"
       type="xygrid"
       visible="true" />
  </sodipodi:namedview>
  <metadata
     id="metadata4">
    <rdf:RDF>
      <cc:Work
         rdf:about="">
        <dc:format>image/svg+xml</dc:format>
        <dc:type
           rdf:resource="http://purl.org/dc/dcmitype/StillImage" />
        <dc:creator>
          <cc:Agent>
            <dc:title>Breathe Icon Team</dc:title>
          </cc:Agent>
        </dc:creator>
        <dc:source />
        <cc:license
           rdf:resource="http://creativecommons.org/licenses/by-nc-sa/3.0/" />
        <dc:title>Breathe Icon Theme icon</dc:title>
        <dc:subject>
          <rdf:Bag />
        </dc:subject>
        <dc:date />
        <dc:rights>
          <cc:Agent>
            <dc:title />
          </cc:Agent>
        </dc:rights>
        <dc:publisher>
          <cc:Agent>
            <dc:title />
          </cc:Agent>
        </dc:publisher>
        <dc:identifier />
        <dc:relation />
        <dc:language />
        <dc:coverage />
        <dc:description />
        <dc:contributor>
          <cc:Agent>
            <dc:title>Jakub Steiner, Cory Kontros, Oxygen and Breathe icon teams</dc:title>
          </cc:Agent>
        </dc:contributor>
      </cc:Work>
      <cc:License
         rdf:about="http://creativecommons.org/licenses/by-nc-sa/3.0/">
        <cc:permits
           rdf:resource="http://creativecommons.org/ns#Reproduction" />
        <cc:permits
           rdf:resource="http://creativecommons.org/ns#Distribution" />
        <cc:requires
           rdf:resource="http://creativecommons.org/ns#Notice" />
        <cc:requires
           rdf:resource="http://creativecommons.org/ns#Attribution" />
        <cc:prohibits
           rdf:resource="http://creativecommons.org/ns#CommercialUse" />
        <cc:permits
           rdf:resource="http://creativecommons.org/ns#DerivativeWorks" />
        <cc:requires
           rdf:resource="http://creativecommons.org/ns#ShareAlike" />
      </cc:License>
    </rdf:RDF>
  </metadata>
  <g
     id="layer1"
     inkscape:groupmode="layer"
     inkscape:label="emblems/emblem-downloads"
     sodipodi:insensitive="true"
     style="display:inline"
     transform="translate(-3,-4)">
    <rect
       height="256"
       id="256x256"
       inkscape:label="256x256"
       style="fill:#eeeeec;fill-opacity:1;fill-rule:nonzero;stroke:none;stroke-width:5;marker:none;visibility:visible;display:none;overflow:visible;enable-background:accumulate"
       width="256"
       x="26.5"
       y="32.823101" />
    <rect
       height="48"
       id="48x48"
       inkscape:label="48x48"
       style="fill:#eeeeec;fill-opacity:1;fill-rule:nonzero;stroke:none;stroke-width:5;marker:none;visibility:visible;display:none;overflow:visible;enable-background:accumulate"
       width="48"
       x="-35.5"
       y="32.823101" />
    <text
       id="text6091"
       sodipodi:linespacing="125%"
       style="font-size:56.11526489px;font-style:normal;font-variant:normal;font-weight:bold;font-stretch:normal;text-indent:0;text-align:start;text-decoration:none;line-height:125%;letter-spacing:normal;word-spacing:normal;text-transform:none;direction:ltr;block-progression:tb;writing-mode:lr-tb;text-anchor:start;fill:#2e3436;fill-opacity:1;fill-rule:nonzero;stroke:none;stroke-width:5;marker:none;visibility:visible;display:none;overflow:visible;enable-background:accumulate;font-family:Myriad"
       x="-418.41196"
       xml:space="preserve"
       y="34.084831"><tspan
         id="tspan6093"
         sodipodi:role="line"
         x="-418.41196"
         y="34.084831">audio-x-generic</tspan></text>
    <g
       id="layer6"
       inkscape:groupmode="layer"
       inkscape:label="plate"
       sodipodi:insensitive="true"
       style="display:none">
      <text
         id="text3637"
         inkscape:label="emblems"
         style="font-size:10px;font-style:normal;font-weight:normal;fill:#000000;fill-opacity:1;stroke:none;font-family:Bitstream Vera Sans"
         x="10"
         xml:space="preserve"
         y="20"><tspan
           id="tspan3639"
           sodipodi:role="line"
           x="10"
           y="20">emblems</tspan></text>
      <text
         id="text3641"
         inkscape:label="emblem-downloads"
         style="font-size:10px;font-style:normal;font-weight:normal;fill:#000000;fill-opacity:1;stroke:none;font-family:Bitstream Vera Sans"
         x="10"
         xml:space="preserve"
         y="52"><tspan
           id="tspan3643"
           sodipodi:role="line"
           x="10"
           y="52">emblem-downloads</tspan></text>
    </g>
    <g
       id="Livello_1"
       transform="translate(387.11439,42.495045)" />
    <g
       id="g3290"
       transform="translate(443.11439,59.884345)" />
    <g
       id="g7148"
       transform="matrix(0.1956571,0,0,0.1956571,345.26471,19.402885)" />
    <g
       id="g7555"
       transform="matrix(0.1333333,0,0,0.1333333,319.90372,105.99052)" />
    <g
       id="g9283"
       transform="matrix(1.0666666,0,0,1.0666666,384.44667,40.470571)" />
    <g
       id="g3614"
       inkscape:export-filename="/home/seba/Dropbox/Ubuntu Icons/applications-internet4.png"
       inkscape:export-xdpi="90"
       inkscape:export-ydpi="90"
       style="display:inline"
       transform="matrix(0.3653496,0,0,0.3653496,43.046537,4.6046918)">
      <path
         d="m 28.001322,19.963046 c -0.280087,-0.02187 -0.487573,0.03488 -0.520278,0.15625 -0.0021,0.0095 -2.71e-4,0.02122 0,0.03125 l 0.260139,0 0,0.28125 c 0.150506,0.08861 0.347056,0.159457 0.585312,0.21875 0.546438,0.13599 0.909602,0.10539 0.845452,-0.09375 -0.06046,-0.18774 -0.466918,-0.42895 -0.877969,-0.53125 -0.102807,-0.02557 -0.199298,-0.05521 -0.292656,-0.0625 l 0,0 z m 21.331389,0.75 c -0.314466,-0.01328 -0.478572,0.06397 -0.520277,0.21875 -0.06337,0.2353 0.203636,0.49068 0.61783,0.59375 0.397502,0.09893 1.32754,0.42139 2.081111,0.71875 0.75356,0.29736 1.427236,0.42527 1.463281,0.28125 0.168414,-0.67265 -0.383299,-1.07325 -2.146146,-1.53125 -0.719419,-0.18691 -1.181332,-0.26797 -1.495799,-0.28125 z m -3.284253,0.03125 c -0.653823,0.0035 -0.445254,0.1255 0.682864,0.40625 0.701657,0.17461 1.320143,0.20043 1.36573,0.03125 0.05244,-0.19472 -0.344664,-0.35164 -1.105591,-0.40625 -0.415816,-0.02984 -0.725059,-0.0324 -0.943003,-0.03125 l 0,0 z m 30.533803,0.4375 c -0.287484,0.03646 -0.453006,0.25375 -0.48776,0.625 -0.03101,0.3317 -0.290232,0.48708 -0.7479,0.4375 -0.534065,-0.05785 -0.746577,0.10544 -0.845451,0.65625 -0.160006,0.89147 0.405203,1.07033 2.048594,0.65625 0.674727,-0.17001 1.465061,-0.34183 1.788455,-0.375 0.980162,-0.10056 0.859894,-0.72415 -0.292656,-1.4375 -0.448761,-0.27775 -0.840707,-0.46929 -1.138108,-0.53125 -0.12392,-0.02581 -0.229349,-0.0434 -0.325174,-0.03125 z m -46.304724,1.21875 c -0.785193,0.0022 -1.677188,0.11177 -2.536354,0.25 l 0,3.53125 c 0.778023,0.247848 1.016883,0.737061 0.325173,0.8125 -0.113368,0.01237 -0.223064,0.07037 -0.325173,0.15625 l 0,1.0625 -0.227622,0 c 0.112287,0.103215 0.294727,0.177687 0.585313,0.25 0.472225,0.11752 1.431981,0.76872 2.113628,1.46875 0.80307,0.82475 1.493874,1.27796 1.951042,1.28125 0.388023,0.0028 1.151219,0.27685 1.72342,0.59375 1.151323,0.63762 1.920949,1.98364 1.23566,2.1875 -0.451445,0.13428 -0.354507,1.85996 0.162587,2.84375 0.156655,0.29801 0.517822,1.05281 0.812934,1.6875 0.848198,1.82408 1.313993,1.68095 1.918524,-0.5625 0.508749,-1.88804 0.337015,-3.50652 -0.390208,-3.6875 -0.448573,-0.11164 -2.218381,-2.77708 -2.308733,-3.46875 -0.106251,-0.81329 0.593169,-0.58859 0.877969,0.28125 0.252023,0.76971 1.074863,1.12799 1.23566,0.53125 0.214437,-0.7958 1.735386,0.23692 2.21118,1.5 0.456357,1.21151 0.854286,1.40966 2.731459,1.375 0.180599,-0.0033 1.21695,0.31526 2.276215,0.71875 1.806509,0.68812 1.996899,0.84872 3.154184,2.71875 0.678588,1.09652 1.115362,2.07713 0.975521,2.15625 -0.139861,0.07911 -0.802247,0.08613 -1.463281,0.03125 l -1.203142,-0.09375 -0.292657,1.4375 c -0.512453,2.42255 0.972129,6.391961 2.536355,6.78125 0.308472,0.07676 0.924117,0.747711 1.365729,1.46875 0.780084,1.27361 0.769657,1.310421 0.0975,2.03125 -0.93187,0.9994 -1.025915,1.561781 -0.390209,2.125 0.739149,0.65488 1.273807,0.393351 1.333212,-0.625 0.03996,-0.6856 0.211493,-0.873769 0.7479,-0.875 0.369439,-8.5e-4 0.613168,-0.156349 0.552795,-0.34375 -0.06035,-0.18741 0.01301,-0.362119 0.162587,-0.40625 0.14958,-0.04413 0.505002,0.448741 0.780416,1.09375 0.275425,0.64502 0.776182,1.396401 1.105591,1.65625 0.552691,0.43598 0.523441,0.527391 -0.06504,1.1875 -1.771275,1.98693 -1.885851,2.418771 -1.138108,4.21875 0.54316,1.30757 1.027237,1.889861 2.211181,2.6875 0.835368,0.56278 1.961374,1.154341 2.471319,1.28125 2.173825,0.54099 2.397337,1.901311 0.487761,2.84375 -1.768351,0.87274 -1.851565,2.105731 -0.260139,4.25 0.537728,0.72453 0.547135,0.725411 1.138108,-0.125 0.491048,-0.70659 2.043953,-1.421089 2.731458,-1.25 0.09261,0.02304 0.03184,0.622041 -0.162587,1.34375 -0.283541,1.05224 -0.564033,1.442971 -1.398246,1.875 -0.57215,0.29631 -1.11121,0.522881 -1.203143,0.5 -0.09188,-0.02289 -0.237111,0.188461 -0.325173,0.46875 -0.08803,0.28029 -0.349929,0.685771 -0.552795,0.9375 -0.254687,0.31597 -0.209381,0.517361 0.0975,0.59375 1.143258,0.28453 3.685887,-2.598369 3.902083,-4.40625 0.212086,-1.77348 1.833771,-3.421779 2.211181,-2.25 0.218308,0.67777 0.669649,0.467411 1.170625,-0.5625 0.280981,-0.57765 0.802455,-1.178469 1.170625,-1.3125 0.368159,-0.13404 0.717473,-0.422679 0.780417,-0.65625 0.243386,-0.90323 1.327894,-0.02663 3.186701,2.5625 1.695669,2.36191 1.921001,2.802331 1.690903,3.65625 -0.278588,1.03381 0.288733,2.766591 0.975521,2.9375 0.547176,0.13618 3.502957,-3.639739 3.934601,-5.03125 0.314091,-1.01253 0.434463,-1.104009 1.235659,-0.90625 0.649047,0.16021 0.85515,0.107401 0.812935,-0.25 -0.03809,-0.32214 0.218495,-0.472559 0.747899,-0.46875 0.435597,0.0031 0.931901,-0.234199 1.10559,-0.5 0.267142,-0.40883 0.652377,-0.368139 2.633907,0.125 1.810785,0.45064 2.479852,0.487801 2.861527,0.1875 0.287933,-0.22652 0.681002,-0.273429 0.943004,-0.09375 0.771884,0.52935 1.990354,0.358771 2.633906,-0.375 0.648537,-0.73945 1.681184,-0.881109 2.048594,-0.28125 0.137749,0.22491 -0.225561,0.607011 -0.975521,1.03125 -0.649077,0.36715 -1.236586,0.855871 -1.300694,1.09375 -0.0641,0.23789 -0.338503,0.469531 -0.61783,0.5 -0.579007,0.06314 -1.782545,-0.695659 -1.951042,-1.21875 -0.0693,-0.21507 -0.374496,-0.185509 -0.812934,0.0625 -0.392362,0.22195 -0.985479,0.482931 -1.300694,0.5625 -0.518239,0.13078 -0.558134,0.218331 -0.357691,1.125 0.242699,1.09777 1.446715,2.991391 1.983559,3.125 0.185957,0.04628 0.650722,0.460221 1.040555,0.90625 0.858594,0.98234 2.777805,2.252581 3.772014,2.5 0.622596,0.15494 0.777191,0.0442 1.008039,-0.8125 0.191285,-0.70981 0.74998,-1.386029 1.918524,-2.28125 0.905741,-0.6939 1.656169,-1.371049 1.690903,-1.5 0.03475,-0.12894 0.595603,-0.678799 1.23566,-1.25 0.962441,-0.8589 1.235888,-1.332109 1.528316,-2.6875 0.194479,-0.90138 0.260243,-1.774779 0.162586,-1.9375 -0.09771,-0.1627 -0.02726,-0.614809 0.162587,-1 0.326048,-0.66163 0.452996,-0.676499 2.081107,-0.1875 1.01179,0.30389 1.82213,0.388541 2.47132,0.25 1.54916,-4.35558 3.60399,-8.481689 6.11326,-12.3125 -0.0381,0.0078 -0.0926,0.0093 -0.13007,0 -0.22303,-0.05551 -0.1836,-0.420219 0.13007,-1.0625 0.47811,-0.97892 0.47561,-0.982969 -0.68286,-1.28125 -0.63773,-0.16419 -1.32405,-0.524159 -1.56083,-0.8125 -0.48909,-0.59562 -0.48923,-1.123249 0,-0.625 0.17625,0.17951 0.70553,0.439811 1.20315,0.59375 0.49756,0.15394 1.24475,0.464721 1.65837,0.6875 0.71517,0.38518 0.77171,0.369301 1.23566,-0.8125 0.43918,-1.11866 0.42011,-1.387759 -0.29265,-2.625 -0.74777,-1.29801 -0.76031,-1.383689 -0.0975,-1.21875 0.43165,0.10742 1.10519,0.831921 1.72343,1.875 0.11508,0.19418 0.16284,0.352671 0.26014,0.53125 1.11769,-1.38462 2.30553,-2.7173 3.54439,-4 -0.78827,-0.71239 -1.84862,-1.53871 -2.17867,-1.625 -0.17829,-0.04663 -0.8044,-0.48466 -1.39824,-0.96875 -0.59387,-0.48409 -1.35288,-0.88899 -1.6909,-0.90625 -0.33805,-0.01725 -1.00746,-0.07226 -1.4958,-0.09375 -0.48839,-0.02152 -0.94729,0.14955 -1.00804,0.375 -0.068,0.25273 -0.62848,0.38169 -1.46328,0.3125 -3.768,-0.31229 -6.05925,0.56392 -4.64999,1.8125 0.55951,0.49572 0.98925,0.5739 3.12167,0.5 1.10429,-0.03828 1.1032,-0.02742 0.32517,0.25 -0.45648,0.16277 -0.9022,0.607231 -1.00804,1 -0.10364,0.38483 -0.30063,0.663481 -0.45525,0.625 -0.15462,-0.03849 -0.57204,-0.03445 -0.91048,0 -0.54481,0.05545 -0.53013,0.0082 -0.0325,-0.34375 0.72239,-0.51083 0.51537,-0.86738 -0.39021,-0.65625 -0.97641,0.22766 -1.136,0.14202 -0.78041,-0.40625 0.34826,-0.53697 -0.75235,-1.58817 -1.56084,-1.5 -0.60464,0.06595 -0.31774,-1.24292 0.35769,-1.625 0.51127,-0.28922 0.25552,-0.41533 -0.87796,-0.40625 -0.45301,0.0036 -0.75356,0.19905 -0.78042,0.5 -0.0444,0.49797 -0.267367,0.62071 -0.877965,0.46875 -0.178341,-0.04438 -0.193439,-0.19431 -0.06503,-0.3125 0.128425,-0.11819 -0.456076,-0.67189 -1.300695,-1.25 -1.759215,-1.20411 -1.879285,-1.26516 -1.72342,-0.78125 0.07606,0.23629 -0.146698,0.20331 -0.682865,-0.09375 -0.443068,-0.24545 -1.270716,-0.53104 -1.820972,-0.65625 -1.144601,-0.26047 -1.200947,-0.56461 -0.162587,-0.9375 0.396629,-0.14245 0.683343,-0.36177 0.61783,-0.46875 -0.156604,-0.25563 -2.907011,-0.09948 -4.552431,0.25 -0.714747,0.15181 -1.245482,0.15711 -1.203142,0 0.04235,-0.15711 0.209901,-0.35261 0.390208,-0.40625 0.180328,-0.05363 0.519487,-0.44245 0.747899,-0.875 0.592056,-1.12124 -0.534398,-3.11622 -1.755937,-3.125 -0.833527,-0.006 -1.250623,0.55945 -0.780417,1.03125 0.158342,0.15889 0.05681,0.47664 -0.260139,0.90625 -0.583221,0.79058 -1.042824,2.40404 -0.845451,2.9375 0.07638,0.20645 0.363008,0.57638 0.650347,0.84375 0.485128,0.4514 0.473432,0.47113 -0.325173,0.28125 -0.701221,-0.16674 -0.897563,-0.41639 -1.040556,-1.375 -0.146698,-0.98345 -0.286496,-1.17799 -0.943004,-1.21875 -0.431674,-0.02681 -0.752946,-0.17311 -0.715382,-0.3125 0.03756,-0.1394 0.240109,-0.22269 0.455243,-0.1875 0.215135,0.03519 0.666019,0.12718 1.008039,0.1875 0.517572,0.09126 0.674113,-0.13118 1.040555,-1.28125 0.242169,-0.76 0.322864,-1.39761 0.162587,-1.4375 -0.160287,-0.0399 -0.230566,-0.27896 -0.162587,-0.53125 0.06795,-0.25231 -0.03153,-0.43332 -0.227621,-0.375 -0.196072,0.05834 -0.354434,0.45468 -0.357691,0.875 -0.0052,0.60922 -0.136698,0.72515 -0.585313,0.59375 -0.350022,-0.10252 -0.405671,-0.18485 -0.130069,-0.21875 0.345433,-0.0425 0.38512,-0.19073 0.0975,-0.71875 -0.330803,-0.60744 -0.458001,-0.6505 -1.138108,-0.40625 -0.417044,0.14975 -1.034198,0.20751 -1.365729,0.125 -0.595656,-0.14825 -0.602731,-0.16453 0.0975,-0.4375 1.057954,-0.4124 0.635062,-1.38716 -0.812934,-1.875 -0.74843,-0.25214 -1.256575,-0.66303 -1.495799,-1.1875 -0.353591,-0.77523 -1.058338,-1.15818 -5.462917,-2.96875 -0.615665,-0.25309 -1.34575,-0.81448 -1.59335,-1.21875 -0.247621,-0.40427 -0.76381,-0.94158 -1.170625,-1.21875 -0.63989,-0.43597 -0.851914,-0.44597 -1.495799,0.0625 -0.630088,0.49756 -0.924482,0.53254 -1.886007,0.15625 -1.327832,-0.51967 -2.558144,-0.32639 -2.763976,0.4375 -0.100518,0.37295 0.343977,0.91984 1.463281,1.78125 1.856039,1.42838 2.318358,2.18561 0.7479,1.21875 -1.234453,-0.75997 -4.548019,-1.36097 -6.210817,-1.125 -0.963044,0.13667 -1.155412,0.09229 -1.560833,-0.5 -0.648172,-0.94696 -2.742291,-1.28637 -3.089149,-0.5 -0.672199,1.52395 -0.931828,1.7966 -1.495799,1.65625 -0.325215,-0.08093 -0.665487,-0.38597 -0.747899,-0.6875 -0.104472,-0.38235 -0.327172,-0.50423 -0.715382,-0.40625 -0.863974,0.21805 -3.286117,-0.6979 -3.154184,-1.1875 0.08408,-0.3122 -0.41461,-0.51578 -1.98356,-0.90625 -1.61952,-0.40304 -2.393871,-0.45195 -3.674462,-0.15625 -1.145017,0.26437 -2.130797,0.24772 -3.251736,-0.03125 -1.219989,-0.3036 -1.804573,-0.28822 -2.471319,0.0625 -0.746183,0.39249 -1.201759,0.38047 -2.991598,-0.125 -1.230592,-0.34751 -2.206331,-0.4666 -2.373767,-0.3125 -0.157124,0.14461 -0.49391,0.18821 -0.7479,0.125 -0.329752,-0.08206 -0.361978,-0.25157 -0.0975,-0.65625 0.301044,-0.46071 0.266383,-0.57373 -0.227621,-0.5625 -0.334247,0.0076 -1.262007,-0.04328 -2.048594,-0.125 -0.248974,-0.02587 -0.511964,-0.06332 -0.812934,-0.0625 l 8.3e-5,0 z m 42.012432,0.21875 c -0.14933,0.02299 -0.323727,0.07777 -0.520277,0.125 l -0.780417,0.15625 0.715382,0.40625 c 0.389969,0.21993 1.069566,0.52487 1.528316,0.65625 0.834088,0.23888 0.843995,0.24089 0.390208,-0.5 -0.32843,-0.53623 -0.554273,-0.79648 -0.943003,-0.84375 -0.116626,-0.01418 -0.240879,-0.02299 -0.390209,0 l 0,0 z m -22.534532,0.3125 c -0.153107,0.0188 -0.283843,0.05703 -0.357691,0.125 -0.157093,0.14458 0.124378,0.36101 0.682865,0.5 0.558476,0.13898 0.909778,0.10593 0.845451,-0.09375 -0.06046,-0.18774 -0.365932,-0.42113 -0.682864,-0.5 -0.158456,-0.03943 -0.334653,-0.05005 -0.487761,-0.03125 l 0,0 z m 40.971877,6.75 c -0.118873,0.01413 -0.180516,0.10647 -0.227622,0.28125 -0.08512,0.31595 0.395432,0.77795 1.495799,1.40625 1.852522,1.05777 2.599433,1.7295 3.674462,3.34375 0.848927,1.27474 0.819531,1.80594 -0.130069,2.40625 -0.611577,0.38661 -0.631139,0.41352 -0.03247,0.5625 0.350865,0.08731 0.907999,0.04196 1.203143,-0.125 0.295153,-0.16696 0.78231,-0.2999 1.10559,-0.28125 0.534689,0.03085 0.552296,-0.05309 0.06503,-1.03125 -0.294592,-0.59139 -0.499758,-1.13927 -0.455243,-1.21875 0.04453,-0.07949 -0.12315,-0.57956 -0.357691,-1.09375 -0.48414,-1.06141 -1.946006,-2.22848 -3.869567,-3.09375 -0.721188,-0.3244 -1.602632,-0.76131 -1.951041,-0.96875 -0.236862,-0.14103 -0.401405,-0.20163 -0.520278,-0.1875 l -4.3e-5,0 z m 23.412496,2.15625 c -0.21772,0.01475 -0.0735,0.141246 0.19511,0.34375 l 0,-0.34375 c -0.0616,-0.0047 -0.15584,-0.0027 -0.19511,0 l 0,0 z m -69.09939,7.8125 c -0.106231,-0.02654 -0.331657,0.37033 -0.715382,1.15625 -0.225541,0.46193 -0.603179,1.12504 -0.812934,1.46875 -0.274967,0.45057 -0.255852,0.61137 0.06503,0.625 0.3184,0.0135 0.370022,0.29842 0.13007,0.96875 -0.364039,1.01698 -0.371666,1.04335 0.195104,0.84375 0.251679,-0.08864 0.565781,-1.0765 0.910486,-2.84375 0.284394,-1.45805 0.364205,-2.18462 0.227622,-2.21875 l 4e-6,0 z m -1.203143,5.90625 c -0.100309,-0.02113 -0.571327,0.138901 -1.073073,0.34375 -1.064821,0.43476 -0.963773,0.835471 0.325174,1.15625 0.983158,0.24467 1.052668,0.460401 0.325173,1.21875 -0.55446,0.57798 -0.160183,3.713751 0.487761,3.875 0.221649,0.05516 0.857074,0.488691 1.398246,0.96875 1.123728,0.99681 2.260004,1.459741 1.23566,0.5 -0.693312,-0.64959 -0.442912,-0.702169 0.61783,-0.125 0.355131,0.19323 0.59217,0.479161 0.520278,0.65625 -0.401582,0.9891 -0.0042,1.624581 0.552795,0.875 0.145095,-0.1954 0.196322,-0.526149 0.13007,-0.71875 -0.162795,-0.4733 -1.708811,-1.765039 -2.276216,-1.90625 -0.251408,-0.06257 -0.56908,-0.411389 -0.715382,-0.75 -0.146291,-0.3386 -0.500476,-0.805939 -0.780416,-1.0625 -0.27991,-0.25658 -0.501777,-0.944549 -0.487761,-1.53125 0.04433,-1.85268 -0.07107,-3.460199 -0.260139,-3.5 z m 8.064306,14.59375 c -0.04526,-0.0057 -0.07908,0.0024 -0.130069,0.03125 -0.154981,0.08767 -0.195323,0.626821 -0.06504,1.21875 0.225343,1.0237 0.252532,1.039941 0.455243,0.34375 0.217445,-0.74679 0.05692,-1.553499 -0.260139,-1.59375 l 5e-6,0 z m -1.333212,3.59375 c -0.416201,0.04539 -0.497188,0.226641 -0.422726,0.875 0.115513,1.00581 -0.417262,1.873861 -1.040555,1.71875 -0.253271,-0.06302 -0.698255,0.01226 -1.008038,0.1875 -0.464869,0.26295 -0.513494,0.456091 -0.325174,1.03125 0.282365,0.86238 0.351302,0.872071 1.365729,0.34375 1.060389,-0.55226 1.324191,-0.446489 1.690903,0.59375 0.166822,0.47325 0.446128,0.894771 0.61783,0.9375 0.171702,0.04272 0.08137,-0.460169 -0.227622,-1.125 -0.606238,-1.30434 -0.658786,-2.395549 -0.0975,-2.5625 0.844526,-0.25122 0.334268,-2.096759 -0.552795,-2 l -5.2e-5,0 z m -3.479358,4.21875 c -0.139933,-0.0147 -0.182846,0.131881 -0.260138,0.4375 -0.0872,0.345 -0.02955,0.912811 0.130069,1.28125 0.261596,0.6039 0.324497,0.645051 0.61783,0.25 0.178955,-0.241 0.513327,-0.402129 0.747899,-0.34375 0.74535,0.1855 0.541495,-0.326929 -0.422726,-1.09375 -0.454556,-0.3615 -0.673,-0.516549 -0.812934,-0.53125 z m 53.783717,1.15625 c -0.59569,-0.04272 -1.140583,0.03438 -1.300694,0.25 -0.148799,0.20038 -0.215062,0.622241 -0.162586,0.9375 0.132244,0.79482 -0.07107,1.169541 -1.723421,3.09375 -0.794141,0.92484 -1.6929,1.984361 -1.983559,2.34375 -0.290648,0.35939 -1.068161,0.950101 -1.72342,1.34375 -0.655248,0.39366 -1.480648,0.938731 -1.85349,1.1875 -0.433048,0.28896 -0.938924,0.321081 -1.365729,0.125 -2.651367,-1.21806 -2.552264,-1.196269 -2.731458,-0.53125 -0.330241,1.22556 0.214323,2.982611 1.528316,5.0625 2.178403,3.44825 2.319544,4.113541 1.528316,6.1875 -0.370844,0.97202 -0.838667,2.130821 -1.073073,2.5625 -0.37639,0.69314 -0.283728,1.006331 0.845451,2.71875 1.131428,1.71585 1.22872,2.055591 0.877969,2.84375 -0.291792,0.65568 -0.259119,1.105181 0.0975,1.6875 0.266486,0.43509 0.364226,0.874261 0.227622,1 -0.437918,0.403084 1.011555,3.542474 2.081111,4.500004 1.203767,1.07768 4.165552,2.20974 4.81257,1.84375 0.236549,-0.13381 0.499654,-0.39655 0.552795,-0.59375 0.05317,-0.19721 0.81554,-1.21475 1.72342,-2.25 0.76616,-0.87365 1.46045,-1.80919 1.72342,-2.3125 -1.52505,-5.146764 -2.34125,-10.572643 -2.34125,-16.187504 0,-5.29811 0.71785,-10.425949 2.08111,-15.3125 -0.0635,-0.02335 -0.15301,-0.03453 -0.1951,-0.0625 -0.38319,-0.25459 -1.03018,-0.394779 -1.62587,-0.4375 l 5e-5,0 z m -49.328838,1.21875 -0.845451,0.4375 c -0.737015,0.38386 -0.76227,0.472541 -0.357691,0.75 0.510507,0.35011 0.356723,1.326181 -0.227622,1.5 -0.255592,0.07603 -0.266278,0.318521 -0.06504,0.71875 0.163846,0.32583 0.347889,1.045141 0.422726,1.625 0.145241,1.12533 0.21399,1.193221 2.016077,1.15625 0.805494,-0.01652 1.360287,-0.261999 1.788455,-0.78125 0.733633,-0.88971 0.736827,-1.736609 0,-1.65625 -0.327661,0.03575 -0.46748,-0.119499 -0.390209,-0.40625 0.06712,-0.24915 -0.175625,-0.604509 -0.520278,-0.8125 -0.344652,-0.208 -0.902546,-0.879929 -1.235659,-1.46875 l -0.585313,-1.0625 5e-6,0 z m -20.550973,1.34375 c -0.267319,0.15122 -0.01238,0.814161 0.357691,0.90625 0.203033,0.05052 0.23118,-0.128999 0.06504,-0.46875 -0.109914,-0.22476 -0.253844,-0.390269 -0.357691,-0.4375 -0.03465,-0.01574 -0.04079,-0.01372 -0.06503,0 l -10e-6,0 z m 7.706615,0.5 c -0.448511,-0.01576 -1.169366,0.09338 -2.438802,0.3125 -2.37948,0.41075 -2.832289,0.610491 -3.349289,1.375 -0.331791,0.49064 -0.933409,0.918481 -1.333211,0.96875 -0.404163,0.05081 -0.548009,0.155201 -0.292657,0.21875 0.252595,0.06286 0.792009,0.07944 1.170625,0.03125 0.378606,-0.0482 0.907573,-0.263969 1.203143,-0.46875 0.675716,-0.46821 1.074613,-0.382869 1.59335,0.375 0.316298,0.4621 0.561963,0.564241 1.105591,0.4375 0.386826,-0.09019 1.006508,-0.08939 1.365729,0 0.501673,0.12485 0.643865,0.02591 0.61783,-0.4375 -0.04287,-0.76279 0.979579,-1.358669 1.918524,-1.125 0.742614,0.18481 1.718093,-0.271479 1.463282,-0.6875 -0.0821,-0.13405 0.05442,-0.192369 0.325173,-0.125 0.270711,0.06737 0.632731,0.01093 0.780417,-0.125 0.153243,-0.14105 -0.08928,-0.322159 -0.552795,-0.4375 -0.5547,-0.13805 -0.920434,-0.03095 -1.138108,0.34375 -0.378981,0.65241 -0.841643,0.560021 -1.560833,-0.25 -0.24169,-0.27221 -0.429448,-0.390489 -0.877969,-0.40625 l 0,0 z m 8.844722,1.5 c -0.07658,0.0059 -0.147207,0.03769 -0.227621,0.0625 -0.437106,0.13481 -0.447189,0.197181 0,0.3125 0.663781,0.17116 0.607913,0.444431 -0.260139,1.15625 -0.451736,0.37044 -0.606509,0.659291 -0.455243,0.90625 0.151266,0.24697 0.458739,0.182931 0.910486,-0.1875 l 0.682865,-0.5625 -0.162587,0.65625 c -0.09688,0.35968 -0.03829,0.708091 0.130069,0.75 0.168394,0.04192 0.303364,-0.01283 0.325174,-0.09375 0.02175,-0.08093 0.01759,-0.171209 0,-0.21875 -0.01758,-0.04755 0.205333,-0.330599 0.48776,-0.625 0.396473,-0.41329 0.470737,-0.677739 0.260139,-1.1875 -0.150048,-0.36311 -0.395952,-0.588719 -0.552795,-0.5 -0.156832,0.08871 -0.436502,0.01084 -0.585312,-0.1875 -0.08324,-0.11101 -0.187935,-0.215479 -0.325174,-0.25 -0.06857,-0.01726 -0.151068,-0.03718 -0.227622,-0.03125 l 0,0 z m 14.990505,0.46875 c -0.381354,0.04388 -0.910986,0.216531 -1.495799,0.5 -0.706225,0.34231 -1.43271,0.571231 -1.593351,0.53125 -0.563773,-0.14029 -3.196316,1.780381 -3.381806,2.46875 -0.228308,0.84732 0.0083,1.094581 0.910487,1 0.379501,-0.03978 1.697687,-0.917189 2.926562,-1.9375 1.228865,-1.0203 2.441799,-1.878199 2.698941,-1.90625 0.257153,-0.02804 0.48133,-0.167969 0.520278,-0.3125 0.0539,-0.20003 -0.0385,-0.308929 -0.260139,-0.34375 -0.0924,-0.01451 -0.198059,-0.01463 -0.325173,0 z m 8.74717,0.375 c -0.42257,0.1257 -0.720044,1.222321 -0.357691,1.3125 0.150392,0.03743 0.413205,-0.111969 0.585313,-0.34375 0.328961,-0.44303 0.264967,-0.941579 -0.06503,-0.96875 -0.04714,-0.0039 -0.104898,-0.01716 -0.162587,0 l -5e-6,0 z m -35.866651,1.90625 c -0.126739,-0.0297 -0.324507,0.152961 -0.585312,0.5625 -0.213574,0.33539 -0.599797,0.747701 -0.877969,0.9375 -0.278172,0.18979 -0.707515,0.658131 -0.943004,1.03125 -0.235477,0.3731 -1.147607,1.085201 -2.016076,1.5625 -3.726646,2.04816 -4.665081,3.736281 -3.967118,7.125 0.192908,0.9366 0.371395,1.963411 0.390208,2.28125 0.01883,0.31783 0.213678,0.499681 0.422726,0.4375 0.209047,-0.06218 0.575999,0.185091 0.812934,0.53125 0.272823,0.39858 0.539819,0.536591 0.715382,0.375 0.152649,-0.1405 0.662834,-0.06485 1.138108,0.15625 0.729741,0.33943 1.060315,0.257861 2.21118,-0.4375 0.748711,-0.45237 1.400973,-1.018769 1.463282,-1.25 0.136208,-0.5055 0.526219,-0.449299 0.877968,0.125 0.191587,0.31281 0.499134,0.272471 1.23566,-0.21875 0.875139,-0.58368 1.192165,-0.608369 2.698941,-0.21875 1.256044,0.32479 1.89582,0.668211 2.438802,1.3125 0.426326,0.50586 1.170802,0.971281 1.788455,1.125 0.586281,0.1459 1.142655,0.406011 1.203143,0.59375 0.140183,0.43527 1.284149,0.728351 1.983559,0.5 0.434203,-0.14177 0.465503,-0.248919 0.195104,-0.53125 -0.2689,-0.28076 -0.103847,-0.645159 0.812934,-1.90625 1.271819,-1.74945 1.946297,-3.988239 1.398247,-4.65625 -0.19267,-0.23486 -1.094759,-0.812289 -1.983559,-1.25 -1.034833,-0.50962 -1.610812,-0.974209 -1.625869,-1.3125 -0.04329,-0.97089 -0.272969,-1.531079 -0.650347,-1.625 -0.205718,-0.05119 -0.503629,-0.394889 -0.650347,-0.75 -0.204469,-0.49488 -0.474108,-0.629019 -1.23566,-0.65625 -0.863338,-0.03088 -0.990422,-0.118229 -0.845451,-0.65625 0.212606,-0.78897 -0.880893,-1.591999 -2.34125,-1.6875 -1.081158,-0.07071 -1.462949,0.198401 -0.975521,0.6875 0.141453,0.14194 0.219151,0.402151 0.162587,0.59375 -0.128467,0.43518 -3.145725,1.084761 -3.479358,0.75 -0.134846,-0.13529 -0.04214,-0.963199 0.195104,-1.84375 0.27581,-1.02354 0.24375,-1.637999 0.03247,-1.6875 l 4.7e-5,0 z m 8.584584,0.59375 c -0.09282,0.03981 0.04422,0.237531 0.357691,0.53125 0.853526,0.79971 1.392471,0.930171 0.780417,0.1875 -0.262855,-0.31896 -0.711459,-0.627899 -0.975521,-0.6875 -0.0769,-0.01736 -0.13163,-0.04452 -0.162587,-0.03125 z m 7.413959,0.9375 c -0.242252,0.0028 -0.346318,0.08714 -0.390209,0.25 -0.06389,0.23727 -0.320293,0.470761 -0.552795,0.5 -0.474212,0.05965 0.614833,0.357951 1.138108,0.3125 0.184001,-0.01598 1.193423,0.03634 2.21118,0.09375 1.017757,0.05744 1.873281,-0.05084 1.918525,-0.21875 0.05099,-0.18924 -0.254895,-0.285279 -0.812934,-0.28125 -0.495117,0.0036 -1.548992,-0.178829 -2.34125,-0.40625 -0.543805,-0.15611 -0.928374,-0.252789 -1.170625,-0.25 z m -2.763976,0.0625 c -0.09719,0.0072 -0.170266,0.04834 -0.162587,0.15625 0.03423,0.48084 0.60012,0.816931 0.910486,0.53125 0.138706,-0.12766 -0.0042,-0.390189 -0.325173,-0.5625 -0.17779,-0.09539 -0.325569,-0.132149 -0.422726,-0.125 z m -33.980644,7.40625 c -0.131037,0.02511 -0.25145,0.128386 -0.292656,0.28125 -0.121287,0.45013 -1.577836,0.954321 -2.081111,0.71875 -0.51443,-0.24078 -0.595823,0.408301 -0.0975,0.75 0.227487,0.15602 0.348046,0.450631 0.292657,0.65625 -0.05546,0.20563 0.0283,0.558911 0.195104,0.78125 0.224365,0.29906 0.45594,0.230821 0.845451,-0.21875 0.377535,-0.43574 0.468656,-0.712649 0.292657,-1 -0.175979,-0.28735 -0.03756,-0.621859 0.520277,-1.15625 0.429833,-0.41179 0.63398,-0.768019 0.455243,-0.8125 -0.04453,-0.01107 -0.08637,-0.0084 -0.130069,0 l -5.3e-5,0 z m 0.03247,3.6875 c -0.106001,0.01292 -0.24965,0.03094 -0.422725,0.0625 l -0.845452,0.125 0.585313,1 c 0.316297,0.5427 0.655623,1.327481 0.747899,1.75 0.191754,0.87785 1.700695,1.656471 1.886007,0.96875 0.06119,-0.22695 -0.295944,-1.032489 -0.812934,-1.78125 -0.51701,-0.74877 -0.909945,-1.541889 -0.845451,-1.78125 0.04828,-0.1791 0.04152,-0.302289 -0.06503,-0.34375 -0.05328,-0.02073 -0.12162,-0.01292 -0.227622,0 l -5e-6,0 z m 70.432608,0.71875 c -0.462174,0.14903 -0.813268,1.118719 -0.552796,2.375 0.149237,0.71972 0.214948,1.970901 0.13007,2.8125 -0.17781,1.76314 0.170349,2.388881 1.300694,2.25 0.795765,-0.09778 1.422669,-1.269649 1.203143,-2.25 -0.133431,-0.5958 -0.02674,-1.158329 0.292656,-1.6875 0.59166,-0.98028 0.494514,-1.302979 -0.422726,-1.53125 -0.421768,-0.10497 -0.828396,-0.552919 -1.008038,-1.0625 -0.205832,-0.58389 -0.495117,-0.858399 -0.747899,-0.90625 -0.06951,-0.01316 -0.129081,-0.02129 -0.195104,0 l 0,0 z m -57.393145,2.375 c -0.11109,0.04075 -0.132931,0.199161 -0.13007,0.53125 0.0031,0.39834 -0.0021,0.846801 -0.03246,0.96875 -0.119019,0.47731 0.853869,0.405921 1.333212,-0.09375 0.593033,-0.61819 0.618777,-0.606629 -0.455243,-1.15625 -0.379168,-0.19404 -0.604282,-0.290749 -0.715382,-0.25 l -5.7e-5,0 z M 26.21282,104.71305 c -0.94675,-0.22698 17.327873,4.31646 21.559011,5.375 l 0.195104,0 c -2.450748,-0.60662 -6.03516,-1.49593 -8.324445,-2.0625 -8.012236,-1.98297 -12.380561,-3.06099 -13.42967,-3.3125 l 0,0 z"
         id="path4330"
         style="fill:#000000;fill-opacity:1" />
      <path
         d="m 67.000014,5.93389 c -33.929855,0 -61.4668163,26.463703 -61.4668059,59.071138 0,32.607443 27.5369409,59.071142 61.4668059,59.071132 33.929856,0 61.466796,-26.463679 61.466796,-59.071132 0,-32.607444 -27.53695,-59.071138 -61.466796,-59.071138 l 0,0 z"
         id="path4350"
         style="opacity:0.85;fill:url(#linearGradient3631);fill-opacity:1;fill-rule:nonzero;stroke:none;stroke-width:1;marker:none;visibility:visible;display:inline;overflow:visible" />
      <path
         d="m 83.867056,17.848331 c -0.814297,0.03636 -1.789163,0.20729 -2.829011,0.46875 -1.405447,0.35339 -2.713967,0.78057 -2.894045,0.96875 -0.180068,0.18817 -1.249312,0.65697 -2.406285,1.03125 -1.800806,0.58255 -2.081382,0.73919 -1.918524,1.1875 0.139361,0.38367 0.02123,0.49846 -0.390209,0.4375 -0.308889,-0.04578 -0.968975,-0.04335 -1.495798,0 -0.846555,0.06963 -0.923452,0.14431 -0.455243,0.46875 0.476636,0.33026 0.412424,0.3606 -0.682865,0.34375 -1.605827,-0.02469 -2.811269,0.53322 -5.332847,2.53125 -2.062517,1.63429 -2.08311,1.68614 -1.300695,2.03125 l 0.812934,0.34375 -0.780417,0.53125 c -0.427064,0.29238 -0.969423,0.56684 -1.203142,0.625 -0.580599,0.14449 -1.826539,1.14423 -1.755938,1.40625 0.03153,0.11699 0.377223,0.18666 0.7479,0.1875 0.419562,9.6e-4 0.687859,0.22514 0.715382,0.5625 0.054,0.66165 1.055893,0.7296 3.284253,0.21875 2.202388,-0.5049 2.999017,-0.37746 4.519914,0.8125 1.010223,0.7904 1.340121,1.24497 1.365729,1.90625 0.02497,0.64497 0.138592,0.8369 0.48776,0.75 0.256039,-0.06372 0.520913,-0.30002 0.585313,-0.5 0.07638,-0.23695 0.360979,-0.21243 0.845451,0.03125 0.685695,0.34489 0.738524,0.39671 0.357691,0.84375 -0.22708,0.26656 -0.661762,0.4682 -0.943003,0.4375 -0.428387,-0.04672 -0.408335,0.04042 0.03246,0.5 0.429292,0.44749 0.619308,0.46698 1.040556,0.09375 0.447876,-0.39681 0.545688,-0.37977 0.715382,0.25 0.126032,0.46772 -0.0282,0.84402 -0.390209,1.0625 -0.91264,0.55076 -0.300418,1.77077 1.788455,3.625 1.391535,1.23524 2.214344,1.7387 3.024115,1.8125 0.610036,0.05559 1.268198,0.0592 1.463281,0.03125 0.502651,-0.072 0.890841,-1.03261 0.552795,-1.34375 -0.155594,-0.1432 -0.07065,-0.67611 0.162587,-1.1875 0.233251,-0.51139 0.341646,-1.16629 0.260139,-1.46875 -0.109373,-0.40588 0.191327,-0.74893 1.170625,-1.28125 0.896491,-0.48727 1.523613,-1.09521 1.886007,-1.875 0.390521,-0.84024 0.794766,-1.20791 1.463282,-1.375 1.120772,-0.28014 4.465575,-2.94396 3.414323,-2.71875 -0.767858,0.16449 -1.048693,-0.24926 -0.455243,-0.65625 0.20835,-0.14287 0.336318,-0.75859 0.292656,-1.375 -0.0436,-0.61641 0.113389,-1.22976 0.325173,-1.375 0.211806,-0.14525 0.413621,-0.76395 0.455244,-1.375 0.06514,-0.95625 -0.0031,-1.13414 -0.552796,-1.34375 -0.798075,-0.30453 -0.603564,-1.07606 0.260139,-1.03125 0.354861,0.01841 0.567582,-0.10568 0.520278,-0.28125 -0.04651,-0.17275 -0.267672,-0.28162 -0.520278,-0.21875 -0.252584,0.06286 -0.509185,0.0056 -0.552795,-0.15625 -0.0436,-0.16183 -0.267683,-0.25037 -0.520278,-0.1875 -0.631638,0.15719 -0.682094,-0.25599 -0.130069,-1.0625 0.254822,-0.3723 0.355849,-0.78824 0.227621,-0.90625 -0.128227,-0.11803 0.03319,-0.41304 0.390209,-0.65625 0.356973,-0.24322 0.766577,-0.67448 0.910486,-0.96875 0.143898,-0.29426 0.627039,-0.80177 1.073073,-1.125 1.402169,-1.01612 0.819666,-1.23576 -1.300695,-0.5 -1.299862,0.45105 -2.15036,0.94066 -2.568871,1.46875 -0.830665,1.04818 -1.285773,1.12143 -0.910486,0.15625 0.375234,-0.965 0.315371,-1.23698 -0.260139,-1.09375 -0.253448,0.06307 -0.419511,-0.09567 -0.390209,-0.34375 0.06181,-0.52322 -0.854015,-0.77935 -2.21118,-0.71875 l 5.7e-5,0 z m -19.250279,5.8125 c -0.356796,0.02192 -0.786358,0.08378 -1.203142,0.1875 -0.833579,0.20745 -1.528285,0.2771 -1.560834,0.15625 -0.03257,-0.12084 -1.00451,0.03314 -2.178663,0.34375 -1.174132,0.3106 -2.142691,0.64212 -2.113629,0.75 0.02903,0.10788 -0.509674,0.29985 -1.203142,0.40625 -0.693489,0.1064 -1.396915,0.3498 -1.560833,0.5625 -0.163919,0.21269 -1.14637,0.71076 -2.211181,1.09375 -2.975771,1.07035 -3.151614,1.20528 -2.081111,1.65625 0.588944,0.24809 1.667521,0.23162 3.154184,0 2.329013,-0.36286 2.625519,0.09898 0.422726,0.65625 -0.697807,0.17655 -1.071325,0.38322 -0.910487,0.53125 0.418751,0.38543 0.09761,0.36982 -1.983559,-0.125 -2.293353,-0.54526 -2.618246,-0.51537 -3.154184,0.46875 -0.515585,0.94672 0.183003,1.71009 1.23566,1.34375 0.390999,-0.13608 0.543857,-0.14266 0.357691,0 -0.526771,0.40367 -0.293541,0.70994 0.682865,0.875 0.994604,0.16814 1.861189,-0.24588 2.536354,-1.1875 0.422663,-0.58947 0.456773,-0.58251 0.422726,0.09375 -0.02685,0.53233 0.09812,0.68262 0.455243,0.59375 0.263937,-0.06569 0.513275,0.0096 0.552795,0.15625 0.03954,0.14668 -0.223022,0.25083 -0.585313,0.25 -0.497812,-0.0011 -0.589631,0.0939 -0.357691,0.40625 0.399303,0.53774 -1.229385,1.31172 -3.381805,1.59375 -0.899561,0.11787 -1.539679,0.33717 -1.495799,0.5 0.04152,0.15421 0.471476,0.17984 0.943003,0.0625 0.975344,-0.24273 1.718083,0.06865 1.918525,0.8125 0.07534,0.27944 0.403142,0.50823 0.715382,0.5 0.312239,-0.0082 1.763284,-0.30439 3.251736,-0.65625 2.383746,-0.56348 2.70969,-0.7098 2.503837,-1.125 -0.194896,-0.39308 -0.635426,-0.36105 -2.601389,0.125 -1.460451,0.36106 -2.533451,0.47969 -2.829011,0.3125 -0.594105,-0.33607 -0.780822,-0.2623 2.763976,-1.25 2.758388,-0.76859 3.870524,-1.31896 2.861528,-1.40625 -0.317244,-0.02744 -0.343685,-0.16062 -0.0975,-0.5625 0.177165,-0.28924 0.447741,-0.55653 0.585313,-0.59375 0.137571,-0.03723 0.474982,-0.49768 0.780416,-1.03125 l 0.552795,-0.96875 -0.97552,0.4375 c -0.848678,0.39244 -0.942463,0.40188 -0.715382,-0.0625 0.159891,-0.32697 0.808251,-0.67152 1.625868,-0.875 0.737171,-0.18345 1.307624,-0.44738 1.268177,-0.59375 -0.03944,-0.14635 0.611597,-0.78925 1.463281,-1.40625 1.476788,-1.0699 1.509826,-1.12274 0.61783,-1.0625 -0.788627,0.05325 -0.649421,-0.05292 0.910486,-0.78125 1.417123,-0.66168 1.74521,-0.92874 1.398247,-1.125 -0.124565,-0.07046 -0.423621,-0.08442 -0.780417,-0.0625 l -5.2e-5,0 z m 46.434793,4.03125 c -0.60188,0.54394 -1.04861,1.02044 -0.81293,0.96875 0.85121,-0.18668 -0.3975,2.7351 -1.98356,4.65625 -1.31708,1.59533 -1.33608,1.64975 -0.87797,2.90625 0.61047,1.67445 1.42097,1.95039 2.40628,0.78125 l 0.71539,-0.84375 0.71538,0.8125 c 0.4002,0.44194 0.78931,0.94791 0.84545,1.15625 0.17527,0.65048 0.75867,0.62504 1.59335,-0.09375 0.48923,-0.42129 0.7472,-0.92183 0.65035,-1.28125 -0.0875,-0.3246 0.0327,-0.71899 0.26014,-0.875 0.52786,-0.362 0.24847,-1.39909 -0.39021,-1.46875 -0.66186,-0.07219 -0.47131,-1.0778 0.42272,-2.71875 -1.11976,-1.38785 -2.30289,-2.71454 -3.54439,-4 l 0,0 z m -54.596651,0.03125 c 0.105013,-0.04506 0.192982,-0.0035 0.227622,0.125 0.0462,0.17139 -0.05921,0.36434 -0.227622,0.40625 -0.168403,0.04191 -0.305944,0.0089 -0.325174,-0.0625 -0.01925,-0.07136 0.08616,-0.23306 0.227622,-0.375 0.03538,-0.03548 0.06254,-0.07873 0.0975,-0.09375 l 5.2e-5,0 z m -8.421997,5.21875 c -0.190349,-0.0016 -0.394797,0.0245 -0.552795,0.0625 -0.457168,0.10995 -0.468104,0.18074 -0.0975,0.4375 0.258079,0.17882 0.71661,0.20506 1.040556,0.03125 0.445784,-0.23917 0.492848,-0.35646 0.130069,-0.46875 -0.130808,-0.04049 -0.329929,-0.06086 -0.520278,-0.0625 l -5.2e-5,0 z m -4.324809,0.21875 c -0.912328,-0.01015 -1.153945,0.09265 -0.455243,0.28125 0.343196,0.09264 0.57703,0.32381 0.520278,0.5 -0.05671,0.1762 0.228318,0.25055 0.61783,0.15625 0.389511,-0.09428 0.940776,-0.09402 1.235659,0 0.749388,0.23894 1.007903,0.10718 0.877969,-0.375 -0.06191,-0.22965 -0.793143,-0.43753 -1.658385,-0.5 -0.440603,-0.03182 -0.833995,-0.05912 -1.138108,-0.0625 l 0,0 z m 51.117294,1.03125 c -0.284488,0.03947 -0.69351,0.20742 -1.365729,0.53125 -1.133103,0.54585 -1.619105,0.64805 -2.016077,0.46875 -0.398678,-0.18006 -0.581462,-0.13732 -0.780417,0.1875 -0.198933,0.32481 -0.129996,0.38644 0.292657,0.28125 0.461278,-0.11479 0.509445,-0.03703 0.292656,0.40625 -0.215894,0.44148 -0.175833,0.51474 0.260139,0.40625 0.344892,-0.08584 0.525075,0.0277 0.48776,0.34375 -0.07721,0.65413 1.641758,0.24201 2.95908,-0.71875 1.202154,-0.87675 1.28878,-1.13404 0.585313,-1.6875 -0.249109,-0.19599 -0.430894,-0.25822 -0.715382,-0.21875 l 0,0 z m -54.303996,0.625 c -0.314643,-6.7e-4 -0.798303,0.1339 -1.073072,0.28125 -0.274749,0.14736 -0.03663,0.14668 0.552795,0 0.589381,-0.14668 0.834931,-0.28058 0.520277,-0.28125 z m 6.893681,0.78125 c -0.252126,-0.0027 -0.577508,0.10412 -1.10559,0.3125 -0.777014,0.30661 -1.44606,0.40692 -1.72342,0.25 -0.305757,-0.17296 -0.243355,-0.06311 0.162587,0.40625 0.46006,0.5319 0.736255,0.63646 1.235659,0.375 0.37767,-0.19773 0.663864,-0.22245 0.715382,-0.03125 0.09646,0.35803 0.726225,0.27336 1.398247,-0.1875 0.340782,-0.23371 0.323613,-0.40733 -0.06504,-0.8125 -0.207351,-0.21614 -0.365703,-0.30983 -0.61783,-0.3125 l 5e-6,0 z m -7.576545,0.09375 c -0.133764,0.01195 -0.297505,0.02665 -0.455243,0.0625 -0.929633,0.2113 -0.968248,0.28054 -0.422726,0.5 0.799865,0.32177 1.722557,0.09989 1.593351,-0.375 -0.04464,-0.16397 -0.314102,-0.22334 -0.715382,-0.1875 z m 77.683983,0.03125 c -0.08,0.02439 -0.21563,0.19742 -0.42273,0.5 -0.25068,0.36622 -0.39973,0.95246 -0.35769,1.3125 0.0808,0.69221 -0.88249,1.24325 -3.99964,2.28125 -1.56709,0.52185 -1.68901,0.44908 -1.1381,-0.5625 0.23924,-0.43932 0.23743,-0.73313 0,-0.8125 -0.20405,-0.06819 -0.52788,-0.3343 -0.71539,-0.59375 -0.5165,-0.71473 -1.51982,0.37042 -1.04055,1.125 0.66295,1.04375 0.68399,1.36421 0.0975,1.6875 -0.74963,0.41324 -2.62531,2.9554 -2.50384,3.40625 0.0504,0.18677 -0.0824,0.38411 -0.29265,0.4375 -0.21023,0.05337 -0.70055,0.39871 -1.1056,0.75 -0.40505,0.35131 -0.96368,0.62343 -1.23565,0.59375 -0.93075,-0.10151 -0.32772,0.58427 0.71538,0.8125 0.68777,0.15048 1.08979,0.44205 1.20314,0.875 0.31603,1.20696 -10e-4,1.54427 -1.88601,1.90625 l -1.75594,0.34375 0.39021,2 c 0.35815,1.82336 0.45811,2.00377 0.97552,1.875 0.31537,-0.07848 0.7985,0.0285 1.07308,0.21875 0.4152,0.28769 0.32227,0.60557 -0.45525,1.875 -0.5752,0.93915 -0.86483,1.78477 -0.7479,2.21875 0.12698,0.47122 -0.0583,0.97866 -0.58531,1.5 -0.43393,0.42917 -1.07877,1.64639 -1.43076,2.71875 -0.56087,1.70869 -0.58032,2.02109 -0.0975,2.59375 0.3276,0.3886 0.63896,1.23642 0.7479,2.09375 0.18063,1.42158 0.21374,1.4698 2.66642,3.15625 1.368,0.94063 2.74842,1.74057 3.05663,1.78125 1.08101,0.14268 3.31405,-0.57412 4.6825,-1.5 1.38113,-0.93445 2.80692,-1.1541 2.9916,-0.46875 0.0451,0.16705 0.56275,0.17444 1.13811,0.03125 1.21917,-0.30341 1.47523,-0.04044 1.46328,1.5 -0.008,1.01131 0.11161,1.25427 1.33321,2.25 1.74335,1.42098 2.70403,3.25251 2.47132,4.8125 -0.23016,1.54293 0.0404,2.46581 1.13811,3.65625 0.50776,0.55062 1.0045,1.31236 1.10559,1.6875 0.0134,0.04987 0.06,0.14347 0.0975,0.21875 1.51991,-5.13902 2.37377,-10.55038 2.37377,-16.15625 0,-5.29871 -0.75046,-10.42583 -2.11363,-15.3125 -0.41564,0.14165 -1.18914,0.23361 -2.01608,0.15625 -2.23477,-0.20905 -3.12518,0.01285 -2.92656,0.75 0.0847,0.31411 0.0592,0.65656 -0.065,0.78125 -0.28689,0.28785 -2.37321,-0.10464 -2.47132,-0.46875 -0.0404,-0.14998 -0.52612,-0.14421 -1.10559,0 -0.98253,0.24452 -1.57296,0.0249 -1.85349,-0.65625 -0.0645,-0.15663 -0.22827,-0.59011 -0.35769,-0.96875 -0.23358,-0.68353 -0.24631,-0.67309 -2.69894,0.15625 -1.35864,0.45942 -2.71336,1.08253 -3.02411,1.40625 -0.31076,0.32372 -1.00485,0.71347 -1.52832,0.84375 -0.74123,0.18446 -0.94701,0.10832 -0.97552,-0.3125 -0.0202,-0.29719 0.25836,-0.65577 0.65035,-0.8125 1.138,-0.45502 1.92906,-1.48686 1.72342,-2.25 -0.11227,-0.41663 0.0742,-0.97188 0.45524,-1.375 0.34957,-0.36987 0.57936,-0.8433 0.52028,-1.0625 -0.0716,-0.26571 0.23104,-0.47499 0.943,-0.625 0.58739,-0.12375 1.2432,-0.43746 1.43077,-0.6875 0.39247,-0.52312 1.26113,-0.50375 1.65838,0.03125 0.14937,0.20114 0.89785,0.56861 1.69091,0.8125 1.69649,0.52171 2.33125,1.61502 0.943,1.625 -0.93957,0.0068 -0.96466,0.34422 -0.065,0.6875 0.5188,0.19798 0.66534,0.11758 0.97552,-0.5625 0.20346,-0.44603 0.34029,-0.97949 0.29266,-1.15625 -0.20407,-0.75735 1.33207,-0.60365 2.30873,0.21875 1.23676,1.0414 1.77288,0.79976 1.26818,-0.5625 -0.33186,-0.89572 -0.31449,-1.03784 0.35769,-1.34375 0.65572,-0.29842 0.84722,-0.23789 1.20314,0.46875 0.31216,0.61979 0.79381,0.98213 1.46329,1.125 -1.54873,-4.35516 -3.60461,-8.48227 -6.11327,-12.3125 -0.15244,-0.03107 -0.29995,-0.19199 -0.35769,-0.40625 -0.0263,-0.09763 -0.0406,-0.16717 -0.065,-0.21875 -0.005,-0.0074 0.005,-0.02389 0,-0.03125 -0.0283,-0.05126 -0.0576,-0.0747 -0.0975,-0.0625 l -1.1e-4,0 z m -58.271118,0.15625 c -0.453567,-0.03057 -0.984043,0.04527 -1.788455,0.21875 -3.075091,0.6632 -3.665045,0.87885 -3.934601,1.53125 -0.302499,0.73213 -0.01602,2.01545 0.422726,1.90625 0.168404,-0.0419 0.31662,0.08281 0.325174,0.28125 0.0083,0.19845 0.365256,0.37721 0.812934,0.375 0.959767,-0.0047 1.417497,0.7057 1.138108,1.8125 -0.253594,1.00456 -0.737255,1.14831 -0.845452,0.25 -0.06972,-0.57886 -0.212481,-0.6611 -0.910486,-0.4375 -0.545137,0.17462 -0.867844,0.12269 -0.943004,-0.15625 -0.06274,-0.23276 -0.221815,-0.38565 -0.390208,-0.34375 -0.168403,0.04191 -0.373362,-0.1649 -0.455243,-0.46875 -0.08189,-0.30386 -0.408491,-0.67391 -0.715382,-0.8125 -0.801342,-0.36193 -0.993574,-1.32556 -0.292656,-1.5 0.316183,-0.07869 0.693894,-0.37758 0.845451,-0.6875 0.340824,-0.69694 -0.288254,-0.98872 -1.528316,-0.6875 -1.045186,0.25387 -1.416799,1.01408 -0.910486,1.90625 0.267912,0.47206 0.275404,0.88468 0.03247,1.28125 -0.524232,0.85589 -0.253032,1.38173 0.682865,1.375 0.794402,-0.0057 1.497682,1.04834 0.812934,1.21875 -0.168393,0.04191 -0.260513,0.28849 -0.195104,0.53125 0.06545,0.24276 0.0104,0.46507 -0.13007,0.5 -0.376108,0.0936 -0.584469,-0.90956 -0.260138,-1.25 0.183574,-0.19269 0.02976,-0.38983 -0.422726,-0.5625 -0.52443,-0.20012 -0.816878,-0.13162 -1.300695,0.25 -0.727567,0.57388 -0.743341,0.9894 -0.03246,0.8125 0.266632,-0.06635 0.441029,0.06085 0.422726,0.28125 -0.0513,0.61712 -2.748722,1.16884 -3.544393,0.71875 -0.620681,-0.3511 -0.611076,-0.3818 0.422726,-0.4375 0.936646,-0.05045 1.059233,-0.1245 0.780417,-0.5 -0.21268,-0.28642 -0.162931,-0.48958 0.130069,-0.5625 0.718316,-0.17876 0.361832,-0.64728 -0.422726,-0.5625 -0.818345,0.08844 -2.415566,-1.52329 -2.081111,-2.09375 0.305788,-0.52153 0.127739,-0.84764 -0.390208,-0.71875 -0.252595,0.06286 -0.401301,0.27567 -0.357691,0.4375 0.0436,0.16182 -0.150485,0.3385 -0.422726,0.40625 -0.344237,0.08567 -0.416742,0.27468 -0.195104,0.65625 0.41513,0.71461 0.214958,0.76617 -0.715382,0.125 -0.414204,-0.28546 -0.731937,-0.36056 -0.682865,-0.15625 0.112745,0.4694 -1.83323,0.8313 -2.178663,0.40625 -0.174699,-0.21495 -0.514086,-0.06529 -1.170625,0.46875 -1.259031,1.02413 -1.229541,1.58101 0.06504,1.3125 0.72611,-0.15061 0.851029,-0.11674 0.390208,0.09375 -1.2159,0.55537 -0.520018,0.83397 1.073073,0.4375 0.87005,-0.21653 1.491949,-0.24659 1.398247,-0.09375 -0.09365,0.15283 -0.604927,0.36731 -1.138108,0.5 -1.216368,0.30271 -1.430431,0.96965 -0.260139,0.8125 0.476887,-0.06404 0.902287,0.0052 0.943004,0.15625 0.09916,0.36789 1.994661,-0.14631 2.926562,-0.78125 0.410489,-0.27967 0.855181,-0.44308 0.975521,-0.375 0.12033,0.06806 -0.07783,0.28372 -0.422726,0.46875 -0.505678,0.2713 -0.537197,0.47213 -0.227621,1.0625 0.282531,0.53874 0.276954,0.62893 -0.03247,0.375 -0.287255,-0.23569 -0.918384,-0.18089 -1.951041,0.125 -1.3891,0.41147 -1.497266,0.3718 -1.495799,-0.21875 0.001,-0.56076 -0.130839,-0.58633 -1.10559,-0.34375 -0.614438,0.15292 -1.668136,0.18647 -2.34125,0.09375 -0.818449,-0.11275 -1.337864,-0.03511 -1.528316,0.21875 -0.1901,0.25336 -0.434568,0.30225 -0.7479,0.125 -0.36895,-0.2087 -0.501756,-0.1729 -0.61783,0.1875 -0.114565,0.35571 -0.307463,0.31389 -0.845451,-0.125 -0.455202,-0.37137 -0.726225,-0.40881 -0.812934,-0.15625 -0.07263,0.21165 -0.603783,0.55083 -1.170625,0.78125 -1.368362,0.55626 -2.255155,1.02759 -2.601389,1.375 -0.2422,0.24303 -1.516183,0.30564 -3.511875,0.15625 -0.275082,-0.02059 -1.067975,0.07315 -1.755938,0.1875 -2.735693,0.45475 -3.871449,0.58136 -4.162222,0.5 -0.167384,-0.04684 -0.897209,-0.0316 -1.625868,0.03125 -1.412014,0.12175 -3.450452,1.40823 -3.999636,2.53125 -0.148987,0.30465 -0.492308,0.61578 -0.780417,0.6875 -0.288109,0.0717 -0.604573,0.21592 -0.682864,0.34375 -0.178726,0.29182 2.722468,1.32284 3.349288,1.1875 0.34175,-0.07379 0.334383,0.02662 -0.03247,0.375 -0.359554,0.3414 -0.65708,0.41687 -1.105591,0.28125 -0.450893,-0.13635 -0.841674,-0.04637 -1.463281,0.375 -1.467412,0.99472 -0.625416,1.55998 1.72342,1.125 1.77781,-0.32923 2.146906,0.06047 0.812934,0.875 -0.504846,0.30826 -1.09072,0.8134 -1.300694,1.15625 -0.357774,0.58415 -0.345475,0.66953 0.325173,0.9375 0.439229,0.17553 0.569621,0.30804 0.325174,0.375 -0.219058,0.06 -0.291657,0.22626 -0.130069,0.375 0.161598,0.14874 0.626653,0.14234 1.008038,-0.03125 0.53369,-0.24288 0.729575,-0.18008 0.845451,0.25 0.107843,0.40022 0.330533,0.47603 0.812934,0.3125 1.528733,-0.51825 2.046752,-0.4904 1.983559,0.09375 -0.0771,0.71247 -0.613282,1.33501 -2.601389,3 -2.157217,1.8066 -1.726739,1.85481 0.585313,0.0625 2.112859,-1.63787 4.038979,-3.7107 3.902083,-4.21875 -0.05047,-0.18712 0.200516,-0.77495 0.552796,-1.28125 0.35228,-0.50633 0.535688,-0.64334 0.390208,-0.3125 -0.315601,0.71766 0.200369,1.3785 0.585313,0.75 0.135667,-0.22149 0.477282,-0.45581 0.780416,-0.53125 0.303114,-0.07543 0.520663,-0.35099 0.455243,-0.59375 -0.153804,-0.5708 0.292417,-0.64127 1.398247,-0.28125 0.559382,0.18212 1.199355,0.11878 1.72342,-0.125 0.606935,-0.28232 1.131604,-0.24796 2.016077,0.09375 0.665986,0.25731 1.439629,0.41438 1.72342,0.34375 0.582149,-0.14488 3.135454,1.51018 3.739496,2.4375 0.217778,0.33435 0.513796,0.57333 0.682865,0.53125 0.71482,-0.1779 2.297162,1.31162 1.593351,1.5 -0.6966,0.18646 1.467433,0.88004 2.243698,0.71875 0.42541,-0.0884 0.637652,-0.07932 0.48776,0.03125 -0.151598,0.11182 0.01987,1.27688 0.390209,2.625 0.656934,2.39127 1.277531,3.70472 1.72342,3.59375 0.125626,-0.03126 0.54804,0.33206 0.910486,0.8125 0.390614,0.51778 1.040816,0.93859 1.625868,1.03125 0.59807,0.09472 1.148451,0.43012 1.398247,0.875 0.226747,0.40381 0.829572,1.04477 1.333212,1.4375 0.503618,0.39272 0.900184,0.90361 0.877968,1.125 -0.02227,0.2214 0.184439,0.34865 0.455243,0.28125 0.270795,-0.06739 0.696392,0.16572 0.943004,0.5 0.514763,0.69779 1.588887,1.26333 1.788455,0.9375 0.07419,-0.1212 -0.144502,-0.39958 -0.487761,-0.59375 -0.343248,-0.19415 -0.657142,-0.49847 -0.715382,-0.6875 -0.05827,-0.18902 -0.651367,-0.68871 -1.300694,-1.125 -1.180802,-0.79337 -1.66159,-1.48663 -1.10559,-1.625 0.162472,-0.04044 0.551067,0.18471 0.845451,0.5 0.294394,0.31528 1.570511,1.24315 2.829011,2.0625 1.25851,0.81936 2.405858,1.78111 2.568871,2.15625 0.516834,1.1893 4.147072,1.95464 6.210816,1.3125 0.437866,-0.13625 1.110086,-0.05633 1.495799,0.1875 0.378481,0.23927 1.227294,0.40104 1.918525,0.34375 0.932681,-0.07729 1.431835,0.07177 1.918524,0.59375 0.610255,0.65448 1.878484,1.26339 2.633906,1.25 0.17883,-0.0032 0.594126,0.05124 0.910486,0.125 0.411041,0.09583 0.572535,-0.02271 0.61783,-0.40625 0.05515,-0.46732 0.166739,-0.4923 0.650348,-0.21875 0.83952,0.4749 1.470544,1.91612 1.10559,2.53125 -0.527406,0.88895 -1.196795,2.72411 -1.10559,3.0625 0.04776,0.17732 0.354319,0.25592 0.650347,0.1875 0.512598,-0.11847 0.498364,-0.10013 0.06503,0.3125 -0.619703,0.59011 -0.376016,1.27686 0.812934,2.28125 0.54986,0.46449 1.476902,1.41496 2.048593,2.09375 0.673843,0.80003 1.510627,1.35956 2.373768,1.625 1.625462,0.49988 2.337025,0.95063 2.536354,1.65625 0.415494,1.47092 1.094259,8.111089 0.943004,9.124999 -0.205146,1.37525 0.405504,5.1014 0.812934,5 0.154949,-0.0386 0.260992,0.21885 0.260139,0.5625 -8.54e-4,0.34365 -0.109123,0.57616 -0.260139,0.53125 -0.150995,-0.0449 -0.387305,0.13432 -0.520278,0.40625 -0.185177,0.37865 -0.09271,0.58898 0.357691,0.84375 0.36948,0.209 0.450446,0.38142 0.260139,0.5 -0.204043,0.1271 0.02789,0.72117 0.715382,1.8125 0.56139,0.89113 1.040441,1.72049 1.040555,1.84375 1.15e-4,0.12327 0.160184,0.13545 0.357691,0 0.197529,-0.13546 0.897875,0.0192 1.560834,0.375 0.728722,0.39111 1.368913,0.55121 1.625868,0.375 0.314373,-0.2156 0.436367,-0.15446 0.422726,0.28125 -0.01176,0.37394 0.04578,0.32133 0.162586,-0.15625 0.101247,-0.41374 0.35843,-0.78728 0.585313,-0.84375 0.226862,-0.0564 0.368783,-0.24441 0.325174,-0.40625 -0.0436,-0.16183 -0.261263,-0.24387 -0.487761,-0.1875 -1.018485,0.25347 -2.800114,-1.89983 -2.016076,-2.4375 0.226414,-0.15528 0.387284,-0.48823 0.325173,-0.71875 -0.06212,-0.23052 0.06514,-0.53147 0.292657,-0.6875 0.560162,-0.38416 0.305881,-1.11987 -0.455243,-1.34375 -0.576052,-0.16944 -0.586593,-0.21732 -0.06503,-0.8125 0.309222,-0.35286 0.500996,-0.89707 0.422726,-1.1875 -0.07825,-0.29045 0.01041,-0.63447 0.195104,-0.78125 0.269181,-0.21352 0.245633,-0.28263 -0.0975,-0.34375 -0.690482,-0.12297 -0.591098,-0.49572 0.162586,-0.65625 0.477501,-0.10172 0.668256,-0.34793 0.61783,-0.78125 -0.05421,-0.46638 0.241097,-0.81031 1.138108,-1.25 1.091501,-0.53502 1.186056,-0.68075 1.040556,-1.5625 -0.118499,-0.718089 0.0083,-1.021848 0.422725,-1.124999 0.311158,-0.07744 0.8077,-0.645868 1.105591,-1.28125 0.29789,-0.63538 0.839593,-1.675581 1.203142,-2.3125 0.438345,-0.76794 0.584699,-1.46138 0.422726,-2.0625 -0.215322,-0.79906 -0.09573,-1.04611 1.040555,-1.90625 0.70892,-0.53665 1.470493,-1.09895 1.690903,-1.28125 0.570225,-0.47165 0.973107,-2.58876 0.780417,-4.09375 -0.166916,-1.30368 0.07627,-2.44098 0.812934,-3.65625 0.519903,-0.85768 0.04724,-2.14092 -0.877969,-2.34375 -0.381946,-0.08373 -1.121053,-0.29686 -1.625868,-0.46875 -0.504815,-0.17189 -1.44708,-0.23702 -2.081111,-0.125 -0.634031,0.11203 -1.172072,0.11396 -1.203143,0 -0.03111,-0.11396 -0.531411,-0.16148 -1.10559,-0.125 -0.574168,0.03647 -1.278905,-0.06214 -1.593351,-0.1875 -0.575416,-0.22939 -1.408152,-1.07035 -1.430764,-1.46875 -0.0256,-0.4506 -1.973923,-1.01721 -2.796493,-0.8125 -0.473806,0.11792 -1.273598,-0.02084 -1.788455,-0.28125 -2.036169,-1.02994 -2.959975,-1.21847 -4.357326,-0.9375 -2.58114,0.51898 -3.400328,0.60317 -3.316771,0.34375 0.11495,-0.35691 -0.318931,-0.21347 -1.333212,0.4375 -0.47619,0.30563 -0.893151,0.81653 -0.910486,1.125 -0.02518,0.44836 -0.351385,0.61033 -1.593351,0.875 -1.974694,0.42084 -2.727348,0.04428 -3.056632,-1.5625 -0.215791,-1.05296 -0.342228,-1.19276 -1.073073,-1.1875 -0.454921,0.0033 -0.99013,0.13517 -1.203142,0.28125 -0.550548,0.37757 -0.83077,0.11392 -0.7479,-0.6875 0.03933,-0.38059 0.07294,-1.0583 0.06503,-1.53125 -0.01321,-0.79529 -0.08106,-0.83951 -0.943004,-0.625 -0.712354,0.17728 -0.969621,0.41361 -1.040555,1.03125 -0.05099,0.44442 -0.277277,0.84578 -0.520278,0.90625 -0.243001,0.06047 -0.643823,0.24567 -0.877969,0.40625 -0.259046,0.17765 -0.795785,0.05861 -1.398246,-0.3125 -0.880321,-0.54225 -1.056456,-0.83033 -1.495799,-2.65625 -0.576884,-2.3976 -0.45644,-2.60976 2.34125,-3.75 1.617492,-0.65924 2.356536,-0.89246 3.869566,-1.1875 0.323748,-0.06314 0.889363,0.36614 1.463282,1.0625 0.52394,0.63572 1.122832,1.10677 1.300694,1.0625 0.436055,-0.10852 0.34356,-0.2859 -0.715382,-1.78125 l -0.910486,-1.3125 1.268177,-1.8125 c 0.843745,-1.19852 1.156609,-1.85461 0.877969,-1.9375 -0.631669,-0.1879 -0.867626,-1.3475 -0.260139,-1.28125 0.30148,0.03288 0.659899,-0.3393 0.910486,-0.96875 0.22528,-0.56593 0.717609,-1.17164 1.10559,-1.375 0.533733,-0.27975 0.61191,-0.51718 0.357691,-0.90625 -0.262625,-0.40194 -0.105658,-0.66738 0.650348,-1.21875 0.989839,-0.72191 0.938633,-1.1337 -0.162587,-1.96875 -0.329919,-0.25019 -0.327182,-0.30212 -0.03247,-0.21875 0.485669,0.13741 2.149195,-0.90787 2.048594,-1.28125 -0.104555,-0.38804 -0.874972,-0.12855 -1.951041,0.65625 -0.633251,0.46185 -0.842278,0.80403 -0.650348,1.0625 0.157374,0.21195 0.185823,0.50381 0.06503,0.625 -0.120777,0.12121 -0.302448,-0.04934 -0.390208,-0.375 -0.09032,-0.33518 0.251138,-1.10873 0.780416,-1.78125 0.835619,-1.06173 1.097589,-1.19569 2.406285,-1.34375 1.696002,-0.19188 3.865779,-1.73185 3.641945,-2.5625 -0.143524,-0.53265 -1.88658,-1.45802 -2.47132,-1.3125 -0.462548,0.11511 -1.395322,-0.49432 -1.658385,-1.09375 -0.512026,-1.1667 -2.987196,-2.25725 -2.698941,-1.1875 0.191628,0.71117 -0.957572,1.11051 -1.625868,0.5625 -0.32686,-0.26803 -0.576385,-0.64183 -0.552796,-0.84375 0.06899,-0.591 -2.887469,-1.11871 -4.032153,-0.71875 -0.963367,0.3366 -0.987175,0.40271 -0.617829,1.40625 0.212502,0.57739 0.259077,1.18167 0.0975,1.34375 -0.201057,0.20173 -0.01363,0.44901 0.585312,0.8125 0.748087,0.45397 0.844609,0.66908 0.715382,1.375 -0.08314,0.45412 -0.361635,0.87374 -0.61783,0.9375 -0.550537,0.13701 -0.491756,0.534 0.195104,1.25 0.390719,0.4073 0.446586,0.66129 0.162587,1.125 -0.332051,0.54214 -0.419531,0.55165 -1.008038,0.21875 -0.353341,-0.19987 -0.745683,-0.75905 -0.877969,-1.25 -0.213876,-0.79373 -0.378606,-0.89184 -1.398246,-0.8125 -0.630671,0.04908 -1.669416,-0.05159 -2.308733,-0.21875 -0.639307,-0.16715 -1.507162,-0.19612 -1.918525,-0.09375 -0.411373,0.10238 -0.77103,0.06177 -0.812934,-0.09375 -0.04193,-0.15553 -0.453505,-0.48074 -0.910486,-0.71875 -0.79923,-0.41625 -0.837116,-0.47601 -0.61783,-1.5625 0.125377,-0.62123 0.495013,-1.30814 0.812934,-1.5 0.317911,-0.19186 0.517125,-0.5203 0.455244,-0.75 -0.06191,-0.22967 0.335964,-0.76097 0.877968,-1.15625 0.620317,-0.45242 0.881975,-0.83817 0.715382,-1.0625 -0.294779,-0.39698 1.076403,-1.87252 1.593351,-1.71875 0.177321,0.05275 0.509976,-0.02433 0.747899,-0.1875 0.335861,-0.23033 0.305102,-0.62182 -0.0975,-1.6875 l -0.520277,-1.375 1.008038,-0.125 c 0.557259,-0.08376 1.207544,-0.20548 1.430764,-0.25 0.22322,-0.04453 0.346775,0.05067 0.292656,0.21875 -0.05411,0.16806 0.182711,0.34173 0.48776,0.375 0.504233,0.055 0.505128,0.1153 0.0975,0.59375 -0.277474,0.32573 -0.311563,0.64676 -0.0975,0.84375 0.259161,0.23853 0.40948,0.09829 0.682865,-0.53125 0.338514,-0.77951 0.41693,-0.80034 1.008038,-0.46875 0.592534,0.33241 0.600297,0.40096 0.195104,1.0625 -0.239546,0.3911 -0.339294,0.83445 -0.227621,1 0.115137,0.17068 -0.200786,0.4635 -0.747899,0.65625 -1.399797,0.49316 -1.319976,1.19652 0.0975,0.84375 0.678421,-0.16883 1.58822,-0.09801 2.276215,0.15625 1.071887,0.39615 3.136339,0.67887 3.772014,0.53125 0.156312,-0.0363 -0.159673,-0.33129 -0.682865,-0.65625 -0.900965,-0.55958 -0.913826,-0.56513 -0.195104,-0.40625 1.828933,0.4043 1.770901,-0.62372 -0.0975,-1.71875 -1.038953,-0.60892 -1.13304,-0.75489 -0.650347,-0.875 0.31688,-0.07887 0.951286,0.04614 1.398247,0.28125 l 0.812934,0.40625 0.520277,-0.90625 c 0.512953,-0.90066 0.497657,-0.91053 -0.195104,-1.1875 -0.388928,-0.1555 -0.891423,-0.26656 -1.10559,-0.21875 -0.214167,0.04781 -0.642689,0.04601 -0.975521,-0.03125 -0.332843,-0.07725 -0.885367,-0.16969 -1.23566,-0.1875 -0.610254,-0.031 -0.623365,-0.06403 -0.0975,-0.65625 0.614656,-0.69229 0.364944,-1.15782 -0.520278,-0.9375 -0.320938,0.07987 -0.821175,-0.0499 -1.073073,-0.3125 -0.251918,-0.26258 -0.916375,-0.44136 -1.495798,-0.40625 -0.579402,0.0351 -1.640956,-0.22137 -2.34125,-0.5625 -0.542484,-0.26427 -0.912162,-0.40693 -1.36573,-0.4375 l -2.52e-4,0 z m -9.169896,0.03125 c -0.08064,-0.0058 -0.188122,0.01992 -0.292656,0.03125 -0.540173,0.05856 -0.674957,0.20286 -0.552795,0.65625 0.126583,0.46974 0.294466,0.53135 0.715382,0.25 0.672781,-0.44969 0.694841,-0.89663 0.130069,-0.9375 l 0,0 z m -8.291927,0.875 c -0.06618,0.0094 -0.131808,0.01909 -0.195105,0.0625 -0.293748,0.20145 -0.272542,0.38237 0.03247,0.59375 0.631555,0.4376 -0.160589,0.85465 -1.008038,0.53125 -0.380396,-0.14515 -1.27285,-0.14562 -1.98356,0.03125 -1.058016,0.2633 -1.254358,0.43897 -1.073073,0.84375 0.147957,0.33039 0.50211,0.42352 1.040556,0.28125 0.493765,-0.13047 0.842319,-0.06549 0.910486,0.1875 0.08366,0.31039 0.332655,0.30461 1.040556,-0.03125 0.517801,-0.24568 1.427673,-0.6209 2.016076,-0.8125 0.588382,-0.19162 1.227856,-0.4853 1.398247,-0.65625 0.453089,-0.45462 -0.04911,-0.7775 -0.682865,-0.4375 -0.371634,0.19939 -0.664093,0.12707 -0.910486,-0.25 -0.168185,-0.25739 -0.38665,-0.37204 -0.585312,-0.34375 l 4.8e-5,0 z m 13.787361,0.03125 c 0.09521,-0.03146 0.13751,0.17545 0.195104,0.6875 0.117188,1.04196 0.0021,1.21024 -0.455243,0.59375 -0.170734,-0.22994 -0.183522,-0.66913 0,-0.96875 0.110112,-0.17978 0.203023,-0.29362 0.260139,-0.3125 z m -18.079653,0.25 c -0.449208,0.05291 -1.19614,0.43881 -1.951042,1.03125 -1.249249,0.98037 -1.257158,1.21399 0,0.9375 0.526344,-0.11576 1.051065,-0.16138 1.170625,-0.09375 0.367503,0.20788 0.397961,0.10436 0.06503,-0.46875 -0.258027,-0.44418 -0.183679,-0.54777 0.390208,-0.625 0.391696,-0.05269 0.727713,-0.27913 0.747899,-0.5 0.01998,-0.21904 -0.153201,-0.313 -0.422725,-0.28125 l 5e-6,0 z m 11.185972,1 c -0.07773,-0.0017 -0.1755,0.0021 -0.292656,0.03125 -0.334362,0.08321 -0.796784,0.30156 -1.040555,0.46875 -0.365881,0.25091 -0.359242,0.35838 0.06503,0.65625 0.443298,0.31123 0.406212,0.37426 -0.227621,0.375 -0.404173,4.6e-4 -0.721563,0.10639 -0.682865,0.25 0.03871,0.14359 0.462121,0.25323 0.910486,0.25 0.448355,-0.0032 0.834411,0.11965 0.877969,0.28125 0.0436,0.16161 0.280367,0.16453 0.520278,0 0.2399,-0.16452 0.560755,-0.33652 0.715382,-0.375 0.154616,-0.03848 0.227996,-0.25725 0.162587,-0.5 -0.06545,-0.24275 -0.275498,-0.38848 -0.455243,-0.34375 -0.187477,0.04666 -0.313176,-0.19716 -0.292657,-0.5625 0.02071,-0.36818 -0.02685,-0.52614 -0.260139,-0.53125 l 4e-6,0 z m 54.011341,0.65625 c -0.20056,0.06959 -0.44051,0.27299 -0.61783,0.5625 -0.3999,0.65292 0.28635,1.96087 1.04055,2 0.87296,0.04529 1.22307,0.7426 0.65035,1.25 -0.32491,0.28788 -0.37419,0.60448 -0.16259,0.96875 0.17691,0.30453 0.19068,0.83094 0.0325,1.15625 -0.25952,0.53381 -0.19586,0.53994 0.58531,0.15625 0.47607,-0.23382 1.28226,-0.61242 1.78846,-0.84375 1.32538,-0.60571 1.21746,-1.52514 -0.26014,-2.375 -1.5095,-0.86823 -2.08983,-1.44623 -1.75594,-1.78125 0.38926,-0.39059 0.1952,-0.84825 -0.32517,-0.71875 -0.2526,0.06286 -0.50919,0.0056 -0.5528,-0.15625 -0.0562,-0.2085 -0.22217,-0.28834 -0.42272,-0.21875 l 2e-5,0 z m -64.969692,1.78125 c -0.10135,0.0046 -0.202742,0.0075 -0.292656,0.03125 -0.359668,0.09502 -1.329716,0.25241 -2.178663,0.34375 -1.45068,0.15611 -1.541323,0.20202 -1.105591,0.65625 0.33739,0.3517 0.396712,0.66834 0.195105,1.15625 -0.240462,0.58202 -0.172764,0.70662 0.390208,1.0625 0.878135,0.55513 1.314107,0.38178 2.081111,-0.78125 0.357379,-0.5419 1.005281,-1.19261 1.430764,-1.46875 0.613449,-0.39812 0.655103,-0.56135 0.292656,-0.8125 -0.188559,-0.13065 -0.50879,-0.20119 -0.812934,-0.1875 z m 64.546962,1.15625 c -0.55482,0.13808 -1.67676,1.21296 -1.59335,1.53125 0.0496,0.18938 0.0658,0.59357 0.0325,0.875 -0.0468,0.39615 0.13795,0.45732 0.84545,0.28125 0.5026,-0.12507 1.00163,-0.44577 1.10559,-0.6875 0.23668,-0.55033 -0.0643,-2.0811 -0.39021,-2 l 2e-5,0 z m 12.38912,3.84375 c 0.18967,-0.03138 0.51601,0.08452 0.97552,0.375 0.41208,0.26051 1.19787,0.57251 1.72342,0.6875 0.55311,0.12102 1.01497,0.44499 1.10559,0.78125 0.0861,0.31952 0.0322,0.60634 -0.0975,0.625 -1.0923,0.15706 -3.62112,-1.10487 -3.83705,-1.90625 -0.0946,-0.35086 -0.0596,-0.53112 0.13007,-0.5625 l -5e-5,0 z m -54.986862,11.5 c 0.378169,0.01843 0.883286,0.20316 1.463281,0.53125 0.636009,0.35978 1.348415,0.59221 1.593351,0.53125 0.763914,-0.19011 1.073073,0.64055 0.650347,1.8125 -0.2966,0.82231 -0.401217,0.9258 -0.390208,0.40625 0.0094,-0.43643 -0.144169,-0.67813 -0.357691,-0.625 -0.208101,0.0518 -0.314092,-0.14979 -0.292656,-0.53125 0.02456,-0.43627 -0.119675,-0.60667 -0.422726,-0.53125 -0.654645,0.16292 -0.969402,1.04333 -0.650347,1.78125 0.189017,0.43719 0.115408,0.71588 -0.227622,0.875 -0.406243,0.18843 -0.559236,0.03959 -0.780416,-0.78125 -0.208913,-0.77528 -0.120611,-1.22215 0.390208,-1.84375 0.372134,-0.45283 0.465159,-0.6733 0.195104,-0.5 -0.270045,0.17331 -0.749346,0.19402 -1.040556,0.0625 -0.403579,-0.18227 -0.669066,-0.10551 -1.10559,0.28125 -0.414151,0.36692 -0.670929,0.4223 -0.975521,0.25 -0.231648,-0.13103 -0.301095,-0.24679 -0.162587,-0.28125 0.138488,-0.03447 0.0062,-0.22145 -0.260138,-0.40625 -0.415016,-0.28757 -0.311782,-0.33401 0.552795,-0.3125 0.605083,0.01508 1.044582,-0.09186 1.10559,-0.28125 0.09511,-0.29519 0.337213,-0.45593 0.715382,-0.4375 z m -20.941181,3.90625 c 0.171004,-0.04256 0.422975,0.09388 0.585312,0.3125 0.162348,0.21863 0.253386,0.42298 0.195104,0.4375 -0.05827,0.01451 -0.310273,-0.12191 -0.585312,-0.3125 -0.288245,-0.19973 -0.374319,-0.39289 -0.195104,-0.4375 z m 32.062119,8.09375 c -0.04859,0.03301 -0.04464,0.14689 0,0.3125 0.06691,0.24815 0.235592,0.5063 0.390208,0.59375 0.154585,0.08745 0.310762,-0.01656 0.325174,-0.21875 0.01436,-0.20216 -0.186873,-0.46035 -0.422726,-0.59375 -0.157405,-0.08904 -0.244031,-0.12676 -0.292656,-0.09375 l 0,0 z m -0.422726,1.75 c -0.882942,-0.07643 -2.378741,0.42924 -2.763976,0.9375 -0.439998,0.58055 -0.08584,0.69327 0.520278,0.15625 0.666819,-0.59079 2.841362,-0.56788 3.674462,0.03125 0.622991,0.44803 1.620478,0.35403 2.146146,-0.1875 0.267267,-0.27533 -1.606836,-0.76696 -3.57691,-0.9375 l 0,0 z m 5.820608,0.40625 c -0.305913,0.01348 -0.585104,0.03705 -0.812934,0.09375 -0.50546,0.12579 -0.632803,0.31082 -0.422726,0.59375 0.193232,0.26021 0.105211,0.44452 -0.260139,0.5625 -0.306974,0.09913 -0.06368,0.14 0.552796,0.09375 1.336364,-0.10025 3.079888,-0.70357 2.991597,-1.03125 -0.06139,-0.22778 -1.130865,-0.35295 -2.048594,-0.3125 l 0,0 z m 3.316771,0.03125 c -0.05889,-0.0013 -0.131953,0.01553 -0.195104,0.03125 -0.252595,0.06286 -0.433818,0.24441 -0.390208,0.40625 0.0436,0.16183 0.300179,0.25036 0.552795,0.1875 0.252595,-0.06287 0.433828,-0.24441 0.390208,-0.40625 -0.03267,-0.12137 -0.180921,-0.21491 -0.357691,-0.21875 z m -6.763611,1.6875 c -0.06108,-7.4e-4 -0.129466,0.01491 -0.195104,0.03125 -0.262533,0.06533 -0.34278,0.23907 -0.195105,0.375 0.147697,0.13594 0.394319,0.19568 0.552796,0.15625 0.158466,-0.03944 0.238713,-0.21316 0.195104,-0.375 -0.03267,-0.12138 -0.174439,-0.18527 -0.357691,-0.1875 z m -38.110349,8.625 c -0.05713,0.05292 -0.03663,0.21197 0.03246,0.46875 0.114805,0.42604 0.29891,0.54016 0.585313,0.34375 0.227496,-0.15602 0.401987,-0.33122 0.390208,-0.375 -0.01176,-0.04379 -0.278421,-0.20515 -0.585312,-0.34375 -0.232866,-0.10518 -0.3656,-0.14667 -0.422726,-0.09375 l 5.7e-5,0 z m 73.424201,29.406249 c -12.640177,3.15091 -26.194298,6.51446 -36.126786,9 -26.545697,6.64285 -5.911438,1.5369 35.964206,-8.875 0.0507,-0.0454 0.1121,-0.0795 0.16258,-0.125 l 0,0 z m -19.120206,3.25 c -0.189776,-7.8e-4 -0.421924,0.10103 -0.61783,0.28125 -0.406784,0.37425 -0.364381,0.40159 0.325174,0.1875 0.442517,-0.1374 0.636706,-0.33471 0.455243,-0.4375 -0.04537,-0.0257 -0.09937,-0.031 -0.162587,-0.0312 l 0,-5e-5 z m -4.389844,0.28125 c -0.113066,0.022 -0.103743,0.11028 0,0.25 0.143826,0.19368 0.513348,0.34217 0.812934,0.34375 1.374616,0.007 1.341152,-0.21288 -0.06503,-0.5 -0.401176,-0.0819 -0.634833,-0.11572 -0.7479,-0.0937 l -4e-6,-5e-5 z"
         id="path3660"
         style="fill:url(#linearGradient3633);fill-opacity:1" />
      <path
         d="M 60.727443,5.340902 C 57.614542,5.6482246 54.564793,6.1147024 52.552837,6.6178781 37.615161,10.353679 25.240696,18.503895 16.640818,30.287962 8.0282734,42.089385 3.9935821,56.752091 5.5196011,70.79353 6.8213636,82.771585 11.52367,93.726766 19.150447,102.63134 c 11.369378,13.27418 27.66134,20.99117 45.588274,21.59565 4.133764,0.13936 9.69626,-0.31909 14.040083,-1.16565 22.483986,-4.38174 40.719716,-20.52881 47.218916,-41.833543 1.79447,-5.882443 2.41823,-10.144696 2.5017,-16.897114 0.0571,-4.624627 0.0132,-5.175096 -0.80208,-9.663654 -0.47643,-2.623234 -1.14415,-5.639518 -1.4701,-6.711163 -0.81091,-2.666183 -2.78223,-7.749086 -3.83771,-9.820989 -2.37619,-4.664566 -6.65619,-10.6628 -10.08747,-14.182988 C 100.90073,12.255177 85.762574,5.5863693 69.261348,4.97878 67.014561,4.8960521 63.840345,5.0335794 60.727443,5.340902 z m 0.732061,0.4745434 c 0.423002,-0.020709 0.694606,0.023288 0.703508,0.1305299 0.01337,0.1611034 -0.179578,0.323679 -0.443089,0.351681 -0.263499,0.028023 -1.629917,0.530792 -3.023016,1.1326833 -1.393122,0.601893 -2.749997,1.2193772 -3.004849,1.3516013 -1.144424,0.5937384 -0.148945,-0.9083913 1.287853,-1.9333097 0.609352,-0.4346878 3.210584,-0.9710622 4.479593,-1.0331858 l 0,0 z M 54.84319,6.9000692 55.60145,6.931585 54.816749,8.098864 C 54.382154,8.7538815 53.903762,9.3045111 53.753218,9.3207819 53.602661,9.337014 52.836867,9.0184444 52.05711,8.611382 L 50.64243,7.8786162 52.364978,7.3892218 C 53.316272,7.1177904 54.429577,6.8928575 54.84319,6.9000692 z M 67.069633,5.8849993 c 2.44362,-0.2467994 5.097143,-0.1425607 8.241852,0.2919142 1.997635,0.2759812 3.951391,0.592372 4.340931,0.7102468 L 80.332439,7.114108 79.673182,7.137353 C 79.295157,7.158216 78.085993,7.068107 77.012785,6.948862 74.823789,6.7056342 64.164311,7.4094794 60.541575,8.032938 c -2.026087,0.3486892 -2.132681,0.3448384 -1.36017,-0.076012 0.45681,-0.2488565 2.1067,-0.8050989 3.643219,-1.2471531 1.394003,-0.4010452 2.778838,-0.6766957 4.245009,-0.8247733 l 0,-3e-7 z M 48.836455,8.5008947 c 0.490635,-0.052312 0.843166,0.031309 1.529498,0.2194015 0.764261,0.2094414 1.438324,0.4894685 1.500702,0.6311549 0.07225,0.163973 -1.37673,0.3977045 -3.979156,0.6137647 -2.248486,0.1866742 -4.040065,0.2430042 -3.986823,0.1420582 0.05329,-0.100932 1.195743,-0.5317778 2.564355,-0.9686449 1.229049,-0.3923205 1.88079,-0.5854226 2.371424,-0.6377344 l 0,0 z M 66.229938,7.9070596 c 3.459412,-0.3282915 7.528484,-0.4947004 9.891479,-0.3173839 3.042785,0.2283237 6.999711,0.8114514 7.905432,1.1700602 0.810513,0.3209091 1.75972,2.2106531 1.583282,3.1434561 -0.187592,0.991671 -0.350435,1.048102 -1.910167,0.504972 C 77.832995,10.365179 66.915723,8.794808 61.64863,9.2320951 60.725098,9.3087705 59.95054,9.257501 59.939301,9.1220929 59.906239,8.7236731 62.770526,8.2353512 66.229938,7.9070596 z M 46.41239,10.780451 c 2.478698,-0.179456 2.331346,-0.101196 -2.103217,1.213768 -3.983298,1.181137 -11.374899,4.421298 -12.790747,5.596402 -0.142106,0.11795 -0.523574,0.316904 -0.813133,0.445382 -0.455708,0.202176 -0.422673,0.143519 0.114817,-0.513363 1.170121,-1.430065 7.532438,-4.723829 11.68345,-6.039794 0.945628,-0.299781 2.700875,-0.614928 3.90883,-0.702395 z M 59.128644,9.9766322 c 0.748087,-0.08472 2.217618,-0.09899 4.463655,-0.087182 4.076873,0.021429 9.277447,0.5769508 13.374786,1.4402368 3.224132,0.67931 7.913909,2.03092 7.936338,2.301116 0.04225,0.509099 -1.527481,2.216499 -3.203573,3.509383 -1.083936,0.836104 -2.169186,1.542306 -2.421227,1.555064 -0.252051,0.01276 -1.61628,-0.665914 -3.053441,-1.509905 C 71.24046,14.258004 65.908481,12.06733 61.19727,11.001486 58.642209,10.423445 57.881833,10.117825 59.128644,9.9766291 l 0,3.1e-6 z m -2.863953,0.7730928 c 0.931838,-0.07152 6.738399,1.356315 9.577936,2.353763 4.344662,1.526141 12.298657,5.545095 12.357011,6.248155 0.03542,0.42675 -3.688778,2.277285 -7.982642,3.969134 -1.702134,0.670658 -3.23124,1.212948 -3.393062,1.226384 -0.161831,0.01344 -1.327921,-1.46982 -2.573408,-3.31317 -2.496716,-3.695187 -4.519743,-6.239483 -6.993597,-8.771744 -1.478365,-1.513278 -1.56321,-1.66868 -0.992238,-1.712522 l 0,0 z m -2.027337,0.231294 c 0.964585,0.03946 5.252188,4.651883 8.301611,8.978045 1.511489,2.14433 3.089012,4.593859 3.107105,4.811843 0.0189,0.227698 -1.873993,0.809833 -5.926026,1.814552 -2.158165,0.535127 -4.999913,1.131579 -6.311525,1.342725 -2.813173,0.452867 -2.584549,0.8113 -2.132916,-3.696124 0.548808,-5.477205 1.973595,-12.18446 2.810594,-13.175512 0.0332,-0.03937 0.08682,-0.07815 0.151157,-0.07553 l 0,10e-7 z m -6.300899,0.712053 c 0.786543,-0.100281 0.126915,0.368627 -2.027701,1.364944 -5.399411,2.496781 -11.622856,6.782848 -16.617843,11.456284 -0.999002,0.934688 -1.902656,1.700948 -1.999147,1.708958 -0.340405,0.02825 -1.143194,-1.198908 -1.369949,-2.090527 -0.321847,-1.265519 0.751926,-2.592245 3.628612,-4.457864 5.258419,-3.410236 9.638711,-5.454805 15.396997,-7.198317 1.521275,-0.460616 2.517103,-0.723308 2.989031,-0.783478 l 0,0 z m 4.742486,-0.141817 c 0.05423,-0.0095 0.102752,5.38e-4 0.127674,0.02088 0.07891,0.06458 -0.101417,0.969159 -0.399322,2.016989 -0.843542,2.966978 -1.45138,6.472571 -1.850892,10.702636 -0.201659,2.135193 -0.400483,3.909303 -0.457276,3.974147 -0.39096,0.446467 -12.237118,1.166848 -12.718848,0.772545 -0.465279,-0.380835 4.779237,-7.799316 7.833782,-11.073392 2.697367,-2.891228 6.65176,-6.272507 7.464882,-6.413815 l 0,10e-6 z m -2.509482,0.491748 c 0.239661,-0.01989 -0.393736,0.663688 -1.415406,1.534536 -4.147477,3.535188 -7.902402,8.011032 -11.000411,13.131195 -0.814614,1.346333 -1.519836,2.250489 -1.796075,2.258908 -1.914486,0.05842 -7.368456,-1.50879 -7.644528,-2.199383 -0.155314,-0.388493 3.299709,-3.552867 6.87595,-6.301942 4.051352,-3.114299 13.23382,-8.278302 14.98047,-8.423314 l 0,0 z M 85.822078,9.1460119 c 0.07055,-0.028345 0.223934,0.011503 0.445562,0.057474 0.342804,0.071102 1.386104,0.368445 2.321501,0.6574786 6.744404,2.0839195 13.111189,5.6276815 18.453139,10.2765215 4.19305,3.649001 4.98742,4.919145 4.64627,7.423644 -0.0969,0.711035 -0.31386,1.29017 -0.4903,1.300283 -0.17646,0.01007 -1.24441,-0.845967 -2.36279,-1.913628 C 103.76214,22.104517 95.752664,17.04368 88.697195,14.197539 l -2.446459,-1.024978 0.05511,-1.232665 c 0.03618,-0.691422 -0.09701,-1.643092 -0.298992,-2.0849712 -0.217632,-0.4761222 -0.302352,-0.6616668 -0.18478,-0.708917 l 4e-6,4.1e-6 z m 0.167876,4.6779921 2.511594,1.051061 c 6.142182,2.600615 10.614227,5.194885 15.443962,8.92039 3.40233,2.624466 6.84056,5.790107 6.88753,6.355863 0.0553,0.665627 -4.07215,5.127419 -6.32891,6.823334 -1.21536,0.913316 -2.59549,1.892771 -3.06244,2.175109 l -0.83921,0.510526 -0.812651,-1.066153 C 94.540704,31.731764 88.110473,25.279237 82.64959,21.375397 81.268531,20.388109 80.134261,19.507686 80.125258,19.4122 c -0.0089,-0.09549 0.518723,-0.562889 1.175511,-1.010789 0.656787,-0.447887 1.993028,-1.664658 2.95577,-2.701574 l 1.733415,-1.875833 z m -61.058022,9.383248 c 0.141919,-0.01178 0.313476,0.362781 0.351512,0.821032 0.03803,0.458251 0.371688,1.331672 0.76025,1.952208 l 0.724031,1.136488 -1.191206,1.201029 c -5.112967,5.254436 -11.219482,15.617898 -13.49722,22.879793 -0.153771,0.490268 -0.396555,0.914627 -0.521444,0.924997 -0.324324,0.02692 -1.661725,-1.46243 -2.0812426,-2.314879 -0.7912119,-1.607707 -0.6339632,-3.116153 0.6716966,-6.322169 2.357035,-5.787685 4.506395,-9.369778 8.381909,-13.952951 2.345484,-2.773768 5.889691,-6.283038 6.401714,-6.325548 z m 54.218654,-3.399238 1.331255,0.86565 c 3.965119,2.6187 10.39251,8.443615 14.434207,13.066363 1.722436,1.970044 4.842479,5.994357 4.86551,6.27182 0.05756,0.693521 -10.089888,5.506734 -16.872105,8.013552 -2.85195,1.054132 -4.135046,1.406376 -4.310265,1.176575 -0.08739,-0.114631 -0.706959,-1.522199 -1.361799,-3.130355 -2.062935,-5.06615 -6.082629,-13.325117 -8.806811,-18.099536 -0.724242,-1.269288 -1.336609,-2.447522 -1.348941,-2.596102 -0.01233,-0.148569 0.612105,-0.466581 1.389086,-0.713626 2.136899,-0.679426 7.186758,-2.874822 9.024924,-3.929707 l 1.654939,-0.924634 0,0 z m -51.799362,7.890312 c 0.331349,-0.07339 0.756685,0.01474 1.539881,0.344498 1.113098,0.468641 2.282823,0.759575 6.717063,1.646595 0.222262,0.04446 -0.115843,1.005505 -0.941533,2.691794 -3.110294,6.352096 -5.812641,14.823295 -6.92256,21.67267 -0.426992,2.634958 -0.419216,2.638322 -1.256824,2.68648 -2.586326,0.148722 -9.848043,-1.594232 -12.592561,-3.016675 -1.742733,-0.903213 -1.765086,-0.979885 -0.217317,-4.894315 1.552349,-3.926019 3.831569,-8.289264 6.135079,-11.814066 2.139001,-3.273062 6.375857,-8.658677 7.233862,-9.197197 0.101932,-0.06398 0.19446,-0.09533 0.30491,-0.119784 l 0,0 z m 38.599392,-1.91355 c 0.169756,-0.01168 0.280285,0.0041 0.317889,0.03658 0.369022,0.318354 3.927099,6.804575 5.864688,10.723348 1.377268,2.785527 2.777521,5.956031 5.4577,12.268632 0.190844,0.449504 0.217179,0.785479 0.04406,0.909538 -0.794306,0.56901 -10.532692,3.153581 -16.573893,4.398994 -2.389543,0.492623 -5.417092,1.074732 -6.725817,1.282651 -2.12133,0.337012 -2.418931,0.3368 -2.618744,-0.06599 -0.503881,-1.015748 -1.152673,-19.655933 -0.87536,-24.961449 0.06515,-1.246278 0.05881,-1.293283 1.165249,-1.513769 5.745532,-1.144929 8.615212,-1.778613 11.098623,-2.464419 1.291228,-0.356569 2.336397,-0.579167 2.84566,-0.614127 l -5.5e-5,1.1e-5 z m -28.700852,3.95729 c 0.131995,-0.01398 0.311877,-0.0016 0.505507,0.02101 0.469433,0.05484 3.424141,-0.05174 6.561318,-0.229844 l 5.70406,-0.316117 0.03627,0.815714 c 0.03599,0.457858 0.03897,2.642268 -0.0067,4.84994 -0.04574,2.207681 0.145945,7.804037 0.433785,12.433814 0.512986,8.251222 0.51203,8.438293 -0.03924,8.631371 -0.574172,0.201096 -12.541014,1.166419 -14.542989,1.175957 -3.548973,0.01678 -7.29578,-0.08449 -7.574807,-0.221337 -0.661044,-0.324191 1.600365,-10.412095 3.679325,-16.365093 0.960363,-2.749937 3.22747,-7.954063 4.203542,-9.669871 0.46678,-0.82054 0.644053,-1.083599 1.040049,-1.125499 l -1.2e-4,-4.5e-5 z m 75.406156,-4.182103 c 0.76006,-0.06311 6.8062,8.523765 8.88673,12.613733 2.57065,5.053501 5.05778,12.657721 4.89401,14.960547 -0.0467,0.656673 -0.18488,1.266593 -0.29749,1.347256 -0.1126,0.08069 -0.56728,-1.040536 -1.02327,-2.465694 -2.26182,-7.068861 -6.48273,-14.477412 -11.42754,-20.086218 l -1.80773,-2.05418 0.33654,-1.25603 c 0.18288,-0.698948 0.3015,-1.67825 0.26127,-2.162975 -0.0403,-0.484724 0.0429,-0.885275 0.17748,-0.896439 l 0,0 z m -1.10652,5.256138 c 0.0565,-0.01529 0.11602,-0.0028 0.15894,0.0183 0.66048,0.323919 5.02444,5.996699 6.81118,8.849869 2.23394,3.567311 3.95407,7.082931 5.34609,10.923852 1.53206,4.227479 1.75988,5.451154 1.147,6.612028 -1.1743,2.224216 -5.59418,6.380735 -9.77968,9.25111 -0.73257,0.502378 -1.42793,0.937277 -1.55853,0.948119 -0.1306,0.01084 -0.46036,-0.848917 -0.7238,-1.892255 -0.64973,-2.573145 -2.65431,-8.165342 -4.05092,-11.251806 -1.85569,-4.101094 -2.84221,-5.889785 -5.39848,-10.037794 -2.20952,-3.585321 -2.35036,-3.954183 -1.92689,-4.248552 4.52601,-3.146184 8.25661,-6.574698 9.45117,-8.657025 0.15654,-0.272873 0.35414,-0.469966 0.52392,-0.515839 l 0,-7e-6 z m -11.37208,10.170551 c 0.23899,-0.03385 0.34553,0.03056 0.48721,0.179977 0.62323,0.65736 4.65655,7.332048 5.65667,9.355082 2.55209,5.162299 4.19728,9.224671 5.59268,13.894878 0.51285,1.716488 0.93092,3.249814 0.94219,3.385618 0.0242,0.291783 -3.86422,2.496915 -7.69873,4.354926 -3.29541,1.596773 -8.077421,3.584303 -12.232973,5.109241 -4.375851,1.605772 -4.778848,1.730706 -4.959141,1.324915 -0.08373,-0.188405 -0.373989,-1.28121 -0.642838,-2.434298 -1.147201,-4.920399 -3.765522,-13.347547 -6.400917,-20.59801 -0.78236,-2.15244 -1.458995,-4.301402 -1.496776,-4.756602 -0.06238,-0.751576 0.02665,-0.872107 1.063531,-1.221917 5.471031,-1.84571 12.511454,-4.842791 16.874458,-7.226511 1.687792,-0.922111 2.416327,-1.310873 2.814636,-1.367299 l 0,0 z M 8.3224719,49.179483 c 0.085154,-0.007 0.3438278,0.39961 0.5781868,0.896681 0.2343689,0.49707 0.8864116,1.407158 1.4585663,2.02019 l 1.036728,1.110528 -0.620928,2.381771 c -1.8106945,7.009822 -2.189562,12.010949 -1.5281175,19.902252 0.2845893,3.39238 0.4874439,6.162956 0.4488197,6.166162 -0.2185375,0.01814 -1.68045,-2.04406 -1.9612351,-2.765693 C 6.5638538,75.882684 5.6806965,66.247789 6.0804072,60.85928 6.3694195,56.963109 7.85843,49.218009 8.3224719,49.179483 z m 3.7794631,4.567087 c 0.06681,-0.07629 0.520178,0.07917 1.005701,0.357356 2.307454,1.32207 7.117277,2.618986 12.462169,3.342395 1.056581,0.143004 1.535031,0.323941 1.529376,0.597285 -0.0046,0.218596 -0.120737,1.437771 -0.248407,2.697228 -0.587895,5.799792 -0.535978,10.010888 0.239404,17.299329 0.412538,3.87785 0.878726,7.552858 1.024047,8.165221 l 0.249795,1.112882 -0.909412,0.04407 c -1.3121,0.07477 -6.724525,-0.806797 -9.064883,-1.483165 -2.771967,-0.8011 -5.731313,-2.028138 -6.716701,-2.78025 -0.782915,-0.59758 -0.849042,-0.804708 -1.267869,-3.516029 -0.9647024,-6.245068 -0.9561046,-13.086381 0.01124,-18.831632 0.384748,-2.285098 1.452538,-6.738551 1.685547,-7.004642 l -7e-6,-4.8e-5 z m 65.631723,-3.21316 c 0.208273,-0.02636 0.373454,-0.02093 0.411697,0.0288 0.515909,0.676699 3.943408,10.003128 5.001269,13.597593 0.303956,1.032841 0.963316,3.258209 1.483678,4.978115 1.846685,6.103686 2.726974,9.851548 2.381018,10.099377 -0.38668,0.276995 -7.308577,2.306472 -11.588795,3.386819 -3.079676,0.77732 -9.995257,2.245628 -13.149443,2.792132 -4.52159,0.783436 -5.280071,0.857763 -5.422752,0.670636 -0.148146,-0.194332 -1.411077,-5.851649 -1.909861,-8.595509 -0.131601,-0.723692 -0.286675,-1.540234 -0.372036,-1.826991 -0.08537,-0.286779 -0.383487,-2.08879 -0.64495,-3.977106 -0.261433,-1.888331 -0.516711,-3.484134 -0.579936,-3.573142 -0.101543,-0.143051 -1.086935,-7.63666 -1.367289,-10.403965 -0.09994,-0.98677 -0.05451,-1.042839 0.836857,-1.297566 0.519344,-0.148398 2.545125,-0.548237 4.492571,-0.876816 5.712588,-0.963907 14.215493,-3.041813 19.687883,-4.814974 0.277742,-0.08998 0.531804,-0.161172 0.740089,-0.187403 l 0,0 z m -49.808366,7.221184 c 0.04278,-0.05021 1.878894,-0.03603 4.064938,0.04039 2.862148,0.100057 6.087088,-0.04495 11.546175,-0.486251 l 7.569852,-0.597028 0.592673,4.485276 c 0.883249,6.986207 1.008651,7.902865 1.859092,12.535909 1.047568,5.707039 1.641652,8.710038 2.151506,10.748221 0.229602,0.917913 0.377441,1.720354 0.3069,1.80091 -0.223339,0.255029 -13.854819,1.465125 -17.346886,1.534599 -3.859666,0.07685 -8.771487,-0.08578 -9.218999,-0.305258 -0.942855,-0.462403 -2.554199,-14.60226 -2.333384,-20.526344 0.106703,-2.86275 0.65104,-9.046524 0.808125,-9.230527 l 8e-6,1.03e-4 z m 99.008488,-2.803745 0.24211,0.641178 c 0.12454,0.356973 0.32254,2.219796 0.4364,4.120378 0.22795,3.803804 -0.0183,3.623198 -0.77371,-0.597044 -0.38459,-2.148914 -0.42759,-2.940582 -0.19438,-3.479192 l 0.28948,-0.685312 1e-4,-8e-6 z m -1.13694,2.613549 0.30194,0.982594 c 0.15985,0.541961 0.42811,3.092847 0.62618,5.647606 0.55438,7.151559 -0.19285,13.217513 -2.44792,19.821169 -0.81317,2.381246 -3.70267,5.638153 -7.57499,8.50126 -2.75506,2.037024 -2.70263,2.017285 -2.22263,-0.224835 0.93663,-4.37507 1.05073,-7.37184 0.51518,-13.898135 -0.28767,-3.502322 -0.70709,-7.233983 -0.90675,-8.269426 l -0.34337,-1.860861 1.88173,-1.226869 c 3.08096,-1.983618 6.33216,-4.80315 8.31201,-7.208402 l 1.85862,-2.264101 0,0 z m -12.96721,11.436603 c 0.14682,-0.04282 0.53894,1.327069 0.88496,3.075474 1.10977,5.607448 1.20889,13.82332 0.23102,19.094927 -0.70591,3.805369 -0.57698,3.585554 -3.38129,5.16159 -4.50274,2.530559 -7.79928,4.025028 -13.713387,6.239808 -2.290311,0.8577 -4.359251,1.59001 -4.589218,1.6091 -0.357655,0.0297 -0.458013,-0.58682 -0.767311,-4.31333 -0.420875,-5.070794 -1.243315,-10.621171 -2.397375,-15.986548 -0.605893,-2.816921 -0.743338,-3.908669 -0.53285,-4.143861 0.156388,-0.174763 1.55564,-0.733508 3.106442,-1.265567 4.674339,-1.60369 12.115539,-4.822839 16.626889,-7.174468 2.33954,-1.219531 4.38648,-2.254632 4.53212,-2.297125 l 0,0 z M 8.465827,81.633219 9.4817891,82.493555 c 0.7722629,0.662975 1.0894959,1.175999 1.3151969,2.18954 0.36528,1.640359 1.473052,4.764647 2.632021,7.433423 0.481185,1.108051 0.8254,2.048986 0.77323,2.108578 -0.379936,0.433861 -4.6085395,-8.604531 -5.4735158,-11.70051 L 8.465827,81.633219 z m 3.201638,2.536754 c 0.185116,-0.05507 0.579767,0.132379 1.201106,0.435602 3.175732,1.549814 7.630606,2.690295 12.868677,3.308646 l 2.798453,0.334476 0.96308,3.257926 c 1.350588,4.475366 2.753927,8.102818 4.165744,10.738437 0.150701,0.28134 0.67332,1.26647 1.158848,2.20253 0.485529,0.93606 1.733974,2.91773 2.758069,4.39997 1.024093,1.48222 1.86472,2.74088 1.870021,2.80475 0.0458,0.55181 -7.324985,-0.9507 -10.664587,-2.16908 -2.704562,-0.98668 -4.792609,-2.67838 -7.697951,-6.25708 -3.873136,-4.770826 -7.044662,-10.567623 -8.797032,-16.085031 -0.670394,-2.110786 -0.932956,-2.879298 -0.624428,-2.971146 l 0,0 z M 87.172618,80.04263 c 0.175084,-0.03671 0.264628,-0.03789 0.281426,-0.02337 0.06718,0.05791 0.246608,0.640937 0.390449,1.290141 1.687222,7.615783 3.270349,18.294968 3.159132,21.370989 l -0.08403,2.0223 -3.348692,1.00227 c -5.119607,1.52999 -11.2176,2.97511 -16.795257,4.00802 -6.137286,1.13656 -5.900603,1.12521 -6.248743,0.58176 C 63.171506,108.17889 59.037653,95.589896 57.276997,88.192736 56.961305,86.8664 56.70696,86.996081 61.923682,86.138014 68.740884,85.0167 77.481224,82.949 84.188778,80.888648 c 1.303609,-0.400431 2.458587,-0.735923 2.98384,-0.846026 l 0,8e-6 z m -57.469556,8.235108 c 0.08811,-0.01033 0.21553,0.0068 0.380428,0.0314 2.276196,0.339835 10.899237,0.159219 18.133452,-0.403353 l 8.070167,-0.638567 1.134761,4.188357 c 1.797967,6.802867 2.836643,9.996465 5.945696,18.148135 0.205643,0.53917 0.291395,1.06748 0.192397,1.18063 -0.252235,0.28839 -11.760465,1.2924 -15.09806,1.31646 -1.518117,0.011 -3.726006,-0.0307 -4.919602,-0.0954 -1.193595,-0.0647 -2.299397,-0.12399 -2.433721,-0.11284 -0.676416,0.0561 -4.139283,-4.90665 -6.396757,-9.16769 -2.006098,-3.78655 -4.268347,-9.667634 -4.983221,-13.000782 -0.23888,-1.113829 -0.289925,-1.414308 -0.02564,-1.446386 l 10e-5,3.6e-5 z m 92.287118,0.808756 c 0.064,-0.03151 0.0912,-0.03921 0.0937,-0.0078 0.0353,0.425947 -2.65227,5.205822 -4.25237,7.56413 -2.10179,3.097715 -5.42504,7.069306 -7.87755,9.408066 -2.146,2.0465 -2.66544,2.37817 -1.85566,1.16173 2.57994,-3.87548 4.31909,-7.356656 5.2122,-10.414877 0.32055,-1.097556 0.65205,-1.645285 1.16278,-1.922925 1.13608,-0.617589 5.03631,-3.608278 6.36477,-4.873966 0.50149,-0.477791 0.96001,-0.819962 1.15203,-0.914369 l 10e-5,1.1e-5 z m -9.62273,7.348712 c 0.51237,0.06921 -1.13038,4.182304 -2.9755,7.395144 -2.47541,4.31027 -6.19578,8.22404 -9.524585,10.04865 -2.003535,1.09818 -5.681794,2.8073 -7.518668,3.48976 -0.833132,0.30957 -1.75085,0.58622 -2.058727,0.61177 -0.549666,0.0456 -0.56857,-6.5e-4 -0.02559,-1.44638 0.760989,-2.02627 1.272249,-5.13341 1.404604,-8.49282 0.126616,-3.21415 -0.178244,-2.83761 3.469547,-4.09827 4.81582,-1.66432 10.938269,-4.314335 14.891239,-6.463557 1.10221,-0.59928 2.14596,-1.070207 2.33768,-1.044297 l 0,0 z M 28.450454,110.36138 c 0.11897,-0.10561 0.761909,0.0468 1.860365,0.41236 1.571091,0.52279 5.617853,1.29603 8.413412,1.60023 1.484453,0.16152 1.7032,0.26134 3.235746,1.80966 2.342826,2.36695 4.777252,4.29173 7.447914,5.89997 1.27915,0.77029 2.386478,1.44422 2.454126,1.49668 0.393061,0.3049 -0.991614,0.0657 -3.069378,-0.56389 -5.96632,-1.80786 -11.248448,-4.29025 -16.543946,-7.75843 -2.796562,-1.83157 -3.996508,-2.72056 -3.798239,-2.89658 l 0,0 z m 62.494977,-4.96807 0.0045,2.32985 c 0.02186,3.09174 -0.556391,6.47217 -1.527207,8.91236 -0.70809,1.77979 -0.89683,2.02874 -1.788289,2.35273 -1.697821,0.61701 -8.157882,2.23326 -11.103935,2.77975 -1.539251,0.28556 -3.026037,0.53464 -3.291223,0.55665 -0.564315,0.0468 -2.202589,-1.32069 -3.51681,-2.91995 -1.77847,-2.1642 -4.75446,-7.34937 -4.492386,-7.84577 0.07008,-0.13283 1.391698,-0.45482 2.934279,-0.68447 4.991252,-0.74309 14.34131,-2.91137 20.386198,-4.74699 l 2.394906,-0.73416 -3.3e-5,0 z m -49.133532,7.38559 c 0.06331,-0.0724 1.165784,-0.11341 2.449418,-0.0774 4.602038,0.12913 11.862026,-0.18398 15.905638,-0.69074 3.889285,-0.48742 4.1345,-0.47766 4.343768,-0.0142 1.657402,3.67023 4.267645,7.77911 6.044883,9.4803 l 0.958615,0.92808 -1.394157,0.2732 c -0.778791,0.15666 -1.867176,0.30747 -2.397382,0.32499 -0.530206,0.0175 -1.696965,0.0589 -2.605767,0.0904 -3.980471,0.13787 -6.778628,-0.0867 -8.778507,-0.6882 -4.509192,-1.35623 -9.560022,-4.37866 -12.888111,-7.71556 -0.97549,-0.97807 -1.70175,-1.83844 -1.638398,-1.91079 l 0,-8e-5 z m 40.133414,8.60253 c 0.173999,-0.0144 0.368145,-0.0326 0.502906,-0.0104 0.269546,0.0447 0.0381,0.12279 -0.489932,0.16662 -0.528022,0.0439 -0.737904,0.003 -0.479427,-0.0861 0.129237,-0.0443 0.292453,-0.0557 0.466453,-0.0702 l 0,8e-5 z m -2.011764,0.41893 c 0.862959,-0.0601 0.965883,-0.0402 0.549755,0.17478 -0.772937,0.39923 -2.568496,0.54829 -2.063799,0.17135 0.214542,-0.16024 0.909918,-0.30406 1.514044,-0.34613 z m -4.489975,0.90809 c 0.124289,-0.0104 0.251812,0.005 0.349158,0.034 0.194694,0.058 0.04361,0.12234 -0.333584,0.15365 -0.377158,0.0313 -0.536823,-0.007 -0.354349,-0.0965 0.0912,-0.0446 0.214487,-0.0807 0.338775,-0.0911 l 0,-5e-5 z"
         id="path3635"
         style="fill:url(#linearGradient3635);fill-opacity:1" />
    </g>
    <path
       d="m 48.072502,45.509655 40.991042,0 -5.396485,40.103095 28.096021,0.01114 -43.694948,38.86646 -44.388027,-39.184645 29.516277,0.01114 -5.12388,-39.807194 z"
       id="path2543"
       sodipodi:nodetypes="cccccccc"
       style="fill:none;stroke:#000000;stroke-width:2;stroke-linecap:butt;stroke-linejoin:miter;stroke-miterlimit:4;stroke-opacity:1;stroke-dasharray:none;filter:url(#filter3327)" />
    <path
       d="m 48.072502,45.509655 40.991042,0 -5.396485,40.103095 28.096021,0.01114 -43.694948,38.86646 -44.388027,-39.184645 29.516277,0.01114 -5.12388,-39.807194 z"
       id="path3331"
       sodipodi:nodetypes="cccccccc"
       style="fill:url(#linearGradient3355);fill-opacity:1;fill-rule:evenodd;stroke:#068a07;stroke-width:1;stroke-linecap:butt;stroke-linejoin:miter;stroke-miterlimit:4;stroke-opacity:1;stroke-dasharray:none" />
    <g
       id="g3433"
       transform="matrix(0.4001893,0,0,0.377773,284.80099,18.638333)" />
    <g
       id="g3435"
       transform="matrix(0.4001893,0,0,0.377773,307.21159,25.20754)" />
    <g
       id="g3437"
       transform="matrix(0.07829988,0,0,0.07391396,268.05319,9.9147389)" />
    <g
       id="g3439"
       transform="matrix(0.05335856,0,0,0.05036972,257.90399,42.625207)" />
    <g
       id="g3441"
       transform="matrix(0.4268685,0,0,0.4029578,283.73339,17.873542)" />
    <g
       id="g3443"
       inkscape:export-filename="/home/seba/Dropbox/Ubuntu Icons/applications-internet4.png"
       inkscape:export-xdpi="90"
       inkscape:export-ydpi="90"
       style="display:inline"
       transform="matrix(0.146209,0,0,0.1380192,147.10871,4.3243821)" />
    <g
       id="g3465"
       style="display:inline;enable-background:new"
       transform="matrix(0.25,0,0,0.25,229.97221,64.872272)" />
    <g
       id="g3467"
       style="display:inline;enable-background:new"
       transform="matrix(0.25,0,0,0.25,243.97221,69.219597)" />
    <g
       id="g3469"
       style="display:inline;enable-background:new"
       transform="matrix(0.04891427,0,0,0.04891427,219.50979,59.099232)" />
    <g
       id="g3471"
       style="display:inline;enable-background:new"
       transform="matrix(0.03333332,0,0,0.03333332,213.16954,80.746141)" />
    <g
       id="g3473"
       style="display:inline;enable-background:new"
       transform="matrix(0.2666666,0,0,0.2666666,229.30528,64.366153)" />
    <g
       id="g3475"
       inkscape:export-filename="/home/seba/Dropbox/Ubuntu Icons/applications-internet4.png"
       inkscape:export-xdpi="90"
       inkscape:export-ydpi="90"
       style="display:inline;enable-background:new"
       transform="matrix(0.0913374,0,0,0.0913374,143.95525,55.399684)" />
    <g
       id="g3561"
       style="display:inline;enable-background:new"
       transform="matrix(0.19,0,0,0.19,206.92243,96.219875)" />
    <g
       id="g3563"
       style="display:inline;enable-background:new"
       transform="matrix(0.19,0,0,0.19,217.56243,99.523842)" />
    <g
       id="g3565"
       style="display:inline;enable-background:new"
       transform="matrix(0.03717485,0,0,0.03717485,198.97099,91.832365)" />
    <g
       id="g3567"
       style="display:inline;enable-background:new"
       transform="matrix(0.02533333,0,0,0.02533333,194.1524,108.28402)" />
    <g
       id="g3569"
       style="display:inline;enable-background:new"
       transform="matrix(0.2026667,0,0,0.2026667,206.41557,95.835225)" />
    <g
       id="g3571"
       inkscape:export-filename="/home/seba/Dropbox/Ubuntu Icons/applications-internet4.png"
       inkscape:export-xdpi="90"
       inkscape:export-ydpi="90"
       style="display:inline;enable-background:new"
       transform="matrix(0.06941642,0,0,0.06941642,141.54954,89.020708)" />
    <g
       id="g3593"
       style="display:inline;enable-background:new"
       transform="matrix(0.16,0,0,0.16,193.35033,118.0013)" />
    <g
       id="g3595"
       style="display:inline;enable-background:new"
       transform="matrix(0.16,0,0,0.16,202.31033,120.78359)" />
    <g
       id="g3597"
       style="display:inline;enable-background:new"
       transform="matrix(0.03130514,0,0,0.03130514,186.65438,114.30656)" />
    <g
       id="g3599"
       style="display:inline;enable-background:new"
       transform="matrix(0.02133333,0,0,0.02133333,182.59662,128.16058)" />
    <g
       id="g3601"
       style="display:inline;enable-background:new"
       transform="matrix(0.1706667,0,0,0.1706667,192.92349,117.67739)" />
    <g
       id="g3603"
       inkscape:export-filename="/home/seba/Dropbox/Ubuntu Icons/applications-internet4.png"
       inkscape:export-xdpi="90"
       inkscape:export-ydpi="90"
       style="display:inline;enable-background:new"
       transform="matrix(0.05845594,0,0,0.05845594,138.09826,115.96299)" />
  </g>
</svg>
