<?xml version="1.0" encoding="UTF-8" standalone="no"?>
<!-- Created with Inkscape (http://www.inkscape.org/) -->

<svg
   xmlns:dc="http://purl.org/dc/elements/1.1/"
   xmlns:cc="http://creativecommons.org/ns#"
   xmlns:rdf="http://www.w3.org/1999/02/22-rdf-syntax-ns#"
   xmlns:svg="http://www.w3.org/2000/svg"
   xmlns="http://www.w3.org/2000/svg"
   xmlns:xlink="http://www.w3.org/1999/xlink"
   xmlns:sodipodi="http://sodipodi.sourceforge.net/DTD/sodipodi-0.dtd"
   xmlns:inkscape="http://www.inkscape.org/namespaces/inkscape"
   height="128"
   id="svg11300"
   inkscape:export-filename="/home/mma/BZR-WORK/breathe-icon-set/source_svg/rendered/computer.png"
   inkscape:export-xdpi="90.000000"
   inkscape:export-ydpi="90.000000"
   inkscape:output_extension="org.inkscape.output.svg.inkscape"
   inkscape:version="0.46+devel r21673"
   sodipodi:docname="applications-development.svg"
   sodipodi:version="0.32"
   style="display:inline;enable-background:new"
   version="1.0"
   width="128">
  <title
     id="title4119">Breathe Icon Theme computer</title>
  <defs
     id="defs3">
    <linearGradient
       id="linearGradient4093"
       inkscape:collect="always">
      <stop
         id="stop4095"
         offset="0"
         style="stop-color:#000000;stop-opacity:1;" />
      <stop
         id="stop4097"
         offset="1"
         style="stop-color:#000000;stop-opacity:0;" />
    </linearGradient>
    <linearGradient
       id="linearGradient3817">
      <stop
         id="stop3819"
         offset="0"
         style="stop-color:#775227;stop-opacity:1" />
      <stop
         id="stop3821"
         offset="1"
         style="stop-color:#e7d1b6;stop-opacity:1" />
    </linearGradient>
    <linearGradient
       id="linearGradient3802">
      <stop
         id="stop3804"
         offset="0"
         style="stop-color:#d5b38a;stop-opacity:1;" />
      <stop
         id="stop3810"
         offset="0.19253752"
         style="stop-color:#edd19f;stop-opacity:1;" />
      <stop
         id="stop3812"
         offset="0.36650982"
         style="stop-color:#ebc699;stop-opacity:1;" />
      <stop
         id="stop3814"
         offset="0.58234423"
         style="stop-color:#d1a669;stop-opacity:1;" />
      <stop
         id="stop3806"
         offset="1"
         style="stop-color:#926a3d;stop-opacity:1;" />
    </linearGradient>
    <linearGradient
       id="linearGradient3784">
      <stop
         id="stop3786"
         offset="0"
         style="stop-color:#404042;stop-opacity:1" />
      <stop
         id="stop3792"
         offset="0.18023722"
         style="stop-color:#f7f7f9;stop-opacity:1" />
      <stop
         id="stop3794"
         offset="0.45409739"
         style="stop-color:#eeeef0;stop-opacity:1" />
      <stop
         id="stop3796"
         offset="0.64853507"
         style="stop-color:#101116;stop-opacity:1" />
      <stop
         id="stop3798"
         offset="0.86261678"
         style="stop-color:#b4b8bb;stop-opacity:1" />
      <stop
         id="stop3788"
         offset="1"
         style="stop-color:#969696;stop-opacity:1" />
    </linearGradient>
    <linearGradient
       id="linearGradient3562">
      <stop
         id="stop3564"
         offset="0"
         style="stop-color:#babbc0;stop-opacity:1;" />
      <stop
         id="stop3566"
         offset="1"
         style="stop-color:#babbc0;stop-opacity:0;" />
    </linearGradient>
    <linearGradient
       id="linearGradient3554"
       inkscape:collect="always">
      <stop
         id="stop3556"
         offset="0"
         style="stop-color:#d8d9dd;stop-opacity:1" />
      <stop
         id="stop3558"
         offset="1"
         style="stop-color:#ececee;stop-opacity:1" />
    </linearGradient>
    <linearGradient
       id="linearGradient3546">
      <stop
         id="stop3548"
         offset="0"
         style="stop-color:#000000;stop-opacity:1;" />
      <stop
         id="stop3550"
         offset="1"
         style="stop-color:#000000;stop-opacity:0;" />
    </linearGradient>
    <filter
       color-interpolation-filters="sRGB"
       height="3.2712317"
       id="filter3762"
       inkscape:collect="always"
       width="2.222964"
       x="-0.61148208"
       y="-1.1356158">
      <feGaussianBlur
         id="feGaussianBlur3764"
         inkscape:collect="always"
         stdDeviation="0.5855188" />
    </filter>
    <filter
       color-interpolation-filters="sRGB"
       height="1.722662"
       id="filter3766"
       inkscape:collect="always"
       width="1.7226605"
       x="-0.36133024"
       y="-0.36133099">
      <feGaussianBlur
         id="feGaussianBlur3768"
         inkscape:collect="always"
         stdDeviation="0.5855188" />
    </filter>
    <filter
       color-interpolation-filters="sRGB"
       height="1.1622299"
       id="filter3770"
       inkscape:collect="always"
       width="2.5051911"
       x="-0.75259554"
       y="-0.081114948">
      <feGaussianBlur
         id="feGaussianBlur3772"
         inkscape:collect="always"
         stdDeviation="0.5855188" />
    </filter>
    <filter
       color-interpolation-filters="sRGB"
       height="1.3727075"
       id="filter3774"
       inkscape:collect="always"
       width="1.1411235"
       x="-0.070561767"
       y="-0.18635374">
      <feGaussianBlur
         id="feGaussianBlur3776"
         inkscape:collect="always"
         stdDeviation="0.5855188" />
    </filter>
    <filter
       color-interpolation-filters="sRGB"
       height="1.1673529"
       id="filter3778"
       inkscape:collect="always"
       width="1.732313"
       x="-0.36615649"
       y="-0.083676472">
      <feGaussianBlur
         id="feGaussianBlur3780"
         inkscape:collect="always"
         stdDeviation="0.5855188" />
    </filter>
    <filter
       color-interpolation-filters="sRGB"
       height="1.2070758"
       id="filter3853"
       inkscape:collect="always"
       width="1.1452109"
       x="-0.072605424"
       y="-0.10353792">
      <feGaussianBlur
         id="feGaussianBlur3855"
         inkscape:collect="always"
         stdDeviation="1.8226987" />
    </filter>
    <filter
       color-interpolation-filters="sRGB"
       id="filter3911"
       inkscape:collect="always">
      <feGaussianBlur
         id="feGaussianBlur3913"
         inkscape:collect="always"
         stdDeviation="0.5334728" />
    </filter>
    <filter
       color-interpolation-filters="sRGB"
       id="filter3949"
       inkscape:collect="always">
      <feGaussianBlur
         id="feGaussianBlur3951"
         inkscape:collect="always"
         stdDeviation="0.21077406" />
    </filter>
    <filter
       color-interpolation-filters="sRGB"
       id="filter4070"
       inkscape:collect="always">
      <feGaussianBlur
         id="feGaussianBlur4072"
         inkscape:collect="always"
         stdDeviation="1.1348397" />
    </filter>
    <filter
       color-interpolation-filters="sRGB"
       id="filter4105"
       inkscape:collect="always">
      <feGaussianBlur
         id="feGaussianBlur4107"
         inkscape:collect="always"
         stdDeviation="1.1092578" />
    </filter>
    <linearGradient
       gradientUnits="userSpaceOnUse"
       id="linearGradient4127"
       inkscape:collect="always"
       x1="-88.888359"
       x2="-102.0209"
       xlink:href="#linearGradient3546"
       y1="185.20949"
       y2="142.42952" />
    <linearGradient
       gradientTransform="matrix(0.6991177,-0.06502509,0.07680971,0.8258202,95.075005,-29.775762)"
       gradientUnits="userSpaceOnUse"
       id="linearGradient3228"
       inkscape:collect="always"
       x1="-3.1232135"
       x2="9.5906515"
       xlink:href="#linearGradient3802"
       y1="72.842239"
       y2="90.873459" />
    <linearGradient
       gradientTransform="matrix(0.6991177,-0.06502509,0.07680971,0.8258202,95.075005,-29.775762)"
       gradientUnits="userSpaceOnUse"
       id="linearGradient3230"
       inkscape:collect="always"
       x1="14.90801"
       x2="-5.9656978"
       xlink:href="#linearGradient3817"
       y1="92.641228"
       y2="68.599594" />
    <linearGradient
       gradientTransform="matrix(0.6991177,-0.06502509,0.07680971,0.8258202,95.075005,-29.775762)"
       gradientUnits="userSpaceOnUse"
       id="linearGradient3233"
       inkscape:collect="always"
       x1="-39.232563"
       x2="-31.466251"
       xlink:href="#linearGradient3784"
       y1="101.36612"
       y2="111.61917" />
    <linearGradient
       gradientTransform="matrix(0.6991177,-0.06502509,0.07680971,0.8258202,95.075005,-29.775762)"
       gradientUnits="userSpaceOnUse"
       id="linearGradient3242"
       inkscape:collect="always"
       x1="-84.447403"
       x2="-159.72226"
       xlink:href="#linearGradient3562"
       y1="142.15282"
       y2="172.99564" />
    <linearGradient
       gradientTransform="matrix(0.6991177,-0.06502509,0.07680971,0.8258202,95.075005,-29.775762)"
       gradientUnits="userSpaceOnUse"
       id="linearGradient3245"
       inkscape:collect="always"
       x1="-57.879211"
       x2="-109.69553"
       xlink:href="#linearGradient3554"
       y1="154.80389"
       y2="162.58206" />
    <linearGradient
       gradientTransform="matrix(0.6991177,-0.06502509,0.07680971,0.8258202,95.075005,-29.775762)"
       gradientUnits="userSpaceOnUse"
       id="linearGradient3247"
       inkscape:collect="always"
       x1="-88.888359"
       x2="-102.0209"
       xlink:href="#linearGradient3546"
       y1="185.20949"
       y2="142.42952" />
    <linearGradient
       gradientUnits="userSpaceOnUse"
       id="linearGradient3251"
       inkscape:collect="always"
       x1="-46.210552"
       x2="35.725956"
       xlink:href="#linearGradient4093"
       y1="135.77382"
       y2="95.773811" />
  </defs>
  <sodipodi:namedview
     bordercolor="#666666"
     borderopacity="0.25490196"
     fill="#f57900"
     gridtolerance="12"
     guidetolerance="13"
     height="300px"
     id="base"
     inkscape:current-layer="layer6"
     inkscape:cx="-22.34106"
     inkscape:cy="56.215729"
     inkscape:document-units="px"
     inkscape:grid-bbox="true"
     inkscape:guide-bbox="true"
     inkscape:pageopacity="0.0"
     inkscape:pageshadow="2"
     inkscape:showpageshadow="false"
     inkscape:snap-bbox="true"
     inkscape:snap-nodes="false"
     inkscape:window-height="940"
     inkscape:window-maximized="0"
     inkscape:window-width="1280"
     inkscape:window-x="343"
     inkscape:window-y="163"
     inkscape:zoom="1"
     objecttolerance="7"
     pagecolor="#ffffff"
     showgrid="false"
     showguides="true"
     stroke="#ef2929"
     width="400px">
    <inkscape:grid
       empspacing="5"
       enabled="true"
       id="grid5883"
       spacingx="1px"
       spacingy="1px"
       type="xygrid"
       visible="true" />
  </sodipodi:namedview>
  <metadata
     id="metadata4">
    <rdf:RDF>
      <cc:Work
         rdf:about="">
        <dc:format>image/svg+xml</dc:format>
        <dc:type
           rdf:resource="http://purl.org/dc/dcmitype/StillImage" />
        <dc:creator>
          <cc:Agent>
            <dc:title>Breathe Icon Team</dc:title>
          </cc:Agent>
        </dc:creator>
        <dc:source />
        <cc:license
           rdf:resource="http://creativecommons.org/licenses/by-sa/3.0/" />
        <dc:title>Breathe Icon Theme template</dc:title>
        <dc:subject>
          <rdf:Bag />
        </dc:subject>
        <dc:date />
        <dc:rights>
          <cc:Agent>
            <dc:title />
          </cc:Agent>
        </dc:rights>
        <dc:publisher>
          <cc:Agent>
            <dc:title />
          </cc:Agent>
        </dc:publisher>
        <dc:identifier />
        <dc:relation />
        <dc:language />
        <dc:coverage />
        <dc:description>applications-development</dc:description>
        <dc:contributor>
          <cc:Agent>
            <dc:title>Jakub Steiner, Cory Kontros, Breathe icon team</dc:title>
          </cc:Agent>
        </dc:contributor>
      </cc:Work>
      <cc:License
         rdf:about="http://creativecommons.org/licenses/by-sa/3.0/">
        <cc:permits
           rdf:resource="http://creativecommons.org/ns#Reproduction" />
        <cc:permits
           rdf:resource="http://creativecommons.org/ns#Distribution" />
        <cc:requires
           rdf:resource="http://creativecommons.org/ns#Notice" />
        <cc:requires
           rdf:resource="http://creativecommons.org/ns#Attribution" />
        <cc:prohibits
           rdf:resource="http://creativecommons.org/ns#CommercialUse" />
        <cc:permits
           rdf:resource="http://creativecommons.org/ns#DerivativeWorks" />
        <cc:requires
           rdf:resource="http://creativecommons.org/ns#ShareAlike" />
      </cc:License>
    </rdf:RDF>
  </metadata>
  <g
     id="layer1"
     inkscape:groupmode="layer"
     inkscape:label="categories/applications-development"
     style="display:inline"
     transform="translate(-3,-4)">
    <rect
       height="256"
       id="256x256"
       inkscape:label="256x256"
       style="fill:#eeeeec;fill-opacity:1;fill-rule:nonzero;stroke:none;stroke-width:5;marker:none;visibility:visible;display:none;overflow:visible;enable-background:accumulate"
       width="256"
       x="26.5"
       y="32.823101" />
    <rect
       height="48"
       id="48x48"
       inkscape:label="48x48"
       style="fill:#eeeeec;fill-opacity:1;fill-rule:nonzero;stroke:none;stroke-width:5;marker:none;visibility:visible;display:none;overflow:visible;enable-background:accumulate"
       width="48"
       x="-35.5"
       y="32.823101" />
    <text
       id="text6091"
       sodipodi:linespacing="125%"
       style="font-size:56.11526489px;font-style:normal;font-variant:normal;font-weight:bold;font-stretch:normal;text-indent:0;text-align:start;text-decoration:none;line-height:125%;letter-spacing:normal;word-spacing:normal;text-transform:none;direction:ltr;block-progression:tb;writing-mode:lr-tb;text-anchor:start;fill:#2e3436;fill-opacity:1;fill-rule:nonzero;stroke:none;stroke-width:5;marker:none;visibility:visible;display:none;overflow:visible;enable-background:accumulate;font-family:Myriad"
       x="-418.41196"
       xml:space="preserve"
       y="34.084831"><tspan
         id="tspan6093"
         sodipodi:role="line"
         x="-418.41196"
         y="34.084831">audio-x-generic</tspan></text>
    <g
       id="layer6"
       inkscape:groupmode="layer"
       inkscape:label="plate"
       sodipodi:insensitive="true"
       style="display:none" />
    <g
       id="Livello_1"
       transform="translate(387.11439,42.495045)" />
    <g
       id="g3290"
       transform="translate(443.11439,59.884345)" />
    <g
       id="g7148"
       transform="matrix(0.1956571,0,0,0.1956571,345.26471,19.402885)" />
    <g
       id="g7555"
       transform="matrix(0.1333333,0,0,0.1333333,319.90372,105.99052)" />
    <g
       id="g9283"
       transform="matrix(1.0666666,0,0,1.0666666,384.44667,40.470571)" />
    <g
       id="g3253"
       inkscape:export-filename="C:\Documents and Settings\guille\Mis documentos\My Dropbox\Ubuntu Icons\applications-development2.png"
       inkscape:export-xdpi="90"
       inkscape:export-ydpi="90">
      <path
         d="m -148.49243,174.24442 c 31.99785,3.5457 70.66814,-7.02805 95.459421,-10.6066 l 10.969731,-23.14085 -14.778071,7.27848 2.138079,-6.61074 c -30.392713,-6.47857 -50.88424,17.51379 -93.78916,33.07971 z"
         id="path4008"
         sodipodi:nodetypes="cccccc"
         style="fill:#bbbbbb;fill-opacity:1;fill-rule:evenodd;stroke:url(#linearGradient4127);stroke-width:2;stroke-linecap:butt;stroke-linejoin:miter;stroke-miterlimit:4;stroke-opacity:1;stroke-dasharray:none;display:inline;filter:url(#filter4070);enable-background:new"
         transform="matrix(0.68242,-0.06347203,0.08202517,0.8818942,93.559078,-38.298448)" />
      <path
         d="m 31.471306,83.835008 c -0.422746,-0.07592 -0.813001,-0.06072 -1.146957,0.112317 -21.582739,10.190768 -42.467324,21.273065 -61.73356,34.421995 0.05074,0.0536 0.08623,0.11994 0.136237,0.17398 1.560329,1.68595 2.769668,3.59075 3.751339,5.65061 -1.229287,-2.07537 -2.473449,-3.97477 -3.751339,-5.65061 l -18.167551,11.67277 c -0.179111,0.51312 -0.490567,0.9739 -0.02897,1.79085 l 4.830304,8.42622 c 0.255611,0.32998 0.619193,0.5259 1.449622,-0.0125 l 19.728594,-8.46076 c -0.02208,-0.0482 -0.05587,-0.0873 -0.07797,-0.1354 20.2031933,-8.18736 39.517337,-14.91285 64.046214,-30.14266 0.512203,-1.58731 0.853035,-3.113511 0.667503,-4.451971 -1.505284,-6.095153 -4.885458,-9.608834 -8.368715,-12.980596 -0.456762,-0.171282 -0.912001,-0.338298 -1.334747,-0.414215 z"
         id="path4082"
         style="opacity:0.60851063;fill:url(#linearGradient3251);fill-opacity:1;fill-rule:evenodd;stroke:none;display:inline;filter:url(#filter4105);enable-background:new"
         transform="matrix(0.604142,-0.01746595,0.02063134,0.7136318,96.764383,-13.353467)" />
      <path
         d="M 50.218338,83.018083 C 33.310103,97.007113 11.429182,112.16481 4.6449829,123.77453 27.28759,124.62198 53.510508,113.37543 70.567664,108.80813 L 76.459355,88.984642 74.490305,86.650483 71.53959,85.318424 50.218338,83.018083 z"
         id="path2767"
         sodipodi:nodetypes="ccccccc"
         style="fill:url(#linearGradient3245);fill-opacity:1;fill-rule:evenodd;stroke:url(#linearGradient3247);stroke-width:0.38155606;stroke-linecap:butt;stroke-linejoin:miter;stroke-miterlimit:4;stroke-opacity:1;stroke-dasharray:none" />
      <path
         d="M 50.228808,83.015502 C 33.848956,96.567383 12.794103,111.21364 5.3268392,122.67092 L 74.291355,86.556129 71.532847,85.328981 50.228808,83.015502 z"
         id="path2771"
         style="fill:url(#linearGradient3242);fill-opacity:1;fill-rule:evenodd;stroke:none;display:inline;enable-background:new" />
      <path
         d="m 59.297059,93.511813 16.756384,-4.797988 c 0,0 -0.739948,-6.481917 -1.226187,-9.162617 -0.467689,-2.578431 -1.886245,-8.217733 -1.886245,-8.217733 l 2.240926,-2.711654 -3.688517,-4.810638 c 0,0 -2.859834,3.814646 -3.191661,5.892311 -0.687574,4.305081 2.346519,14.506618 2.346519,14.506618 l -11.351219,9.301701 z"
         id="path3570"
         sodipodi:nodetypes="ccscccscc"
         style="fill:#000000;fill-opacity:1;fill-rule:evenodd;stroke:#0f1012;stroke-width:0.76311213px;stroke-linecap:butt;stroke-linejoin:miter;stroke-opacity:1" />
      <path
         d="m -50.911688,135.88388 -12.551145,6.54074 18.915106,-3.0052"
         id="path3572"
         style="opacity:0.5;fill:none;stroke:#ffffff;stroke-width:1px;stroke-linecap:round;stroke-linejoin:miter;stroke-opacity:1;filter:url(#filter3774)"
         transform="matrix(0.6991177,-0.06502509,0.07680971,0.8258202,95.075005,-29.775762)" />
      <path
         d="m -49.320698,134.64645 -0.176777,-15.02602 -1.414214,-2.2981 c -0.964473,4.94224 0.848366,11.56321 1.590991,17.32412 z"
         id="path3626"
         sodipodi:nodetypes="cccc"
         style="opacity:0.5;fill:#ffffff;fill-opacity:1;fill-rule:evenodd;stroke:none;filter:url(#filter3770)"
         transform="matrix(0.6991177,-0.06502509,0.07680971,0.8258202,95.075005,-29.775762)" />
      <path
         d="m -46.138718,138.35876 c -0.732691,-5.53901 -0.474647,-11.25479 0.176777,-16.79379 1.962278,1.88462 3.472446,10.17233 3.181981,16.26346 l -3.358758,0.53033 z"
         id="path3628"
         sodipodi:nodetypes="cccc"
         style="opacity:0.2;fill:#ffffff;fill-opacity:1;fill-rule:evenodd;stroke:none;filter:url(#filter3778)"
         transform="matrix(0.6991177,-0.06502509,0.07680971,0.8258202,95.075005,-29.775762)" />
      <path
         d="m -49.674252,113.96357 0,2.82843 2.121321,0.35355 1.767767,-2.65165 -2.828427,-1.23743 -1.060661,0.7071 z"
         id="path3630"
         style="fill:#ffffff;fill-opacity:1;fill-rule:evenodd;stroke:none;filter:url(#filter3766)"
         transform="matrix(0.6991177,-0.06502509,0.07680971,0.8258202,95.075005,-29.775762)" />
      <path
         d="m -44.724504,117.85266 -1.06066,-0.35355 0.707107,-0.88388 1.59099,0 -1.237437,1.23743 z"
         id="path3632"
         style="fill:#ffffff;fill-opacity:1;fill-rule:evenodd;stroke:none;filter:url(#filter3762)"
         transform="matrix(0.6991177,-0.06502509,0.07680971,0.8258202,95.075005,-29.775762)" />
      <path
         d="m 71.164775,62.958258 4.675834,6.044046 c 0.228043,0.22593 0.49302,0.335642 0.975124,-0.237948 l 12.148442,-10.1121 C 86.38984,54.652008 83.893072,51.485732 81.463554,49.042485 L 70.905406,61.509901 c -0.0402,0.446043 -0.187957,0.860884 0.259369,1.448357 z"
         id="path3782"
         sodipodi:nodetypes="ccccccc"
         style="fill:url(#linearGradient3233);fill-opacity:1;fill-rule:evenodd;stroke:none" />
      <path
         d="M 81.347012,48.91413 C 92.42643,35.073239 104.94602,22.644436 118.08691,10.824805 c 0.40173,-0.390712 1.06723,-0.290639 1.74779,-0.162563 2.92683,2.165401 5.80587,4.462973 7.8159,9.164493 0.3421,1.056251 0.35394,2.351397 0.25826,3.724319 C 113.29174,40.252859 100.96854,48.898113 88.200648,59.105203 86.398165,55.136477 84.405012,51.393876 81.347012,48.91413 z"
         id="path3800"
         sodipodi:nodetypes="ccccccc"
         style="fill:url(#linearGradient3228);fill-opacity:1;fill-rule:evenodd;stroke:url(#linearGradient3230);stroke-width:0.38155606;stroke-linecap:butt;stroke-linejoin:miter;stroke-miterlimit:4;stroke-opacity:1;stroke-dasharray:none" />
      <path
         d="m 116.84082,16.121271 -0.25017,0.153419 c -0.44276,0.570996 -0.91469,1.03364 -1.55479,1.289937 -0.66477,0.357921 -1.34125,0.662374 -1.99629,1.044671 -0.69246,0.431486 -1.38403,0.873938 -1.97734,1.485419 -0.56268,0.582633 -0.97472,1.324705 -1.46814,1.984691 -0.64624,0.796091 -1.26832,1.616282 -1.81578,2.511599 -0.48985,0.784621 -0.99011,1.58799 -1.47583,2.375858 -1.18439,0.944338 -2.37083,1.874432 -3.54917,2.829003 -1.52003,1.114566 -3.096313,2.141071 -4.479505,3.488195 -0.810058,0.706021 -1.593836,1.460201 -2.397974,2.175296 l 0.272015,-0.155451 c 0.779077,-0.705903 1.544729,-1.45408 2.334832,-2.143393 1.276508,-1.26444 2.741292,-2.185339 4.151552,-3.223421 1.19437,-0.976078 2.40465,-1.929034 3.60991,-2.886712 -0.0717,0.116166 -0.13736,0.241802 -0.20911,0.357842 -0.68897,1.123319 -1.33767,2.245714 -2.26547,3.126086 -0.4727,0.55205 -0.98313,1.056832 -1.4847,1.569749 -0.5409,0.43715 -1.07727,0.884278 -1.61793,1.321841 0.4808,-0.391097 0.97539,-0.762017 1.45756,-1.150743 -0.80539,0.814061 -1.62785,1.597068 -2.468564,2.364072 -1.12411,1.016421 -2.304553,1.953647 -3.425537,2.973684 -0.978015,0.907854 -2.000806,1.747902 -2.968897,2.67091 -0.77111,0.68589 -1.576714,1.314287 -2.27169,2.11149 -0.838032,0.789324 -1.677426,1.58669 -2.485608,2.417718 -0.682348,0.686691 -1.343633,1.396589 -2.084664,1.989975 0.531822,-0.885022 1.113529,-1.741978 1.723593,-2.555084 0.933132,-1.292197 2.088666,-2.30116 3.214753,-3.344531 0.781253,-0.71252 1.590835,-1.353482 2.414776,-1.994648 1.316267,-1.05254 2.637183,-2.090394 3.962122,-3.127712 0.94733,-0.726772 1.880656,-1.48352 2.810676,-2.239712 -0.886897,0.717132 -1.789783,1.406511 -2.691593,2.098486 -1.303008,1.016608 -2.583363,2.039728 -3.879533,3.06797 -0.957788,0.742764 -1.915519,1.497071 -2.825321,2.319164 -1.112357,1.033826 -2.254841,2.0553 -3.171058,3.340466 -0.616352,0.823046 -1.200051,1.669856 -1.745441,2.557117 -0.209283,0.159578 -0.417834,0.312937 -0.641265,0.450096 -0.978306,0.676017 -1.920223,1.444977 -2.912466,2.092998 l -0.218719,0.254615 c 1.009154,-0.676704 1.971759,-1.458782 2.973207,-2.150709 0.261148,-0.162759 0.497777,-0.34959 0.743302,-0.537677 -0.361459,0.593401 -0.72242,1.185856 -1.043188,1.815016 L 85.40539,48.69341 c 0.288367,-0.624765 0.611593,-1.228024 0.955799,-1.806888 0.826227,-0.660086 1.592822,-1.432561 2.351878,-2.197038 0.81733,-0.839061 1.65715,-1.649375 2.505056,-2.445558 0.700597,-0.780007 1.494139,-1.421426 2.27409,-2.085683 0.960157,-0.928752 1.993097,-1.765883 2.968896,-2.67091 1.106596,-1.013983 2.252236,-1.93199 3.362395,-2.941781 0.911266,-0.836377 1.822516,-1.675382 2.692086,-2.567073 0.28039,-0.224577 0.55831,-0.455431 0.84053,-0.676871 1.31712,-0.995981 2.59896,-2.049145 3.90138,-3.070002 0.67416,-0.593565 0.36912,-0.333522 0.87463,-0.784164 l -0.22832,0.151387 c -0.36065,0.325886 -0.21613,0.173079 -0.46648,0.43384 -1.32388,1.049052 -2.64041,2.114437 -3.98397,3.129744 -0.24104,0.19178 -0.47647,0.39403 -0.71666,0.587259 0.41016,-0.427332 0.80702,-0.881417 1.19804,-1.334845 0.95322,-0.883965 1.61735,-2.024817 2.32861,-3.15799 0.0864,-0.140911 0.18339,-0.274638 0.26985,-0.415552 0.534,-0.425586 1.06998,-0.859271 1.59849,-1.294001 1.40311,-1.099567 2.75528,-2.287462 4.13235,-3.429876 0.80273,-0.616612 1.58437,-1.251692 2.32978,-1.960713 0.74186,-0.706121 1.57242,-1.290597 2.38068,-1.887356 0.14594,-0.112707 0.28406,-0.239649 0.43,-0.352356 l 0.17982,-0.198936 c -0.14675,0.113924 -0.28564,0.212625 -0.43239,0.326548 -0.952,0.703741 -1.91116,1.411017 -2.78883,2.23768 -0.73899,0.699207 -1.51754,1.341229 -2.30794,1.958681 -1.26408,1.062668 -2.51094,2.150599 -3.80439,3.165101 -0.55004,0.453826 -1.10353,0.907289 -1.65922,1.351712 0.46876,-0.76376 0.94297,-1.533341 1.41748,-2.292342 0.54876,-0.896201 1.16756,-1.715604 1.81578,-2.511599 0.49782,-0.667144 0.91172,-1.433362 1.48759,-2.01253 0.45004,-0.460798 0.98092,-0.776312 1.50605,-1.103193 0.65459,-0.383803 1.35229,-0.690871 2.01814,-1.046702 0.779,-0.358041 1.44801,-0.947275 2.00423,-1.670132 z m 6.0584,2.351882 -0.20887,0.123548 c -0.63786,0.644331 -0.31448,0.333778 -0.98891,0.977003 -1.23583,1.138992 -2.48455,2.270087 -3.71485,3.417075 -1.5288,1.367392 -2.91764,2.9057 -4.40029,4.339822 -0.21787,0.216289 -0.44949,0.419358 -0.66816,0.634809 -0.277,0.222922 -0.53286,0.46666 -0.81869,0.674839 0.0718,-0.05872 0.15701,-0.09176 0.22832,-0.151386 0.10458,-0.07252 0.20532,-0.160718 0.30851,-0.236936 -1.19772,1.172459 -2.41189,2.318856 -3.72444,3.313847 -1.78233,1.423679 -3.5715,2.846451 -5.38079,4.222777 -1.48186,1.197861 -2.91458,2.458316 -4.450452,3.563584 -1.321072,0.9041 -2.667058,1.793594 -4.005326,2.663188 -1.698103,1.11454 -3.330141,2.348313 -4.875403,3.733259 -0.954227,0.932667 -1.878004,1.913814 -2.69497,3.009854 -0.630683,0.538392 -1.24608,1.093037 -1.875547,1.632132 l -0.218719,0.254615 c 0.665759,-0.573004 1.334513,-1.147191 1.99943,-1.721746 -0.258752,0.355466 -0.527527,0.700376 -0.758438,1.085718 l 0.272016,-0.155451 c 0.22687,-0.408838 0.484767,-0.817711 0.748836,-1.188945 0.918798,-0.792389 1.843157,-1.575456 2.779226,-2.340907 -0.893074,0.730196 -1.801389,1.451499 -2.68199,2.201712 0.770623,-1.055635 1.66872,-1.953966 2.578288,-2.84282 1.450575,-1.303438 2.988787,-2.481782 4.58634,-3.524163 1.339846,-0.863546 2.664576,-1.734396 3.98588,-2.635349 1.550149,-1.108909 2.995699,-2.392061 4.491749,-3.593455 1.81,-1.383162 3.59397,-2.798828 5.38078,-4.222777 1.44398,-1.08377 2.77632,-2.373671 4.0889,-3.660106 0.57742,-0.446493 1.14256,-0.896812 1.67627,-1.405357 0.13249,-0.118756 0.27326,-0.257374 0.40575,-0.37613 l -0.22832,0.151387 c -0.13119,0.118303 -0.27696,0.23202 -0.40815,0.350323 -0.35772,0.338937 -0.726,0.649012 -1.10055,0.961357 0.1667,-0.164377 0.33905,-0.324765 0.50538,-0.489518 1.48833,-1.440235 2.88193,-2.999144 4.41974,-4.367661 1.23883,-1.154862 2.49101,-2.274247 3.73669,-3.419106 0.68261,-0.648679 0.36455,-0.328799 1.01076,-0.979036 z m -5.37691,2.84282 -0.25017,0.153419 c -0.60725,0.589615 -1.24612,1.119119 -1.81985,1.757103 -1.36672,1.353743 -2.60448,2.883219 -4.01904,4.174211 -0.0273,0.0206 -0.0553,0.03927 -0.0826,0.05974 -0.008,0.0072 -0.0115,0.0207 -0.0195,0.02784 -0.8395,0.627609 -1.71333,1.191227 -2.59171,1.750803 -1.74898,1.116826 -3.56654,2.125521 -5.23671,3.402444 -0.5749,0.395896 -1.12601,0.812746 -1.69308,1.224709 0.53164,-0.383782 1.07686,-0.743765 1.61529,-1.113354 1.65465,-1.258261 3.41704,-2.273642 5.15173,-3.368508 0.87913,-0.556434 1.75182,-1.125142 2.59171,-1.750803 -0.95597,0.952473 -1.88166,1.941221 -2.83806,2.893011 1.04183,-1.03401 2.06286,-2.066792 3.10527,-3.100076 0.18962,-0.145441 0.38972,-0.291054 0.57572,-0.444 0.88855,-0.660427 1.71075,-1.394224 2.53146,-2.161682 0.2296,-0.26904 0.48282,-0.535238 0.7193,-0.795745 l -0.27201,0.15545 c -0.23404,0.256741 -0.47247,0.502909 -0.69985,0.767907 -0.68502,0.647952 -1.37169,1.290152 -2.12092,1.837165 -0.15233,0.125473 -0.29478,0.259563 -0.44944,0.380195 1.36679,-1.27305 2.58054,-2.751637 3.91941,-4.060824 0.59136,-0.649076 1.26027,-1.185836 1.88299,-1.789006 z m 3.85901,2.634538 c -1.57463,1.052342 -3.18082,2.048706 -4.67828,3.246383 -0.4181,0.349565 -0.80863,0.719604 -1.22204,1.076776 0.45457,-0.393498 0.90987,-0.758404 1.37017,-1.142614 1.41303,-1.084383 2.89762,-2.038372 4.36978,-3.009448 l 0.16037,-0.171097 z m 1.13005,1.01419 -0.25017,0.153419 c -0.35276,0.509992 -0.745,0.959005 -1.17139,1.384427 -1.25574,1.29782 -2.54457,2.563275 -3.83177,3.818402 -2.02622,1.87168 -4.13597,3.611493 -6.21941,5.394043 2.11986,-1.805798 4.26268,-3.558272 6.32385,-5.455817 1.32121,-1.287217 2.65725,-2.567047 3.95805,-3.882208 0.43509,-0.426576 0.83448,-0.894944 1.19084,-1.412266 z m -7.15425,3.398582 c -1.35605,1.175952 -2.69264,2.406496 -3.95061,3.725334 -1.11863,1.16838 -2.25915,2.312518 -3.35328,3.513597 -0.0135,0.01038 -0.0278,0.01949 -0.0413,0.02987 -0.35287,0.388002 -0.69303,0.789253 -1.03525,1.189554 l 0.27201,-0.155451 c 0.34305,-0.418601 0.69423,-0.841324 1.0523,-1.2432 0.0406,-0.03116 0.0833,-0.05844 0.12389,-0.08961 0.64129,-0.480897 1.28032,-0.981655 1.91179,-1.479323 -0.63368,0.500445 -1.26983,0.971242 -1.91419,1.453516 1.0107,-1.12643 2.05002,-2.192206 3.08847,-3.280724 1.23118,-1.28469 2.52259,-2.513578 3.84617,-3.663561 z m 1.43688,0.04857 -0.16757,0.09368 c -0.23229,0.216844 -0.45773,0.419998 -0.69001,0.636841 -1.08452,0.960847 -2.19884,1.908447 -3.30645,2.832457 1.15252,-0.954874 2.30145,-1.907343 3.43273,-2.896263 0.24185,-0.222539 0.48946,-0.444174 0.7313,-0.666712 z m -5.4136,0.789852 c -0.71787,0.538109 -1.46079,1.004323 -2.19581,1.50574 -0.22261,0.147319 -0.44114,0.303539 -0.66312,0.452128 0.59266,-0.529355 1.18242,-1.057084 1.76871,-1.596165 l -0.14813,0.06584 c -0.59683,0.555778 -1.20364,1.106849 -1.8076,1.651843 -0.8509,0.571208 -1.70515,1.13842 -2.55042,1.720933 -0.23429,0.225309 -0.47374,0.44135 -0.70945,0.664679 -0.3151,0.278212 -0.63225,0.592664 -0.95482,0.869712 0.3544,-0.306408 0.71099,-0.625452 1.05925,-0.931486 0.17663,-0.169426 0.34879,-0.347112 0.52483,-0.517357 0.8116,-0.553709 1.6307,-1.092015 2.44838,-1.633351 -0.22373,0.20139 -0.44614,0.408585 -0.67056,0.609001 0.018,-0.01555 0.0452,-0.01634 0.0631,-0.0319 0.25999,-0.229395 0.51354,-0.465827 0.7726,-0.696582 0.24267,-0.160166 0.48273,-0.325633 0.72626,-0.484031 0.80771,-0.49503 1.57515,-1.069159 2.33674,-1.648999 z m 5.67504,-0.111354 -0.18703,0.121515 c -0.17314,0.195541 -0.34688,0.37343 -0.52002,0.568971 -0.88894,0.907523 -1.76192,1.8419 -2.65344,2.745689 0.9393,-0.944762 1.88126,-1.895092 2.82101,-2.839366 0.18172,-0.20101 0.35777,-0.3958 0.53948,-0.596809 z m -3.46252,3.523756 c -0.92365,0.935411 -1.86186,1.852835 -2.80636,2.759913 -0.6028,0.622899 -1.19918,1.271305 -1.80785,1.886137 0.63135,-0.63416 1.24482,-1.276971 1.87099,-1.91804 0.9247,-0.889164 1.83545,-1.815664 2.74322,-2.72801 z m -9.49501,1.924338 c -0.98292,0.843219 -2.01344,1.619587 -3.18184,2.039962 l -0.22112,0.228808 c 1.25368,-0.487191 2.34439,-1.354428 3.40296,-2.26877 z m -7.68603,3.604224 c -1.622123,1.395622 -3.26381,2.767795 -4.776501,4.322754 l 0.272015,-0.155451 c 1.415386,-1.507987 2.963888,-2.837759 4.504486,-4.167303 z m 8.70121,2.808888 c -0.64544,0.572432 -1.31395,1.107413 -1.98479,1.642292 -0.62459,0.488036 -1.24399,0.985898 -1.8681,1.47526 0.60613,-0.474769 1.2227,-0.945907 1.82921,-1.419582 0.68822,-0.550252 1.3613,-1.109219 2.02368,-1.69797 z m -12.101567,1.620141 c -0.843533,0.718457 -1.681382,1.438793 -2.507211,2.185457 0.820885,-0.756398 1.666014,-1.461732 2.507211,-2.185457 z m -2.507211,2.185457 c -0.91788,0.82989 -1.814705,1.683258 -2.641185,2.640429 l 0.272015,-0.155451 c 0.739994,-0.894886 1.535515,-1.716814 2.36917,-2.484978 z m 8.38848,-2.211872 c -2.432104,1.879563 -4.852636,3.790709 -7.324027,5.600905 -1.277571,0.982775 -2.524752,2.034358 -3.847839,2.934871 l -0.218719,0.254615 c 1.360869,-0.96064 2.642521,-2.050681 3.966922,-3.076099 2.5054,-1.844612 4.960042,-3.796251 7.423663,-5.714292 z m 2.202228,1.643309 c -1.385791,1.29568 -2.726211,2.656453 -4.028638,4.070984 l 0.272015,-0.155451 c 1.200965,-1.368497 2.456107,-2.684948 3.756623,-3.915533 z m -5.893115,4.400581 c -1.864648,1.162644 -3.783624,2.448155 -5.903653,2.865782 l -0.221119,0.228807 c 2.173645,-0.515654 4.137625,-1.827393 6.06403,-3.03688 0.02232,-0.01518 0.03844,-0.0425 0.06074,-0.05771 z"
         id="path3955"
         style="opacity:0.3;fill:#855a2f;fill-opacity:1;fill-rule:nonzero;stroke:#b07939;stroke-width:0.38155606;stroke-linecap:round;stroke-linejoin:round;stroke-miterlimit:4;stroke-opacity:1;stroke-dasharray:none;stroke-dashoffset:0;marker:none;visibility:visible;display:inline;overflow:visible;enable-background:accumulate" />
      <path
         d="m -24.75,95.5 c 20.486729,-13.201698 41.15423,-26.618782 58,-38 -0.626318,-1.416667 -1.407667,-2.833333 -4,-4.25 C 8.997385,64.994769 -8.026369,78.947263 -27,93.25 l 2.25,2.25 z"
         id="path3827"
         sodipodi:nodetypes="ccccc"
         style="opacity:0.5659574;fill:#ffffff;fill-opacity:1;fill-rule:evenodd;stroke:none;filter:url(#filter3853)"
         transform="matrix(0.6991177,-0.06502509,0.07680971,0.8258202,95.075005,-29.775762)" />
      <path
         d="m 38,61 0.5,3 -60,37.25 L 40.25,65.75 38,61 z"
         id="path3857"
         style="fill:#9d7144;fill-opacity:1;fill-rule:evenodd;stroke:none;filter:url(#filter3911)"
         transform="matrix(0.6991177,-0.06502509,0.07680971,0.8258202,95.075005,-29.775762)" />
      <path
         d="M -20,105.25 -19.5,104 C 2.5370261,91.5 21.78242,79 42,66.5 25.575267,78.340118 24.793705,80.701945 -20,105.25 z"
         id="path3915"
         sodipodi:nodetypes="cccc"
         style="opacity:0.3970213;fill:#855a2f;fill-opacity:1;fill-rule:evenodd;stroke:none;filter:url(#filter3949)"
         transform="matrix(0.6991177,-0.06502509,0.07680971,0.8258202,95.075005,-29.775762)" />
    </g>
    <g
       id="g4170"
       inkscape:export-filename="C:\Documents and Settings\guille\Mis documentos\My Dropbox\Ubuntu Icons\applications-development2.png"
       inkscape:export-xdpi="90"
       inkscape:export-ydpi="90"
       transform="translate(-0.13175,0.4141209)">
      <g
         id="g3271"
         style="display:inline;enable-background:new"
         transform="matrix(0.3677306,0,0,0.3677306,133.36205,2.994317)" />
    </g>
    <g
       id="g4439"
       inkscape:export-filename="C:\Documents and Settings\guille\Mis documentos\My Dropbox\Ubuntu Icons\applications-development2.png"
       inkscape:export-xdpi="90"
       inkscape:export-ydpi="90">
      <g
         id="g4210"
         style="display:inline;enable-background:new"
         transform="matrix(0.2428687,0,0,0.2428687,133.64078,54.758436)" />
    </g>
    <g
       id="g4358" />
    <g
       id="g4341" />
  </g>
</svg>
