<?xml version="1.0" encoding="UTF-8" standalone="no"?>
<!-- Created with Inkscape (http://www.inkscape.org/) -->

<svg
   xmlns:dc="http://purl.org/dc/elements/1.1/"
   xmlns:cc="http://creativecommons.org/ns#"
   xmlns:rdf="http://www.w3.org/1999/02/22-rdf-syntax-ns#"
   xmlns:svg="http://www.w3.org/2000/svg"
   xmlns="http://www.w3.org/2000/svg"
   xmlns:xlink="http://www.w3.org/1999/xlink"
   xmlns:sodipodi="http://sodipodi.sourceforge.net/DTD/sodipodi-0.dtd"
   xmlns:inkscape="http://www.inkscape.org/namespaces/inkscape"
   height="128"
   id="svg11300"
   inkscape:export-filename="/home/mma/BZR-WORK/breathe-icon-set/source_svg/rendered/computer.png"
   inkscape:export-xdpi="90.000000"
   inkscape:export-ydpi="90.000000"
   inkscape:output_extension="org.inkscape.output.svg.inkscape"
   inkscape:version="0.46+devel r21673"
   sodipodi:docname="preferences-desktop-personal.svg"
   sodipodi:version="0.32"
   style="display:inline;enable-background:new"
   version="1.0"
   width="128">
  <sodipodi:namedview
     bordercolor="#666666"
     borderopacity="0.25490196"
     fill="#f57900"
     gridtolerance="12"
     guidetolerance="13"
     height="300px"
     id="base"
     inkscape:current-layer="layer6"
     inkscape:cx="-39.17625"
     inkscape:cy="39.02825"
     inkscape:document-units="px"
     inkscape:grid-bbox="true"
     inkscape:guide-bbox="true"
     inkscape:pageopacity="0.0"
     inkscape:pageshadow="2"
     inkscape:showpageshadow="false"
     inkscape:snap-bbox="true"
     inkscape:snap-nodes="false"
     inkscape:window-height="1024"
     inkscape:window-maximized="0"
     inkscape:window-width="1456"
     inkscape:window-x="348"
     inkscape:window-y="77"
     inkscape:zoom="1"
     objecttolerance="7"
     pagecolor="#ffffff"
     showgrid="false"
     showguides="true"
     stroke="#ef2929"
     width="400px">
    <inkscape:grid
       empspacing="5"
       enabled="true"
       id="grid5883"
       spacingx="1px"
       spacingy="1px"
       type="xygrid"
       visible="true" />
  </sodipodi:namedview>
  <title
     id="title4119">Breathe Icon Theme computer</title>
  <defs
     id="defs3">
    <linearGradient
       id="linearGradient3478"
       inkscape:collect="always">
      <stop
         id="stop3480"
         offset="0"
         style="stop-color:#000000;stop-opacity:1;" />
      <stop
         id="stop3482"
         offset="1"
         style="stop-color:#000000;stop-opacity:0;" />
    </linearGradient>
    <linearGradient
       id="linearGradient3356">
      <stop
         id="stop3358"
         offset="0"
         style="stop-color:#ffffff;stop-opacity:1;" />
      <stop
         id="stop3364"
         offset="0.5"
         style="stop-color:#000000;stop-opacity:1;" />
      <stop
         id="stop3476"
         offset="0.75"
         style="stop-color:#ffffff;stop-opacity:1;" />
      <stop
         id="stop3360"
         offset="1"
         style="stop-color:#ffffff;stop-opacity:1;" />
    </linearGradient>
    <linearGradient
       id="linearGradient4249">
      <stop
         id="stop4251"
         offset="0"
         style="stop-color:#fea200;stop-opacity:1;" />
      <stop
         id="stop4253"
         offset="1"
         style="stop-color:#bd5a00;stop-opacity:1;" />
    </linearGradient>
    <linearGradient
       id="linearGradient3439">
      <stop
         id="stop3441"
         offset="0"
         style="stop-color:#846928;stop-opacity:1;" />
      <stop
         id="stop3443"
         offset="1"
         style="stop-color:#000000;stop-opacity:1;" />
    </linearGradient>
    <linearGradient
       id="linearGradient4073"
       inkscape:collect="always">
      <stop
         id="stop4075"
         offset="0"
         style="stop-color:#000000;stop-opacity:1;" />
      <stop
         id="stop4077"
         offset="1"
         style="stop-color:#000000;stop-opacity:0;" />
    </linearGradient>
    <linearGradient
       id="linearGradient3811"
       inkscape:collect="always">
      <stop
         id="stop3813"
         offset="0"
         style="stop-color:#676767;stop-opacity:1" />
      <stop
         id="stop3815"
         offset="1"
         style="stop-color:#000000;stop-opacity:0;" />
    </linearGradient>
    <linearGradient
       id="linearGradient3793">
      <stop
         id="stop3795"
         offset="0"
         style="stop-color:#636363;stop-opacity:1;" />
      <stop
         id="stop3801"
         offset="0.09838095"
         style="stop-color:#a4a4a4;stop-opacity:1" />
      <stop
         id="stop3803"
         offset="0.35462672"
         style="stop-color:#ececec;stop-opacity:1" />
      <stop
         id="stop3805"
         offset="0.52757776"
         style="stop-color:#bebebe;stop-opacity:1" />
      <stop
         id="stop3807"
         offset="0.75835264"
         style="stop-color:#ffffff;stop-opacity:1" />
      <stop
         id="stop3809"
         offset="0.96875"
         style="stop-color:#636363;stop-opacity:1;" />
      <stop
         id="stop3797"
         offset="1"
         style="stop-color:#636363;stop-opacity:0;" />
    </linearGradient>
    <linearGradient
       id="linearGradient3683"
       inkscape:collect="always">
      <stop
         id="stop3685"
         offset="0"
         style="stop-color:#000000;stop-opacity:1;" />
      <stop
         id="stop3687"
         offset="1"
         style="stop-color:#636363;stop-opacity:1" />
    </linearGradient>
    <linearGradient
       id="linearGradient3573"
       inkscape:collect="always">
      <stop
         id="stop3575"
         offset="0"
         style="stop-color:#d0d0d0;stop-opacity:1" />
      <stop
         id="stop3577"
         offset="1"
         style="stop-color:#ffffff;stop-opacity:1" />
    </linearGradient>
    <filter
       color-interpolation-filters="sRGB"
       id="filter3785"
       inkscape:collect="always">
      <feGaussianBlur
         id="feGaussianBlur3787"
         inkscape:collect="always"
         stdDeviation="0.2990978" />
    </filter>
    <filter
       color-interpolation-filters="sRGB"
       id="filter11835"
       inkscape:collect="always">
      <feGaussianBlur
         id="feGaussianBlur11837"
         inkscape:collect="always"
         stdDeviation="1.6382979" />
    </filter>
    <filter
       color-interpolation-filters="sRGB"
       id="filter3498"
       inkscape:collect="always">
      <feGaussianBlur
         id="feGaussianBlur3500"
         inkscape:collect="always"
         stdDeviation="0.89890439" />
    </filter>
    <linearGradient
       gradientTransform="matrix(4.7198614,-0.3824823,0.3824823,4.7198612,-64.666587,-41.385904)"
       gradientUnits="userSpaceOnUse"
       id="linearGradient5200"
       inkscape:collect="always"
       x1="27.190777"
       x2="28.387905"
       xlink:href="#linearGradient4249"
       y1="24.8652"
       y2="26.186132" />
    <linearGradient
       gradientTransform="matrix(4.7198614,-0.3824823,0.3824823,4.7198612,-64.666587,-41.385904)"
       gradientUnits="userSpaceOnUse"
       id="linearGradient5203"
       inkscape:collect="always"
       x1="14.332747"
       x2="13.282487"
       xlink:href="#linearGradient3439"
       y1="35.984867"
       y2="37.162407" />
    <linearGradient
       gradientTransform="translate(3.5e-7,2.7996413)"
       gradientUnits="userSpaceOnUse"
       id="linearGradient5206"
       inkscape:collect="always"
       x1="86.614334"
       x2="128.64967"
       xlink:href="#linearGradient3478"
       y1="96.514503"
       y2="81.842041" />
    <linearGradient
       gradientTransform="translate(-43.298331,9.0274643)"
       gradientUnits="userSpaceOnUse"
       id="linearGradient5210"
       inkscape:collect="always"
       x1="124.31915"
       x2="61.689938"
       xlink:href="#linearGradient4073"
       y1="91.612099"
       y2="116.73868" />
    <linearGradient
       gradientTransform="matrix(1.2462312,0,0,1.2462312,-13.77136,-3.4857979)"
       gradientUnits="userSpaceOnUse"
       id="linearGradient5227"
       inkscape:collect="always"
       x1="63.125"
       x2="63.125"
       xlink:href="#linearGradient3793"
       y1="25.53125"
       y2="49.625" />
    <linearGradient
       gradientTransform="matrix(1.2462312,0,0,1.2462312,-13.77136,-3.4857979)"
       gradientUnits="userSpaceOnUse"
       id="linearGradient5229"
       inkscape:collect="always"
       x1="58.674438"
       x2="58.731907"
       xlink:href="#linearGradient3811"
       y1="50.125"
       y2="37.578125" />
    <linearGradient
       gradientTransform="matrix(1.2462312,0,0,1.2462312,54.22864,-3.4857979)"
       gradientUnits="userSpaceOnUse"
       id="linearGradient5232"
       inkscape:collect="always"
       x1="46.373646"
       x2="31.716814"
       xlink:href="#linearGradient3683"
       y1="91.695389"
       y2="53.271236" />
    <linearGradient
       gradientTransform="matrix(1.2462312,0,0,1.2462312,-13.77136,-3.4857979)"
       gradientUnits="userSpaceOnUse"
       id="linearGradient5236"
       inkscape:collect="always"
       x1="106.73375"
       x2="27.445816"
       xlink:href="#linearGradient3573"
       y1="100.69273"
       y2="46.106041" />
    <linearGradient
       gradientTransform="matrix(4.7339716,-0.1135598,0.1135599,4.7339716,-69.086422,-42.979247)"
       gradientUnits="userSpaceOnUse"
       id="linearGradient5246"
       inkscape:collect="always"
       x1="35.572632"
       x2="39.449226"
       xlink:href="#linearGradient3356"
       y1="10.261821"
       y2="15.23018" />
    <linearGradient
       gradientTransform="matrix(4.7339716,-0.1135598,0.1135599,4.7339716,-69.086422,-42.979247)"
       gradientUnits="userSpaceOnUse"
       id="linearGradient5249"
       inkscape:collect="always"
       x1="31.278681"
       x2="33.756512"
       xlink:href="#linearGradient3356"
       y1="16.37915"
       y2="18.309917" />
    <linearGradient
       gradientTransform="matrix(4.7339716,-0.1135598,0.1135599,4.7339716,-69.086422,-42.979247)"
       gradientUnits="userSpaceOnUse"
       id="linearGradient5252"
       inkscape:collect="always"
       x1="35.877872"
       x2="40.270573"
       xlink:href="#linearGradient3356"
       y1="11.953979"
       y2="16.213001" />
  </defs>
  <metadata
     id="metadata4">
    <rdf:RDF>
      <cc:Work
         rdf:about="">
        <dc:format>image/svg+xml</dc:format>
        <dc:type
           rdf:resource="http://purl.org/dc/dcmitype/StillImage" />
        <dc:creator>
          <cc:Agent>
            <dc:title>Breathe Icon Team</dc:title>
          </cc:Agent>
        </dc:creator>
        <dc:source />
        <cc:license
           rdf:resource="http://creativecommons.org/licenses/by-sa/3.0/" />
        <dc:title>Breathe Icon Theme template</dc:title>
        <dc:subject>
          <rdf:Bag />
        </dc:subject>
        <dc:date />
        <dc:rights>
          <cc:Agent>
            <dc:title />
          </cc:Agent>
        </dc:rights>
        <dc:publisher>
          <cc:Agent>
            <dc:title />
          </cc:Agent>
        </dc:publisher>
        <dc:identifier />
        <dc:relation />
        <dc:language />
        <dc:coverage />
        <dc:description>template</dc:description>
        <dc:contributor>
          <cc:Agent>
            <dc:title>Jakub Steiner, Cory Kontros, Oxygen icon team</dc:title>
          </cc:Agent>
        </dc:contributor>
      </cc:Work>
      <cc:License
         rdf:about="http://creativecommons.org/licenses/by-sa/3.0/">
        <cc:permits
           rdf:resource="http://creativecommons.org/ns#Reproduction" />
        <cc:permits
           rdf:resource="http://creativecommons.org/ns#Distribution" />
        <cc:requires
           rdf:resource="http://creativecommons.org/ns#Notice" />
        <cc:requires
           rdf:resource="http://creativecommons.org/ns#Attribution" />
        <cc:prohibits
           rdf:resource="http://creativecommons.org/ns#CommercialUse" />
        <cc:permits
           rdf:resource="http://creativecommons.org/ns#DerivativeWorks" />
        <cc:requires
           rdf:resource="http://creativecommons.org/ns#ShareAlike" />
      </cc:License>
    </rdf:RDF>
  </metadata>
  <g
     id="layer1"
     inkscape:groupmode="layer"
     inkscape:label="categories/preferences-desktop-personal"
     style="display:inline"
     transform="translate(-3,-4)">
    <rect
       height="256"
       id="256x256"
       inkscape:label="256x256"
       style="fill:#eeeeec;fill-opacity:1;fill-rule:nonzero;stroke:none;stroke-width:5;marker:none;visibility:visible;display:none;overflow:visible;enable-background:accumulate"
       width="256"
       x="26.5"
       y="32.823101" />
    <rect
       height="48"
       id="48x48"
       inkscape:label="48x48"
       style="fill:#eeeeec;fill-opacity:1;fill-rule:nonzero;stroke:none;stroke-width:5;marker:none;visibility:visible;display:none;overflow:visible;enable-background:accumulate"
       width="48"
       x="-35.5"
       y="32.823101" />
    <text
       id="text6091"
       sodipodi:linespacing="125%"
       style="font-size:56.11526489px;font-style:normal;font-variant:normal;font-weight:bold;font-stretch:normal;text-indent:0;text-align:start;text-decoration:none;line-height:125%;letter-spacing:normal;word-spacing:normal;text-transform:none;direction:ltr;block-progression:tb;writing-mode:lr-tb;text-anchor:start;fill:#2e3436;fill-opacity:1;fill-rule:nonzero;stroke:none;stroke-width:5;marker:none;visibility:visible;display:none;overflow:visible;enable-background:accumulate;font-family:Myriad"
       x="-418.41196"
       xml:space="preserve"
       y="34.084831"><tspan
         id="tspan6093"
         sodipodi:role="line"
         x="-418.41196"
         y="34.084831">audio-x-generic</tspan></text>
    <g
       id="layer6"
       inkscape:groupmode="layer"
       inkscape:label="plate"
       sodipodi:insensitive="true"
       style="display:none" />
    <g
       id="Livello_1"
       transform="translate(387.11439,42.495045)" />
    <g
       id="g3290"
       transform="translate(443.11439,59.884345)" />
    <g
       id="g7148"
       transform="matrix(0.1956571,0,0,0.1956571,345.26471,19.402885)" />
    <g
       id="g7555"
       transform="matrix(0.1333333,0,0,0.1333333,319.90372,105.99052)" />
    <g
       id="g9283"
       transform="matrix(1.0666666,0,0,1.0666666,384.44667,40.470571)" />
  </g>
  <text
     id="barcode_bottomtext"
     style="font-size:15.81447315px;text-align:center;text-anchor:middle;fill:#000000"
     transform="scale(1.4099821,0.70922888)"
     x="28.709538"
     xml:space="preserve"
     y="159.74934" />
  <g
     id="g5265"
     transform="translate(-3,-4)">
    <path
       d="m 63.125,25.53125 c -5.3867,0 -9.750001,4.363301 -9.75,9.75 0,0.629229 0.0425,1.247773 0.15625,1.84375 l -3.34375,0 c -1.554906,0 -2.778253,1.190637 -2.875,2.71875 l -26.28125,0 c -3.040997,0 -5.46875,2.459005 -5.46875,5.5 l 0,53.96875 c 0,3.041 2.427753,5.5 5.46875,5.5 l 87.53125,0 c 3.041,0 5.5,-2.459 5.5,-5.5 l 0,-53.96875 c 0,-3.040997 -2.459,-5.5 -5.5,-5.5 l -29.625,0 C 78.840753,38.315637 77.617404,37.125 76.0625,37.125 l -3.34375,0 c 0.113751,-0.595978 0.15625,-1.21452 0.15625,-1.84375 0,-5.3867 -4.363301,-9.749999 -9.75,-9.75 z m 0,3.46875 c 2.394506,0 4.250003,1.865467 4.25,4.28125 -10e-7,1.745217 -0.964005,3.177851 -2.40625,3.84375 l -3.6875,0 c -1.4513,-0.670881 -2.437501,-2.113907 -2.4375,-3.84375 0,-2.394506 1.886743,-4.281249 4.28125,-4.28125 z"
       id="rect3581"
       style="fill:none;stroke:#000000;stroke-width:0.99981445;stroke-linecap:round;stroke-linejoin:round;stroke-miterlimit:4;stroke-opacity:1;stroke-dasharray:none;stroke-dashoffset:0;marker:none;visibility:visible;display:inline;overflow:visible;filter:url(#filter3498);enable-background:accumulate"
       transform="matrix(1.2462312,0,0,1.2462312,-13.77136,-3.4857979)" />
    <rect
       height="80.949081"
       id="rect2801"
       rx="6.8407679"
       ry="6.8407679"
       style="fill:url(#linearGradient5236);fill-opacity:1;fill-rule:nonzero;stroke:none;stroke-width:0.2;marker:none;visibility:visible;display:inline;overflow:visible;enable-background:accumulate"
       width="122.75377"
       x="5.6108146"
       y="46.182106" />
    <path
       d="m 20.740138,59.901919 1.645307,0 c 0.351875,6e-6 0.66183,0.02681 0.929866,0.08041 0.268029,0.05361 0.492076,0.140207 0.672143,0.259785 0.180058,0.119589 0.315449,0.276285 0.406172,0.470088 0.09071,0.193813 0.136073,0.432293 0.136078,0.71544 -5e-6,0.170445 -0.02681,0.32989 -0.08041,0.478335 -0.05361,0.148452 -0.131271,0.279032 -0.232982,0.391739 -0.101719,0.112715 -0.227488,0.20687 -0.377307,0.282465 -0.149827,0.0756 -0.319581,0.125772 -0.509262,0.150511 l 0,0.04124 c 0.189681,0.03299 0.367682,0.08041 0.534003,0.142264 0.166314,0.06186 0.311326,0.147077 0.435038,0.255661 0.123702,0.108591 0.221294,0.245356 0.292773,0.410296 0.07147,0.164945 0.107209,0.365626 0.107213,0.602042 -4e-6,0.274907 -0.04468,0.520259 -0.134016,0.736058 -0.08935,0.215801 -0.218554,0.398613 -0.387616,0.548436 -0.169071,0.149823 -0.374562,0.264596 -0.616474,0.344318 -0.24192,0.07972 -0.51545,0.119584 -0.820592,0.119584 l -1.999934,0 0,-6.028667 z m 0.766985,2.556617 1.006153,0 c 0.230917,3e-6 0.424725,-0.02061 0.581424,-0.06185 0.156692,-0.04123 0.283148,-0.102398 0.379369,-0.183499 0.09621,-0.08109 0.165626,-0.182808 0.20824,-0.305145 0.04261,-0.122328 0.06391,-0.264591 0.06392,-0.42679 -4e-6,-0.329881 -0.105843,-0.566299 -0.317516,-0.709254 -0.21168,-0.142946 -0.545689,-0.214421 -1.002028,-0.214426 l -0.919558,0 0,1.900968 z m 0,0.643277 0,2.177248 1.096871,0 c 0.241914,10e-7 0.444656,-0.02749 0.608228,-0.08247 0.163565,-0.05498 0.295519,-0.131954 0.395863,-0.230921 0.100336,-0.09896 0.172499,-0.217861 0.216487,-0.356689 0.04398,-0.138825 0.06597,-0.292085 0.06598,-0.459778 -4e-6,-0.153945 -0.02268,-0.295521 -0.06804,-0.424729 -0.04536,-0.129203 -0.119588,-0.239852 -0.222673,-0.331947 -0.103093,-0.09209 -0.239858,-0.163566 -0.410296,-0.214426 -0.170444,-0.05085 -0.382121,-0.07628 -0.635031,-0.07629 l -1.047388,0 z m 6.333811,-1.781384 c 0.07972,5e-6 0.169064,0.0034 0.268033,0.01031 0.09896,0.0069 0.184183,0.01719 0.255661,0.03093 l -0.09896,0.69276 c -0.07698,-0.01374 -0.156012,-0.02542 -0.237106,-0.03505 -0.0811,-0.0096 -0.157386,-0.01443 -0.228858,-0.01443 -0.173193,4e-6 -0.331263,0.03505 -0.474211,0.105152 -0.142953,0.0701 -0.265973,0.170444 -0.36906,0.301021 -0.103092,0.130583 -0.182814,0.287279 -0.239168,0.470087 -0.05636,0.182815 -0.08453,0.385557 -0.08453,0.608228 l 0,2.441156 -0.750491,0 0,-4.527685 0.610289,0 0.09072,0.828838 0.03299,0 c 0.06872,-0.118205 0.142261,-0.232291 0.220611,-0.342257 0.07835,-0.109957 0.166316,-0.206861 0.263909,-0.290712 0.09759,-0.08384 0.206864,-0.151193 0.327824,-0.202055 0.120956,-0.05085 0.258408,-0.07628 0.412357,-0.07629 l 0,0 z m 3.195771,4.692628 c -0.302398,0 -0.578677,-0.05086 -0.828839,-0.152572 -0.250165,-0.101715 -0.465278,-0.250163 -0.645339,-0.445346 -0.180064,-0.195182 -0.319578,-0.437098 -0.418543,-0.725749 -0.09897,-0.288649 -0.148449,-0.618535 -0.148449,-0.989658 0,-0.373868 0.04536,-0.707878 0.136078,-1.002029 0.09072,-0.294145 0.218549,-0.543621 0.383493,-0.748429 0.164942,-0.2048 0.362186,-0.360808 0.591733,-0.468026 0.229544,-0.107208 0.483143,-0.160814 0.760799,-0.160819 0.272154,5e-6 0.516819,0.0488 0.733997,0.146387 0.217171,0.0976 0.401358,0.235048 0.552559,0.412357 0.151194,0.177318 0.267341,0.390369 0.348442,0.639155 0.08109,0.248792 0.121641,0.524384 0.121645,0.826776 l 0,0.465964 -2.853514,0 c 0.01374,0.530569 0.125768,0.920933 0.336072,1.171096 0.2103,0.250164 0.523004,0.375246 0.938113,0.375245 0.140199,10e-7 0.270092,-0.0069 0.389678,-0.02062 0.119581,-0.01375 0.235041,-0.03368 0.34638,-0.05979 0.111333,-0.02612 0.219234,-0.0591 0.323701,-0.09897 0.10446,-0.03986 0.210298,-0.08453 0.317515,-0.134017 l 0,0.668019 c -0.109966,0.05223 -0.217866,0.09759 -0.3237,0.136078 -0.105842,0.03849 -0.21443,0.0701 -0.325763,0.09484 -0.11134,0.02474 -0.2268,0.04261 -0.34638,0.05361 -0.119587,0.011 -0.249479,0.01649 -0.389678,0.01649 l 0,0 z m -0.185561,-4.069968 c -0.313394,4e-6 -0.561495,0.107217 -0.744305,0.321639 -0.182813,0.214429 -0.289339,0.526446 -0.319577,0.936051 l 2.028799,0 c -4e-6,-0.186932 -0.01856,-0.35806 -0.05567,-0.513385 -0.03712,-0.155318 -0.09484,-0.287959 -0.17319,-0.397925 -0.07835,-0.109958 -0.178004,-0.195179 -0.298959,-0.255661 -0.120961,-0.06048 -0.26666,-0.09072 -0.437099,-0.09072 l 0,0 z m 5.467861,3.987497 -0.152572,-0.626783 -0.03299,0 c -0.09072,0.123707 -0.18144,0.230233 -0.272156,0.319577 -0.09072,0.08934 -0.189687,0.162881 -0.296897,0.220611 -0.107215,0.05773 -0.226799,0.10034 -0.358751,0.127831 -0.131957,0.02749 -0.284529,0.04124 -0.457717,0.04124 -0.189686,0 -0.36425,-0.0268 -0.523694,-0.08041 -0.159446,-0.05361 -0.297586,-0.136078 -0.414419,-0.247415 -0.116836,-0.111336 -0.208241,-0.251537 -0.274218,-0.420604 -0.06598,-0.169066 -0.09897,-0.369059 -0.09897,-0.599981 0,-0.450842 0.158757,-0.797222 0.476273,-1.039141 0.317514,-0.241913 0.800659,-0.373868 1.449437,-0.395863 l 0.758738,-0.02887 0,-0.284526 c -4e-6,-0.184184 -0.01993,-0.33813 -0.05979,-0.461841 -0.03986,-0.123703 -0.09759,-0.223356 -0.17319,-0.298959 -0.0756,-0.07559 -0.16907,-0.129889 -0.280404,-0.162881 -0.111339,-0.03299 -0.238482,-0.04948 -0.38143,-0.04948 -0.228173,4e-6 -0.440537,0.03299 -0.637093,0.09897 -0.196558,0.06598 -0.385555,0.145703 -0.566991,0.239167 l -0.263909,-0.56493 c 0.203429,-0.109957 0.430225,-0.203425 0.68039,-0.280403 0.250162,-0.07697 0.512696,-0.115455 0.787603,-0.11546 0.2804,5e-6 0.523004,0.02818 0.727811,0.08453 0.204801,0.05636 0.373867,0.145704 0.507199,0.268033 0.133326,0.122337 0.232979,0.278345 0.29896,0.468025 0.06597,0.189689 0.09896,0.419234 0.09896,0.688638 l 0,3.100928 -0.540188,0 z m -1.377274,-0.523694 c 0.16769,0 0.323011,-0.02612 0.465964,-0.07835 0.142948,-0.05223 0.266655,-0.131266 0.371122,-0.237106 0.104461,-0.105837 0.186245,-0.239166 0.245353,-0.399986 0.0591,-0.160818 0.08865,-0.349815 0.08866,-0.566992 l 0,-0.408234 -0.589671,0.02887 c -0.247417,0.011 -0.45497,0.03849 -0.62266,0.08247 -0.167693,0.04399 -0.301709,0.105153 -0.402048,0.183499 -0.100342,0.07835 -0.172504,0.173192 -0.216488,0.284526 -0.04399,0.111338 -0.06598,0.237107 -0.06598,0.377308 -1e-6,0.252913 0.06666,0.438474 0.199993,0.556682 0.133328,0.11821 0.308579,0.177314 0.525756,0.177314 l 0,0 z m 4.680258,-0.0082 c 0.04948,0 0.105149,-0.0027 0.167005,-0.0082 0.06185,-0.0055 0.121643,-0.01237 0.179376,-0.02062 0.05773,-0.0082 0.110646,-0.01787 0.158757,-0.02887 0.04811,-0.011 0.08453,-0.02062 0.109275,-0.02886 l 0,0.569053 c -0.03574,0.01649 -0.0811,0.03299 -0.136078,0.04948 -0.05498,0.01649 -0.115463,0.03093 -0.181437,0.0433 -0.06598,0.01237 -0.134706,0.02199 -0.206179,0.02887 -0.07148,0.0069 -0.141578,0.01031 -0.210302,0.01031 -0.170443,0 -0.328514,-0.02199 -0.474212,-0.06598 -0.145701,-0.04399 -0.271469,-0.119583 -0.377307,-0.226796 -0.105839,-0.107213 -0.188998,-0.252225 -0.249476,-0.435038 -0.06048,-0.182811 -0.09072,-0.413043 -0.09072,-0.690698 l 0,-2.626718 -0.639154,0 0,-0.334009 0.639154,-0.321639 0.321639,-0.948422 0.432976,0 0,1.039141 1.138106,0 0,0.564929 -1.138106,0 0,2.626718 c -2e-6,0.266659 0.0433,0.467339 0.129892,0.602042 0.08659,0.134704 0.228857,0.202055 0.42679,0.202055 l 0,0 z m 4.329751,0.531941 0,-2.915368 c -3e-6,-0.357373 -0.07217,-0.625405 -0.216487,-0.804097 -0.144329,-0.178684 -0.370438,-0.268028 -0.678328,-0.268032 -0.222676,4e-6 -0.409611,0.03574 -0.560807,0.107213 -0.151198,0.07148 -0.272844,0.177317 -0.364935,0.317515 -0.0921,0.140205 -0.158072,0.312021 -0.197932,0.515447 -0.03986,0.203433 -0.05979,0.437102 -0.05979,0.701008 l 0,2.346314 -0.750491,0 0,-6.416283 0.750491,0 0,1.905092 -0.03299,0.593795 0.04124,0 c 0.06872,-0.118205 0.150509,-0.220607 0.245352,-0.307207 0.09484,-0.08659 0.198617,-0.158753 0.31133,-0.216487 0.112708,-0.05773 0.232292,-0.100336 0.35875,-0.127831 0.126454,-0.02749 0.255659,-0.04123 0.387616,-0.04124 0.503073,5e-6 0.881755,0.131272 1.136045,0.393801 0.254283,0.262539 0.381427,0.682456 0.381431,1.259753 l 0,2.956603 -0.750491,0 z m 3.942139,0.08247 c -0.302398,0 -0.578677,-0.05086 -0.828839,-0.152572 -0.250165,-0.101715 -0.465278,-0.250163 -0.645339,-0.445346 -0.180064,-0.195182 -0.319578,-0.437098 -0.418543,-0.725749 -0.09897,-0.288649 -0.148449,-0.618535 -0.148449,-0.989658 0,-0.373868 0.04536,-0.707878 0.136078,-1.002029 0.09072,-0.294145 0.218549,-0.543621 0.383493,-0.748429 0.164942,-0.2048 0.362186,-0.360808 0.591733,-0.468026 0.229544,-0.107208 0.483143,-0.160814 0.760799,-0.160819 0.272154,5e-6 0.516819,0.0488 0.733997,0.146387 0.217171,0.0976 0.401357,0.235048 0.552559,0.412357 0.151194,0.177318 0.267341,0.390369 0.348442,0.639155 0.08109,0.248792 0.121641,0.524384 0.121645,0.826776 l 0,0.465964 -2.853514,0 c 0.01374,0.530569 0.125768,0.920933 0.336072,1.171096 0.2103,0.250164 0.523004,0.375246 0.938113,0.375245 0.140199,10e-7 0.270091,-0.0069 0.389678,-0.02062 0.119581,-0.01375 0.23504,-0.03368 0.34638,-0.05979 0.111333,-0.02612 0.219233,-0.0591 0.323701,-0.09897 0.10446,-0.03986 0.210298,-0.08453 0.317515,-0.134017 l 0,0.668019 c -0.109966,0.05223 -0.217866,0.09759 -0.323701,0.136078 -0.105841,0.03849 -0.214429,0.0701 -0.325762,0.09484 -0.11134,0.02474 -0.2268,0.04261 -0.34638,0.05361 -0.119587,0.011 -0.249479,0.01649 -0.389678,0.01649 l 0,0 z m -0.185561,-4.069968 c -0.313394,4e-6 -0.561495,0.107217 -0.744305,0.321639 -0.182814,0.214429 -0.289339,0.526446 -0.319577,0.936051 l 2.028799,0 c -4e-6,-0.186932 -0.01856,-0.35806 -0.05567,-0.513385 -0.03712,-0.155318 -0.09484,-0.287959 -0.17319,-0.397925 -0.07835,-0.109958 -0.178004,-0.195179 -0.298959,-0.255661 -0.120961,-0.06048 -0.26666,-0.09072 -0.437099,-0.09072 l 0,0 z"
       id="text4065"
       style="font-size:11.61198711px;font-style:normal;font-variant:normal;font-weight:normal;font-stretch:normal;line-height:100%;fill:#000000;fill-opacity:1;stroke:none;display:inline;enable-background:new;font-family:Droid Sans;-inkscape-font-specification:Droid Sans" />
    <path
       d="m 99.638188,60.22777 c -7.027748,0 -12.734925,5.707177 -12.734925,12.734925 0,7.027748 5.707177,12.734927 12.734925,12.734924 7.027752,0 12.734922,-5.707176 12.734922,-12.734924 0,-7.027748 -5.70717,-12.734927 -12.734922,-12.734925 z m -11.21608,24.7299 c -2.87031,0.148904 -5.341697,2.562025 -7.944724,4.167085 l 0,27.378135 17.447236,0 3.46608,0 17.44724,0 0,-27.378135 c -4.4425,-2.739303 -8.4682,-7.860513 -14.83794,0 l -4.361812,6.776382 -4.322864,-6.776382 c -2.388652,-2.947692 -4.436925,-4.060311 -6.309046,-4.167085 -0.195012,-0.01112 -0.392817,-0.0099 -0.58417,0 z"
       id="path3665"
       style="fill:url(#linearGradient5232);fill-opacity:1;fill-rule:nonzero;stroke:none;stroke-width:1;marker:none;visibility:visible;display:inline;overflow:visible;enable-background:accumulate" />
    <path
       d="m 64.896982,28.332041 c -6.713073,0 -12.150755,5.437682 -12.150754,12.150754 0,0.784165 0.05296,1.555014 0.194724,2.297739 l -4.167086,0 c -2.017937,0 -3.621859,1.603922 -3.621859,3.621859 l 0,8.295226 c 0,2.017938 1.603922,3.660802 3.621859,3.660805 l 32.246232,0 c 2.017937,0 3.621861,-1.64287 3.621859,-3.660805 l 0,-8.295226 c 0,-2.017937 -1.603925,-3.621859 -3.621859,-3.621859 l -4.167086,0 c 0.14176,-0.742726 0.194724,-1.513573 0.194724,-2.297739 0,-6.713073 -5.437682,-12.150752 -12.150754,-12.150754 z m 0,4.322865 c 2.984108,0 5.296486,2.324803 5.296482,5.335427 -1e-6,2.174944 -1.201373,3.960337 -2.998743,4.790201 l -4.595478,0 c -1.808655,-0.836073 -3.037689,-2.634417 -3.037688,-4.790201 0,-2.984108 2.351318,-5.335426 5.335427,-5.335427 z"
       id="rect3691"
       style="fill:url(#linearGradient5227);fill-opacity:1;fill-rule:nonzero;stroke:url(#linearGradient5229);stroke-width:1.2462312;stroke-linecap:round;stroke-linejoin:round;stroke-miterlimit:4;stroke-opacity:1;stroke-dasharray:none;stroke-dashoffset:0;marker:none;visibility:visible;display:inline;overflow:visible;enable-background:accumulate" />
    <path
       d="m 63.4375,28.875 c -2.394506,0 -4.28125,1.886744 -4.28125,4.28125 0,2.394506 1.865466,4.25 4.28125,4.25 2.415784,0 4.249998,-1.834211 4.25,-4.25 0,-2.415784 -1.855494,-4.28125 -4.25,-4.28125 z"
       id="path3708"
       inkscape:original="M 63.4375 23.375 C 58.0508 23.375 53.65625 27.76955 53.65625 33.15625 C 53.65625 38.54295 58.0508 42.90625 63.4375 42.90625 C 68.8242 42.90625 73.187496 38.54295 73.1875 33.15625 C 73.1875 27.76955 68.8242 23.375 63.4375 23.375 z "
       inkscape:radius="-5.5016046"
       sodipodi:type="inkscape:offset"
       style="fill:none;stroke:#898989;stroke-width:1;stroke-linecap:round;stroke-linejoin:round;stroke-miterlimit:4;stroke-opacity:1;stroke-dasharray:none;stroke-dashoffset:0;marker:none;visibility:visible;display:inline;overflow:visible;filter:url(#filter3785);enable-background:accumulate"
       transform="matrix(1.2462312,0,0,1.2462312,-14.1514,-3.3179619)" />
    <rect
       height="24.924623"
       id="barcode_bar1"
       style="fill:#000000"
       width="2.4775691"
       x="11.27153"
       y="79.911903" />
    <rect
       height="24.924623"
       id="barcode_bar3"
       style="fill:#000000"
       width="2.4775691"
       x="18.704239"
       y="79.911903" />
    <rect
       height="24.924623"
       id="barcode_bar5"
       style="fill:#000000"
       width="4.9551382"
       x="23.659376"
       y="79.911903" />
    <rect
       height="24.924623"
       id="barcode_bar7"
       style="fill:#000000"
       width="4.9551382"
       x="31.092085"
       y="79.911903" />
    <rect
       height="24.924623"
       id="barcode_bar9"
       style="fill:#000000"
       width="2.4775691"
       x="38.524792"
       y="79.911903" />
    <rect
       height="24.924623"
       id="barcode_bar11"
       style="fill:#000000"
       width="2.4775691"
       x="43.479931"
       y="79.911903" />
    <rect
       height="24.924623"
       id="barcode_bar13"
       style="fill:#000000"
       width="2.4775691"
       x="50.912636"
       y="79.911903" />
    <rect
       height="24.924623"
       id="barcode_bar15"
       style="fill:#000000"
       width="4.9551382"
       x="55.867775"
       y="79.911903" />
    <rect
       height="24.924623"
       id="barcode_bar17"
       style="fill:#000000"
       width="4.9551382"
       x="63.300484"
       y="79.911903" />
    <rect
       height="24.924623"
       id="barcode_bar19"
       style="fill:#000000"
       width="2.4775691"
       x="70.733192"
       y="79.911903" />
    <path
       d="m 11.917375,120.98245 60.64754,0"
       id="path4063"
       style="fill:none;stroke:#000000;stroke-width:1.26861167px;stroke-linecap:butt;stroke-linejoin:miter;stroke-opacity:1;display:inline;enable-background:new" />
    <path
       d="m 52.762041,108.9578 c -6.279813,2.02445 -4.731067,1.36006 -23.481425,7.31889 14.60433,-2.11498 23.224585,-3.57352 32.325083,-4.87926 -32.124994,10.09067 -34.701421,9.68689 -45.800175,12.80805"
       id="path4071"
       sodipodi:nodetypes="cccc"
       style="fill:none;stroke:url(#linearGradient5210);stroke-width:1px;stroke-linecap:round;stroke-linejoin:round;stroke-opacity:1;display:inline;enable-background:new" />
    <path
       d="m 23.408091,71.303604 c -5e-6,0.508577 -0.06598,0.95461 -0.197931,1.3381 -0.13196,0.383494 -0.323018,0.703758 -0.573177,0.960793 -0.250168,0.257037 -0.557374,0.450158 -0.921619,0.579363 -0.364252,0.129205 -0.777297,0.193808 -1.239134,0.193808 l -1.509229,0 0,-6.028667 1.678295,0 c 0.420602,6e-6 0.801345,0.06323 1.14223,0.189684 0.340879,0.126462 0.630903,0.314085 0.870075,0.562868 0.239162,0.248794 0.424036,0.557375 0.554621,0.925743 0.130574,0.368377 0.195864,0.794479 0.195869,1.278308 l 0,0 z m -0.812344,0.02474 c -4e-6,-0.401358 -0.04536,-0.748425 -0.136078,-1.041203 -0.09072,-0.292769 -0.222677,-0.533998 -0.395863,-0.723687 -0.173194,-0.18968 -0.386245,-0.330569 -0.639154,-0.422667 -0.252916,-0.09209 -0.540191,-0.138134 -0.861827,-0.13814 l -0.828839,0 0,4.713247 0.668019,0 c 0.725746,0 1.272807,-0.20068 1.641183,-0.602042 0.368368,-0.40136 0.552555,-0.996529 0.552559,-1.785508 l 0,0 z m 3.830801,3.129793 c -0.302397,0 -0.578677,-0.05086 -0.828838,-0.152572 -0.250165,-0.101715 -0.465278,-0.250163 -0.64534,-0.445346 -0.180063,-0.195182 -0.319578,-0.437098 -0.418543,-0.725749 -0.09897,-0.288649 -0.148449,-0.618535 -0.148448,-0.989658 -1e-6,-0.373869 0.04536,-0.707878 0.136078,-1.002029 0.09072,-0.294145 0.218548,-0.543621 0.383492,-0.748429 0.164942,-0.2048 0.362186,-0.360809 0.591733,-0.468026 0.229544,-0.107208 0.483144,-0.160815 0.7608,-0.160819 0.272153,4e-6 0.516818,0.0488 0.733996,0.146387 0.217172,0.0976 0.401358,0.235048 0.552559,0.412357 0.151194,0.177318 0.267341,0.390369 0.348442,0.639154 0.08109,0.248792 0.121642,0.524384 0.121646,0.826777 l 0,0.465964 -2.853514,0 c 0.01374,0.530568 0.125767,0.920933 0.336071,1.171095 0.210301,0.250165 0.523005,0.375246 0.938113,0.375246 0.140199,0 0.270092,-0.0069 0.389678,-0.02062 0.119581,-0.01375 0.235041,-0.03368 0.346381,-0.05979 0.111333,-0.02612 0.219233,-0.0591 0.3237,-0.09897 0.10446,-0.03986 0.210299,-0.08453 0.317515,-0.134016 l 0,0.668019 c -0.109965,0.05223 -0.217865,0.09759 -0.3237,0.136078 -0.105842,0.03849 -0.214429,0.0701 -0.325763,0.09484 -0.111339,0.02474 -0.226799,0.04261 -0.34638,0.05361 -0.119586,0.011 -0.249479,0.01649 -0.389678,0.01649 l 0,0 z m -0.185561,-4.069968 c -0.313393,4e-6 -0.561495,0.107216 -0.744305,0.321638 -0.182813,0.21443 -0.289339,0.526447 -0.319577,0.936052 l 2.028799,0 c -3e-6,-0.186933 -0.01856,-0.358061 -0.05567,-0.513385 -0.03712,-0.155318 -0.09485,-0.28796 -0.17319,-0.397925 -0.07835,-0.109958 -0.178004,-0.195179 -0.29896,-0.255662 -0.12096,-0.06047 -0.26666,-0.09071 -0.437099,-0.09072 l 0,0 z m 5.624557,2.746301 c -4e-6,0.219925 -0.03986,0.412358 -0.119584,0.5773 -0.07973,0.164944 -0.194498,0.303083 -0.344318,0.414419 -0.149826,0.111337 -0.330576,0.194496 -0.542251,0.249477 -0.211679,0.05498 -0.449471,0.08247 -0.713378,0.08247 -0.299648,0 -0.556684,-0.02405 -0.771109,-0.07216 -0.214426,-0.04811 -0.402736,-0.118897 -0.564929,-0.212365 l 0,-0.684513 c 0.08522,0.04399 0.180062,0.08728 0.284526,0.129893 0.104463,0.04261 0.214425,0.08041 0.329886,0.113398 0.115459,0.03299 0.234356,0.05979 0.35669,0.08041 0.122331,0.02062 0.243976,0.03093 0.364936,0.03093 0.178686,10e-7 0.330571,-0.01512 0.455655,-0.04536 0.12508,-0.03024 0.226794,-0.07354 0.305145,-0.129892 0.07834,-0.05635 0.135388,-0.125081 0.171128,-0.206179 0.03574,-0.0811 0.0536,-0.171127 0.05361,-0.270094 -2e-6,-0.08522 -0.01375,-0.162193 -0.04124,-0.230921 -0.02749,-0.06872 -0.07766,-0.136763 -0.150511,-0.204117 -0.07285,-0.06735 -0.172505,-0.135389 -0.298959,-0.204117 -0.126458,-0.06872 -0.288652,-0.145697 -0.486582,-0.23092 -0.197933,-0.08522 -0.375934,-0.169064 -0.534003,-0.251538 -0.158071,-0.08247 -0.292087,-0.174562 -0.402048,-0.276279 -0.109963,-0.101712 -0.194496,-0.219234 -0.2536,-0.352566 -0.0591,-0.133326 -0.08866,-0.292083 -0.08866,-0.476273 -1e-6,-0.19243 0.0378,-0.363558 0.113398,-0.513385 0.0756,-0.149819 0.182124,-0.275588 0.319577,-0.377307 0.137452,-0.101711 0.302395,-0.178684 0.494829,-0.23092 0.192432,-0.05223 0.406858,-0.07834 0.643278,-0.07835 0.266656,4e-6 0.510633,0.02887 0.731935,0.0866 0.221295,0.05773 0.43091,0.133333 0.628845,0.226796 l -0.259786,0.606166 c -0.178691,-0.07972 -0.36219,-0.149132 -0.550497,-0.208241 -0.188312,-0.0591 -0.380058,-0.08865 -0.575238,-0.08866 -0.280405,4e-6 -0.487958,0.04605 -0.62266,0.138139 -0.134705,0.0921 -0.202057,0.223364 -0.202056,0.393802 -1e-6,0.09622 0.01581,0.180066 0.04742,0.251538 0.03161,0.07148 0.08591,0.13883 0.162881,0.202055 0.07697,0.06323 0.180061,0.127146 0.309268,0.191746 0.129203,0.06461 0.290023,0.136768 0.482458,0.216488 0.197929,0.08247 0.374556,0.164945 0.52988,0.247414 0.155318,0.08247 0.28796,0.175255 0.397925,0.278342 0.109958,0.103091 0.193804,0.220613 0.251538,0.352565 0.05773,0.131956 0.08659,0.290027 0.08659,0.474212 l 0,0 z m 1.851485,1.241196 -0.750491,0 0,-4.527686 0.750491,0 0,4.527686 z M 32.908808,68.62328 c 0,-0.164937 0.04192,-0.28452 0.125769,-0.358751 0.08385,-0.07422 0.187622,-0.11133 0.31133,-0.111336 0.06048,6e-6 0.117521,0.0089 0.171129,0.0268 0.05361,0.01788 0.100339,0.04605 0.140201,0.08453 0.03986,0.03849 0.07147,0.08729 0.09484,0.146387 0.02336,0.05911 0.03505,0.129899 0.03505,0.212364 -2e-6,0.159451 -0.0433,0.278347 -0.129893,0.35669 -0.0866,0.07835 -0.190373,0.117527 -0.31133,0.117522 -0.123708,5e-6 -0.227484,-0.03848 -0.31133,-0.115461 -0.08385,-0.07697 -0.125769,-0.196551 -0.125769,-0.358751 l 0,0 z m 5.740016,1.224702 0,0.465964 -0.812344,0.111337 c 0.07697,0.09622 0.141572,0.21924 0.193808,0.36906 0.05223,0.149826 0.07834,0.31958 0.07835,0.509261 -3e-6,0.208931 -0.0323,0.402051 -0.0969,0.579363 -0.06461,0.177316 -0.162197,0.330575 -0.292773,0.459778 -0.130583,0.129207 -0.29209,0.230235 -0.48452,0.303083 -0.192437,0.07285 -0.416484,0.109276 -0.672143,0.109275 -0.06048,10e-7 -0.12096,-6.86e-4 -0.181437,-0.0021 -0.06048,-0.0014 -0.109964,-0.0062 -0.148449,-0.01443 -0.04674,0.02749 -0.09278,0.05842 -0.13814,0.09278 -0.04536,0.03436 -0.0866,0.07354 -0.123707,0.117522 -0.03711,0.04399 -0.06735,0.09347 -0.09072,0.148448 -0.02337,0.05498 -0.03505,0.115462 -0.03505,0.181438 -2e-6,0.07422 0.01649,0.134017 0.04948,0.179375 0.03299,0.04536 0.07766,0.08041 0.134016,0.105151 0.05635,0.02474 0.123018,0.04124 0.199993,0.04948 0.07697,0.0082 0.158069,0.01237 0.243291,0.01237 l 0.725749,0 c 0.255659,1e-6 0.471459,0.0323 0.647402,0.0969 0.175935,0.0646 0.319573,0.151886 0.430913,0.261847 0.111333,0.109962 0.191743,0.239855 0.241229,0.389678 0.04948,0.149823 0.07422,0.30858 0.07422,0.476273 -4e-6,0.241915 -0.04468,0.45909 -0.134016,0.651525 -0.08935,0.192432 -0.226114,0.355313 -0.410296,0.488643 -0.18419,0.133327 -0.417172,0.235729 -0.698946,0.307207 -0.28178,0.07147 -0.613728,0.107211 -0.995843,0.107213 -0.29415,-2e-6 -0.551186,-0.02887 -0.771109,-0.0866 -0.219925,-0.05773 -0.402737,-0.141578 -0.548435,-0.251539 -0.145701,-0.109963 -0.254975,-0.242605 -0.327825,-0.397925 -0.07285,-0.155322 -0.109275,-0.330574 -0.109274,-0.525755 -1e-6,-0.164944 0.0268,-0.309956 0.08041,-0.435038 0.05361,-0.125082 0.125769,-0.232982 0.216488,-0.3237 0.09072,-0.09072 0.195869,-0.164943 0.315453,-0.222673 0.119583,-0.05773 0.243978,-0.101715 0.373184,-0.131955 -0.115461,-0.05223 -0.210303,-0.134703 -0.284527,-0.247414 -0.07422,-0.11271 -0.111337,-0.241916 -0.111336,-0.387616 -1e-6,-0.167691 0.04398,-0.312703 0.131954,-0.435037 0.08797,-0.122332 0.226796,-0.241228 0.416481,-0.35669 -0.11821,-0.04948 -0.22611,-0.11752 -0.3237,-0.204117 -0.09759,-0.08659 -0.180064,-0.185558 -0.247415,-0.296897 -0.06735,-0.111334 -0.119584,-0.232979 -0.156696,-0.364936 -0.03711,-0.131952 -0.05567,-0.26803 -0.05567,-0.408234 0,-0.244662 0.03436,-0.463212 0.103089,-0.655649 0.06873,-0.192429 0.170441,-0.355998 0.305145,-0.490705 0.134702,-0.134699 0.302394,-0.237789 0.503076,-0.309268 0.200679,-0.07147 0.434348,-0.107209 0.701008,-0.107213 0.101712,4e-6 0.206864,0.0076 0.315453,0.02268 0.108585,0.01512 0.199991,0.03505 0.274218,0.05979 l 1.496858,0 z m -3.34422,5.269929 c 0,0.101714 0.01787,0.196556 0.05361,0.284527 0.03574,0.08797 0.09415,0.163567 0.175252,0.226796 0.0811,0.06323 0.188309,0.113397 0.321639,0.150511 0.133327,0.03711 0.298957,0.05567 0.496891,0.05567 0.51132,-10e-7 0.894125,-0.07904 1.148415,-0.237105 0.254284,-0.158072 0.381427,-0.385555 0.381431,-0.682452 -4e-6,-0.126457 -0.0165,-0.229546 -0.04948,-0.309268 -0.03299,-0.07972 -0.08729,-0.142264 -0.162881,-0.187623 -0.0756,-0.04536 -0.175255,-0.07629 -0.298959,-0.09278 -0.12371,-0.01649 -0.274908,-0.02474 -0.453594,-0.02474 l -0.725749,0 c -0.09622,0 -0.196559,0.011 -0.301021,0.03299 -0.104465,0.02199 -0.199995,0.06323 -0.286588,0.123707 -0.0866,0.06048 -0.158072,0.143638 -0.214426,0.249476 -0.05636,0.105838 -0.08453,0.242604 -0.08453,0.410296 l 0,0 z m 0.379369,-3.814307 c -1e-6,0.316144 0.07422,0.551187 0.222673,0.705132 0.148448,0.153949 0.35875,0.230922 0.630907,0.23092 0.274903,2e-6 0.483143,-0.07628 0.624722,-0.228859 0.141573,-0.152569 0.212361,-0.392424 0.212364,-0.719563 -3e-6,-0.33813 -0.07217,-0.586919 -0.216488,-0.746368 -0.144327,-0.15944 -0.353942,-0.239163 -0.628845,-0.239167 -0.272158,4e-6 -0.481085,0.08248 -0.626783,0.247415 -0.145701,0.164946 -0.218551,0.41511 -0.21855,0.75049 l 0,0 z m 6.67607,3.072064 0,-2.915368 c -4e-6,-0.357373 -0.07217,-0.625405 -0.216488,-0.804097 -0.144328,-0.178684 -0.370438,-0.268028 -0.678328,-0.268032 -0.222676,4e-6 -0.409611,0.03574 -0.560806,0.107213 -0.1512,0.07148 -0.272845,0.177317 -0.364937,0.317515 -0.0921,0.140205 -0.158072,0.31202 -0.197931,0.515447 -0.03986,0.203432 -0.05979,0.437101 -0.05979,0.701007 l 0,2.346315 -0.750491,0 0,-4.527686 0.610289,0 0.107213,0.610289 0.04124,0 c 0.06873,-0.118205 0.150509,-0.220607 0.245353,-0.307206 0.09484,-0.08659 0.198617,-0.158753 0.31133,-0.216488 0.112708,-0.05773 0.232292,-0.100335 0.358751,-0.127831 0.126453,-0.02748 0.255659,-0.04123 0.387616,-0.04124 0.503072,4e-6 0.881754,0.131271 1.136044,0.393801 0.254283,0.262538 0.381426,0.682455 0.38143,1.259752 l 0,2.956604 -0.750489,0 z m 3.942135,0.08247 c -0.302398,0 -0.578677,-0.05086 -0.828838,-0.152572 -0.250165,-0.101715 -0.465278,-0.250163 -0.64534,-0.445346 -0.180064,-0.195182 -0.319578,-0.437098 -0.418543,-0.725749 -0.09897,-0.288649 -0.148449,-0.618535 -0.148449,-0.989658 0,-0.373869 0.04536,-0.707878 0.136078,-1.002029 0.09072,-0.294145 0.218549,-0.543621 0.383493,-0.748429 0.164942,-0.2048 0.362186,-0.360809 0.591733,-0.468026 0.229544,-0.107208 0.483143,-0.160815 0.7608,-0.160819 0.272153,4e-6 0.516818,0.0488 0.733996,0.146387 0.217172,0.0976 0.401358,0.235048 0.552559,0.412357 0.151194,0.177318 0.267341,0.390369 0.348442,0.639154 0.08109,0.248792 0.121641,0.524384 0.121646,0.826777 l 0,0.465964 -2.853514,0 c 0.01374,0.530568 0.125767,0.920933 0.336071,1.171095 0.2103,0.250165 0.523005,0.375246 0.938113,0.375246 0.140199,0 0.270092,-0.0069 0.389678,-0.02062 0.119581,-0.01375 0.235041,-0.03368 0.34638,-0.05979 0.111334,-0.02612 0.219234,-0.0591 0.323701,-0.09897 0.10446,-0.03986 0.210299,-0.08453 0.317515,-0.134016 l 0,0.668019 c -0.109965,0.05223 -0.217866,0.09759 -0.3237,0.136078 -0.105842,0.03849 -0.21443,0.0701 -0.325763,0.09484 -0.111339,0.02474 -0.226799,0.04261 -0.34638,0.05361 -0.119586,0.011 -0.249479,0.01649 -0.389678,0.01649 l 0,0 z M 46.116617,70.38817 c -0.313393,4e-6 -0.561495,0.107216 -0.744305,0.321638 -0.182813,0.21443 -0.289339,0.526447 -0.319577,0.936052 l 2.028799,0 c -3e-6,-0.186933 -0.01856,-0.358061 -0.05567,-0.513385 -0.03712,-0.155318 -0.09485,-0.28796 -0.173191,-0.397925 -0.07835,-0.109958 -0.178003,-0.195179 -0.298959,-0.255662 -0.120961,-0.06047 -0.26666,-0.09071 -0.437099,-0.09072 l 0,0 z m 4.874067,-0.62266 c 0.07972,4e-6 0.169064,0.0034 0.268033,0.01031 0.09896,0.0069 0.184183,0.01719 0.255661,0.03093 l -0.09896,0.692761 c -0.07698,-0.01374 -0.156012,-0.02542 -0.237106,-0.03505 -0.0811,-0.0096 -0.157386,-0.01443 -0.228858,-0.01443 -0.173193,4e-6 -0.331263,0.03505 -0.474211,0.105151 -0.142953,0.0701 -0.265973,0.170445 -0.36906,0.301021 -0.103092,0.130584 -0.182814,0.287279 -0.239168,0.470088 -0.05636,0.182815 -0.08454,0.385557 -0.08453,0.608227 l 0,2.441157 -0.750491,0 0,-4.527686 0.610289,0 0.09072,0.828839 0.03299,0 c 0.06872,-0.118205 0.142261,-0.232291 0.220611,-0.342257 0.07835,-0.109958 0.166316,-0.206862 0.263909,-0.290712 0.09759,-0.08384 0.206864,-0.151193 0.327824,-0.202055 0.120956,-0.05085 0.258408,-0.07628 0.412357,-0.07629 l 0,0 z"
       id="text11840"
       style="font-size:11.61198711px;font-style:normal;font-variant:normal;font-weight:normal;font-stretch:normal;line-height:100%;fill:#ff6600;fill-opacity:1;stroke:none;display:inline;enable-background:new;font-family:Droid Sans;-inkscape-font-specification:Droid Sans" />
    <path
       d="m 128.64967,76.777464 c -6.54603,0.806817 -12.93912,2.021865 -18.8125,4.5 0.1323,0.236863 0.33102,0.512373 0.53125,0.78125 -7.72224,2.691725 -15.409944,4.830065 -23.437502,11.28125 l 0.65625,0.21875 7.9375,-2.28125 -62.125,22.624996 -0.03125,0 -1.96875,1.03125 -12.09375,6.375 0.125,0.46875 c -3.121083,1.7493 -5.243841,3.20014 -4.90625,4.09375 0.314645,0.83287 2.913478,0.62967 5.96875,0.21875 l 0.09375,0.34375 16.125,-3.0625 80.500002,-27.312496 c 0.0143,0.285561 0.0176,0.578642 0,0.84375 l 11.4375,-4.875 0,-15.25 z"
       id="path11722"
       style="opacity:0.4;fill:url(#linearGradient5206);fill-opacity:1;fill-rule:nonzero;stroke:none;filter:url(#filter11835)" />
    <path
       d="m 20.976364,114.28289 -0.88738,0.65994 c -3.559818,5.34627 -6.668332,9.86881 -5.593,10.80259 1.120836,0.9733 6.384802,-3.46668 10.421123,-6.37199 l -3.940743,-5.09054 z"
       id="path4201"
       sodipodi:nodetypes="ccscc"
       style="fill:url(#linearGradient5203);fill-opacity:1;fill-rule:nonzero;stroke:none" />
    <path
       d="m 101.87741,23.362581 10.0212,-4.032659 -11.6526,19.502142 -67.423258,74.193556 -12.751032,10.34671 -3.547975,-3.90844 8.908326,-13.22798 76.445339,-82.873329 z"
       id="rect4196"
       sodipodi:nodetypes="cccccccc"
       style="fill:url(#linearGradient5200);fill-opacity:1;fill-rule:nonzero;stroke:#c75800;stroke-width:0.47353333;stroke-linecap:round;stroke-linejoin:round;stroke-miterlimit:4;stroke-opacity:1;stroke-dasharray:none;stroke-dashoffset:1.2" />
    <path
       d="m 87.896373,37.972203 -62.511319,68.309017 -8.810935,13.18027 1.815658,2.08739 9.18986,-12.85817 81.317573,-89.098749 -2.50945,-1.127219 -18.491387,19.507461 z"
       id="path3415"
       sodipodi:nodetypes="cccccccc"
       style="fill:#ffd161;fill-opacity:1;fill-rule:nonzero;stroke:#ec9f00;stroke-width:0.5;stroke-linecap:round;stroke-linejoin:round;stroke-miterlimit:4;stroke-opacity:1;stroke-dasharray:none;stroke-dashoffset:1.2" />
    <path
       d="m 121.41717,4.984609 c 1.7783,-0.191535 3.461,-1.99377 5.18656,4.739608 L 99.259458,40.57929 C 97.883496,37.270519 93.684603,33.922945 88.192325,30.156648 97.416296,19.451955 109.95708,13.151503 121.41717,4.984609 z"
       id="rect2567"
       sodipodi:nodetypes="ccccc"
       style="fill:url(#linearGradient5252);fill-opacity:1;fill-rule:nonzero;stroke:#4d4d4d;stroke-width:0.47353339;stroke-linecap:round;stroke-linejoin:round;stroke-miterlimit:4;stroke-opacity:1;stroke-dashoffset:1.2" />
    <path
       d="m 88.685936,29.18262 3.461372,3.419703 -18.455489,19.39348 C 75.322203,44.828531 82.585474,35.402092 88.685936,29.18262 z"
       id="rect2583"
       sodipodi:nodetypes="cccc"
       style="fill:url(#linearGradient5249);fill-opacity:1;fill-rule:nonzero;stroke:#4d4d4d;stroke-width:0.94706666;stroke-linecap:round;stroke-linejoin:round;stroke-miterlimit:4;stroke-opacity:1;stroke-dasharray:none;stroke-dashoffset:1.2" />
    <path
       d="m 122.60293,4.7103 c -0.38462,0.090107 -0.79983,0.20047 -1.19228,0.242741 -11.46009,8.166894 -25.764209,14.56565 -34.988181,25.270344 1.37307,0.941572 4.44668,1.850895 5.700468,2.779213 L 122.60293,4.7103 z"
       id="path3366"
       sodipodi:nodetypes="ccccc"
       style="fill:url(#linearGradient5246);fill-opacity:1;fill-rule:nonzero;stroke:#4d4d4d;stroke-width:1.42059994;stroke-linecap:round;stroke-linejoin:round;stroke-miterlimit:4;stroke-opacity:1;stroke-dasharray:none;stroke-dashoffset:1.2" />
  </g>
  <g
     id="g5315"
     style="display:inline;enable-background:new"
     transform="matrix(0.3742256,0,0,0.3742256,129.92688,-1.0526028)" />
  <g
     id="g5397"
     style="display:inline;enable-background:new"
     transform="matrix(0.2494837,0,0,0.2494837,130.28459,50.298269)" />
  <g
     id="g5473"
     style="display:inline;enable-background:new"
     transform="matrix(0.1673015,0,0,0.1673015,131.7908,85.664698)" />
  <g
     id="g5986"
     transform="translate(-3.00001,-4.2125737)">
    <g
       id="g5956"
       transform="matrix(1.2073639,1.1259209,-0.8351464,0.8955563,75.870937,-149.03036)">
      <g
         id="g5951" />
      <g
         id="g5940"
         transform="translate(0,4)" />
    </g>
  </g>
</svg>
