<?xml version="1.0" encoding="UTF-8" standalone="no"?>
<!-- Created with Inkscape (http://www.inkscape.org/) -->

<svg
   xmlns:dc="http://purl.org/dc/elements/1.1/"
   xmlns:cc="http://creativecommons.org/ns#"
   xmlns:rdf="http://www.w3.org/1999/02/22-rdf-syntax-ns#"
   xmlns:svg="http://www.w3.org/2000/svg"
   xmlns="http://www.w3.org/2000/svg"
   xmlns:xlink="http://www.w3.org/1999/xlink"
   xmlns:sodipodi="http://sodipodi.sourceforge.net/DTD/sodipodi-0.dtd"
   xmlns:inkscape="http://www.inkscape.org/namespaces/inkscape"
   height="128"
   id="svg11300"
   inkscape:export-filename="/home/micha/stopandgo/to do/Breathe/face-glasses3.png"
   inkscape:export-xdpi="90.000000"
   inkscape:export-ydpi="90.000000"
   inkscape:output_extension="org.inkscape.output.svg.inkscape"
   inkscape:version="0.46+devel r21673"
   sodipodi:docname="face-glasses.svg"
   sodipodi:version="0.32"
   style="display:inline"
   version="1.0"
   width="128">
  <title
     id="title4119">Breathe Icon Theme computer</title>
  <defs
     id="defs3">
    <linearGradient
       id="linearGradient3483">
      <stop
         id="stop3485"
         offset="0"
         style="stop-color: rgb(0, 0, 0); stop-opacity: 1;" />
      <stop
         id="stop3487"
         offset="0.72910821"
         style="stop-color: rgb(0, 0, 0); stop-opacity: 1;" />
      <stop
         id="stop3489"
         offset="0.88834018"
         style="stop-color: rgb(255, 255, 255); stop-opacity: 1;" />
      <stop
         id="stop3491"
         offset="1"
         style="stop-color: rgb(0, 0, 0); stop-opacity: 1;" />
    </linearGradient>
    <linearGradient
       id="linearGradient3465">
      <stop
         id="stop3467"
         offset="0"
         style="stop-color: rgb(0, 0, 0); stop-opacity: 1;" />
      <stop
         id="stop3469"
         offset="0.81"
         style="stop-color: rgb(0, 0, 0); stop-opacity: 1;" />
      <stop
         id="stop3471"
         offset="0.88834018"
         style="stop-color: rgb(255, 255, 255); stop-opacity: 1;" />
      <stop
         id="stop3473"
         offset="1"
         style="stop-color: rgb(0, 0, 0); stop-opacity: 1;" />
    </linearGradient>
    <linearGradient
       id="linearGradient3552">
      <stop
         id="stop3554"
         offset="0"
         style="stop-color: rgb(255, 255, 255); stop-opacity: 1;" />
      <stop
         id="stop3564"
         offset="0.5"
         style="stop-color: rgb(255, 255, 255); stop-opacity: 0.268;" />
      <stop
         id="stop3556"
         offset="1"
         style="stop-color: rgb(255, 255, 255); stop-opacity: 0;" />
    </linearGradient>
    <linearGradient
       id="linearGradient3538">
      <stop
         id="stop3540"
         offset="0"
         style="stop-color: rgb(255, 255, 255); stop-opacity: 1;" />
      <stop
         id="stop3542"
         offset="1"
         style="stop-color: rgb(255, 255, 255); stop-opacity: 0;" />
    </linearGradient>
    <linearGradient
       id="linearGradient3464">
      <stop
         id="stop3466"
         offset="0"
         style="stop-color: rgb(0, 26, 70); stop-opacity: 1;" />
      <stop
         id="stop3468"
         offset="1"
         style="stop-color: rgb(0, 7, 18); stop-opacity: 1;" />
    </linearGradient>
    <linearGradient
       id="linearGradient3450">
      <stop
         id="stop3452"
         offset="0"
         style="stop-color: rgb(0, 0, 0); stop-opacity: 1;" />
      <stop
         id="stop3458"
         offset="0.81"
         style="stop-color: rgb(0, 0, 0); stop-opacity: 1;" />
      <stop
         id="stop3462"
         offset="0.97000003"
         style="stop-color: rgb(255, 255, 255); stop-opacity: 1;" />
      <stop
         id="stop3454"
         offset="1"
         style="stop-color: rgb(0, 0, 0); stop-opacity: 1;" />
    </linearGradient>
    <linearGradient
       id="linearGradient3650">
      <stop
         id="stop3652"
         offset="0"
         style="stop-color: rgb(186, 117, 44); stop-opacity: 1;" />
      <stop
         id="stop3654"
         offset="1"
         style="stop-color: rgb(0, 0, 0); stop-opacity: 1;" />
    </linearGradient>
    <linearGradient
       id="linearGradient3437">
      <stop
         id="stop3439"
         offset="0"
         style="stop-color: rgb(254, 252, 247); stop-opacity: 1;" />
      <stop
         id="stop3445"
         offset="1"
         style="stop-color: rgb(254, 246, 59); stop-opacity: 0;" />
    </linearGradient>
    <linearGradient
       id="linearGradient2531">
      <stop
         id="stop2533"
         offset="0"
         style="stop-color: rgb(254, 246, 59); stop-opacity: 1;" />
      <stop
         id="stop2535"
         offset="0.78319538"
         style="stop-color: rgb(235, 202, 43); stop-opacity: 1;" />
      <stop
         id="stop2537"
         offset="0.92242938"
         style="stop-color: rgb(225, 180, 35); stop-opacity: 1;" />
      <stop
         id="stop2539"
         offset="1"
         style="stop-color: rgb(220, 169, 31); stop-opacity: 1;" />
    </linearGradient>
    <linearGradient
       id="linearGradient3898">
      <stop
         id="stop3900"
         offset="0"
         style="stop-color: rgb(216, 159, 28); stop-opacity: 1;" />
      <stop
         id="stop3902"
         offset="0.76996499"
         style="stop-color: rgb(254, 246, 59); stop-opacity: 1;" />
      <stop
         id="stop3904"
         offset="1"
         style="stop-color: rgb(254, 246, 59); stop-opacity: 0;" />
    </linearGradient>
    <linearGradient
       id="linearGradient3880">
      <stop
         id="stop3882"
         offset="0"
         style="stop-color: rgb(254, 252, 247); stop-opacity: 0.628319;" />
      <stop
         id="stop3948"
         offset="0.16433293"
         style="stop-color: rgb(254, 249, 153); stop-opacity: 1;" />
      <stop
         id="stop3884"
         offset="0.32866585"
         style="stop-color: rgb(254, 246, 59); stop-opacity: 1;" />
      <stop
         id="stop3886"
         offset="1"
         style="stop-color: rgb(254, 246, 59); stop-opacity: 0;" />
    </linearGradient>
    <filter
       color-interpolation-filters="sRGB"
       id="filter3850"
       inkscape:collect="always">
      <feGaussianBlur
         id="feGaussianBlur3852"
         inkscape:collect="always"
         stdDeviation="0.61227272" />
    </filter>
    <filter
       color-interpolation-filters="sRGB"
       id="filter3870"
       inkscape:collect="always">
      <feGaussianBlur
         id="feGaussianBlur3872"
         inkscape:collect="always"
         stdDeviation="0.30863636" />
    </filter>
    <linearGradient
       gradientUnits="userSpaceOnUse"
       id="linearGradient3878"
       inkscape:collect="always"
       x1="63.071171"
       x2="63.893311"
       xlink:href="#linearGradient3880"
       y1="11.476513"
       y2="94.232147" />
    <filter
       color-interpolation-filters="sRGB"
       id="filter3892"
       inkscape:collect="always">
      <feGaussianBlur
         id="feGaussianBlur3894"
         inkscape:collect="always"
         stdDeviation="0.3015341" />
    </filter>
    <linearGradient
       gradientUnits="userSpaceOnUse"
       id="linearGradient3896"
       inkscape:collect="always"
       x1="64.778358"
       x2="64.38504"
       xlink:href="#linearGradient3898"
       y1="141.59807"
       y2="31.448057" />
    <linearGradient
       gradientUnits="userSpaceOnUse"
       id="linearGradient3940"
       inkscape:collect="always"
       x1="64.802284"
       x2="64.802284"
       xlink:href="#linearGradient2531"
       y1="34.000854"
       y2="142.83975" />
    <linearGradient
       gradientUnits="userSpaceOnUse"
       id="linearGradient3435"
       inkscape:collect="always"
       x1="66.76136"
       x2="68.425888"
       xlink:href="#linearGradient3437"
       y1="-34.132553"
       y2="48.906368" />
    <linearGradient
       gradientUnits="userSpaceOnUse"
       id="linearGradient3656"
       inkscape:collect="always"
       x1="81.739288"
       x2="97.731354"
       xlink:href="#linearGradient3650"
       y1="104.69318"
       y2="86.015099" />
    <radialGradient
       cx="60.934933"
       cy="47.342464"
       fx="60.934933"
       fy="47.342464"
       gradientTransform="matrix(1,0,0,1.04689,0,-2.21977)"
       gradientUnits="userSpaceOnUse"
       id="radialGradient3456"
       inkscape:collect="always"
       r="9.8603802"
       xlink:href="#linearGradient3450" />
    <filter
       color-interpolation-filters="sRGB"
       id="filter3546"
       inkscape:collect="always">
      <feGaussianBlur
         id="feGaussianBlur3548"
         inkscape:collect="always"
         stdDeviation="0.94716607" />
    </filter>
    <filter
       color-interpolation-filters="sRGB"
       id="filter3560"
       inkscape:collect="always">
      <feGaussianBlur
         id="feGaussianBlur3562"
         inkscape:collect="always"
         stdDeviation="0.52318985" />
    </filter>
    <filter
       color-interpolation-filters="sRGB"
       id="filter3632"
       inkscape:collect="always">
      <feGaussianBlur
         id="feGaussianBlur3634"
         inkscape:collect="always"
         stdDeviation="0.057309502" />
    </filter>
    <filter
       color-interpolation-filters="sRGB"
       id="filter3378"
       inkscape:collect="always">
      <feGaussianBlur
         id="feGaussianBlur3380"
         inkscape:collect="always"
         stdDeviation="0.97205793" />
    </filter>
    <filter
       color-interpolation-filters="sRGB"
       height="1.2270484"
       id="filter3425"
       inkscape:collect="always"
       width="1.0975889"
       x="-0.048794471"
       y="-0.11352422">
      <feGaussianBlur
         id="feGaussianBlur3427"
         inkscape:collect="always"
         stdDeviation="0.30746882" />
    </filter>
    <filter
       color-interpolation-filters="sRGB"
       height="1.0761641"
       id="filter3505"
       inkscape:collect="always"
       width="1.2827162"
       x="-0.14135805"
       y="-0.038082037">
      <feGaussianBlur
         id="feGaussianBlur3507"
         inkscape:collect="always"
         stdDeviation="0.1557" />
    </filter>
    <filter
       color-interpolation-filters="sRGB"
       id="filter3513"
       inkscape:collect="always">
      <feGaussianBlur
         id="feGaussianBlur3515"
         inkscape:collect="always"
         stdDeviation="0.15116079" />
    </filter>
    <linearGradient
       gradientTransform="translate(-28.326775,19.44028)"
       gradientUnits="userSpaceOnUse"
       id="linearGradient2760"
       inkscape:collect="always"
       x1="90.286484"
       x2="93.295624"
       xlink:href="#linearGradient3538"
       y1="38.270569"
       y2="47.432747" />
    <linearGradient
       gradientUnits="userSpaceOnUse"
       id="linearGradient2796"
       inkscape:collect="always"
       x1="90.286484"
       x2="93.295624"
       xlink:href="#linearGradient3538"
       y1="38.270569"
       y2="47.432747" />
    <radialGradient
       cx="94.131317"
       cy="44.159245"
       fx="94.131317"
       fy="44.159245"
       gradientTransform="matrix(1.44551,4.61896e-7,-2.59919e-7,0.810061,-39.1436,11.4849)"
       gradientUnits="userSpaceOnUse"
       id="radialGradient3140"
       inkscape:collect="always"
       r="24.075853"
       xlink:href="#linearGradient3464" />
    <radialGradient
       cx="79.487488"
       cy="42.396957"
       fx="79.487488"
       fy="42.396957"
       gradientTransform="matrix(0.999092,-0.0434369,0.0308219,0.736535,-1.23455,14.6228)"
       gradientUnits="userSpaceOnUse"
       id="radialGradient3142"
       inkscape:collect="always"
       r="7.403111"
       xlink:href="#linearGradient3552" />
    <linearGradient
       gradientUnits="userSpaceOnUse"
       id="linearGradient3144"
       inkscape:collect="always"
       x1="112.45885"
       x2="120.8125"
       xlink:href="#linearGradient3465"
       y1="42.848442"
       y2="38.742188" />
    <linearGradient
       gradientUnits="userSpaceOnUse"
       id="linearGradient3146"
       inkscape:collect="always"
       x1="123.9375"
       x2="120.6875"
       xlink:href="#linearGradient3483"
       y1="50.46875"
       y2="42.875" />
  </defs>
  <sodipodi:namedview
     bordercolor="#666666"
     borderopacity="0.25490196"
     fill="#f57900"
     gridtolerance="12"
     guidetolerance="13"
     height="300px"
     id="base"
     inkscape:current-layer="layer6"
     inkscape:cx="12.802213"
     inkscape:cy="14.517831"
     inkscape:document-units="px"
     inkscape:grid-bbox="true"
     inkscape:guide-bbox="true"
     inkscape:pageopacity="0.0"
     inkscape:pageshadow="2"
     inkscape:showpageshadow="false"
     inkscape:snap-bbox="true"
     inkscape:snap-nodes="false"
     inkscape:window-height="922"
     inkscape:window-maximized="0"
     inkscape:window-width="1670"
     inkscape:window-x="0"
     inkscape:window-y="25"
     inkscape:zoom="1.3518519"
     objecttolerance="7"
     pagecolor="#ffffff"
     showgrid="false"
     showguides="true"
     stroke="#ef2929"
     width="400px">
    <inkscape:grid
       empspacing="5"
       enabled="true"
       id="grid5883"
       spacingx="1px"
       spacingy="1px"
       type="xygrid"
       visible="true" />
  </sodipodi:namedview>
  <metadata
     id="metadata4">
    <rdf:RDF>
      <cc:Work
         rdf:about="">
        <dc:format>image/svg+xml</dc:format>
        <dc:type
           rdf:resource="http://purl.org/dc/dcmitype/StillImage" />
        <dc:creator>
          <cc:Agent>
            <dc:title>Breathe Icon Team</dc:title>
          </cc:Agent>
        </dc:creator>
        <dc:source />
        <cc:license
           rdf:resource="http://creativecommons.org/licenses/by-sa/3.0/" />
        <dc:title>Breathe Icon Theme icon</dc:title>
        <dc:subject>
          <rdf:Bag />
        </dc:subject>
        <dc:date />
        <dc:rights>
          <cc:Agent>
            <dc:title />
          </cc:Agent>
        </dc:rights>
        <dc:publisher>
          <cc:Agent>
            <dc:title />
          </cc:Agent>
        </dc:publisher>
        <dc:identifier />
        <dc:relation />
        <dc:language />
        <dc:coverage />
        <dc:description />
        <dc:contributor>
          <cc:Agent>
            <dc:title>Jakub Steiner, Cory Kontros, Oxygen and Breathe icon teams</dc:title>
          </cc:Agent>
        </dc:contributor>
      </cc:Work>
      <cc:License
         rdf:about="http://creativecommons.org/licenses/by-sa/3.0/">
        <cc:permits
           rdf:resource="http://creativecommons.org/ns#Reproduction" />
        <cc:permits
           rdf:resource="http://creativecommons.org/ns#Distribution" />
        <cc:requires
           rdf:resource="http://creativecommons.org/ns#Notice" />
        <cc:requires
           rdf:resource="http://creativecommons.org/ns#Attribution" />
        <cc:prohibits
           rdf:resource="http://creativecommons.org/ns#CommercialUse" />
        <cc:permits
           rdf:resource="http://creativecommons.org/ns#DerivativeWorks" />
        <cc:requires
           rdf:resource="http://creativecommons.org/ns#ShareAlike" />
      </cc:License>
    </rdf:RDF>
  </metadata>
  <g
     id="layer1"
     inkscape:groupmode="layer"
     inkscape:label="emotes/face-glasses"
     style="display:inline"
     transform="translate(-3,-4)">
    <rect
       height="256"
       id="256x256"
       inkscape:label="256x256"
       style="fill:#eeeeec;fill-opacity:1;fill-rule:nonzero;stroke:none;stroke-width:5;marker:none;visibility:visible;display:none;overflow:visible"
       width="256"
       x="26.5"
       y="32.823101" />
    <rect
       height="48"
       id="48x48"
       inkscape:label="48x48"
       style="fill:#eeeeec;fill-opacity:1;fill-rule:nonzero;stroke:none;stroke-width:5;marker:none;visibility:visible;display:none;overflow:visible"
       width="48"
       x="-35.5"
       y="32.823101" />
    <text
       id="text6091"
       sodipodi:linespacing="125%"
       style="font-size:56.11529922px;font-style:normal;font-variant:normal;font-weight:bold;font-stretch:normal;text-indent:0pt;text-align:start;text-decoration:none;line-height:125%;letter-spacing:normal;word-spacing:normal;text-transform:none;direction:ltr;text-anchor:start;fill:#2e3436;fill-opacity:1;fill-rule:nonzero;stroke:none;stroke-width:5;marker:none;visibility:visible;display:none;overflow:visible;font-family:Myriad"
       x="-418.41199"
       xml:space="preserve"
       y="34.084801"><tspan
         id="tspan6093"
         sodipodi:role="line"
         x="-418.41199"
         y="34.084801">audio-x-generic</tspan></text>
    <g
       id="layer6"
       inkscape:groupmode="layer"
       inkscape:label="plate"
       sodipodi:insensitive="true"
       style="display:none">
      <text
         id="text3304"
         style="font-size:12px;font-style:normal;font-variant:normal;font-weight:normal;font-stretch:normal;fill:#000000;fill-opacity:1;stroke:none;display:inline;font-family:FreeSans"
         x="6.8424702"
         xml:space="preserve"
         y="17.9384"><tspan
           id="tspan3306"
           sodipodi:role="line"
           x="6.8424702"
           y="17.9384">face-glasses</tspan></text>
      <text
         id="text3308"
         style="font-size:12px;font-style:normal;font-variant:normal;font-weight:normal;font-stretch:normal;fill:#000000;fill-opacity:1;stroke:none;display:inline;font-family:FreeSans"
         x="87.287697"
         xml:space="preserve"
         y="17.9384"><tspan
           id="tspan3310"
           sodipodi:role="line"
           x="87.287697"
           y="17.9384">emotes</tspan></text>
    </g>
    <g
       id="Livello_1"
       transform="translate(387.114,42.495)" />
    <g
       id="g3290"
       transform="translate(443.114,59.8843)" />
    <g
       id="g7148"
       transform="matrix(0.195657,0,0,0.195657,345.265,19.4029)" />
    <g
       id="g7555"
       transform="matrix(0.133333,0,0,0.133333,319.904,105.991)" />
    <g
       id="g9283"
       transform="matrix(1.06667,0,0,1.06667,384.447,40.4706)" />
    <g
       id="g3974"
       style="display:inline"
       transform="matrix(0.38,0,0,0.38,279.689,17.6294)" />
    <g
       id="g3976"
       style="display:inline"
       transform="matrix(0.38,0,0,0.38,300.969,24.2373)" />
    <g
       id="g3978"
       style="display:inline"
       transform="matrix(0.0743497,0,0,0.0743497,263.786,8.85435)" />
    <g
       id="g3980"
       style="display:inline"
       transform="matrix(0.0506667,0,0,0.0506667,254.149,41.7576)" />
    <g
       id="g3982"
       style="display:inline"
       transform="matrix(0.405333,0,0,0.405333,278.675,16.8601)" />
    <g
       id="g4022"
       style="display:inline"
       transform="matrix(0.25,0,0,0.25,229.804,64.04)" />
    <g
       id="g4024"
       style="display:inline"
       transform="matrix(0.25,0,0,0.25,243.804,68.3873)" />
    <g
       id="g4026"
       style="display:inline"
       transform="matrix(0.0489143,0,0,0.0489143,219.342,58.2669)" />
    <g
       id="g4028"
       style="display:inline"
       transform="matrix(0.0333333,0,0,0.0333333,213.001,79.9138)" />
    <g
       id="g4030"
       style="display:inline"
       transform="matrix(0.266667,0,0,0.266667,229.137,63.5338)" />
    <g
       id="g4070"
       style="display:inline"
       transform="matrix(0.19,0,0,0.19,206.606,95.7749)" />
    <g
       id="g4072"
       style="display:inline"
       transform="matrix(0.19,0,0,0.19,217.246,99.0789)" />
    <g
       id="g4074"
       style="display:inline"
       transform="matrix(0.0371749,0,0,0.0371749,198.654,91.3874)" />
    <g
       id="g4076"
       style="display:inline"
       transform="matrix(0.0253333,0,0,0.0253333,193.836,107.839)" />
    <g
       id="g4078"
       style="display:inline"
       transform="matrix(0.202667,0,0,0.202667,206.099,95.3903)" />
    <g
       id="g4094"
       style="display:inline"
       transform="matrix(0.12,0,0,0.12,180.44,120.646)" />
    <g
       id="g4096"
       style="display:inline"
       transform="matrix(0.12,0,0,0.12,187.16,122.733)" />
    <g
       id="g4098"
       style="display:inline"
       transform="matrix(0.0234789,0,0,0.0234789,175.418,117.875)" />
    <g
       id="g4100"
       style="display:inline"
       transform="matrix(0.016,0,0,0.016,172.375,128.265)" />
    <g
       id="g4102"
       style="display:inline"
       transform="matrix(0.128,0,0,0.128,180.12,120.403)" />
    <g
       id="g2798">
      <path
         d="m 126.98863,69.517044 c 0,33.262606 -26.96467,60.227276 -60.22727,60.227276 -33.262604,0 -60.2272719,-26.96467 -60.2272719,-60.227276 0,-33.262604 26.9646679,-60.227272 60.2272719,-60.227272 33.2626,0 60.22727,26.964668 60.22727,60.227272 z"
         id="path2465"
         sodipodi:cx="66.76136"
         sodipodi:cy="69.517044"
         sodipodi:rx="60.227272"
         sodipodi:ry="60.227272"
         sodipodi:type="arc"
         style="fill:none;stroke:#d89f1c;stroke-width:2;stroke-linecap:square;stroke-miterlimit:4;stroke-opacity:1;stroke-dasharray:none;filter:url(#filter3850)" />
      <path
         d="m 126.98863,69.517044 c 0,33.262606 -26.96467,60.227276 -60.22727,60.227276 -33.262604,0 -60.2272719,-26.96467 -60.2272719,-60.227276 0,-33.262604 26.9646679,-60.227272 60.2272719,-60.227272 33.2626,0 60.22727,26.964668 60.22727,60.227272 z"
         id="path3816"
         sodipodi:cx="66.76136"
         sodipodi:cy="69.517044"
         sodipodi:rx="60.227272"
         sodipodi:ry="60.227272"
         sodipodi:type="arc"
         style="fill:url(#linearGradient3940);fill-opacity:1;fill-rule:nonzero;stroke:#d89f1c;stroke-width:1;stroke-linecap:square;stroke-miterlimit:4;stroke-opacity:1;stroke-dasharray:none"
         transform="translate(0.0598439,0)" />
      <path
         d="m 125.56818,69.517044 c 0,32.478106 -26.32871,58.806816 -58.80682,58.806816 -32.47811,0 -58.8068197,-26.32871 -58.8068197,-58.806816 0,-32.47811 26.3287097,-58.80682 58.8068197,-58.80682 32.47811,0 58.80682,26.32871 58.80682,58.80682 z"
         id="path3854"
         sodipodi:cx="66.76136"
         sodipodi:cy="69.517044"
         sodipodi:rx="58.80682"
         sodipodi:ry="58.80682"
         sodipodi:type="arc"
         style="fill:none;stroke:url(#linearGradient3896);stroke-width:3;stroke-linecap:square;stroke-miterlimit:4;stroke-opacity:1;stroke-dasharray:none;filter:url(#filter3870)" />
      <path
         d="m 125.56818,69.517044 c 0,32.478106 -26.32871,58.806816 -58.80682,58.806816 -32.47811,0 -58.8068197,-26.32871 -58.8068197,-58.806816 0,-32.47811 26.3287097,-58.80682 58.8068197,-58.80682 32.47811,0 58.80682,26.32871 58.80682,58.80682 z"
         id="path3876"
         sodipodi:cx="66.76136"
         sodipodi:cy="69.517044"
         sodipodi:rx="58.80682"
         sodipodi:ry="58.80682"
         sodipodi:type="arc"
         style="fill:none;stroke:url(#linearGradient3878);stroke-width:3;stroke-linecap:square;stroke-miterlimit:4;stroke-opacity:1;stroke-dasharray:none;filter:url(#filter3892)" />
      <path
         d="m 123.58518,69.517044 c 0,31.382926 -25.440892,56.823816 -56.82382,56.823816 -31.382928,0 -56.823818,-25.44089 -56.823818,-56.823816 0,-31.382928 25.44089,-56.823818 56.823818,-56.823818 31.382928,0 56.82382,25.44089 56.82382,56.823818 z"
         id="path3433"
         sodipodi:cx="66.76136"
         sodipodi:cy="69.517044"
         sodipodi:rx="56.823818"
         sodipodi:ry="56.823818"
         sodipodi:type="arc"
         style="fill:none;stroke:url(#linearGradient3435);stroke-width:1;stroke-linecap:square;stroke-miterlimit:4;stroke-opacity:1;stroke-dasharray:none;filter:url(#filter3892)"
         transform="matrix(1,0,0,-1,0,139.034)" />
      <g
         id="g3658">
        <path
           d="m 60.329405,107.88523 c 17.701433,-1.41062 24.488631,-4.16419 37.268402,-16.999611 3.743133,-3.698626 7.463393,-0.396358 4.446053,2.876859 -8.681801,9.537932 -22.680595,14.680032 -41.714455,14.122752 z"
           id="path3843"
           sodipodi:nodetypes="cccc"
           style="fill:url(#linearGradient3656);fill-opacity:1;fill-rule:evenodd;stroke:#74550e;stroke-width:1px;stroke-linecap:round;stroke-linejoin:round;stroke-miterlimit:4;stroke-opacity:1;stroke-dasharray:none;stroke-dashoffset:0;marker:none;visibility:visible;display:inline;overflow:visible" />
        <path
           d="m 102.7244,80.757647 c 3.46111,-1.309142 7.28811,0.545401 8.54785,4.142237 0.40039,1.143209 0.50416,2.375804 0.30088,3.573899"
           id="path3845"
           sodipodi:cx="105.00536"
           sodipodi:cy="87.270294"
           sodipodi:end="6.4577182"
           sodipodi:open="true"
           sodipodi:rx="6.6690826"
           sodipodi:ry="6.9306149"
           sodipodi:start="4.3633231"
           sodipodi:type="arc"
           style="opacity:0.45;fill:none;stroke:#74550e;stroke-width:0.95701998;stroke-linecap:round;stroke-linejoin:round;stroke-miterlimit:4;stroke-opacity:1;stroke-dasharray:none"
           transform="matrix(1.0652,0,0,1.02501,-9.28555,-0.0754799)" />
      </g>
      <use
         height="135"
         id="use3521"
         transform="matrix(-1,0,0,1,133.788,0)"
         width="185"
         x="0"
         xlink:href="#use2602"
         y="0" />
      <path
         d="m 54.347475,41.517752 c 3.052773,-3.833752 8.476839,-4.333809 12.114992,-1.116909 0.383486,0.339083 0.738141,0.712806 1.059924,1.116909"
         id="path3386"
         sodipodi:cx="60.934933"
         sodipodi:cy="47.342464"
         sodipodi:end="5.5850536"
         sodipodi:open="true"
         sodipodi:rx="8.5993156"
         sodipodi:ry="9.0616436"
         sodipodi:start="3.8397244"
         sodipodi:type="arc"
         style="opacity:0.15;fill:none;stroke:#000000;stroke-width:2.52183008;stroke-linecap:round;stroke-linejoin:round;stroke-miterlimit:4;stroke-opacity:1;stroke-dasharray:none;filter:url(#filter3425)"
         transform="matrix(1.25346,0,0,0.748083,-9.3792,16.5839)" />
      <path
         d="m 52.682201,41.226849 c 4.541089,0.991301 7.584135,2.460118 8.186573,6.017231 0.632729,3.735976 -1.139148,15.127714 -2.922917,17.81492 -1.83496,2.764323 -3.003815,3.396067 -6.497747,4.194218 -3.647895,0.833323 -28.07741,1.63061 -31.73461,0.165755 -3.816,-1.528463 -5.06562,-3.002949 -5.97548,-5.918753 -0.94191,-3.018496 -1.31085,-14.520774 -0.23105,-17.158603 1.05354,-2.573666 2.18091,-4.465084 5.66904,-5.010919 3.82825,-0.599059 28.520228,-1.192265 33.506191,-0.103849 z"
         id="use2602"
         sodipodi:nodetypes="czzzzzzzz"
         style="opacity:0.2;fill:#000000;fill-opacity:1;fill-rule:evenodd;stroke:none;stroke-width:1px;marker:none;visibility:visible;display:inline;overflow:visible;filter:url(#filter3378)"
         transform="matrix(-1,0,0,1,133.848,0)" />
      <use
         height="135"
         id="use3523"
         transform="matrix(-1,0,0,1,133.788,0)"
         width="185"
         x="0"
         xlink:href="#path2665"
         y="0" />
      <path
         d="m 75.681,42.581 c -3.556154,3.133431 -1.444598,14.599478 1.97525,20.20025 5.36651,4.761419 13.832161,2.601877 20.4375,3.65625 6.99161,-0.300698 18.13902,2.020978 21.125,-6.5 0.39074,-5.87895 1.87915,-14.664127 -1.71875,-18.0995 -3.5979,-3.435373 -15.30285,-2.670671 -22.856,-2.74 -7.494322,0.174114 -15.268274,0.227469 -18.963,3.483 z"
         id="use3525"
         sodipodi:nodetypes="cccczcz"
         style="fill:none;stroke:url(#linearGradient2796);stroke-width:2;stroke-linecap:butt;stroke-linejoin:miter;stroke-miterlimit:4;stroke-opacity:1;stroke-dasharray:none;stroke-dashoffset:0;marker:none;visibility:visible;display:inline;overflow:visible;filter:url(#filter3546)"
         transform="matrix(-1,0,0,1,133.788,0)" />
      <path
         d="m 81.165799,38.226849 c -4.541089,0.991301 -7.584135,2.460118 -8.186573,6.017231 -0.632729,3.735976 1.139148,15.127714 2.922917,17.81492 1.83496,2.764323 3.003815,3.396067 6.497747,4.194218 3.647895,0.833323 28.07741,1.63061 31.73461,0.165755 3.816,-1.528463 5.06562,-3.002949 5.97548,-5.918753 0.94191,-3.018496 1.31085,-14.520774 0.23105,-17.158603 -1.05354,-2.573666 -2.18091,-4.465084 -5.66904,-5.010919 -3.82825,-0.599059 -28.520228,-1.192265 -33.506191,-0.103849 z"
         id="path2665"
         sodipodi:nodetypes="czzzzzzzz"
         style="fill:url(#radialGradient3140);fill-opacity:1;fill-rule:evenodd;stroke:none;stroke-width:1px;marker:none;visibility:visible;display:inline;overflow:visible" />
      <path
         d="m 83.909433,48.698969 -3.87552,-3.357178 -2.201163,4.359823 -0.06868,-4.544314 -5.356481,1.005 3.764458,-3.949871 -4.626005,-3.339738 6.115342,0.50518 -0.644997,-4.250979 2.953495,4.444148 3.640252,-3.114855 -2.273949,3.960604 5.603117,2.174516 -4.390029,1.47901 1.360162,4.628654 z"
         id="path3550"
         inkscape:flatsided="false"
         inkscape:randomized="0.08"
         inkscape:rounded="0"
         sodipodi:arg1="0.86994192"
         sodipodi:arg2="1.3187409"
         sodipodi:cx="79.150688"
         sodipodi:cy="42.349316"
         sodipodi:r1="7.7428684"
         sodipodi:r2="3.0971475"
         sodipodi:sides="7"
         sodipodi:type="star"
         style="fill:url(#radialGradient3142);fill-opacity:1;fill-rule:evenodd;stroke:none;filter:url(#filter3560)"
         transform="matrix(1.13843,0,0,1.1169,24.379472,-4.2040568)" />
      <use
         height="135"
         id="use3527"
         transform="matrix(-1,0,0,1,169.61797,-1.3076632)"
         width="185"
         x="0"
         xlink:href="#path3550"
         y="0" />
      <g
         id="g3650">
        <path
           d="m 54.347475,41.517752 c 3.052773,-3.833752 8.476839,-4.333809 12.114992,-1.116909 0.383486,0.339083 0.738141,0.712806 1.059924,1.116909"
           id="path2667"
           sodipodi:cx="60.934933"
           sodipodi:cy="47.342464"
           sodipodi:end="5.5850536"
           sodipodi:open="true"
           sodipodi:rx="8.5993156"
           sodipodi:ry="9.0616436"
           sodipodi:start="3.8397244"
           sodipodi:type="arc"
           style="fill:none;stroke:url(#radialGradient3456);stroke-width:2.52183008;stroke-linecap:round;stroke-linejoin:round;stroke-miterlimit:4;stroke-opacity:1;stroke-dasharray:none"
           transform="matrix(1.25346,0,0,0.748083,-9.3792,12.5839)" />
        <path
           d="m 59.008144,44.697231 c -0.486542,0.165281 -1.024519,-0.06886 -1.201606,-0.522963 -0.114555,-0.293755 -0.0525,-0.622236 0.162795,-0.861707"
           id="path3622"
           sodipodi:cx="58.6875"
           sodipodi:cy="43.875"
           sodipodi:end="3.8397244"
           sodipodi:open="true"
           sodipodi:rx="0.9375"
           sodipodi:ry="0.875"
           sodipodi:start="1.2217305"
           sodipodi:type="arc"
           style="opacity:0.8;fill:none;stroke:#000000;stroke-width:0.28419101;stroke-linecap:round;stroke-linejoin:round;stroke-miterlimit:4;stroke-opacity:1;stroke-dasharray:none;filter:url(#filter3632)"
           transform="matrix(1.01983,0,0,1.09268,-1.33129,-4.29124)" />
        <use
           height="135"
           id="use3636"
           transform="matrix(-1,0,0,1,133.947,0)"
           width="185"
           x="0"
           xlink:href="#path3622"
           y="0" />
      </g>
      <path
         d="m 118.12085,35.718971 c -0.41699,-0.09174 -0.75075,0.208748 -0.58404,0.592697 l 1.53894,6.91747 -0.0363,0.02516 0.0503,0.07266 c 0.3288,0.937934 1.92945,1.017517 2.11031,0.09733 l 0.008,-0.220813 c -0.002,-0.0075 0.007,-0.0231 0.006,-0.03075 -0.3066,-1.330493 -1.63553,-4.700989 -2.32154,-6.80548 -0.22377,-0.404568 -0.5214,-0.593233 -0.77159,-0.648277 z"
         id="path3509"
         style="opacity:0.2;fill:#000000;fill-opacity:1;fill-rule:evenodd;stroke:none;stroke-width:1px;marker:none;visibility:visible;display:inline;overflow:visible;filter:url(#filter3513)" />
      <path
         d="m 118.1875,35.5 c -0.42667,-0.01577 -0.70137,0.339511 -0.46875,0.6875 l 2.75,6.53125 -0.0312,0.03125 0.0625,0.0625 c 0.49107,0.864105 2.08019,0.656449 2.09375,-0.28125 l -0.0312,-0.21875 c -0.003,-0.0071 0.003,-0.02404 0,-0.03125 -0.53936,-1.254315 -2.44906,-4.333171 -3.5,-6.28125 -0.29245,-0.358082 -0.619,-0.490539 -0.875,-0.5 z"
         id="path3452"
         style="fill:url(#linearGradient3144);fill-opacity:1;fill-rule:evenodd;stroke:none;stroke-width:1px;marker:none;visibility:visible;display:inline;overflow:visible" />
      <path
         d="m 122.375,41.9375 -2.09375,0.9375 -0.23725,0.375 0.756,8.5 c 0.58242,-0.564492 1.79218,-1.179359 1.8875,-2.5 l 0,-6.53125 c -0.02,-0.147314 -0.14182,-0.429582 -0.3125,-0.78125 z"
         id="path3446"
         sodipodi:nodetypes="ccccccc"
         style="fill:url(#linearGradient3146);fill-opacity:1;fill-rule:evenodd;stroke:none;stroke-width:1px;marker:none;visibility:visible;display:inline;overflow:visible" />
      <path
         d="m 122.475,43.9375 -2.09375,0.9375 -0.23725,0.375 0.756,8.5 c 0.58242,-0.564492 1.79218,-1.179359 1.8875,-2.5 l 0,-6.53125 c -0.02,-0.147314 -0.14182,-0.429582 -0.3125,-0.78125 z"
         id="path3493"
         sodipodi:nodetypes="ccccccc"
         style="opacity:0.15;fill:#000000;fill-opacity:1;fill-rule:evenodd;stroke:none;stroke-width:1px;marker:none;visibility:visible;display:inline;overflow:visible;filter:url(#filter3505)" />
      <use
         height="135"
         id="use3529"
         transform="matrix(-1,0,0,1,133.788,0)"
         width="185"
         x="0"
         xlink:href="#path3509"
         y="0" />
      <use
         height="135"
         id="use3531"
         transform="matrix(-1,0,0,1,133.788,0)"
         width="185"
         x="0"
         xlink:href="#path3452"
         y="0" />
      <use
         height="135"
         id="use3533"
         transform="matrix(-1,0,0,1,133.788,0)"
         width="185"
         x="0"
         xlink:href="#path3446"
         y="0" />
      <use
         height="135"
         id="use3535"
         transform="matrix(-1,0,0,1,133.788,0)"
         width="185"
         x="0"
         xlink:href="#path3493"
         y="0" />
      <path
         d="m 47.354229,62.02128 c -3.556154,3.133431 -1.444598,14.599478 1.97525,20.20025 5.36651,4.761419 13.832161,2.601877 20.4375,3.65625 6.99161,-0.300698 18.13902,2.020978 21.125,-6.5 0.39074,-5.87895 1.87915,-14.664127 -1.71875,-18.0995 -3.5979,-3.435373 -15.30285,-2.670671 -22.856,-2.74 -7.494322,0.174114 -15.268274,0.227469 -18.963,3.483 z"
         id="path2758"
         sodipodi:nodetypes="cccczcz"
         style="fill:none;stroke:url(#linearGradient2760);stroke-width:2;stroke-linecap:butt;stroke-linejoin:miter;stroke-miterlimit:4;stroke-opacity:1;stroke-dasharray:none;stroke-dashoffset:0;marker:none;visibility:visible;display:inline;overflow:visible;filter:url(#filter3546)"
         transform="matrix(-1,0,0,1,163.45791,-18.568818)" />
    </g>
    <g
       id="g2829"
       style="display:inline"
       transform="matrix(0.3674833,0,0,0.3674833,132.96632,1.9536472)">
      <g
         id="g2841" />
      <g
         id="g2863" />
    </g>
    <g
       id="g3683"
       style="display:inline"
       transform="matrix(0.2457061,0,0,0.2457061,133.44911,53.786721)">
      <g
         id="g3695" />
      <g
         id="g3717" />
    </g>
    <g
       id="g3767"
       style="display:inline"
       transform="matrix(0.1796585,0,0,0.1796585,134.00575,88.510672)">
      <g
         id="g3779" />
      <g
         id="g3801" />
    </g>
    <g
       id="g3859"
       style="display:inline"
       transform="matrix(0.1241121,0,0,0.1241121,133.89377,115.55175)">
      <g
         id="g3871" />
      <g
         id="g3893" />
    </g>
  </g>
</svg>
