<?xml version="1.0" encoding="UTF-8" standalone="no"?>
<!-- Created with Inkscape (http://www.inkscape.org/) -->

<svg
   xmlns:dc="http://purl.org/dc/elements/1.1/"
   xmlns:cc="http://creativecommons.org/ns#"
   xmlns:rdf="http://www.w3.org/1999/02/22-rdf-syntax-ns#"
   xmlns:svg="http://www.w3.org/2000/svg"
   xmlns="http://www.w3.org/2000/svg"
   xmlns:xlink="http://www.w3.org/1999/xlink"
   xmlns:sodipodi="http://sodipodi.sourceforge.net/DTD/sodipodi-0.dtd"
   xmlns:inkscape="http://www.inkscape.org/namespaces/inkscape"
   height="128"
   id="svg11300"
   inkscape:export-filename="/home/micha/stopandgo/to do/Breathe/face-uncertain.png"
   inkscape:export-xdpi="90.000000"
   inkscape:export-ydpi="90.000000"
   inkscape:output_extension="org.inkscape.output.svg.inkscape"
   inkscape:version="0.46+devel r21673"
   sodipodi:docname="face-uncertain.svg"
   sodipodi:version="0.32"
   style="display:inline;enable-background:new"
   version="1.0"
   width="128">
  <title
     id="title4119">Breathe Icon Theme computer</title>
  <defs
     id="defs3">
    <linearGradient
       id="linearGradient4943">
      <stop
         id="stop4945"
         offset="0"
         style="stop-color:#d02619;stop-opacity:1;" />
      <stop
         id="stop4947"
         offset="1"
         style="stop-color:#d02619;stop-opacity:1;" />
    </linearGradient>
    <linearGradient
       id="linearGradient3437">
      <stop
         id="stop3439"
         offset="0"
         style="stop-color:#fefcf7;stop-opacity:1;" />
      <stop
         id="stop3445"
         offset="1"
         style="stop-color:#fef63b;stop-opacity:0" />
    </linearGradient>
    <linearGradient
       id="linearGradient2531">
      <stop
         id="stop2533"
         offset="0"
         style="stop-color:#fef63b;stop-opacity:1;" />
      <stop
         id="stop2535"
         offset="0.78319538"
         style="stop-color:#ebca2b;stop-opacity:1;" />
      <stop
         id="stop2537"
         offset="0.92242938"
         style="stop-color:#e1b423;stop-opacity:1;" />
      <stop
         id="stop2539"
         offset="1"
         style="stop-color:#dca91f;stop-opacity:1;" />
    </linearGradient>
    <linearGradient
       id="linearGradient4409">
      <stop
         id="stop4411"
         offset="0"
         style="stop-color:#ffffff;stop-opacity:1;" />
      <stop
         id="stop4413"
         offset="1"
         style="stop-color:#ffffff;stop-opacity:0;" />
    </linearGradient>
    <linearGradient
       id="linearGradient3898">
      <stop
         id="stop3900"
         offset="0"
         style="stop-color:#d89f1c;stop-opacity:1;" />
      <stop
         id="stop3902"
         offset="0.76996499"
         style="stop-color:#fef63b;stop-opacity:1;" />
      <stop
         id="stop3904"
         offset="1"
         style="stop-color:#fef63b;stop-opacity:0" />
    </linearGradient>
    <linearGradient
       id="linearGradient3880">
      <stop
         id="stop3882"
         offset="0"
         style="stop-color:#fefcf7;stop-opacity:0.62831861;" />
      <stop
         id="stop3948"
         offset="0.16433293"
         style="stop-color:#fef999;stop-opacity:1;" />
      <stop
         id="stop3884"
         offset="0.32866585"
         style="stop-color:#fef63b;stop-opacity:1;" />
      <stop
         id="stop3886"
         offset="1"
         style="stop-color:#fef63b;stop-opacity:0" />
    </linearGradient>
    <filter
       color-interpolation-filters="sRGB"
       id="filter3850"
       inkscape:collect="always">
      <feGaussianBlur
         id="feGaussianBlur3852"
         inkscape:collect="always"
         stdDeviation="0.61227272" />
    </filter>
    <filter
       color-interpolation-filters="sRGB"
       id="filter3870"
       inkscape:collect="always">
      <feGaussianBlur
         id="feGaussianBlur3872"
         inkscape:collect="always"
         stdDeviation="0.30863636" />
    </filter>
    <linearGradient
       gradientUnits="userSpaceOnUse"
       id="linearGradient3878"
       inkscape:collect="always"
       x1="63.071171"
       x2="63.893311"
       xlink:href="#linearGradient3880"
       y1="11.476513"
       y2="94.232147" />
    <filter
       color-interpolation-filters="sRGB"
       id="filter3892"
       inkscape:collect="always">
      <feGaussianBlur
         id="feGaussianBlur3894"
         inkscape:collect="always"
         stdDeviation="0.3015341" />
    </filter>
    <linearGradient
       gradientUnits="userSpaceOnUse"
       id="linearGradient3896"
       inkscape:collect="always"
       x1="64.778358"
       x2="64.38504"
       xlink:href="#linearGradient3898"
       y1="141.59807"
       y2="31.448057" />
    <linearGradient
       gradientUnits="userSpaceOnUse"
       id="linearGradient3940"
       inkscape:collect="always"
       x1="64.802284"
       x2="66.76136"
       xlink:href="#linearGradient2531"
       y1="34.000854"
       y2="142.70891" />
    <linearGradient
       gradientUnits="userSpaceOnUse"
       id="linearGradient3319"
       inkscape:collect="always"
       x1="49.830933"
       x2="49.830933"
       xlink:href="#linearGradient4409"
       y1="28.967989"
       y2="52.834164" />
    <linearGradient
       gradientUnits="userSpaceOnUse"
       id="linearGradient3435"
       inkscape:collect="always"
       x1="66.76136"
       x2="68.425888"
       xlink:href="#linearGradient3437"
       y1="-34.132553"
       y2="48.906368" />
    <linearGradient
       gradientUnits="userSpaceOnUse"
       id="linearGradient2539"
       inkscape:collect="always"
       x1="49.830933"
       x2="49.830933"
       xlink:href="#linearGradient4409"
       y1="28.967989"
       y2="52.834164" />
    <linearGradient
       gradientUnits="userSpaceOnUse"
       id="linearGradient4949"
       inkscape:collect="always"
       x1="27"
       x2="17"
       xlink:href="#linearGradient4943"
       y1="27"
       y2="16" />
    <filter
       color-interpolation-filters="sRGB"
       id="filter4957"
       inkscape:collect="always">
      <feGaussianBlur
         id="feGaussianBlur4959"
         inkscape:collect="always"
         stdDeviation="0.47065626" />
    </filter>
  </defs>
  <sodipodi:namedview
     bordercolor="#666666"
     borderopacity="0.25490196"
     fill="#f57900"
     gridtolerance="12"
     guidetolerance="13"
     height="300px"
     id="base"
     inkscape:bbox-nodes="true"
     inkscape:bbox-paths="true"
     inkscape:current-layer="layer6"
     inkscape:cx="47.705479"
     inkscape:cy="64.5"
     inkscape:document-units="px"
     inkscape:grid-bbox="true"
     inkscape:guide-bbox="true"
     inkscape:object-nodes="true"
     inkscape:object-paths="true"
     inkscape:pageopacity="0.0"
     inkscape:pageshadow="2"
     inkscape:showpageshadow="false"
     inkscape:snap-bbox="true"
     inkscape:snap-nodes="true"
     inkscape:window-height="953"
     inkscape:window-maximized="0"
     inkscape:window-width="1670"
     inkscape:window-x="0"
     inkscape:window-y="1"
     inkscape:zoom="5.4074074"
     objecttolerance="4"
     pagecolor="#ffffff"
     showgrid="true"
     showguides="true"
     stroke="#ef2929"
     width="400px">
    <inkscape:grid
       empspacing="5"
       enabled="true"
       id="grid5883"
       spacingx="1px"
       spacingy="1px"
       type="xygrid"
       visible="true" />
  </sodipodi:namedview>
  <metadata
     id="metadata4">
    <rdf:RDF>
      <cc:Work
         rdf:about="">
        <dc:format>image/svg+xml</dc:format>
        <dc:type
           rdf:resource="http://purl.org/dc/dcmitype/StillImage" />
        <dc:creator>
          <cc:Agent>
            <dc:title>Breathe Icon Team</dc:title>
          </cc:Agent>
        </dc:creator>
        <dc:source />
        <cc:license
           rdf:resource="http://creativecommons.org/licenses/by-nc-sa/3.0/" />
        <dc:title>Breathe Icon Theme icon</dc:title>
        <dc:subject>
          <rdf:Bag />
        </dc:subject>
        <dc:date />
        <dc:rights>
          <cc:Agent>
            <dc:title />
          </cc:Agent>
        </dc:rights>
        <dc:publisher>
          <cc:Agent>
            <dc:title />
          </cc:Agent>
        </dc:publisher>
        <dc:identifier />
        <dc:relation />
        <dc:language />
        <dc:coverage />
        <dc:description />
        <dc:contributor>
          <cc:Agent>
            <dc:title>Jakub Steiner, Cory Kontros, Oxygen and Breathe icon teams</dc:title>
          </cc:Agent>
        </dc:contributor>
      </cc:Work>
      <cc:License
         rdf:about="http://creativecommons.org/licenses/by-nc-sa/3.0/">
        <cc:permits
           rdf:resource="http://creativecommons.org/ns#Reproduction" />
        <cc:permits
           rdf:resource="http://creativecommons.org/ns#Distribution" />
        <cc:requires
           rdf:resource="http://creativecommons.org/ns#Notice" />
        <cc:requires
           rdf:resource="http://creativecommons.org/ns#Attribution" />
        <cc:prohibits
           rdf:resource="http://creativecommons.org/ns#CommercialUse" />
        <cc:permits
           rdf:resource="http://creativecommons.org/ns#DerivativeWorks" />
        <cc:requires
           rdf:resource="http://creativecommons.org/ns#ShareAlike" />
      </cc:License>
    </rdf:RDF>
  </metadata>
  <g
     id="layer1"
     inkscape:groupmode="layer"
     inkscape:label="emotes/face-uncertain"
     sodipodi:insensitive="true"
     style="display:inline"
     transform="translate(-3,-4)">
    <rect
       height="256"
       id="256x256"
       inkscape:label="256x256"
       style="fill:#eeeeec;fill-opacity:1;fill-rule:nonzero;stroke:none;stroke-width:5;marker:none;visibility:visible;display:none;overflow:visible;enable-background:accumulate"
       width="256"
       x="26.5"
       y="32.823101" />
    <rect
       height="48"
       id="48x48"
       inkscape:label="48x48"
       style="fill:#eeeeec;fill-opacity:1;fill-rule:nonzero;stroke:none;stroke-width:5;marker:none;visibility:visible;display:none;overflow:visible;enable-background:accumulate"
       width="48"
       x="-35.5"
       y="32.823101" />
    <text
       id="text6091"
       sodipodi:linespacing="125%"
       style="font-size:56.11526489px;font-style:normal;font-variant:normal;font-weight:bold;font-stretch:normal;text-indent:0;text-align:start;text-decoration:none;line-height:125%;letter-spacing:normal;word-spacing:normal;text-transform:none;direction:ltr;block-progression:tb;writing-mode:lr-tb;text-anchor:start;fill:#2e3436;fill-opacity:1;fill-rule:nonzero;stroke:none;stroke-width:5;marker:none;visibility:visible;display:none;overflow:visible;enable-background:accumulate;font-family:Myriad"
       x="-418.41196"
       xml:space="preserve"
       y="34.084831"><tspan
         id="tspan6093"
         sodipodi:role="line"
         x="-418.41196"
         y="34.084831">audio-x-generic</tspan></text>
    <path
       d="m 21.070906,10.876833 c -3.02697,5.8e-5 -6.486705,0.423929 -8.656891,2.32258 -2.170187,1.898653 -3.6787703,4.584977 -3.695015,8.058651 -5.9e-6,1.837841 0.7739054,3.182121 2.28739,4.046921 1.513468,0.972993 3.0261,0.972993 4.539589,0 1.513464,-0.8648 2.252185,-2.20908 2.2522,-4.046921 -1.5e-5,-0.864796 1.1106,-1.302004 3.272727,-1.302052 l 9.219942,0 c 1.405343,4.8e-5 2.616462,0.336752 3.589442,0.985337 1.189129,0.756786 1.759498,2.133722 1.759531,4.187683 -3.3e-5,1.837837 -0.738752,3.217309 -2.252199,4.082112 -1.513508,0.864883 -3.194491,1.302091 -5.032258,1.302052 -2.872707,0.01592 -6.008855,0.203615 -8.621701,2.392962 -2.612847,2.189348 -3.870981,6.064642 -3.870968,10.064516 l 0,3.906159 c -1.3e-5,1.729709 0.706051,3.073991 2.111437,4.046921 1.621567,0.864861 3.202046,0.864862 4.715542,0 1.513457,-0.972931 2.252177,-2.317212 2.2522,-4.046921 l 0,-3.906159 c -2.3e-5,-0.864817 0.100482,-1.435185 0.316715,-1.75953 -2.2e-5,-0.324289 0.336681,-0.72884 0.985338,-1.161291 0.648609,-0.216181 1.354673,-0.349344 2.111437,-0.457478 3.459349,3e-5 6.652963,-0.942234 9.571847,-2.780058 4.540395,-2.594499 6.791748,-6.49418 6.791789,-11.683285 -4.2e-5,-0.432378 -0.0327,-0.834395 -0.140762,-1.266862 -0.648674,-4.540384 -2.397506,-7.902352 -5.208212,-10.064516 -2.594567,-2.053949 -5.619829,-3.028869 -9.079178,-2.920821 l -9.219942,0 z m -0.774193,45.114369 c -2.486429,0 -4.504399,2.017971 -4.504399,4.504399 0,2.486428 2.01797,4.504399 4.504399,4.504399 2.486428,0 4.504398,-2.017971 4.504398,-4.504399 0,-2.486428 -2.01797,-4.504399 -4.504398,-4.504399 z"
       id="path4951"
       style="font-size:48px;font-style:normal;font-variant:normal;font-weight:normal;font-stretch:normal;fill:none;stroke:#b81710;stroke-width:2;stroke-linecap:butt;stroke-linejoin:miter;stroke-miterlimit:4;stroke-opacity:1;stroke-dasharray:none;filter:url(#filter4957);font-family:tribute2ubuntu;-inkscape-font-specification:tribute2ubuntu" />
    <g
       id="layer6"
       inkscape:groupmode="layer"
       inkscape:label="plate"
       sodipodi:insensitive="true"
       style="display:none">
      <text
         id="text3304"
         style="font-size:12px;font-style:normal;font-variant:normal;font-weight:normal;font-stretch:normal;fill:#000000;fill-opacity:1;stroke:none;display:inline;enable-background:new;font-family:FreeSans;-inkscape-font-specification:FreeSans"
         x="6.8424654"
         xml:space="preserve"
         y="17.938356"><tspan
           id="tspan3306"
           sodipodi:role="line"
           x="6.8424654"
           y="17.938356">face-uncertain</tspan></text>
      <text
         id="text3308"
         style="font-size:12px;font-style:normal;font-variant:normal;font-weight:normal;font-stretch:normal;fill:#000000;fill-opacity:1;stroke:none;display:inline;enable-background:new;font-family:FreeSans;-inkscape-font-specification:FreeSans"
         x="87.287674"
         xml:space="preserve"
         y="17.938356"><tspan
           id="tspan3310"
           sodipodi:role="line"
           x="87.287674"
           y="17.938356">emotes</tspan></text>
    </g>
    <g
       id="Livello_1"
       transform="translate(387.11439,42.495045)" />
    <g
       id="g3290"
       transform="translate(443.11439,59.884345)" />
    <g
       id="g7148"
       transform="matrix(0.1956571,0,0,0.1956571,345.26471,19.402885)" />
    <g
       id="g7555"
       transform="matrix(0.1333333,0,0,0.1333333,319.90372,105.99052)" />
    <g
       id="g9283"
       transform="matrix(1.0666666,0,0,1.0666666,384.44667,40.470571)" />
    <path
       d="m 126.98863,69.517044 c 0,33.262606 -26.96467,60.227276 -60.22727,60.227276 -33.262604,0 -60.2272719,-26.96467 -60.2272719,-60.227276 0,-33.262604 26.9646679,-60.227272 60.2272719,-60.227272 33.2626,0 60.22727,26.964668 60.22727,60.227272 z"
       id="path2465"
       sodipodi:cx="66.76136"
       sodipodi:cy="69.517044"
       sodipodi:rx="60.227272"
       sodipodi:ry="60.227272"
       sodipodi:type="arc"
       style="fill:none;stroke:#d89f1c;stroke-width:2;stroke-linecap:square;stroke-miterlimit:4;stroke-opacity:1;stroke-dasharray:none;filter:url(#filter3850)" />
    <path
       d="m 126.98863,69.517044 c 0,33.262606 -26.96467,60.227276 -60.22727,60.227276 -33.262604,0 -60.2272719,-26.96467 -60.2272719,-60.227276 0,-33.262604 26.9646679,-60.227272 60.2272719,-60.227272 33.2626,0 60.22727,26.964668 60.22727,60.227272 z"
       id="path3816"
       sodipodi:cx="66.76136"
       sodipodi:cy="69.517044"
       sodipodi:rx="60.227272"
       sodipodi:ry="60.227272"
       sodipodi:type="arc"
       style="fill:url(#linearGradient3940);fill-opacity:1;fill-rule:nonzero;stroke:#d89f1c;stroke-width:1;stroke-linecap:square;stroke-miterlimit:4;stroke-opacity:1;stroke-dasharray:none" />
    <path
       d="m 125.56818,69.517044 c 0,32.478106 -26.32871,58.806816 -58.80682,58.806816 -32.47811,0 -58.8068197,-26.32871 -58.8068197,-58.806816 0,-32.47811 26.3287097,-58.80682 58.8068197,-58.80682 32.47811,0 58.80682,26.32871 58.80682,58.80682 z"
       id="path3854"
       sodipodi:cx="66.76136"
       sodipodi:cy="69.517044"
       sodipodi:rx="58.80682"
       sodipodi:ry="58.80682"
       sodipodi:type="arc"
       style="fill:none;stroke:url(#linearGradient3896);stroke-width:3;stroke-linecap:square;stroke-miterlimit:4;stroke-opacity:1;stroke-dasharray:none;filter:url(#filter3870)" />
    <path
       d="m 125.56818,69.517044 c 0,32.478106 -26.32871,58.806816 -58.80682,58.806816 -32.47811,0 -58.8068197,-26.32871 -58.8068197,-58.806816 0,-32.47811 26.3287097,-58.80682 58.8068197,-58.80682 32.47811,0 58.80682,26.32871 58.80682,58.80682 z"
       id="path3876"
       sodipodi:cx="66.76136"
       sodipodi:cy="69.517044"
       sodipodi:rx="58.80682"
       sodipodi:ry="58.80682"
       sodipodi:type="arc"
       style="fill:none;stroke:url(#linearGradient3878);stroke-width:3;stroke-linecap:square;stroke-miterlimit:4;stroke-opacity:1;stroke-dasharray:none;filter:url(#filter3892)" />
    <g
       id="g3974"
       style="display:inline;enable-background:new"
       transform="matrix(0.38,0,0,0.38,279.6887,17.629367)" />
    <g
       id="g3976"
       style="display:inline;enable-background:new"
       transform="matrix(0.38,0,0,0.38,300.9687,24.237301)" />
    <g
       id="g3978"
       style="display:inline;enable-background:new"
       transform="matrix(0.0743497,0,0,0.0743497,263.78582,8.8543465)" />
    <g
       id="g3980"
       style="display:inline;enable-background:new"
       transform="matrix(0.05066665,0,0,0.05066665,254.14865,41.757649)" />
    <g
       id="g3982"
       style="display:inline;enable-background:new"
       transform="matrix(0.4053333,0,0,0.4053333,278.67497,16.860067)" />
    <g
       id="g4022"
       style="display:inline;enable-background:new"
       transform="matrix(0.25,0,0,0.25,229.80417,64.039955)" />
    <g
       id="g4024"
       style="display:inline;enable-background:new"
       transform="matrix(0.25,0,0,0.25,243.80417,68.38728)" />
    <g
       id="g4026"
       style="display:inline;enable-background:new"
       transform="matrix(0.04891427,0,0,0.04891427,219.34175,58.266915)" />
    <g
       id="g4028"
       style="display:inline;enable-background:new"
       transform="matrix(0.03333332,0,0,0.03333332,213.0015,79.913822)" />
    <g
       id="g4030"
       style="display:inline;enable-background:new"
       transform="matrix(0.2666666,0,0,0.2666666,229.13724,63.533837)" />
    <g
       id="g4070"
       style="display:inline;enable-background:new"
       transform="matrix(0.19,0,0,0.19,206.60571,95.774915)" />
    <g
       id="g4072"
       style="display:inline;enable-background:new"
       transform="matrix(0.19,0,0,0.19,217.24571,99.078875)" />
    <g
       id="g4074"
       style="display:inline;enable-background:new"
       transform="matrix(0.03717485,0,0,0.03717485,198.65427,91.387405)" />
    <g
       id="g4076"
       style="display:inline;enable-background:new"
       transform="matrix(0.02533333,0,0,0.02533333,193.83568,107.83905)" />
    <g
       id="g4078"
       style="display:inline;enable-background:new"
       transform="matrix(0.2026667,0,0,0.2026667,206.09884,95.390265)" />
    <g
       id="g4094"
       style="display:inline;enable-background:new"
       transform="matrix(0.12,0,0,0.12,180.43985,120.64594)" />
    <g
       id="g4096"
       style="display:inline;enable-background:new"
       transform="matrix(0.12,0,0,0.12,187.15985,122.73265)" />
    <g
       id="g4098"
       style="display:inline;enable-background:new"
       transform="matrix(0.02347885,0,0,0.02347885,175.41789,117.87488)" />
    <g
       id="g4100"
       style="display:inline;enable-background:new"
       transform="matrix(0.016,0,0,0.016,172.37457,128.26539)" />
    <g
       id="g4102"
       style="display:inline;enable-background:new"
       transform="matrix(0.128,0,0,0.128,180.11973,120.403)" />
    <path
       d="m 53.588675,55.107132 c 0,8.211143 -1.682399,14.867589 -3.757742,14.867589 -2.075344,0 -3.757743,-6.656446 -3.757743,-14.867589 0,-8.211143 1.682399,-14.867589 3.757743,-14.867589 2.05617,0 3.73052,6.538493 3.75742,14.673079"
       id="path4433"
       sodipodi:cx="49.830933"
       sodipodi:cy="55.107132"
       sodipodi:end="6.2701021"
       sodipodi:open="true"
       sodipodi:rx="3.7577424"
       sodipodi:ry="14.867589"
       sodipodi:start="0"
       sodipodi:type="arc"
       style="fill:#000000;fill-opacity:1;fill-rule:nonzero;stroke:none"
       transform="matrix(1.1858998,0,0,0.9970611,-9.0944927,0.1619546)" />
    <path
       d="m 53.588675,55.107132 c 0,8.211143 -1.682399,14.867589 -3.757742,14.867589 -2.075344,0 -3.757743,-6.656446 -3.757743,-14.867589 0,-8.211143 1.682399,-14.867589 3.757743,-14.867589 2.02638,0 3.687805,6.356985 3.755636,14.369909"
       id="path4435"
       sodipodi:cx="49.830933"
       sodipodi:cy="55.107132"
       sodipodi:end="6.2497049"
       sodipodi:open="true"
       sodipodi:rx="3.7577424"
       sodipodi:ry="14.867589"
       sodipodi:start="0"
       sodipodi:type="arc"
       style="fill:#000000;fill-opacity:1;fill-rule:nonzero;stroke:none"
       transform="matrix(1.1858998,0,0,0.9970611,20.905508,0.2921834)" />
    <path
       d="m 53.588675,55.107132 c 0,8.211143 -1.682399,14.867589 -3.757742,14.867589 -2.075344,0 -3.757743,-6.656446 -3.757743,-14.867589 0,-8.211143 1.682399,-14.867589 3.757743,-14.867589 2.057387,0 3.732255,6.545956 3.75746,14.685443 l -3.75746,0.182146 z"
       id="path3311"
       sodipodi:cx="49.830933"
       sodipodi:cy="55.107132"
       sodipodi:end="6.2709338"
       sodipodi:rx="3.7577424"
       sodipodi:ry="14.867589"
       sodipodi:start="0"
       sodipodi:type="arc"
       style="fill:url(#linearGradient3319);fill-opacity:1;fill-rule:nonzero;stroke:none"
       transform="matrix(1.1858998,0,0,0.9970611,-9.0944927,0.1619546)" />
    <path
       d="m 123.58518,69.517044 c 0,31.382926 -25.440892,56.823816 -56.82382,56.823816 -31.382928,0 -56.823818,-25.44089 -56.823818,-56.823816 0,-31.382928 25.44089,-56.823818 56.823818,-56.823818 31.382928,0 56.82382,25.44089 56.82382,56.823818 z"
       id="path3433"
       sodipodi:cx="66.76136"
       sodipodi:cy="69.517044"
       sodipodi:rx="56.823818"
       sodipodi:ry="56.823818"
       sodipodi:type="arc"
       style="fill:none;stroke:url(#linearGradient3435);stroke-width:1;stroke-linecap:square;stroke-miterlimit:4;stroke-opacity:1;stroke-dasharray:none;filter:url(#filter3892)"
       transform="matrix(1,0,0,-1,0,139.03409)" />
    <path
       d="m 53.588675,55.107132 c 0,8.211143 -1.682399,14.867589 -3.757742,14.867589 -2.075344,0 -3.757743,-6.656446 -3.757743,-14.867589 0,-8.211143 1.682399,-14.867589 3.757743,-14.867589 2.057387,0 3.732255,6.545956 3.75746,14.685443 l -3.75746,0.182146 z"
       id="path2537"
       sodipodi:cx="49.830933"
       sodipodi:cy="55.107132"
       sodipodi:end="6.2709338"
       sodipodi:rx="3.7577424"
       sodipodi:ry="14.867589"
       sodipodi:start="0"
       sodipodi:type="arc"
       style="fill:url(#linearGradient2539);fill-opacity:1;fill-rule:nonzero;stroke:none"
       transform="matrix(1.1858998,0,0,0.9970611,20.905508,0.2921834)" />
    <path
       d="M 65,110 C 75,100 83.998996,91.14257 105,85"
       id="path3735"
       sodipodi:nodetypes="cc"
       style="fill:none;stroke:#74550e;stroke-width:3;stroke-linecap:round;stroke-linejoin:round;stroke-miterlimit:4;stroke-opacity:1;stroke-dasharray:none;stroke-dashoffset:0;marker:none;visibility:visible;display:inline;overflow:visible;enable-background:accumulate" />
    <path
       d="m 21.070906,10.876833 c -3.02697,5.8e-5 -6.486705,0.423929 -8.656891,2.32258 -2.170187,1.898653 -3.6787703,4.584977 -3.695015,8.058651 -5.9e-6,1.837841 0.7739054,3.182121 2.28739,4.046921 1.513468,0.972993 3.0261,0.972993 4.539589,0 1.513464,-0.8648 2.252185,-2.20908 2.2522,-4.046921 -1.5e-5,-0.864796 1.1106,-1.302004 3.272727,-1.302052 l 9.219942,0 c 1.405343,4.8e-5 2.616462,0.336752 3.589442,0.985337 1.189129,0.756786 1.759498,2.133722 1.759531,4.187683 -3.3e-5,1.837837 -0.738752,3.217309 -2.252199,4.082112 -1.513508,0.864883 -3.194491,1.302091 -5.032258,1.302052 -2.872707,0.01592 -6.008855,0.203615 -8.621701,2.392962 -2.612847,2.189348 -3.870981,6.064642 -3.870968,10.064516 l 0,3.906159 c -1.3e-5,1.729709 0.706051,3.073991 2.111437,4.046921 1.621567,0.864861 3.202046,0.864862 4.715542,0 1.513457,-0.972931 2.252177,-2.317212 2.2522,-4.046921 l 0,-3.906159 c -2.3e-5,-0.864817 0.100482,-1.435185 0.316715,-1.75953 -2.2e-5,-0.324289 0.336681,-0.72884 0.985338,-1.161291 0.648609,-0.216181 1.354673,-0.349344 2.111437,-0.457478 3.459349,3e-5 6.652963,-0.942234 9.571847,-2.780058 4.540395,-2.594499 6.791748,-6.49418 6.791789,-11.683285 -4.2e-5,-0.432378 -0.0327,-0.834395 -0.140762,-1.266862 -0.648674,-4.540384 -2.397506,-7.902352 -5.208212,-10.064516 -2.594567,-2.053949 -5.619829,-3.028869 -9.079178,-2.920821 l -9.219942,0 z m -0.774193,45.114369 c -2.486429,0 -4.504399,2.017971 -4.504399,4.504399 0,2.486428 2.01797,4.504399 4.504399,4.504399 2.486428,0 4.504398,-2.017971 4.504398,-4.504399 0,-2.486428 -2.01797,-4.504399 -4.504398,-4.504399 z"
       id="text4933"
       style="font-size:48px;font-style:normal;font-variant:normal;font-weight:normal;font-stretch:normal;fill:url(#linearGradient4949);fill-opacity:1;stroke:#b81710;stroke-width:1px;stroke-linecap:butt;stroke-linejoin:miter;stroke-opacity:1;font-family:tribute2ubuntu;-inkscape-font-specification:tribute2ubuntu" />
    <path
       id="path4938"
       sodipodi:cx="12"
       sodipodi:cy="44"
       sodipodi:rx="0"
       sodipodi:ry="0"
       sodipodi:type="arc"
       style="fill:none;stroke:#74550e;stroke-width:3;stroke-linecap:round;stroke-linejoin:round;stroke-miterlimit:4;stroke-opacity:1;stroke-dasharray:none;stroke-dashoffset:0" />
  </g>
</svg>
