<?xml version="1.0" encoding="UTF-8" standalone="no"?>
<!-- Created with Inkscape (http://www.inkscape.org/) -->

<svg
   xmlns:dc="http://purl.org/dc/elements/1.1/"
   xmlns:cc="http://creativecommons.org/ns#"
   xmlns:rdf="http://www.w3.org/1999/02/22-rdf-syntax-ns#"
   xmlns:svg="http://www.w3.org/2000/svg"
   xmlns="http://www.w3.org/2000/svg"
   xmlns:xlink="http://www.w3.org/1999/xlink"
   xmlns:sodipodi="http://sodipodi.sourceforge.net/DTD/sodipodi-0.dtd"
   xmlns:inkscape="http://www.inkscape.org/namespaces/inkscape"
   height="128"
   id="svg11300"
   inkscape:export-filename="/home/micha/stopandgo/to do/Breathe/face-sick.png"
   inkscape:export-xdpi="90.000000"
   inkscape:export-ydpi="90.000000"
   inkscape:output_extension="org.inkscape.output.svg.inkscape"
   inkscape:version="0.46+devel r21673"
   sodipodi:docname="face-sick.svg"
   sodipodi:version="0.32"
   style="display:inline;enable-background:new"
   version="1.0"
   width="128">
  <title
     id="title4119">Breathe Icon Theme computer</title>
  <defs
     id="defs3">
    <linearGradient
       id="linearGradient4255">
      <stop
         id="stop4257"
         offset="0"
         style="stop-color:#00669f;stop-opacity:1;" />
      <stop
         id="stop4259"
         offset="1"
         style="stop-color:#0076b8;stop-opacity:1;" />
    </linearGradient>
    <linearGradient
       id="linearGradient4233"
       inkscape:collect="always">
      <stop
         id="stop4235"
         offset="0"
         style="stop-color:#ffffff;stop-opacity:1;" />
      <stop
         id="stop4237"
         offset="1"
         style="stop-color:#ffffff;stop-opacity:0;" />
    </linearGradient>
    <linearGradient
       id="linearGradient4220">
      <stop
         id="stop4222"
         offset="0"
         style="stop-color:#ffffff;stop-opacity:1;" />
      <stop
         id="stop4224"
         offset="1"
         style="stop-color:#808080;stop-opacity:1;" />
    </linearGradient>
    <linearGradient
       id="linearGradient4212">
      <stop
         id="stop4214"
         offset="0"
         style="stop-color:#454545;stop-opacity:1;" />
      <stop
         id="stop4216"
         offset="1"
         style="stop-color:#5d5d5d;stop-opacity:1;" />
    </linearGradient>
    <linearGradient
       id="linearGradient4188">
      <stop
         id="stop4190"
         offset="0"
         style="stop-color:#00a3ff;stop-opacity:1;" />
      <stop
         id="stop4192"
         offset="1"
         style="stop-color:#007bc0;stop-opacity:1;" />
    </linearGradient>
    <filter
       color-interpolation-filters="sRGB"
       id="filter3594"
       inkscape:collect="always">
      <feGaussianBlur
         id="feGaussianBlur3596"
         inkscape:collect="always"
         stdDeviation="0.1525227" />
    </filter>
    <filter
       color-interpolation-filters="sRGB"
       height="1.2848009"
       id="filter3511"
       inkscape:collect="always"
       width="1.291803"
       x="-0.14590152"
       y="-0.14240044">
      <feGaussianBlur
         id="feGaussianBlur3513"
         inkscape:collect="always"
         stdDeviation="0.88485263" />
    </filter>
    <linearGradient
       id="linearGradient3501">
      <stop
         id="stop3503"
         offset="0"
         style="stop-color:#ff7022;stop-opacity:0.27450982;" />
      <stop
         id="stop3505"
         offset="1"
         style="stop-color:#ff7022;stop-opacity:0;" />
    </linearGradient>
    <linearGradient
       id="linearGradient3378">
      <stop
         id="stop3380"
         offset="0"
         style="stop-color:#afafaf;stop-opacity:1;" />
      <stop
         id="stop3386"
         offset="0.5"
         style="stop-color:#6d6d6d;stop-opacity:1;" />
      <stop
         id="stop3382"
         offset="1"
         style="stop-color:#afafaf;stop-opacity:1;" />
    </linearGradient>
    <linearGradient
       id="linearGradient3347"
       inkscape:collect="always">
      <stop
         id="stop3349"
         offset="0"
         style="stop-color:#ffffff;stop-opacity:1;" />
      <stop
         id="stop3351"
         offset="1"
         style="stop-color:#ffffff;stop-opacity:0;" />
    </linearGradient>
    <linearGradient
       id="linearGradient3337">
      <stop
         id="stop3339"
         offset="0"
         style="stop-color:#ff0000;stop-opacity:1;" />
      <stop
         id="stop3341"
         offset="1"
         style="stop-color:#1800e9;stop-opacity:0.92799997;" />
    </linearGradient>
    <linearGradient
       id="linearGradient3437">
      <stop
         id="stop3439"
         offset="0"
         style="stop-color:#fefcf7;stop-opacity:1;" />
      <stop
         id="stop3445"
         offset="1"
         style="stop-color:#fef63b;stop-opacity:0" />
    </linearGradient>
    <linearGradient
       id="linearGradient2531">
      <stop
         id="stop2533"
         offset="0"
         style="stop-color:#fef63b;stop-opacity:1;" />
      <stop
         id="stop2535"
         offset="0.78319538"
         style="stop-color:#ebca2b;stop-opacity:1;" />
      <stop
         id="stop2537"
         offset="0.92242938"
         style="stop-color:#e1b423;stop-opacity:1;" />
      <stop
         id="stop2539"
         offset="1"
         style="stop-color:#dca91f;stop-opacity:1;" />
    </linearGradient>
    <linearGradient
       id="linearGradient4409">
      <stop
         id="stop4411"
         offset="0"
         style="stop-color:#ffffff;stop-opacity:1;" />
      <stop
         id="stop4413"
         offset="1"
         style="stop-color:#ffffff;stop-opacity:0;" />
    </linearGradient>
    <linearGradient
       id="linearGradient3898">
      <stop
         id="stop3900"
         offset="0"
         style="stop-color:#d89f1c;stop-opacity:1;" />
      <stop
         id="stop3902"
         offset="0.76996499"
         style="stop-color:#fef63b;stop-opacity:1;" />
      <stop
         id="stop3904"
         offset="1"
         style="stop-color:#fef63b;stop-opacity:0" />
    </linearGradient>
    <linearGradient
       id="linearGradient3880">
      <stop
         id="stop3882"
         offset="0"
         style="stop-color:#fefcf7;stop-opacity:0.62831861;" />
      <stop
         id="stop3948"
         offset="0.16433293"
         style="stop-color:#fef999;stop-opacity:1;" />
      <stop
         id="stop3884"
         offset="0.32866585"
         style="stop-color:#fef63b;stop-opacity:1;" />
      <stop
         id="stop3886"
         offset="1"
         style="stop-color:#fef63b;stop-opacity:0" />
    </linearGradient>
    <filter
       color-interpolation-filters="sRGB"
       id="filter3850"
       inkscape:collect="always">
      <feGaussianBlur
         id="feGaussianBlur3852"
         inkscape:collect="always"
         stdDeviation="0.61227272" />
    </filter>
    <filter
       color-interpolation-filters="sRGB"
       id="filter3870"
       inkscape:collect="always">
      <feGaussianBlur
         id="feGaussianBlur3872"
         inkscape:collect="always"
         stdDeviation="0.30863636" />
    </filter>
    <linearGradient
       gradientUnits="userSpaceOnUse"
       id="linearGradient3878"
       inkscape:collect="always"
       x1="63.071171"
       x2="63.893311"
       xlink:href="#linearGradient3880"
       y1="11.476513"
       y2="94.232147" />
    <filter
       color-interpolation-filters="sRGB"
       id="filter3892"
       inkscape:collect="always">
      <feGaussianBlur
         id="feGaussianBlur3894"
         inkscape:collect="always"
         stdDeviation="0.3015341" />
    </filter>
    <linearGradient
       gradientUnits="userSpaceOnUse"
       id="linearGradient3896"
       inkscape:collect="always"
       x1="64.778358"
       x2="64.38504"
       xlink:href="#linearGradient3898"
       y1="141.59807"
       y2="31.448057" />
    <linearGradient
       gradientUnits="userSpaceOnUse"
       id="linearGradient3940"
       inkscape:collect="always"
       x1="64.802284"
       x2="66.76136"
       xlink:href="#linearGradient2531"
       y1="34.000854"
       y2="142.70891" />
    <linearGradient
       gradientUnits="userSpaceOnUse"
       id="linearGradient3319"
       inkscape:collect="always"
       x1="49.830933"
       x2="49.830933"
       xlink:href="#linearGradient4409"
       y1="28.967989"
       y2="52.834164" />
    <linearGradient
       gradientUnits="userSpaceOnUse"
       id="linearGradient3435"
       inkscape:collect="always"
       x1="66.76136"
       x2="68.425888"
       xlink:href="#linearGradient3437"
       y1="-34.132553"
       y2="48.906368" />
    <linearGradient
       gradientUnits="userSpaceOnUse"
       id="linearGradient2539"
       inkscape:collect="always"
       x1="49.830933"
       x2="49.830933"
       xlink:href="#linearGradient4409"
       y1="28.967989"
       y2="52.834164" />
    <filter
       color-interpolation-filters="sRGB"
       height="1.2684987"
       id="filter4241"
       inkscape:collect="always"
       width="1.2169706"
       x="-0.10848531"
       y="-0.1342493">
      <feGaussianBlur
         id="feGaussianBlur4243"
         inkscape:collect="always"
         stdDeviation="2.1098326" />
    </filter>
    <linearGradient
       gradientTransform="translate(26.315878,6.991671)"
       gradientUnits="userSpaceOnUse"
       id="linearGradient4290"
       inkscape:collect="always"
       x1="-29.165651"
       x2="-29.165651"
       xlink:href="#linearGradient3347"
       y1="108.84462"
       y2="118.01138" />
    <linearGradient
       gradientTransform="translate(26.079577,7.6457848)"
       gradientUnits="userSpaceOnUse"
       id="linearGradient4293"
       inkscape:collect="always"
       x1="-38.247002"
       x2="11.752998"
       xlink:href="#linearGradient3337"
       y1="113.73972"
       y2="113.73972" />
    <linearGradient
       gradientTransform="matrix(0.9659258,-0.258819,0.258819,0.9659258,26.863625,0.4585942)"
       gradientUnits="userSpaceOnUse"
       id="linearGradient4297"
       inkscape:collect="always"
       x1="-23.518284"
       x2="-23.518284"
       xlink:href="#linearGradient3378"
       y1="109.84189"
       y2="118.0173" />
    <linearGradient
       gradientUnits="userSpaceOnUse"
       id="linearGradient4439"
       inkscape:collect="always"
       x1="107.97423"
       x2="95.979034"
       xlink:href="#linearGradient4233"
       y1="17.425053"
       y2="38.870922" />
    <radialGradient
       cx="94.459183"
       cy="28.742306"
       fx="94.459183"
       fy="28.742306"
       gradientTransform="matrix(0.9283825,-4.6504225e-8,3.4628463e-8,0.6913019,6.7649283,8.8727008)"
       gradientUnits="userSpaceOnUse"
       id="radialGradient4442"
       inkscape:collect="always"
       r="36.150963"
       xlink:href="#linearGradient4188" />
    <linearGradient
       gradientUnits="userSpaceOnUse"
       id="linearGradient4444"
       inkscape:collect="always"
       x1="91.0411"
       x2="105.82932"
       xlink:href="#linearGradient4255"
       y1="37.98888"
       y2="12.653265" />
    <radialGradient
       cx="103.05013"
       cy="7.2717009"
       fx="103.05013"
       fy="7.2717009"
       gradientTransform="matrix(0.5687127,0.3501702,-0.6501662,1.0559373,53.377135,-36.566326)"
       gradientUnits="userSpaceOnUse"
       id="radialGradient4447"
       inkscape:collect="always"
       r="11.629783"
       xlink:href="#linearGradient4220" />
    <linearGradient
       gradientUnits="userSpaceOnUse"
       id="linearGradient4449"
       inkscape:collect="always"
       x1="101.72819"
       x2="107.25524"
       xlink:href="#linearGradient4212"
       y1="15.889"
       y2="7.1972198" />
    <filter
       color-interpolation-filters="sRGB"
       id="filter4453"
       inkscape:collect="always">
      <feGaussianBlur
         id="feGaussianBlur4455"
         inkscape:collect="always"
         stdDeviation="0.2050157" />
    </filter>
    <filter
       color-interpolation-filters="sRGB"
       id="filter4469"
       inkscape:collect="always">
      <feGaussianBlur
         id="feGaussianBlur4471"
         inkscape:collect="always"
         stdDeviation="0.46139136" />
    </filter>
    <filter
       color-interpolation-filters="sRGB"
       id="filter4551"
       inkscape:collect="always">
      <feGaussianBlur
         id="feGaussianBlur4553"
         inkscape:collect="always"
         stdDeviation="0.34817134" />
    </filter>
    <linearGradient
       gradientUnits="userSpaceOnUse"
       id="linearGradient3135"
       inkscape:collect="always"
       x1="101.72819"
       x2="107.25524"
       xlink:href="#linearGradient4212"
       y1="15.889"
       y2="7.1972198" />
    <linearGradient
       gradientUnits="userSpaceOnUse"
       id="linearGradient3137"
       inkscape:collect="always"
       x1="91.0411"
       x2="105.82932"
       xlink:href="#linearGradient4255"
       y1="37.98888"
       y2="12.653265" />
    <radialGradient
       cx="31.438356"
       cy="84.7911"
       fx="31.438356"
       fy="84.7911"
       gradientTransform="matrix(0.8256587,0.02949918,-0.02231646,0.7823574,7.3732432,17.526753)"
       gradientUnits="userSpaceOnUse"
       id="radialGradient3139"
       inkscape:collect="always"
       r="7.3972602"
       xlink:href="#linearGradient3501" />
  </defs>
  <sodipodi:namedview
     bordercolor="#666666"
     borderopacity="0.25490196"
     fill="#f57900"
     gridtolerance="12"
     guidetolerance="13"
     height="300px"
     id="base"
     inkscape:current-layer="layer6"
     inkscape:cx="-50.5"
     inkscape:cy="64.5"
     inkscape:document-units="px"
     inkscape:grid-bbox="true"
     inkscape:guide-bbox="true"
     inkscape:pageopacity="0.0"
     inkscape:pageshadow="2"
     inkscape:showpageshadow="false"
     inkscape:snap-bbox="true"
     inkscape:snap-nodes="false"
     inkscape:window-height="953"
     inkscape:window-maximized="0"
     inkscape:window-width="1670"
     inkscape:window-x="0"
     inkscape:window-y="1"
     inkscape:zoom="1"
     objecttolerance="7"
     pagecolor="#ffffff"
     showgrid="false"
     showguides="true"
     stroke="#ef2929"
     width="400px">
    <inkscape:grid
       empspacing="5"
       enabled="true"
       id="grid5883"
       spacingx="1px"
       spacingy="1px"
       type="xygrid"
       visible="true" />
  </sodipodi:namedview>
  <metadata
     id="metadata4">
    <rdf:RDF>
      <cc:Work
         rdf:about="">
        <dc:format>image/svg+xml</dc:format>
        <dc:type
           rdf:resource="http://purl.org/dc/dcmitype/StillImage" />
        <dc:creator>
          <cc:Agent>
            <dc:title>Breathe Icon Team</dc:title>
          </cc:Agent>
        </dc:creator>
        <dc:source />
        <cc:license
           rdf:resource="http://creativecommons.org/licenses/by-nc-sa/3.0/" />
        <dc:title>Breathe Icon Theme icon</dc:title>
        <dc:subject>
          <rdf:Bag />
        </dc:subject>
        <dc:date />
        <dc:rights>
          <cc:Agent>
            <dc:title />
          </cc:Agent>
        </dc:rights>
        <dc:publisher>
          <cc:Agent>
            <dc:title />
          </cc:Agent>
        </dc:publisher>
        <dc:identifier />
        <dc:relation />
        <dc:language />
        <dc:coverage />
        <dc:description />
        <dc:contributor>
          <cc:Agent>
            <dc:title>Jakub Steiner, Cory Kontros, Oxygen and Breathe icon teams</dc:title>
          </cc:Agent>
        </dc:contributor>
      </cc:Work>
      <cc:License
         rdf:about="http://creativecommons.org/licenses/by-nc-sa/3.0/">
        <cc:permits
           rdf:resource="http://creativecommons.org/ns#Reproduction" />
        <cc:permits
           rdf:resource="http://creativecommons.org/ns#Distribution" />
        <cc:requires
           rdf:resource="http://creativecommons.org/ns#Notice" />
        <cc:requires
           rdf:resource="http://creativecommons.org/ns#Attribution" />
        <cc:prohibits
           rdf:resource="http://creativecommons.org/ns#CommercialUse" />
        <cc:permits
           rdf:resource="http://creativecommons.org/ns#DerivativeWorks" />
        <cc:requires
           rdf:resource="http://creativecommons.org/ns#ShareAlike" />
      </cc:License>
    </rdf:RDF>
  </metadata>
  <g
     id="layer1"
     inkscape:groupmode="layer"
     inkscape:label="emotes/face-sick"
     sodipodi:insensitive="true"
     style="display:inline"
     transform="translate(-3,-4)">
    <rect
       height="256"
       id="256x256"
       inkscape:label="256x256"
       style="fill:#eeeeec;fill-opacity:1;fill-rule:nonzero;stroke:none;stroke-width:5;marker:none;visibility:visible;display:none;overflow:visible;enable-background:accumulate"
       width="256"
       x="26.5"
       y="32.823101" />
    <rect
       height="48"
       id="48x48"
       inkscape:label="48x48"
       style="fill:#eeeeec;fill-opacity:1;fill-rule:nonzero;stroke:none;stroke-width:5;marker:none;visibility:visible;display:none;overflow:visible;enable-background:accumulate"
       width="48"
       x="-35.5"
       y="32.823101" />
    <text
       id="text6091"
       sodipodi:linespacing="125%"
       style="font-size:56.11526489px;font-style:normal;font-variant:normal;font-weight:bold;font-stretch:normal;text-indent:0;text-align:start;text-decoration:none;line-height:125%;letter-spacing:normal;word-spacing:normal;text-transform:none;direction:ltr;block-progression:tb;writing-mode:lr-tb;text-anchor:start;fill:#2e3436;fill-opacity:1;fill-rule:nonzero;stroke:none;stroke-width:5;marker:none;visibility:visible;display:none;overflow:visible;enable-background:accumulate;font-family:Myriad"
       x="-418.41196"
       xml:space="preserve"
       y="34.084831"><tspan
         id="tspan6093"
         sodipodi:role="line"
         x="-418.41196"
         y="34.084831">audio-x-generic</tspan></text>
    <g
       id="layer6"
       inkscape:groupmode="layer"
       inkscape:label="plate"
       sodipodi:insensitive="true"
       style="display:none">
      <text
         id="text3304"
         style="font-size:12px;font-style:normal;font-variant:normal;font-weight:normal;font-stretch:normal;fill:#000000;fill-opacity:1;stroke:none;display:inline;enable-background:new;font-family:FreeSans;-inkscape-font-specification:FreeSans"
         x="6.8424654"
         xml:space="preserve"
         y="17.938356"><tspan
           id="tspan3306"
           sodipodi:role="line"
           x="6.8424654"
           y="17.938356">face-sick</tspan></text>
      <text
         id="text3308"
         style="font-size:12px;font-style:normal;font-variant:normal;font-weight:normal;font-stretch:normal;fill:#000000;fill-opacity:1;stroke:none;display:inline;enable-background:new;font-family:FreeSans;-inkscape-font-specification:FreeSans"
         x="87.287674"
         xml:space="preserve"
         y="17.938356"><tspan
           id="tspan3310"
           sodipodi:role="line"
           x="87.287674"
           y="17.938356">emotes</tspan></text>
    </g>
    <path
       d="M -48.53125,109 C -51.058655,109.25514 -53,111.40313 -53,114 c 0,2.77 2.23,5 5,5 l 40,0 c 2.0524568,0 3.7904801,-1.23886 4.5625,-3 L 9,116 c 1.662,0 3,-0.892 3,-2 0,-1.108 -1.338,-2 -3,-2 l -12.4375,0 C -4.2037493,110.22532 -5.9377437,109 -8,109 l -40,0 c -0.173125,0 -0.362756,-0.017 -0.53125,0 z"
       id="path4283"
       style="fill:none;stroke:#9d9d9d;stroke-width:3;stroke-linecap:round;stroke-linejoin:round;stroke-miterlimit:4;stroke-opacity:1;stroke-dasharray:none;filter:url(#filter4551)"
       transform="matrix(0.9659258,-0.258819,0.258819,0.9659258,26.863625,0.4585942)" />
    <g
       id="Livello_1"
       transform="translate(387.11439,42.495045)" />
    <g
       id="g3290"
       transform="translate(443.11439,59.884345)" />
    <g
       id="g7148"
       transform="matrix(0.1956571,0,0,0.1956571,345.26471,19.402885)" />
    <g
       id="g7555"
       transform="matrix(0.1333333,0,0,0.1333333,319.90372,105.99052)" />
    <g
       id="g9283"
       transform="matrix(1.0666666,0,0,1.0666666,384.44667,40.470571)" />
    <path
       d="m 126.98863,69.517044 c 0,33.262606 -26.96467,60.227276 -60.22727,60.227276 -33.262604,0 -60.2272719,-26.96467 -60.2272719,-60.227276 0,-33.262604 26.9646679,-60.227272 60.2272719,-60.227272 33.2626,0 60.22727,26.964668 60.22727,60.227272 z"
       id="path2465"
       sodipodi:cx="66.76136"
       sodipodi:cy="69.517044"
       sodipodi:rx="60.227272"
       sodipodi:ry="60.227272"
       sodipodi:type="arc"
       style="fill:none;stroke:#d89f1c;stroke-width:2;stroke-linecap:square;stroke-miterlimit:4;stroke-opacity:1;stroke-dasharray:none;filter:url(#filter3850)" />
    <g
       id="g4473">
      <path
         d="m 98.553254,5.5583095 -5.311361,7.8831995 17.621827,7.860374 3.63774,-8.222569 C 111.38599,8.943454 105.25835,5.9640578 98.553254,5.5583095 z"
         id="path4451"
         sodipodi:nodetypes="ccccc"
         style="fill:none;stroke:url(#linearGradient3135);stroke-width:2;stroke-linecap:butt;stroke-linejoin:miter;stroke-miterlimit:4;stroke-opacity:1;stroke-dasharray:none;stroke-dashoffset:0;marker:none;visibility:visible;display:inline;overflow:visible;filter:url(#filter4453);enable-background:accumulate" />
      <path
         d="m 116.87671,23.60274 c 0,0 -5.14212,-5.016759 -8.50685,-7.212329 C 105.00513,14.194841 99.44432,9.6940282 94.684931,7.7671233 89.798028,5.7885926 83.954509,5.5363381 79.335616,5.5 c -4.618893,-0.036338 -9.355191,0.3651393 -13.5,1.5 -3.590582,0.9831116 -7.027397,2.8013698 -7.027397,2.8013698 0,0 10.612503,-0.9167761 12.760274,-0.369863 2.147771,0.5469131 5.732877,2.9589042 5.732877,2.9589042 -1.005138,-2.6224298 -2.447209,-3.5894599 -4.438356,-4.7328768 1.952471,0.9553234 3.615418,2.2930117 4.623287,4.7328768 0.947446,2.293592 -1.222764,9.625113 -0.184931,15.09589 0.970026,5.113343 2.234237,9.124286 4.623287,11.280822 2.38905,2.156536 6.288139,5.686642 11.310959,5.634247 5.202326,-0.05427 7.900054,-1.895151 9.431504,-4.253425 1.53145,-2.358274 3.39376,-5.238055 8.13699,-6.842466 -4.81215,1.858933 -6.70006,4.544282 -7.95206,7.027398 0,0 2.98799,5.406973 6.07261,8.420548 3.17786,3.104663 7.06496,4.77056 11.09589,4.438356 3.65165,-0.300945 6.86934,-1.893662 8.4315,-5.732876 1.50428,-3.69696 1.09792,-9.021192 0.0753,-13.315069 -1.02257,-4.293877 -0.0207,-10.731549 -5.91781,-14.794521 -6.40359,-4.411939 -14.23972,-2.958905 -14.23972,-2.958905 2.87142,2.23708 6.03932,5.08473 8.50684,7.21233 z"
         id="path4467"
         sodipodi:nodetypes="czzzzczcczzzzzcczzzzzcc"
         style="fill:none;stroke:url(#linearGradient3137);stroke-width:2;stroke-linecap:round;stroke-linejoin:round;stroke-miterlimit:4;stroke-opacity:1;stroke-dasharray:none;stroke-dashoffset:0;marker:none;visibility:visible;display:inline;overflow:visible;filter:url(#filter4469);enable-background:accumulate" />
    </g>
    <path
       d="m 126.98863,69.517044 c 0,33.262606 -26.96467,60.227276 -60.22727,60.227276 -33.262604,0 -60.2272719,-26.96467 -60.2272719,-60.227276 0,-33.262604 26.9646679,-60.227272 60.2272719,-60.227272 33.2626,0 60.22727,26.964668 60.22727,60.227272 z"
       id="path3816"
       sodipodi:cx="66.76136"
       sodipodi:cy="69.517044"
       sodipodi:rx="60.227272"
       sodipodi:ry="60.227272"
       sodipodi:type="arc"
       style="fill:url(#linearGradient3940);fill-opacity:1;fill-rule:nonzero;stroke:#d89f1c;stroke-width:1;stroke-linecap:square;stroke-miterlimit:4;stroke-opacity:1;stroke-dasharray:none" />
    <path
       d="m 125.56818,69.517044 c 0,32.478106 -26.32871,58.806816 -58.80682,58.806816 -32.47811,0 -58.8068197,-26.32871 -58.8068197,-58.806816 0,-32.47811 26.3287097,-58.80682 58.8068197,-58.80682 32.47811,0 58.80682,26.32871 58.80682,58.80682 z"
       id="path3854"
       sodipodi:cx="66.76136"
       sodipodi:cy="69.517044"
       sodipodi:rx="58.80682"
       sodipodi:ry="58.80682"
       sodipodi:type="arc"
       style="fill:none;stroke:url(#linearGradient3896);stroke-width:3;stroke-linecap:square;stroke-miterlimit:4;stroke-opacity:1;stroke-dasharray:none;filter:url(#filter3870)" />
    <path
       d="m 125.56818,69.517044 c 0,32.478106 -26.32871,58.806816 -58.80682,58.806816 -32.47811,0 -58.8068197,-26.32871 -58.8068197,-58.806816 0,-32.47811 26.3287097,-58.80682 58.8068197,-58.80682 32.47811,0 58.80682,26.32871 58.80682,58.80682 z"
       id="path3876"
       sodipodi:cx="66.76136"
       sodipodi:cy="69.517044"
       sodipodi:rx="58.80682"
       sodipodi:ry="58.80682"
       sodipodi:type="arc"
       style="fill:none;stroke:url(#linearGradient3878);stroke-width:3;stroke-linecap:square;stroke-miterlimit:4;stroke-opacity:1;stroke-dasharray:none;filter:url(#filter3892)" />
    <g
       id="g3974"
       style="display:inline;enable-background:new"
       transform="matrix(0.38,0,0,0.38,279.6887,17.629367)" />
    <g
       id="g3976"
       style="display:inline;enable-background:new"
       transform="matrix(0.38,0,0,0.38,300.9687,24.237301)" />
    <g
       id="g3978"
       style="display:inline;enable-background:new"
       transform="matrix(0.0743497,0,0,0.0743497,263.78582,8.8543465)" />
    <g
       id="g3980"
       style="display:inline;enable-background:new"
       transform="matrix(0.05066665,0,0,0.05066665,254.14865,41.757649)" />
    <g
       id="g3982"
       style="display:inline;enable-background:new"
       transform="matrix(0.4053333,0,0,0.4053333,278.67497,16.860067)" />
    <g
       id="g4715"
       transform="matrix(0.375,0,0,0.375,184.25,2.5)">
      <g
         id="g4719"
         transform="translate(-137,0)" />
    </g>
    <g
       id="g4022"
       style="display:inline;enable-background:new"
       transform="matrix(0.25,0,0,0.25,229.80417,64.039955)" />
    <g
       id="g4024"
       style="display:inline;enable-background:new"
       transform="matrix(0.25,0,0,0.25,243.80417,68.38728)" />
    <g
       id="g4026"
       style="display:inline;enable-background:new"
       transform="matrix(0.04891427,0,0,0.04891427,219.34175,58.266915)" />
    <g
       id="g4028"
       style="display:inline;enable-background:new"
       transform="matrix(0.03333332,0,0,0.03333332,213.0015,79.913822)" />
    <g
       id="g4030"
       style="display:inline;enable-background:new"
       transform="matrix(0.2666666,0,0,0.2666666,229.13724,63.533837)" />
    <g
       id="g4791"
       transform="matrix(0.25,0,0,0.25,133.25,54)" />
    <g
       id="g4070"
       style="display:inline;enable-background:new"
       transform="matrix(0.19,0,0,0.19,206.60571,95.774915)" />
    <g
       id="g4072"
       style="display:inline;enable-background:new"
       transform="matrix(0.19,0,0,0.19,217.24571,99.078875)" />
    <g
       id="g4074"
       style="display:inline;enable-background:new"
       transform="matrix(0.03717485,0,0,0.03717485,198.65427,91.387405)" />
    <g
       id="g4076"
       style="display:inline;enable-background:new"
       transform="matrix(0.02533333,0,0,0.02533333,193.83568,107.83905)" />
    <g
       id="g4078"
       style="display:inline;enable-background:new"
       transform="matrix(0.2026667,0,0,0.2026667,206.09884,95.390265)" />
    <g
       id="g4094"
       style="display:inline;enable-background:new"
       transform="matrix(0.12,0,0,0.12,180.43985,120.64594)" />
    <g
       id="g4096"
       style="display:inline;enable-background:new"
       transform="matrix(0.12,0,0,0.12,187.15985,122.73265)" />
    <g
       id="g4098"
       style="display:inline;enable-background:new"
       transform="matrix(0.02347885,0,0,0.02347885,175.41789,117.87488)" />
    <g
       id="g4100"
       style="display:inline;enable-background:new"
       transform="matrix(0.016,0,0,0.016,172.37457,128.26539)" />
    <g
       id="g4102"
       style="display:inline;enable-background:new"
       transform="matrix(0.128,0,0,0.128,180.11973,120.403)" />
    <path
       d="m 53.588675,55.107132 c 0,8.211143 -1.682399,14.867589 -3.757742,14.867589 -2.075344,0 -3.757743,-6.656446 -3.757743,-14.867589 0,-8.211143 1.682399,-14.867589 3.757743,-14.867589 2.05617,0 3.73052,6.538493 3.75742,14.673079"
       id="path4433"
       sodipodi:cx="49.830933"
       sodipodi:cy="55.107132"
       sodipodi:end="6.2701021"
       sodipodi:open="true"
       sodipodi:rx="3.7577424"
       sodipodi:ry="14.867589"
       sodipodi:start="0"
       sodipodi:type="arc"
       style="fill:#000000;fill-opacity:1;fill-rule:nonzero;stroke:none"
       transform="matrix(1.1858998,0,0,0.9970611,-9.0944927,0.1619546)" />
    <path
       d="m 53.588675,55.107132 c 0,8.211143 -1.682399,14.867589 -3.757742,14.867589 -2.075344,0 -3.757743,-6.656446 -3.757743,-14.867589 0,-8.211143 1.682399,-14.867589 3.757743,-14.867589 2.02638,0 3.687805,6.356985 3.755636,14.369909"
       id="path4435"
       sodipodi:cx="49.830933"
       sodipodi:cy="55.107132"
       sodipodi:end="6.2497049"
       sodipodi:open="true"
       sodipodi:rx="3.7577424"
       sodipodi:ry="14.867589"
       sodipodi:start="0"
       sodipodi:type="arc"
       style="fill:#000000;fill-opacity:1;fill-rule:nonzero;stroke:none"
       transform="matrix(1.1858998,0,0,0.9970611,20.905508,0.2921834)" />
    <path
       d="m 53.588675,55.107132 c 0,8.211143 -1.682399,14.867589 -3.757742,14.867589 -2.075344,0 -3.757743,-6.656446 -3.757743,-14.867589 0,-8.211143 1.682399,-14.867589 3.757743,-14.867589 2.057387,0 3.732255,6.545956 3.75746,14.685443 l -3.75746,0.182146 z"
       id="path3311"
       sodipodi:cx="49.830933"
       sodipodi:cy="55.107132"
       sodipodi:end="6.2709338"
       sodipodi:rx="3.7577424"
       sodipodi:ry="14.867589"
       sodipodi:start="0"
       sodipodi:type="arc"
       style="fill:url(#linearGradient3319);fill-opacity:1;fill-rule:nonzero;stroke:none"
       transform="matrix(1.1858998,0,0,0.9970611,-9.0944927,0.1619546)" />
    <path
       d="m 123.58518,69.517044 c 0,31.382926 -25.440892,56.823816 -56.82382,56.823816 -31.382928,0 -56.823818,-25.44089 -56.823818,-56.823816 0,-31.382928 25.44089,-56.823818 56.823818,-56.823818 31.382928,0 56.82382,25.44089 56.82382,56.823818 z"
       id="path3433"
       sodipodi:cx="66.76136"
       sodipodi:cy="69.517044"
       sodipodi:rx="56.823818"
       sodipodi:ry="56.823818"
       sodipodi:type="arc"
       style="fill:none;stroke:url(#linearGradient3435);stroke-width:1;stroke-linecap:square;stroke-miterlimit:4;stroke-opacity:1;stroke-dasharray:none;filter:url(#filter3892)"
       transform="matrix(1,0,0,-1,0,139.03409)" />
    <path
       d="m 53.588675,55.107132 c 0,8.211143 -1.682399,14.867589 -3.757742,14.867589 -2.075344,0 -3.757743,-6.656446 -3.757743,-14.867589 0,-8.211143 1.682399,-14.867589 3.757743,-14.867589 2.057387,0 3.732255,6.545956 3.75746,14.685443 l -3.75746,0.182146 z"
       id="path2537"
       sodipodi:cx="49.830933"
       sodipodi:cy="55.107132"
       sodipodi:end="6.2709338"
       sodipodi:rx="3.7577424"
       sodipodi:ry="14.867589"
       sodipodi:start="0"
       sodipodi:type="arc"
       style="fill:url(#linearGradient2539);fill-opacity:1;fill-rule:nonzero;stroke:none"
       transform="matrix(1.1858998,0,0,0.9970611,20.905508,0.2921834)" />
    <g
       id="g4322">
      <g
         id="g4310">
        <path
           d="m 8.1973095,118.30532 c -2.3752506,0.90058 -3.6945052,3.47784 -3.0223859,5.98622 0.7169286,2.67562 3.4481095,4.25247 6.1237244,3.53554 L 49.93568,117.47432 c 1.982521,-0.53122 3.340682,-2.1777 3.630579,-4.07864 l 12.013702,-3.21906 c 1.605369,-0.43016 2.666911,-1.63807 2.38014,-2.70831 -0.286772,-1.07025 -1.810047,-1.58555 -3.415416,-1.1554 l -12.013702,3.21906 c -1.199461,-1.51589 -3.191507,-2.25066 -5.183493,-1.71691 L 8.7104576,118.16782 c -0.1672259,0.0448 -0.3547979,0.0775 -0.5131481,0.1375 z"
           id="path3355"
           style="fill:none;stroke:#a4a4a4;stroke-width:1.99999988;stroke-linecap:round;stroke-linejoin:round;stroke-miterlimit:4;stroke-opacity:1;stroke-dasharray:none" />
        <path
           d="m 8.1973095,118.30532 c -2.3752506,0.90058 -3.6945052,3.47784 -3.0223859,5.98622 0.7169286,2.67562 3.4481095,4.25247 6.1237244,3.53554 L 49.93568,117.47432 c 1.982521,-0.53122 3.340682,-2.1777 3.630579,-4.07864 l 12.013702,-3.21906 c 1.605369,-0.43016 2.666911,-1.63807 2.38014,-2.70831 -0.286772,-1.07025 -1.810047,-1.58555 -3.415416,-1.1554 l -12.013702,3.21906 c -1.199461,-1.51589 -3.191507,-2.25066 -5.183493,-1.71691 L 8.7104576,118.16782 c -0.1672259,0.0448 -0.3547979,0.0775 -0.5131481,0.1375 z"
           id="rect3316"
           style="fill:#e6e6e6;fill-opacity:1;fill-rule:evenodd;stroke:none" />
        <path
           d="m 11.867054,118.35729 c -0.535123,0.14338 -0.922185,0.42206 -0.707107,1.22474 l 1.552914,5.79556 c 0.215079,0.80268 0.689622,0.85049 1.224745,0.7071 0.535123,-0.14338 0.922185,-0.42206 0.707107,-1.22474 l -1.552914,-5.79556 c -0.215079,-0.80268 -0.689622,-0.85049 -1.224745,-0.7071 z m 3.863703,-1.03528 c -0.535123,0.14339 -0.922185,0.42206 -0.707107,1.22475 l 1.552914,5.79555 c 0.215079,0.80269 0.689622,0.85049 1.224745,0.70711 0.535123,-0.14339 0.922186,-0.42206 0.707107,-1.22475 l -1.552914,-5.79555 c -0.215079,-0.80269 -0.689622,-0.85049 -1.224745,-0.70711 z m 3.863703,-1.03527 c -0.535122,0.14338 -0.922185,0.42206 -0.707106,1.22474 l 1.552914,5.79555 c 0.215078,0.80269 0.689622,0.8505 1.224744,0.70711 0.535123,-0.14338 0.922186,-0.42206 0.707107,-1.22474 l -1.552914,-5.79556 c -0.215078,-0.80268 -0.689622,-0.85049 -1.224745,-0.7071 z m 3.863704,-1.03528 c -0.535123,0.14338 -0.922186,0.42206 -0.707107,1.22474 l 1.552914,5.79556 c 0.215078,0.80268 0.689622,0.85049 1.224745,0.70711 0.535122,-0.14339 0.922185,-0.42206 0.707106,-1.22475 l -1.552914,-5.79555 c -0.215078,-0.80269 -0.689622,-0.8505 -1.224744,-0.70711 z m 3.863703,-1.03528 c -0.535123,0.14339 -0.922186,0.42206 -0.707107,1.22475 l 1.552914,5.79555 c 0.215079,0.80269 0.689622,0.8505 1.224745,0.70711 0.535123,-0.14339 0.922185,-0.42206 0.707107,-1.22475 l -1.552914,-5.79555 c -0.215079,-0.80268 -0.689622,-0.85049 -1.224745,-0.70711 z m 3.863703,-1.03527 c -0.535123,0.14338 -0.922185,0.42206 -0.707107,1.22474 l 1.552914,5.79556 c 0.215079,0.80268 0.689622,0.85049 1.224745,0.7071 0.535123,-0.14338 0.922185,-0.42206 0.707107,-1.22474 l -1.552914,-5.79556 c -0.215079,-0.80268 -0.689622,-0.85049 -1.224745,-0.7071 z m 3.863703,-1.03528 c -0.535123,0.14339 -0.922185,0.42206 -0.707107,1.22475 l 1.552914,5.79555 c 0.215079,0.80269 0.689622,0.85049 1.224745,0.70711 0.535123,-0.14339 0.922186,-0.42206 0.707107,-1.22475 l -1.552914,-5.79555 c -0.215079,-0.80269 -0.689622,-0.85049 -1.224745,-0.70711 z m 3.863703,-1.03527 c -0.535122,0.14338 -0.922185,0.42206 -0.707106,1.22474 l 1.552914,5.79555 c 0.215078,0.80269 0.689622,0.8505 1.224744,0.70711 0.535123,-0.14338 0.922186,-0.42206 0.707107,-1.22474 l -1.552914,-5.79556 c -0.215078,-0.80268 -0.689622,-0.85049 -1.224745,-0.7071 z m 3.863704,-1.03528 c -0.535123,0.14338 -0.922186,0.42206 -0.707107,1.22474 l 1.552914,5.79556 c 0.215078,0.80268 0.689622,0.85049 1.224745,0.70711 0.535122,-0.14339 0.922185,-0.42206 0.707106,-1.22475 l -1.552914,-5.79555 c -0.215078,-0.80269 -0.689622,-0.8505 -1.224744,-0.70711 z m 3.863703,-1.03528 c -0.535123,0.14339 -0.922186,0.42206 -0.707107,1.22475 l 1.552914,5.79555 c 0.215079,0.80269 0.689622,0.8505 1.224745,0.70711 0.535123,-0.14339 0.922185,-0.42206 0.707107,-1.22475 l -1.552914,-5.79555 c -0.215079,-0.80268 -0.689622,-0.85049 -1.224745,-0.70711 z"
           id="rect3357"
           sodipodi:nodetypes="cccsccccccsccccccsccccccsccccccsccccccsccccccsccccccsccccccsccccccsccc"
           style="opacity:0.8;fill:url(#linearGradient4297);fill-opacity:1;fill-rule:evenodd;stroke:none" />
        <rect
           height="3.9999998"
           id="rect3318"
           rx="1.9999999"
           ry="1.9999999"
           style="opacity:0.6;fill:#999999;fill-opacity:1;fill-rule:evenodd;stroke:none"
           transform="matrix(0.9659258,-0.258819,0.258819,0.9659258,0,0)"
           width="59.999996"
           x="-22.167423"
           y="119.38551" />
        <rect
           height="3.9999998"
           id="rect3323"
           rx="1.9999999"
           ry="1.9999999"
           style="opacity:0.8;fill:url(#linearGradient4293);fill-opacity:1;fill-rule:evenodd;stroke:none"
           transform="matrix(0.9659258,-0.258819,0.258819,0.9659258,0,0)"
           width="50"
           x="-12.167423"
           y="119.38551" />
        <rect
           height="3"
           id="rect3345"
           rx="1.5"
           ry="1.5"
           style="fill:url(#linearGradient4290);fill-opacity:1;fill-rule:evenodd;stroke:none"
           transform="matrix(0.9659258,-0.258819,0.258819,0.9659258,0,0)"
           width="40"
           x="-23.170422"
           y="117.39578" />
      </g>
      <path
         d="m 55.813974,106.53602 c 2.621425,-1.02054 5.673094,0.0496 6.816095,2.39011 0.937886,1.92054 0.312039,4.16413 -1.525169,5.46755"
         id="path3314"
         sodipodi:cx="57.88356"
         sodipodi:cy="110.77397"
         sodipodi:end="7.1825459"
         sodipodi:open="true"
         sodipodi:rx="5.178082"
         sodipodi:ry="4.6232877"
         sodipodi:start="4.3012191"
         sodipodi:type="arc"
         style="fill:none;stroke:#655200;stroke-width:3.28419805;stroke-linecap:round;stroke-linejoin:round;stroke-miterlimit:4;stroke-opacity:1;stroke-dasharray:none"
         transform="matrix(0.9007701,0,0,0.9263388,11.924566,5.6624993)" />
    </g>
    <g
       id="g4318"
       transform="translate(-1.3862711,0.01293542)">
      <path
         d="m 38.835617,84.7911 c 0,4.034326 -3.311867,7.304794 -7.397261,7.304794 -4.085394,0 -7.39726,-3.270468 -7.39726,-7.304794 0,-4.034327 3.311866,-7.304795 7.39726,-7.304795 4.085394,0 7.397261,3.270468 7.397261,7.304795 z"
         id="path3536"
         sodipodi:cx="31.438356"
         sodipodi:cy="84.7911"
         sodipodi:rx="7.3972602"
         sodipodi:ry="7.3047943"
         sodipodi:type="arc"
         style="fill:url(#radialGradient3139);fill-opacity:1;fill-rule:evenodd;stroke:none;display:inline;filter:url(#filter3511);enable-background:new"
         transform="matrix(2.0151163,0.8351985,-0.7462681,1.8005507,27.186303,-99.407394)" />
      <use
         height="135"
         id="use3578"
         style="display:inline;filter:url(#filter3594);enable-background:new"
         transform="matrix(-1,0,0,1,133.52272,0)"
         width="185"
         x="0"
         xlink:href="#path3536"
         y="0" />
    </g>
    <path
       d="m 98.553254,5.5583095 -5.311361,7.8831995 17.621827,7.860374 3.63774,-8.222569 C 111.38599,8.943454 105.25835,5.9640578 98.553254,5.5583095 z"
       id="path3312"
       sodipodi:nodetypes="ccccc"
       style="fill:url(#radialGradient4447);fill-opacity:1;fill-rule:evenodd;stroke:url(#linearGradient4449);stroke-width:1px;stroke-linecap:butt;stroke-linejoin:miter;stroke-miterlimit:4;stroke-opacity:1;stroke-dasharray:none;stroke-dashoffset:0;marker:none;visibility:visible;display:inline;overflow:visible;enable-background:accumulate" />
    <g
       id="g4477">
      <path
         d="m 116.87671,23.60274 c 0,0 -5.14212,-5.016759 -8.50685,-7.212329 C 105.00513,14.194841 99.44432,9.6940282 94.684931,7.7671233 89.798028,5.7885926 83.954509,5.5363381 79.335616,5.5 c -4.618893,-0.036338 -9.355191,0.3651393 -13.5,1.5 -3.590582,0.9831116 -7.027397,2.8013698 -7.027397,2.8013698 0,0 10.612503,-0.9167761 12.760274,-0.369863 2.147771,0.5469131 5.732877,2.9589042 5.732877,2.9589042 -1.005138,-2.6224298 -2.447209,-3.5894599 -4.438356,-4.7328768 1.952471,0.9553234 3.615418,2.2930117 4.623287,4.7328768 0.947446,2.293592 -1.222764,9.625113 -0.184931,15.09589 0.970026,5.113343 2.234237,9.124286 4.623287,11.280822 2.38905,2.156536 6.288139,5.686642 11.310959,5.634247 5.202326,-0.05427 7.900054,-1.895151 9.431504,-4.253425 1.53145,-2.358274 3.39376,-5.238055 8.13699,-6.842466 -4.81215,1.858933 -6.70006,4.544282 -7.95206,7.027398 0,0 2.98799,5.406973 6.07261,8.420548 3.17786,3.104663 7.06496,4.77056 11.09589,4.438356 3.65165,-0.300945 6.86934,-1.893662 8.4315,-5.732876 1.50428,-3.69696 1.09792,-9.021192 0.0753,-13.315069 -1.02257,-4.293877 -0.0207,-10.731549 -5.91781,-14.794521 -6.40359,-4.411939 -14.23972,-2.958905 -14.23972,-2.958905 2.87142,2.23708 6.03932,5.08473 8.50684,7.21233 z"
         id="path3309"
         sodipodi:nodetypes="czzzzczcczzzzzcczzzzzcc"
         style="fill:url(#radialGradient4442);fill-opacity:1;fill-rule:evenodd;stroke:url(#linearGradient4444);stroke-width:1px;stroke-linecap:round;stroke-linejoin:round;stroke-miterlimit:4;stroke-opacity:1;stroke-dasharray:none;stroke-dashoffset:0;marker:none;visibility:visible;display:inline;overflow:visible;enable-background:accumulate" />
      <path
         d="m 80.259846,8.1429795 c 8.156601,5.9320735 8.51622,14.2694435 9.623288,17.5706335 1.124358,3.35275 6.081838,5.774983 8.3125,4.0625 2.344156,-1.799614 7.906546,-5.734989 14.614296,-2.763271 C 98.083882,17.227224 99.022666,12.083008 80.259846,8.1429795 z M 116.71875,20.90625 c 2.86249,2.458333 2.82046,4.916667 3.34375,7.375 -1.44825,0.567432 0.24814,2.088728 -3.9375,0.375 0,0 4.10991,4.615919 5,7.03125 0.89009,2.415331 -0.42467,6.923676 0.75,8.5 1.92399,1.699597 3.82108,2.627083 4.8125,0.1875 0.99142,-2.439583 -3.3125,-16.4375 -3.3125,-16.4375 -0.3089,-4.890213 -3.45381,-5.999087 -6.65625,-7.03125 z"
         id="path4228"
         sodipodi:nodetypes="czzccccczczcc"
         style="fill:url(#linearGradient4439);fill-opacity:1;fill-rule:evenodd;stroke:none;stroke-width:1px;marker:none;visibility:visible;display:inline;overflow:visible;filter:url(#filter4241);enable-background:accumulate" />
    </g>
    <g
       id="g3538"
       transform="matrix(1.0745173,0,0,1.0745173,-9.9853209,-9.8176574)" />
    <g
       id="g4725"
       transform="matrix(0.375,0,0,0.375,184.25,2.5)">
      <g
         id="g4729">
        <g
           id="g4731"
           transform="translate(-137,0)">
          <g
             id="g4733" />
        </g>
        <g
           id="g4749"
           transform="translate(-137,0)" />
        <g
           id="g4755"
           transform="translate(-137,0)" />
      </g>
    </g>
    <g
       id="g4803"
       transform="matrix(0.25,0,0,0.25,133.25,53.599999)">
      <g
         id="g4805" />
    </g>
    <g
       id="g4821"
       transform="matrix(0.25,0,0,0.25,133.25,54)" />
    <g
       id="g4827"
       transform="matrix(0.25,0,0,0.25,133.25,54)" />
    <g
       id="g3733"
       transform="matrix(0.2112978,0,0,0.2112978,133.28691,84.610486)" />
    <g
       id="g3749"
       transform="matrix(0.1875,0,0,0.1875,133.4375,88.25)" />
    <g
       id="g3755"
       transform="matrix(0.1875,0,0,0.1875,133.4375,88.049963)" />
  </g>
</svg>
