<?xml version="1.0" encoding="UTF-8" standalone="no"?>
<!-- Created with Inkscape (http://www.inkscape.org/) -->

<svg
   xmlns:dc="http://purl.org/dc/elements/1.1/"
   xmlns:cc="http://creativecommons.org/ns#"
   xmlns:rdf="http://www.w3.org/1999/02/22-rdf-syntax-ns#"
   xmlns:svg="http://www.w3.org/2000/svg"
   xmlns="http://www.w3.org/2000/svg"
   xmlns:xlink="http://www.w3.org/1999/xlink"
   xmlns:sodipodi="http://sodipodi.sourceforge.net/DTD/sodipodi-0.dtd"
   xmlns:inkscape="http://www.inkscape.org/namespaces/inkscape"
   height="128"
   id="svg11300"
   inkscape:export-filename="/home/mma/BZR-WORK/breathe-icon-set/source_svg/rendered/computer.png"
   inkscape:export-xdpi="90.000000"
   inkscape:export-ydpi="90.000000"
   inkscape:output_extension="org.inkscape.output.svg.inkscape"
   inkscape:version="0.46+devel r21673"
   sodipodi:docname="dialog-password.svg"
   sodipodi:version="0.32"
   style="display:inline;enable-background:new"
   version="1.0"
   width="128">
  <title
     id="title4119">Breathe Icon Theme computer</title>
  <defs
     id="defs3">
    <linearGradient
       id="linearGradient3653"
       inkscape:collect="always">
      <stop
         id="stop3655"
         offset="0"
         style="stop-color:#ffffff;stop-opacity:1" />
      <stop
         id="stop3657"
         offset="1"
         style="stop-color:#000000;stop-opacity:1" />
    </linearGradient>
    <linearGradient
       id="linearGradient3527">
      <stop
         id="stop3529"
         offset="0"
         style="stop-color:#a39348;stop-opacity:1;" />
      <stop
         id="stop3535"
         offset="0.06537651"
         style="stop-color:#d3c99a;stop-opacity:1;" />
      <stop
         id="stop3537"
         offset="0.14730662"
         style="stop-color:#c5b878;stop-opacity:1;" />
      <stop
         id="stop3539"
         offset="0.33249557"
         style="stop-color:#a39348;stop-opacity:1;" />
      <stop
         id="stop3541"
         offset="0.8880021"
         style="stop-color:#bcad65;stop-opacity:1;" />
      <stop
         id="stop3531"
         offset="1"
         style="stop-color:#a39348;stop-opacity:1;" />
    </linearGradient>
    <linearGradient
       id="linearGradient3292"
       inkscape:collect="always">
      <stop
         id="stop3294"
         offset="0"
         style="stop-color:#232323;stop-opacity:1;" />
      <stop
         id="stop3296"
         offset="1"
         style="stop-color:#828282;stop-opacity:1" />
    </linearGradient>
    <linearGradient
       id="linearGradient3278"
       inkscape:collect="always">
      <stop
         id="stop3280"
         offset="0"
         style="stop-color:#a38348;stop-opacity:1;" />
      <stop
         id="stop3282"
         offset="1"
         style="stop-color:#a38348;stop-opacity:0;" />
    </linearGradient>
    <filter
       color-interpolation-filters="sRGB"
       id="filter3572"
       inkscape:collect="always">
      <feGaussianBlur
         id="feGaussianBlur3574"
         inkscape:collect="always"
         stdDeviation="0.34586215" />
    </filter>
    <filter
       color-interpolation-filters="sRGB"
       height="1.8568478"
       id="filter3647"
       inkscape:collect="always"
       width="1.1244427"
       x="-0.062221326"
       y="-0.42842388">
      <feGaussianBlur
         id="feGaussianBlur3649"
         inkscape:collect="always"
         stdDeviation="2.209022" />
    </filter>
    <linearGradient
       gradientUnits="userSpaceOnUse"
       id="linearGradient3672"
       inkscape:collect="always"
       x1="-108.2977"
       x2="-107.85863"
       xlink:href="#linearGradient3292"
       y1="9.0310745"
       y2="81.328041" />
    <linearGradient
       gradientUnits="userSpaceOnUse"
       id="linearGradient3674"
       inkscape:collect="always"
       x1="-142.01181"
       x2="-61.200268"
       xlink:href="#linearGradient3527"
       y1="103.70022"
       y2="103.70022" />
    <linearGradient
       gradientUnits="userSpaceOnUse"
       id="linearGradient3676"
       inkscape:collect="always"
       x1="-106.14294"
       x2="-105.02328"
       xlink:href="#linearGradient3278"
       y1="-1.3465405"
       y2="46.320648" />
    <linearGradient
       gradientUnits="userSpaceOnUse"
       id="linearGradient3678"
       inkscape:collect="always"
       x1="-113.1046"
       x2="-87.888351"
       xlink:href="#linearGradient3653"
       y1="7.7743464"
       y2="7.6358194" />
  </defs>
  <sodipodi:namedview
     bordercolor="#666666"
     borderopacity="0.25490196"
     fill="#f57900"
     gridtolerance="12"
     guidetolerance="13"
     height="300px"
     id="base"
     inkscape:current-layer="layer6"
     inkscape:cx="146.24459"
     inkscape:cy="3.651418"
     inkscape:document-units="px"
     inkscape:grid-bbox="true"
     inkscape:guide-bbox="true"
     inkscape:pageopacity="0.0"
     inkscape:pageshadow="2"
     inkscape:showpageshadow="false"
     inkscape:snap-bbox="true"
     inkscape:snap-nodes="false"
     inkscape:window-height="903"
     inkscape:window-maximized="0"
     inkscape:window-width="1280"
     inkscape:window-x="582"
     inkscape:window-y="116"
     inkscape:zoom="1"
     objecttolerance="7"
     pagecolor="#ffffff"
     showgrid="false"
     showguides="true"
     stroke="#ef2929"
     width="400px">
    <inkscape:grid
       empspacing="5"
       enabled="true"
       id="grid5883"
       spacingx="1px"
       spacingy="1px"
       type="xygrid"
       visible="true" />
  </sodipodi:namedview>
  <metadata
     id="metadata4">
    <rdf:RDF>
      <cc:Work
         rdf:about="">
        <dc:format>image/svg+xml</dc:format>
        <dc:type
           rdf:resource="http://purl.org/dc/dcmitype/StillImage" />
        <dc:creator>
          <cc:Agent>
            <dc:title>Breathe Icon Team</dc:title>
          </cc:Agent>
        </dc:creator>
        <dc:source />
        <cc:license
           rdf:resource="http://creativecommons.org/licenses/by-sa/3.0/" />
        <dc:title>Breathe Icon Theme icon</dc:title>
        <dc:subject>
          <rdf:Bag />
        </dc:subject>
        <dc:date />
        <dc:rights>
          <cc:Agent>
            <dc:title />
          </cc:Agent>
        </dc:rights>
        <dc:publisher>
          <cc:Agent>
            <dc:title />
          </cc:Agent>
        </dc:publisher>
        <dc:identifier />
        <dc:relation />
        <dc:language />
        <dc:coverage />
        <dc:description />
        <dc:contributor>
          <cc:Agent>
            <dc:title>Jakub Steiner, Cory Kontros, Oxygen and Breathe icon teams</dc:title>
          </cc:Agent>
        </dc:contributor>
      </cc:Work>
      <cc:License
         rdf:about="http://creativecommons.org/licenses/by-sa/3.0/">
        <cc:permits
           rdf:resource="http://creativecommons.org/ns#Reproduction" />
        <cc:permits
           rdf:resource="http://creativecommons.org/ns#Distribution" />
        <cc:requires
           rdf:resource="http://creativecommons.org/ns#Notice" />
        <cc:requires
           rdf:resource="http://creativecommons.org/ns#Attribution" />
        <cc:prohibits
           rdf:resource="http://creativecommons.org/ns#CommercialUse" />
        <cc:permits
           rdf:resource="http://creativecommons.org/ns#DerivativeWorks" />
        <cc:requires
           rdf:resource="http://creativecommons.org/ns#ShareAlike" />
      </cc:License>
    </rdf:RDF>
  </metadata>
  <g
     id="layer1"
     inkscape:groupmode="layer"
     inkscape:label="status/dialog-password"
     style="display:inline"
     transform="translate(-3,-4)">
    <rect
       height="256"
       id="256x256"
       inkscape:label="256x256"
       style="fill:#eeeeec;fill-opacity:1;fill-rule:nonzero;stroke:none;stroke-width:5;marker:none;visibility:visible;display:none;overflow:visible;enable-background:accumulate"
       width="256"
       x="26.5"
       y="32.823101" />
    <rect
       height="48"
       id="48x48"
       inkscape:label="48x48"
       style="fill:#eeeeec;fill-opacity:1;fill-rule:nonzero;stroke:none;stroke-width:5;marker:none;visibility:visible;display:none;overflow:visible;enable-background:accumulate"
       width="48"
       x="-35.5"
       y="32.823101" />
    <text
       id="text6091"
       sodipodi:linespacing="125%"
       style="font-size:56.11526489px;font-style:normal;font-variant:normal;font-weight:bold;font-stretch:normal;text-indent:0;text-align:start;text-decoration:none;line-height:125%;letter-spacing:normal;word-spacing:normal;text-transform:none;direction:ltr;block-progression:tb;writing-mode:lr-tb;text-anchor:start;fill:#2e3436;fill-opacity:1;fill-rule:nonzero;stroke:none;stroke-width:5;marker:none;visibility:visible;display:none;overflow:visible;enable-background:accumulate;font-family:Myriad"
       x="-418.41196"
       xml:space="preserve"
       y="34.084831"><tspan
         id="tspan6093"
         sodipodi:role="line"
         x="-418.41196"
         y="34.084831">audio-x-generic</tspan></text>
    <g
       id="layer6"
       inkscape:groupmode="layer"
       inkscape:label="plate"
       style="display:none" />
    <g
       id="Livello_1"
       transform="translate(387.11439,42.495045)" />
    <g
       id="g3290"
       transform="translate(443.11439,59.884345)" />
    <g
       id="g7148"
       transform="matrix(0.1956571,0,0,0.1956571,345.26471,19.402885)" />
    <g
       id="g7555"
       transform="matrix(0.1333333,0,0,0.1333333,319.90372,105.99052)" />
    <g
       id="g9283"
       transform="matrix(1.0666666,0,0,1.0666666,384.44667,40.470571)" />
    <g
       id="g3661"
       transform="matrix(0.9469176,0,0,0.9469176,162.91616,-0.4680957)">
      <path
         d="m -140.35059,125.80761 78.115097,0 c 1.964282,0 3.545636,1.72961 3.545636,3.87803 l 0,2.68478 c 0,2.14843 -1.581354,3.87804 -3.545636,3.87804 -25.16822,2.37929 -51.063527,2.77046 -78.115097,0 -1.96428,0 -3.54563,-1.72961 -3.54563,-3.87804 l 0,-2.68478 c 0,-2.14842 1.58135,-3.87803 3.54563,-3.87803 z"
         id="rect3576"
         sodipodi:nodetypes="ccccccccc"
         style="opacity:0.6;fill:#000000;fill-opacity:1;fill-rule:nonzero;stroke:#d3bf9a;stroke-width:0;stroke-linecap:round;stroke-linejoin:round;stroke-miterlimit:4;stroke-opacity:1;stroke-dashoffset:0;marker:none;visibility:visible;display:inline;overflow:visible;filter:url(#filter3647);enable-background:new"
         transform="matrix(1,0,0,0.7156781,0,38.95183)" />
      <path
         d="m -101.59375,4.71875 c -3.59204,0.011113 -7.17226,0.5328345 -10.65625,1.53125 -2.93454,0.9635772 -6.63783,3.0099915 -9,5 -3.01883,2.543208 -7.00754,6.592454 -9,10 -2.03867,3.48659 -4.15646,8.550197 -5,12.5 -1.94393,9.102295 -1.25,31 -1.25,31 l 13.53125,1.4375 c -0.0828,-3.427149 -0.41375,-18.953478 0.0625,-25.6875 0.61631,-11.127894 7.29703,-23.16 21.25,-23.1875 13.430732,0.900404 21.97489,9.682496 21.90625,22.9375 0.56151,7.696517 -0.0017,22.26005 -0.15625,25.84375 l 13.25,-1.34375 c -2e-6,0 0.69393,-21.897705 -1.25,-31 -0.843542,-3.949803 -2.96133,-9.01341 -5,-12.5 -1.992462,-3.407546 -5.98117,-7.456792 -9,-10 -2.362172,-1.9900085 -6.06546,-4.0364228 -9,-5 -3.49161,-1.0428654 -7.095464,-1.5423625 -10.6875,-1.53125 z"
         id="path3251"
         style="fill:#acacab;fill-opacity:1;fill-rule:evenodd;stroke:none" />
      <path
         d="m -132.40574,63.935768 1.76777,-27.930718 c 8.3471,-17.845999 11.95609,-16.062654 17.32411,-21.566757 l 6.36396,-2.474873 c 0,0 -8.9555,0.501906 -12.37436,2.474873 -4.66715,2.693327 -9.15495,8.497825 -11.31371,13.435029 -1.77504,4.059615 -2.51067,10.076382 -2.82843,14.495689 -0.46458,6.461166 1.06066,21.566757 1.06066,21.566757 z"
         id="path3264"
         sodipodi:nodetypes="ccccsssc"
         style="fill:#ffffff;fill-opacity:1;fill-rule:evenodd;stroke:none" />
      <path
         d="m -75.5,67 c 0,0 0.373872,-17.700362 -0.25,-25.25 -0.200051,-2.420869 -1.25,-8 -1.25,-8 l 1.25,-9.5 c 0,0 2.353414,3.735226 3,5.5 0.895653,2.444572 1.519079,5.906778 1.75,8.5 0.78522,8.817968 -0.75,29.5 -0.75,29.5 L -75.5,67 z"
         id="path3290"
         sodipodi:nodetypes="csccsscc"
         style="fill:#ffffff;fill-opacity:1;fill-rule:evenodd;stroke:none" />
      <path
         d="m -101.59375,9.40625 c -3.13591,0.0097 -6.27092,0.4971717 -9.34375,1.375 -0.01,0.0028 -0.0214,-0.0028 -0.0312,0 -2.15826,0.7147 -5.53889,2.62098 -7.25,4.0625 -2.69163,2.267563 -6.54766,6.350868 -7.96875,8.78125 -1.75002,2.992931 -3.79132,7.952957 -4.46875,11.125 -0.78502,3.675794 -1.18167,11.468674 -1.25,17.96875 -0.0457,4.35245 0.0174,12.79235 0.0625,15.0625 l 4.09375,0.4375 c -0.1172,-6.196934 -0.25119,-22.301328 0.15625,-28.0625 0.35472,-6.404657 2.38598,-12.998492 6.625,-18.34375 4.24779,-5.356313 10.98026,-9.171077 19.3125,-9.1875 0.10205,-0.0033 0.1792,-0.0033 0.28125,0 a 0.38330475,0.38330475 0 0 1 0.0312,0 c 7.667947,0.514063 14.38406,3.375258 19.09375,8.28125 4.598889,4.790572 7.075821,11.421182 7.15625,18.84375 a 0.38330475,0.38330475 0 0 1 0,0.0625 0.38330475,0.38330475 0 0 1 0.03125,0.09375 c 0.01174,0.160968 -0.0024,0.308997 0,0.34375 0.442308,6.457387 0.206806,20.912668 0,26.90625 l 3.75,-0.40625 c 0.0451,-2.249479 0.10801,-9.702029 0.0625,-14.03125 -0.06833,-6.500076 -0.46498,-14.292955 -1.25,-17.96875 -0.67744,-3.172047 -2.718732,-8.13207 -4.46875,-11.125 -1.421097,-2.430386 -5.277117,-6.513688 -7.96875,-8.78125 -1.713062,-1.443167 -5.28151,-3.417065 -7.4375,-4.125 -3.035699,-0.9066952 -6.068821,-1.3222448 -9.21875,-1.3125 z"
         id="path3286"
         inkscape:original="M -101.59375 9.03125 C -104.77691 9.0410976 -107.94834 9.5138165 -111.0625 10.40625 C -113.299 11.140622 -116.69123 13.065031 -118.46875 14.5625 C -121.19395 16.858342 -125.05348 20.910189 -126.53125 23.4375 C -128.30833 26.476716 -130.33846 31.412302 -131.03125 34.65625 C -131.83373 38.413788 -132.2128 46.207016 -132.28125 52.71875 C -132.32814 57.179536 -132.2645 66.088296 -132.21875 68.125 L -127.375 68.625 C -127.49329 62.645656 -127.628 45.974214 -127.21875 40.1875 C -126.86774 33.849847 -124.83729 27.334643 -120.65625 22.0625 C -116.47521 16.790357 -109.87151 13.016192 -101.65625 13 C -101.56252 12.996944 -101.46873 12.996944 -101.375 13 C -93.7865 13.508737 -87.166297 16.328013 -82.53125 21.15625 C -77.968691 25.908978 -75.508203 32.522279 -75.46875 39.9375 L -75.4375 39.9375 C -75.43052 40.033178 -75.444163 40.183973 -75.4375 40.28125 C -74.991746 46.788953 -75.228729 61.763263 -75.4375 67.5625 L -70.9375 67.09375 C -70.891779 65.050374 -70.828287 57.162447 -70.875 52.71875 C -70.943452 46.207016 -71.322522 38.413788 -72.125 34.65625 C -72.817796 31.412299 -74.847918 26.476715 -76.625 23.4375 C -78.102773 20.910185 -81.962299 16.858341 -84.6875 14.5625 C -86.465022 13.065029 -90.013496 11.078122 -92.25 10.34375 C -95.323558 9.4257472 -98.410598 9.0214024 -101.59375 9.03125 z "
         inkscape:radius="-0.38326642"
         sodipodi:type="inkscape:offset"
         style="fill:url(#linearGradient3672);fill-opacity:1;fill-rule:evenodd;stroke:none;display:inline;enable-background:new" />
      <path
         d="m -142.01181,63.738182 c 26.92455,1.090675 53.849091,0.905726 80.773636,0 l 0,68.773638 c -26.360329,1.41054 -53.086316,1.90695 -80.773636,0 l 0,-68.773638 z"
         id="rect2478"
         sodipodi:nodetypes="ccccc"
         style="fill:url(#linearGradient3674);fill-opacity:1;fill-rule:nonzero;stroke:none;stroke-width:0.97636896;marker:none;visibility:visible;display:inline;overflow:visible;enable-background:new" />
      <path
         d="m -101.5625,10.28125 c -3.03395,0.0094 -6.08448,0.436885 -9.0625,1.28125 -2.04682,0.690791 -5.47151,2.597174 -7.0625,3.9375 -2.64122,2.225087 -6.4507,6.286963 -7.78125,8.5625 -1.70226,2.911254 -3.69407,7.801699 -4.34375,10.84375 -0.754,3.530541 -1.18185,11.329507 -1.25,17.8125 -0.0405,3.848772 0.0206,4.857864 0.0625,7.03125 l 2.375,0.25 c -0.11069,-6.108137 -0.1933,-14.333191 0.1875,-19.8125 0.002,-0.03069 -0.002,-0.06305 0,-0.09375 0.37752,-6.530639 2.45466,-13.317431 6.8125,-18.8125 4.37832,-5.520902 11.39916,-9.51436 19.96875,-9.53125 a 5.5489767,5.5489767 0 0 1 0.375,0.03125 c 7.838244,0.52548 14.784156,3.456085 19.65625,8.53125 4.778992,4.978182 7.346959,11.88355 7.40625,19.53125 1.64e-4,0.02116 -1.25e-4,0.04133 0,0.0625 7.56e-4,0.127898 0.03191,0.246691 0.03125,0.375 l -0.03125,0 c 0.411135,6.094256 0.258621,13.766687 0.0625,19.65625 l 2,-0.21875 c 0.04174,-2.175062 0.102779,-3.168332 0.0625,-7 -0.06815,-6.482993 -0.496001,-14.281959 -1.25,-17.8125 -0.649678,-3.042055 -2.64149,-7.932498 -4.34375,-10.84375 -1.330555,-2.275541 -5.140036,-6.337414 -7.78125,-8.5625 -1.604719,-1.351894 -5.08509,-3.29346 -7.125,-3.96875 -0.0098,-0.0029 -0.02144,0.0029 -0.03125,0 -2.915629,-0.857375 -5.914192,-1.259353 -8.9375,-1.25 z"
         id="path3276"
         inkscape:original="M -101.59375 4.71875 C -105.18579 4.7298625 -108.76601 5.2515845 -112.25 6.25 C -115.18454 7.2135772 -118.88783 9.2599915 -121.25 11.25 C -124.26883 13.793208 -128.25754 17.842454 -130.25 21.25 C -132.28867 24.73659 -134.40646 29.800197 -135.25 33.75 C -137.19393 42.852295 -136.5 64.75 -136.5 64.75 L -122.96875 66.1875 C -123.05158 62.760351 -123.3825 47.234022 -122.90625 40.5 C -122.28994 29.372106 -115.60922 17.34 -101.65625 17.3125 C -88.225518 18.212904 -79.68136 26.994996 -79.75 40.25 C -79.18849 47.946517 -79.751721 62.51005 -79.90625 66.09375 L -66.65625 64.75 C -66.656252 64.75 -65.96232 42.852295 -67.90625 33.75 C -68.749792 29.800197 -70.86758 24.73659 -72.90625 21.25 C -74.898712 17.842454 -78.88742 13.793208 -81.90625 11.25 C -84.268422 9.2599915 -87.97171 7.2135772 -90.90625 6.25 C -94.39786 5.2071346 -98.001714 4.7076375 -101.59375 4.71875 z "
         inkscape:radius="-5.5484219"
         sodipodi:type="inkscape:offset"
         style="fill:url(#linearGradient3676);fill-opacity:1;fill-rule:evenodd;stroke:none;display:inline;enable-background:new"
         transform="matrix(0.8222089,0,0,0.8222089,-18.05969,6.2476743)" />
      <path
         d="m -117.29938,66.65625 -0.1875,0.0625 c 1.63352,0.06678 3.26682,0.0838 4.90625,0.09375 4.2741,0.0166 8.53826,-0.0012 12.812502,0 3.772357,8.58e-4 7.540138,2.4e-5 11.3125,0 2.9308,3.22e-4 5.881701,8.6e-5 8.8125,0 2.347369,4.74e-4 4.683888,-0.0033 7.03125,0 0.02682,-0.0026 0.03631,0.0028 0.0625,0 -0.04642,0.1548 0.378516,-0.03231 0.28125,-0.03125 0.03341,-0.0087 0.110484,-0.02126 0.125,-0.03125 0.04131,-0.02842 -0.140023,-2.91e-4 -0.21875,0 -2.372563,0.0034 -4.752429,0.03077 -7.125,0.03125 -2.931812,-1.7e-5 -5.849441,-7.28e-4 -8.78125,0 -3.775774,4.85e-4 -7.567981,3.27e-4 -11.34375,0 -4.269822,-0.001 -8.542902,-0.0109 -12.812502,-0.03125 -1.63288,-0.01153 -3.24883,-0.02274 -4.875,-0.09375 z m 44.687502,0.15625 c -0.12104,0.01186 -0.25257,0.02365 -0.375,0.03125 -0.429178,0.02666 -0.850508,0.04086 -1.28125,0.0625 -0.639793,0.03215 -1.266083,0.06298 -1.90625,0.09375 -0.840533,0.04316 -1.69072,0.08184 -2.53125,0.125 -7.066314,0.450046 -14.163896,0.770531 -21.28125,1.03125 -4.702332,0.177809 -9.434132,0.334624 -14.125002,0.5625 -1.25199,0.06082 -2.49967,0.152048 -3.75,0.21875 -0.47664,0.0037 -0.9557,-0.0073 -1.6875,0 -0.47377,0.0047 -0.93264,-0.0069 -1.40625,0 -0.20262,0.0029 -0.44163,-0.0054 -0.625,0.03125 -0.13272,0.0028 -0.21521,0.03017 -0.15625,0.0625 0.0633,0.03472 0.16805,0.01252 0.28125,0 0.0327,0.0069 0.0694,-0.0011 0.0937,0 0.49796,0.02225 0.99932,-0.0022 1.5,0 -0.15641,0.0082 -0.31231,0.02318 -0.46875,0.03125 -3.82764,0.208769 -7.68745,0.30441 -11.53125,0.4375 0.20803,0.02057 0.41172,0.05749 0.625,0.0625 0.6117,0.01437 3.59293,-0.0549 3.90625,-0.0625 3.31959,-0.08049 6.63053,-0.264368 9.9375,-0.40625 0.5107,-0.02436 1.02023,-0.03988 1.53125,-0.0625 7.84971,0.0056 15.68153,2.9e-5 23.531252,0 5.579041,4.26e-4 11.17096,-0.0015 16.75,0 3.312338,9.1e-4 6.62656,-0.01009 9.9375,0.03125 0.328379,0.02404 0.65825,0.04244 0.96875,0.09375 0.03093,0.0051 0.04868,0.01396 0.03125,0.03125 0.03969,-0.0072 0.08595,0.0078 0.125,0 0.06488,-0.01292 0.09816,-0.08285 0.03125,-0.09375 -0.316578,-0.05157 -0.665083,-0.03993 -1,-0.0625 -3.327254,-0.03281 -6.640619,-0.03232 -9.96875,-0.03125 -5.581706,0.0018 -11.16829,4e-5 -16.75,0 -7.62106,-0.0012 -15.254002,0.01586 -22.875002,0 0.58408,-0.02487 1.16554,-0.03973 1.75,-0.0625 7.22665,-0.02524 14.464406,-0.05316 21.687502,-0.15625 4.551097,-0.07118 4.487806,-0.06765 9,-0.15625 4.663193,-0.09156 9.329071,-0.237605 14,-0.21875 1.189487,-0.0061 2.401623,0.01504 3.59375,0 0.267027,-0.0034 0.549774,-0.01073 0.8125,-0.03125 0.133894,-0.01046 0.312325,-0.0063 0.34375,-0.0625 0.04199,-0.07509 -0.410511,0.0042 -0.6875,0.03125 -0.06143,-0.005 -0.126855,-0.03511 -0.1875,-0.03125 0.0078,-0.0072 0.01219,-0.02084 0.03125,-0.03125 -1.908708,-0.0017 -3.810033,-0.0017 -5.71875,0 -3.225616,0.0038 -6.462021,0.04802 -9.6875,0.0625 3.171165,-0.01175 6.328731,-5.75e-4 9.5,0 1.903083,0.0012 3.815677,-0.0026 5.71875,0 -1.133642,0.01749 -2.460233,0.02398 -3.5625,0.03125 -4.681918,-0.01356 -9.357247,0.0941 -14.03125,0.1875 -4.469427,0.08933 -4.493449,0.08525 -9,0.15625 -6.975867,0.100708 -13.958092,0.166336 -20.937502,0.1875 7.5812,-0.282246 15.205762,-0.413843 22.812502,-0.5 3.170555,-0.03023 6.328835,-0.05075 9.5,-0.0625 -3.131788,0.01406 -6.275046,0.0014 -9.40625,0.03125 -7.895858,0.09065 -15.788572,0.227825 -23.656252,0.53125 -0.58334,0.0017 -1.16667,-0.0014 -1.75,0 -0.93612,0.0058 -1.46707,-0.0036 -2.03125,0 0.91717,-0.04873 1.83172,-0.08022 2.75,-0.125 4.69338,-0.228902 9.38872,-0.415612 14.09375,-0.59375 7.110372,-0.260201 14.220386,-0.586334 21.281252,-1.03125 1.899071,-0.0957 3.824588,-0.16839 5.71875,-0.28125 0.01408,-8.38e-4 0.261889,-0.03677 0.53125,-0.0625 z m -42.500002,2.125 c 0.35454,-0.0011 0.70796,0.0012 1.0625,0 -0.5632,0.02268 -1.12465,0.03784 -1.6875,0.0625 -0.94742,-0.0021 -1.89634,0.0027 -2.84375,0 0.21887,-0.0117 0.43738,-0.01954 0.65625,-0.03125 0.9352,-0.007 1.87756,-0.02348 2.8125,-0.03125 z m -4.09375,0.09375 c 0.90694,9.53e-4 1.81181,-7.02e-4 2.71875,0 -0.26053,0.01184 -0.5208,0.01896 -0.78125,0.03125 -3.29906,0.139999 -6.59447,0.298001 -9.90625,0.375 -0.75931,0.01765 -1.52133,0.05053 -2.28125,0.0625 -0.52942,0.002 -1.06503,-0.01173 -1.59375,0 3.53293,-0.126516 7.07605,-0.210513 10.59375,-0.40625 0.41715,-0.02158 0.83301,-0.04035 1.25,-0.0625 z m 54.437502,0.1875 c -0.248492,0.03515 -0.521469,0.04662 -0.78125,0.0625 -0.615483,0.03763 -1.226271,0.09379 -1.84375,0.125 -1.886718,0.09536 -3.767509,0.162121 -5.65625,0.25 -1.620808,0.09228 -3.252082,0.165191 -4.875,0.25 -1.437409,0.0024 -3.026788,-1.7e-4 -3.125,0 -10.683218,0.02605 -21.359532,0.0808 -32.031252,0.3125 -5.01492,0.13095 -10.0078,0.284632 -15,0.53125 -8.66781,0.428203 0.0516,0.0065 -7.5625,0.40625 -0.81454,0.04277 -1.62107,0.08938 -2.4375,0.125 -0.15592,0.01057 -0.3124,0.02168 -0.46875,0.03125 0.094,0.0018 0.18723,-0.0012 0.28125,0 0.82275,-0.03752 1.64789,-0.04948 2.46875,-0.09375 6.46264,-0.348498 0.29321,-0.07415 7.5625,-0.4375 4.99761,-0.24981 10.01034,-0.398912 15.03125,-0.53125 10.66819,-0.23415 21.351279,-0.259928 32.031252,-0.28125 0.676424,0.0022 1.354722,9.69e-4 2.03125,0 -1.165658,0.05963 -2.333403,0.131336 -3.5,0.1875 -5.321046,0.04208 -10.647684,0.05011 -15.96875,0.0625 -4.399832,0.02207 -8.788652,0.04878 -13.187502,0.09375 -0.36381,0.0037 -3.54308,0.0024 -4.3125,0.0625 0.2607,0.0238 0.51517,0.08621 0.78125,0.09375 0.66127,0.01873 1.33727,-0.0015 2,0 0.94346,0.0022 1.86904,-9.4e-4 2.8125,0 3.85136,0.0038 7.71114,-5.42e-4 11.562502,0 3.029278,0.0059 6.064407,-0.0018 9.09375,0 -1.710419,0.07292 -3.413246,0.151485 -5.125,0.21875 -2.68863,0.105564 -5.401532,0.165014 -8.093752,0.25 -0.34879,0.011 -0.68896,7.53e-4 -1.03125,0.03125 -0.0949,0.0085 -0.31208,0.08249 -0.21875,0.09375 0.33486,0.0404 0.68356,0.02361 1.03125,0.03125 3.456072,0.0091 6.918831,6.31e-4 10.375002,0 -0.855532,0.04729 -1.693623,0.102563 -2.90625,0.1875 -0.07313,0.0051 -0.145678,0.026 -0.21875,0.03125 0.832629,-0.0602 1.675085,-0.109022 3.59375,-0.21875 3.35207,-8.26e-4 6.710471,0.001 10.0625,0 3.670614,0.0063 7.329405,-0.0097 11,0 0.759351,0.002 1.52205,-0.0068 2.28125,0 0.43,0.0039 0.85316,0.01365 1.28125,0.03125 -0.07398,0.0076 -0.144651,0.02392 -0.21875,0.03125 0.133535,0.0019 0.272728,-0.0011 0.40625,0 -0.04993,-0.01168 -0.103383,-0.02359 -0.15625,-0.03125 0.115626,-0.01192 0.227518,-0.02097 0.34375,-0.03125 -0.06713,-0.01344 -0.113531,-0.02858 -0.1875,-0.03125 -0.433556,-0.01565 -0.877432,0.0029 -1.3125,0 -0.763368,-0.005 -1.517794,-0.03023 -2.28125,-0.03125 -3.677115,-0.0049 -7.354116,0.006 -11.03125,0 -2.968405,6.62e-4 -5.937753,1.19e-4 -8.90625,0 2.150737,-0.1094 4.326383,-0.205868 6.4375,-0.40625 0.05461,-0.0052 0.10214,-0.02525 0.15625,-0.03125 -1.772712,0.119581 -1.988322,0.122166 -1.90625,0.125 0.180216,-0.0047 0.250956,-0.0066 -2.625,0.15625 -1.153516,0.06531 -1.954485,0.112875 -2.78125,0.15625 -3.739261,-6.85e-4 -7.4798,0.01783 -11.218752,0 -0.33475,-0.0032 -0.66527,-0.0035 -1,0 0.29127,-0.01061 0.58353,-0.02134 0.875,-0.03125 2.69915,-0.09177 5.397432,-0.142404 8.093752,-0.25 2.06002,-0.08133 4.129412,-0.191831 6.1875,-0.28125 0.40599,5.46e-4 0.812767,-0.0011 1.21875,0 0.812004,0.0021 1.625654,0.02416 2.4375,0.03125 0.442561,0.0039 0.871909,-0.01813 1.3125,0 0.02488,0.001 0.04208,0.02482 0.0625,0.03125 0.09505,-0.01294 0.185659,-0.0192 0.28125,-0.03125 -0.05881,-0.01352 -0.0896,-0.02886 -0.15625,-0.03125 -0.44669,-0.01601 -0.895518,-0.02842 -1.34375,-0.03125 -0.816171,-0.0051 -1.652496,0.0012 -2.46875,0 -0.218866,-3.21e-4 -0.437383,1.92e-4 -0.65625,0 1.769117,-0.07771 3.54518,-0.165346 5.3125,-0.25 3.249471,-0.02264 6.502758,-0.03747 9.75,-0.09375 0.501598,-0.01556 1.004277,-0.02651 1.5,-0.0625 0.141891,-0.01031 0.449556,-0.03047 0.53125,-0.0625 -9.12e-4,-0.0058 -0.01214,-0.0251 -0.03125,-0.03125 -0.235379,-0.07575 -0.579591,-0.02863 -0.875,-0.03125 -0.674161,-0.006 -1.356948,8.88e-4 -2.03125,0 -0.341575,-4.43e-4 -1.778328,-0.0026 -3.34375,0 1.418342,-0.0745 2.833201,-0.138762 4.25,-0.21875 1.882338,-0.08624 3.775404,-0.158084 5.65625,-0.25 0.613617,-0.02999 1.238071,-0.04237 1.84375,-0.09375 0.322784,-0.02738 0.630032,-0.07475 0.9375,-0.125 z m -19.15625,1.3125 c -0.158808,0.02162 -0.308912,0.04255 -0.46875,0.0625 0.185117,-0.0083 0.377099,-0.0239 0.5625,-0.03125 -0.02972,-0.0082 -0.06482,-0.02214 -0.09375,-0.03125 z m 15.875,0.625 c -0.133535,-0.0019 -0.27278,-0.0019 -0.40625,0 -1.117465,0.01624 -1.059373,0.02351 -1.46875,0.03125 1.140961,-0.0072 1.895305,0.0021 -3.8125,0.0625 -4.781756,0.0506 -9.560893,0.04613 -14.34375,0.0625 -2.657426,0.0066 -5.311302,-0.004 -7.96875,0 -9.733562,0.0148 -19.453892,0.03231 -29.187502,0.03125 -4.10208,-0.01197 -8.21045,0.01637 -12.3125,0 -0.49445,-0.002 -1.00594,0.0085 -1.5,0 0.16624,-0.01132 0.33327,-0.02105 0.5,-0.03125 -0.26115,-0.005 -0.51997,-0.0016 -0.78125,0 -0.0476,2.84e-4 0.0774,0.0303 0.125,0.03125 -0.0523,0.0038 -0.10409,0.02709 -0.15625,0.03125 0.55289,0.0072 1.10311,-8.18e-4 1.65625,0 4.11661,0.0061 8.22713,-0.0078 12.34375,0 9.53639,-0.0025 19.08865,-0.0199 28.625002,-0.03125 0.04533,-0.0035 0.143169,0.0033 0.1875,0 2.790109,-0.0034 5.584907,0.0057 8.375,0 4.771135,-0.01379 9.542217,-0.01807 14.3125,-0.0625 0.365663,-0.0034 4.43383,-0.02587 5.25,-0.0625 0.193627,-0.0087 0.372603,-0.04372 0.5625,-0.0625 z m -28.6875,0.1875 c -0.922828,0.07068 -1.859025,0.146624 -2.78125,0.21875 -3.252012,0.307562 -6.497762,0.637805 -9.718752,1 -0.16477,0.01853 -1.30344,0.154669 -2.28125,0.28125 3.89776,-0.503086 7.91392,-0.853384 11.875002,-1.25 1.567485,-0.122446 2.198802,-0.196003 2.90625,-0.25 z m 18.0625,-1.375 c 2.144115,-0.0042 4.294085,-0.02642 6.4375,0 0.123942,0.0015 0.251275,-0.0038 0.375,0 -0.393205,0.01272 -0.794495,0.04857 -1.1875,0.0625 -2.98611,0.0575 -5.980243,0.09971 -8.96875,0.125 1.11733,-0.05436 2.22726,-0.130046 3.34375,-0.1875 z m -4.875,0.21875 c -1.864736,0.08839 -3.726998,0.169464 -5.59375,0.25 -3.230917,-6.83e-4 -6.456618,0.0063 -9.6875,0 -3.844692,-0.0014 -7.686602,0.0081 -11.531252,0 -0.93912,-0.002 -1.87341,-0.02737 -2.8125,-0.03125 -0.647,-0.0027 -1.29064,-0.006 -1.9375,0 1.25701,-0.03348 2.95891,-0.02861 3.1875,-0.03125 4.40734,-0.05097 8.81007,-0.102706 13.218752,-0.125 5.051267,-0.01094 10.10483,-0.02957 15.15625,-0.0625 z m -28.062502,2.65625 c -1.00569,0.120732 -1.16998,0.06982 -1.25,0.1875 0.052,-0.02382 0.11957,-0.01657 0.1875,-0.03125 0.15727,-0.03399 0.65224,-0.102361 1.0625,-0.15625 z m -1.25,0.1875 c -0.0894,0.04097 -0.1589,0.116246 -0.25,0.15625 0.33689,0.0356 0.65553,0.07534 1,0.09375 1.28511,0.06865 4.35061,0.08462 5.40625,0.09375 3.29076,0.02844 6.58334,0.02861 9.875002,0.03125 -3.240982,-0.0038 -6.478852,-0.03073 -9.718752,-0.0625 -1.29103,-0.01266 -3.93209,-0.05116 -5.375,-0.125 -0.33201,-0.01699 -0.64237,-0.06283 -0.96875,-0.09375 0.0272,-0.05025 0.0134,-0.06751 0.0312,-0.09375 z m 16.031252,0.375 c -0.887076,0.0081 -1.769342,0.05134 -2.65625,0.0625 0.980459,-0.0035 1.957111,-0.02783 2.9375,-0.03125 1.083307,8.21e-4 2.166826,-0.0011 3.25,0 3.822675,-0.0064 7.645892,0.0082 11.46875,0 0.760831,4.29e-4 1.520456,-0.0025 2.28125,0 1.038374,0.0034 2.086984,0.01917 3.125,0.03125 1.774126,0.02065 1.485147,-0.0084 2.375,0.0625 0.102548,-0.01926 0.208453,-0.04527 0.3125,-0.0625 -0.296147,-0.02009 -0.357713,-0.02232 -0.5,-0.03125 1.80203,3.3e-4 3.604278,-0.0057 5.40625,0 -0.06335,-0.0094 -0.125059,-0.01991 -0.1875,-0.03125 0.118327,-0.01071 0.224959,-0.0223 0.34375,-0.03125 -1.843629,0.0088 -3.687513,-0.0041 -5.53125,0 -4.708683,0.0039 -9.416313,-0.0015 -14.125,0 -1.617094,-0.001 -3.226241,0.02366 -4.84375,0.03125 -1.219058,-0.0016 -2.437015,0.0014 -3.65625,0 z m -2.65625,0.0625 c -0.38595,0.0049 -0.770352,-0.0055 -1.156252,0 -4.33373,0.06132 -8.67872,0.164312 -13,0.3125 -4.56279,0.001 -9.12472,0.0042 -13.6875,0 -0.46361,-4.27e-4 -0.91138,5.39e-4 -1.375,0 -0.29503,-3.43e-4 -0.58001,0.0022 -0.875,0 0.074,-0.0048 0.14453,-0.02688 0.21875,-0.03125 -0.20838,-0.0012 -0.4168,-0.0033 -0.625,0 -0.12332,0.002 0.21842,0.02876 0.375,0.03125 -0.18935,0.01239 -0.37566,0.0133 -0.5625,0.03125 -0.13953,0.01341 0.26317,0.03106 0.40625,0.03125 0.76712,9.94e-4 1.54538,-0.03025 2.3125,-0.03125 4.32829,-0.0057 8.6717,0.0028 13,0 -1.08609,0.03879 -2.16523,0.07985 -3.25,0.125 -0.22932,0.02531 -0.69345,-0.02066 -0.71875,0.0625 0.18548,-0.01185 0.43673,-0.01621 0.5625,-0.03125 1.36188,-0.06015 2.72951,-0.107281 4.09375,-0.15625 0.58266,-3.92e-4 1.16734,4.59e-4 1.75,0 6.13992,-0.0041 12.266322,-0.02415 18.406252,-0.03125 -6.10708,0.0092 -12.236692,-0.0032 -18.343752,0 -0.33335,6.9e-5 -0.66665,-7.4e-5 -1,0 4.48469,-0.153971 8.97018,-0.257558 13.468752,-0.3125 z M -118.42438,74 c -0.002,0.0051 -0.0332,-0.0061 -0.0312,0 -0.0758,0.0053 -0.15267,0.02375 -0.1875,0.03125 0.007,0.0036 0.0143,0.02708 0.0312,0.03125 0.083,0.0204 0.18775,-0.0041 0.28125,0 -0.0436,-0.01257 -0.0776,-0.04138 -0.0937,-0.0625 z m -10.9375,-0.25 c 0.21905,0.0013 0.43724,0.0309 0.65625,0.03125 9.34358,-0.208169 18.70652,-0.277542 28.0625,-0.3125 -9.30385,0.03378 -18.61222,0.06477 -27.90625,0.25 -0.27315,0.01808 -0.53847,0.01513 -0.8125,0.03125 z m 55.187502,-0.1875 c -0.873821,0.06043 -1.751047,0.0954 -2.625,0.15625 -5.523162,0.0237 -11.039092,0.05403 -16.5625,0.0625 5.389382,-0.0063 10.766988,-0.01486 16.15625,-0.03125 -0.301927,0.02101 -0.604286,0.04153 -0.90625,0.0625 -0.896835,0.01395 -1.790748,0.04715 -2.6875,0.0625 0.717507,-0.01177 1.438679,-0.0205 2.15625,-0.03125 -1.676488,0.116205 -3.352593,0.233229 -5.03125,0.34375 -3.448968,6.4e-5 -6.894791,0.003 -10.34375,0 4.406941,-0.136775 8.802438,-0.24003 13.21875,-0.3125 -4.748398,0.08127 -9.481368,0.158457 -14.21875,0.3125 -1.927665,-0.0019 -3.853591,0.0031 -5.781252,0 -4.73792,-0.01182 -9.48243,9.51e-4 -14.21875,-0.0625 -0.8173,-0.01095 -1.62036,-0.04961 -2.4375,-0.0625 -0.19235,-0.003 -0.39479,0.02228 -0.59375,0.03125 0.1363,0.0076 0.29257,0.02559 0.40625,0.03125 0.81992,0.0408 1.6435,0.02186 2.46875,0.03125 4.75353,0.05406 9.52661,0.05403 14.28125,0.0625 1.552572,0.0016 3.10368,-0.0011 4.656252,0 -2.53205,0.08711 -5.068412,0.190777 -7.593752,0.3125 -6.01326,0.328798 -3.72203,0.192849 -9.28125,0.5625 -1.10878,0.07373 -2.20458,0.142718 -3.3125,0.21875 -0.73812,0.05065 -1.48722,0.09062 -2.21875,0.15625 -0.18459,0.01656 -0.37667,0.04308 -0.5625,0.0625 0.12425,0.0017 0.25578,0.0076 0.375,0 1.86259,-0.119051 3.73357,-0.280613 5.59375,-0.40625 5.4926,-0.37098 3.35032,-0.234506 9.28125,-0.5625 2.86576,-0.139733 5.750534,-0.24877 8.625002,-0.34375 3.657411,0.0025 7.311334,0.03023 10.96875,0.03125 5.38712,0.0015 10.769132,-0.0023 16.15625,0 0.872811,0.0046 1.752278,-0.0069 2.625,0 0.48931,0.0039 0.981153,0.01347 1.46875,0.03125 -0.08363,0.0079 -0.164008,0.02468 -0.25,0.03125 0.147843,0.0033 0.29063,0.0066 0.4375,0 0.06115,-0.0028 -0.07012,-0.02139 -0.15625,-0.03125 0.114154,-0.01099 0.235174,-0.01754 0.34375,-0.03125 0.07669,-0.0097 -0.138947,-0.02878 -0.21875,-0.03125 -0.493932,-0.01528 -0.973546,-0.02859 -1.46875,-0.03125 -0.878143,-0.0047 -1.778064,0.0029 -2.65625,0 -5.043188,0.0046 -10.081796,-2.68e-4 -15.125,0 1.742366,-0.11277 3.408252,-0.225493 3.78125,-0.25 0.519671,-0.03414 1.04298,-0.05919 1.5625,-0.09375 1.601528,-0.02328 3.211159,-0.04244 4.8125,-0.0625 0.867868,-0.009 1.725868,-0.02254 2.59375,-0.03125 0.156096,-0.0016 0.312645,0.0014 0.46875,0 0.05966,-9.13e-4 0.191079,0.0017 0.25,0 0.24999,-0.0022 0.500041,-0.02848 0.75,-0.03125 -0.165726,-0.01282 -0.332143,-0.02963 -0.5,-0.03125 -0.730154,-0.0071 -1.457263,-0.0053 -2.1875,0 -1.123358,0.0082 -2.251598,0.02418 -3.375,0.03125 -0.333467,0.0016 -0.666531,-0.0015 -1,0 0.488236,-0.03121 0.989086,-0.04482 1.46875,-0.09375 0.140023,-0.01428 0.273439,-0.03848 0.40625,-0.0625 z m 9.8125,0.75 c -0.179523,-0.004 -0.351979,-0.0022 -0.53125,0 -2.129344,0.02586 -4.277849,0.05648 -6.40625,0.09375 -7.694385,0.104525 -15.380409,0.217882 -23.0625,0.4375 7.635806,-0.21674 15.289107,-0.27989 22.9375,-0.375 1.269817,-0.02033 2.542723,-0.04175 3.8125,-0.0625 0.956708,-0.01564 2.177757,-0.01188 3.25,-0.09375 z m -30,0.53125 c 0.404676,-0.01999 0.814327,-0.04128 1.21875,-0.0625 1.728669,-0.09551 3.461158,-0.178454 5.1875,-0.28125 0.192818,-0.01148 1.975808,-0.145469 3.59375,-0.25 -1.157211,0.07529 -2.309813,0.149133 -3.46875,0.21875 -1.728861,0.103851 -3.487482,0.184862 -5.21875,0.28125 -2.152428,0.112454 -4.310192,0.198502 -6.46875,0.28125 -1.635022,0.05754 -3.018702,0.09669 -4.625002,0.15625 -4.93948,0.152705 -9.89772,0.270586 -14.84375,0.375 -0.0946,-0.0019 -0.26745,-0.0027 -0.40625,0 -0.11569,0.01683 -0.24334,0.03296 -0.34375,0.0625 0.0974,0.0076 0.44578,-0.0012 0.59375,0 3.48335,-0.08325 6.98572,-0.190287 10.46875,-0.28125 -2.17673,0.08382 -6.04218,0.226735 -7.9375,0.3125 -0.76822,0.03476 -1.55069,0.07046 -2.3125,0.125 -0.14317,0.01025 -0.44089,0.03343 -0.53125,0.0625 0,0 0,0.03125 0,0.03125 0.13687,-0.01693 0.28246,-0.02416 0.375,-0.03125 0.7685,-0.05884 1.56761,-0.08843 2.34375,-0.125 2.203,-0.103793 6.93855,-0.297083 8.90625,-0.375 0.4956,-0.01852 1.16664,-0.04173 1.71875,-0.0625 3.19827,-0.09129 6.374082,-0.202468 9.562502,-0.34375 0.409203,-0.01311 0.938489,-0.0514 1.3125,-0.0625 0.290443,-0.01374 0.584681,-0.01691 0.875,-0.03125 z M -119.45563,75.875 c 0,0 -0.0312,0 -0.0312,0 -0.14147,0.01857 -0.2536,0.04985 -0.15625,0.0625 0.15246,0.01981 0.30896,6.57e-4 0.46875,0 -0.10347,-0.01591 -0.20738,-0.02817 -0.28125,-0.0625 z m 0.28125,0.0625 c 0.21791,0.03351 0.45784,0.05275 0.6875,0.0625 0.89457,0.03797 1.82019,0.01872 2.71875,0.03125 11.16195,0.01967 22.306794,-0.04455 33.468752,-0.0625 4.619095,-0.0065 9.255883,0.0016 13.875,0 0.713113,-2.48e-4 1.411886,-1.96e-4 2.125,0 -6.900724,0.2882 -13.738312,0.751504 -20.59375,1.1875 -1.860672,0.119868 -3.733756,0.221985 -5.59375,0.34375 -5.200914,0.340469 -6.073716,0.415823 -11.250002,0.71875 -1.72074,0.100697 -3.46377,0.19258 -5.1875,0.28125 1.68633,-0.08787 3.379,-0.15114 5.0625,-0.25 5.270809,-0.309508 5.984125,-0.372865 11.281252,-0.71875 1.858024,-0.121324 3.703742,-0.224479 5.5625,-0.34375 7.005891,-0.442967 14.004846,-0.95025 21.0625,-1.21875 0.542431,0.01127 0.737494,0.03522 0.46875,-0.03125 0.209584,-0.01353 0.434224,-0.0092 0.3125,-0.03125 -0.275332,-0.04982 -0.606926,-0.0011 -0.90625,0 -0.740823,0.0028 -1.477913,0.02949 -2.21875,0.03125 -2.091136,0.005 -6.341763,-0.0034 -8.21875,0 -1.887659,0.0034 -3.799838,-0.0033 -5.6875,0 -11.143459,0.01951 -22.262922,0.06791 -33.406252,0.03125 -0.89038,-0.01469 -1.79681,-0.02024 -2.6875,-0.03125 -0.28689,-0.0035 -0.58738,-0.0012 -0.875,0 z M -76.486878,73.75 c 0.01034,-7.16e-4 0.02091,7.16e-4 0.03125,0 0.416962,-0.0013 0.833039,0.0014 1.25,0 -0.656881,0.0094 -1.31185,0.02132 -1.96875,0.03125 0.228286,-0.01544 0.459345,-0.01546 0.6875,-0.03125 z m 3.125,4.78125 c -0.188836,0.0091 -0.433199,0.03049 -0.5625,0.03125 -0.720979,-0.01452 -1.434458,-7.43e-4 -2.15625,0 -1.124929,0.0011 -2.25007,-9.96e-4 -3.375,0 -2.93041,0.003 -5.857515,0.02974 -8.78125,0.09375 -7.852238,0.0411 -15.716562,0.07574 -23.562502,0.21875 -7.42157,0.158985 -0.62667,0.009 -6.65625,0.15625 -0.35535,0.0087 -0.70696,0.02394 -1.0625,0.03125 0.24614,-0.0229 0.5039,-0.03873 0.75,-0.0625 -0.17649,0.0082 -0.35486,-0.0086 -0.53125,0 -0.36615,0.01777 -0.73844,0.02101 -1.09375,0.0625 -0.0572,0.0067 0.0657,0.06217 0.125,0.0625 0.55138,0.0031 1.10593,-0.04771 1.65625,-0.0625 4.90731,-0.131778 0.81025,-0.02329 6.6875,-0.15625 7.67149,-0.146712 15.352863,-0.17933 23.031252,-0.21875 -8.55034,0.198853 -17.071032,0.604458 -25.562502,1.0625 -4.66813,0.283167 -9.37158,0.503165 -14.03125,0.8125 -0.66967,0.04446 -1.3484,0.07707 -2,0.15625 -0.04,0.0049 -0.10253,0.02439 -0.15625,0.03125 0.66628,-0.07008 1.35354,-0.109934 2.03125,-0.15625 4.67157,-0.319238 9.38028,-0.525797 14.0625,-0.8125 8.69663,-0.47045 17.427811,-0.907673 26.187502,-1.09375 2.764681,-0.01377 5.516715,-0.05253 8.28125,-0.0625 1.820904,-0.0048 2.764945,-0.02889 3.84375,-0.03125 0.71465,8.58e-4 1.410874,0.01165 2.125,0 0.0099,-1.62e-4 0.02122,1.1e-4 0.03125,0 0.250606,-3.66e-4 0.555802,0.06718 0.75,0 -0.0043,-0.0022 0.008,-0.02934 0,-0.03125 0.05969,-0.0078 0.134042,0.01449 0.1875,0 0.01362,-0.0037 -0.0065,-0.02848 0,-0.03125 -0.0423,-0.0022 -0.124332,-0.0046 -0.21875,0 z m -38.375002,0.125 c -1.70235,0.08292 -3.38965,0.172048 -5.09375,0.25 -0.27031,0.01228 -0.54212,0.01925 -0.8125,0.03125 0.21895,-0.0025 0.43305,-0.01827 0.65625,0 1.75205,-0.082 3.49957,-0.194557 5.25,-0.28125 z m -19.1875,2.125 c -0.13845,0.02717 -0.23603,0.05832 -0.15625,0.09375 0.26518,0.117768 0.77831,0.06506 1.15625,0.09375 0.84143,0.01563 1.65808,0.02126 2.5,0.03125 2.3498,0.02786 6.17146,0.02672 8.40625,0.03125 5.60637,0.01137 11.20609,0.03165 16.8125,0.03125 1.79772,-3.65e-4 3.608549,-0.0019 5.406252,0 1.51855,0.0016 3.043999,-0.0054 4.5625,0 1.052921,0.0037 4.494939,0.01066 5.84375,0.0625 1.275097,0.04901 1.176477,0.0037 0.65625,0.21875 0.07296,-0.01073 0.145503,-0.02093 0.21875,-0.03125 0.0993,-0.05069 0.405237,-0.116513 0.28125,-0.15625 -0.277414,-0.08892 -0.653454,-0.08165 -1,-0.09375 -0.780874,-0.02726 -1.591637,-0.02475 -2.375,-0.03125 -4.495005,-0.0373 -8.973481,0.0092 -13.468752,0 -5.60106,4.77e-4 -11.21151,-0.01555 -16.8125,-0.03125 -2.27348,-0.0064 -5.99618,0.0014 -8.375,-0.03125 -0.83441,-0.01146 -1.66617,-0.04499 -2.5,-0.0625 -0.36592,-0.02287 -0.74685,-0.0081 -1.09375,-0.0625 -0.0419,-0.0066 -0.021,-0.04763 0.0312,-0.0625 -0.0321,0.0052 -0.0647,-0.0057 -0.0937,0 z m 45.156252,0.5625 c -0.459979,0.05248 -0.911381,0.109914 -1.375,0.15625 -1.925657,0.192472 -3.866518,0.375013 -5.8125,0.53125 1.671261,-0.131619 4.427423,-0.332796 5.65625,-0.46875 0.52276,-0.05783 1.020743,-0.14336 1.53125,-0.21875 z m -8.28125,0.78125 c -1.582644,0.124256 -3.16925,0.221036 -4.75,0.34375 -5.212442,0.404651 -6.279152,0.476625 -11.593752,0.875 -5.38199,0.386764 -10.79083,0.716035 -16.1875,1.0625 -1.11967,0.07188 -2.26058,0.133447 -3.375,0.21875 -1.39958,0.10713 -1.63156,0.01443 -1.625,0.15625 0.2384,-0.01965 0.63312,-0.02538 1.5,-0.09375 1.12049,-0.08836 2.24856,-0.176476 3.375,-0.25 5.4023,-0.352597 10.82913,-0.675221 16.21875,-1.0625 5.48724,-0.4099 10.959842,-0.817465 16.437502,-1.25 z m -37.531252,2.65625 c -0.24391,0.0201 -0.25478,0.05061 0.0312,0.09375 -0.009,-0.03075 -0.0303,-0.07388 -0.0312,-0.09375 z m 0.0312,0.09375 c 0.008,0.02935 -0.011,0.05226 0,0.09375 0.68262,0.02497 1.37817,0.04825 2.0625,0.0625 2.21925,0.04618 6.64519,0.05604 8.625,0.0625 6.60482,0.02157 13.20755,0.03118 19.8125,0.03125 3.699041,5.1e-4 7.39471,-0.0246 11.093752,-0.03125 -7.621162,0.155595 -15.199692,0.555805 -22.781252,0.90625 -3.77266,0.174386 -5.46258,0.257861 -7.53125,0.34375 2.01965,-0.08503 3.71551,-0.13978 7.4375,-0.3125 8.20572,-0.3808 16.398399,-0.821449 24.656252,-0.9375 0.937807,-0.002 1.874698,-0.02888 2.8125,-0.03125 3.404407,-0.03274 4.051313,-0.06192 8.6875,-0.0625 1.242193,-1.61e-4 2.507824,-0.0031 3.75,0 -4.152456,0.02771 -8.284495,0.05164 -12.4375,0.0625 5.136932,-0.013 10.269599,-0.0071 15.40625,-0.03125 0.183108,-0.0023 0.725049,0.03583 0.5625,0 -0.261173,-0.05756 -0.580973,-0.05677 -0.875,-0.0625 -0.838192,-0.01632 -1.660927,3.75e-4 -2.5,0 -1.248496,-5.45e-4 -2.501512,-0.0017 -3.75,0 -5.627835,0.0077 -4.306654,0.0043 -10.3125,0.0625 -0.667438,0.007 -1.333318,0.01992 -2,0.03125 -4.040573,0.0075 -8.084658,0.02908 -12.125002,0.03125 -6.59407,-0.0018 -13.1874,-0.003 -19.78125,-0.03125 -2.16947,-0.0093 -6.23905,-0.04063 -8.59375,-0.09375 -0.67231,-0.01517 -1.32942,-0.03706 -2,-0.0625 -0.10547,-0.01609 -0.14394,-0.01997 -0.21875,-0.03125 z m 11.28125,1.46875 c -0.40338,0.01675 -0.99027,0.04281 -1.46875,0.0625 5.72262,-0.159248 11.46043,-0.221822 17.1875,-0.34375 1.81755,-0.0387 3.62056,-0.112566 5.437502,-0.15625 4.52122,-0.139424 9.086798,-0.191595 13.59375,-0.40625 l 0.15625,-0.0625 c -4.526801,0.230595 -9.081046,0.293078 -13.625,0.4375 -1.818852,0.04431 -3.649232,0.117221 -5.468752,0.15625 -5.27278,0.113095 -10.54143,0.180698 -15.8125,0.3125 z m -1.46875,0.0625 c -2.77042,0.0755 -5.55061,0.15399 -8.3125,0.28125 -0.85868,0.03645 -1.70837,0.04148 -2.5625,0.09375 -0.48891,0.02991 -0.99011,0.07322 -1.46875,0.125 -0.0833,0.009 0.19564,0.0035 0.28125,0 0.6142,-0.02541 1.22945,-0.03753 1.84375,-0.0625 2.54944,-0.103622 5.07616,-0.20616 7.625,-0.3125 1.24895,-0.05237 1.76328,-0.09034 2.59375,-0.125 z m 4.4375,1.40625 -0.1875,0.03125 c 1.63352,0.06678 3.26682,0.0838 4.90625,0.09375 4.2741,0.0166 8.53826,0.03005 12.812502,0.03125 3.772357,8.59e-4 7.540138,2.7e-5 11.3125,0 2.9308,3.23e-4 5.881701,8.8e-5 8.8125,0 2.222176,4.47e-4 4.434079,-0.0026 6.65625,0 -0.429178,0.02666 -0.850508,0.04085 -1.28125,0.0625 -0.639793,0.03215 -1.266083,0.06298 -1.90625,0.09375 -0.840533,0.04316 -1.69072,0.08185 -2.53125,0.125 -7.066314,0.450045 -14.163896,0.770532 -21.28125,1.03125 -4.702332,0.177807 -9.434132,0.365868 -14.125002,0.59375 -0.86626,0.04208 -1.72851,0.110534 -2.59375,0.15625 0.8234,-0.04356 1.6444,-0.0848 2.46875,-0.125 4.69338,-0.228901 9.38872,-0.38436 14.09375,-0.5625 7.110372,-0.2602 14.220386,-0.586332 21.281252,-1.03125 1.899071,-0.0957 3.824588,-0.168387 5.71875,-0.28125 0.01548,-9.21e-4 0.304462,-0.03129 0.59375,-0.0625 -0.03992,0.133127 0.226885,0.0074 0.25,-0.03125 0.04601,-0.01042 0.138259,-0.01887 0.15625,-0.03125 0.04131,-0.02842 -0.140023,-2.88e-4 -0.21875,0 -2.372563,0.0034 -4.752429,-4.83e-4 -7.125,0 -2.931812,-1.7e-5 -5.849441,-7.34e-4 -8.78125,0 -3.775774,4.85e-4 -7.567981,3.3e-4 -11.34375,0 -4.269822,-0.001 -8.542902,-0.01091 -12.812502,-0.03125 -1.63288,-0.01153 -3.24883,0.0085 -4.875,-0.0625 z m 0.59375,2.21875 c -0.2915,0.0154 -0.58353,0.01571 -0.875,0.03125 -0.5423,0.0039 -1.11499,-0.0085 -1.96875,0 -0.47377,0.0047 -0.93264,0.02435 -1.40625,0.03125 -0.20262,0.0029 -0.44163,-0.03669 -0.625,0 -0.01,0.0019 0.002,0.0284 0,0.03125 -0.13272,0.0028 -0.21521,-0.0011 -0.15625,0.03125 0.12033,0.06599 0.35906,0.01042 0.5625,0 0.28089,0.0074 0.56151,0.03376 0.84375,0.03125 -3.82764,0.208768 -7.68745,0.304413 -11.53125,0.4375 0.20803,0.02057 0.41172,0.05749 0.625,0.0625 0.6117,0.01437 3.59293,-0.0549 3.90625,-0.0625 3.31959,-0.08049 6.63053,-0.233123 9.9375,-0.375 0.5107,-0.02436 1.02023,-0.03988 1.53125,-0.0625 7.84971,0.0056 15.68153,3.2e-5 23.531252,0 5.579041,4.26e-4 11.17096,-0.0015 16.75,0 3.312338,9.09e-4 6.62656,-0.0101 9.9375,0.03125 0.328379,0.02404 0.65825,0.01118 0.96875,0.0625 0.03093,0.0051 0.04868,0.04521 0.03125,0.0625 0.04102,-0.0074 0.08467,-0.02322 0.125,-0.03125 0.06488,-0.01292 0.09816,-0.05161 0.03125,-0.0625 -0.316578,-0.05157 -0.665083,-0.07117 -1,-0.09375 -3.327254,-0.03281 -6.640619,-0.0011 -9.96875,0 -5.581706,0.0018 -11.16829,4.2e-5 -16.75,0 -7.41284,-0.0011 -14.837212,-0.01678 -22.250002,-0.03125 0.37545,-0.01549 0.74939,-0.01662 1.125,-0.03125 7.22665,-0.02524 14.464406,-0.0844 21.687502,-0.1875 4.551097,-0.07118 4.487806,-0.06765 9,-0.15625 4.663193,-0.09156 9.329071,-0.206361 14,-0.1875 1.189487,-0.0061 2.401623,-0.01621 3.59375,-0.03125 0.267027,-0.0034 0.549774,-0.01073 0.8125,-0.03125 0.05407,0.0031 0.10329,0.0048 0.15625,0 0.09765,-0.01019 0.167299,-0.02639 0.1875,-0.0625 0.04793,-0.08571 -0.579579,0.02336 -0.8125,0.03125 -0.03039,1.35e-4 -0.06363,-0.003 -0.09375,0 -0.0042,-0.0087 0.02438,-0.01043 0.0625,-0.03125 -1.908708,-0.0017 -3.810033,-0.0017 -5.71875,0 -6.357536,0.0074 -12.737668,0.0019 -19.09375,0.0625 -7.759666,0.08909 -15.516942,0.239196 -23.250002,0.53125 -0.71877,0.0021 -1.43749,-0.0018 -2.15625,0 -0.8065,0.005 -1.24788,-0.0031 -1.75,0 z m 52.062502,0.3125 c -0.232277,0.04181 -0.472807,0.06794 -0.71875,0.09375 0.210648,-0.0092 0.427323,-0.03208 0.625,-0.0625 0.03121,-0.0048 0.07632,-0.01396 0.09375,-0.03125 z m -6,-0.875 c 1.903083,0.0012 3.815677,-0.0026 5.71875,0 -1.133642,0.01749 -2.460233,0.02398 -3.5625,0.03125 -4.681918,-0.01356 -9.357247,0.12534 -14.03125,0.21875 -4.469427,0.08933 -4.493449,0.08524 -9,0.15625 -6.767617,0.0977 -13.541452,0.134538 -20.312502,0.15625 7.37382,-0.265677 14.790388,-0.384965 22.187502,-0.46875 6.341111,-0.06047 12.657461,-0.0949 19,-0.09375 z m -44.468752,0.625 c -0.18782,0.008 -0.37472,0.02305 -0.5625,0.03125 -0.84331,-0.0019 -1.68795,0.0024 -2.53125,0 1.02869,-0.0081 2.06533,-0.0227 3.09375,-0.03125 z m -4.21875,0.09375 c 0.68802,7.32e-4 1.37448,-5.84e-4 2.0625,0 -3.29906,0.140001 -6.59447,0.329254 -9.90625,0.40625 -0.75931,0.01765 -1.52133,0.01928 -2.28125,0.03125 -0.20762,7.67e-4 -0.41729,4.71e-4 -0.625,0 3.2112,-0.109205 6.42897,-0.197167 9.625,-0.375 0.37545,-0.01943 0.74969,-0.0426 1.125,-0.0625 z m 53.781252,0.25 c -0.615483,0.03763 -1.226271,0.06254 -1.84375,0.09375 -1.886718,0.09536 -3.767509,0.162123 -5.65625,0.25 -1.828591,0.104112 -3.668746,0.186595 -5.5,0.28125 -1.065716,0.0018 -2.42143,-1.35e-4 -2.5,0 -10.683218,0.02605 -21.359532,0.04955 -32.031252,0.28125 -5.01492,0.130951 -10.0078,0.284633 -15,0.53125 -8.66781,0.428203 0.0516,0.03775 -7.5625,0.4375 -0.81454,0.04276 -1.62107,0.05813 -2.4375,0.09375 -0.23871,0.01618 -0.47954,0.01622 -0.71875,0.03125 0.17774,0.0032 0.35349,0.02892 0.53125,0.03125 0.82275,-0.03752 1.64789,-0.08074 2.46875,-0.125 6.46264,-0.348497 0.29321,-0.07415 7.5625,-0.4375 4.99761,-0.249808 10.01034,-0.39891 15.03125,-0.53125 10.66819,-0.23415 21.351279,-0.259927 32.031252,-0.28125 0.63479,0.002 1.271367,8.01e-4 1.90625,0 -1.124175,0.05738 -2.249953,0.133336 -3.375,0.1875 -5.321046,0.04207 -10.647684,0.05011 -15.96875,0.0625 -4.399832,0.02207 -8.788652,0.08002 -13.187502,0.125 -0.36381,0.0037 -3.54308,0.0024 -4.3125,0.0625 0.2607,0.0238 0.51517,0.05496 0.78125,0.0625 0.66127,0.01873 1.33727,-0.0015 2,0 0.94346,0.0022 1.86904,-9.37e-4 2.8125,0 3.85136,0.0038 7.71114,0.0307 11.562502,0.03125 2.925179,0.0057 5.855999,-0.001 8.78125,0 -1.606204,0.06813 -3.205127,0.155586 -4.8125,0.21875 -2.68863,0.105562 -5.401532,0.165009 -8.093752,0.25 -0.34879,0.01101 -0.68896,7.48e-4 -1.03125,0.03125 -0.0522,0.0046 -0.12998,0.04462 -0.1875,0.0625 0.32619,0.03541 0.66283,0.02384 1,0.03125 3.612222,0.0095 7.231428,8.91e-4 10.843752,0 -0.984074,0.05283 -1.966761,0.08886 -3.375,0.1875 -0.301263,0.0211 -0.605774,0.03949 -0.90625,0.0625 -9.504302,0.01376 -18.995662,0.03229 -28.500002,0.03125 -4.10208,-0.01197 -8.21045,-0.01488 -12.3125,-0.03125 -0.23693,-9.44e-4 -0.48182,0.0018 -0.71875,0 -0.25753,-0.0019 -0.52393,0.0044 -0.78125,0 0.0835,-0.0057 0.16636,-0.02599 0.25,-0.03125 -0.17743,-0.0032 -0.35373,-0.0011 -0.53125,0 -0.0476,2.85e-4 0.0774,0.0303 0.125,0.03125 -0.10393,0.0076 -0.2092,0.02218 -0.3125,0.03125 -0.0539,0.0047 0.10123,0.03052 0.15625,0.03125 0.55289,0.0072 1.10311,-8.15e-4 1.65625,0 4.11661,0.0061 8.22713,-0.0078 12.34375,0 9.39064,-0.0024 18.7969,-0.02042 28.187502,-0.03125 -0.777089,0.06116 -1.566515,0.126715 -2.34375,0.1875 -1.626012,0.153781 -3.253952,0.336983 -4.875002,0.5 1.57996,-0.154479 3.17418,-0.279718 4.750002,-0.4375 1.667915,-0.130291 2.35751,-0.194507 3.09375,-0.25 2.790109,-0.0034 5.584907,0.0057 8.375,0 4.771135,-0.01379 9.542217,-0.01807 14.3125,-0.0625 0.365663,-0.0034 4.43383,-0.05712 5.25,-0.09375 0.193167,-0.0087 0.37305,-0.01252 0.5625,-0.03125 -0.133733,-0.0019 -0.272583,-0.0332 -0.40625,-0.03125 -2.068267,0.03006 -2.727748,0.0577 -2.71875,0.0625 0.155742,7.1e-5 1.274019,-0.0093 -2.5625,0.03125 -4.781756,0.0506 -9.560893,0.07738 -14.34375,0.09375 -2.657426,0.0066 -5.311302,-0.004 -7.96875,0 0.832629,-0.0602 1.675085,-0.109021 3.59375,-0.21875 0.185974,-0.01064 0.376001,-0.02122 0.5625,-0.03125 3.164688,-0.001 6.335351,9.62e-4 9.5,0 3.670614,0.0063 7.329405,-0.0097 11,0 0.759351,0.002 1.52205,0.02445 2.28125,0.03125 0.43,0.0039 0.85316,-0.01761 1.28125,0 0.02371,9.76e-4 0.04173,0.02625 0.0625,0.03125 0.105482,-0.01084 0.206479,-0.02187 0.3125,-0.03125 -0.06713,-0.01344 -0.113531,-0.05983 -0.1875,-0.0625 -0.433556,-0.01565 -0.877432,0.0029 -1.3125,0 -0.763368,-0.005 -1.517794,0.001 -2.28125,0 -3.677115,-0.0049 -7.354116,0.006 -11.03125,0 -2.947567,6.57e-4 -5.896091,8.4e-5 -8.84375,0 1.544387,-0.07828 3.089732,-0.204999 4.625,-0.3125 0.180216,-0.0047 0.250956,-0.0066 -2.625,0.15625 -1.050155,0.05946 -1.769582,0.116501 -2.53125,0.15625 -3.822596,-5.02e-4 -7.646474,-0.01302 -11.468752,-0.03125 -0.21968,-0.0021 -0.43657,0.0022 -0.65625,0 0.17647,-0.0083 0.35432,-0.02523 0.53125,-0.03125 2.69915,-0.09177 5.397432,-0.142401 8.093752,-0.25 1.955974,-0.07723 3.920757,-0.165514 5.875,-0.25 0.510092,5.42e-4 1.021169,-0.0013 1.53125,0 0.812004,0.0021 1.625654,-0.0071 2.4375,0 0.442561,0.0039 0.871909,0.01313 1.3125,0.03125 -0.06358,0.0087 -0.123843,0.02269 -0.1875,0.03125 0.113301,-0.0036 0.230711,0.0045 0.34375,0 -0.0312,-0.0086 -0.06311,-0.02201 -0.09375,-0.03125 0.09466,-0.01289 0.18605,-0.01925 0.28125,-0.03125 -0.05881,-0.01351 -0.0896,-0.02886 -0.15625,-0.03125 -0.44669,-0.01601 -0.895518,0.0028 -1.34375,0 -0.816171,-0.0051 -1.652496,-0.03005 -2.46875,-0.03125 1.801507,-0.07997 3.60665,-0.162718 5.40625,-0.25 2.999433,-0.02269 6.002522,-0.04179 9,-0.09375 0.501598,-0.01556 1.004277,0.0047 1.5,-0.03125 0.189188,-0.01375 0.652908,-0.07579 0.5,-0.125 -0.235379,-0.07575 -0.579591,0.0026 -0.875,0 -0.674161,-0.006 -1.356948,8.81e-4 -2.03125,0 -0.341575,-4.42e-4 -1.778328,-0.0026 -3.34375,0 1.418342,-0.0745 2.833201,-0.138762 4.25,-0.21875 1.882338,-0.08624 3.775404,-0.158082 5.65625,-0.25 0.613617,-0.02999 1.238071,-0.07362 1.84375,-0.125 0.05426,-0.0046 0.102045,-0.02621 0.15625,-0.03125 z m -18.625,1.25 c -0.13433,0.0043 -0.273315,0.02229 -0.40625,0.03125 -1.772712,0.119581 -1.988322,0.153416 -1.90625,0.15625 0.582774,-0.04081 1.174674,-0.03914 1.75,-0.09375 0.195357,-0.01854 0.371529,-0.06806 0.5625,-0.09375 z m 16.40625,0.59375 c -0.09502,0.0098 -0.1861,0.02184 -0.28125,0.03125 0.133338,0.0019 0.272925,-0.0011 0.40625,0 -0.03874,-0.0091 -0.08643,-0.02196 -0.125,-0.03125 z m -10.5,-1.1875 c 2.008843,-0.0044 4.023087,0.0065 6.03125,0.03125 -0.268754,0.01024 -0.543632,0.02172 -0.8125,0.03125 -2.725913,0.05249 -5.45953,0.06867 -8.1875,0.09375 0.991679,-0.04888 1.977744,-0.104902 2.96875,-0.15625 z m -5.28125,0.21875 c -1.760561,0.08345 -3.518881,0.173574 -5.28125,0.25 -3.335133,-0.0014 -6.664896,0.0065 -10,0 -3.844692,-0.0014 -7.686602,0.0082 -11.531252,0 -0.93912,-0.002 -1.87341,0.0039 -2.8125,0 -0.56354,-0.0023 -1.12403,-0.03217 -1.6875,-0.03125 1.24338,-0.02719 2.72525,-0.0288 2.9375,-0.03125 4.40734,-0.05097 8.81007,-0.102703 13.218752,-0.125 5.051267,-0.01094 10.10483,-0.02957 15.15625,-0.0625 z m -22.125002,2 c -1.19086,0.122805 -2.37776,0.241776 -3.5625,0.375 -0.2045,0.02299 -1.95499,0.238673 -2.875,0.375 0.18587,-0.01322 0.23262,-0.01589 0.59375,-0.0625 1.92853,-0.248918 3.88134,-0.490805 5.84375,-0.6875 z m -6.4375,0.75 c -0.43075,0.03064 -0.6887,0.02436 -0.75,0.125 0.0522,-0.02399 0.11916,-0.04773 0.1875,-0.0625 0.0828,-0.01791 0.39424,-0.03757 0.5625,-0.0625 z m -0.75,0.125 c -0.089,0.04088 -0.15922,0.08513 -0.25,0.125 0.33689,0.0356 0.65553,0.106597 1,0.125 1.28511,0.06865 4.35061,0.08462 5.40625,0.09375 3.10334,0.02682 6.20829,0.0284 9.312502,0.03125 -0.699127,0.0069 -1.394734,0.02245 -2.09375,0.03125 -9.689582,0.03421 -19.382962,0.05708 -29.062502,0.25 -0.5469,0.0362 -1.08516,0.07312 -1.625,0.125 -0.13953,0.01341 0.26317,-1.87e-4 0.40625,0 0.76712,9.94e-4 1.54538,0.001 2.3125,0 4.42193,-0.0058 8.85931,-0.02836 13.28125,-0.03125 -4.3857,9.87e-4 -8.77056,0.004 -13.15625,0 -0.46367,-4.26e-4 -0.91132,-0.03071 -1.375,-0.03125 8.5528,-0.190552 17.12306,-0.245945 25.6875,-0.28125 -3.7178,0.06498 -7.44862,0.181905 -11.15625,0.3125 -1.18024,0.04157 -2.35256,0.07594 -3.53125,0.125 -0.22932,0.02531 -0.69345,0.01059 -0.71875,0.09375 0.18548,-0.01185 0.43673,-0.01621 0.5625,-0.03125 6.04551,-0.267002 12.11103,-0.424207 18.187502,-0.5 1.614879,-0.0059 3.229149,-0.02526 4.84375,-0.03125 4.333005,-0.0054 8.666733,-0.0219 13,-0.03125 0.760831,4.29e-4 1.520456,-0.0025 2.28125,0 1.038374,0.0034 2.086984,0.01917 3.125,0.03125 1.744458,0.0203 1.509464,0.02717 2.34375,0.09375 0.113119,-0.02115 0.229044,-0.0435 0.34375,-0.0625 -0.592294,-0.04017 -0.75616,-0.05723 -1,-0.0625 0.13539,7.5e-5 0.27086,-7.8e-5 0.40625,0 1.83328,2.6e-4 3.66678,-0.0058 5.5,0 -0.06335,-0.0094 -0.125059,-0.01991 -0.1875,-0.03125 0.118327,-0.01071 0.224959,-0.0223 0.34375,-0.03125 -0.177072,8.46e-4 -0.354177,-7.91e-4 -0.53125,0 -0.635392,-0.01466 -1.301174,-8.48e-4 -1.9375,0 -1.021695,0.0014 -2.0408,-8.63e-4 -3.0625,0 -4.708683,0.0039 -9.416313,0.02974 -14.125,0.03125 -1.617079,-0.001 -3.226256,-0.0076 -4.84375,0 -4.459566,-0.0058 -8.916272,0.01248 -13.375002,-0.03125 -1.29103,-0.01266 -3.93209,-0.05115 -5.375,-0.125 -0.33201,-0.01699 -0.64237,-0.06283 -0.96875,-0.09375 0.0228,-0.04208 0.0162,-0.06901 0.0312,-0.09375 z m -5.5625,0.96875 c -0.002,0.0051 -0.0332,-0.0061 -0.0312,0 -0.16347,0.01148 -0.26125,0.0055 -0.15625,0.03125 0.0738,0.01813 0.16771,-0.005 0.25,0 -0.0216,-0.0097 -0.0524,-0.01805 -0.0625,-0.03125 z M -74.580628,94.75 c -0.603175,0.0418 -1.209262,0.05175 -1.8125,0.09375 -5.700308,0.02497 -11.393177,0.05384 -17.09375,0.0625 5.399801,-0.0063 10.787819,0.01634 16.1875,0 -0.260508,0.01813 -0.520714,0.0444 -0.78125,0.0625 -5.436566,0.08449 -10.856851,0.172678 -16.28125,0.34375 -2.14648,-0.0019 -4.291028,0.0034 -6.437502,0 -4.73792,-0.01182 -9.48243,9.53e-4 -14.21875,-0.0625 -0.8173,-0.01095 -1.62036,-0.01836 -2.4375,-0.03125 -0.28822,-0.0045 -0.59377,0.01223 -0.875,0 0.16368,0.04714 0.47782,0.02081 0.6875,0.03125 0.81992,0.0408 1.6435,0.05311 2.46875,0.0625 4.75353,0.05406 9.52661,0.05403 14.28125,0.0625 1.594253,0.0016 3.186999,-0.0011 4.781252,0 -2.573754,0.08804 -5.151912,0.188775 -7.718752,0.3125 -6.01326,0.328798 -3.72203,0.161601 -9.28125,0.53125 -1.10878,0.07372 -2.20458,0.173969 -3.3125,0.25 -0.73812,0.05065 -1.48722,0.09062 -2.21875,0.15625 -0.18459,0.01656 -0.37667,0.01183 -0.5625,0.03125 0.12425,0.0017 0.25578,0.0076 0.375,0 1.86259,-0.119052 3.73357,-0.249368 5.59375,-0.375 5.4926,-0.370979 3.35032,-0.234512 9.28125,-0.5625 2.88648,-0.140742 5.792207,-0.248364 8.687502,-0.34375 3.594885,0.0024 7.18636,-0.001 10.78125,0 -1.115905,0.07244 -2.226231,0.15162 -3.34375,0.21875 -1.728861,0.103852 -3.487482,0.216113 -5.21875,0.3125 -0.852849,0.04456 -1.708591,0.08552 -2.5625,0.125 0.124338,-0.0058 0.250683,0.0059 0.375,0 7.925976,-0.235187 15.87225,-0.338759 23.8125,-0.4375 1.269817,-0.02033 2.542723,-0.04175 3.8125,-0.0625 1.004544,-0.01642 2.298999,0.0025 3.40625,-0.09375 -0.231965,-0.0019 -0.455502,-0.0028 -0.6875,0 -2.129344,0.02586 -4.277849,0.08773 -6.40625,0.125 -7.288296,0.09901 -14.565661,0.179101 -21.84375,0.375 1.728669,-0.09551 3.461158,-0.17845 5.1875,-0.28125 0.229646,-0.01368 2.297788,-0.15296 4.28125,-0.28125 5.157886,0.0014 10.310866,-0.0022 15.46875,0 0.872811,0.0046 1.752278,-0.0069 2.625,0 0.48931,0.0039 0.981153,0.01347 1.46875,0.03125 0.03755,0.0014 0.04433,0.02122 0.09375,0.03125 0.09301,-0.0094 0.192073,-0.01999 0.28125,-0.03125 0.07669,-0.0097 -0.138947,-0.06004 -0.21875,-0.0625 -0.493932,-0.01528 -0.973546,0.0027 -1.46875,0 -0.878143,-0.0047 -1.778064,0.0029 -2.65625,0 -4.970244,0.0045 -9.935989,-3.44e-4 -14.90625,0 1.62651,-0.105302 3.210987,-0.226904 3.5625,-0.25 0.603158,-0.03963 1.209594,-0.08468 1.8125,-0.125 1.51826,-0.02186 3.044422,-0.04349 4.5625,-0.0625 0.867868,-0.009 1.725868,-0.02254 2.59375,-0.03125 0.107631,-2.45e-4 0.379284,0.0014 0.46875,0 0.333175,-0.003 0.666865,0.0037 1,0 0.08848,-9.78e-4 0.367203,0.009 0.28125,0 -0.142444,-0.01485 -0.291819,-0.02266 -0.4375,-0.03125 0.111969,-0.0063 0.192934,-0.0219 0.34375,-0.03125 -0.175222,0.003 -0.355963,-0.0023 -0.53125,0 -0.05198,-0.0017 -0.104175,5.02e-4 -0.15625,0 -0.730154,-0.0071 -1.457263,0.02591 -2.1875,0.03125 -1.123358,0.0082 -2.251598,-0.0071 -3.375,0 -0.229259,0.0011 -0.458241,-0.001 -0.6875,0 0.384311,-0.02476 0.778642,-0.05523 1.15625,-0.09375 z m -21.03125,1.28125 c -3.472649,0.106465 -8.750052,0.281383 -12.125002,0.40625 -0.12435,0.0048 -0.44397,0.02547 -0.59375,0.03125 -3.54697,0.09224 -7.1077,0.175089 -10.65625,0.25 -0.15283,-0.003 -0.44473,-0.01823 -0.5,-0.03125 -0.0828,0.0144 -0.17613,0.04077 -0.25,0.0625 0.0565,0.01458 0.43345,-0.0013 0.59375,0 3.08815,-0.07381 6.19293,-0.14079 9.28125,-0.21875 -2.26451,0.08724 -5.13831,0.208321 -6.75,0.28125 -0.76822,0.03476 -1.55069,0.0392 -2.3125,0.09375 -0.1551,0.01111 -0.47568,0.05833 -0.53125,0.09375 0.13687,-0.01693 0.28246,-0.02416 0.375,-0.03125 0.7685,-0.05884 1.56761,-0.08844 2.34375,-0.125 2.203,-0.103792 6.93855,-0.297082 8.90625,-0.375 4.08363,-0.109577 8.150692,-0.248656 12.218752,-0.4375 z M -119.45563,97 c -0.15954,0.01973 -0.29229,0.04888 -0.1875,0.0625 0.2033,0.02642 0.41026,0.03658 0.625,0.03125 -0.17453,-0.0145 -0.32277,-0.04043 -0.4375,-0.09375 z m 42.968752,-2.09375 c 0.01034,-7.16e-4 0.02091,7.16e-4 0.03125,0 0.416963,-0.0013 0.833038,0.0014 1.25,0 -0.604783,0.0087 -1.207699,0.02215 -1.8125,0.03125 0.176531,-0.012 0.3548,-0.01904 0.53125,-0.03125 z M -78.674378,95 c -1.697475,0.117642 -3.394032,0.232016 -5.09375,0.34375 -3.261418,3.7e-5 -6.51984,-0.02856 -9.78125,-0.03125 4.956766,-0.150407 9.907862,-0.237973 14.875,-0.3125 z m 13.0625,2.03125 c -0.152649,0.0074 -0.319088,0.03069 -0.46875,0.03125 -0.740823,0.0028 -1.477913,-0.0018 -2.21875,0 -2.091136,0.005 -6.341763,0.02788 -8.21875,0.03125 -1.887659,0.0034 -3.799838,-0.0033 -5.6875,0 -11.143459,0.01951 -22.262922,0.0679 -33.406252,0.03125 -0.89038,-0.01469 -1.79681,-0.05148 -2.6875,-0.0625 -0.22314,-0.0028 -0.46181,0.02501 -0.6875,0.03125 0.16571,0.01242 0.34058,0.02448 0.5,0.03125 0.89457,0.03797 1.82019,0.01872 2.71875,0.03125 11.16195,0.01968 22.306794,-0.01331 33.468752,-0.03125 4.619095,-0.0065 9.255883,-0.02962 13.875,-0.03125 0.734087,-2.56e-4 1.453412,-2.23e-4 2.1875,0 -6.921944,0.287961 -13.780016,0.750183 -20.65625,1.1875 -1.860672,0.119869 -3.733756,0.253237 -5.59375,0.375 -5.200914,0.340467 -6.073716,0.415824 -11.250002,0.71875 -2.1772,0.127409 -4.38067,0.234638 -6.5625,0.34375 2.14532,-0.108868 4.29658,-0.186781 6.4375,-0.3125 5.270809,-0.309508 5.984125,-0.372863 11.281252,-0.71875 1.858024,-0.121322 3.703742,-0.255726 5.5625,-0.375 7.07817,-0.447537 14.149688,-0.920736 21.28125,-1.1875 0.111662,0.0037 0.328029,-0.001 0.375,0 -0.01212,-0.0034 -0.04301,-0.02633 -0.0625,-0.03125 0.109762,-0.0072 0.207555,-0.02236 0.25,-0.03125 -0.137666,-0.02491 -0.284851,-0.03865 -0.4375,-0.03125 z m -44.687502,2.6875 c -2.18183,0.109112 -4.34636,0.212553 -6.53125,0.3125 -0.20792,0.009 -0.41703,0.022 -0.625,0.0312 0.15715,0.002 0.30932,-0.0131 0.46875,0 2.2318,-0.104462 4.45855,-0.230638 6.6875,-0.34375 z m -7.15625,0.34375 c -0.45049,-0.005 -0.872,0.0199 -1.3125,0.0625 0.43648,-0.0202 0.87582,-0.0431 1.3125,-0.0625 z m 44.093752,-0.40625 c -0.188836,0.0091 -0.433199,0.03049 -0.5625,0.03125 -0.720979,-0.01452 -1.434458,-7.42e-4 -2.15625,0 -1.124929,0.0011 -2.25007,-9.94e-4 -3.375,0 -1.136774,0.0012 -2.270476,0.05146 -3.40625,0.0625 -9.645706,0.04309 -19.299392,0.07433 -28.937502,0.25 -7.42157,0.15899 -0.62667,0.009 -6.65625,0.15625 -0.25069,0.006 -0.49889,-0.004 -0.75,0 -0.0311,0.001 -0.0627,-0.002 -0.0937,0 -0.26128,0.0127 -0.52139,0.0147 -0.78125,0.0312 -0.17013,0.008 -0.67108,0.0641 -0.5,0.0625 0.0936,-8.6e-4 0.18824,0.004 0.28125,0 0.0181,0.004 0.0173,-8e-5 0.0312,0 0.55138,0.003 1.10593,-0.0165 1.65625,-0.0312 4.90731,-0.13177 0.81025,-0.0233 6.6875,-0.15625 7.89037,-0.150899 15.790005,-0.210932 23.687502,-0.25 -8.771206,0.19204 -17.509432,0.62396 -26.218752,1.09375 -4.66813,0.28317 -9.37158,0.47191 -14.03125,0.78125 -0.66967,0.0445 -1.3484,0.0771 -2,0.15625 -0.16658,0.0202 -0.50369,0.077 -0.59375,0.125 0.005,0.004 -0.01,0.0268 0,0.0312 0.26518,0.11777 0.77831,0.0651 1.15625,0.0937 0.84143,0.0156 1.65808,0.0213 2.5,0.0312 2.3498,0.0279 6.17146,0.058 8.40625,0.0625 5.60637,0.0114 11.20609,4e-4 16.8125,0 1.79772,-3.7e-4 3.608549,-0.002 5.406252,0 -1.763126,0.002 -3.518592,-0.0276 -5.281252,-0.0312 -5.60106,4.7e-4 -11.21151,0.0157 -16.8125,0 -2.27348,-0.006 -5.99618,-0.0298 -8.375,-0.0625 -0.83441,-0.0114 -1.66617,-0.045 -2.5,-0.0625 -0.36592,-0.0229 -0.74685,-0.008 -1.09375,-0.0625 -0.0839,-0.0132 0.13195,-0.0534 0.21875,-0.0625 0.66628,-0.0701 1.35354,-0.10993 2.03125,-0.15625 4.67157,-0.31924 9.38028,-0.5258 14.0625,-0.8125 11.44023,-0.61887 22.920986,-1.174274 34.468752,-1.1875 2.842343,-0.0075 3.472127,0.0037 6,0 0.250606,-3.67e-4 0.555802,0.06719 0.75,0 0.0097,-0.0033 -0.0045,-0.02831 0,-0.03125 0.06026,-0.0078 0.13357,-0.01663 0.1875,-0.03125 -0.02786,-0.006 -0.100728,-0.03696 -0.21875,-0.03125 z m -18.875,2.53125 c 1.052921,0.004 4.494939,0.0107 5.84375,0.0625 1.275097,0.049 1.176477,0.004 0.65625,0.21875 0.07296,-0.0107 0.145503,-0.0209 0.21875,-0.0312 0.0993,-0.0507 0.405237,-0.11651 0.28125,-0.15625 -0.277414,-0.0889 -0.653454,-0.0504 -1,-0.0625 -0.780874,-0.0273 -1.591637,-0.0247 -2.375,-0.0312 -1.209786,-0.01 -2.414911,0.002 -3.625,0 z m 5.09375,0.46875 c -3.851315,0.38494 -7.766049,0.66675 -11.65625,0.96875 -5.212442,0.40465 -6.279152,0.47663 -11.593752,0.875 -5.38199,0.38677 -10.79083,0.68477 -16.1875,1.03125 -1.11967,0.0719 -2.26058,0.16469 -3.375,0.25 -1.33718,0.10235 -1.60745,0.01 -1.625,0.125 0.23879,-0.0196 0.63413,-0.0255 1.5,-0.0937 1.12049,-0.0884 2.24856,-0.14523 3.375,-0.21875 5.4023,-0.35259 10.82913,-0.67522 16.21875,-1.0625 5.48724,-0.4099 10.959842,-0.81747 16.437502,-1.25 1.20454,-0.0951 5.275195,-0.43058 6.75,-0.59375 0.05376,-0.006 0.102828,-0.0248 0.15625,-0.0312 z m -44.437502,3.25 c -0.24487,0.0201 -0.2551,0.0506 0.0312,0.0937 -0.009,-0.0338 -0.0342,-0.074 -0.0312,-0.0937 z m 0.0312,0.0937 c 0.009,0.032 -0.0128,0.0457 0,0.0937 0.68262,0.025 1.37817,0.0483 2.0625,0.0625 2.21925,0.0462 6.64519,0.0873 8.625,0.0937 6.60482,0.0216 13.20755,-7e-5 19.8125,0 3.751148,5.1e-4 7.498853,-0.0244 11.250002,-0.0312 -3.717742,0.006 -7.438723,-0.002 -11.156252,0 -6.59407,-0.002 -13.1874,-0.003 -19.78125,-0.0312 -2.16947,-0.009 -6.23905,-0.009 -8.59375,-0.0625 -0.67231,-0.0152 -1.32942,-0.0683 -2,-0.0937 -0.10547,-0.0161 -0.14394,-0.02 -0.21875,-0.0312 z m 41.750002,0.21875 c -7.673925,0.15311 -15.304072,0.5534 -22.937502,0.90625 -3.77266,0.17439 -5.46258,0.25786 -7.53125,0.34375 2.01965,-0.085 3.71551,-0.13977 7.4375,-0.3125 8.5594,-0.39721 17.099707,-0.84734 25.718752,-0.9375 0.583507,-0.001 1.166495,0.001 1.75,0 0.02087,-5e-5 0.04163,5e-5 0.0625,0 5.116108,-0.013 10.227922,-0.007 15.34375,-0.0312 0.183108,-0.002 0.725049,0.005 0.5625,-0.0312 -0.261173,-0.0576 -0.580973,-0.0568 -0.875,-0.0625 -0.838192,-0.0163 -1.660927,3.8e-4 -2.5,0 -1.248496,-5.4e-4 -2.501512,-0.002 -3.75,0 -5.627835,0.008 -4.306654,0.004 -10.3125,0.0625 -0.865645,0.009 -1.72936,0.0462 -2.59375,0.0625 -0.125038,2.4e-4 -0.249962,-2.3e-4 -0.375,0 z m -30.468752,1.25 c -0.37731,0.0157 -0.93328,0.0131 -1.375,0.0312 -2.80209,0.0759 -5.61285,0.18379 -8.40625,0.3125 -0.85868,0.0364 -1.70837,0.0415 -2.5625,0.0937 -0.22848,0.014 -0.46241,0.0404 -0.6875,0.0625 0.41548,-0.008 1.3342,-0.0248 1.46875,-0.0312 -0.53375,0.0206 -1.05987,0.0425 -1.59375,0.0625 -0.21457,0.0219 -0.44264,0.0394 -0.65625,0.0625 -0.0833,0.009 0.19564,0.004 0.28125,0 0.6142,-0.0254 1.22945,-0.0688 1.84375,-0.0937 2.54944,-0.10362 5.07616,-0.20617 7.625,-0.3125 0.25593,-0.0107 0.29707,-0.0215 0.53125,-0.0312 6.40666,-0.2025 12.83432,-0.3009 19.25,-0.4375 1.81755,-0.0387 3.62056,-0.0813 5.437502,-0.125 4.52122,-0.13942 9.086798,-0.22285 13.59375,-0.4375 l 0.15625,-0.0625 c -4.526801,0.23059 -9.081046,0.32432 -13.625,0.46875 -1.818852,0.0443 -3.649232,0.086 -5.468752,0.125 -5.27278,0.1131 -10.54143,0.1807 -15.8125,0.3125 z m 2.96875,1.46875 -0.1875,0.0625 c 1.63352,0.0668 3.26682,0.0838 4.90625,0.0937 4.2741,0.0166 8.53826,-10e-4 12.812502,0 3.772357,8.6e-4 7.540138,2e-5 11.3125,0 2.9308,3.1e-4 5.881701,9e-5 8.8125,0 2.222176,4.5e-4 4.434079,-0.003 6.65625,0 -0.429178,0.0267 -0.850508,0.0721 -1.28125,0.0937 -0.639793,0.0322 -1.266083,0.063 -1.90625,0.0937 -0.840533,0.0432 -1.69072,0.0819 -2.53125,0.125 -7.066314,0.45004 -14.163896,0.77053 -21.28125,1.03125 -4.702332,0.1778 -9.434132,0.33462 -14.125002,0.5625 -1.25199,0.0608 -2.49967,0.15205 -3.75,0.21875 -0.47664,0.004 -0.9557,-0.007 -1.6875,0 -0.47377,0.005 -0.93264,-0.007 -1.40625,0 -0.20262,0.003 -0.44163,-0.005 -0.625,0.0312 -0.13272,0.003 -0.21521,0.0302 -0.15625,0.0625 0.0633,0.0347 0.16805,0.0125 0.28125,0 0.0327,0.007 0.0694,-0.001 0.0937,0 0.49796,0.0223 0.99932,-0.002 1.5,0 -0.15641,0.008 -0.31231,0.0232 -0.46875,0.0312 -3.82764,0.20875 -7.68745,0.27316 -11.53125,0.40625 0.20803,0.0206 0.41172,0.0575 0.625,0.0625 0.6117,0.0144 3.59293,-0.0237 3.90625,-0.0312 3.31959,-0.0805 6.63053,-0.26438 9.9375,-0.40625 0.5107,-0.0244 1.02023,-0.0399 1.53125,-0.0625 7.84971,0.006 15.68153,4e-5 23.531252,0 5.579041,4.3e-4 11.17096,-0.002 16.75,0 3.312338,9.1e-4 6.62656,-0.0101 9.9375,0.0312 0.328379,0.024 0.65825,0.0424 0.96875,0.0937 0.03093,0.005 0.04868,0.0139 0.03125,0.0312 0.03969,-0.007 0.08595,0.008 0.125,0 0.06488,-0.0129 0.09816,-0.0828 0.03125,-0.0937 -0.316578,-0.0516 -0.665083,-0.0399 -1,-0.0625 -3.327254,-0.0328 -6.640619,-0.0323 -9.96875,-0.0312 -5.581706,0.002 -11.16829,5e-5 -16.75,0 -7.41284,-0.001 -14.837212,-0.0168 -22.250002,-0.0312 0.37545,-0.0155 0.74939,-0.0166 1.125,-0.0312 7.22665,-0.0252 14.464406,-0.0844 21.687502,-0.1875 4.551097,-0.0712 4.487806,-0.0364 9,-0.125 4.663193,-0.0916 9.329071,-0.2376 14,-0.21875 1.189487,-0.006 2.401623,-0.0162 3.59375,-0.0312 0.267027,-0.003 0.549774,0.0205 0.8125,0 0.133894,-0.0105 0.312325,-0.0376 0.34375,-0.0937 0.03294,-0.0589 -0.239651,-10e-4 -0.5,0.0312 -0.01093,-10e-4 -0.02031,0.001 -0.03125,0 -0.02038,7.6e-4 -0.04212,-8.3e-4 -0.0625,0 -0.09159,-0.0102 -0.190988,-0.006 -0.28125,0 0.01085,0.003 0.0099,0.0313 0.03125,0.0312 -0.04138,0.001 -0.0836,-6.6e-4 -0.125,0 0.02091,-0.004 0.04142,-0.0292 0.0625,-0.0312 -0.0017,-0.004 0.0267,0.005 0.03125,0 0.0068,-0.008 0.0084,-0.0188 0.03125,-0.0312 -1.908708,-0.002 -3.810033,-0.002 -5.71875,0 -3.225616,0.004 -6.462021,0.048 -9.6875,0.0625 3.171165,-0.0118 6.328731,-5.8e-4 9.5,0 1.903083,0.001 3.815677,-0.003 5.71875,0 -1.133642,0.0175 -2.460233,0.024 -3.5625,0.0312 -4.681918,-0.0136 -9.357247,0.0941 -14.03125,0.1875 -4.469427,0.0893 -4.493449,0.0852 -9,0.15625 -6.975867,0.10071 -13.958092,0.16634 -20.937502,0.1875 7.5812,-0.28225 15.205762,-0.41384 22.812502,-0.5 3.170555,-0.0302 6.328835,-0.0507 9.5,-0.0625 -3.131788,0.0141 -6.275046,0.001 -9.40625,0.0312 -7.895858,0.0906 -15.788572,0.22782 -23.656252,0.53125 -0.58334,0.002 -1.16667,-10e-4 -1.75,0 -0.93612,0.006 -1.46707,-0.004 -2.03125,0 0.91717,-0.0487 1.83172,-0.0802 2.75,-0.125 4.69338,-0.2289 9.38872,-0.4156 14.09375,-0.59375 7.110372,-0.26019 14.220386,-0.58632 21.281252,-1.03125 1.899071,-0.0957 3.824588,-0.16839 5.71875,-0.28125 0.01548,-9.2e-4 0.304462,-0.0313 0.59375,-0.0625 -0.04642,0.15481 0.378516,-0.0323 0.28125,-0.0312 0.03341,-0.009 0.110484,-0.0213 0.125,-0.0312 0.04131,-0.0284 -0.140023,-2.9e-4 -0.21875,0 -2.372563,0.003 -4.752429,-4.9e-4 -7.125,0 -2.931812,-1e-5 -5.849441,-7.4e-4 -8.78125,0 -3.775774,5e-4 -7.567981,3.3e-4 -11.34375,0 -4.269822,-10e-4 -8.542902,0.0203 -12.812502,0 -1.63288,-0.0115 -3.24883,-0.0227 -4.875,-0.0937 z m 2.1875,2.28125 c 0.35454,-0.001 0.70796,0.001 1.0625,0 -0.34409,0.0139 -0.6873,0.0167 -1.03125,0.0312 -0.94742,-0.002 -1.89634,0.003 -2.84375,0 0.9352,-0.007 1.87756,-0.0235 2.8125,-0.0312 z m -4.09375,0.0937 c 0.90694,9.5e-4 1.81181,-7e-4 2.71875,0 -0.26053,0.0118 -0.5208,0.019 -0.78125,0.0312 -3.29906,0.14 -6.59447,0.29801 -9.90625,0.375 -0.75931,0.0177 -1.52133,0.0193 -2.28125,0.0312 -0.52942,0.002 -1.06503,0.0195 -1.59375,0.0312 3.53293,-0.12653 7.07605,-0.21052 10.59375,-0.40625 0.41715,-0.0216 0.83301,-0.0403 1.25,-0.0625 z m 54.437502,0.1875 c -0.248492,0.0351 -0.521469,0.0466 -0.78125,0.0625 -0.615483,0.0376 -1.226271,0.0625 -1.84375,0.0937 -1.886718,0.0953 -3.767509,0.19337 -5.65625,0.28125 -1.620808,0.0923 -3.252082,0.16519 -4.875,0.25 -1.437409,0.002 -3.026788,-1.7e-4 -3.125,0 -10.683218,0.026 -21.359532,0.0808 -32.031252,0.3125 -5.01492,0.13095 -10.0078,0.25337 -15,0.5 -8.66781,0.4282 0.0516,0.0378 -7.5625,0.4375 -0.81454,0.0428 -1.62107,0.0581 -2.4375,0.0937 -0.42652,0.0289 -0.85688,0.0911 -1.28125,0.125 0.55289,0.007 1.10311,-8.2e-4 1.65625,0 4.11661,0.006 8.22713,-0.008 12.34375,0 9.53639,-0.002 19.08865,-0.0199 28.625002,-0.0312 0.04533,-0.003 0.143169,0.003 0.1875,0 2.790109,-0.003 5.584907,0.006 8.375,0 4.771135,-0.0138 9.542217,-0.0181 14.3125,-0.0625 0.365663,-0.003 4.43383,-0.0259 5.25,-0.0625 0.193627,-0.009 0.372603,-0.0437 0.5625,-0.0625 -0.133535,-0.002 -0.27278,-0.002 -0.40625,0 -1.117465,0.0162 -1.059373,0.0235 -1.46875,0.0312 1.140961,-0.007 1.895305,0.002 -3.8125,0.0625 -4.781756,0.0506 -9.560893,0.0461 -14.34375,0.0625 -2.657426,0.007 -5.311302,-0.004 -7.96875,0 -9.733562,0.0148 -19.453892,0.0323 -29.187502,0.0312 -4.10208,-0.012 -8.21045,0.0164 -12.3125,0 -0.23706,-9.5e-4 -0.48169,-0.0295 -0.71875,-0.0312 0.82275,-0.0375 1.64789,-0.0495 2.46875,-0.0937 6.46264,-0.3485 0.29321,-0.0741 7.5625,-0.4375 4.99761,-0.24981 10.01034,-0.39892 15.03125,-0.53125 10.66819,-0.23416 21.351279,-0.25993 32.031252,-0.28125 0.676424,0.002 1.354722,9.7e-4 2.03125,0 -1.165658,0.0596 -2.333403,0.13134 -3.5,0.1875 -5.321046,0.0421 -10.647684,0.0501 -15.96875,0.0625 -4.399832,0.0221 -8.788652,0.0488 -13.187502,0.0937 -0.36381,0.004 -3.54308,0.002 -4.3125,0.0625 0.2607,0.0238 0.51517,0.0862 0.78125,0.0937 0.66127,0.0187 1.33727,-0.002 2,0 0.94346,0.002 1.86904,-9.3e-4 2.8125,0 3.85136,0.004 7.71114,-5.5e-4 11.562502,0 3.029278,0.006 6.064407,-0.002 9.09375,0 -1.710419,0.0729 -3.413246,0.15148 -5.125,0.21875 -2.68863,0.10556 -5.401532,0.16502 -8.093752,0.25 -0.34879,0.011 -0.68896,7.6e-4 -1.03125,0.0312 -0.0949,0.008 -0.31208,0.0825 -0.21875,0.0937 0.33486,0.0404 0.68356,-0.008 1.03125,0 3.528952,0.009 7.064702,0.032 10.593752,0.0312 3.435343,-7.3e-4 6.877198,0.001 10.3125,0 3.670614,0.006 7.329405,-0.01 11,0 0.759351,0.002 1.52205,-0.007 2.28125,0 0.43,0.004 0.85316,0.0136 1.28125,0.0312 -0.07398,0.008 -0.144651,0.0239 -0.21875,0.0312 0.133535,0.002 0.272728,-10e-4 0.40625,0 -0.04993,-0.0117 -0.103383,-0.0236 -0.15625,-0.0312 0.115626,-0.0119 0.227518,-0.021 0.34375,-0.0312 -0.06713,-0.0134 -0.113531,-0.0286 -0.1875,-0.0312 -0.433556,-0.0156 -0.877432,-0.0284 -1.3125,-0.0312 -0.763368,-0.005 -1.517794,10e-4 -2.28125,0 -3.677115,-0.005 -7.354116,0.006 -11.03125,0 -2.968405,6.6e-4 -5.937753,1.2e-4 -8.90625,0 2.150737,-0.10941 4.326383,-0.20587 6.4375,-0.40625 0.270601,-0.0257 0.517018,-0.0577 0.78125,-0.0937 -0.206369,0.007 -0.420713,0.0175 -0.625,0.0312 -1.772712,0.11958 -1.988322,0.15342 -1.90625,0.15625 0.180216,-0.005 0.250956,-0.007 -2.625,0.15625 -1.153516,0.0653 -1.954485,0.11288 -2.78125,0.15625 -3.739261,-6.8e-4 -7.4798,0.0178 -11.218752,0 -0.18844,-0.002 -0.37406,-0.0288 -0.5625,-0.0312 0.1452,-0.007 0.29192,0.005 0.4375,0 2.69915,-0.0918 5.397432,-0.17366 8.093752,-0.28125 1.955974,-0.0772 3.920757,-0.16551 5.875,-0.25 0.510092,5.4e-4 1.021169,-0.001 1.53125,0 0.812004,0.002 1.625654,0.0242 2.4375,0.0312 0.442561,0.004 0.871909,-0.0181 1.3125,0 0.06011,0.002 0.105556,0.0173 0.15625,0.0312 0.06383,-0.009 0.123373,-0.0232 0.1875,-0.0312 -0.05881,-0.0135 -0.0896,-0.0601 -0.15625,-0.0625 -0.44669,-0.016 -0.895518,0.003 -1.34375,0 -0.816171,-0.005 -1.652496,10e-4 -2.46875,0 -0.312666,-4.6e-4 -0.624832,2e-4 -0.9375,0 1.862743,-0.0815 3.732991,-0.16087 5.59375,-0.25 3.249471,-0.0226 6.502758,-0.0375 9.75,-0.0937 0.501598,-0.0156 1.004277,-0.0265 1.5,-0.0625 0.189188,-0.0138 0.652908,-0.0445 0.5,-0.0937 -0.235379,-0.0758 -0.579591,-0.0287 -0.875,-0.0312 -0.674161,-0.006 -1.356948,8.8e-4 -2.03125,0 -0.341575,-4.4e-4 -1.778328,-0.003 -3.34375,0 1.418342,-0.0745 2.833201,-0.13876 4.25,-0.21875 1.882338,-0.0862 3.775404,-0.15807 5.65625,-0.25 0.613617,-0.03 1.238071,-0.0424 1.84375,-0.0937 0.322784,-0.0274 0.630032,-0.0747 0.9375,-0.125 z m -27.9375,1.875 c -0.91375,0.0498 -1.821481,0.0962 -3.125,0.1875 -0.07313,0.005 -0.145678,0.026 -0.21875,0.0312 0.774921,-0.056 1.693871,-0.12405 3.34375,-0.21875 z m -4.03125,0.25 c -0.922828,0.0707 -1.859025,0.14662 -2.78125,0.21875 -3.252012,0.30755 -6.497762,0.60654 -9.718752,0.96875 -0.18566,0.0209 -1.60849,0.20871 -2.59375,0.34375 0.13727,-0.0134 0.12251,-0.007 0.3125,-0.0312 3.89776,-0.50309 7.91392,-0.85339 11.875002,-1.25 1.567485,-0.12245 2.198802,-0.196 2.90625,-0.25 z m -15.093752,1.53125 c -0.69949,0.0685 -0.96094,0.0529 -1.03125,0.15625 0.052,-0.0238 0.11957,-0.0166 0.1875,-0.0312 0.1246,-0.0269 0.54527,-0.0841 0.84375,-0.125 z m -1.03125,0.15625 c -0.0894,0.041 -0.1589,0.11625 -0.25,0.15625 0.33689,0.0356 0.65553,0.0753 1,0.0937 1.28511,0.0686 4.35061,0.0846 5.40625,0.0937 3.29076,0.0284 6.58334,0.0286 9.875002,0.0312 -0.887076,0.008 -1.769342,0.0513 -2.65625,0.0625 0.980459,-0.003 1.957111,-0.0278 2.9375,-0.0312 1.083307,8.2e-4 2.166826,-10e-4 3.25,0 4.58566,0.015 9.164391,-0.0151 13.75,0 1.038374,0.003 2.086984,-0.0121 3.125,0 1.774126,0.0206 1.485147,0.0228 2.375,0.0937 0.102548,-0.0193 0.208453,-0.0453 0.3125,-0.0625 -0.592294,-0.0402 -0.75616,-0.0572 -1,-0.0625 0.13539,8e-5 0.27086,-8e-5 0.40625,0 1.83328,2.6e-4 3.66678,-0.006 5.5,0 -0.126708,-0.0187 -0.240988,-0.0281 -0.375,-0.0312 -0.635392,-0.0147 -1.301174,-8.5e-4 -1.9375,0 -1.021695,0.001 -2.0408,-8.6e-4 -3.0625,0 -1.729295,0.001 -3.458203,-8.6e-4 -5.1875,0 -4.589772,-0.0102 -9.191433,0.0157 -13.78125,0 -4.459566,-0.006 -8.916272,0.0125 -13.375002,-0.0312 -1.29103,-0.0127 -3.93209,-0.0512 -5.375,-0.125 -0.33201,-0.017 -0.64237,-0.0628 -0.96875,-0.0937 0.0272,-0.0503 0.0134,-0.0675 0.0312,-0.0937 z m 13.375002,0.4375 c -0.38595,0.005 -0.770352,-0.005 -1.156252,0 -4.46992,0.0632 -8.94978,0.1565 -13.40625,0.3125 -4.42736,0.001 -8.85389,0.004 -13.28125,0 -0.75864,-6.9e-4 -1.49146,0.006 -2.25,0 0.16846,-0.0109 0.33095,-0.0217 0.5,-0.0312 -0.30235,-0.002 -0.60418,-0.005 -0.90625,0 -0.12332,0.002 0.21842,0.0288 0.375,0.0312 -0.18935,0.0124 -0.37566,0.0133 -0.5625,0.0312 -0.13953,0.0134 0.26317,-1.9e-4 0.40625,0 0.76712,0.001 1.54538,0.001 2.3125,0 4.16181,-0.005 8.33817,0.003 12.5,0 -0.91883,0.0336 -1.83212,0.0555 -2.75,0.0937 -0.22932,0.0253 -0.69345,0.0106 -0.71875,0.0937 0.18548,-0.0118 0.43673,-0.0162 0.5625,-0.0312 1.36188,-0.0601 2.72951,-0.10728 4.09375,-0.15625 0.58266,-3.9e-4 1.16734,4.6e-4 1.75,0 6.13992,-0.004 12.266322,-0.0242 18.406252,-0.0312 -6.10708,0.009 -12.236692,-0.003 -18.343752,0 -0.33335,7e-5 -0.66665,-7e-5 -1,0 4.48469,-0.15397 8.97018,-0.25756 13.468752,-0.3125 z m -18.937502,0.53125 c -0.002,0.005 -0.0332,-0.006 -0.0312,0 -0.0758,0.005 -0.15267,0.0238 -0.1875,0.0312 0.007,0.004 0.0143,0.0271 0.0312,0.0312 0.083,0.0204 0.18775,-0.004 0.28125,0 -0.0436,-0.0126 -0.0776,-0.0414 -0.0937,-0.0625 z m -10.65625,-0.25 c 0.12511,9.2e-4 0.24992,-2e-4 0.375,0 9.34358,-0.20817 18.70652,-0.2463 28.0625,-0.28125 -9.30385,0.0338 -18.61222,0.0648 -27.90625,0.25 -0.17881,0.0118 -0.35167,0.0211 -0.53125,0.0312 z M -78.674378,112.25 c 2.144115,-0.004 4.294085,-0.0264 6.4375,0 0.123942,0.002 0.251275,-0.004 0.375,0 -0.393205,0.0127 -0.794495,0.0486 -1.1875,0.0625 -2.98611,0.0575 -5.980243,0.0997 -8.96875,0.125 1.11733,-0.0544 2.22726,-0.13005 3.34375,-0.1875 z m -4.875,0.21875 c -1.864736,0.0884 -3.726998,0.16946 -5.59375,0.25 -3.230917,-6.8e-4 -6.456618,0.006 -9.6875,0 -3.844692,-0.001 -7.686602,-0.0231 -11.531252,-0.0312 -0.93912,-0.002 -1.87341,0.004 -2.8125,0 -0.647,-0.003 -1.29064,-0.006 -1.9375,0 1.25701,-0.0335 2.95891,-0.0598 3.1875,-0.0625 4.40734,-0.051 8.81007,-0.0714 13.218752,-0.0937 5.051267,-0.0109 10.10483,-0.0296 15.15625,-0.0625 z m 9.375,3.375 c -0.873821,0.0604 -1.751047,0.0954 -2.625,0.15625 -5.523162,0.0237 -11.039092,0.054 -16.5625,0.0625 5.389382,-0.006 10.766988,-0.0149 16.15625,-0.0312 -0.301927,0.021 -0.604286,0.0415 -0.90625,0.0625 -0.896835,0.0139 -1.790748,0.0472 -2.6875,0.0625 0.717507,-0.0118 1.438679,-0.0205 2.15625,-0.0312 -1.676488,0.1162 -3.352593,0.23323 -5.03125,0.34375 -3.448968,6e-5 -6.894791,0.003 -10.34375,0 4.406941,-0.13678 8.802438,-0.24003 13.21875,-0.3125 -4.748398,0.0813 -9.481368,0.15846 -14.21875,0.3125 -1.927665,-0.002 -3.853591,0.003 -5.781252,0 -4.73792,-0.0118 -9.48243,9.5e-4 -14.21875,-0.0625 -0.8173,-0.011 -1.62036,-0.0496 -2.4375,-0.0625 -0.19235,-0.003 -0.39479,0.0223 -0.59375,0.0312 0.1363,0.008 0.29257,0.0256 0.40625,0.0312 0.81992,0.0408 1.6435,0.0219 2.46875,0.0312 4.75353,0.0541 9.52661,0.054 14.28125,0.0625 1.594253,0.002 3.186999,-0.001 4.781252,0 -2.573754,0.088 -5.151912,0.18877 -7.718752,0.3125 -6.01326,0.32879 -3.72203,0.19285 -9.28125,0.5625 -1.10878,0.0737 -2.20458,0.14271 -3.3125,0.21875 -0.73812,0.0506 -1.48722,0.0906 -2.21875,0.15625 -0.18459,0.0165 -0.37667,0.0431 -0.5625,0.0625 0.12425,0.002 0.25578,0.008 0.375,0 1.86259,-0.11905 3.73357,-0.28063 5.59375,-0.40625 5.4926,-0.37099 3.35032,-0.23452 9.28125,-0.5625 2.92801,-0.14277 5.875441,-0.24756 8.812502,-0.34375 3.678245,0.002 7.353,-0.001 11.03125,0 -1.240847,0.0811 -2.475938,0.17535 -3.71875,0.25 -1.728861,0.10386 -3.487482,0.18487 -5.21875,0.28125 -0.84247,0.044 -1.687744,0.0859 -2.53125,0.125 -3.025509,0.0926 -7.254432,0.2507 -10.593752,0.375 -4.26306,0.12072 -8.54582,0.22243 -12.8125,0.3125 -0.0946,-0.002 -0.26745,-0.003 -0.40625,0 -0.0525,0.004 -0.10911,-0.0115 -0.15625,0 -0.0602,0.0119 -0.13247,0.0151 -0.1875,0.0312 -0.0101,0.003 0.005,0.029 0,0.0312 0.0974,0.008 0.44578,-10e-4 0.59375,0 3.48335,-0.0833 6.98572,-0.19029 10.46875,-0.28125 -2.17673,0.0838 -6.04218,0.22674 -7.9375,0.3125 -0.76822,0.0348 -1.55069,0.0705 -2.3125,0.125 -0.17896,0.0128 -0.61602,0.0426 -0.5625,0.0937 -0.14147,0.0186 -0.2536,0.0499 -0.15625,0.0625 0.15246,0.0198 0.30896,6.6e-4 0.46875,0 -0.10347,-0.0159 -0.20738,-0.0282 -0.28125,-0.0625 0.13697,-0.017 0.28233,-0.0554 0.375,-0.0625 0.7685,-0.0588 1.56761,-0.0884 2.34375,-0.125 2.203,-0.10382 6.93855,-0.26583 8.90625,-0.34375 0.4956,-0.0185 1.16664,-0.0417 1.71875,-0.0625 3.71894,-0.10615 7.420184,-0.22885 11.125002,-0.40625 7.843147,-0.22981 15.705575,-0.30857 23.5625,-0.40625 1.269817,-0.0203 2.542723,-0.0417 3.8125,-0.0625 0.956708,-0.0156 2.177757,-0.0119 3.25,-0.0937 -0.179523,-0.004 -0.351979,-0.002 -0.53125,0 -2.129344,0.0259 -4.277849,0.0565 -6.40625,0.0937 -7.288275,0.099 -14.565681,0.1791 -21.84375,0.375 1.728669,-0.0955 3.461158,-0.17846 5.1875,-0.28125 0.229646,-0.0137 2.297788,-0.15296 4.28125,-0.28125 5.157886,0.001 10.310866,-0.002 15.46875,0 0.872811,0.005 1.752278,0.0243 2.625,0.0312 0.48931,0.004 0.981153,-0.0178 1.46875,0 0.03656,10e-4 0.04461,0.0215 0.09375,0.0312 0.09283,-0.009 0.192237,-0.02 0.28125,-0.0312 0.07669,-0.01 -0.138947,-0.0288 -0.21875,-0.0312 -0.493932,-0.0153 -0.973546,-0.0286 -1.46875,-0.0312 -0.878143,-0.005 -1.778064,0.003 -2.65625,0 -5.043188,0.005 -10.081796,-2.7e-4 -15.125,0 1.742366,-0.11277 3.408252,-0.22549 3.78125,-0.25 0.519671,-0.0341 1.04298,-0.0592 1.5625,-0.0937 1.601528,-0.0233 3.211159,-0.0425 4.8125,-0.0625 0.867868,-0.009 1.725868,-0.0225 2.59375,-0.0312 0.156096,-0.002 0.312645,0.001 0.46875,0 0.05966,-9.1e-4 0.191079,0.002 0.25,0 0.24999,-0.002 0.500041,-0.0285 0.75,-0.0312 -0.165726,-0.0128 -0.332143,-0.0296 -0.5,-0.0312 -0.730154,-0.007 -1.457263,-0.005 -2.1875,0 -1.123358,0.008 -2.251598,0.0242 -3.375,0.0312 -0.333467,0.002 -0.666531,-0.001 -1,0 0.488236,-0.0312 0.989086,-0.0448 1.46875,-0.0937 0.140023,-0.0143 0.273439,-0.0385 0.40625,-0.0625 z m 10.15625,0.71875 c -0.113237,0.0114 -0.225909,0.0222 -0.34375,0.0312 0.147843,0.003 0.29063,0.007 0.4375,0 0.03649,-0.002 -0.04461,-0.0215 -0.09375,-0.0312 z m -55.156252,1.65625 c 0.21791,0.0335 0.45784,0.0215 0.6875,0.0312 0.89457,0.0379 1.82019,0.05 2.71875,0.0625 11.16195,0.0197 22.306794,-0.0445 33.468752,-0.0625 4.619095,-0.006 9.255883,0.002 13.875,0 0.513861,-1.9e-4 1.017389,-4e-5 1.53125,0 -6.699496,0.28993 -13.341902,0.76406 -20,1.1875 -1.860672,0.11987 -3.733756,0.22198 -5.59375,0.34375 -5.200914,0.34046 -6.073716,0.41582 -11.250002,0.71875 -1.72074,0.1007 -3.46377,0.19258 -5.1875,0.28125 1.68633,-0.0879 3.379,-0.15114 5.0625,-0.25 5.270809,-0.30951 5.984125,-0.37286 11.281252,-0.71875 1.858024,-0.12133 3.703742,-0.22448 5.5625,-0.34375 7.07817,-0.44754 14.149688,-0.95199 21.28125,-1.21875 0.111889,0.004 0.327969,-0.001 0.375,0 -0.01212,-0.003 -0.04301,-0.0263 -0.0625,-0.0312 0.185002,-0.0121 0.358257,-0.0117 0.25,-0.0312 -0.275332,-0.0498 -0.606926,-0.001 -0.90625,0 -0.740823,0.003 -1.477913,-0.002 -2.21875,0 -2.091136,0.005 -6.341763,0.0279 -8.21875,0.0312 -1.887659,0.003 -3.799838,-0.003 -5.6875,0 -11.143459,0.0195 -22.262922,0.0679 -33.406252,0.0312 -0.89038,-0.0147 -1.79681,-0.0202 -2.6875,-0.0312 -0.28689,-0.004 -0.58738,-0.001 -0.875,0 z m 42.687502,-2.1875 c 0.01034,-7.2e-4 0.02091,7.2e-4 0.03125,0 0.416962,-0.001 0.833039,0.001 1.25,0 -0.656881,0.009 -1.31185,0.0213 -1.96875,0.0312 0.228286,-0.0154 0.459345,-0.0155 0.6875,-0.0312 z m 2.5625,4.78125 c -0.720979,-0.0145 -1.434458,0.0305 -2.15625,0.0312 -1.124929,0.001 -2.25007,-9.8e-4 -3.375,0 -1.449508,0.001 -2.895869,0.0139 -4.34375,0.0312 -0.05218,2.4e-4 -0.10407,0.031 -0.15625,0.0312 1.293624,-0.005 2.581439,0.005 3.875,0 2.842343,-0.007 3.472127,-0.0276 6,-0.0312 0.250606,-3.8e-4 0.555802,0.0672 0.75,0 -0.0043,-0.002 0.008,-0.0293 0,-0.0312 0.05969,-0.008 0.134042,0.0145 0.1875,0 0.01362,-0.004 -0.0065,-0.0285 0,-0.0312 -0.08942,-0.005 -0.320111,0.0204 -0.53125,0.0312 -0.08862,-0.002 -0.1928,-0.0301 -0.25,-0.0312 z m -10.03125,0.0937 c -9.280823,0.0423 -18.570322,0.081 -27.843752,0.25 -7.42157,0.159 -0.62667,0.009 -6.65625,0.15625 -0.37624,0.009 -0.74869,0.0228 -1.125,0.0312 0.2364,-0.0214 0.4826,-0.0704 0.71875,-0.0937 -0.14565,0.007 -0.29192,0.0242 -0.4375,0.0312 -0.36615,0.0178 -0.73844,0.021 -1.09375,0.0625 -0.0572,0.007 0.0657,0.0622 0.125,0.0625 0.55138,0.003 1.10593,-0.0477 1.65625,-0.0625 4.90731,-0.13177 0.81025,-0.0233 6.6875,-0.15625 7.87997,-0.1507 15.769159,-0.21091 23.656252,-0.25 -8.760701,0.19238 -17.488542,0.62451 -26.187502,1.09375 -4.66813,0.28318 -9.37158,0.50314 -14.03125,0.8125 -0.66967,0.0444 -1.3484,0.0771 -2,0.15625 -0.04,0.005 -0.10253,0.0244 -0.15625,0.0312 0.66628,-0.0701 1.35354,-0.10993 2.03125,-0.15625 4.67157,-0.31924 9.38028,-0.5258 14.0625,-0.8125 10.15648,-0.54942 20.351933,-1.04231 30.593752,-1.15625 z m -27.031252,0 c -1.95249,0.0964 -3.88887,0.16058 -5.84375,0.25 -0.27014,0.0123 -0.54229,0.0193 -0.8125,0.0312 0.21904,-0.003 0.43295,0.013 0.65625,0.0312 2.00219,-0.0937 4.00002,-0.21223 6,-0.3125 z m -19.9375,2.15625 c -0.13845,0.0272 -0.23603,0.0583 -0.15625,0.0937 0.26518,0.11777 0.77831,0.0338 1.15625,0.0625 0.84143,0.0156 1.65808,0.0525 2.5,0.0625 2.3498,0.0279 6.17146,0.0267 8.40625,0.0312 5.60637,0.0114 11.20609,3.9e-4 16.8125,0 1.79772,-3.7e-4 3.608549,-0.002 5.406252,0 1.51855,0.002 3.043999,0.0258 4.5625,0.0312 1.052921,0.004 4.494939,0.0107 5.84375,0.0625 1.275097,0.049 1.176477,0.004 0.65625,0.21875 0.07296,-0.0107 0.145503,-0.0209 0.21875,-0.0312 0.0993,-0.0507 0.405237,-0.11651 0.28125,-0.15625 -0.277414,-0.0889 -0.653454,-0.0817 -1,-0.0937 -0.780874,-0.0273 -1.591637,-0.0247 -2.375,-0.0312 -4.495005,-0.0373 -8.973481,-0.0221 -13.468752,-0.0312 -5.60106,4.7e-4 -11.21151,0.0157 -16.8125,0 -2.27348,-0.006 -5.99618,-0.0298 -8.375,-0.0625 -0.83441,-0.0115 -1.66617,-0.0137 -2.5,-0.0312 -0.36592,-0.0229 -0.74685,-0.008 -1.09375,-0.0625 -0.0419,-0.007 -0.021,-0.0476 0.0312,-0.0625 -0.0321,0.005 -0.0647,-0.006 -0.0937,0 z m 45.156252,0.5625 c -0.459979,0.0525 -0.911381,0.10992 -1.375,0.15625 -3.851315,0.38496 -7.766049,0.66674 -11.65625,0.96875 -5.212442,0.40465 -6.279152,0.47662 -11.593752,0.875 -5.38199,0.38676 -10.79083,0.71601 -16.1875,1.0625 -1.11967,0.0719 -2.26058,0.13344 -3.375,0.21875 -1.33718,0.10236 -1.60745,0.01 -1.625,0.125 0.23879,-0.0196 0.63413,-0.0255 1.5,-0.0937 1.12049,-0.0884 2.24856,-0.14522 3.375,-0.21875 5.4023,-0.35259 10.82913,-0.67521 16.21875,-1.0625 5.48724,-0.40989 10.959842,-0.81746 16.437502,-1.25 1.20454,-0.0951 5.275195,-0.39933 6.75,-0.5625 0.52276,-0.0578 1.020743,-0.14335 1.53125,-0.21875 z m -45.812502,3.40625 c -0.24487,0.0201 -0.2551,0.0818 0.0312,0.125 -0.0149,-0.0514 -0.0352,-0.099 -0.0312,-0.125 z m 0.0312,0.125 c 0.007,0.0246 -0.009,0.0305 0,0.0625 0.68262,0.025 1.37817,0.0795 2.0625,0.0937 2.21925,0.0462 6.64519,0.056 8.625,0.0625 6.60482,0.0216 13.20755,0.0312 19.8125,0.0312 3.699041,5.1e-4 7.39471,-0.0246 11.093752,-0.0312 -7.621162,0.1556 -15.199692,0.5558 -22.781252,0.90625 -4.11636,0.19028 -5.79708,0.24377 -8.21875,0.34375 -3.03267,0.0789 -6.07102,0.17322 -9.09375,0.3125 -0.85868,0.0364 -1.70837,0.0727 -2.5625,0.125 -0.48891,0.0299 -0.99011,0.0732 -1.46875,0.125 -0.0833,0.009 0.19564,0.004 0.28125,0 0.6142,-0.0254 1.22945,-0.0375 1.84375,-0.0625 2.54944,-0.10362 5.07616,-0.20618 7.625,-0.3125 1.24895,-0.0524 1.76328,-0.0903 2.59375,-0.125 5.72262,-0.15925 11.46043,-0.22182 17.1875,-0.34375 1.81755,-0.0387 3.62056,-0.11254 5.437502,-0.15625 4.52122,-0.13942 9.086798,-0.19159 13.59375,-0.40625 l 0.15625,-0.0625 c -4.526801,0.23059 -9.081046,0.29307 -13.625,0.4375 -1.818852,0.0443 -3.649232,0.11723 -5.468752,0.15625 -4.88586,0.10479 -9.77079,0.16659 -14.65625,0.28125 1.60247,-0.0685 3.13751,-0.13536 6.28125,-0.28125 8.20572,-0.3808 16.398399,-0.82145 24.656252,-0.9375 0.937807,-0.002 1.874698,-0.0289 2.8125,-0.0312 3.404407,-0.0327 4.051313,-0.0619 8.6875,-0.0625 1.242193,-1.6e-4 2.507824,-0.003 3.75,0 -4.152456,0.0277 -8.284495,0.0516 -12.4375,0.0625 5.136932,-0.013 10.269599,-0.007 15.40625,-0.0312 0.09155,-0.001 0.271489,-0.003 0.40625,0 -0.228958,-0.0326 -0.476357,-0.0578 -0.71875,-0.0625 -0.838192,-0.0163 -1.660927,3.9e-4 -2.5,0 -1.248496,-5.5e-4 -2.501512,-0.002 -3.75,0 -5.627835,0.008 -4.306654,0.004 -10.3125,0.0625 -0.667438,0.007 -1.333318,0.0199 -2,0.0312 -4.040573,0.008 -8.084658,0.0291 -12.125002,0.0312 -6.59407,-0.002 -13.1874,-0.003 -19.78125,-0.0312 -2.16947,-0.009 -6.23905,-0.0406 -8.59375,-0.0937 -0.67231,-0.0152 -1.32942,-0.0371 -2,-0.0625 -0.10547,-0.0161 -0.14394,-0.02 -0.21875,-0.0312 z"
         id="path3525"
         style="fill:#6d5833;fill-opacity:1;fill-rule:nonzero;stroke:none;stroke-width:0;marker:none;visibility:visible;display:inline;overflow:visible;filter:url(#filter3572);enable-background:new" />
      <path
         d="m -117.50105,9.756313 c 15.13797,-6.2516164 19.782375,-4.4469265 28.362702,-1.7248736"
         id="path3651"
         sodipodi:nodetypes="cc"
         style="fill:none;stroke:url(#linearGradient3678);stroke-width:0.5;stroke-linecap:round;stroke-linejoin:miter;stroke-miterlimit:4;stroke-opacity:1;stroke-dasharray:none" />
    </g>
    <g
       id="g3817"
       transform="matrix(1.0193196,0,0,1.0193196,-3.0524985,-0.4852961)">
      <g
         id="g3742" />
      <g
         id="g3752"
         style="display:inline;enable-background:new" />
    </g>
    <g
       id="g3915">
      <g
         id="g3855"
         style="display:inline;enable-background:new"
         transform="matrix(0.6953582,0,0,0.6953582,40.213162,52.020504)">
        <g
           id="g3859" />
        <g
           id="g3879"
           style="display:inline;enable-background:new" />
      </g>
    </g>
    <g
       id="g2510"
       style="display:inline;enable-background:new"
       transform="matrix(0.6777664,0,0,0.6777664,44.33504,52.878586)">
      <g
         id="g2512"
         style="display:inline;enable-background:new"
         transform="matrix(0.6953582,0,0,0.6953582,40.213162,52.020504)">
        <g
           id="g2514" />
        <g
           id="g2534"
           style="display:inline;enable-background:new" />
      </g>
    </g>
    <g
       id="g3358"
       style="display:inline;enable-background:new"
       transform="matrix(0.4843533,0,0,0.4843533,69.347005,89.610916)">
      <g
         id="g3360"
         style="display:inline;enable-background:new"
         transform="matrix(0.6953582,0,0,0.6953582,40.213162,52.020504)">
        <g
           id="g3362" />
        <g
           id="g3382"
           style="display:inline;enable-background:new" />
      </g>
    </g>
  </g>
</svg>
