<?xml version="1.0" encoding="UTF-8" standalone="no"?>
<!-- Created with Inkscape (http://www.inkscape.org/) -->

<svg
   xmlns:dc="http://purl.org/dc/elements/1.1/"
   xmlns:cc="http://creativecommons.org/ns#"
   xmlns:rdf="http://www.w3.org/1999/02/22-rdf-syntax-ns#"
   xmlns:svg="http://www.w3.org/2000/svg"
   xmlns="http://www.w3.org/2000/svg"
   xmlns:xlink="http://www.w3.org/1999/xlink"
   xmlns:sodipodi="http://sodipodi.sourceforge.net/DTD/sodipodi-0.dtd"
   xmlns:inkscape="http://www.inkscape.org/namespaces/inkscape"
   height="128"
   id="svg11300"
   inkscape:export-filename="/home/mma/BZR-WORK/breathe-icon-set/source_svg/rendered/computer.png"
   inkscape:export-xdpi="90.000000"
   inkscape:export-ydpi="90.000000"
   inkscape:output_extension="org.inkscape.output.svg.inkscape"
   inkscape:version="0.46+devel r21673"
   sodipodi:docname="weather-few-clouds.svg"
   sodipodi:version="0.32"
   style="display:inline;enable-background:new"
   version="1.0"
   width="128">
  <sodipodi:namedview
     bordercolor="#666666"
     borderopacity="0.25490196"
     fill="#f57900"
     gridtolerance="12"
     guidetolerance="13"
     height="300px"
     id="base"
     inkscape:current-layer="layer6"
     inkscape:cx="152.97231"
     inkscape:cy="18.715729"
     inkscape:document-units="px"
     inkscape:grid-bbox="true"
     inkscape:guide-bbox="true"
     inkscape:pageopacity="0.0"
     inkscape:pageshadow="2"
     inkscape:showpageshadow="false"
     inkscape:snap-bbox="true"
     inkscape:snap-nodes="false"
     inkscape:window-height="903"
     inkscape:window-maximized="0"
     inkscape:window-width="1280"
     inkscape:window-x="0"
     inkscape:window-y="24"
     inkscape:zoom="1"
     objecttolerance="7"
     pagecolor="#ffffff"
     showgrid="false"
     showguides="true"
     stroke="#ef2929"
     width="400px">
    <inkscape:grid
       empspacing="5"
       enabled="true"
       id="grid5883"
       spacingx="1px"
       spacingy="1px"
       type="xygrid"
       visible="true" />
  </sodipodi:namedview>
  <title
     id="title4119">Breathe Icon Theme computer</title>
  <defs
     id="defs3">
    <linearGradient
       id="linearGradient3772"
       inkscape:collect="always">
      <stop
         id="stop3774"
         offset="0"
         style="stop-color:#eaeaea;stop-opacity:1" />
      <stop
         id="stop3776"
         offset="1"
         style="stop-color:#ffffff;stop-opacity:1" />
    </linearGradient>
    <linearGradient
       id="linearGradient5471"
       inkscape:collect="always">
      <stop
         id="stop5473"
         offset="0"
         style="stop-color:#ffb200;stop-opacity:1;" />
      <stop
         id="stop5475"
         offset="1"
         style="stop-color:#ffed14;stop-opacity:1" />
    </linearGradient>
    <linearGradient
       id="linearGradient3268">
      <stop
         id="stop3270"
         offset="0"
         style="stop-color:#ffff00;stop-opacity:1;" />
      <stop
         id="stop3272"
         offset="1"
         style="stop-color:#ffff58;stop-opacity:1;" />
    </linearGradient>
    <linearGradient
       id="linearGradient3252"
       inkscape:collect="always">
      <stop
         id="stop3254"
         offset="0"
         style="stop-color:#ffffff;stop-opacity:1;" />
      <stop
         id="stop3256"
         offset="1"
         style="stop-color:#ffffff;stop-opacity:0;" />
    </linearGradient>
    <linearGradient
       id="linearGradient3239">
      <stop
         id="stop3241"
         offset="0"
         style="stop-color:#ffc619;stop-opacity:1;" />
      <stop
         id="stop3243"
         offset="1"
         style="stop-color:#ffc619;stop-opacity:0;" />
    </linearGradient>
    <filter
       color-interpolation-filters="sRGB"
       id="filter3285"
       inkscape:collect="always">
      <feGaussianBlur
         id="feGaussianBlur3287"
         inkscape:collect="always"
         stdDeviation="1.1095313" />
    </filter>
    <filter
       color-interpolation-filters="sRGB"
       id="filter3321"
       inkscape:collect="always">
      <feGaussianBlur
         id="feGaussianBlur3323"
         inkscape:collect="always"
         stdDeviation="2.737297" />
    </filter>
    <filter
       color-interpolation-filters="sRGB"
       height="1.24"
       id="filter5695"
       inkscape:collect="always"
       width="1.24"
       x="-0.12"
       y="-0.12">
      <feGaussianBlur
         id="feGaussianBlur5697"
         inkscape:collect="always"
         stdDeviation="4.1719299" />
    </filter>
    <linearGradient
       gradientTransform="matrix(0.8985626,0,0,0.8985626,267.20062,84.090176)"
       gradientUnits="userSpaceOnUse"
       id="linearGradient3304"
       inkscape:collect="always"
       x1="-222.80096"
       x2="-222.80096"
       xlink:href="#linearGradient5471"
       y1="47.552898"
       y2="-89.04763" />
    <linearGradient
       gradientUnits="userSpaceOnUse"
       id="linearGradient3306"
       inkscape:collect="always"
       x1="-217.78889"
       x2="-217.78889"
       xlink:href="#linearGradient5471"
       y1="32.059219"
       y2="-146.76639" />
    <linearGradient
       gradientUnits="userSpaceOnUse"
       id="linearGradient3308"
       inkscape:collect="always"
       x1="-367.84616"
       x2="-349.10257"
       xlink:href="#linearGradient3268"
       y1="-16.658119"
       y2="128.94444" />
    <linearGradient
       gradientUnits="userSpaceOnUse"
       id="linearGradient3310"
       inkscape:collect="always"
       x1="-356.5"
       x2="-350.44769"
       xlink:href="#linearGradient3239"
       y1="-16.513927"
       y2="128.20801" />
    <linearGradient
       gradientUnits="userSpaceOnUse"
       id="linearGradient3312"
       inkscape:collect="always"
       x1="-392.35196"
       x2="-375.3378"
       xlink:href="#linearGradient3239"
       y1="-4.9666476"
       y2="56.616802" />
    <linearGradient
       gradientUnits="userSpaceOnUse"
       id="linearGradient10802"
       inkscape:collect="always"
       x1="39.875"
       x2="52.5"
       xlink:href="#linearGradient3252"
       y1="9.875"
       y2="56.265625" />
    <filter
       color-interpolation-filters="sRGB"
       id="filter3764"
       inkscape:collect="always">
      <feGaussianBlur
         id="feGaussianBlur3766"
         inkscape:collect="always"
         stdDeviation="1.5582606" />
    </filter>
    <filter
       color-interpolation-filters="sRGB"
       id="filter3768"
       inkscape:collect="always">
      <feGaussianBlur
         id="feGaussianBlur3770"
         inkscape:collect="always"
         stdDeviation="1.5582606" />
    </filter>
    <filter
       color-interpolation-filters="sRGB"
       height="1.3267176"
       id="filter3802"
       inkscape:collect="always"
       width="1.0512227"
       x="-0.025611361"
       y="-0.16335879">
      <feGaussianBlur
         id="feGaussianBlur3804"
         inkscape:collect="always"
         stdDeviation="1.0186857" />
    </filter>
    <filter
       color-interpolation-filters="sRGB"
       id="filter4332"
       inkscape:collect="always">
      <feGaussianBlur
         id="feGaussianBlur4334"
         inkscape:collect="always"
         stdDeviation="1.2383561" />
    </filter>
    <filter
       color-interpolation-filters="sRGB"
       id="filter4340"
       inkscape:collect="always">
      <feGaussianBlur
         id="feGaussianBlur4342"
         inkscape:collect="always"
         stdDeviation="1.2319676" />
    </filter>
    <filter
       color-interpolation-filters="sRGB"
       id="filter4355"
       inkscape:collect="always">
      <feGaussianBlur
         id="feGaussianBlur4357"
         inkscape:collect="always"
         stdDeviation="1.2383561" />
    </filter>
    <linearGradient
       gradientUnits="userSpaceOnUse"
       id="linearGradient4359"
       inkscape:collect="always"
       x1="-109.0409"
       x2="-114.0513"
       xlink:href="#linearGradient3772"
       y1="206.06425"
       y2="163.99138" />
  </defs>
  <metadata
     id="metadata4">
    <rdf:RDF>
      <cc:Work
         rdf:about="">
        <dc:format>image/svg+xml</dc:format>
        <dc:type
           rdf:resource="http://purl.org/dc/dcmitype/StillImage" />
        <dc:creator>
          <cc:Agent>
            <dc:title>Breathe Icon Team</dc:title>
          </cc:Agent>
        </dc:creator>
        <dc:source />
        <cc:license
           rdf:resource="http://creativecommons.org/licenses/by-sa/3.0/" />
        <dc:title>Breathe Icon Theme icon</dc:title>
        <dc:subject>
          <rdf:Bag />
        </dc:subject>
        <dc:date />
        <dc:rights>
          <cc:Agent>
            <dc:title />
          </cc:Agent>
        </dc:rights>
        <dc:publisher>
          <cc:Agent>
            <dc:title />
          </cc:Agent>
        </dc:publisher>
        <dc:identifier />
        <dc:relation />
        <dc:language />
        <dc:coverage />
        <dc:description />
        <dc:contributor>
          <cc:Agent>
            <dc:title>Jakub Steiner, Cory Kontros, Oxygen and Breathe icon teams</dc:title>
          </cc:Agent>
        </dc:contributor>
      </cc:Work>
      <cc:License
         rdf:about="http://creativecommons.org/licenses/by-sa/3.0/">
        <cc:permits
           rdf:resource="http://creativecommons.org/ns#Reproduction" />
        <cc:permits
           rdf:resource="http://creativecommons.org/ns#Distribution" />
        <cc:requires
           rdf:resource="http://creativecommons.org/ns#Notice" />
        <cc:requires
           rdf:resource="http://creativecommons.org/ns#Attribution" />
        <cc:prohibits
           rdf:resource="http://creativecommons.org/ns#CommercialUse" />
        <cc:permits
           rdf:resource="http://creativecommons.org/ns#DerivativeWorks" />
        <cc:requires
           rdf:resource="http://creativecommons.org/ns#ShareAlike" />
      </cc:License>
    </rdf:RDF>
  </metadata>
  <g
     id="layer1"
     inkscape:groupmode="layer"
     inkscape:label="status/weather-few-clouds"
     style="display:inline"
     transform="translate(-3,-4)">
    <rect
       height="256"
       id="256x256"
       inkscape:label="256x256"
       style="fill:#eeeeec;fill-opacity:1;fill-rule:nonzero;stroke:none;stroke-width:5;marker:none;visibility:visible;display:none;overflow:visible;enable-background:accumulate"
       width="256"
       x="26.5"
       y="32.823101" />
    <rect
       height="48"
       id="48x48"
       inkscape:label="48x48"
       style="fill:#eeeeec;fill-opacity:1;fill-rule:nonzero;stroke:none;stroke-width:5;marker:none;visibility:visible;display:none;overflow:visible;enable-background:accumulate"
       width="48"
       x="-35.5"
       y="32.823101" />
    <text
       id="text6091"
       sodipodi:linespacing="125%"
       style="font-size:56.11526489px;font-style:normal;font-variant:normal;font-weight:bold;font-stretch:normal;text-indent:0;text-align:start;text-decoration:none;line-height:125%;letter-spacing:normal;word-spacing:normal;text-transform:none;direction:ltr;block-progression:tb;writing-mode:lr-tb;text-anchor:start;fill:#2e3436;fill-opacity:1;fill-rule:nonzero;stroke:none;stroke-width:5;marker:none;visibility:visible;display:none;overflow:visible;enable-background:accumulate;font-family:Myriad"
       x="-418.41196"
       xml:space="preserve"
       y="34.084831"><tspan
         id="tspan6093"
         sodipodi:role="line"
         x="-418.41196"
         y="34.084831">audio-x-generic</tspan></text>
    <g
       id="layer6"
       inkscape:groupmode="layer"
       inkscape:label="plate"
       sodipodi:insensitive="true"
       style="display:none" />
    <g
       id="Livello_1"
       transform="translate(387.11439,42.495045)" />
    <g
       id="g3290"
       transform="translate(443.11439,59.884345)" />
    <g
       id="g7148"
       transform="matrix(0.1956571,0,0,0.1956571,345.26471,19.402885)" />
    <g
       id="g7555"
       transform="matrix(0.1333333,0,0,0.1333333,319.90372,105.99052)" />
    <g
       id="g9283"
       transform="matrix(1.0666666,0,0,1.0666666,384.44667,40.470571)" />
    <g
       id="g3529"
       transform="matrix(0.1136346,0,0,0.1136346,134.38647,116.27284)" />
    <g
       id="g3295"
       transform="matrix(1.0011781,0,0,1.0011781,-0.07893335,-0.08010965)">
      <path
         d="m 81.90419,121.44441 c 0,0 -7.88016,-24.959146 -7.88016,-24.959146 0,0 3.58052,27.814396 3.58052,27.814396 0,0 -6.024189,-28.487621 -6.024189,-28.487621 0,0 1.585811,28.572301 1.585811,28.572301 0,0 -4.237505,-27.641859 -4.237505,-27.641859 0,0 0.732536,27.215679 0.732536,27.215679 0,0 -2.312686,-26.752412 -2.312686,-26.752412 0,0 -0.737819,31.060412 -0.737819,31.060412 0,0 -1.017325,-31.687322 -1.017325,-31.687322 0,0 -3.807918,35.245852 -3.807918,35.245852 0,0 0.764711,-34.613278 0.764711,-34.613278 0,0 -4.488104,28.167128 -4.488104,28.167128 0,0 3.730561,-29.334677 3.730561,-29.334677 0,0 -7.898491,27.576047 -7.898491,27.576047 0,0 6.568816,-26.780144 6.568816,-26.780144 0,0 -11.653386,27.001144 -11.653386,27.001144 0,0 9.744679,-29.534667 9.744679,-29.534667 0,0 -14.461298,30.263447 -14.461298,30.263447 0,0 12.150096,-29.718587 12.150096,-29.718587 0,0 -13.824782,25.915297 -13.824782,25.915297 0,0 12.582482,-26.371986 12.582482,-26.371986 0,0 -16.527865,23.347576 -16.527865,23.347576 0,0 14.781535,-25.231505 14.781535,-25.231505 0,0 -21.589701,27.460035 -21.589701,27.460035 0,0 20.61521,-25.941894 20.61521,-25.941894 0,0 -18.714103,18.937524 -18.714103,18.937524 0,0 17.587666,-21.514068 17.587666,-21.514068 0,0 -20.026851,18.412278 -20.026851,18.412278 0,0 17.62236,-20.454271 17.62236,-20.454271 0,0 -21.491048,18.835211 -21.491048,18.835211 0,0 20.091545,-20.921659 20.091545,-20.921659 0,0 -20.233366,15.985009 -20.233366,15.985009 0,0 19.521902,-16.405527 19.521902,-16.405527 0,0 -23.139677,14.893437 -23.139677,14.893437 0,0 21.74554,-15.504394 21.74554,-15.504394 0,0 -24.415187,12.062423 -24.415187,12.062423 0,0 25.513266,-13.815773 25.513266,-13.815773 0,0 -27.166604,10.584157 -27.166604,10.584157 0,0 23.809735,-13.240003 23.809735,-13.240003 0,0 -24.264417,10.350019 -24.264417,10.350019 0,0 24.448273,-12.009798 24.448273,-12.009798 0,0 -26.409674,7.66254 -26.409674,7.66254 0,0 23.985531,-10.369978 23.985531,-10.369978 0,0 -25.169512,7.228522 -25.169512,7.228522 0,0 26.098383,-9.210234 26.098383,-9.210234 0,0 -30.493937,6.430559 -30.493937,6.430559 0,0 29.444334,-7.046389 29.444334,-7.046389 0,0 -23.287094,2.507874 -23.287094,2.507874 0,0 23.280652,-4.669309 23.280652,-4.669309 0,0 -25.625641,1.1261 -25.625641,1.1261 0,0 25.387036,-3.213908 25.387036,-3.213908 0,0 -30.9669287,-1.853418 -30.9669287,-1.853418 0,0 31.3394917,-0.262747 31.3394917,-0.262747 0,0 -30.8572259,-3.777507 -30.8572259,-3.777507 0,0 31.0337229,2.387146 31.0337229,2.387146 0,0 -23.21337,-4.611636 -23.21337,-4.611636 0,0 22.753727,2.090727 22.753727,2.090727 0,0 -25.721885,-6.297278 -25.721885,-6.297278 0,0 26.279658,5.606347 26.279658,5.606347 0,0 -28.639006,-10.336965 -28.639006,-10.336965 0,0 29.596875,7.99377 29.596875,7.99377 0,0 -28.014416,-11.068489 -28.014416,-11.068489 0,0 28.427801,9.05349 28.427801,9.05349 0,0 -28.257236,-11.764462 -28.257236,-11.764462 0,0 28.865902,11.813211 28.865902,11.813211 0,0 -21.732312,-12.579305 -21.732312,-12.579305 0,0 22.926359,9.25027 22.926359,9.25027 0,0 -27.520557,-16.296272 -27.520557,-16.296272 0,0 28.654607,14.084046 28.654607,14.084046 0,0 -24.417309,-16.272321 -24.417309,-16.272321 0,0 25.552003,15.49119 25.552003,15.49119 0,0 -25.194985,-19.349857 -25.194985,-19.349857 0,0 25.699475,17.053022 25.699475,17.053022 0,0 -25.408854,-23.362546 -25.408854,-23.362546 0,0 27.375134,20.546222 27.375134,20.546222 0,0 -16.592625,-18.263601 -16.592625,-18.263601 0,0 17.379964,19.400559 17.379964,19.400559 0,0 -14.8118,-22.255902 -14.8118,-22.255902 0,0 17.81077,21.4134 17.81077,21.4134 0,0 -14.988941,-23.113899 -14.988941,-23.113899 0,0 14.659637,21.149664 14.659637,21.149664 0,0 -13.039411,-23.634748 -13.039411,-23.634748 0,0 17.046434,22.206856 17.046434,22.206856 0,0 -11.969763,-24.668755 -11.969763,-24.668755 0,0 12.275138,26.438516 12.275138,26.438516 0,0 -8.96859,-26.630028 -8.96859,-26.630028 0,0 11.043103,24.785313 11.043103,24.785313 0,0 -7.748478,-29.609788 -7.748478,-29.609788 0,0 10.420236,28.428733 10.420236,28.428733 0,0 -7.06254,-29.070594 -7.06254,-29.070594 0,0 7.632058,31.01266 7.632058,31.01266 0,0 -2.771958,-34.024628 -2.771958,-34.024628 0,0 5.571987,32.285674 5.571987,32.285674 0,0 -1.931685,-34.1191423 -1.931685,-34.1191423 0,0 3.701541,34.0170613 3.701541,34.0170613 0,0 -1.219252,-39.7776493 -1.219252,-39.7776493 0,0 1.773366,38.6216843 1.773366,38.6216843 0,0 3.412787,-26.642395 3.412787,-26.642395 0,0 -0.681434,27.210361 -0.681434,27.210361 0,0 3.349814,-29.063776 3.349814,-29.063776 0,0 -1.829294,29.428083 -1.829294,29.428083 0,0 5.088381,-31.015803 5.088381,-31.015803 0,0 -1.607744,31.088026 -1.607744,31.088026 0,0 5.323301,-29.739857 5.323301,-29.739857 0,0 -5.884481,30.793438 -5.884481,30.793438 0,0 10.840225,-30.425215 10.840225,-30.425215 0,0 -7.738727,29.814244 -7.738727,29.814244 0,0 12.576112,-29.303924 12.576112,-29.303924 0,0 -11.261705,30.22059 -11.261705,30.22059 0,0 15.992267,-28.386179 15.992267,-28.386179 0,0 -14.257708,28.607682 -14.257708,28.607682 0,0 16.294724,-23.755382 16.294724,-23.755382 0,0 -14.469365,25.470019 -14.469365,25.470019 0,0 16.096707,-21.835896 16.096707,-21.835896 0,0 -14.431607,23.057553 -14.431607,23.057553 0,0 17.944485,-20.160809 17.944485,-20.160809 0,0 -16.862609,21.00398 -16.862609,21.00398 0,0 18.954039,-19.01287 18.954039,-19.01287 0,0 -17.808173,19.364285 -17.808173,19.364285 0,0 22.868893,-18.267552 22.868893,-18.267552 0,0 -21.164859,21.044708 -21.164859,21.044708 0,0 25.240229,-18.406217 25.240229,-18.406217 0,0 -23.435079,19.470086 -23.435079,19.470086 0,0 26.066589,-15.224357 26.066589,-15.224357 0,0 -27.48798,15.645123 -27.48798,15.645123 0,0 28.95672,-13.639545 28.95672,-13.639545 0,0 -25.616646,16.516401 -25.616646,16.516401 0,0 27.466616,-12.47441 27.466616,-12.47441 0,0 -27.054409,14.875535 -27.054409,14.875535 0,0 23.956629,-9.764428 23.956629,-9.764428 0,0 -22.766869,11.106893 -22.766869,11.106893 0,0 23.815449,-7.343775 23.815449,-7.343775 0,0 -23.673514,8.992974 -23.673514,8.992974 0,0 23.759624,-6.016274 23.759624,-6.016274 0,0 -23.215722,6.456171 -23.215722,6.456171 0,0 26.982952,-3.769108 26.982952,-3.769108 0,0 -26.657377,5.717455 -26.657377,5.717455 0,0 22.594937,-1.542853 22.594937,-1.542853 0,0 -21.81378,4.112758 -21.81378,4.112758 0,0 24.64315,0.700936 24.64315,0.700936 0,0 -24.715331,1.60086 -24.715331,1.60086 0,0 29.648791,1.871432 29.648791,1.871432 0,0 -29.917255,0.126257 -29.917255,0.126257 0,0 27.490235,3.453892 27.490235,3.453892 0,0 -27.745094,-1.31613 -27.745094,-1.31613 0,0 27.320684,3.156718 27.320684,3.156718 0,0 -26.79463,-1.279792 -26.79463,-1.279792 0,0 25.67672,6.283459 25.67672,6.283459 0,0 -26.165052,-3.908553 -26.165052,-3.908553 0,0 25.086772,8.245241 25.086772,8.245241 0,0 -26.138584,-8.920768 -26.138584,-8.920768 0,0 24.309604,11.908196 24.309604,11.908196 0,0 -24.99618,-8.628612 -24.99618,-8.628612 0,0 25.75645,13.499424 25.75645,13.499424 0,0 -27.314872,-10.987145 -27.314872,-10.987145 0,0 24.449522,13.245816 24.449522,13.245816 0,0 -24.524102,-12.43522 -24.524102,-12.43522 0,0 21.709302,16.604457 21.709302,16.604457 0,0 -22.679103,-14.803733 -22.679103,-14.803733 0,0 20.052573,15.353563 20.052573,15.353563 0,0 -20.848573,-14.197416 -20.848573,-14.197416 0,0 22.617463,19.995316 22.617463,19.995316 0,0 -24.204074,-18.182658 -24.204074,-18.182658 0,0 18.620954,19.886248 18.620954,19.886248 0,0 -19.251708,-18.746798 -19.251708,-18.746798 0,0 18.974648,24.192438 18.974648,24.192438 0,0 -21.744027,-22.614241 -21.744027,-22.614241 0,0 18.778437,25.604651 18.778437,25.604651 0,0 -19.571159,-24.226722 -19.571159,-24.226722 0,0 14.74208,25.842742 14.74208,25.842742 0,0 -16.722152,-24.589146 -16.722152,-24.589146 0,0 13.480524,27.247736 13.480524,27.247736 0,0 -15.862704,-26.718835 -15.862704,-26.718835 0,0 12.555445,28.268635 12.555445,28.268635 0,0 -13.446837,-27.358178 -13.446837,-27.358178 0,0 9.882178,25.471168 9.882178,25.471168 0,0 -10.420946,-25.302469 -10.420946,-25.302469 0,0 5.168775,27.177339 5.168775,27.177339 0,0 -7.987595,-26.326086 -7.987595,-26.326086 0,0 4.552974,25.941316 4.552974,25.941316 0,0 0.984896,0.99558 0.984896,0.99558"
         id="path4072"
         sodipodi:nodetypes="cccccccccccccccccccccccccccccccccccccccccccccccccccccccccccccccccccccccccccccccccccccccccccccccccccccccccccccccccccccccccccccccccccccccccccccccccccccccccccccccccccccccccccccccccccccc"
         style="fill:none;stroke:url(#linearGradient3304);stroke-width:0.2;stroke-linecap:round;stroke-linejoin:round;stroke-miterlimit:4;stroke-opacity:1;stroke-dasharray:none;stroke-dashoffset:0;marker:none;visibility:visible;display:inline;overflow:visible;enable-background:new" />
      <path
         d="m -176.0696,-18.088617 c 0,23.0409325 -18.67836,41.719299 -41.71929,41.719299 -23.04094,0 -41.7193,-18.6783665 -41.7193,-41.719299 0,-23.040933 18.67836,-41.7193 41.7193,-41.7193 23.04093,0 41.71929,18.678367 41.71929,41.7193 z"
         id="path5479"
         sodipodi:cx="-217.78889"
         sodipodi:cy="-18.088617"
         sodipodi:rx="41.719299"
         sodipodi:ry="41.719299"
         sodipodi:type="arc"
         style="fill:url(#linearGradient3306);fill-opacity:1;fill-rule:nonzero;stroke:none;stroke-width:1;marker:none;visibility:visible;display:inline;overflow:visible;filter:url(#filter5695);enable-background:new"
         transform="matrix(1.0273358,0,0,1.0273358,290.74235,86.583075)" />
      <g
         id="g3261"
         transform="matrix(0.9146787,0,0,0.9146787,5.7165283,5.8018471)">
        <path
           d="m -280,60.5 c 0,42.24978 -34.25022,76.5 -76.5,76.5 -42.24978,0 -76.5,-34.25022 -76.5,-76.5 0,-42.249783 34.25022,-76.5 76.5,-76.5 42.24978,0 76.5,34.250217 76.5,76.5 z"
           id="path2465"
           sodipodi:cx="-356.5"
           sodipodi:cy="60.5"
           sodipodi:rx="76.5"
           sodipodi:ry="76.5"
           sodipodi:type="arc"
           style="fill:url(#linearGradient3308);fill-opacity:1;fill-rule:nonzero;stroke:#ffb200;stroke-width:3.78458762;stroke-linecap:round;stroke-linejoin:round;stroke-miterlimit:4;stroke-opacity:1;stroke-dasharray:none;stroke-dashoffset:0;marker:none;visibility:visible;display:inline;overflow:visible;enable-background:new"
           transform="matrix(0.5285998,0,0,0.5285998,255.44585,36.019704)" />
        <path
           d="m -280,60.5 c 0,42.24978 -34.25022,76.5 -76.5,76.5 -42.24978,0 -76.5,-34.25022 -76.5,-76.5 0,-42.249783 34.25022,-76.5 76.5,-76.5 42.24978,0 76.5,34.250217 76.5,76.5 z"
           id="path3237"
           sodipodi:cx="-356.5"
           sodipodi:cy="60.5"
           sodipodi:rx="76.5"
           sodipodi:ry="76.5"
           sodipodi:type="arc"
           style="fill:url(#linearGradient3310);fill-opacity:1;fill-rule:nonzero;stroke:url(#linearGradient3312);stroke-width:1;stroke-linecap:round;stroke-linejoin:round;stroke-miterlimit:4;stroke-opacity:1;stroke-dasharray:none;stroke-dashoffset:0;marker:none;visibility:visible;display:inline;overflow:visible;enable-background:new"
           transform="matrix(0.5103226,0,0,0.4830377,248.93,35.297393)" />
        <path
           d="M 67,9.875 C 37.677688,9.875 13.875,33.677686 13.875,63 c 0,10.135043 2.849624,19.595788 7.78125,27.65625 C 18.604645,84.05675 16.875,76.72957 16.875,69 c 0,-28.772917 23.578686,-52.125 52.625,-52.125 22.296049,-1e-6 41.33983,13.778758 49,33.1875 C 112.71878,26.985594 91.860897,9.8749997 67,9.875 z"
           id="path3247"
           style="fill:url(#linearGradient10802);fill-opacity:1;fill-rule:nonzero;stroke:none;stroke-width:1;marker:none;visibility:visible;display:inline;overflow:visible;filter:url(#filter3321);enable-background:new"
           transform="matrix(0.6957638,0,0,0.6957638,20.383827,20.688053)" />
        <path
           d="m 12.28125,87.625 c 8.056913,22.43131 29.525183,38.5 54.71875,38.5 25.193569,0 46.66184,-16.06869 54.71875,-38.5 -10.02184,19.25581 -30.767581,32.5 -54.71875,32.5 -23.951167,0 -44.696911,-13.24419 -54.71875,-32.5 z"
           id="path3280"
           style="fill:#ffff87;fill-opacity:1;fill-rule:nonzero;stroke:none;stroke-width:1.31623924;marker:none;visibility:visible;display:inline;overflow:visible;filter:url(#filter3285);enable-background:new"
           transform="matrix(0.6957638,0,0,0.7499793,20.383827,13.85014)" />
      </g>
    </g>
    <g
       id="g3369"
       style="display:inline;enable-background:new"
       transform="matrix(0.3744673,0,0,0.3744673,132.91069,2.5362214)">
      <g
         id="g3375"
         transform="matrix(0.9146787,0,0,0.9146787,5.7165283,5.8018471)" />
    </g>
    <g
       id="g3425"
       style="display:inline;enable-background:new"
       transform="matrix(0.2491232,0,0,0.2491232,133.30875,54.059623)">
      <g
         id="g3431"
         transform="matrix(0.9146787,0,0,0.9146787,5.7165283,5.8018471)" />
    </g>
    <g
       id="g3509"
       transform="matrix(1.0005714,0,0,1.0005714,-0.09692699,-0.08744395)">
      <g
         id="g3465"
         transform="matrix(0.156659,0,0,0.156659,135.50384,90.347186)" />
    </g>
    <g
       id="g4348"
       style="filter:url(#filter4355)"
       transform="matrix(1.0139232,0,0,0.7650057,1.3970715,28.82879)">
      <path
         d="m 4.9048519,109.25855 10.0247331,-8.94678 5.989168,-8.235469 6.899772,-3.26754 6.286375,-2.2705 5.26487,0.43958 3.685402,0.3077 4.009095,2.78067 3.243344,-3.92226 2.047997,0.86984 2.514051,-1.5372 1.258275,0.8039 4.619999,-1.36137 -5.230903,5.50341 7.631559,-2.50761 1.576966,-3.01312 2.545516,1.26079 1.168866,-1.30008 -0.352658,-2.12597 1.666376,-0.90913 1.405632,2.21388 8.155552,-5.60864 2.137417,2.97381 2.166386,2.62683 -1.782263,2.29713 5.29384,0.09258 3.011565,-1.14625 4.240866,0.0047 1.724321,-1.60313 5.206919,1.13358 4.88574,1.8056 0.11839,1.75699 -4.03557,0.71132 -9.387351,1.31275 -3.830268,1.42731 4.856765,2.1526 7.692004,-0.05662 3.24584,-0.77726 1.87417,2.95185 3.2773,2.02072 5.58856,2.912539 2.89817,3.38677 3.92217,3.82167 2.07948,3.66782 -2.83524,2.20923 -1.78476,-0.84786 -1.63491,3.70713 -2.49007,-5.09979 -2.63244,-0.21979 0.0315,2.79799 1.58196,3.27687 -0.96356,2.01607 -3.89071,-1.02369 -1.66887,-2.23586 -6.69697,0.83854 -8.684541,2.41969 -3.511576,-2.38971 -5.965186,1.59847 -6.636533,3.28953 -6.317842,-0.52749 -5.822829,-3.28152 -2.956116,-2.69276 -1.634903,3.70713 -3.158921,-0.26375 1.25078,-8.63108 -3.043033,-1.65175 2.600966,-2.57821 -1.550489,-0.47887 -6.457705,7.49751 -0.442068,-4.22996 -6.723446,4.33053 -2.076978,-0.52283 -1.463573,-1.51988 -3.888213,2.12131 1.721826,-4.74813 -5.441195,-1.50256 4.443667,-2.42434 2.687881,-3.61921 -2.019034,-1.21684 -4.122482,1.75233 -0.673842,-1.45394 2.600965,-2.578209 -2.340218,-0.5448 -0.73428,-3.90494 4.269835,-0.34234 -4.067032,-2.08666 -5.291348,3.05241 -5.20193,5.1564 7.252437,-1.14157 -1.782271,2.297129 -1.400634,4.0761 2.019034,1.21684 0.0025,3.14499 1.990062,1.56383 -1.458578,4.77011 -7.310382,1.83559 2.458607,2.3018 -9.447789,-1.13825 -2.60596,-3.71177 -2.6324391,-0.21979 -3.045526,-4.79675 z"
         id="path4325"
         style="opacity:0.5;fill:none;stroke:#646464;stroke-width:0.42891169;stroke-linecap:butt;stroke-linejoin:miter;stroke-miterlimit:4;stroke-opacity:1;stroke-dasharray:none;display:inline;filter:url(#filter4340);enable-background:new" />
      <g
         id="g4327"
         style="opacity:0.8;filter:url(#filter4332)">
        <path
           d="m -184.20132,186.26524 12.37437,-9.89949 7.07107,-8.83884 8.83883,-3.88908 8.13173,-2.82843 7.07107,0 4.94974,0 5.65686,2.47488 3.88909,-4.24265 2.82842,0.70711 3.18198,-1.76777 1.76777,0.70711 6.01041,-1.76777 -6.36396,6.01041 9.89949,-3.18198 1.76777,-3.18198 3.53553,1.06066 1.41422,-1.41421 -0.70711,-2.12132 2.12132,-1.06066 2.121324,2.12132 10.253048,-6.36396 3.181981,2.82842 3.18198,2.47488 -2.12132,2.47487 7.071068,-0.35355 3.889087,-1.41422 5.656854,-0.35355 2.121321,-1.76777 7.071067,0.70711 6.717515,1.41421 0.353553,1.76777 -5.303301,1.06066 -12.374368,2.12132 -4.949748,1.76777 6.717515,1.76777 10.253048,-0.70711 4.242641,-1.06066 2.828427,2.82843 4.596194,1.76776 7.778175,2.47487 4.24264,3.18199 5.656854,3.53553 3.181981,3.53553 -3.535534,2.47488 -2.474874,-0.70711 -1.767767,3.88909 -3.889087,-4.94975 -3.535534,0 0.353554,2.82843 2.474873,3.18198 -1.06066,2.12132 -5.303301,-0.70711 -2.474873,-2.12132 -8.838835,1.41421 -11.313709,3.18198 -4.949747,-2.12132 -7.778175,2.12132 -8.485281,3.88909 -8.485282,0 -8.131734,-2.82842 -4.24264,-2.47488 -1.76776,3.88909 -4.24264,0 0.7071,-8.83884 -4.24264,-1.41421 3.18198,-2.82843 -2.12132,-0.35355 -7.77817,8.13173 -1.06066,-4.24264 -8.48528,4.94974 -2.82843,-0.35355 -2.12132,-1.41421 -4.94975,2.47487 1.76777,-4.94975 -7.42462,-1.06066 5.65685,-2.82842 3.18198,-3.88909 -2.82843,-1.06066 -5.3033,2.12132 -1.06066,-1.41421 3.18198,-2.82843 -3.18198,-0.35355 -1.41421,-3.88909 5.65685,-0.70711 -5.65685,-1.76776 -6.71752,3.53553 -6.36396,5.65685 9.54595,-1.76776 -2.12133,2.47487 -1.41421,4.24264 2.82843,1.06066 0.35355,3.18198 2.82843,1.41421 -1.41421,4.94975 -9.54595,2.47488 3.53554,2.12132 -12.72792,-0.35356 -3.88909,-3.53553 -3.53554,0 -4.59619,-4.5962 z"
           id="path3694"
           style="opacity:0.85;fill:none;stroke:#000000;stroke-width:0.5;stroke-linecap:butt;stroke-linejoin:miter;stroke-miterlimit:4;stroke-opacity:1;stroke-dasharray:none;display:inline;filter:url(#filter3764);enable-background:new"
           transform="matrix(0.7445648,0.06216533,-0.08194492,0.9814684,157.31664,-62.104591)" />
        <path
           d="m -88.375,148.78125 -10.28125,6.375 -2.09375,-2.125 -2.125,1.0625 0.6875,2.125 -1.40625,1.40625 -3.53125,-1.0625 -1.78125,3.1875 -9.875,3.1875 6.34375,-6.03125 -6,1.78125 -1.78125,-0.71875 -3.15625,1.78125 -2.84375,-0.71875 -3.875,4.25 -5.65625,-2.46875 -4.96875,0 -7.0625,0 -8.125,2.8125 -8.84375,3.90625 -7.0625,8.84375 -12.375,9.875 4.59375,4.625 3.53125,0 3.875,3.53125 12.75,0.34375 -3.5625,-2.125 9.5625,-2.46875 1.40625,-4.9375 -2.8125,-1.4375 -0.375,-3.1875 -2.8125,-1.03125 1.40625,-4.25 2.125,-2.46875 -9.5625,1.75 6.375,-5.65625 6.71875,-3.53125 5.65625,1.78125 -5.65625,0.6875 1.40625,3.90625 3.1875,0.34375 -3.1875,2.8125 1.0625,1.4375 5.3125,-2.125 2.8125,1.0625 -3.15625,3.875 -5.65625,2.84375 7.40625,1.0625 -1.75,4.9375 4.9375,-2.46875 2.125,1.40625 2.8125,0.34375 8.5,-4.9375 1.0625,4.25 7.78125,-8.125 2.125,0.34375 -3.1875,2.8125 4.25,1.4375 -0.71875,8.84375 4.25,0 1.75,-3.90625 4.25,2.46875 8.125,2.84375 8.5,0 8.46875,-3.90625 7.78125,-2.125 4.96875,2.125 11.3125,-3.1875 8.84375,-1.40625 2.46875,2.125 5.28125,0.71875 1.0625,-2.125 -2.46875,-3.1875 -0.34375,-2.8125 3.53125,0 3.875,4.9375 1.78125,-3.90625 2.46875,0.71875 3.53125,-2.46875 -3.15625,-3.53125 -5.65625,-3.53125 -4.25,-3.1875 -7.78125,-2.46875 -4.59375,-1.78125 -2.84375,-2.8125 -4.25,1.03125 -10.25,0.71875 -6.71875,-1.75 4.96875,-1.78125 12.375,-2.125 5.3125,-1.0625 -0.375,-1.75 -6.71875,-1.4375 -7.0625,-0.6875 -2.125,1.75 -5.65625,0.375 -3.875,1.40625 -7.09375,0.34375 2.125,-2.46875 -3.1875,-2.46875 -3.15625,-2.84375 z m 4.9375,10.25 3.1875,1.0625 0,3.53125 -5.3125,1.78125 L -92.625,164 l -4.25,0 -3.53125,-1.78125 2.46875,-2.46875 3.1875,0.34375 4.9375,0 6.375,-1.0625 z"
           id="path2922"
           style="fill:url(#linearGradient4359);fill-opacity:1;fill-rule:evenodd;stroke:#ffffff;stroke-width:1px;stroke-linecap:butt;stroke-linejoin:miter;stroke-opacity:1;filter:url(#filter3768)"
           transform="matrix(0.7445648,0.06216533,-0.08194492,0.9814684,157.31664,-62.104591)" />
        <path
           d="m -39.951533,177.07286 -8.485281,3.53553 -2.474874,-3.18198 -6.363961,0 -2.12132,-3.53553 -6.010408,2.12132 -2.828427,-1.76777 -9.192388,-0.35355 -11.667262,0 -3.535534,-2.12133 -7.778172,0.35356 -4.94975,3.88909 -7.07107,4.24264 0,-3.88909 -4.94975,0 -6.36396,2.82843 -4.24264,-1.06066 -5.65685,3.88908 -1.76777,-1.76776 9.54594,-6.36396 5.65685,-0.35356 6.36397,-1.41421 4.59619,1.06066 3.88909,-4.94975 9.899495,1.06066 4.596194,-1.06066 5.303301,1.06066 c 0,0 15.202796,-3.88909 12.374369,-1.41421 -2.828428,2.47487 4.949747,0 4.949747,0 l 3.889087,0.7071 6.717515,0.70711 6.717514,4.24264 4.596194,-1.06066 6.363961,4.5962 z"
           id="path3780"
           style="opacity:0.85;fill:#ffffff;fill-opacity:1;fill-rule:evenodd;stroke:none;filter:url(#filter3802)"
           transform="matrix(0.7445648,0.06216533,-0.08194492,0.9814684,157.31664,-62.104591)" />
      </g>
    </g>
    <g
       id="g4361"
       style="display:inline;filter:url(#filter4355);enable-background:new"
       transform="matrix(0.3739881,0,0,0.286103,133.8022,11.52167)">
      <g
         id="g4365"
         style="opacity:0.8;filter:url(#filter4332)" />
    </g>
    <g
       id="g4375"
       style="display:inline;filter:url(#filter4355);enable-background:new"
       transform="matrix(0.2493254,0,0,0.2420498,133.86814,53.364386)">
      <g
         id="g4379"
         style="opacity:0.8;filter:url(#filter4332)" />
    </g>
    <g
       id="g4443">
      <g
         id="g4434"
         transform="matrix(1.0400935,0,0,1.2398399,-5.8536528,-26.316722)">
        <g
           id="g4393"
           style="opacity:0.8;filter:url(#filter4332)"
           transform="matrix(0.1660859,0,0,0.1612393,135.2539,89.868374)" />
      </g>
    </g>
    <g
       id="g4484"
       transform="translate(0.2198928,0)">
      <g
         id="g4457"
         style="filter:url(#filter4332)"
         transform="matrix(0.1233892,0,0,0.1427935,133.79657,113.13342)" />
    </g>
  </g>
</svg>
