<?xml version="1.0" encoding="UTF-8" standalone="no"?>
<!-- Created with Inkscape (http://www.inkscape.org/) -->

<svg
   xmlns:dc="http://purl.org/dc/elements/1.1/"
   xmlns:cc="http://creativecommons.org/ns#"
   xmlns:rdf="http://www.w3.org/1999/02/22-rdf-syntax-ns#"
   xmlns:svg="http://www.w3.org/2000/svg"
   xmlns="http://www.w3.org/2000/svg"
   xmlns:xlink="http://www.w3.org/1999/xlink"
   xmlns:sodipodi="http://sodipodi.sourceforge.net/DTD/sodipodi-0.dtd"
   xmlns:inkscape="http://www.inkscape.org/namespaces/inkscape"
   height="128"
   id="svg11300"
   inkscape:export-filename="/home/mma/BZR-WORK/breathe-icon-set/source_svg/rendered/computer.png"
   inkscape:export-xdpi="90.000000"
   inkscape:export-ydpi="90.000000"
   inkscape:output_extension="org.inkscape.output.svg.inkscape"
   inkscape:version="0.46+devel r21673"
   sodipodi:docname="weather-clouds.svg"
   sodipodi:version="0.32"
   style="display:inline;enable-background:new"
   version="1.0"
   width="128">
  <sodipodi:namedview
     bordercolor="#666666"
     borderopacity="0.25490196"
     fill="#f57900"
     gridtolerance="12"
     guidetolerance="13"
     height="300px"
     id="base"
     inkscape:current-layer="layer6"
     inkscape:cx="147.234"
     inkscape:cy="27.428932"
     inkscape:document-units="px"
     inkscape:grid-bbox="true"
     inkscape:guide-bbox="true"
     inkscape:pageopacity="0.0"
     inkscape:pageshadow="2"
     inkscape:showpageshadow="false"
     inkscape:snap-bbox="true"
     inkscape:snap-nodes="false"
     inkscape:window-height="903"
     inkscape:window-maximized="0"
     inkscape:window-width="1280"
     inkscape:window-x="0"
     inkscape:window-y="24"
     inkscape:zoom="1"
     objecttolerance="7"
     pagecolor="#ffffff"
     showgrid="false"
     showguides="true"
     stroke="#ef2929"
     width="400px">
    <inkscape:grid
       empspacing="5"
       enabled="true"
       id="grid5883"
       spacingx="1px"
       spacingy="1px"
       type="xygrid"
       visible="true" />
  </sodipodi:namedview>
  <title
     id="title4119">Breathe Icon Theme computer</title>
  <defs
     id="defs3">
    <linearGradient
       id="linearGradient6620">
      <stop
         id="stop6622"
         offset="0"
         style="stop-color:#e4e4e4;stop-opacity:1" />
      <stop
         id="stop6624"
         offset="0.5"
         style="stop-color:#e1e1e1;stop-opacity:1" />
      <stop
         id="stop6626"
         offset="1"
         style="stop-color:#e0e0e0;stop-opacity:0.66666669" />
    </linearGradient>
    <linearGradient
       id="linearGradient5471"
       inkscape:collect="always">
      <stop
         id="stop5473"
         offset="0"
         style="stop-color:#ffb200;stop-opacity:1;" />
      <stop
         id="stop5475"
         offset="1"
         style="stop-color:#ffed14;stop-opacity:1" />
    </linearGradient>
    <linearGradient
       id="linearGradient3268">
      <stop
         id="stop3270"
         offset="0"
         style="stop-color:#ffff00;stop-opacity:1;" />
      <stop
         id="stop3272"
         offset="1"
         style="stop-color:#ffff58;stop-opacity:1;" />
    </linearGradient>
    <linearGradient
       id="linearGradient3252"
       inkscape:collect="always">
      <stop
         id="stop3254"
         offset="0"
         style="stop-color:#ffffff;stop-opacity:1;" />
      <stop
         id="stop3256"
         offset="1"
         style="stop-color:#ffffff;stop-opacity:0;" />
    </linearGradient>
    <linearGradient
       id="linearGradient3239">
      <stop
         id="stop3241"
         offset="0"
         style="stop-color:#ffc619;stop-opacity:1;" />
      <stop
         id="stop3243"
         offset="1"
         style="stop-color:#ffc619;stop-opacity:0;" />
    </linearGradient>
    <filter
       color-interpolation-filters="sRGB"
       id="filter3285"
       inkscape:collect="always">
      <feGaussianBlur
         id="feGaussianBlur3287"
         inkscape:collect="always"
         stdDeviation="1.1095313" />
    </filter>
    <filter
       color-interpolation-filters="sRGB"
       id="filter3321"
       inkscape:collect="always">
      <feGaussianBlur
         id="feGaussianBlur3323"
         inkscape:collect="always"
         stdDeviation="2.737297" />
    </filter>
    <filter
       color-interpolation-filters="sRGB"
       height="1.24"
       id="filter5695"
       inkscape:collect="always"
       width="1.24"
       x="-0.12"
       y="-0.12">
      <feGaussianBlur
         id="feGaussianBlur5697"
         inkscape:collect="always"
         stdDeviation="4.1719299" />
    </filter>
    <filter
       color-interpolation-filters="sRGB"
       id="filter5247"
       inkscape:collect="always">
      <feGaussianBlur
         id="feGaussianBlur5249"
         inkscape:collect="always"
         stdDeviation="2.3991885" />
    </filter>
    <filter
       color-interpolation-filters="sRGB"
       height="1.6187971"
       id="filter5711"
       inkscape:collect="always"
       width="1.1825068"
       x="-0.091253407"
       y="-0.30939856">
      <feGaussianBlur
         id="feGaussianBlur5713"
         inkscape:collect="always"
         stdDeviation="1.741861" />
    </filter>
    <filter
       color-interpolation-filters="sRGB"
       height="2.2923474"
       id="filter5715"
       inkscape:collect="always"
       width="1.2110018"
       x="-0.10550092"
       y="-0.64617378">
      <feGaussianBlur
         id="feGaussianBlur5717"
         inkscape:collect="always"
         stdDeviation="1.741861" />
    </filter>
    <filter
       color-interpolation-filters="sRGB"
       height="1.7376369"
       id="filter5719"
       inkscape:collect="always"
       width="1.2545711"
       x="-0.12728557"
       y="-0.36881846">
      <feGaussianBlur
         id="feGaussianBlur5721"
         inkscape:collect="always"
         stdDeviation="1.741861" />
    </filter>
    <filter
       color-interpolation-filters="sRGB"
       height="1.8946536"
       id="filter5727"
       inkscape:collect="always"
       width="1.1620438"
       x="-0.081021897"
       y="-0.44732681">
      <feGaussianBlur
         id="feGaussianBlur5729"
         inkscape:collect="always"
         stdDeviation="1.741861" />
    </filter>
    <filter
       color-interpolation-filters="sRGB"
       height="1.2645669"
       id="filter5769"
       inkscape:collect="always"
       width="1.1058269"
       x="-0.052913386"
       y="-0.13228346">
      <feGaussianBlur
         id="feGaussianBlur5771"
         inkscape:collect="always"
         stdDeviation="1.9291339" />
    </filter>
    <filter
       color-interpolation-filters="sRGB"
       id="filter5777"
       inkscape:collect="always">
      <feGaussianBlur
         id="feGaussianBlur5779"
         inkscape:collect="always"
         stdDeviation="0.55399444" />
    </filter>
    <filter
       color-interpolation-filters="sRGB"
       height="1.3717747"
       id="filter5941"
       inkscape:collect="always"
       width="1.2685039"
       x="-0.13425197"
       y="-0.18588734">
      <feGaussianBlur
         id="feGaussianBlur5943"
         inkscape:collect="always"
         stdDeviation="1.5103346" />
    </filter>
    <filter
       color-interpolation-filters="sRGB"
       height="1.8566929"
       id="filter6005"
       inkscape:collect="always"
       width="1.3352277"
       x="-0.16761383"
       y="-0.42834646">
      <feGaussianBlur
         id="feGaussianBlur6007"
         inkscape:collect="always"
         stdDeviation="1.6062992" />
    </filter>
    <filter
       color-interpolation-filters="sRGB"
       height="1.2521199"
       id="filter6051"
       inkscape:collect="always"
       width="1.0985732"
       x="-0.0492866"
       y="-0.12605996">
      <feGaussianBlur
         id="feGaussianBlur6053"
         inkscape:collect="always"
         stdDeviation="1.3656496" />
    </filter>
    <filter
       color-interpolation-filters="sRGB"
       height="1.7189692"
       id="filter6107"
       inkscape:collect="always"
       width="1.3954331"
       x="-0.19771653"
       y="-0.35948461">
      <feGaussianBlur
         id="feGaussianBlur6109"
         inkscape:collect="always"
         stdDeviation="2.4714567" />
    </filter>
    <filter
       color-interpolation-filters="sRGB"
       height="1.8779606"
       id="filter6157"
       inkscape:collect="always"
       width="1.1826291"
       x="-0.091314524"
       y="-0.43898031">
      <feGaussianBlur
         id="feGaussianBlur6159"
         inkscape:collect="always"
         stdDeviation="2.0028617" />
    </filter>
    <filter
       color-interpolation-filters="sRGB"
       height="1.8207588"
       id="filter6503"
       inkscape:collect="always"
       width="1.3224409"
       x="-0.16122048"
       y="-0.41037938">
      <feGaussianBlur
         id="feGaussianBlur6505"
         inkscape:collect="always"
         stdDeviation="0.94045276" />
    </filter>
    <filter
       color-interpolation-filters="sRGB"
       height="1.9224409"
       id="filter6537"
       inkscape:collect="always"
       width="1.2683465"
       x="-0.13417323"
       y="-0.46122047">
      <feGaussianBlur
         id="feGaussianBlur6539"
         inkscape:collect="always"
         stdDeviation="1.5374016" />
    </filter>
    <filter
       color-interpolation-filters="sRGB"
       height="1.2480921"
       id="filter6668"
       inkscape:collect="always"
       width="1.3870236"
       x="-0.19351181"
       y="-0.12404603">
      <feGaussianBlur
         id="feGaussianBlur6670"
         inkscape:collect="always"
         stdDeviation="1.007874" />
    </filter>
    <filter
       color-interpolation-filters="sRGB"
       height="1.5511611"
       id="filter6726"
       inkscape:collect="always"
       width="1.063193"
       x="-0.0315965"
       y="-0.27558056">
      <feGaussianBlur
         id="feGaussianBlur6728"
         inkscape:collect="always"
         stdDeviation="0.96735899" />
    </filter>
    <linearGradient
       gradientTransform="matrix(0.8985626,0,0,0.8985626,267.20062,84.090176)"
       gradientUnits="userSpaceOnUse"
       id="linearGradient6789"
       inkscape:collect="always"
       x1="-222.80096"
       x2="-222.80096"
       xlink:href="#linearGradient5471"
       y1="47.552898"
       y2="-89.04763" />
    <linearGradient
       gradientUnits="userSpaceOnUse"
       id="linearGradient6791"
       inkscape:collect="always"
       x1="-217.78889"
       x2="-217.78889"
       xlink:href="#linearGradient5471"
       y1="32.059219"
       y2="-146.76639" />
    <linearGradient
       gradientUnits="userSpaceOnUse"
       id="linearGradient6793"
       inkscape:collect="always"
       x1="-367.84616"
       x2="-349.10257"
       xlink:href="#linearGradient3268"
       y1="-16.658119"
       y2="128.94444" />
    <linearGradient
       gradientUnits="userSpaceOnUse"
       id="linearGradient6795"
       inkscape:collect="always"
       x1="-356.5"
       x2="-350.44769"
       xlink:href="#linearGradient3239"
       y1="-16.513927"
       y2="128.20801" />
    <linearGradient
       gradientUnits="userSpaceOnUse"
       id="linearGradient6797"
       inkscape:collect="always"
       x1="-392.35196"
       x2="-375.3378"
       xlink:href="#linearGradient3239"
       y1="-4.9666476"
       y2="56.616802" />
    <linearGradient
       gradientUnits="userSpaceOnUse"
       id="linearGradient6799"
       inkscape:collect="always"
       x1="39.875"
       x2="52.5"
       xlink:href="#linearGradient3252"
       y1="9.875"
       y2="56.265625" />
    <linearGradient
       gradientTransform="translate(86.5,-91.5)"
       gradientUnits="userSpaceOnUse"
       id="linearGradient6801"
       inkscape:collect="always"
       x1="-8.5"
       x2="-16.402222"
       xlink:href="#linearGradient6620"
       y1="206.5"
       y2="168.5" />
  </defs>
  <metadata
     id="metadata4">
    <rdf:RDF>
      <cc:Work
         rdf:about="">
        <dc:format>image/svg+xml</dc:format>
        <dc:type
           rdf:resource="http://purl.org/dc/dcmitype/StillImage" />
        <dc:creator>
          <cc:Agent>
            <dc:title>Breathe Icon Team</dc:title>
          </cc:Agent>
        </dc:creator>
        <dc:source />
        <cc:license
           rdf:resource="http://creativecommons.org/licenses/by-sa/3.0/" />
        <dc:title>Breathe Icon Theme icon</dc:title>
        <dc:subject>
          <rdf:Bag />
        </dc:subject>
        <dc:date />
        <dc:rights>
          <cc:Agent>
            <dc:title />
          </cc:Agent>
        </dc:rights>
        <dc:publisher>
          <cc:Agent>
            <dc:title />
          </cc:Agent>
        </dc:publisher>
        <dc:identifier />
        <dc:relation />
        <dc:language />
        <dc:coverage />
        <dc:description />
        <dc:contributor>
          <cc:Agent>
            <dc:title>Jakub Steiner, Cory Kontros, Oxygen and Breathe icon teams</dc:title>
          </cc:Agent>
        </dc:contributor>
      </cc:Work>
      <cc:License
         rdf:about="http://creativecommons.org/licenses/by-sa/3.0/">
        <cc:permits
           rdf:resource="http://creativecommons.org/ns#Reproduction" />
        <cc:permits
           rdf:resource="http://creativecommons.org/ns#Distribution" />
        <cc:requires
           rdf:resource="http://creativecommons.org/ns#Notice" />
        <cc:requires
           rdf:resource="http://creativecommons.org/ns#Attribution" />
        <cc:prohibits
           rdf:resource="http://creativecommons.org/ns#CommercialUse" />
        <cc:permits
           rdf:resource="http://creativecommons.org/ns#DerivativeWorks" />
        <cc:requires
           rdf:resource="http://creativecommons.org/ns#ShareAlike" />
      </cc:License>
    </rdf:RDF>
  </metadata>
  <g
     id="layer1"
     inkscape:groupmode="layer"
     inkscape:label="status/weather-clouds"
     style="display:inline"
     transform="translate(-3,-4)">
    <rect
       height="256"
       id="256x256"
       inkscape:label="256x256"
       style="fill:#eeeeec;fill-opacity:1;fill-rule:nonzero;stroke:none;stroke-width:5;marker:none;visibility:visible;display:none;overflow:visible;enable-background:accumulate"
       width="256"
       x="26.5"
       y="32.823101" />
    <rect
       height="48"
       id="48x48"
       inkscape:label="48x48"
       style="fill:#eeeeec;fill-opacity:1;fill-rule:nonzero;stroke:none;stroke-width:5;marker:none;visibility:visible;display:none;overflow:visible;enable-background:accumulate"
       width="48"
       x="-35.5"
       y="32.823101" />
    <text
       id="text6091"
       sodipodi:linespacing="125%"
       style="font-size:56.11526489px;font-style:normal;font-variant:normal;font-weight:bold;font-stretch:normal;text-indent:0;text-align:start;text-decoration:none;line-height:125%;letter-spacing:normal;word-spacing:normal;text-transform:none;direction:ltr;block-progression:tb;writing-mode:lr-tb;text-anchor:start;fill:#2e3436;fill-opacity:1;fill-rule:nonzero;stroke:none;stroke-width:5;marker:none;visibility:visible;display:none;overflow:visible;enable-background:accumulate;font-family:Myriad"
       x="-418.41196"
       xml:space="preserve"
       y="34.084831"><tspan
         id="tspan6093"
         sodipodi:role="line"
         x="-418.41196"
         y="34.084831">audio-x-generic</tspan></text>
    <g
       id="layer6"
       inkscape:groupmode="layer"
       inkscape:label="plate"
       sodipodi:insensitive="true"
       style="display:none" />
    <g
       id="Livello_1"
       transform="translate(387.11439,42.495045)" />
    <g
       id="g3290"
       transform="translate(443.11439,59.884345)" />
    <g
       id="g7148"
       transform="matrix(0.1956571,0,0,0.1956571,345.26471,19.402885)" />
    <g
       id="g7555"
       transform="matrix(0.1333333,0,0,0.1333333,319.90372,105.99052)" />
    <g
       id="g9283"
       transform="matrix(1.0666666,0,0,1.0666666,384.44667,40.470571)" />
    <g
       id="g3525"
       style="display:inline;enable-background:new"
       transform="matrix(0.7253629,0,0,0.7253629,36.097016,50.738347)">
      <g
         id="g3529"
         transform="matrix(0.156659,0,0,0.156659,135.50384,90.347186)" />
    </g>
    <g
       id="g3369"
       style="display:inline;enable-background:new"
       transform="matrix(0.3744673,0,0,0.3744673,132.91069,2.5362214)">
      <g
         id="g3375"
         transform="matrix(0.9146787,0,0,0.9146787,5.7165283,5.8018471)" />
    </g>
    <g
       id="g3425"
       style="display:inline;enable-background:new"
       transform="matrix(0.2491232,0,0,0.2491232,133.30875,54.059623)">
      <g
         id="g3431"
         transform="matrix(0.9146787,0,0,0.9146787,5.7165283,5.8018471)" />
    </g>
    <g
       id="g3509"
       transform="matrix(1.0005714,0,0,1.0005714,-0.09692699,-0.08744395)">
      <g
         id="g3465"
         transform="matrix(0.156659,0,0,0.156659,135.50384,90.347186)" />
    </g>
    <g
       id="g3295"
       transform="matrix(1.0011781,0,0,1.0011781,-0.07893335,-0.08010965)">
      <path
         d="m 81.90419,121.44441 c 0,0 -7.88016,-24.959146 -7.88016,-24.959146 0,0 3.58052,27.814396 3.58052,27.814396 0,0 -6.024189,-28.487621 -6.024189,-28.487621 0,0 1.585811,28.572301 1.585811,28.572301 0,0 -4.237505,-27.641859 -4.237505,-27.641859 0,0 0.732536,27.215679 0.732536,27.215679 0,0 -2.312686,-26.752412 -2.312686,-26.752412 0,0 -0.737819,31.060412 -0.737819,31.060412 0,0 -1.017325,-31.687322 -1.017325,-31.687322 0,0 -3.807918,35.245852 -3.807918,35.245852 0,0 0.764711,-34.613278 0.764711,-34.613278 0,0 -4.488104,28.167128 -4.488104,28.167128 0,0 3.730561,-29.334677 3.730561,-29.334677 0,0 -7.898491,27.576047 -7.898491,27.576047 0,0 6.568816,-26.780144 6.568816,-26.780144 0,0 -11.653386,27.001144 -11.653386,27.001144 0,0 9.744679,-29.534667 9.744679,-29.534667 0,0 -14.461298,30.263447 -14.461298,30.263447 0,0 12.150096,-29.718587 12.150096,-29.718587 0,0 -13.824782,25.915297 -13.824782,25.915297 0,0 12.582482,-26.371986 12.582482,-26.371986 0,0 -16.527865,23.347576 -16.527865,23.347576 0,0 14.781535,-25.231505 14.781535,-25.231505 0,0 -21.589701,27.460035 -21.589701,27.460035 0,0 20.61521,-25.941894 20.61521,-25.941894 0,0 -18.714103,18.937524 -18.714103,18.937524 0,0 17.587666,-21.514068 17.587666,-21.514068 0,0 -20.026851,18.412278 -20.026851,18.412278 0,0 17.62236,-20.454271 17.62236,-20.454271 0,0 -21.491048,18.835211 -21.491048,18.835211 0,0 20.091545,-20.921659 20.091545,-20.921659 0,0 -20.233366,15.985009 -20.233366,15.985009 0,0 19.521902,-16.405527 19.521902,-16.405527 0,0 -23.139677,14.893437 -23.139677,14.893437 0,0 21.74554,-15.504394 21.74554,-15.504394 0,0 -24.415187,12.062423 -24.415187,12.062423 0,0 25.513266,-13.815773 25.513266,-13.815773 0,0 -27.166604,10.584157 -27.166604,10.584157 0,0 23.809735,-13.240003 23.809735,-13.240003 0,0 -24.264417,10.350019 -24.264417,10.350019 0,0 24.448273,-12.009798 24.448273,-12.009798 0,0 -26.409674,7.66254 -26.409674,7.66254 0,0 23.985531,-10.369978 23.985531,-10.369978 0,0 -25.169512,7.228522 -25.169512,7.228522 0,0 26.098383,-9.210234 26.098383,-9.210234 0,0 -30.493937,6.430559 -30.493937,6.430559 0,0 29.444334,-7.046389 29.444334,-7.046389 0,0 -23.287094,2.507874 -23.287094,2.507874 0,0 23.280652,-4.669309 23.280652,-4.669309 0,0 -25.625641,1.1261 -25.625641,1.1261 0,0 25.387036,-3.213908 25.387036,-3.213908 0,0 -30.9669287,-1.853418 -30.9669287,-1.853418 0,0 31.3394917,-0.262747 31.3394917,-0.262747 0,0 -30.8572259,-3.777507 -30.8572259,-3.777507 0,0 31.0337229,2.387146 31.0337229,2.387146 0,0 -23.21337,-4.611636 -23.21337,-4.611636 0,0 22.753727,2.090727 22.753727,2.090727 0,0 -25.721885,-6.297278 -25.721885,-6.297278 0,0 26.279658,5.606347 26.279658,5.606347 0,0 -28.639006,-10.336965 -28.639006,-10.336965 0,0 29.596875,7.99377 29.596875,7.99377 0,0 -28.014416,-11.068489 -28.014416,-11.068489 0,0 28.427801,9.05349 28.427801,9.05349 0,0 -28.257236,-11.764462 -28.257236,-11.764462 0,0 28.865902,11.813211 28.865902,11.813211 0,0 -21.732312,-12.579305 -21.732312,-12.579305 0,0 22.926359,9.25027 22.926359,9.25027 0,0 -27.520557,-16.296272 -27.520557,-16.296272 0,0 28.654607,14.084046 28.654607,14.084046 0,0 -24.417309,-16.272321 -24.417309,-16.272321 0,0 25.552003,15.49119 25.552003,15.49119 0,0 -25.194985,-19.349857 -25.194985,-19.349857 0,0 25.699475,17.053022 25.699475,17.053022 0,0 -25.408854,-23.362546 -25.408854,-23.362546 0,0 27.375134,20.546222 27.375134,20.546222 0,0 -16.592625,-18.263601 -16.592625,-18.263601 0,0 17.379964,19.400559 17.379964,19.400559 0,0 -14.8118,-22.255902 -14.8118,-22.255902 0,0 17.81077,21.4134 17.81077,21.4134 0,0 -14.988941,-23.113899 -14.988941,-23.113899 0,0 14.659637,21.149664 14.659637,21.149664 0,0 -13.039411,-23.634748 -13.039411,-23.634748 0,0 17.046434,22.206856 17.046434,22.206856 0,0 -11.969763,-24.668755 -11.969763,-24.668755 0,0 12.275138,26.438516 12.275138,26.438516 0,0 -8.96859,-26.630028 -8.96859,-26.630028 0,0 11.043103,24.785313 11.043103,24.785313 0,0 -7.748478,-29.609788 -7.748478,-29.609788 0,0 10.420236,28.428733 10.420236,28.428733 0,0 -7.06254,-29.070594 -7.06254,-29.070594 0,0 7.632058,31.01266 7.632058,31.01266 0,0 -2.771958,-34.024628 -2.771958,-34.024628 0,0 5.571987,32.285674 5.571987,32.285674 0,0 -1.931685,-34.1191423 -1.931685,-34.1191423 0,0 3.701541,34.0170613 3.701541,34.0170613 0,0 -1.219252,-39.7776493 -1.219252,-39.7776493 0,0 1.773366,38.6216843 1.773366,38.6216843 0,0 3.412787,-26.642395 3.412787,-26.642395 0,0 -0.681434,27.210361 -0.681434,27.210361 0,0 3.349814,-29.063776 3.349814,-29.063776 0,0 -1.829294,29.428083 -1.829294,29.428083 0,0 5.088381,-31.015803 5.088381,-31.015803 0,0 -1.607744,31.088026 -1.607744,31.088026 0,0 5.323301,-29.739857 5.323301,-29.739857 0,0 -5.884481,30.793438 -5.884481,30.793438 0,0 10.840225,-30.425215 10.840225,-30.425215 0,0 -7.738727,29.814244 -7.738727,29.814244 0,0 12.576112,-29.303924 12.576112,-29.303924 0,0 -11.261705,30.22059 -11.261705,30.22059 0,0 15.992267,-28.386179 15.992267,-28.386179 0,0 -14.257708,28.607682 -14.257708,28.607682 0,0 16.294724,-23.755382 16.294724,-23.755382 0,0 -14.469365,25.470019 -14.469365,25.470019 0,0 16.096707,-21.835896 16.096707,-21.835896 0,0 -14.431607,23.057553 -14.431607,23.057553 0,0 17.944485,-20.160809 17.944485,-20.160809 0,0 -16.862609,21.00398 -16.862609,21.00398 0,0 18.954039,-19.01287 18.954039,-19.01287 0,0 -17.808173,19.364285 -17.808173,19.364285 0,0 22.868893,-18.267552 22.868893,-18.267552 0,0 -21.164859,21.044708 -21.164859,21.044708 0,0 25.240229,-18.406217 25.240229,-18.406217 0,0 -23.435079,19.470086 -23.435079,19.470086 0,0 26.066589,-15.224357 26.066589,-15.224357 0,0 -27.48798,15.645123 -27.48798,15.645123 0,0 28.95672,-13.639545 28.95672,-13.639545 0,0 -25.616646,16.516401 -25.616646,16.516401 0,0 27.466616,-12.47441 27.466616,-12.47441 0,0 -27.054409,14.875535 -27.054409,14.875535 0,0 23.956629,-9.764428 23.956629,-9.764428 0,0 -22.766869,11.106893 -22.766869,11.106893 0,0 23.815449,-7.343775 23.815449,-7.343775 0,0 -23.673514,8.992974 -23.673514,8.992974 0,0 23.759624,-6.016274 23.759624,-6.016274 0,0 -23.215722,6.456171 -23.215722,6.456171 0,0 26.982952,-3.769108 26.982952,-3.769108 0,0 -26.657377,5.717455 -26.657377,5.717455 0,0 22.594937,-1.542853 22.594937,-1.542853 0,0 -21.81378,4.112758 -21.81378,4.112758 0,0 24.64315,0.700936 24.64315,0.700936 0,0 -24.715331,1.60086 -24.715331,1.60086 0,0 29.648791,1.871432 29.648791,1.871432 0,0 -29.917255,0.126257 -29.917255,0.126257 0,0 27.490235,3.453892 27.490235,3.453892 0,0 -27.745094,-1.31613 -27.745094,-1.31613 0,0 27.320684,3.156718 27.320684,3.156718 0,0 -26.79463,-1.279792 -26.79463,-1.279792 0,0 25.67672,6.283459 25.67672,6.283459 0,0 -26.165052,-3.908553 -26.165052,-3.908553 0,0 25.086772,8.245241 25.086772,8.245241 0,0 -26.138584,-8.920768 -26.138584,-8.920768 0,0 24.309604,11.908196 24.309604,11.908196 0,0 -24.99618,-8.628612 -24.99618,-8.628612 0,0 25.75645,13.499424 25.75645,13.499424 0,0 -27.314872,-10.987145 -27.314872,-10.987145 0,0 24.449522,13.245816 24.449522,13.245816 0,0 -24.524102,-12.43522 -24.524102,-12.43522 0,0 21.709302,16.604457 21.709302,16.604457 0,0 -22.679103,-14.803733 -22.679103,-14.803733 0,0 20.052573,15.353563 20.052573,15.353563 0,0 -20.848573,-14.197416 -20.848573,-14.197416 0,0 22.617463,19.995316 22.617463,19.995316 0,0 -24.204074,-18.182658 -24.204074,-18.182658 0,0 18.620954,19.886248 18.620954,19.886248 0,0 -19.251708,-18.746798 -19.251708,-18.746798 0,0 18.974648,24.192438 18.974648,24.192438 0,0 -21.744027,-22.614241 -21.744027,-22.614241 0,0 18.778437,25.604651 18.778437,25.604651 0,0 -19.571159,-24.226722 -19.571159,-24.226722 0,0 14.74208,25.842742 14.74208,25.842742 0,0 -16.722152,-24.589146 -16.722152,-24.589146 0,0 13.480524,27.247736 13.480524,27.247736 0,0 -15.862704,-26.718835 -15.862704,-26.718835 0,0 12.555445,28.268635 12.555445,28.268635 0,0 -13.446837,-27.358178 -13.446837,-27.358178 0,0 9.882178,25.471168 9.882178,25.471168 0,0 -10.420946,-25.302469 -10.420946,-25.302469 0,0 5.168775,27.177339 5.168775,27.177339 0,0 -7.987595,-26.326086 -7.987595,-26.326086 0,0 4.552974,25.941316 4.552974,25.941316 0,0 0.984896,0.99558 0.984896,0.99558"
         id="path4072"
         sodipodi:nodetypes="cccccccccccccccccccccccccccccccccccccccccccccccccccccccccccccccccccccccccccccccccccccccccccccccccccccccccccccccccccccccccccccccccccccccccccccccccccccccccccccccccccccccccccccccccccccc"
         style="fill:none;stroke:url(#linearGradient6789);stroke-width:0.2;stroke-linecap:round;stroke-linejoin:round;stroke-miterlimit:4;stroke-opacity:1;stroke-dasharray:none;stroke-dashoffset:0;marker:none;visibility:visible;display:inline;overflow:visible;enable-background:new" />
      <path
         d="m -176.0696,-18.088617 c 0,23.0409325 -18.67836,41.719299 -41.71929,41.719299 -23.04094,0 -41.7193,-18.6783665 -41.7193,-41.719299 0,-23.040933 18.67836,-41.7193 41.7193,-41.7193 23.04093,0 41.71929,18.678367 41.71929,41.7193 z"
         id="path5479"
         sodipodi:cx="-217.78889"
         sodipodi:cy="-18.088617"
         sodipodi:rx="41.719299"
         sodipodi:ry="41.719299"
         sodipodi:type="arc"
         style="fill:url(#linearGradient6791);fill-opacity:1;fill-rule:nonzero;stroke:none;stroke-width:1;marker:none;visibility:visible;display:inline;overflow:visible;filter:url(#filter5695);enable-background:new"
         transform="matrix(1.0273358,0,0,1.0273358,290.74235,86.583075)" />
      <g
         id="g3261"
         transform="matrix(0.9146787,0,0,0.9146787,5.7165283,5.8018471)">
        <path
           d="m -280,60.5 c 0,42.24978 -34.25022,76.5 -76.5,76.5 -42.24978,0 -76.5,-34.25022 -76.5,-76.5 0,-42.249783 34.25022,-76.5 76.5,-76.5 42.24978,0 76.5,34.250217 76.5,76.5 z"
           id="path2465"
           sodipodi:cx="-356.5"
           sodipodi:cy="60.5"
           sodipodi:rx="76.5"
           sodipodi:ry="76.5"
           sodipodi:type="arc"
           style="fill:url(#linearGradient6793);fill-opacity:1;fill-rule:nonzero;stroke:#ffb200;stroke-width:3.78458762;stroke-linecap:round;stroke-linejoin:round;stroke-miterlimit:4;stroke-opacity:1;stroke-dasharray:none;stroke-dashoffset:0;marker:none;visibility:visible;display:inline;overflow:visible;enable-background:new"
           transform="matrix(0.5285998,0,0,0.5285998,255.44585,36.019704)" />
        <path
           d="m -280,60.5 c 0,42.24978 -34.25022,76.5 -76.5,76.5 -42.24978,0 -76.5,-34.25022 -76.5,-76.5 0,-42.249783 34.25022,-76.5 76.5,-76.5 42.24978,0 76.5,34.250217 76.5,76.5 z"
           id="path3237"
           sodipodi:cx="-356.5"
           sodipodi:cy="60.5"
           sodipodi:rx="76.5"
           sodipodi:ry="76.5"
           sodipodi:type="arc"
           style="fill:url(#linearGradient6795);fill-opacity:1;fill-rule:nonzero;stroke:url(#linearGradient6797);stroke-width:1;stroke-linecap:round;stroke-linejoin:round;stroke-miterlimit:4;stroke-opacity:1;stroke-dasharray:none;stroke-dashoffset:0;marker:none;visibility:visible;display:inline;overflow:visible;enable-background:new"
           transform="matrix(0.5103226,0,0,0.4830377,248.93,35.297393)" />
        <path
           d="M 67,9.875 C 37.677688,9.875 13.875,33.677686 13.875,63 c 0,10.135043 2.849624,19.595788 7.78125,27.65625 C 18.604645,84.05675 16.875,76.72957 16.875,69 c 0,-28.772917 23.578686,-52.125 52.625,-52.125 22.296049,-1e-6 41.33983,13.778758 49,33.1875 C 112.71878,26.985594 91.860897,9.8749997 67,9.875 z"
           id="path3247"
           style="fill:url(#linearGradient6799);fill-opacity:1;fill-rule:nonzero;stroke:none;stroke-width:1;marker:none;visibility:visible;display:inline;overflow:visible;filter:url(#filter3321);enable-background:new"
           transform="matrix(0.6957638,0,0,0.6957638,20.383827,20.688053)" />
        <path
           d="m 12.28125,87.625 c 8.056913,22.43131 29.525183,38.5 54.71875,38.5 25.193569,0 46.66184,-16.06869 54.71875,-38.5 -10.02184,19.25581 -30.767581,32.5 -54.71875,32.5 -23.951167,0 -44.696911,-13.24419 -54.71875,-32.5 z"
           id="path3280"
           style="fill:#ffff87;fill-opacity:1;fill-rule:nonzero;stroke:none;stroke-width:1.31623924;marker:none;visibility:visible;display:inline;overflow:visible;filter:url(#filter3285);enable-background:new"
           transform="matrix(0.6957638,0,0,0.7499793,20.383827,13.85014)" />
      </g>
    </g>
    <g
       id="g6730"
       transform="matrix(-1,0,0,1.1004971,82.019769,-85.641492)">
      <path
         d="m -84,208 0.5,-4 3,-1 2,-5 -2.5,-2.5 2.5,-4 3.5,-1.5 3,4.5 3,-2.5 4.5,4.5 2.5,-7.5 1.5,1.5 2,-5.5 3,0.5 1,-3.5 2,0 3,-5 1,-1.5 2,-2.5 4.5,-0.5 4,-3.5 7.5,-2.5 2,0 1.5,-3 3,0 11.5,-7.5 10,2.5 4,1 6.5,6 -4,0.5 5.5,4 -2,2 3.5,1.5 4.5,2 4.5,-2.5 6,4.5 4,-0.5 3,1.5 3.5,2 -5,3 6.5,0 2,3.5 2.5,2 -2.5,1.5 3.5,1.5 1,-2.5 3.5,-0.5 2,-2 4,1.5 7.5,5 0,5 1.5,2.5 2.5,0.5 1,2.5 c 0,0 7,9.5 6,6.5 -1,-3 -2.5,3.5 -2.5,3.5 l -3.5,-1.5 -5,-4 -5.5,3.5 c 0,0 0.5,0.5 -1,1.5 -1.5,1 -8,-2.5 -8,-2.5 l -0.5,2 -3.5,-2 -2.5,2 -3,1.5 -6.5,-2.5 -1.5,0 -2.5,2.5 -8,-0.5 -2.5,-1 -8,1 -4.5,-0.5 -3.5,-0.5 -2.5,0 -7,0.5 -9.5,0.5 -4.5,1.5 -2,3.5 -2,0 -1,-3 1,-5 -3,-0.5 -2,0 -1.5,-2.5 -1.5,3 -8.5,0 -6.5,3 1,-4 -6.5,0.5 2,-4 -5.5,2 -2,0.5 -3.5,-0.5 -4.5,2.5 -1.5,3 -4.5,0 -1.5,1 -2,0 -0.5,-2 -3,-1.5 -2,-3.5 z"
         id="path5209"
         style="fill:none;stroke:#000000;stroke-width:1px;stroke-linecap:round;stroke-linejoin:round;stroke-opacity:1;display:inline;filter:url(#filter5247);enable-background:new"
         transform="matrix(0.7929634,0,0,0.8556227,17.780657,2.6748129)" />
      <path
         d="m 2.5,116.5 0.5,-4 3,-1 2,-5 -2.5,-2.5 2.5,-4 3.5,-1.5 3,4.5 3,-2.5 4.5,4.5 2.5,-7.5 1.5,1.5 2,-5.5 3,0.5 1,-3.5 2,0 3,-5 1,-1.5 2,-2.5 4.5,-0.5 4,-3.5 7.5,-2.5 2,0 1.5,-3 3,0 11.5,-7.5 10,2.5 4,1 6.5,6 -4,0.5 5.5,4 -2,2 3.5,1.5 4.5,2 4.5,-2.5 6,4.5 4,-0.5 3,1.5 3.5,2 -5,3 6.5,0 2,3.5 2.5,2 -2.5,1.5 3.5,1.5 1,-2.5 3.5,-0.5 2,-2 4,1.5 7.5,5 0,5 1.5,2.5 2.5,0.5 1,2.5 c 0,0 7,9.5 6,6.5 -1,-3 -2.5,3.5 -2.5,3.5 l -3.5,-1.5 -5,-4 -5.5,3.5 c 0,0 0.5,0.5 -1,1.5 -1.5,1 -8,-2.5 -8,-2.5 l -0.5,2 -3.5,-2 -2.5,2 -3,1.5 -6.5,-2.5 -1.5,0 -2.5,2.5 -8,-0.5 -2.5,-1 -8,1 -4.5,-0.5 -3.5,-0.5 -2.5,0 -7,0.5 -9.5,0.5 -4.5,1.5 -2,3.5 -2,0 -1,-3 1,-5 -3,-0.5 -2,0 -1.5,-2.5 -1.5,3 -8.5,0 -6.5,3 1,-4 -6.5,0.5 2,-4 -5.5,2 -2,0.5 -3.5,-0.5 -4.5,2.5 -1.5,3 -4.5,0 -1.5,1 -2,0 -0.5,-2 -3,-1.5 -2,-3.5 z"
         id="path2892"
         style="fill:url(#linearGradient6801);fill-opacity:1;fill-rule:evenodd;stroke:#e7e7e7;stroke-width:1px;stroke-linecap:round;stroke-linejoin:round;stroke-opacity:1;filter:url(#filter5777)"
         transform="matrix(0.7931584,0,0,0.7931584,-50.826433,84.977973)" />
      <path
         d="m 65,110 -9.5,7 -5,-2 5.5,-4.5 -9.5,3.5 -4.5,-1.5 4.5,-2.5 -9,3.5 -5,-3.5 4.5,-2.5 -3.5,-1.5 3.5,-2.5 -6,-2.5 8.5,-2.5 10,0 4.5,-6.5 6.5,1 5.5,-4 6.5,-1.5 5,-3 5,4 5.5,1 9.5,0 -0.5,2 6.5,0 -16,5 6.5,3 6,4.5 17.5,0.5 1,2.5 -6.5,2 -4.5,4 -5.5,1.5 -4.5,4 -10,1 -6,0 5.5,-10.5 -3.5,-2 -8,1 -10.5,2 z"
         id="path5731"
         style="fill:#ffffff;fill-opacity:1;fill-rule:evenodd;stroke:none;filter:url(#filter5769)"
         transform="matrix(0.7931584,0,0,0.7931584,-50.826433,84.977973)" />
      <path
         d="m 54.798821,103.77362 c 1.412529,0.0151 2.825223,0.013 4.237827,0.0155 1.658281,-0.003 3.316561,-9.4e-4 4.974842,8.9e-4 1.931392,-0.16419 3.862668,-0.31353 5.798685,-0.41289 1.419995,-0.0732 2.841639,-0.0928 4.263232,-0.0951 1.519005,0.0637 3.018599,-0.0539 4.517395,-0.29378 2.317018,-0.27034 4.539961,-1.04232 6.707657,-1.87509 2.151116,-1.05152 4.346105,-2.00385 6.534889,-2.9721 0.997089,-0.47463 1.928412,-1.09307 2.943361,-1.52611 0.897845,-0.3732 1.791356,-0.21776 2.717712,-0.09405 1.229196,0.16155 2.469288,0.20901 3.707419,0.24152 0.89792,0.01917 1.79609,0.01961 2.69417,0.02008 l -1.98329,1.4405 c -0.89733,-0.0021 -1.79476,-0.0052 -2.69181,-0.03023 -1.2443,-0.04048 -2.48996,-0.09824 -3.725603,-0.25789 -0.910658,-0.11111 -1.785699,-0.19867 -2.645974,0.20967 -0.981853,0.47116 -1.921741,1.0291 -2.907384,1.49461 -2.180608,0.96017 -4.362411,1.91465 -6.513899,2.93963 -2.19165,0.82472 -4.429576,1.58345 -6.766307,1.8573 -1.5126,0.23156 -3.026019,0.33643 -4.557081,0.27761 -1.412968,0.01 -2.826228,0.0243 -4.237925,0.0904 -1.939925,0.0957 -3.872599,0.27087 -5.809646,0.40588 -1.659097,0.002 -3.318193,0.004 -4.97729,8.9e-4 -1.426842,0.002 -2.853768,5e-4 -4.280536,0.0155 l 1.999556,-1.45276 z"
         id="path5505"
         style="opacity:0.7;fill:#e4e4e4;fill-opacity:1;fill-rule:nonzero;stroke:#bababa;stroke-width:0.5;stroke-linecap:round;stroke-linejoin:round;stroke-miterlimit:4;stroke-opacity:1;stroke-dasharray:none;stroke-dashoffset:0;marker:none;visibility:visible;display:inline;overflow:visible;filter:url(#filter5727);enable-background:new"
         transform="matrix(0.7931584,0,0,0.7931584,-50.826433,84.977973)" />
      <path
         d="m 108.79882,108.27362 c 1.77696,-0.16951 3.55159,-0.27815 5.31686,-0.54975 1.25425,-0.22223 2.51914,-0.35766 3.79072,-0.41863 0.9849,0.003 1.98453,-0.11694 2.96042,0.0407 0.85355,0.21334 1.72285,0.32189 2.5988,0.38271 0.81888,0.11086 1.55621,0.45164 2.32576,0.72151 0.11795,0.10948 0.27815,0.18641 0.35385,0.32842 0.27307,0.51228 0.39603,1.46289 0.49656,1.99113 0.19243,1.01101 0.3772,2.01679 0.62814,3.01487 0.34387,1.05654 0.74657,1.96122 1.83231,2.35156 0.84445,0.11436 1.66319,0.35043 2.50417,0.4893 0.92044,0.13953 1.82239,-0.0782 2.68225,-0.38789 0.71788,-0.50201 2.32509,-1.1769 -1.15953,0.60921 -0.10823,0.0555 0.19525,-0.14528 0.2887,-0.22312 0.0157,-0.0131 0.51736,-0.46601 0.52941,-0.47689 1.0873,-0.90635 2.44805,-1.49649 3.62676,-2.23769 0.55653,-0.34995 -1.14113,0.65369 -1.72254,0.96053 -0.12943,0.0683 0.2433,-0.16271 0.36495,-0.24406 0.42868,-0.33016 0.21582,-0.16566 0.63859,-0.49346 l 2.28747,-0.91086 c -0.43213,0.31923 -0.21975,0.14956 -0.63614,0.51023 -1.31921,0.84961 -5.04968,2.91269 -1.16038,0.7456 0.27532,-0.1534 -0.54993,0.30939 -0.81173,0.48486 -0.10983,0.0736 -0.20145,0.17129 -0.30218,0.25694 -0.36538,0.30651 -0.1905,0.14269 -0.52394,0.49221 -0.97756,0.86751 -2.20507,1.43515 -3.36067,2.03805 -0.88826,0.29422 -1.8221,0.44256 -2.75517,0.28762 -0.84902,-0.15351 -1.68964,-0.3583 -2.53319,-0.53169 -1.1176,-0.48859 -1.56841,-1.43778 -1.91288,-2.57316 -0.24096,-1.00605 -0.41626,-2.01991 -0.61643,-3.0348 -0.0815,-0.41316 -0.22785,-1.39072 -0.47179,-1.81985 -0.0652,-0.11478 -0.20528,-0.16608 -0.30792,-0.24912 -0.7472,-0.27583 -1.48043,-0.58246 -2.28187,-0.67091 -0.87954,-0.0705 -1.74818,-0.20089 -2.60968,-0.39375 -0.97008,-0.1095 -1.95277,-0.02 -2.92668,-0.008 -1.25732,0.0679 -2.50732,0.21012 -3.74966,0.41734 -1.78768,0.25519 -3.58758,0.36454 -5.38289,0.55376 l 1.99955,-1.45276 z"
         id="path5705"
         style="opacity:0.7;fill:#a5a5a5;fill-opacity:1;fill-rule:nonzero;stroke:#bababa;stroke-width:0.5;stroke-linecap:round;stroke-linejoin:round;stroke-miterlimit:4;stroke-opacity:1;stroke-dasharray:none;stroke-dashoffset:0;marker:none;visibility:visible;display:inline;overflow:visible;filter:url(#filter5719);enable-background:new"
         transform="matrix(0.7931584,0,0,0.7931584,-50.826433,84.977973)" />
      <path
         d="m 61.284065,119.19439 c 1.798458,-0.48133 3.633753,-0.77363 5.408655,-1.34064 2.39493,-0.74651 4.802311,-1.45569 7.246699,-2.022 1.511066,-0.30526 3.055668,-0.60064 4.602306,-0.48205 1.388278,0.24489 2.79284,0.32578 4.198951,0.3818 2.248323,0.0632 4.497891,0.0688 6.74696,0.0691 1.942447,0.004 3.879155,0.0519 5.811413,-0.16447 1.092188,-0.15359 2.103353,-0.57078 3.139902,-0.91969 l -1.931454,1.5023 c -1.03413,0.35447 -2.060754,0.73239 -3.154789,0.86279 -1.928966,0.18839 -3.862443,0.12236 -5.798561,0.12339 -2.255369,-0.006 -4.511156,-8.3e-4 -6.765842,-0.0661 -1.417681,-0.0501 -2.830731,-0.13777 -4.23274,-0.36508 -1.521544,-0.074 -3.035322,0.20369 -4.520482,0.50915 -2.438929,0.56825 -4.840844,1.27933 -7.22911,2.03078 -1.808095,0.54997 -3.669008,0.87422 -5.491951,1.37234 l 1.970043,-1.49161 z"
         id="path5707"
         style="opacity:0.7;fill:#a5a5a5;fill-opacity:1;fill-rule:nonzero;stroke:#bababa;stroke-width:0.5;stroke-linecap:round;stroke-linejoin:round;stroke-miterlimit:4;stroke-opacity:1;stroke-dasharray:none;stroke-dashoffset:0;marker:none;visibility:visible;display:inline;overflow:visible;filter:url(#filter5715);enable-background:new"
         transform="matrix(0.7931584,0,0,0.7931584,-50.826433,84.977973)" />
      <path
         d="m 30.284065,103.69439 c 1.757726,-0.29956 3.511182,-0.64514 5.25781,-1.008 2.427874,-0.41611 4.876536,-0.94559 7.07208,-2.09279 1.444376,-0.72588 2.852254,-1.53773 4.410761,-1.99053 1.023686,-0.24181 2.004618,-0.58531 3.053355,-0.71186 1.589863,-0.04409 3.167999,-0.19548 4.751329,-0.34048 1.940925,-0.22351 3.94549,-0.27229 5.807208,-0.8991 -0.454646,0.24939 -0.885179,0.54895 -1.36394,0.74816 -0.230929,0.09609 0.410176,-0.28646 0.611396,-0.43503 0.726029,-0.53604 1.43963,-1.08803 2.158783,-1.63324 1.440612,-0.91645 2.822367,-2.04975 4.518039,-2.41829 1.237617,-0.13489 2.47536,-0.13959 3.71311,-0.2934 1.12504,-0.11754 2.239996,-0.23463 3.351645,-0.44542 l -1.947222,1.46967 c -1.112415,0.19895 -2.232424,0.29943 -3.354556,0.42844 -1.238652,0.1429 -2.487601,0.12745 -3.71701,0.33378 -0.938927,0.25932 -2.112278,1.02976 0.931189,-0.75764 0.126607,-0.07435 -0.253197,0.14904 -0.375449,0.23035 -0.894994,0.59532 0.148318,-0.03964 -0.848056,0.54975 -1.809329,1.3285 -3.48238,2.80161 -5.585101,3.69942 -1.890728,0.55448 -3.885324,0.64451 -5.836977,0.85754 -1.591706,0.15122 -3.181682,0.27727 -4.776974,0.37293 -1.028829,0.16 -2.008211,0.4933 -3.01924,0.73446 -1.52829,0.48606 -2.924165,1.29083 -4.35659,2.00062 -2.229873,1.08107 -4.670651,1.60782 -7.10046,2.03524 -1.772383,0.3651 -3.546862,0.72261 -5.325173,1.05703 l 1.970043,-1.49161 z"
         id="path5709"
         style="opacity:0.7;fill:#a5a5a5;fill-opacity:1;fill-rule:nonzero;stroke:#bababa;stroke-width:0.5;stroke-linecap:round;stroke-linejoin:round;stroke-miterlimit:4;stroke-opacity:1;stroke-dasharray:none;stroke-dashoffset:0;marker:none;visibility:visible;display:inline;overflow:visible;filter:url(#filter5711);enable-background:new"
         transform="matrix(0.7931584,0,0,0.7931584,-50.826433,84.977973)" />
      <path
         d="m 108,113.5 6.5,-7 3.5,2 4.5,-2.5 5.5,4.5 3,4 -6.5,-1.5 -4,2 -2,-3.5 -10.5,2 z"
         id="path5781"
         style="fill:#ffffff;fill-opacity:1;fill-rule:evenodd;stroke:none;filter:url(#filter6005)"
         transform="matrix(0.7931584,0,0,0.7931584,-50.826433,84.977973)" />
      <path
         d="m 128.5,103 2.5,-2.5 1.5,-2.5 6.5,-0.5 6.5,2.5 1.5,3.5 -1,1.5 5,7.5 4.5,4.5 -5.5,-1.5 -7,-8 -0.5,-4 -5.5,-2 -8.5,1.5 z"
         id="path5851"
         style="fill:#ffffff;fill-opacity:1;fill-rule:evenodd;stroke:none;filter:url(#filter5941)"
         transform="matrix(0.7931584,0,0,0.7931584,-50.826433,84.977973)" />
      <path
         d="m 22.5,107 2.855637,-7.74394 3.665357,-4.17645 5.753821,-2.77724 L 40.5,82 l 5.5,0.5 2.5,-3 7,-2 4.5,-4 3,0.5 10,-8.5 14.5,3 3,3.5 -3.5,2 4.5,3 0,4 7.5,3.5"
         id="path6013"
         sodipodi:nodetypes="ccccccccccccccccc"
         style="fill:none;stroke:#ffffff;stroke-width:2;stroke-linecap:round;stroke-linejoin:miter;stroke-miterlimit:4;stroke-opacity:1;stroke-dasharray:none;filter:url(#filter6051)"
         transform="matrix(0.7931584,0,0,0.7931584,-50.826433,84.977973)" />
      <path
         d="M 4,118.5 16.5,107 11,99 6.5,104.5 9,109 l -5,5 0,4.5 z"
         id="path6055"
         sodipodi:nodetypes="ccccccc"
         style="fill:#ffffff;fill-opacity:1;fill-rule:evenodd;stroke:none;filter:url(#filter6668)"
         transform="matrix(0.7931584,0,0,0.7931584,-50.826433,84.977973)" />
      <path
         d="m 13,114.5 6,-5.5 4,0 5,-5 10,-3 5,1.5 -1,3 -7,-0.5 -6,4.5 -4,5 -4,-1.5 -4.5,4.5 -3.5,-3 z"
         id="path6057"
         style="fill:#c1c1c1;fill-opacity:1;fill-rule:evenodd;stroke:none;filter:url(#filter6107)"
         transform="matrix(0.7931584,0,0,0.7931584,-50.826433,84.977973)" />
      <path
         d="m 73.798821,99.27362 c 1.275965,0.14675 2.526405,0.41282 3.784053,0.66576 1.120217,0.14408 2.221499,0.35401 3.328928,0.57223 0.988235,0.18847 1.994254,0.23212 2.997357,0.25883 0.99761,0.0181 1.995451,0.0139 2.993175,0.0124 1.088039,-0.1248 2.139419,-0.45906 3.176766,-0.80108 1.056933,-0.16746 4.70817,-2.26001 0.874148,-0.12159 1.154496,-0.76763 0.254796,-0.18267 2.883078,-1.64643 0.24792,-0.13807 1.57325,-0.86656 0.813426,-0.41744 -4.42607,2.61621 -1.787896,1.01052 -1.393045,0.76936 7.002283,-3.96883 0.470872,-0.24544 0.697759,-0.38297 0.802857,-0.48667 1.63235,-0.92825 2.438681,-1.40914 0.577228,-0.34426 -2.332472,1.3367 -1.751281,0.99918 2.506769,-1.4558 1.618026,-1.07199 2.901492,-1.59512 0.840068,-0.49436 1.787271,-0.79054 2.723312,-1.05111 0.89801,-0.18779 1.75699,-0.51575 2.59195,-0.88748 0.86566,-0.38466 1.82265,-0.32563 2.73135,-0.50901 0.97687,-0.25733 1.97706,-0.35123 2.98199,-0.40469 1.09793,-0.04696 2.19709,-0.04823 3.2958,-0.04975 0.9031,0.1161 1.78822,0.32994 2.60211,0.74222 0.75585,0.30171 1.42354,0.73568 2.0904,1.19219 0.62968,0.37863 1.26596,0.73805 1.91157,1.09065 0.72641,0.26317 1.42302,0.59251 2.17646,0.77746 0.59565,0.11497 1.1971,0.13573 1.79175,0.25359 l -2.01083,1.407 c -0.60217,-0.09688 -1.21274,-0.12631 -1.80819,-0.26521 -0.76094,-0.20929 -1.48469,-0.53051 -2.21407,-0.82643 -0.64761,-0.36232 -1.29667,-0.71567 -1.92457,-1.11133 -0.65348,-0.45463 -1.32842,-0.85451 -2.06476,-1.16437 -0.79716,-0.37061 -1.65628,-0.57866 -2.53201,-0.65522 -1.09488,0.0016 -2.19042,0.0025 -3.28415,0.05885 -1.00153,0.06616 -1.9923,0.19619 -2.96968,0.43121 -0.91131,0.14143 -1.85414,0.15446 -2.70316,0.56169 -0.83661,0.36713 -1.712457,0.64253 -2.601308,0.85302 -0.933127,0.28142 -1.857775,0.60496 -2.711091,1.08176 -0.134351,0.06255 -0.528955,0.26584 -0.403054,0.18766 0.565078,-0.3509 2.29595,-1.34448 1.722694,-1.00712 -0.81837,0.48162 -1.643754,0.95138 -2.458039,1.43987 -0.5862,0.35167 2.365227,-1.37204 1.773736,-1.02935 -0.813802,0.4715 -1.617134,0.96147 -2.440669,1.41575 -0.590527,0.32575 1.160948,-0.68668 1.741423,-1.03003 -0.992082,0.5907 -1.487206,0.887 -2.822591,1.64968 -0.264512,0.15107 -1.072509,0.57618 -0.81476,0.41384 3.600893,-2.26796 1.839873,-1.11663 1.326082,-0.77874 -1.658698,0.98219 -3.219684,2.01718 -5.093208,2.51411 -1.056023,0.32717 -2.117153,0.68621 -3.229454,0.74634 -0.999253,0.001 -1.998692,0.005 -2.997742,-0.0186 -1.011451,-0.0338 -2.024926,-0.0911 -3.019151,-0.29371 -1.102911,-0.22407 -2.207696,-0.40526 -3.31922,-0.58013 -1.252076,-0.25928 -2.50272,-0.5282 -3.783013,-0.60586 l 1.999556,-1.45276 z"
         id="path6111"
         style="opacity:0.6;fill:#a6a6a6;fill-opacity:1;fill-rule:nonzero;stroke:#bebebe;stroke-width:2;stroke-linecap:round;stroke-linejoin:round;stroke-miterlimit:4;stroke-opacity:1;stroke-dasharray:none;stroke-dashoffset:0;marker:none;visibility:visible;display:inline;overflow:visible;filter:url(#filter6157);enable-background:new"
         transform="matrix(0.7931584,0,0,0.7931584,-50.826433,84.977973)" />
      <path
         d="m 129,109 2,-5.5 -14,0.5 12,5 z"
         id="path6161"
         style="opacity:0.8;fill:#bebebe;fill-opacity:1;fill-rule:evenodd;stroke:none;filter:url(#filter6503)"
         transform="matrix(0.7931584,0,0,0.7931584,-50.826433,84.977973)" />
      <path
         d="m 95,118.5 10,-3.5 5,0.5 0,-3 11,0 1.5,3.5 -1.5,2.5 -9.5,-0.5 -4,2.5 -12.5,-2 z"
         id="path6507"
         style="fill:#c8c8c8;fill-opacity:1;fill-rule:evenodd;stroke:none;filter:url(#filter6537)"
         transform="matrix(0.7931584,0,0,0.7931584,-50.826433,84.977973)" />
      <path
         d="m -21.389977,182.90649 5.3033,-2.12132 8.1317273,-1.06066 4.596195,1.06066 -0.707107,4.59619 0.707107,1.76777 4.596194,-3.53553 10.2530487,-1.06066 3.889087,-0.70711 2.828426,1.06066 3.889088,-0.35355 6.717514,-0.70711 3.181981,1.76777 6.363962,-1.41422 4.949747,-0.7071 3.181981,2.82842 4.59619,-1.06066"
         id="path6672"
         style="fill:none;stroke:#939393;stroke-width:1px;stroke-linecap:butt;stroke-linejoin:miter;stroke-opacity:1;display:inline;filter:url(#filter6726);enable-background:new" />
    </g>
    <g
       id="g6828"
       style="display:inline;enable-background:new"
       transform="matrix(-0.3678811,0,0,0.4048521,162.87806,-28.510427)" />
    <g
       id="g6884"
       style="display:inline;enable-background:new"
       transform="matrix(-0.2439212,0,0,0.3266366,153.23437,24.466747)" />
    <g
       id="g6978" />
    <g
       id="g6995"
       style="display:inline;enable-background:new"
       transform="matrix(0.7443235,0,0,0.7443235,33.328767,49.12595)" />
  </g>
</svg>
