<?xml version="1.0" encoding="UTF-8" standalone="no"?>
<!-- Created with Inkscape (http://www.inkscape.org/) -->

<svg
   xmlns:dc="http://purl.org/dc/elements/1.1/"
   xmlns:cc="http://creativecommons.org/ns#"
   xmlns:rdf="http://www.w3.org/1999/02/22-rdf-syntax-ns#"
   xmlns:svg="http://www.w3.org/2000/svg"
   xmlns="http://www.w3.org/2000/svg"
   xmlns:xlink="http://www.w3.org/1999/xlink"
   xmlns:sodipodi="http://sodipodi.sourceforge.net/DTD/sodipodi-0.dtd"
   xmlns:inkscape="http://www.inkscape.org/namespaces/inkscape"
   height="128"
   id="svg11300"
   inkscape:export-filename="/home/mma/BZR-WORK/breathe-icon-set/source_svg/rendered/computer.png"
   inkscape:export-xdpi="90.000000"
   inkscape:export-ydpi="90.000000"
   inkscape:output_extension="org.inkscape.output.svg.inkscape"
   inkscape:version="0.46+devel r21673"
   sodipodi:docname="drive-removable-media-usb-pendrive.svg"
   sodipodi:version="0.32"
   style="display:inline;enable-background:new"
   version="1.0"
   width="128">
  <title
     id="title4119">Breathe Icon Theme computer</title>
  <defs
     id="defs3">
    <linearGradient
       id="linearGradient10861">
      <stop
         id="stop10863"
         offset="0"
         style="stop-color:#ffffff;stop-opacity:0;" />
      <stop
         id="stop10869"
         offset="0.5"
         style="stop-color:#ffffff;stop-opacity:1;" />
      <stop
         id="stop10865"
         offset="1"
         style="stop-color:#ffffff;stop-opacity:0;" />
    </linearGradient>
    <linearGradient
       id="linearGradient3419"
       inkscape:collect="always">
      <stop
         id="stop3421"
         offset="0"
         style="stop-color:#ffffff;stop-opacity:1;" />
      <stop
         id="stop3423"
         offset="1"
         style="stop-color:#000000;stop-opacity:1" />
    </linearGradient>
    <filter
       color-interpolation-filters="sRGB"
       height="2.1275797"
       id="filter3401"
       inkscape:collect="always"
       width="1.076911"
       x="-0.038455524"
       y="-0.56378984">
      <feGaussianBlur
         id="feGaussianBlur3403"
         inkscape:collect="always"
         stdDeviation="0.87081424" />
    </filter>
    <filter
       color-interpolation-filters="sRGB"
       height="1.0600857"
       id="filter3367"
       inkscape:collect="always"
       width="1.2386409"
       x="-0.11932043"
       y="-0.030042777">
      <feGaussianBlur
         id="feGaussianBlur3369"
         inkscape:collect="always"
         stdDeviation="2.5913697" />
    </filter>
    <linearGradient
       id="linearGradient3405">
      <stop
         id="stop3407"
         offset="0"
         style="stop-color:#ffffff;stop-opacity:1;" />
      <stop
         id="stop3413"
         offset="0.12184989"
         style="stop-color:#cccccc;stop-opacity:1;" />
      <stop
         id="stop3415"
         offset="0.88975114"
         style="stop-color:#e6e6e6;stop-opacity:1" />
      <stop
         id="stop3409"
         offset="1"
         style="stop-color:#ffffff;stop-opacity:1;" />
    </linearGradient>
    <filter
       color-interpolation-filters="sRGB"
       height="1.6719989"
       id="filter11255"
       inkscape:collect="always"
       width="1.1524121"
       x="-0.076206058"
       y="-0.33599943">
      <feGaussianBlur
         id="feGaussianBlur11257"
         inkscape:collect="always"
         stdDeviation="0.76999871" />
    </filter>
    <filter
       color-interpolation-filters="sRGB"
       id="filter11378"
       inkscape:collect="always">
      <feGaussianBlur
         id="feGaussianBlur11380"
         inkscape:collect="always"
         stdDeviation="0.53637347" />
    </filter>
    <filter
       color-interpolation-filters="sRGB"
       id="filter11521"
       inkscape:collect="always">
      <feGaussianBlur
         id="feGaussianBlur11523"
         inkscape:collect="always"
         stdDeviation="1.2238548" />
    </filter>
    <linearGradient
       gradientTransform="matrix(0.5021962,0,0,0.5021962,4.9093316,3.9845672)"
       gradientUnits="userSpaceOnUse"
       id="linearGradient11541"
       inkscape:collect="always"
       x1="103.23127"
       x2="144.04526"
       xlink:href="#linearGradient3405"
       y1="23.653997"
       y2="23.653997" />
    <linearGradient
       gradientTransform="matrix(0.5021962,0,0,0.5021962,4.9093316,3.3948321)"
       gradientUnits="userSpaceOnUse"
       id="linearGradient11543"
       inkscape:collect="always"
       x1="107.6367"
       x2="116.82464"
       xlink:href="#linearGradient3419"
       y1="20.737617"
       y2="28.919004" />
    <linearGradient
       gradientTransform="matrix(0.5021962,0,0,0.5021962,15.957647,3.3948321)"
       gradientUnits="userSpaceOnUse"
       id="linearGradient11545"
       inkscape:collect="always"
       x1="107.6367"
       x2="116.82464"
       xlink:href="#linearGradient3419"
       y1="20.737616"
       y2="28.919004" />
    <linearGradient
       gradientUnits="userSpaceOnUse"
       id="linearGradient11547"
       inkscape:collect="always"
       x1="97.835701"
       x2="169.72261"
       xlink:href="#linearGradient10861"
       y1="54.201542"
       y2="54.201542" />
  </defs>
  <sodipodi:namedview
     bordercolor="#666666"
     borderopacity="0.25490196"
     fill="#f57900"
     gridtolerance="12"
     guidetolerance="13"
     height="300px"
     id="base"
     inkscape:current-layer="layer6"
     inkscape:cx="-139.50361"
     inkscape:cy="22.734379"
     inkscape:document-units="px"
     inkscape:grid-bbox="true"
     inkscape:guide-bbox="true"
     inkscape:pageopacity="0.0"
     inkscape:pageshadow="2"
     inkscape:showpageshadow="false"
     inkscape:snap-bbox="true"
     inkscape:snap-nodes="false"
     inkscape:window-height="691"
     inkscape:window-maximized="0"
     inkscape:window-width="1254"
     inkscape:window-x="8"
     inkscape:window-y="25"
     inkscape:zoom="1"
     objecttolerance="7"
     pagecolor="#ffffff"
     showgrid="false"
     showguides="true"
     stroke="#ef2929"
     width="400px">
    <inkscape:grid
       empspacing="5"
       enabled="true"
       id="grid5883"
       spacingx="1px"
       spacingy="1px"
       type="xygrid"
       visible="true" />
  </sodipodi:namedview>
  <metadata
     id="metadata4">
    <rdf:RDF>
      <cc:Work
         rdf:about="">
        <dc:format>image/svg+xml</dc:format>
        <dc:type
           rdf:resource="http://purl.org/dc/dcmitype/StillImage" />
        <dc:creator>
          <cc:Agent>
            <dc:title>Breathe Icon Team</dc:title>
          </cc:Agent>
        </dc:creator>
        <dc:source />
        <cc:license
           rdf:resource="http://creativecommons.org/licenses/by-sa/3.0/" />
        <dc:title>Breathe Icon Theme template</dc:title>
        <dc:subject>
          <rdf:Bag />
        </dc:subject>
        <dc:date />
        <dc:rights>
          <cc:Agent>
            <dc:title />
          </cc:Agent>
        </dc:rights>
        <dc:publisher>
          <cc:Agent>
            <dc:title />
          </cc:Agent>
        </dc:publisher>
        <dc:identifier />
        <dc:relation />
        <dc:language />
        <dc:coverage />
        <dc:description>template</dc:description>
        <dc:contributor>
          <cc:Agent>
            <dc:title>Jakub Steiner, Cory Kontros, Oxygen icon team</dc:title>
          </cc:Agent>
        </dc:contributor>
      </cc:Work>
      <cc:License
         rdf:about="http://creativecommons.org/licenses/by-sa/3.0/">
        <cc:permits
           rdf:resource="http://creativecommons.org/ns#Reproduction" />
        <cc:permits
           rdf:resource="http://creativecommons.org/ns#Distribution" />
        <cc:requires
           rdf:resource="http://creativecommons.org/ns#Notice" />
        <cc:requires
           rdf:resource="http://creativecommons.org/ns#Attribution" />
        <cc:prohibits
           rdf:resource="http://creativecommons.org/ns#CommercialUse" />
        <cc:permits
           rdf:resource="http://creativecommons.org/ns#DerivativeWorks" />
        <cc:requires
           rdf:resource="http://creativecommons.org/ns#ShareAlike" />
      </cc:License>
    </rdf:RDF>
  </metadata>
  <g
     id="layer1"
     inkscape:groupmode="layer"
     inkscape:label="devices/drive-removable-media-usb-pendrive"
     sodipodi:insensitive="true"
     style="display:inline"
     transform="translate(-3,-4)">
    <rect
       height="256"
       id="256x256"
       inkscape:label="256x256"
       style="fill:#eeeeec;fill-opacity:1;fill-rule:nonzero;stroke:none;stroke-width:5;marker:none;visibility:visible;display:none;overflow:visible;enable-background:accumulate"
       width="256"
       x="26.5"
       y="32.823101" />
    <rect
       height="48"
       id="48x48"
       inkscape:label="48x48"
       style="fill:#eeeeec;fill-opacity:1;fill-rule:nonzero;stroke:none;stroke-width:5;marker:none;visibility:visible;display:none;overflow:visible;enable-background:accumulate"
       width="48"
       x="-35.5"
       y="32.823101" />
    <text
       id="text6091"
       sodipodi:linespacing="125%"
       style="font-size:56.11526489px;font-style:normal;font-variant:normal;font-weight:bold;font-stretch:normal;text-indent:0;text-align:start;text-decoration:none;line-height:125%;letter-spacing:normal;word-spacing:normal;text-transform:none;direction:ltr;block-progression:tb;writing-mode:lr-tb;text-anchor:start;fill:#2e3436;fill-opacity:1;fill-rule:nonzero;stroke:none;stroke-width:5;marker:none;visibility:visible;display:none;overflow:visible;enable-background:accumulate;font-family:Myriad"
       x="-418.41196"
       xml:space="preserve"
       y="34.084831"><tspan
         id="tspan6093"
         sodipodi:role="line"
         x="-418.41196"
         y="34.084831">audio-x-generic</tspan></text>
    <g
       id="layer6"
       inkscape:groupmode="layer"
       inkscape:label="plate"
       sodipodi:insensitive="true"
       style="display:none">
      <text
         id="text10799"
         style="font-size:12px;font-style:normal;font-variant:normal;font-weight:normal;font-stretch:normal;fill:#000000;fill-opacity:1;stroke:none;font-family:DejaVu Sans;-inkscape-font-specification:DejaVu Sans"
         x="8.75"
         xml:space="preserve"
         y="77.25"><tspan
           id="tspan10801"
           sodipodi:role="line"
           x="8.75"
           y="77.25" /></text>
    </g>
    <g
       id="Livello_1"
       transform="translate(387.11439,42.495045)" />
    <g
       id="g3290"
       transform="translate(443.11439,59.884345)" />
    <g
       id="g7148"
       transform="matrix(0.1956571,0,0,0.1956571,345.26471,19.402885)" />
    <g
       id="g7555"
       transform="matrix(0.1333333,0,0,0.1333333,319.90372,105.99052)" />
    <g
       id="g9283"
       transform="matrix(1.0666666,0,0,1.0666666,384.44667,40.470571)" />
    <g
       id="g11525"
       transform="matrix(0.9960317,0,0,0.9960317,0.2658761,0.2698444)">
      <path
         d="m 56.75,5.90625 0,20.71875 20.5,0 0,-20.71875 -20.5,0 z M 53.125,26.75 l 0,5.84375 c -2.182176,0.704115 -3.75,2.647027 -3.75,4.9375 -1.525623,29.024434 -1.161328,58.038056 0,87.0625 0,2.88906 2.480322,5.21875 5.5625,5.21875 l 24.125,0 c 3.082176,0 5.562502,-2.32969 5.5625,-5.21875 1.16133,-29.024441 1.525623,-58.038065 0,-87.0625 0,-2.290474 -1.567823,-4.233385 -3.75,-4.9375 l 0,-5.84375 -27.75,0 z"
         id="rect11400"
         style="fill:none;stroke:#000000;stroke-width:1;stroke-linecap:round;stroke-linejoin:miter;stroke-miterlimit:4;stroke-opacity:1;stroke-dasharray:none;stroke-dashoffset:1.26169998;filter:url(#filter11521)"
         transform="matrix(1.0087144,0,0,1.0087144,-0.5838652,-0.4480951)" />
      <g
         id="g11382"
         transform="matrix(1.0087144,0,0,1.0087144,-0.5838652,-0.4480951)">
        <g
           id="g10849"
           transform="translate(0,0.4000002)">
          <rect
             height="20.724972"
             id="rect3273"
             ry="0"
             style="fill:url(#linearGradient11541);fill-opacity:1;stroke:#666666;stroke-width:1;stroke-linecap:round;stroke-linejoin:miter;stroke-miterlimit:4;stroke-opacity:1;stroke-dasharray:none;stroke-dashoffset:1.26169998"
             width="20.496632"
             x="56.751686"
             y="5.5010281" />
          <rect
             height="3.7069056"
             id="rect3417"
             style="fill:#000000;fill-opacity:1;stroke:url(#linearGradient11543);stroke-width:0.50199997;stroke-linecap:round;stroke-linejoin:miter;stroke-miterlimit:4;stroke-opacity:1;stroke-dasharray:none;stroke-dashoffset:1.26169998"
             width="4.2123928"
             x="59.164951"
             y="14.010063" />
          <rect
             height="3.7069056"
             id="rect3427"
             style="fill:#000000;fill-opacity:1;stroke:url(#linearGradient11545);stroke-width:0.50199997;stroke-linecap:round;stroke-linejoin:miter;stroke-miterlimit:4;stroke-opacity:1;stroke-dasharray:none;stroke-dashoffset:1.26169998"
             width="4.2123928"
             x="70.213264"
             y="14.010063" />
          <path
             d="m 66.75,5.5501501 0,4.7499999 -2.25,0 0,3 2.25,0 0,9.75 -2.241025,0.03349 0,1.716506"
             id="path10835"
             sodipodi:nodetypes="cccccccc"
             style="fill:none;stroke:#666666;stroke-width:0.30000001;stroke-linecap:butt;stroke-linejoin:miter;stroke-miterlimit:4;stroke-opacity:1;stroke-dasharray:none" />
        </g>
        <rect
           height="8.977252"
           id="rect10847"
           style="fill:#5b5b5b;fill-opacity:1;fill-rule:evenodd;stroke:#2a2a2a;stroke-width:1;stroke-linecap:round;stroke-linejoin:miter;stroke-miterlimit:4;stroke-opacity:1;stroke-dasharray:none;stroke-dashoffset:0;marker:none;visibility:visible;display:inline;overflow:visible;enable-background:accumulate"
           width="27.727251"
           x="53.136375"
           y="26.761374" />
        <path
           d="m 54.875,28.5 0,5.5 24.25,0 0,-5.5 -24.25,0 z"
           id="path10873"
           inkscape:original="M 53.125 26.75 L 53.125 35.75 L 80.875 35.75 L 80.875 26.75 L 53.125 26.75 z "
           inkscape:radius="-1.75"
           sodipodi:type="inkscape:offset"
           style="opacity:0.4;fill:#ffffff;fill-opacity:1;fill-rule:evenodd;stroke:none;stroke-width:1;marker:none;visibility:visible;display:inline;overflow:visible;filter:url(#filter11255);enable-background:accumulate"
           transform="matrix(0.9587629,0,0,1.2727273,2.7628862,-9.2727273)" />
        <path
           d="m 54.945776,32.304937 c 7.106942,-1.858416 15.00354,-2.137517 24.108448,0 3.082176,0 5.563492,2.325852 5.563492,5.214916 1.525621,29.024434 1.16133,58.048866 0,87.073307 0,2.88906 -2.481316,5.21491 -5.563492,5.21491 l -24.108448,0 c -3.082176,0 -5.56349,-2.32585 -5.56349,-5.21491 -1.161328,-29.024441 -1.525623,-58.048873 0,-87.073307 0,-2.889064 2.481314,-5.214916 5.56349,-5.214916 z"
           id="rect3270"
           sodipodi:nodetypes="ccccccccc"
           style="fill:#424242;fill-opacity:1;stroke:#2a2a2a;stroke-width:0.96943247;stroke-linecap:round;stroke-linejoin:round;stroke-miterlimit:4;stroke-opacity:1;stroke-dasharray:none;stroke-dashoffset:1.26169998" />
        <path
           d="m 106.77567,44.288334 33.72519,0 c 4.31164,0 7.78274,4.938149 7.78274,11.072083 2.13418,61.623413 1.62458,123.246823 0,184.870233 0,6.13394 -3.4711,11.07209 -7.78274,11.07209 l -33.72519,0 c -4.31163,0 -7.78273,-4.93815 -7.78273,-11.07209 -1.624575,-61.62341 -2.134186,-123.24682 0,-184.870233 0,-6.133934 3.4711,-11.072083 7.78273,-11.072083 z"
           id="path3293"
           sodipodi:nodetypes="ccccccccc"
           style="opacity:0.35;fill:#ffffff;fill-opacity:1;stroke:none;filter:url(#filter3367)"
           transform="matrix(0.5614709,0,0,0.4709969,-2.4192856,11.44527)" />
        <path
           d="m 109.3444,55.414727 c 18.34726,-4.939997 36.38612,-3.411672 53.34731,0.671036"
           id="path3371"
           sodipodi:nodetypes="cc"
           style="opacity:0.5;fill:none;stroke:url(#linearGradient11547);stroke-width:4.11113787;stroke-linecap:butt;stroke-linejoin:miter;stroke-miterlimit:4;stroke-opacity:1;stroke-dasharray:none;filter:url(#filter3401)"
           transform="matrix(0.5024789,0,0,0.4709969,-0.8404247,7.6007795)" />
        <path
           d="m 52.261589,-72.251955 3.238956,0 c 0.696218,1.1e-5 1.306675,0.05046 1.831372,0.151353 0.524683,0.09587 0.963607,0.254789 1.316771,0.476762 0.353149,0.21695 0.618017,0.504521 0.794604,0.862713 0.181615,0.353166 0.272427,0.789567 0.272435,1.309204 -8e-6,0.312804 -0.03785,0.60542 -0.113514,0.877848 -0.07569,0.272442 -0.186678,0.512085 -0.332977,0.718927 -0.146316,0.206855 -0.325417,0.380911 -0.537303,0.522168 -0.206857,0.136224 -0.446499,0.227035 -0.718928,0.272435 l 0,0.07568 c 0.277474,0.06055 0.534774,0.148836 0.771901,0.264868 0.242157,0.110998 0.451528,0.267396 0.628115,0.469194 0.181615,0.196764 0.322878,0.446497 0.423789,0.749198 0.105938,0.30271 0.158912,0.671002 0.158921,1.104877 -9e-6,0.504513 -0.0883,0.95605 -0.264868,1.35461 -0.176587,0.39352 -0.431365,0.729019 -0.764333,1.006498 -0.32794,0.272436 -0.729025,0.481808 -1.203257,0.628116 -0.469201,0.146308 -1.001459,0.219461 -1.596775,0.219461 l -3.904909,0 0,-11.063909 m 2.345972,4.381672 1.218393,0 c 0.29261,6e-6 0.537298,-0.02522 0.734062,-0.07568 0.196753,-0.05549 0.355674,-0.136211 0.476762,-0.242165 0.121076,-0.10594 0.206843,-0.237112 0.2573,-0.393518 0.05549,-0.161436 0.08324,-0.348104 0.08324,-0.560006 -7e-6,-0.42378 -0.133702,-0.726486 -0.401086,-0.908119 -0.262351,-0.186659 -0.681094,-0.279994 -1.256231,-0.280003 l -1.112445,0 0,2.459488 m 0,1.861642 0,2.883276 1.377313,0 c 0.307746,2e-6 0.565046,-0.03531 0.771901,-0.105947 0.211888,-0.07063 0.380899,-0.171531 0.507033,-0.302706 0.131166,-0.13117 0.2245,-0.290091 0.280003,-0.476762 0.05549,-0.186666 0.08324,-0.393515 0.08324,-0.620548 -7e-6,-0.206845 -0.02775,-0.393514 -0.08324,-0.560006 -0.0555,-0.171529 -0.15136,-0.317837 -0.287571,-0.438924 -0.131179,-0.121078 -0.305235,-0.214412 -0.522168,-0.280003 -0.216945,-0.06558 -0.486858,-0.09837 -0.809739,-0.09838 l -1.316772,0 m 11.835811,-3.798962 c 0.06054,9e-6 0.126122,0.0025 0.196759,0.0076 0.07567,9e-6 0.146302,0.0051 0.211894,0.01514 0.07063,0.0051 0.133689,0.01262 0.189191,0.0227 0.06053,0.0051 0.105941,0.01262 0.136218,0.0227 l 0,2.164349 c -0.04037,-0.01008 -0.09586,-0.02017 -0.166488,-0.03027 -0.07064,-0.01008 -0.146314,-0.01765 -0.22703,-0.0227 -0.07568,-0.01008 -0.151359,-0.01513 -0.227029,-0.01514 -0.07568,-0.005 -0.138746,-0.0076 -0.189192,-0.0076 -0.297666,7e-6 -0.572624,0.03785 -0.824874,0.113515 -0.247214,0.07568 -0.461631,0.199288 -0.643251,0.370815 -0.176582,0.166494 -0.315322,0.388479 -0.41622,0.665954 -0.09586,0.27244 -0.143789,0.607939 -0.143786,1.006498 l 0,4.305994 -2.308134,0 0,-8.460636 1.748128,0 0.340544,1.271366 0.113515,0 c 0.121079,-0.216932 0.252251,-0.413691 0.393518,-0.590277 0.141259,-0.176571 0.297657,-0.325401 0.469194,-0.446492 0.176575,-0.126119 0.373333,-0.221976 0.590277,-0.287571 0.22198,-0.07062 0.474235,-0.105938 0.756766,-0.105947 m 5.73628,1.642181 c -0.408657,7e-6 -0.749201,0.143792 -1.021633,0.431356 -0.267394,0.287577 -0.421269,0.739114 -0.461627,1.35461 l 2.943817,0 c -0.0051,-0.257295 -0.03784,-0.494414 -0.09838,-0.711359 -0.06055,-0.216933 -0.151359,-0.403602 -0.272436,-0.560007 -0.121088,-0.161436 -0.272441,-0.287564 -0.454059,-0.378382 -0.181629,-0.09081 -0.393523,-0.136211 -0.635683,-0.136218 m 0.295139,7.12873 c -0.605417,-1e-6 -1.1629,-0.08829 -1.672452,-0.264868 -0.509558,-0.176579 -0.948481,-0.441446 -1.316771,-0.794604 -0.368294,-0.358201 -0.655865,-0.807215 -0.862713,-1.347042 -0.201805,-0.544868 -0.302707,-1.183073 -0.302706,-1.914617 -10e-7,-0.741625 0.09333,-1.38992 0.280003,-1.944886 0.186668,-0.554955 0.44649,-1.016581 0.779468,-1.384881 0.33802,-0.37333 0.741628,-0.653333 1.210825,-0.84001 0.474236,-0.18666 0.998926,-0.279994 1.574072,-0.280003 0.560001,9e-6 1.064511,0.08578 1.513531,0.2573 0.454052,0.166497 0.83748,0.413707 1.150283,0.74163 0.317834,0.327939 0.559998,0.731547 0.726495,1.210825 0.171525,0.474246 0.257292,1.019116 0.2573,1.634613 l 0,1.120013 -5.16114,0 c 0.01009,0.32289 0.06054,0.615505 0.151353,0.877848 0.09585,0.257302 0.227026,0.476764 0.393518,0.658386 0.17153,0.17658 0.375856,0.312798 0.61298,0.408653 0.242161,0.09586 0.517118,0.143787 0.824874,0.143785 0.257295,2e-6 0.49946,-0.01261 0.726495,-0.03784 0.232069,-0.03027 0.456576,-0.07315 0.673521,-0.12865 0.216933,-0.05549 0.43135,-0.123603 0.643251,-0.204327 0.211887,-0.08576 0.428826,-0.184144 0.650818,-0.295138 l 0,1.785966 c -0.201812,0.105947 -0.406138,0.196759 -0.61298,0.272435 -0.201811,0.07063 -0.416228,0.131173 -0.64325,0.181624 -0.227036,0.05045 -0.471724,0.08577 -0.734063,0.105947 -0.262351,0.02523 -0.549921,0.03784 -0.862712,0.03784 m 10.201197,-0.151354 -0.446491,-1.150283 -0.06811,0 c -0.166494,0.227031 -0.332982,0.423789 -0.499465,0.590277 -0.166494,0.161444 -0.348117,0.295139 -0.544871,0.401086 -0.196764,0.105947 -0.418748,0.184146 -0.665954,0.234597 -0.242168,0.05045 -0.524694,0.07568 -0.847577,0.07568 -0.34307,-10e-7 -0.660911,-0.05297 -0.953524,-0.158921 -0.292618,-0.110992 -0.547395,-0.274958 -0.764333,-0.491898 -0.211896,-0.221983 -0.378384,-0.499464 -0.499465,-0.832442 -0.121084,-0.33802 -0.181625,-0.736582 -0.181624,-1.195689 -10e-7,-0.898025 0.28757,-1.558932 0.862712,-1.982725 0.57514,-0.428829 1.435329,-0.665948 2.58057,-0.711359 l 1.347043,-0.04541 0,-0.635683 c -6e-6,-0.348106 -0.100908,-0.605406 -0.302707,-0.771901 -0.201809,-0.166481 -0.484334,-0.249725 -0.847577,-0.249732 -0.363251,7e-6 -0.71893,0.05298 -1.067039,0.15892 -0.34307,0.105954 -0.688659,0.247217 -1.036768,0.423789 l -0.749198,-1.528666 c 0.423787,-0.237112 0.892981,-0.42378 1.407583,-0.560006 0.514597,-0.13621 1.054423,-0.204318 1.619478,-0.204327 1.054421,9e-6 1.861637,0.247218 2.421649,0.74163 0.565044,0.494427 0.84757,1.246147 0.847578,2.255161 l 0,5.637901 -1.611911,0 m -0.681088,-3.920044 -0.764333,0.03027 c -0.307756,0.01009 -0.567579,0.05045 -0.779469,0.121082 -0.211898,0.07064 -0.383431,0.166492 -0.5146,0.287571 -0.126131,0.116041 -0.219465,0.257303 -0.280003,0.423789 -0.0555,0.161446 -0.08325,0.343069 -0.08325,0.544871 -3e-6,0.353159 0.08576,0.605414 0.257301,0.756765 0.17153,0.146309 0.396037,0.219463 0.673521,0.219462 0.21189,10e-7 0.408649,-0.03531 0.590277,-0.105947 0.181619,-0.07567 0.338017,-0.184145 0.469194,-0.325409 0.136213,-0.146306 0.24216,-0.322885 0.317842,-0.529736 0.07567,-0.211892 0.113509,-0.454056 0.113515,-0.726495 l 0,-0.696224 m 8.104955,2.232458 c 0.227025,10e-7 0.441441,-0.02522 0.64325,-0.07568 0.206844,-0.05045 0.416216,-0.113513 0.628116,-0.189191 l 0,1.717857 c -0.216945,0.110993 -0.486858,0.201804 -0.809739,0.272436 -0.317846,0.07568 -0.665958,0.113514 -1.044336,0.113515 -0.368297,-10e-7 -0.711363,-0.04288 -1.029201,-0.128651 -0.317844,-0.08577 -0.592802,-0.234597 -0.824874,-0.446491 -0.232077,-0.216939 -0.416223,-0.504509 -0.552439,-0.862713 -0.131174,-0.363245 -0.196761,-0.817304 -0.196759,-1.362177 l 0,-4.078965 -1.104878,0 0,-0.976228 1.271366,-0.7719 0.665954,-1.785967 1.475692,0 0,1.801102 2.058402,0 0,1.732993 -2.058402,0 0,4.078965 c -4e-6,0.327934 0.08072,0.570098 0.242165,0.726495 0.161439,0.156399 0.373333,0.234598 0.635683,0.234597 m 10.322277,1.687586 -2.308132,0 0,-4.941677 c -7e-6,-0.610452 -0.09586,-1.067033 -0.287571,-1.369745 -0.186675,-0.307745 -0.476768,-0.461621 -0.87028,-0.461627 -0.297666,6e-6 -0.547398,0.06055 -0.749198,0.181623 -0.201808,0.121089 -0.363251,0.30019 -0.48433,0.537304 -0.121086,0.237125 -0.206853,0.529741 -0.2573,0.877848 -0.05045,0.348116 -0.07568,0.746679 -0.07568,1.195689 l 0,3.980585 -2.308134,0 0,-11.775268 2.308134,0 0,2.398946 c -3e-6,0.211903 -0.005,0.43641 -0.01514,0.673521 -0.01009,0.232083 -0.02271,0.4465 -0.03784,0.643251 -0.02018,0.232082 -0.03784,0.459112 -0.05297,0.681088 l 0.121083,0 c 0.247206,-0.438916 0.562525,-0.754234 0.945956,-0.945956 0.383423,-0.196751 0.817302,-0.29513 1.301637,-0.295139 0.418737,9e-6 0.797119,0.06055 1.135148,0.181624 0.34306,0.116046 0.635675,0.300192 0.877848,0.552439 0.242156,0.252262 0.428819,0.575149 0.559999,0.968659 0.13117,0.38848 0.19676,0.855151 0.19676,1.400016 l 0,5.516819 m 5.79683,-6.977376 c -0.40866,7e-6 -0.7492,0.143792 -1.02163,0.431356 -0.2674,0.287577 -0.42127,0.739114 -0.46163,1.35461 l 2.94382,0 c -0.005,-0.257295 -0.0378,-0.494414 -0.0984,-0.711359 -0.0606,-0.216933 -0.15136,-0.403602 -0.27244,-0.560007 -0.12109,-0.161436 -0.27244,-0.287564 -0.45406,-0.378382 -0.18163,-0.09081 -0.39352,-0.136211 -0.63568,-0.136218 m 0.29514,7.12873 c -0.60542,-10e-7 -1.1629,-0.08829 -1.67245,-0.264868 -0.50956,-0.176579 -0.94849,-0.441446 -1.31678,-0.794604 -0.36829,-0.358201 -0.65586,-0.807215 -0.86271,-1.347042 -0.2018,-0.544868 -0.30271,-1.183073 -0.3027,-1.914617 -1e-5,-0.741625 0.0933,-1.38992 0.28,-1.944886 0.18667,-0.554955 0.44649,-1.016581 0.77947,-1.384881 0.33802,-0.37333 0.74162,-0.653333 1.21082,-0.84001 0.47424,-0.18666 0.99893,-0.279994 1.57407,-0.280003 0.56,9e-6 1.06451,0.08578 1.51353,0.2573 0.45406,0.166497 0.83748,0.413707 1.15029,0.74163 0.31783,0.327939 0.56,0.731547 0.72649,1.210825 0.17153,0.474246 0.25729,1.019116 0.2573,1.634613 l 0,1.120013 -5.16114,0 c 0.0101,0.32289 0.0605,0.615505 0.15136,0.877848 0.0958,0.257302 0.22702,0.476764 0.39351,0.658386 0.17153,0.17658 0.37586,0.312798 0.61298,0.408653 0.24216,0.09586 0.51712,0.143787 0.82488,0.143785 0.25729,2e-6 0.49946,-0.01261 0.72649,-0.03784 0.23207,-0.03027 0.45658,-0.07315 0.67352,-0.12865 0.21694,-0.05549 0.43135,-0.123603 0.64325,-0.204327 0.21189,-0.08576 0.42883,-0.184144 0.65082,-0.295138 l 0,1.785966 c -0.20181,0.105947 -0.40614,0.196759 -0.61298,0.272435 -0.20181,0.07063 -0.41622,0.131173 -0.64325,0.181624 -0.22703,0.05045 -0.47172,0.08577 -0.73406,0.105947 -0.26235,0.02523 -0.54992,0.03784 -0.86271,0.03784"
           id="path11364"
           style="font-size:15.49855423px;font-style:normal;font-variant:normal;font-weight:normal;font-stretch:normal;fill:#afafaf;fill-opacity:1;stroke:#bfbfbf;stroke-width:1px;stroke-linecap:butt;stroke-linejoin:miter;stroke-opacity:1;display:inline;filter:url(#filter11378);enable-background:new;font-family:DejaVu Sans;-inkscape-font-specification:DejaVu Sans"
           transform="matrix(0,1,-1,0,0,0)" />
        <path
           d="m 52.261589,-72.251955 3.238956,0 c 0.696218,1.1e-5 1.306675,0.05046 1.831372,0.151353 0.524683,0.09587 0.963607,0.254789 1.316771,0.476762 0.353149,0.21695 0.618017,0.504521 0.794604,0.862713 0.181615,0.353166 0.272427,0.789567 0.272435,1.309204 -8e-6,0.312804 -0.03785,0.60542 -0.113514,0.877848 -0.07569,0.272442 -0.186678,0.512085 -0.332977,0.718927 -0.146316,0.206855 -0.325417,0.380911 -0.537303,0.522168 -0.206857,0.136224 -0.446499,0.227035 -0.718928,0.272435 l 0,0.07568 c 0.277474,0.06055 0.534774,0.148836 0.771901,0.264868 0.242157,0.110998 0.451528,0.267396 0.628115,0.469194 0.181615,0.196764 0.322878,0.446497 0.423789,0.749198 0.105938,0.30271 0.158912,0.671002 0.158921,1.104877 -9e-6,0.504513 -0.0883,0.95605 -0.264868,1.35461 -0.176587,0.39352 -0.431365,0.729019 -0.764333,1.006498 -0.32794,0.272436 -0.729025,0.481808 -1.203257,0.628116 -0.469201,0.146308 -1.001459,0.219461 -1.596775,0.219461 l -3.904909,0 0,-11.063909 m 2.345972,4.381672 1.218393,0 c 0.29261,6e-6 0.537298,-0.02522 0.734062,-0.07568 0.196753,-0.05549 0.355674,-0.136211 0.476762,-0.242165 0.121076,-0.10594 0.206843,-0.237112 0.2573,-0.393518 0.05549,-0.161436 0.08324,-0.348104 0.08324,-0.560006 -7e-6,-0.42378 -0.133702,-0.726486 -0.401086,-0.908119 -0.262351,-0.186659 -0.681094,-0.279994 -1.256231,-0.280003 l -1.112445,0 0,2.459488 m 0,1.861642 0,2.883276 1.377313,0 c 0.307746,2e-6 0.565046,-0.03531 0.771901,-0.105947 0.211888,-0.07063 0.380899,-0.171531 0.507033,-0.302706 0.131166,-0.13117 0.2245,-0.290091 0.280003,-0.476762 0.05549,-0.186666 0.08324,-0.393515 0.08324,-0.620548 -7e-6,-0.206845 -0.02775,-0.393514 -0.08324,-0.560006 -0.0555,-0.171529 -0.15136,-0.317837 -0.287571,-0.438924 -0.131179,-0.121078 -0.305235,-0.214412 -0.522168,-0.280003 -0.216945,-0.06558 -0.486858,-0.09837 -0.809739,-0.09838 l -1.316772,0 m 11.835811,-3.798962 c 0.06054,9e-6 0.126122,0.0025 0.196759,0.0076 0.07567,9e-6 0.146302,0.0051 0.211894,0.01514 0.07063,0.0051 0.133689,0.01262 0.189191,0.0227 0.06053,0.0051 0.105941,0.01262 0.136218,0.0227 l 0,2.164349 c -0.04037,-0.01008 -0.09586,-0.02017 -0.166488,-0.03027 -0.07064,-0.01008 -0.146314,-0.01765 -0.22703,-0.0227 -0.07568,-0.01008 -0.151359,-0.01513 -0.227029,-0.01514 -0.07568,-0.005 -0.138746,-0.0076 -0.189192,-0.0076 -0.297666,7e-6 -0.572624,0.03785 -0.824874,0.113515 -0.247214,0.07568 -0.461631,0.199288 -0.643251,0.370815 -0.176582,0.166494 -0.315322,0.388479 -0.41622,0.665954 -0.09586,0.27244 -0.143789,0.607939 -0.143786,1.006498 l 0,4.305994 -2.308134,0 0,-8.460636 1.748128,0 0.340544,1.271366 0.113515,0 c 0.121079,-0.216932 0.252251,-0.413691 0.393518,-0.590277 0.141259,-0.176571 0.297657,-0.325401 0.469194,-0.446492 0.176575,-0.126119 0.373333,-0.221976 0.590277,-0.287571 0.22198,-0.07062 0.474235,-0.105938 0.756766,-0.105947 m 5.73628,1.642181 c -0.408657,7e-6 -0.749201,0.143792 -1.021633,0.431356 -0.267394,0.287577 -0.421269,0.739114 -0.461627,1.35461 l 2.943817,0 c -0.0051,-0.257295 -0.03784,-0.494414 -0.09838,-0.711359 -0.06055,-0.216933 -0.151359,-0.403602 -0.272436,-0.560007 -0.121088,-0.161436 -0.272441,-0.287564 -0.454059,-0.378382 -0.181629,-0.09081 -0.393523,-0.136211 -0.635683,-0.136218 m 0.295139,7.12873 c -0.605417,-1e-6 -1.1629,-0.08829 -1.672452,-0.264868 -0.509558,-0.176579 -0.948481,-0.441446 -1.316771,-0.794604 -0.368294,-0.358201 -0.655865,-0.807215 -0.862713,-1.347042 -0.201805,-0.544868 -0.302707,-1.183073 -0.302706,-1.914617 -10e-7,-0.741625 0.09333,-1.38992 0.280003,-1.944886 0.186668,-0.554955 0.44649,-1.016581 0.779468,-1.384881 0.33802,-0.37333 0.741628,-0.653333 1.210825,-0.84001 0.474236,-0.18666 0.998926,-0.279994 1.574072,-0.280003 0.560001,9e-6 1.064511,0.08578 1.513531,0.2573 0.454052,0.166497 0.83748,0.413707 1.150283,0.74163 0.317834,0.327939 0.559998,0.731547 0.726495,1.210825 0.171525,0.474246 0.257292,1.019116 0.2573,1.634613 l 0,1.120013 -5.16114,0 c 0.01009,0.32289 0.06054,0.615505 0.151353,0.877848 0.09585,0.257302 0.227026,0.476764 0.393518,0.658386 0.17153,0.17658 0.375856,0.312798 0.61298,0.408653 0.242161,0.09586 0.517118,0.143787 0.824874,0.143785 0.257295,2e-6 0.49946,-0.01261 0.726495,-0.03784 0.232069,-0.03027 0.456576,-0.07315 0.673521,-0.12865 0.216933,-0.05549 0.43135,-0.123603 0.643251,-0.204327 0.211887,-0.08576 0.428826,-0.184144 0.650818,-0.295138 l 0,1.785966 c -0.201812,0.105947 -0.406138,0.196759 -0.61298,0.272435 -0.201811,0.07063 -0.416228,0.131173 -0.64325,0.181624 -0.227036,0.05045 -0.471724,0.08577 -0.734063,0.105947 -0.262351,0.02523 -0.549921,0.03784 -0.862712,0.03784 m 10.201197,-0.151354 -0.446491,-1.150283 -0.06811,0 c -0.166494,0.227031 -0.332982,0.423789 -0.499465,0.590277 -0.166494,0.161444 -0.348117,0.295139 -0.544871,0.401086 -0.196764,0.105947 -0.418748,0.184146 -0.665954,0.234597 -0.242168,0.05045 -0.524694,0.07568 -0.847577,0.07568 -0.34307,-10e-7 -0.660911,-0.05297 -0.953524,-0.158921 -0.292618,-0.110992 -0.547395,-0.274958 -0.764333,-0.491898 -0.211896,-0.221983 -0.378384,-0.499464 -0.499465,-0.832442 -0.121084,-0.33802 -0.181625,-0.736582 -0.181624,-1.195689 -10e-7,-0.898025 0.28757,-1.558932 0.862712,-1.982725 0.57514,-0.428829 1.435329,-0.665948 2.58057,-0.711359 l 1.347043,-0.04541 0,-0.635683 c -6e-6,-0.348106 -0.100908,-0.605406 -0.302707,-0.771901 -0.201809,-0.166481 -0.484334,-0.249725 -0.847577,-0.249732 -0.363251,7e-6 -0.71893,0.05298 -1.067039,0.15892 -0.34307,0.105954 -0.688659,0.247217 -1.036768,0.423789 l -0.749198,-1.528666 c 0.423787,-0.237112 0.892981,-0.42378 1.407583,-0.560006 0.514597,-0.13621 1.054423,-0.204318 1.619478,-0.204327 1.054421,9e-6 1.861637,0.247218 2.421649,0.74163 0.565044,0.494427 0.84757,1.246147 0.847578,2.255161 l 0,5.637901 -1.611911,0 m -0.681088,-3.920044 -0.764333,0.03027 c -0.307756,0.01009 -0.567579,0.05045 -0.779469,0.121082 -0.211898,0.07064 -0.383431,0.166492 -0.5146,0.287571 -0.126131,0.116041 -0.219465,0.257303 -0.280003,0.423789 -0.0555,0.161446 -0.08325,0.343069 -0.08325,0.544871 -3e-6,0.353159 0.08576,0.605414 0.257301,0.756765 0.17153,0.146309 0.396037,0.219463 0.673521,0.219462 0.21189,10e-7 0.408649,-0.03531 0.590277,-0.105947 0.181619,-0.07567 0.338017,-0.184145 0.469194,-0.325409 0.136213,-0.146306 0.24216,-0.322885 0.317842,-0.529736 0.07567,-0.211892 0.113509,-0.454056 0.113515,-0.726495 l 0,-0.696224 m 8.104955,2.232458 c 0.227025,10e-7 0.441441,-0.02522 0.64325,-0.07568 0.206844,-0.05045 0.416216,-0.113513 0.628116,-0.189191 l 0,1.717857 c -0.216945,0.110993 -0.486858,0.201804 -0.809739,0.272436 -0.317846,0.07568 -0.665958,0.113514 -1.044336,0.113515 -0.368297,-10e-7 -0.711363,-0.04288 -1.029201,-0.128651 -0.317844,-0.08577 -0.592802,-0.234597 -0.824874,-0.446491 -0.232077,-0.216939 -0.416223,-0.504509 -0.552439,-0.862713 -0.131174,-0.363245 -0.196761,-0.817304 -0.196759,-1.362177 l 0,-4.078965 -1.104878,0 0,-0.976228 1.271366,-0.7719 0.665954,-1.785967 1.475692,0 0,1.801102 2.058402,0 0,1.732993 -2.058402,0 0,4.078965 c -4e-6,0.327934 0.08072,0.570098 0.242165,0.726495 0.161439,0.156399 0.373333,0.234598 0.635683,0.234597 m 10.322277,1.687586 -2.308132,0 0,-4.941677 c -7e-6,-0.610452 -0.09586,-1.067033 -0.287571,-1.369745 -0.186675,-0.307745 -0.476768,-0.461621 -0.87028,-0.461627 -0.297666,6e-6 -0.547398,0.06055 -0.749198,0.181623 -0.201808,0.121089 -0.363251,0.30019 -0.48433,0.537304 -0.121086,0.237125 -0.206853,0.529741 -0.2573,0.877848 -0.05045,0.348116 -0.07568,0.746679 -0.07568,1.195689 l 0,3.980585 -2.308134,0 0,-11.775268 2.308134,0 0,2.398946 c -3e-6,0.211903 -0.005,0.43641 -0.01514,0.673521 -0.01009,0.232083 -0.02271,0.4465 -0.03784,0.643251 -0.02018,0.232082 -0.03784,0.459112 -0.05297,0.681088 l 0.121083,0 c 0.247206,-0.438916 0.562525,-0.754234 0.945956,-0.945956 0.383423,-0.196751 0.817302,-0.29513 1.301637,-0.295139 0.418737,9e-6 0.797119,0.06055 1.135148,0.181624 0.34306,0.116046 0.635675,0.300192 0.877848,0.552439 0.242156,0.252262 0.428819,0.575149 0.559999,0.968659 0.13117,0.38848 0.19676,0.855151 0.19676,1.400016 l 0,5.516819 m 5.79683,-6.977376 c -0.40866,7e-6 -0.7492,0.143792 -1.02163,0.431356 -0.2674,0.287577 -0.42127,0.739114 -0.46163,1.35461 l 2.94382,0 c -0.005,-0.257295 -0.0378,-0.494414 -0.0984,-0.711359 -0.0606,-0.216933 -0.15136,-0.403602 -0.27244,-0.560007 -0.12109,-0.161436 -0.27244,-0.287564 -0.45406,-0.378382 -0.18163,-0.09081 -0.39352,-0.136211 -0.63568,-0.136218 m 0.29514,7.12873 c -0.60542,-10e-7 -1.1629,-0.08829 -1.67245,-0.264868 -0.50956,-0.176579 -0.94849,-0.441446 -1.31678,-0.794604 -0.36829,-0.358201 -0.65586,-0.807215 -0.86271,-1.347042 -0.2018,-0.544868 -0.30271,-1.183073 -0.3027,-1.914617 -1e-5,-0.741625 0.0933,-1.38992 0.28,-1.944886 0.18667,-0.554955 0.44649,-1.016581 0.77947,-1.384881 0.33802,-0.37333 0.74162,-0.653333 1.21082,-0.84001 0.47424,-0.18666 0.99893,-0.279994 1.57407,-0.280003 0.56,9e-6 1.06451,0.08578 1.51353,0.2573 0.45406,0.166497 0.83748,0.413707 1.15029,0.74163 0.31783,0.327939 0.56,0.731547 0.72649,1.210825 0.17153,0.474246 0.25729,1.019116 0.2573,1.634613 l 0,1.120013 -5.16114,0 c 0.0101,0.32289 0.0605,0.615505 0.15136,0.877848 0.0958,0.257302 0.22702,0.476764 0.39351,0.658386 0.17153,0.17658 0.37586,0.312798 0.61298,0.408653 0.24216,0.09586 0.51712,0.143787 0.82488,0.143785 0.25729,2e-6 0.49946,-0.01261 0.72649,-0.03784 0.23207,-0.03027 0.45658,-0.07315 0.67352,-0.12865 0.21694,-0.05549 0.43135,-0.123603 0.64325,-0.204327 0.21189,-0.08576 0.42883,-0.184144 0.65082,-0.295138 l 0,1.785966 c -0.20181,0.105947 -0.40614,0.196759 -0.61298,0.272435 -0.20181,0.07063 -0.41622,0.131173 -0.64325,0.181624 -0.22703,0.05045 -0.47172,0.08577 -0.73406,0.105947 -0.26235,0.02523 -0.54992,0.03784 -0.86271,0.03784"
           id="text11259"
           style="font-size:15.49855423px;font-style:normal;font-variant:normal;font-weight:normal;font-stretch:normal;fill:#575757;fill-opacity:1;stroke:none;font-family:DejaVu Sans;-inkscape-font-specification:DejaVu Sans"
           transform="matrix(0,1,-1,0,0,0)" />
      </g>
    </g>
    <g
       id="g11633"
       transform="matrix(1.0026064,0,0,1.0026064,-0.4118062,-0.1990473)">
      <g
         id="g11555"
         transform="matrix(0.3762665,0,0,0.3762665,132.79014,2.6182763)" />
      <g
         id="g11629"
         transform="translate(-1.6287995e-6,0.3427419)" />
    </g>
    <g
       id="g11730"
       transform="matrix(1,0,0,0.9997985,0,0.01107309)">
      <g
         id="g11726"
         transform="translate(0,-3.0183744e-4)" />
      <g
         id="g11719"
         transform="matrix(1,0,0,0.9827257,0,1.2506279)" />
      <g
         id="g11678"
         transform="matrix(0.6684043,0,0,0.6684043,44.392123,52.429726)" />
    </g>
    <g
       id="g11847"
       transform="matrix(0.9997165,0,0,0.9997165,0.04139426,0.1299931)">
      <g
         id="g11840"
         transform="translate(0,0.6003601)" />
      <g
         id="g11763"
         transform="matrix(0.5145481,0,0,0.5144444,64.701399,86.658214)" />
      <g
         id="g11834"
         transform="matrix(1.0433251,0,0,1.0433251,-6.2211559,-4.171814)" />
    </g>
    <g
       id="g11994"
       transform="matrix(1.0256749,0,0,1.0256749,-3.7499013,-3.2863459)">
      <g
         id="g11866"
         transform="matrix(0.7385742,0,0,1.0088148,34.269621,24.648675)" />
      <g
         id="g11911"
         transform="matrix(1.0866283,0,0,0.8517881,-12.19976,19.293337)" />
      <g
         id="g11878"
         transform="matrix(0.3115345,0,0,0.3114716,92.879011,116.5498)" />
    </g>
  </g>
</svg>
