<?xml version="1.0" encoding="UTF-8" standalone="no"?>
<!-- Created with Inkscape (http://www.inkscape.org/) -->

<svg
   xmlns:dc="http://purl.org/dc/elements/1.1/"
   xmlns:cc="http://creativecommons.org/ns#"
   xmlns:rdf="http://www.w3.org/1999/02/22-rdf-syntax-ns#"
   xmlns:svg="http://www.w3.org/2000/svg"
   xmlns="http://www.w3.org/2000/svg"
   xmlns:xlink="http://www.w3.org/1999/xlink"
   xmlns:sodipodi="http://sodipodi.sourceforge.net/DTD/sodipodi-0.dtd"
   xmlns:inkscape="http://www.inkscape.org/namespaces/inkscape"
   height="128"
   id="svg11300"
   inkscape:export-filename="/home/mma/BZR-WORK/breathe-icon-set/source_svg/rendered/computer.png"
   inkscape:export-xdpi="90.000000"
   inkscape:export-ydpi="90.000000"
   inkscape:output_extension="org.inkscape.output.svg.inkscape"
   inkscape:version="0.46+devel r21673"
   sodipodi:docname="media-tape.svg"
   sodipodi:version="0.32"
   style="display:inline;enable-background:new"
   version="1.0"
   width="128">
  <sodipodi:namedview
     bordercolor="#666666"
     borderopacity="0.25490196"
     fill="#f57900"
     gridtolerance="12"
     guidetolerance="13"
     height="300px"
     id="base"
     inkscape:current-layer="layer6"
     inkscape:cx="129.66703"
     inkscape:cy="0.6289328"
     inkscape:document-units="px"
     inkscape:grid-bbox="true"
     inkscape:guide-bbox="true"
     inkscape:pageopacity="0.0"
     inkscape:pageshadow="2"
     inkscape:showpageshadow="false"
     inkscape:snap-bbox="true"
     inkscape:snap-nodes="false"
     inkscape:window-height="901"
     inkscape:window-maximized="0"
     inkscape:window-width="1280"
     inkscape:window-x="0"
     inkscape:window-y="24"
     inkscape:zoom="1"
     objecttolerance="7"
     pagecolor="#ffffff"
     showgrid="false"
     showguides="true"
     stroke="#ef2929"
     width="400px">
    <inkscape:grid
       empspacing="5"
       enabled="true"
       id="grid5883"
       spacingx="1px"
       spacingy="1px"
       type="xygrid"
       visible="true" />
  </sodipodi:namedview>
  <title
     id="title4119">Breathe Icon Theme computer</title>
  <defs
     id="defs3">
    <linearGradient
       id="linearGradient3375">
      <stop
         id="stop3377"
         offset="0"
         style="stop-color:#505050;stop-opacity:1" />
      <stop
         id="stop3379"
         offset="1"
         style="stop-color:#8b8b8b;stop-opacity:1" />
    </linearGradient>
    <linearGradient
       id="linearGradient5465"
       inkscape:collect="always">
      <stop
         id="stop5467"
         offset="0"
         style="stop-color:#a6a6a6;stop-opacity:1;" />
      <stop
         id="stop5469"
         offset="1"
         style="stop-color:#4c4c4c;stop-opacity:1" />
    </linearGradient>
    <linearGradient
       id="linearGradient5412">
      <stop
         id="stop5414"
         offset="0"
         style="stop-color:#000000;stop-opacity:1;" />
      <stop
         id="stop5463"
         offset="0.5"
         style="stop-color:#000000;stop-opacity:0.49803922;" />
      <stop
         id="stop5416"
         offset="1"
         style="stop-color:#000000;stop-opacity:0;" />
    </linearGradient>
    <linearGradient
       id="linearGradient5287">
      <stop
         id="stop5289"
         offset="0"
         style="stop-color:#ffffff;stop-opacity:1;" />
      <stop
         id="stop5291"
         offset="1"
         style="stop-color:#d4d4d4;stop-opacity:1;" />
    </linearGradient>
    <linearGradient
       id="linearGradient5263"
       inkscape:collect="always">
      <stop
         id="stop5265"
         offset="0"
         style="stop-color:#0e0e0e;stop-opacity:1" />
      <stop
         id="stop5267"
         offset="1"
         style="stop-color:#3c3c3c;stop-opacity:1" />
    </linearGradient>
    <linearGradient
       id="linearGradient3283"
       inkscape:collect="always">
      <stop
         id="stop3285"
         offset="0"
         style="stop-color:#000000;stop-opacity:1" />
      <stop
         id="stop3287"
         offset="1"
         style="stop-color:#5d5d5d;stop-opacity:0;" />
    </linearGradient>
    <linearGradient
       id="linearGradient3258">
      <stop
         id="stop3260"
         offset="0"
         style="stop-color:#181818;stop-opacity:1;" />
      <stop
         id="stop3262"
         offset="1"
         style="stop-color:#373737;stop-opacity:1" />
    </linearGradient>
    <filter
       color-interpolation-filters="sRGB"
       id="filter5216"
       inkscape:collect="always">
      <feGaussianBlur
         id="feGaussianBlur5218"
         inkscape:collect="always"
         stdDeviation="0.9775" />
    </filter>
    <filter
       color-interpolation-filters="sRGB"
       height="1.948655"
       id="filter5420"
       inkscape:collect="always"
       width="1.054127"
       x="-0.027063476"
       y="-0.4743275">
      <feGaussianBlur
         id="feGaussianBlur5422"
         inkscape:collect="always"
         stdDeviation="1.4637541" />
    </filter>
    <filter
       color-interpolation-filters="sRGB"
       id="filter3371"
       inkscape:collect="always">
      <feGaussianBlur
         id="feGaussianBlur3373"
         inkscape:collect="always"
         stdDeviation="0.86409047" />
    </filter>
    <linearGradient
       gradientUnits="userSpaceOnUse"
       id="linearGradient3452"
       inkscape:collect="always"
       x1="36.346851"
       x2="36.403152"
       xlink:href="#linearGradient5412"
       y1="238.77031"
       y2="250.47346" />
    <linearGradient
       gradientUnits="userSpaceOnUse"
       id="linearGradient3458"
       inkscape:collect="always"
       x1="-361.6875"
       x2="11.6875"
       xlink:href="#linearGradient5287"
       y1="460.5"
       y2="460.5" />
    <linearGradient
       gradientUnits="userSpaceOnUse"
       id="linearGradient3460"
       inkscape:collect="always"
       x1="-512.6524"
       x2="-231.93102"
       xlink:href="#linearGradient5263"
       y1="432.33841"
       y2="432.33841" />
    <linearGradient
       gradientTransform="matrix(0.200341,0,0,0.1684599,101.99063,8.2316544)"
       gradientUnits="userSpaceOnUse"
       id="linearGradient3475"
       inkscape:collect="always"
       x1="-174.65536"
       x2="-174.65536"
       xlink:href="#linearGradient3258"
       y1="558.53534"
       y2="272.53531" />
    <linearGradient
       gradientTransform="matrix(0.2364087,0,0,0.2321207,108.29005,-27.825012)"
       gradientUnits="userSpaceOnUse"
       id="linearGradient3477"
       inkscape:collect="always"
       x1="-190.79462"
       x2="-188.92018"
       xlink:href="#linearGradient3283"
       y1="386.30765"
       y2="541.00543" />
    <linearGradient
       gradientTransform="matrix(0.9638096,0,0,0.9638096,33.266659,-129.25432)"
       gradientUnits="userSpaceOnUse"
       id="linearGradient3495"
       inkscape:collect="always"
       x1="-29.175703"
       x2="99.175285"
       xlink:href="#linearGradient5465"
       y1="170.68613"
       y2="170.68613" />
    <linearGradient
       gradientTransform="matrix(0.2363706,0,0,0.2363706,108.2834,-29.237649)"
       gradientUnits="userSpaceOnUse"
       id="linearGradient3498"
       inkscape:collect="always"
       x1="-174.65536"
       x2="-174.65536"
       xlink:href="#linearGradient3258"
       y1="558.53534"
       y2="272.53531" />
    <filter
       color-interpolation-filters="sRGB"
       id="filter3505"
       inkscape:collect="always">
      <feGaussianBlur
         id="feGaussianBlur3507"
         inkscape:collect="always"
         stdDeviation="1.2667726" />
    </filter>
    <linearGradient
       gradientTransform="matrix(0.9638096,0,0,0.9638096,33.266659,-129.25432)"
       gradientUnits="userSpaceOnUse"
       id="linearGradient3536"
       inkscape:collect="always"
       x1="35.609146"
       x2="35.609146"
       xlink:href="#linearGradient3375"
       y1="226.24925"
       y2="198.71304" />
  </defs>
  <metadata
     id="metadata4">
    <rdf:RDF>
      <cc:Work
         rdf:about="">
        <dc:format>image/svg+xml</dc:format>
        <dc:type
           rdf:resource="http://purl.org/dc/dcmitype/StillImage" />
        <dc:creator>
          <cc:Agent>
            <dc:title>Breathe Icon Team</dc:title>
          </cc:Agent>
        </dc:creator>
        <dc:source />
        <cc:license
           rdf:resource="http://creativecommons.org/licenses/by-sa/3.0/" />
        <dc:title>Breathe Icon Theme icon</dc:title>
        <dc:subject>
          <rdf:Bag />
        </dc:subject>
        <dc:date />
        <dc:rights>
          <cc:Agent>
            <dc:title />
          </cc:Agent>
        </dc:rights>
        <dc:publisher>
          <cc:Agent>
            <dc:title />
          </cc:Agent>
        </dc:publisher>
        <dc:identifier />
        <dc:relation />
        <dc:language />
        <dc:coverage />
        <dc:description />
        <dc:contributor>
          <cc:Agent>
            <dc:title>Jakub Steiner, Cory Kontros, Oxygen and Breathe icon teams</dc:title>
          </cc:Agent>
        </dc:contributor>
      </cc:Work>
      <cc:License
         rdf:about="http://creativecommons.org/licenses/by-sa/3.0/">
        <cc:permits
           rdf:resource="http://creativecommons.org/ns#Reproduction" />
        <cc:permits
           rdf:resource="http://creativecommons.org/ns#Distribution" />
        <cc:requires
           rdf:resource="http://creativecommons.org/ns#Notice" />
        <cc:requires
           rdf:resource="http://creativecommons.org/ns#Attribution" />
        <cc:prohibits
           rdf:resource="http://creativecommons.org/ns#CommercialUse" />
        <cc:permits
           rdf:resource="http://creativecommons.org/ns#DerivativeWorks" />
        <cc:requires
           rdf:resource="http://creativecommons.org/ns#ShareAlike" />
      </cc:License>
    </rdf:RDF>
  </metadata>
  <g
     id="layer1"
     inkscape:groupmode="layer"
     inkscape:label="devices/media-tape"
     style="display:inline"
     transform="translate(-3,-4)">
    <rect
       height="256"
       id="256x256"
       inkscape:label="256x256"
       style="fill:#eeeeec;fill-opacity:1;fill-rule:nonzero;stroke:none;stroke-width:5;marker:none;visibility:visible;display:none;overflow:visible;enable-background:accumulate"
       width="256"
       x="26.5"
       y="32.823101" />
    <rect
       height="48"
       id="48x48"
       inkscape:label="48x48"
       style="fill:#eeeeec;fill-opacity:1;fill-rule:nonzero;stroke:none;stroke-width:5;marker:none;visibility:visible;display:none;overflow:visible;enable-background:accumulate"
       width="48"
       x="-35.5"
       y="32.823101" />
    <text
       id="text6091"
       sodipodi:linespacing="125%"
       style="font-size:56.11526489px;font-style:normal;font-variant:normal;font-weight:bold;font-stretch:normal;text-indent:0;text-align:start;text-decoration:none;line-height:125%;letter-spacing:normal;word-spacing:normal;text-transform:none;direction:ltr;block-progression:tb;writing-mode:lr-tb;text-anchor:start;fill:#2e3436;fill-opacity:1;fill-rule:nonzero;stroke:none;stroke-width:5;marker:none;visibility:visible;display:none;overflow:visible;enable-background:accumulate;font-family:Myriad"
       x="-418.41196"
       xml:space="preserve"
       y="34.084831"><tspan
         id="tspan6093"
         sodipodi:role="line"
         x="-418.41196"
         y="34.084831">audio-x-generic</tspan></text>
    <g
       id="layer6"
       inkscape:groupmode="layer"
       inkscape:label="plate"
       sodipodi:insensitive="true"
       style="display:none" />
    <g
       id="Livello_1"
       transform="translate(387.11439,42.495045)" />
    <g
       id="g3290"
       transform="translate(443.11439,59.884345)" />
    <g
       id="g7148"
       transform="matrix(0.1956571,0,0,0.1956571,345.26471,19.402885)" />
    <g
       id="g7555"
       transform="matrix(0.1333333,0,0,0.1333333,319.90372,105.99052)" />
    <g
       id="g9283"
       transform="matrix(1.0666666,0,0,1.0666666,384.44667,40.470571)" />
    <g
       id="g3509">
      <rect
         height="7.4062958"
         id="rect5400"
         rx="4.0785508"
         ry="3.5333767"
         style="opacity:0.7;fill:url(#linearGradient3452);fill-opacity:1;fill-rule:nonzero;stroke:none;stroke-width:7.92043924;marker:none;visibility:visible;display:inline;overflow:visible;filter:url(#filter5420);enable-background:new"
         transform="matrix(0.9751898,0,0,1.3867445,32.868354,-232.16625)"
         width="129.8063"
         x="-29.903149"
         y="238.77031" />
      <rect
         height="75.568741"
         id="rect2478"
         style="fill:url(#linearGradient3498);fill-opacity:1;fill-rule:nonzero;stroke:none;stroke-width:7.92043924;marker:none;visibility:visible;display:inline;overflow:visible;enable-background:new"
         width="122.69903"
         x="5.6504793"
         y="29.070982" />
      <path
         d="m 5.6468367,29.072032 0,12.365138 2.4154119,0 0,-9.454828 33.4907654,0 50.893554,0 33.490772,0 0,9.454828 2.41541,0 0,-12.365138 -35.906182,0 -50.893554,0 -35.9061773,0 z"
         id="path3250"
         style="fill:#000000;fill-opacity:1;fill-rule:evenodd;stroke:url(#linearGradient3495);stroke-width:1;stroke-linecap:butt;stroke-linejoin:miter;stroke-miterlimit:4;stroke-opacity:1;stroke-dasharray:none" />
      <path
         d="m 6.0235523,26.900377 -0.2363714,2.363704 39.5773101,0 43.270601,0 39.577308,0 -0.23637,-2.363704 -39.340938,0 -43.270601,0 -39.3409387,0 z"
         id="path3266"
         style="fill:#ababab;fill-opacity:1;fill-rule:evenodd;stroke:#5d5d5d;stroke-width:0.23637064px;stroke-linecap:butt;stroke-linejoin:miter;stroke-opacity:1" />
      <path
         d="m -343,408.3125 c -10.45844,0 -18.6875,8.22906 -18.6875,18.6875 l 0,67 c 0,10.45844 8.22905,18.68748 18.6875,18.6875 l 336,0 c 10.4584321,0 18.6875,-8.22907 18.6875,-18.6875 l 0,-67 C 11.6875,416.54156 3.458435,408.3125 -7,408.3125 l -336,0 z"
         id="path3295"
         inkscape:original="M -343 402.3125 C -356.67804 402.3125 -367.6875 413.32196 -367.6875 427 L -367.6875 494 C -367.6875 507.67804 -356.67804 518.68748 -343 518.6875 L -7 518.6875 C 6.6780373 518.6875 17.6875 507.67803 17.6875 494 L 17.6875 427 C 17.6875 413.32196 6.6780373 402.3125 -7 402.3125 L -343 402.3125 z "
         inkscape:radius="-6"
         sodipodi:type="inkscape:offset"
         style="fill:url(#linearGradient3458);fill-opacity:1;fill-rule:nonzero;stroke:none;stroke-width:8.46211529;marker:none;visibility:visible;display:inline;overflow:visible;enable-background:new"
         transform="matrix(0.2363706,0,0,0.2363706,108.95196,-33.243843)" />
      <g
         id="g5231"
         style="display:inline;enable-background:new"
         transform="matrix(0.2363706,0,0,0.2363706,113.14075,-29.946791)">
        <path
           d="m -231.93102,432.33841 c 0,77.51907 -62.84162,140.3607 -140.3607,140.3607 -77.51907,0 -140.3607,-62.84163 -140.3607,-140.3607 0,-77.51908 62.84163,-140.3607 140.3607,-140.3607 77.51908,0 140.3607,62.84162 140.3607,140.3607 z"
           id="path5222"
           sodipodi:cx="-372.29172"
           sodipodi:cy="432.33841"
           sodipodi:rx="140.3607"
           sodipodi:ry="140.3607"
           sodipodi:type="arc"
           style="fill:url(#linearGradient3460);fill-opacity:1;fill-rule:nonzero;stroke:none;stroke-width:1;marker:none;visibility:visible;display:inline;overflow:visible;enable-background:new"
           transform="matrix(0.7884131,0,0,0.7884131,14.535597,105.68997)" />
        <path
           d="m -372.28125,393.46875 c -22.54483,0 -38.87501,16.3302 -38.875,38.875 0,22.54483 16.30291,38.84376 38.875,38.84375 22.57212,0 38.84375,-16.27163 38.84375,-38.84375 0,-22.57212 -16.29895,-38.87501 -38.84375,-38.875 z"
           id="path5226"
           inkscape:original="M -372.28125 291.96875 C -449.76036 291.96875 -512.65627 354.86464 -512.65625 432.34375 C -512.65625 509.82286 -449.76036 572.68752 -372.28125 572.6875 C -294.80214 572.6875 -231.9375 509.82286 -231.9375 432.34375 C -231.9375 354.86464 -294.80214 291.96873 -372.28125 291.96875 z "
           inkscape:radius="-101.50725"
           sodipodi:type="inkscape:offset"
           style="fill:#252525;fill-opacity:1;fill-rule:nonzero;stroke:#aaaaaa;stroke-width:4.23064375;stroke-linecap:butt;stroke-linejoin:miter;stroke-miterlimit:4;stroke-opacity:1;stroke-dasharray:none;stroke-dashoffset:0;marker:none;visibility:visible;display:inline;overflow:visible;enable-background:new"
           transform="translate(93.307645,14.212828)" />
        <path
           d="m -278.98407,393.51998 c -29.26744,0 -53.03125,23.7638 -53.03125,53.03125 0,29.26744 23.76381,53.03124 53.03125,53.03125 29.26744,0 53.03126,-23.76382 53.03125,-53.03125 0,-29.26744 -23.76381,-53.03124 -53.03125,-53.03125 z m 0,9.625 c 23.96364,-10e-6 43.40625,19.44261 43.40625,43.40625 0,23.96364 -19.44261,43.40625 -43.40625,43.40625 -23.96364,1e-5 -43.40625,-19.44261 -43.40625,-43.40625 -1e-5,-23.96364 19.44261,-43.40625 43.40625,-43.40625 z"
           id="path5199"
           style="fill:#bfbfbf;fill-opacity:1;fill-rule:nonzero;stroke:#aaaaaa;stroke-width:3.21337724;stroke-linecap:butt;stroke-linejoin:miter;stroke-miterlimit:4;stroke-opacity:1;stroke-dasharray:none;stroke-dashoffset:0;marker:none;visibility:visible;display:inline;overflow:visible;enable-background:new" />
        <path
           d="m -280.17157,404.23873 -0.5625,2.25 -0.0312,0.59375 0.0625,1.625 -3.15625,0.28125 -0.21875,-1.59375 -0.15625,-0.59375 -0.9375,-2.125 -2.3125,0.40625 -0.1875,2.3125 0.0625,0.625 0.34375,1.5625 -3.03125,0.8125 -0.5,-1.53125 -0.25,-0.5625 -1.3125,-1.90625 -2.21875,0.78125 0.25,2.3125 0.15625,0.59375 0.625,1.5 -2.875,1.34375 -0.75,-1.4375 -0.34375,-0.5 -1.59375,-1.6875 -2.0625,1.1875 0.625,2.25 0.28125,0.53125 0.875,1.375 -2.59375,1.8125 -1,-1.28125 -0.40625,-0.4375 -1.90625,-1.375 -1.78125,1.53125 1,2.09375 0.34375,0.5 1.09375,1.1875 -2.21875,2.21875 -1.1875,-1.09375 -0.5,-0.34375 -2.09375,-1 -1.53125,1.78125 1.375,1.90625 0.4375,0.40625 1.28125,1 -1.8125,2.59375 -1.375,-0.875 -0.53125,-0.28125 -2.25,-0.625 -1.1875,2.0625 1.6875,1.59375 0.5,0.34375 1.4375,0.75 -1.34375,2.875 -1.5,-0.625 -0.59375,-0.15625 -2.3125,-0.25 -0.78125,2.21875 1.90625,1.3125 0.5625,0.25 1.53125,0.5 -0.8125,3.0625 -1.59375,-0.375 -0.59375,-0.0625 -2.3125,0.1875 -0.40625,2.3125 2.125,0.9375 0.59375,0.15625 1.59375,0.21875 -0.28125,3.15625 -1.625,-0.0625 -0.59375,0.0312 -2.25,0.5625 0,2.375 2.25,0.5625 0.59375,0.0312 1.625,-0.0625 0.28125,3.15625 -1.59375,0.21875 -0.59375,0.15625 -2.125,0.9375 0.40625,2.3125 2.3125,0.1875 0.59375,-0.0625 1.59375,-0.375 0.8125,3.0625 -1.53125,0.5 -0.5625,0.25 -1.90625,1.3125 0.78125,2.21875 2.3125,-0.25 0.59375,-0.15625 1.5,-0.625 1.34375,2.875 -1.4375,0.75 -0.5,0.34375 -1.6875,1.59375 1.1875,2.0625 2.25,-0.625 0.53125,-0.28125 1.375,-0.875 1.8125,2.59375 -1.28125,1 -0.4375,0.40625 -1.375,1.90625 1.53125,1.78125 2.09375,-1 0.5,-0.34375 1.1875,-1.09375 2.21875,2.21875 -1.09375,1.1875 -0.34375,0.5 -1,2.09375 1.78125,1.53125 1.90625,-1.375 0.40625,-0.4375 1,-1.28125 2.59375,1.8125 -0.875,1.375 -0.28125,0.53125 -0.625,2.25 2.0625,1.1875 1.59375,-1.6875 0.34375,-0.5 0.75,-1.4375 2.875,1.34375 -0.625,1.5 -0.15625,0.59375 -0.25,2.3125 2.21875,0.78125 1.3125,-1.90625 0.25,-0.5625 0.5,-1.53125 3.03125,0.8125 -0.34375,1.5625 -0.0625,0.625 0.1875,2.3125 2.3125,0.40625 0.9375,-2.125 0.15625,-0.59375 0.21875,-1.59375 3.15625,0.28125 -0.0625,1.625 0.0312,0.59375 0.5625,2.25 2.375,0 0.5625,-2.25 0.0312,-0.59375 -0.0625,-1.625 3.15625,-0.28125 0.21875,1.59375 0.125,0.59375 0.96875,2.125 2.3125,-0.40625 0.1875,-2.3125 -0.0625,-0.625 -0.375,-1.5625 3.0625,-0.8125 0.5,1.53125 0.25,0.5625 1.3125,1.90625 2.21875,-0.78125 -0.25,-2.3125 -0.15625,-0.59375 -0.625,-1.5 2.875,-1.34375 0.75,1.4375 0.34375,0.5 1.59375,1.6875 2.0625,-1.1875 -0.625,-2.25 -0.28125,-0.53125 -0.875,-1.375 2.59375,-1.8125 1,1.28125 0.40625,0.4375 1.90625,1.375 1.78125,-1.53125 -1,-2.09375 -0.34375,-0.5 -1.125,-1.1875 2.25,-2.21875 1.1875,1.09375 0.5,0.34375 2.09375,1 1.53125,-1.78125 -1.375,-1.90625 -0.4375,-0.40625 -1.28125,-1 1.8125,-2.59375 1.375,0.875 0.53125,0.28125 2.25,0.625 1.1875,-2.0625 -1.6875,-1.59375 -0.5,-0.34375 -1.4375,-0.75 1.34375,-2.875 1.5,0.625 0.59375,0.15625 2.3125,0.25 0.78125,-2.21875 -1.90625,-1.3125 -0.5625,-0.25 -1.53125,-0.5 0.8125,-3.0625 1.5625,0.375 0.625,0.0625 2.3125,-0.1875 0.40625,-2.3125 -2.125,-0.9375 -0.59375,-0.15625 -1.59375,-0.21875 0.28125,-3.15625 1.625,0.0625 0.59375,-0.0312 2.25,-0.5625 0,-2.375 -2.25,-0.5625 -0.59375,-0.0312 -1.625,0.0625 -0.28125,-3.15625 1.59375,-0.21875 0.59375,-0.15625 2.125,-0.9375 -0.40625,-2.3125 -2.3125,-0.1875 -0.625,0.0625 -1.5625,0.375 -0.8125,-3.0625 1.53125,-0.5 0.5625,-0.25 1.90625,-1.3125 -0.78125,-2.21875 -2.3125,0.25 -0.59375,0.15625 -1.5,0.625 -1.34375,-2.875 1.4375,-0.75 0.5,-0.34375 1.6875,-1.59375 -1.1875,-2.0625 -2.25,0.625 -0.53125,0.28125 -1.375,0.875 -1.8125,-2.59375 1.28125,-1 0.4375,-0.40625 1.375,-1.90625 -1.53125,-1.78125 -2.09375,1 -0.5,0.34375 -1.1875,1.09375 -2.25,-2.21875 1.125,-1.1875 0.34375,-0.5 1,-2.09375 -1.78125,-1.53125 -1.90625,1.375 -0.40625,0.4375 -1,1.28125 -2.59375,-1.8125 0.875,-1.375 0.28125,-0.53125 0.625,-2.25 -2.0625,-1.1875 -1.59375,1.6875 -0.34375,0.5 -0.75,1.4375 -2.875,-1.34375 0.625,-1.5 0.15625,-0.59375 0.25,-2.3125 -2.21875,-0.78125 -1.3125,1.90625 -0.25,0.5625 -0.5,1.53125 -3.0625,-0.8125 0.375,-1.5625 0.0625,-0.625 -0.1875,-2.3125 -2.3125,-0.40625 -0.96875,2.125 -0.125,0.59375 -0.21875,1.59375 -3.15625,-0.28125 0.0625,-1.625 -0.0312,-0.59375 -0.5625,-2.25 -2.375,0 z m 1.1875,11.25 c 17.14447,-10e-6 31.0625,13.91803 31.0625,31.0625 0,17.14447 -13.91803,31.0625 -31.0625,31.0625 -17.14447,-10e-6 -31.0625,-13.91803 -31.0625,-31.0625 -1e-5,-17.14447 13.91803,-31.0625 31.0625,-31.0625 z"
           id="path4665"
           style="fill:#c8c4b7;fill-opacity:1;stroke:#6c6c6c;stroke-opacity:1" />
        <path
           d="m -278.99969,415.48873 c -3.86717,0 -7.5529,0.73797 -10.96876,2.03125 l 3.6875,1.8125 2.25,3.34375 1.15626,5.5 7.78124,0 1.15626,-5.5 2.25,-3.34375 3.6875,-1.8125 c -3.41751,-1.29471 -7.13059,-2.03125 -11,-2.03125 z m -19.65626,7.0625 c -5.72759,4.69344 -9.72924,11.37126 -10.96874,19 l 3.375,-2.28125 4.03124,-0.28125 5.34376,1.75 3.90624,-6.75 -4.1875,-3.75 -1.78124,-3.625 0.28124,-4.0625 z m 39.3125,0 0.28126,4.0625 -1.75,3.625 -4.1875,3.75 3.875,6.75 5.34374,-1.75 4.03125,0.28125 3.40626,2.3125 c -1.23386,-7.6419 -5.26413,-14.33154 -11.00001,-19.03125 z m 11.00001,29 -3.40626,2.3125 -4.03125,0.28125 -5.34374,-1.75 -3.875,6.71875 4.1875,3.78125 1.75,3.625 -0.28126,4.0625 c 5.73588,-4.69971 9.76615,-11.38934 11.00001,-19.03125 z m -61.28125,0.0312 c 1.2395,7.62874 5.24115,14.30657 10.96874,19 l -0.28124,-4.0625 1.78124,-3.625 4.1875,-3.78125 -3.90624,-6.71875 -5.34376,1.75 -4.03124,-0.28125 -3.375,-2.28125 z m 26.75,13.375 -1.15626,5.5 -2.25,3.34375 -3.6875,1.8125 c 3.41586,1.29328 7.10159,2 10.96876,2 3.86941,0 7.58249,-0.70529 11,-2 l -3.6875,-1.8125 -2.25,-3.34375 -1.15626,-5.5 -7.78124,0 z"
           id="path4721"
           style="fill:#c8c4b7;fill-opacity:1;fill-rule:nonzero;stroke:#6c6c6c;stroke-width:1.88235295;stroke-linecap:butt;stroke-linejoin:miter;stroke-miterlimit:4;stroke-opacity:1;stroke-dasharray:none;stroke-dashoffset:0;marker:none;visibility:visible;display:inline;overflow:visible;enable-background:new" />
        <path
           d="m -281.8125,414.625 c -27.00979,0 -48.875,21.8652 -48.875,48.875 0,27.00979 21.86521,48.87499 48.875,48.875 27.00979,0 48.87501,-21.86522 48.875,-48.875 0,-27.00979 -21.86521,-48.87499 -48.875,-48.875 z m 0,1.3125 c 26.21958,-10e-6 47.5625,21.34292 47.5625,47.5625 0,26.21958 -21.34292,47.5625 -47.5625,47.5625 -26.21958,10e-6 -47.5625,-21.34292 -47.5625,-47.5625 -10e-6,-26.21958 21.34292,-47.5625 47.5625,-47.5625 z"
           id="path5206"
           inkscape:original="M -281.8125 410.46875 C -311.07994 410.46875 -334.84375 434.23255 -334.84375 463.5 C -334.84375 492.76744 -311.07994 516.53124 -281.8125 516.53125 C -252.54506 516.53125 -228.78124 492.76743 -228.78125 463.5 C -228.78125 434.23256 -252.54506 410.46876 -281.8125 410.46875 z M -281.8125 420.09375 C -257.84886 420.09374 -238.40625 439.53636 -238.40625 463.5 C -238.40625 487.46364 -257.84886 506.90625 -281.8125 506.90625 C -305.77614 506.90626 -325.21875 487.46364 -325.21875 463.5 C -325.21876 439.53636 -305.77614 420.09375 -281.8125 420.09375 z "
           inkscape:radius="-4.1707759"
           sodipodi:type="inkscape:offset"
           style="fill:#ffffff;fill-opacity:1;fill-rule:nonzero;stroke:none;stroke-width:3.21337724;marker:none;visibility:visible;display:inline;overflow:visible;filter:url(#filter5216);enable-background:new"
           transform="translate(2.8284271,-16.948762)" />
      </g>
      <g
         id="g5271"
         style="display:inline;enable-background:new"
         transform="matrix(0.2363706,0,0,0.2363706,153.92073,-29.946791)">
        <path
           d="m -372.28125,391.96875 c -23.35296,0 -40.37501,17.02207 -40.375,40.375 0,23.35296 16.99518,40.34376 40.375,40.34375 23.37985,0 40.34375,-16.9639 40.34375,-40.34375 0,-23.37985 -16.99082,-40.37501 -40.34375,-40.375 z"
           id="path5275"
           inkscape:original="M -372.28125 291.96875 C -449.76036 291.96875 -512.65627 354.86464 -512.65625 432.34375 C -512.65625 509.82286 -449.76036 572.68752 -372.28125 572.6875 C -294.80214 572.6875 -231.9375 509.82286 -231.9375 432.34375 C -231.9375 354.86464 -294.80214 291.96873 -372.28125 291.96875 z "
           inkscape:radius="-100.01399"
           sodipodi:type="inkscape:offset"
           style="fill:#252525;fill-opacity:1;fill-rule:nonzero;stroke:#aaaaaa;stroke-width:4.23064375;stroke-linecap:butt;stroke-linejoin:miter;stroke-miterlimit:4;stroke-opacity:1;stroke-dasharray:none;stroke-dashoffset:0;marker:none;visibility:visible;display:inline;overflow:visible;enable-background:new"
           transform="translate(93.307645,14.212828)" />
        <path
           d="m -278.98407,393.51998 c -29.26744,0 -53.03125,23.7638 -53.03125,53.03125 0,29.26744 23.76381,53.03124 53.03125,53.03125 29.26744,0 53.03126,-23.76382 53.03125,-53.03125 0,-29.26744 -23.76381,-53.03124 -53.03125,-53.03125 z m 0,9.625 c 23.96364,-10e-6 43.40625,19.44261 43.40625,43.40625 0,23.96364 -19.44261,43.40625 -43.40625,43.40625 -23.96364,1e-5 -43.40625,-19.44261 -43.40625,-43.40625 -1e-5,-23.96364 19.44261,-43.40625 43.40625,-43.40625 z"
           id="path5277"
           style="fill:#bfbfbf;fill-opacity:1;fill-rule:nonzero;stroke:#aaaaaa;stroke-width:3.21337724;stroke-linecap:butt;stroke-linejoin:miter;stroke-miterlimit:4;stroke-opacity:1;stroke-dasharray:none;stroke-dashoffset:0;marker:none;visibility:visible;display:inline;overflow:visible;enable-background:new" />
        <path
           d="m -280.17157,404.23873 -0.5625,2.25 -0.0312,0.59375 0.0625,1.625 -3.15625,0.28125 -0.21875,-1.59375 -0.15625,-0.59375 -0.9375,-2.125 -2.3125,0.40625 -0.1875,2.3125 0.0625,0.625 0.34375,1.5625 -3.03125,0.8125 -0.5,-1.53125 -0.25,-0.5625 -1.3125,-1.90625 -2.21875,0.78125 0.25,2.3125 0.15625,0.59375 0.625,1.5 -2.875,1.34375 -0.75,-1.4375 -0.34375,-0.5 -1.59375,-1.6875 -2.0625,1.1875 0.625,2.25 0.28125,0.53125 0.875,1.375 -2.59375,1.8125 -1,-1.28125 -0.40625,-0.4375 -1.90625,-1.375 -1.78125,1.53125 1,2.09375 0.34375,0.5 1.09375,1.1875 -2.21875,2.21875 -1.1875,-1.09375 -0.5,-0.34375 -2.09375,-1 -1.53125,1.78125 1.375,1.90625 0.4375,0.40625 1.28125,1 -1.8125,2.59375 -1.375,-0.875 -0.53125,-0.28125 -2.25,-0.625 -1.1875,2.0625 1.6875,1.59375 0.5,0.34375 1.4375,0.75 -1.34375,2.875 -1.5,-0.625 -0.59375,-0.15625 -2.3125,-0.25 -0.78125,2.21875 1.90625,1.3125 0.5625,0.25 1.53125,0.5 -0.8125,3.0625 -1.59375,-0.375 -0.59375,-0.0625 -2.3125,0.1875 -0.40625,2.3125 2.125,0.9375 0.59375,0.15625 1.59375,0.21875 -0.28125,3.15625 -1.625,-0.0625 -0.59375,0.0312 -2.25,0.5625 0,2.375 2.25,0.5625 0.59375,0.0312 1.625,-0.0625 0.28125,3.15625 -1.59375,0.21875 -0.59375,0.15625 -2.125,0.9375 0.40625,2.3125 2.3125,0.1875 0.59375,-0.0625 1.59375,-0.375 0.8125,3.0625 -1.53125,0.5 -0.5625,0.25 -1.90625,1.3125 0.78125,2.21875 2.3125,-0.25 0.59375,-0.15625 1.5,-0.625 1.34375,2.875 -1.4375,0.75 -0.5,0.34375 -1.6875,1.59375 1.1875,2.0625 2.25,-0.625 0.53125,-0.28125 1.375,-0.875 1.8125,2.59375 -1.28125,1 -0.4375,0.40625 -1.375,1.90625 1.53125,1.78125 2.09375,-1 0.5,-0.34375 1.1875,-1.09375 2.21875,2.21875 -1.09375,1.1875 -0.34375,0.5 -1,2.09375 1.78125,1.53125 1.90625,-1.375 0.40625,-0.4375 1,-1.28125 2.59375,1.8125 -0.875,1.375 -0.28125,0.53125 -0.625,2.25 2.0625,1.1875 1.59375,-1.6875 0.34375,-0.5 0.75,-1.4375 2.875,1.34375 -0.625,1.5 -0.15625,0.59375 -0.25,2.3125 2.21875,0.78125 1.3125,-1.90625 0.25,-0.5625 0.5,-1.53125 3.03125,0.8125 -0.34375,1.5625 -0.0625,0.625 0.1875,2.3125 2.3125,0.40625 0.9375,-2.125 0.15625,-0.59375 0.21875,-1.59375 3.15625,0.28125 -0.0625,1.625 0.0312,0.59375 0.5625,2.25 2.375,0 0.5625,-2.25 0.0312,-0.59375 -0.0625,-1.625 3.15625,-0.28125 0.21875,1.59375 0.125,0.59375 0.96875,2.125 2.3125,-0.40625 0.1875,-2.3125 -0.0625,-0.625 -0.375,-1.5625 3.0625,-0.8125 0.5,1.53125 0.25,0.5625 1.3125,1.90625 2.21875,-0.78125 -0.25,-2.3125 -0.15625,-0.59375 -0.625,-1.5 2.875,-1.34375 0.75,1.4375 0.34375,0.5 1.59375,1.6875 2.0625,-1.1875 -0.625,-2.25 -0.28125,-0.53125 -0.875,-1.375 2.59375,-1.8125 1,1.28125 0.40625,0.4375 1.90625,1.375 1.78125,-1.53125 -1,-2.09375 -0.34375,-0.5 -1.125,-1.1875 2.25,-2.21875 1.1875,1.09375 0.5,0.34375 2.09375,1 1.53125,-1.78125 -1.375,-1.90625 -0.4375,-0.40625 -1.28125,-1 1.8125,-2.59375 1.375,0.875 0.53125,0.28125 2.25,0.625 1.1875,-2.0625 -1.6875,-1.59375 -0.5,-0.34375 -1.4375,-0.75 1.34375,-2.875 1.5,0.625 0.59375,0.15625 2.3125,0.25 0.78125,-2.21875 -1.90625,-1.3125 -0.5625,-0.25 -1.53125,-0.5 0.8125,-3.0625 1.5625,0.375 0.625,0.0625 2.3125,-0.1875 0.40625,-2.3125 -2.125,-0.9375 -0.59375,-0.15625 -1.59375,-0.21875 0.28125,-3.15625 1.625,0.0625 0.59375,-0.0312 2.25,-0.5625 0,-2.375 -2.25,-0.5625 -0.59375,-0.0312 -1.625,0.0625 -0.28125,-3.15625 1.59375,-0.21875 0.59375,-0.15625 2.125,-0.9375 -0.40625,-2.3125 -2.3125,-0.1875 -0.625,0.0625 -1.5625,0.375 -0.8125,-3.0625 1.53125,-0.5 0.5625,-0.25 1.90625,-1.3125 -0.78125,-2.21875 -2.3125,0.25 -0.59375,0.15625 -1.5,0.625 -1.34375,-2.875 1.4375,-0.75 0.5,-0.34375 1.6875,-1.59375 -1.1875,-2.0625 -2.25,0.625 -0.53125,0.28125 -1.375,0.875 -1.8125,-2.59375 1.28125,-1 0.4375,-0.40625 1.375,-1.90625 -1.53125,-1.78125 -2.09375,1 -0.5,0.34375 -1.1875,1.09375 -2.25,-2.21875 1.125,-1.1875 0.34375,-0.5 1,-2.09375 -1.78125,-1.53125 -1.90625,1.375 -0.40625,0.4375 -1,1.28125 -2.59375,-1.8125 0.875,-1.375 0.28125,-0.53125 0.625,-2.25 -2.0625,-1.1875 -1.59375,1.6875 -0.34375,0.5 -0.75,1.4375 -2.875,-1.34375 0.625,-1.5 0.15625,-0.59375 0.25,-2.3125 -2.21875,-0.78125 -1.3125,1.90625 -0.25,0.5625 -0.5,1.53125 -3.0625,-0.8125 0.375,-1.5625 0.0625,-0.625 -0.1875,-2.3125 -2.3125,-0.40625 -0.96875,2.125 -0.125,0.59375 -0.21875,1.59375 -3.15625,-0.28125 0.0625,-1.625 -0.0312,-0.59375 -0.5625,-2.25 -2.375,0 z m 1.1875,11.25 c 17.14447,-10e-6 31.0625,13.91803 31.0625,31.0625 0,17.14447 -13.91803,31.0625 -31.0625,31.0625 -17.14447,-10e-6 -31.0625,-13.91803 -31.0625,-31.0625 -1e-5,-17.14447 13.91803,-31.0625 31.0625,-31.0625 z"
           id="path5279"
           style="fill:#c8c4b7;fill-opacity:1;stroke:#6c6c6c;stroke-opacity:1" />
        <path
           d="m -278.99969,415.48873 c -3.86717,0 -7.5529,0.73797 -10.96876,2.03125 l 3.6875,1.8125 2.25,3.34375 1.15626,5.5 7.78124,0 1.15626,-5.5 2.25,-3.34375 3.6875,-1.8125 c -3.41751,-1.29471 -7.13059,-2.03125 -11,-2.03125 z m -19.65626,7.0625 c -5.72759,4.69344 -9.72924,11.37126 -10.96874,19 l 3.375,-2.28125 4.03124,-0.28125 5.34376,1.75 3.90624,-6.75 -4.1875,-3.75 -1.78124,-3.625 0.28124,-4.0625 z m 39.3125,0 0.28126,4.0625 -1.75,3.625 -4.1875,3.75 3.875,6.75 5.34374,-1.75 4.03125,0.28125 3.40626,2.3125 c -1.23386,-7.6419 -5.26413,-14.33154 -11.00001,-19.03125 z m 11.00001,29 -3.40626,2.3125 -4.03125,0.28125 -5.34374,-1.75 -3.875,6.71875 4.1875,3.78125 1.75,3.625 -0.28126,4.0625 c 5.73588,-4.69971 9.76615,-11.38934 11.00001,-19.03125 z m -61.28125,0.0312 c 1.2395,7.62874 5.24115,14.30657 10.96874,19 l -0.28124,-4.0625 1.78124,-3.625 4.1875,-3.78125 -3.90624,-6.71875 -5.34376,1.75 -4.03124,-0.28125 -3.375,-2.28125 z m 26.75,13.375 -1.15626,5.5 -2.25,3.34375 -3.6875,1.8125 c 3.41586,1.29328 7.10159,2 10.96876,2 3.86941,0 7.58249,-0.70529 11,-2 l -3.6875,-1.8125 -2.25,-3.34375 -1.15626,-5.5 -7.78124,0 z"
           id="path5281"
           style="fill:#c8c4b7;fill-opacity:1;fill-rule:nonzero;stroke:#6c6c6c;stroke-width:1.88235295;stroke-linecap:butt;stroke-linejoin:miter;stroke-miterlimit:4;stroke-opacity:1;stroke-dasharray:none;stroke-dashoffset:0;marker:none;visibility:visible;display:inline;overflow:visible;enable-background:new" />
        <path
           d="m -281.8125,414.625 c -27.00979,0 -48.875,21.8652 -48.875,48.875 0,27.00979 21.86521,48.87499 48.875,48.875 27.00979,0 48.87501,-21.86522 48.875,-48.875 0,-27.00979 -21.86521,-48.87499 -48.875,-48.875 z m 0,1.3125 c 26.21958,-10e-6 47.5625,21.34292 47.5625,47.5625 0,26.21958 -21.34292,47.5625 -47.5625,47.5625 -26.21958,10e-6 -47.5625,-21.34292 -47.5625,-47.5625 -10e-6,-26.21958 21.34292,-47.5625 47.5625,-47.5625 z"
           id="path5283"
           inkscape:original="M -281.8125 410.46875 C -311.07994 410.46875 -334.84375 434.23255 -334.84375 463.5 C -334.84375 492.76744 -311.07994 516.53124 -281.8125 516.53125 C -252.54506 516.53125 -228.78124 492.76743 -228.78125 463.5 C -228.78125 434.23256 -252.54506 410.46876 -281.8125 410.46875 z M -281.8125 420.09375 C -257.84886 420.09374 -238.40625 439.53636 -238.40625 463.5 C -238.40625 487.46364 -257.84886 506.90625 -281.8125 506.90625 C -305.77614 506.90626 -325.21875 487.46364 -325.21875 463.5 C -325.21876 439.53636 -305.77614 420.09375 -281.8125 420.09375 z "
           inkscape:radius="-4.1707759"
           sodipodi:type="inkscape:offset"
           style="fill:#ffffff;fill-opacity:1;fill-rule:nonzero;stroke:none;stroke-width:3.21337724;marker:none;visibility:visible;display:inline;overflow:visible;filter:url(#filter5216);enable-background:new"
           transform="translate(2.8284271,-16.948762)" />
      </g>
      <path
         d="m 19.755209,49.791394 c -2.656655,0.133796 -4.75696,2.317056 -4.75696,5.0081 l 0,43.831988 c 0,2.777858 2.237637,5.015478 5.01549,5.015478 l 93.972101,0 c 2.77786,0 5.01549,-2.23762 5.01549,-5.015478 l 0,-43.831988 c 0,-2.777854 -2.23763,-5.0081 -5.01549,-5.0081 l -93.972101,0 c -0.08681,0 -0.172831,-0.0043 -0.25853,0 z m 8.117854,12.054907 79.427927,0 c 3.23308,0 5.83539,2.602305 5.83539,5.835395 l 0,15.84422 c 0,3.233089 -2.60231,5.835404 -5.83539,5.835404 l -79.427927,0 c -3.233087,0 -5.8354,-2.602315 -5.8354,-5.835404 l 0,-15.84422 c 0,-3.23309 2.602313,-5.835395 5.8354,-5.835395 z"
         id="rect3279"
         style="fill:url(#linearGradient3475);fill-opacity:1;fill-rule:nonzero;stroke:url(#linearGradient3477);stroke-width:1.85550952;stroke-linecap:butt;stroke-linejoin:miter;stroke-miterlimit:4;stroke-opacity:1;stroke-dasharray:none;stroke-dashoffset:0;marker:none;visibility:visible;display:inline;overflow:visible;enable-background:new" />
      <path
         d="m -5.588458,199.75546 c -1.905033,0 -3.508583,1.11227 -4.207505,2.73602 59.78426,4.67469 76.330958,12.86556 90.081993,21.28278 0.68971,-0.80029 1.11127,-1.84405 1.11127,-3.00427 l 0,-16.43149 c 0,-2.5649 -2.01814,-4.58304 -4.58303,-4.58304 l -82.402728,0 z"
         id="path5295"
         style="opacity:0.2;fill:#ffffff;fill-opacity:1;fill-rule:nonzero;stroke:none;stroke-width:8.46211529;marker:none;visibility:visible;display:inline;overflow:visible;filter:url(#filter3371);enable-background:new"
         transform="matrix(0.9638096,0,0,0.9638096,33.266659,-129.25432)" />
      <path
         d="m 19.356334,36.196031 c -5e-6,0.167433 -0.0234,0.313932 -0.07017,0.439507 -0.04432,0.123107 -0.108341,0.230215 -0.19205,0.321315 -0.08372,0.08864 -0.184669,0.164965 -0.302851,0.228982 -0.115727,0.06403 -0.244992,0.118191 -0.387795,0.162507 l 0,0.03693 c 0.174812,0.04432 0.333623,0.105874 0.476434,0.184666 0.145266,0.07632 0.269607,0.171124 0.373022,0.284381 0.10587,0.1108 0.187123,0.240066 0.243757,0.387799 0.05909,0.147732 0.08864,0.313922 0.08864,0.498588 -5e-6,0.497364 -0.180976,0.869154 -0.542914,1.115378 -0.361946,0.243757 -0.902397,0.365631 -1.621355,0.365631 l -2.437572,0 0,-0.402564 0.310236,0 c 0.05663,0 0.108336,-0.0049 0.155118,-0.01478 0.04924,-0.01231 0.0911,-0.0357 0.125572,-0.07017 0.03447,-0.03447 0.06156,-0.08372 0.08125,-0.147733 0.02216,-0.06402 0.03324,-0.15019 0.03324,-0.258532 l 0,-3.623115 c -10e-7,-0.100949 -0.01108,-0.182198 -0.03324,-0.243757 -0.0197,-0.06402 -0.04801,-0.113257 -0.08495,-0.147732 -0.03447,-0.03447 -0.07633,-0.05786 -0.125572,-0.07017 -0.04678,-0.01477 -0.09726,-0.02215 -0.151425,-0.02216 l -0.310236,0 0,-0.398873 2.208588,0 c 0.718958,0 1.259409,0.1108 1.621355,0.332399 0.361938,0.221599 0.542909,0.568773 0.542914,1.041502 m -2.474506,3.564033 0.502289,0 c 0.167426,0 0.310233,-0.01847 0.428421,-0.0554 0.118182,-0.03693 0.214207,-0.09602 0.288077,-0.177283 0.07386,-0.08372 0.126799,-0.192049 0.158811,-0.325006 0.03447,-0.132958 0.0517,-0.295466 0.05171,-0.487514 -3e-6,-0.184666 -0.01478,-0.344707 -0.04432,-0.480132 -0.02955,-0.137882 -0.08002,-0.25114 -0.151425,-0.339781 -0.07141,-0.08863 -0.16497,-0.155116 -0.28069,-0.199441 -0.115726,-0.04432 -0.260995,-0.06647 -0.435809,-0.06647 l -0.517061,0 0,2.131031 m 0,-2.592696 0.288077,0 c 0.177276,0 0.323777,-0.01847 0.439502,-0.0554 0.118183,-0.03692 0.211745,-0.09356 0.280691,-0.169891 0.0714,-0.07878 0.121874,-0.179731 0.151425,-0.302848 0.02954,-0.123107 0.04432,-0.27084 0.04432,-0.443198 -2e-6,-0.172348 -0.01724,-0.31638 -0.0517,-0.432114 -0.03201,-0.115715 -0.08495,-0.209282 -0.158812,-0.280691 -0.07387,-0.0714 -0.169894,-0.121873 -0.288077,-0.151424 -0.118188,-0.032 -0.262226,-0.04801 -0.432115,-0.04801 l -0.273304,0 0,1.883573 m 3.183618,2.651787 0.317623,0 c 0.05171,0 0.10095,-0.0049 0.147732,-0.01478 0.04678,-0.0099 0.08741,-0.02955 0.121878,-0.05909 0.03693,-0.03201 0.06525,-0.07756 0.08495,-0.136659 0.02216,-0.06155 0.03324,-0.141574 0.03324,-0.240056 l 0,-3.685907 c -1e-6,-0.100949 -0.01108,-0.180964 -0.03324,-0.240065 -0.0197,-0.06155 -0.04801,-0.108332 -0.08495,-0.140341 -0.03447,-0.03201 -0.0751,-0.05293 -0.121878,-0.06279 -0.04678,-0.01231 -0.09603,-0.01846 -0.147732,-0.01847 l -0.317623,0 0,-0.398873 2.437572,0 c 0.714033,0 1.237249,0.119426 1.569649,0.358248 0.334854,0.238842 0.502283,0.586006 0.502287,1.041512 -4e-6,0.199441 -0.02955,0.376715 -0.08864,0.53183 -0.0591,0.155125 -0.137887,0.290541 -0.23637,0.406265 -0.09603,0.115725 -0.205598,0.214207 -0.328703,0.295466 -0.123114,0.07879 -0.248686,0.144031 -0.376715,0.19574 l 0.901162,1.551184 c 0.06401,0.108332 0.125567,0.201899 0.184665,0.28069 0.06155,0.07632 0.121873,0.14034 0.180971,0.192049 0.06155,0.04924 0.124336,0.08617 0.188358,0.110799 0.06401,0.02216 0.131722,0.03324 0.203131,0.03324 l 0.02955,0 0,0.402564 -0.24745,0 c -0.226527,0 -0.424733,-0.0086 -0.59462,-0.02585 -0.167434,-0.01723 -0.315165,-0.05047 -0.443195,-0.09972 -0.125576,-0.05171 -0.235143,-0.121883 -0.328703,-0.210525 -0.0911,-0.08863 -0.176051,-0.203132 -0.254837,-0.343473 l -0.89747,-1.665675 -0.502287,0 0,1.492093 c -3e-6,0.09848 0.0098,0.178507 0.02954,0.240056 0.02216,0.0591 0.05047,0.104651 0.08495,0.136659 0.03693,0.02954 0.07879,0.04924 0.125572,0.05909 0.04678,0.0099 0.09602,0.01478 0.147731,0.01478 l 0.325009,0 0,0.402564 -2.611156,0 0,-0.402564 m 1.898352,-2.382171 0.424728,0 c 0.174813,0 0.320083,-0.02339 0.435808,-0.07017 0.118183,-0.04678 0.211746,-0.115725 0.280691,-0.206824 0.0714,-0.09357 0.121875,-0.209281 0.151425,-0.347174 0.032,-0.14034 0.04801,-0.302848 0.04801,-0.487514 -3e-6,-0.192049 -0.01724,-0.354547 -0.05171,-0.487514 -0.03447,-0.132948 -0.08864,-0.24129 -0.162505,-0.325006 -0.07387,-0.08617 -0.169894,-0.147733 -0.288077,-0.184666 -0.118188,-0.03939 -0.260994,-0.05909 -0.428421,-0.05909 l -0.409955,0 0,2.167964 m 5.355272,2.32308 1.514249,0 c 0.07632,0 0.141572,-0.01354 0.195745,-0.04063 0.05416,-0.02954 0.100946,-0.07017 0.140345,-0.121874 0.03939,-0.05171 0.07017,-0.112033 0.09233,-0.180975 0.02462,-0.0714 0.04308,-0.148956 0.0554,-0.232673 l 0.05909,-0.354556 0.524447,0 -0.0554,1.392367 -4.43195,0 0,-0.402564 0.317623,0 c 0.05417,0 0.104643,-0.0049 0.151425,-0.01478 0.04678,-0.0099 0.08741,-0.02955 0.121879,-0.05909 0.03693,-0.03201 0.06525,-0.07756 0.08495,-0.136659 0.0197,-0.06155 0.02955,-0.141574 0.02955,-0.240056 l 0,-3.656366 c -10e-7,-0.108332 -0.0099,-0.194506 -0.02955,-0.258522 -0.0197,-0.06402 -0.04678,-0.113258 -0.08125,-0.147733 -0.03447,-0.03447 -0.0751,-0.05662 -0.121878,-0.06648 -0.04678,-0.01231 -0.09849,-0.01846 -0.155119,-0.01847 l -0.317623,0 0,-0.398873 4.199273,0 0.02955,1.392368 -0.528141,0 -0.03693,-0.358248 c -0.0197,-0.184657 -0.06648,-0.326231 -0.140345,-0.424732 -0.07387,-0.09848 -0.188361,-0.147723 -0.343476,-0.147723 l -1.274185,0 0,1.890965 1.794939,0 0,0.454273 -1.794939,0 0,2.131031 m 4.465189,-1.314819 -0.217904,0.650022 c -0.0197,0.06156 -0.04063,0.134191 -0.06279,0.217907 -0.0197,0.08125 -0.02955,0.152658 -0.02955,0.214207 -1e-6,0.04925 0.0098,0.09233 0.02955,0.129266 0.0197,0.03693 0.04555,0.06771 0.07756,0.09233 0.03201,0.02216 0.06771,0.03939 0.107105,0.05171 0.04186,0.01231 0.08494,0.01847 0.129265,0.01847 l 0.317623,0 0,0.402564 -1.968524,0 0,-0.402564 0.09233,0 c 0.06648,0 0.126802,-0.0074 0.180971,-0.02216 0.05663,-0.01478 0.108336,-0.04186 0.155118,-0.08126 0.04924,-0.04186 0.09479,-0.09848 0.136652,-0.16989 0.04432,-0.0714 0.08864,-0.163732 0.132958,-0.276999 l 1.639822,-4.446719 1.037814,0 1.580729,4.454111 c 0.03693,0.105875 0.07509,0.194516 0.114492,0.265915 0.04185,0.06894 0.08617,0.124341 0.132959,0.1662 0.04924,0.03939 0.100944,0.06771 0.155118,0.08494 0.05416,0.01724 0.110793,0.02586 0.169891,0.02586 l 0.136652,0 0,0.402564 -2.496665,0 0,-0.402564 0.295463,0 c 0.03693,0 0.07509,-0.0049 0.114493,-0.01478 0.03939,-0.01231 0.07386,-0.02955 0.103412,-0.05171 0.032,-0.02462 0.05786,-0.0554 0.07756,-0.09233 0.01969,-0.03693 0.02954,-0.08125 0.02955,-0.132958 -4e-6,-0.06155 -0.0074,-0.12065 -0.02216,-0.177273 -0.01478,-0.05663 -0.02955,-0.105875 -0.04432,-0.147733 l -0.265917,-0.75713 -1.839259,0 m 1.288958,-1.702609 c -0.02709,-0.08616 -0.0554,-0.17604 -0.08494,-0.269606 -0.02709,-0.09602 -0.0554,-0.193283 -0.08495,-0.291774 -0.02709,-0.09848 -0.05417,-0.19574 -0.08125,-0.291765 -0.02463,-0.09848 -0.04678,-0.192048 -0.06648,-0.28069 -0.02216,0.07633 -0.04801,0.16005 -0.07756,0.25114 -0.02955,0.09111 -0.06156,0.184675 -0.09603,0.28069 -0.03201,0.09603 -0.06525,0.192059 -0.09972,0.288083 -0.03201,0.09602 -0.06279,0.188357 -0.09233,0.276989 l -0.446889,1.277886 1.529023,0 -0.398876,-1.240953 m 5.377432,2.585304 c -3e-6,0.108342 0.0098,0.194516 0.02955,0.258532 0.01969,0.06402 0.04678,0.113267 0.08125,0.147733 0.03693,0.03448 0.07879,0.05787 0.125572,0.07017 0.04678,0.0099 0.09725,0.01478 0.151425,0.01478 l 0.317623,0 0,0.402564 -2.611157,0 0,-0.402564 0.317623,0 c 0.05663,0 0.108335,-0.0049 0.155118,-0.01478 0.04678,-0.01231 0.08741,-0.0357 0.121879,-0.07017 0.03447,-0.03447 0.06155,-0.08372 0.08125,-0.147733 0.0197,-0.06402 0.02955,-0.15019 0.02955,-0.258532 l 0,-4.044145 -0.605699,0 c -0.113262,0 -0.208057,0.01231 -0.284384,0.03693 -0.07633,0.02463 -0.139115,0.06032 -0.188358,0.107099 -0.04678,0.04433 -0.08248,0.09972 -0.107105,0.166199 -0.02216,0.06648 -0.03816,0.141583 -0.04801,0.22529 l -0.05171,0.469048 -0.509674,0 0.04063,-1.466234 4.71264,0 0.03693,1.466234 -0.505981,0 -0.0554,-0.469048 c -0.0099,-0.08371 -0.02709,-0.158807 -0.05171,-0.22529 -0.02216,-0.06647 -0.05786,-0.121874 -0.107105,-0.166199 -0.04679,-0.04677 -0.108341,-0.08247 -0.184665,-0.107099 -0.07633,-0.02463 -0.171126,-0.03693 -0.284383,-0.03693 l -0.6057,0 0,4.044145 m 5.237088,0.893779 0,-0.402564 0.325009,0 c 0.05416,0 0.10464,-0.0049 0.151425,-0.01478 0.04678,-0.01231 0.0874,-0.0357 0.121878,-0.07017 0.03693,-0.03447 0.06524,-0.08372 0.08495,-0.147733 0.01969,-0.06402 0.02954,-0.15019 0.02955,-0.258532 l 0,-1.691524 -1.97591,0 0,1.691524 c -3e-6,0.108342 0.0098,0.194516 0.02955,0.258532 0.02216,0.06402 0.05047,0.113267 0.08495,0.147733 0.03447,0.03448 0.07509,0.05787 0.121878,0.07017 0.04678,0.0099 0.09725,0.01478 0.151425,0.01478 l 0.32501,0 0,0.402564 -2.611157,0 0,-0.402564 0.317623,0 c 0.05417,0 0.104642,-0.0049 0.151425,-0.01478 0.04678,-0.01231 0.08741,-0.0357 0.121878,-0.07017 0.03693,-0.03447 0.06525,-0.08372 0.08495,-0.147733 0.0197,-0.06402 0.02955,-0.15019 0.02955,-0.258532 l 0,-3.641581 c 0,-0.10095 -0.01108,-0.180965 -0.03324,-0.240066 -0.0197,-0.06155 -0.04801,-0.108332 -0.08495,-0.14034 -0.03447,-0.03201 -0.0751,-0.05293 -0.121878,-0.06279 -0.04678,-0.0123 -0.09603,-0.01846 -0.147732,-0.01847 l -0.317623,0 0,-0.402564 2.611157,0 0,0.402564 -0.32501,0 c -0.05417,1e-5 -0.104645,0.0062 -0.151425,0.01847 -0.04678,0.0099 -0.08741,0.03202 -0.121878,0.06648 -0.03447,0.03448 -0.06279,0.08372 -0.08495,0.147733 -0.0197,0.06402 -0.02955,0.1502 -0.02955,0.258532 l 0,1.458851 1.97591,0 0,-1.458851 c -4e-6,-0.108332 -0.0099,-0.194516 -0.02955,-0.258532 -0.0197,-0.06402 -0.04802,-0.113257 -0.08495,-0.147733 -0.03447,-0.03447 -0.0751,-0.05662 -0.121878,-0.06648 -0.04678,-0.0123 -0.09726,-0.01846 -0.151425,-0.01847 l -0.325009,0 0,-0.402564 2.611156,0 0,0.402564 -0.317623,0 c -0.05171,1e-5 -0.100955,0.0062 -0.147732,0.01847 -0.04679,0.0099 -0.08864,0.03202 -0.125572,0.06648 -0.03448,0.03448 -0.06156,0.08372 -0.08125,0.147733 -0.0197,0.06402 -0.02955,0.1502 -0.02955,0.258532 l 0,3.652665 c -5e-6,0.09848 0.0098,0.178507 0.02955,0.240056 0.02215,0.0591 0.05047,0.104651 0.08495,0.136659 0.03693,0.02954 0.07755,0.04924 0.121878,0.05909 0.04678,0.0099 0.09602,0.01478 0.147732,0.01478 l 0.317623,0 0,0.402564 -2.611156,0 m 4.934235,-0.461655 1.51425,0 c 0.07632,0 0.141572,-0.01354 0.195744,-0.04063 0.05416,-0.02954 0.100947,-0.07017 0.140345,-0.121874 0.03939,-0.05171 0.07017,-0.112033 0.09233,-0.180975 0.02462,-0.0714 0.04308,-0.148956 0.0554,-0.232673 l 0.05909,-0.354556 0.524448,0 -0.0554,1.392367 -4.431949,0 0,-0.402564 0.317623,0 c 0.05417,0 0.104642,-0.0049 0.151424,-0.01478 0.04678,-0.0099 0.08741,-0.02955 0.121879,-0.05909 0.03693,-0.03201 0.06525,-0.07756 0.08495,-0.136659 0.0197,-0.06155 0.02955,-0.141574 0.02955,-0.240056 l 0,-3.656366 c -10e-7,-0.108332 -0.0099,-0.194506 -0.02955,-0.258522 -0.0197,-0.06402 -0.04678,-0.113258 -0.08125,-0.147733 -0.03447,-0.03447 -0.0751,-0.05662 -0.121879,-0.06648 -0.04678,-0.01231 -0.09849,-0.01846 -0.155117,-0.01847 l -0.317623,0 0,-0.398873 4.199272,0 0.02955,1.392368 -0.52814,0 -0.03693,-0.358248 c -0.0197,-0.184657 -0.06648,-0.326231 -0.140345,-0.424732 -0.07387,-0.09848 -0.188361,-0.147723 -0.343475,-0.147723 l -1.274187,0 0,1.890965 1.794941,0 0,0.454273 -1.794941,0 0,2.131031"
         id="text5303"
         style="font-size:2.45246196px;font-style:normal;font-variant:normal;font-weight:normal;font-stretch:normal;line-height:125%;fill:#fffade;fill-opacity:1;stroke:none;font-family:Droid Sans;-inkscape-font-specification:Droid Sans" />
      <path
         d="m 83.204576,37.135967 -0.32501,0 0,0.55953 -0.55584,0 0,-0.55953 -1.115374,0 0,-0.397032 1.146766,-1.743232 0.524448,0 0,1.697066 0.32501,0 0,0.443198 m -0.88085,-0.443198 0,-0.457964 c -2e-6,-0.016 -2e-6,-0.03878 0,-0.06832 0.0012,-0.03077 0.0025,-0.06525 0.0037,-0.103417 0.0012,-0.03816 0.0025,-0.07756 0.0037,-0.118183 0.0025,-0.04062 0.0043,-0.07941 0.0055,-0.116341 0.0025,-0.03693 0.0043,-0.06894 0.0055,-0.09602 0.0025,-0.02832 0.0043,-0.04862 0.0055,-0.06094 l -0.01662,0 c -0.02216,0.05171 -0.0474,0.106491 -0.07571,0.164358 -0.02708,0.05786 -0.05848,0.115725 -0.09418,0.173583 l -0.450582,0.683254 0.613087,0 m 4.010914,1.002728 -0.563227,0 0,-1.205861 c -1e-6,-0.148956 -0.02216,-0.260373 -0.06648,-0.334239 -0.04432,-0.07509 -0.113878,-0.112641 -0.20867,-0.112641 -0.0714,0 -0.131114,0.01478 -0.179125,0.04432 -0.04678,0.02955 -0.08433,0.07325 -0.112646,0.131107 -0.02832,0.05787 -0.04863,0.129276 -0.06094,0.214217 -0.01231,0.08495 -0.01847,0.182198 -0.01847,0.291774 l 0,0.971327 -0.563226,0 0,-2.064548 0.430268,0 0.07571,0.264075 0.03139,0 c 0.02954,-0.05294 0.06463,-0.09849 0.105258,-0.136659 0.04186,-0.03816 0.08741,-0.06955 0.136652,-0.09417 0.04924,-0.02463 0.101565,-0.04248 0.156965,-0.05355 0.0554,-0.01232 0.111413,-0.01847 0.168044,-0.01847 0.141575,0 0.261607,0.02462 0.360097,0.07387 0.09972,0.04801 0.176045,0.124341 0.228984,0.228982 l 0.04617,0 c 0.02954,-0.05294 0.06525,-0.09849 0.107106,-0.136659 0.04185,-0.03816 0.08802,-0.06955 0.138499,-0.09417 0.05047,-0.02463 0.103409,-0.04248 0.158811,-0.05355 0.05663,-0.01232 0.113258,-0.01847 0.169891,-0.01847 0.221595,0 0.388409,0.06033 0.500441,0.180965 0.113258,0.119416 0.169889,0.311475 0.169892,0.576156 l 0,1.346201 -0.565074,0 0,-1.205861 c -3e-6,-0.148956 -0.02216,-0.260373 -0.06648,-0.334239 -0.04432,-0.07509 -0.113879,-0.112641 -0.208671,-0.112641 -0.134191,0 -0.229602,0.05355 -0.28623,0.160658 -0.05663,0.105874 -0.08495,0.257915 -0.08495,0.456123 l 0,1.03596 m 3.560333,0 -0.563227,0 0,-1.205861 c -10e-7,-0.148956 -0.02216,-0.260373 -0.06648,-0.334239 -0.04432,-0.07509 -0.113878,-0.112641 -0.208671,-0.112641 -0.0714,0 -0.131113,0.01478 -0.179124,0.04432 -0.04678,0.02955 -0.08433,0.07325 -0.112646,0.131107 -0.02832,0.05787 -0.04863,0.129276 -0.06094,0.214217 -0.01231,0.08495 -0.01847,0.182198 -0.01847,0.291774 l 0,0.971327 -0.563227,0 0,-2.064548 0.430268,0 0.07571,0.264075 0.03139,0 c 0.02954,-0.05294 0.06463,-0.09849 0.105259,-0.136659 0.04186,-0.03816 0.08741,-0.06955 0.136651,-0.09417 0.04924,-0.02463 0.101564,-0.04248 0.156965,-0.05355 0.0554,-0.01232 0.111414,-0.01847 0.168045,-0.01847 0.141575,0 0.261607,0.02462 0.360096,0.07387 0.09972,0.04801 0.176045,0.124341 0.228985,0.228982 l 0.04617,0 c 0.02954,-0.05294 0.06525,-0.09849 0.107105,-0.136659 0.04186,-0.03816 0.08802,-0.06955 0.138499,-0.09417 0.05047,-0.02463 0.10341,-0.04248 0.158812,-0.05355 0.05663,-0.01232 0.113258,-0.01847 0.169891,-0.01847 0.221595,0 0.388408,0.06033 0.500441,0.180965 0.113257,0.119416 0.169888,0.311475 0.169892,0.576156 l 0,1.346201 -0.565074,0 0,-1.205861 c -3e-6,-0.148956 -0.02216,-0.260373 -0.06648,-0.334239 -0.04432,-0.07509 -0.11388,-0.112641 -0.208671,-0.112641 -0.134193,0 -0.229602,0.05355 -0.286231,0.160658 -0.05663,0.105874 -0.08495,0.257915 -0.08495,0.456123 l 0,1.03596 M 94.79769,36.31977 c -3e-6,0.227757 -0.0314,0.427815 -0.09418,0.600164 -0.06156,0.171124 -0.151427,0.314549 -0.26961,0.430264 -0.116956,0.1145 -0.260994,0.200675 -0.432115,0.258532 -0.169892,0.05787 -0.363791,0.08679 -0.581694,0.08679 l -0.710958,0 0,-2.699794 0.790365,0 c 0.198204,9e-6 0.376713,0.02832 0.535526,0.08495 0.160042,0.05663 0.296693,0.140957 0.409956,0.25299 0.113259,0.1108 0.200051,0.248682 0.260377,0.413648 0.06155,0.164966 0.09233,0.35579 0.09233,0.572455 m -0.579848,0.01478 c -2e-6,-0.150191 -0.01539,-0.279457 -0.04617,-0.387789 -0.02955,-0.109566 -0.07325,-0.200058 -0.131112,-0.271457 -0.05663,-0.07141 -0.126804,-0.124341 -0.210517,-0.158817 -0.08248,-0.03446 -0.177279,-0.05171 -0.284384,-0.05171 l -0.26407,0 0,1.758008 0.210518,0 c 0.241294,0 0.422264,-0.07387 0.542913,-0.221599 0.121878,-0.147733 0.182816,-0.369939 0.182818,-0.666638 m 2.297228,1.360976 -0.108952,-0.28069 -0.01662,0 c -0.04063,0.0554 -0.08125,0.103417 -0.121878,0.144041 -0.04063,0.0394 -0.08495,0.07202 -0.132959,0.09788 -0.04801,0.02585 -0.102182,0.04493 -0.162505,0.05724 -0.05909,0.01232 -0.128035,0.01847 -0.206824,0.01847 -0.08371,0 -0.161274,-0.01292 -0.232678,-0.03877 -0.0714,-0.02708 -0.133574,-0.0671 -0.186511,-0.120033 -0.05171,-0.05417 -0.09233,-0.121883 -0.121878,-0.203132 -0.02955,-0.08248 -0.04432,-0.179741 -0.04432,-0.291774 0,-0.219132 0.07017,-0.380406 0.210517,-0.483813 0.140345,-0.104651 0.350247,-0.162508 0.629707,-0.173592 l 0.328703,-0.01107 0,-0.155125 c -10e-7,-0.08494 -0.02462,-0.147724 -0.07387,-0.188358 -0.04924,-0.04062 -0.118187,-0.06093 -0.206825,-0.06093 -0.08864,0 -0.175431,0.01293 -0.260377,0.03877 -0.08371,0.02586 -0.168045,0.06032 -0.25299,0.103417 l -0.182817,-0.373023 c 0.103411,-0.05786 0.217903,-0.103407 0.343475,-0.136649 0.125571,-0.03324 0.257299,-0.04986 0.395183,-0.04987 0.257297,10e-6 0.454273,0.06032 0.590926,0.180975 0.137881,0.12065 0.206823,0.304082 0.206825,0.550297 l 0,1.375751 -0.393336,0 m -0.166059,-0.9566 -0.186511,0.0074 c -0.0751,0.0025 -0.138499,0.01231 -0.190205,0.02954 -0.05171,0.01724 -0.09356,0.04063 -0.125572,0.07017 -0.03078,0.02832 -0.05355,0.06278 -0.06833,0.103417 -0.01354,0.03939 -0.02031,0.08371 -0.02031,0.132958 -10e-7,0.08617 0.02093,0.147732 0.06279,0.184656 0.04186,0.03571 0.09664,0.05356 0.164352,0.05356 0.0517,0 0.09972,-0.0086 0.144038,-0.02586 0.04432,-0.01846 0.08248,-0.04493 0.114492,-0.0794 0.03324,-0.0357 0.05909,-0.07879 0.07756,-0.129266 0.01847,-0.05171 0.0277,-0.110799 0.0277,-0.177283 l 0,-0.169891 m 1.977756,0.544765 c 0.0554,0 0.10772,-0.0062 0.156965,-0.01847 0.05047,-0.01231 0.101565,-0.0277 0.153272,-0.04617 l 0,0.419189 c -0.05294,0.02708 -0.118802,0.04924 -0.197591,0.06647 -0.07756,0.01847 -0.162506,0.0277 -0.254838,0.0277 -0.08987,0 -0.173585,-0.01046 -0.251143,-0.03139 -0.07756,-0.02092 -0.144655,-0.05724 -0.201284,-0.108949 -0.05663,-0.05294 -0.101566,-0.123107 -0.134805,-0.210515 -0.03201,-0.08864 -0.04801,-0.199442 -0.04801,-0.332399 l 0,-0.995345 -0.269611,0 0,-0.238216 0.310237,-0.188357 0.162505,-0.435806 0.360096,0 0,0.439497 0.502287,0 0,0.422882 -0.502287,0 0,0.995345 c -1e-6,0.08002 0.0197,0.139116 0.05909,0.177273 0.03939,0.03817 0.0911,0.05725 0.155118,0.05725 m 1.926049,0.411797 -0.10895,-0.28069 -0.0166,0 c -0.0406,0.0554 -0.0813,0.103417 -0.12188,0.144041 -0.04063,0.0394 -0.08495,0.07202 -0.132955,0.09788 -0.04801,0.02585 -0.102182,0.04493 -0.162505,0.05724 -0.05909,0.01232 -0.128034,0.01847 -0.206824,0.01847 -0.08372,0 -0.161274,-0.01292 -0.232677,-0.03877 -0.0714,-0.02708 -0.133574,-0.0671 -0.186511,-0.120033 -0.05171,-0.05417 -0.09233,-0.121883 -0.121879,-0.203132 -0.02955,-0.08248 -0.04432,-0.179741 -0.04432,-0.291774 0,-0.219132 0.07017,-0.380406 0.210518,-0.483813 0.140345,-0.104651 0.350247,-0.162508 0.629706,-0.173592 l 0.328697,-0.01107 0,-0.155125 c 0,-0.08494 -0.0246,-0.147724 -0.0739,-0.188358 -0.04924,-0.04062 -0.118186,-0.06093 -0.206823,-0.06093 -0.08864,0 -0.175433,0.01293 -0.260377,0.03877 -0.08372,0.02586 -0.168046,0.06032 -0.252991,0.103417 l -0.182818,-0.373023 c 0.103412,-0.05786 0.217904,-0.103407 0.343476,-0.136649 0.125571,-0.03324 0.257298,-0.04986 0.395182,-0.04987 0.257291,1e-5 0.454271,0.06032 0.590921,0.180975 0.13788,0.12065 0.20682,0.304082 0.20682,0.550297 l 0,1.375751 -0.39333,0 m -0.1662,-0.956562 -0.186505,0.0074 c -0.0751,0.0025 -0.138499,0.01231 -0.190205,0.02954 -0.05171,0.01724 -0.09356,0.04063 -0.125572,0.07017 -0.03078,0.02832 -0.05355,0.06278 -0.06833,0.103417 -0.01354,0.03939 -0.02031,0.08371 -0.02031,0.132958 -10e-7,0.08617 0.02093,0.147732 0.06279,0.184656 0.04186,0.03571 0.09664,0.05356 0.164351,0.05356 0.05171,0 0.09972,-0.0086 0.144038,-0.02586 0.04432,-0.01846 0.08248,-0.04493 0.114492,-0.0794 0.03324,-0.0357 0.05909,-0.07879 0.07756,-0.129266 0.0185,-0.05171 0.0277,-0.110799 0.0277,-0.177283 l 0,-0.169891 m 3.31288,-1.305576 c -0.10957,0 -0.20682,0.02155 -0.29177,0.06463 -0.0837,0.04186 -0.1545,0.1028 -0.21236,0.182815 -0.0566,0.07879 -0.0997,0.175433 -0.12927,0.289924 -0.0295,0.113267 -0.0443,0.240682 -0.0443,0.382256 0,0.144042 0.0129,0.272074 0.0388,0.384107 0.0271,0.112024 0.0677,0.206824 0.12188,0.284382 0.0554,0.07632 0.12557,0.134808 0.21052,0.175433 0.0862,0.03939 0.18836,0.05909 0.30654,0.05909 0.10957,0 0.21914,-0.01231 0.32871,-0.03693 0.11079,-0.02463 0.23082,-0.05971 0.36009,-0.105258 l 0,0.480122 c -0.0591,0.02463 -0.11757,0.04556 -0.17543,0.06279 -0.0579,0.01723 -0.11696,0.03139 -0.17728,0.04248 -0.0603,0.01107 -0.12249,0.01907 -0.18651,0.024 -0.0628,0.0062 -0.1305,0.0092 -0.20313,0.0092 -0.20806,0 -0.38841,-0.03323 -0.54107,-0.09972 -0.15265,-0.06648 -0.27884,-0.16004 -0.37856,-0.28069 -0.0997,-0.120649 -0.17358,-0.265915 -0.2216,-0.435806 -0.048,-0.16989 -0.072,-0.358864 -0.072,-0.566922 0,-0.204357 0.0277,-0.39149 0.0831,-0.561381 0.0554,-0.171124 0.13665,-0.31824 0.24376,-0.441347 0.1071,-0.123108 0.23945,-0.218515 0.39703,-0.286232 0.15758,-0.06894 0.33855,-0.103408 0.54291,-0.103408 0.13419,0 0.26838,0.01723 0.40257,0.0517 0.13542,0.03324 0.26469,0.07941 0.3878,0.1385 l -0.18467,0.465356 c -0.10095,-0.04801 -0.20251,-0.08987 -0.30469,-0.125575 -0.10219,-0.0357 -0.20252,-0.05355 -0.30101,-0.05355 m 2.41542,2.262138 -0.10896,-0.28069 -0.0166,0 c -0.0406,0.0554 -0.0812,0.103417 -0.12188,0.144041 -0.0406,0.0394 -0.0849,0.07202 -0.13295,0.09788 -0.048,0.02585 -0.10219,0.04493 -0.16251,0.05724 -0.0591,0.01232 -0.12803,0.01847 -0.20682,0.01847 -0.0837,0 -0.16128,-0.01292 -0.23268,-0.03877 -0.0714,-0.02708 -0.13358,-0.0671 -0.18651,-0.120033 -0.0517,-0.05417 -0.0923,-0.121883 -0.12188,-0.203132 -0.0296,-0.08248 -0.0443,-0.179741 -0.0443,-0.291774 0,-0.219132 0.0702,-0.380406 0.21052,-0.483813 0.14034,-0.104651 0.35024,-0.162508 0.6297,-0.173592 l 0.32871,-0.01107 0,-0.155125 c 0,-0.08494 -0.0246,-0.147724 -0.0739,-0.188358 -0.0492,-0.04062 -0.11819,-0.06093 -0.20682,-0.06093 -0.0886,0 -0.17543,0.01293 -0.26038,0.03877 -0.0837,0.02586 -0.16805,0.06032 -0.25299,0.103417 l -0.18282,-0.373023 c 0.10341,-0.05786 0.2179,-0.103407 0.34348,-0.136649 0.12557,-0.03324 0.2573,-0.04986 0.39518,-0.04987 0.2573,10e-6 0.45427,0.06032 0.59093,0.180975 0.13788,0.12065 0.20682,0.304082 0.20682,0.550297 l 0,1.375751 -0.39333,0 m -0.1662,-0.956562 -0.18651,0.0074 c -0.0751,0.0025 -0.1385,0.01231 -0.19021,0.02954 -0.0517,0.01724 -0.0936,0.04063 -0.12557,0.07017 -0.0308,0.02832 -0.0536,0.06278 -0.0683,0.103417 -0.0135,0.03939 -0.0203,0.08371 -0.0203,0.132958 0,0.08617 0.0209,0.147732 0.0628,0.184656 0.0418,0.03571 0.0966,0.05356 0.16435,0.05356 0.0517,0 0.0997,-0.0086 0.14404,-0.02586 0.0443,-0.01846 0.0825,-0.04493 0.11449,-0.0794 0.0332,-0.0357 0.0591,-0.07879 0.0776,-0.129266 0.0185,-0.05171 0.0277,-0.110799 0.0277,-0.177283 l 0,-0.169891 m 2.21597,-1.14676 c 0.0148,0 0.0308,6.17e-4 0.048,0.0018 0.0185,0 0.0357,0.0012 0.0517,0.0037 0.0172,0.0012 0.0326,0.0031 0.0462,0.0055 0.0148,0.0012 0.0259,0.0031 0.0332,0.0055 l 0,0.528139 c -0.01,-0.0025 -0.0234,-0.0049 -0.0406,-0.0074 -0.0172,-0.0025 -0.0357,-0.0043 -0.0554,-0.0055 -0.0185,-0.0025 -0.0369,-0.0037 -0.0554,-0.0037 -0.0185,-0.0012 -0.0339,-0.0018 -0.0462,-0.0018 -0.0726,0 -0.13973,0.0092 -0.20129,0.0277 -0.0603,0.01847 -0.11264,0.04863 -0.15696,0.09048 -0.0431,0.04063 -0.077,0.0948 -0.10157,0.162508 -0.0234,0.06648 -0.0351,0.148349 -0.0351,0.245607 l 0,1.050736 -0.56323,0 0,-2.064548 0.42657,0 0.0831,0.310241 0.0277,0 c 0.0295,-0.05294 0.0616,-0.100949 0.096,-0.144041 0.0345,-0.04308 0.0726,-0.07941 0.11449,-0.108949 0.0431,-0.03077 0.0911,-0.05417 0.14404,-0.07017 0.0542,-0.01723 0.11572,-0.02585 0.18466,-0.02585 m 1.40161,1.691525 c 0.0554,0 0.10772,-0.0062 0.15696,-0.01847 0.0505,-0.01231 0.10157,-0.0277 0.15327,-0.04617 l 0,0.419189 c -0.0529,0.02708 -0.1188,0.04924 -0.19759,0.06647 -0.0776,0.01847 -0.1625,0.0277 -0.25484,0.0277 -0.0899,0 -0.17358,-0.01046 -0.25114,-0.03139 -0.0776,-0.02092 -0.14465,-0.05724 -0.20128,-0.108949 -0.0566,-0.05294 -0.10157,-0.123107 -0.13481,-0.210515 -0.032,-0.08864 -0.048,-0.199442 -0.048,-0.332399 l 0,-0.995345 -0.26961,0 0,-0.238216 0.31024,-0.188357 0.1625,-0.435806 0.3601,0 0,0.439497 0.50228,0 0,0.422882 -0.50228,0 0,0.995345 c -1e-5,0.08002 0.0197,0.139116 0.0591,0.177273 0.0394,0.03817 0.0911,0.05725 0.15512,0.05725 m 1.80417,-1.691525 c 0.0148,0 0.0308,6.17e-4 0.048,0.0018 0.0185,0 0.0357,0.0012 0.0517,0.0037 0.0172,0.0012 0.0326,0.0031 0.0462,0.0055 0.0148,0.0012 0.0259,0.0031 0.0332,0.0055 l 0,0.528139 c -0.01,-0.0025 -0.0234,-0.0049 -0.0406,-0.0074 -0.0172,-0.0025 -0.0357,-0.0043 -0.0554,-0.0055 -0.0185,-0.0025 -0.0369,-0.0037 -0.0554,-0.0037 -0.0185,-0.0012 -0.0339,-0.0018 -0.0462,-0.0018 -0.0726,0 -0.13973,0.0092 -0.20128,0.0277 -0.0603,0.01847 -0.11265,0.04863 -0.15697,0.09048 -0.0431,0.04063 -0.0769,0.0948 -0.10156,0.162508 -0.0234,0.06648 -0.0351,0.148349 -0.0351,0.245607 l 0,1.050736 -0.56323,0 0,-2.064548 0.42658,0 0.0831,0.310241 0.0277,0 c 0.0295,-0.05294 0.0615,-0.100949 0.096,-0.144041 0.0345,-0.04308 0.0726,-0.07941 0.1145,-0.108949 0.0431,-0.03077 0.0911,-0.05417 0.14403,-0.07017 0.0542,-0.01723 0.11573,-0.02585 0.18467,-0.02585 m 0.53922,-0.494906 c 0,-0.05293 0.008,-0.09664 0.024,-0.131107 0.016,-0.0357 0.0375,-0.06402 0.0646,-0.08495 0.0283,-0.02216 0.0609,-0.03754 0.0979,-0.04617 0.0382,-0.0086 0.0782,-0.01293 0.12003,-0.01293 0.0419,0 0.0813,0.0043 0.11819,0.01293 0.0369,0.0086 0.0689,0.02401 0.096,0.04617 0.0283,0.02093 0.0505,0.04925 0.0665,0.08495 0.0172,0.03447 0.0258,0.07817 0.0259,0.131107 -1e-5,0.05171 -0.009,0.09542 -0.0259,0.131116 -0.016,0.0357 -0.0382,0.06463 -0.0665,0.08679 -0.0271,0.02092 -0.0591,0.03632 -0.096,0.04617 -0.0369,0.0086 -0.0763,0.01293 -0.11819,0.01293 -0.0419,0 -0.0819,-0.0043 -0.12003,-0.01293 -0.0369,-0.0099 -0.0696,-0.02524 -0.0979,-0.04617 -0.0271,-0.02216 -0.0486,-0.05109 -0.0646,-0.08679 -0.016,-0.0357 -0.024,-0.07941 -0.024,-0.131116 m 0.58723,2.598228 -0.56322,0 0,-2.064548 0.56322,0 0,2.064548 m 1.19663,0.03693 c -0.10588,0 -0.20252,-0.02278 -0.28992,-0.06832 -0.0874,-0.04555 -0.16251,-0.112641 -0.2253,-0.201282 -0.0628,-0.08987 -0.11202,-0.201282 -0.14773,-0.33424 -0.0345,-0.132957 -0.0517,-0.286849 -0.0517,-0.461665 0,-0.177273 0.0172,-0.332398 0.0517,-0.465356 0.0357,-0.134191 0.0856,-0.246215 0.14958,-0.33609 0.0652,-0.0911 0.14281,-0.159424 0.23268,-0.204973 0.0899,-0.04555 0.18897,-0.06833 0.29731,-0.06833 0.0665,0 0.12742,0.008 0.18282,0.024 0.0554,0.01478 0.10525,0.03633 0.14958,0.06463 0.0443,0.02709 0.0837,0.0591 0.11818,0.09602 0.0357,0.03571 0.0671,0.0751 0.0942,0.118192 l 0.0185,0 c -0.007,-0.04802 -0.0142,-0.09664 -0.0203,-0.145892 -0.006,-0.04185 -0.0117,-0.08617 -0.0166,-0.132958 -0.004,-0.04801 -0.006,-0.09232 -0.006,-0.132957 l 0,-0.661097 0.56323,0 0,2.873377 -0.43027,0 -0.10895,-0.267756 -0.024,0 c -0.0258,0.04185 -0.0554,0.08187 -0.0886,0.120023 -0.0332,0.03693 -0.072,0.06895 -0.11633,0.09603 -0.0431,0.02708 -0.0923,0.04862 -0.14774,0.06463 -0.0542,0.016 -0.11572,0.024 -0.18466,0.024 m 0.20498,-0.44873 c 0.0665,0 0.12311,-0.01108 0.16989,-0.03324 0.0468,-0.02339 0.0843,-0.05786 0.11264,-0.103407 0.0296,-0.04678 0.0511,-0.104651 0.0646,-0.173592 0.0148,-0.06894 0.0228,-0.149574 0.024,-0.241906 l 0,-0.06094 c 0,-0.09972 -0.006,-0.188357 -0.0185,-0.265915 -0.0123,-0.07756 -0.0326,-0.142191 -0.0609,-0.193899 -0.0283,-0.05293 -0.0665,-0.09295 -0.1145,-0.120033 -0.048,-0.02708 -0.10833,-0.04062 -0.18097,-0.04062 -0.11818,0 -0.20498,0.05356 -0.26037,0.160658 -0.0554,0.105874 -0.0831,0.260382 -0.0831,0.463505 0,0.203133 0.0277,0.355791 0.0831,0.457974 0.0566,0.100949 0.14465,0.151424 0.26407,0.151424 m 3.19285,-1.649059 0,0.306549 -0.301,0.09417 c 0.0246,0.04186 0.0418,0.08557 0.0517,0.131117 0.01,0.04432 0.0148,0.09233 0.0148,0.144031 0,0.104651 -0.0166,0.200675 -0.0499,0.288083 -0.0332,0.08617 -0.0825,0.160041 -0.14773,0.221599 -0.0653,0.06155 -0.14711,0.109566 -0.2456,0.144032 -0.0985,0.03324 -0.21298,0.04987 -0.34348,0.04986 -0.0283,9e-6 -0.0591,-0.0012 -0.0923,-0.0037 -0.0332,-0.0037 -0.0579,-0.0074 -0.0739,-0.01107 -0.0246,0.02092 -0.0443,0.04308 -0.0591,0.06647 -0.0135,0.02216 -0.0203,0.04925 -0.0203,0.08126 0,0.02585 0.008,0.04677 0.024,0.06278 0.016,0.01478 0.0369,0.02708 0.0628,0.03693 0.0258,0.0086 0.056,0.01478 0.0905,0.01847 0.0345,0.0025 0.0702,0.0037 0.1071,0.0037 l 0.32132,0 c 0.0997,0 0.18897,0.0117 0.26776,0.03508 0.0788,0.02217 0.14527,0.05663 0.19944,0.103417 0.0554,0.04678 0.0979,0.106491 0.12742,0.179124 0.0295,0.07141 0.0443,0.156966 0.0443,0.256682 0,0.116958 -0.0234,0.222216 -0.0702,0.315782 -0.0468,0.09479 -0.11696,0.174816 -0.21052,0.240056 -0.0923,0.06648 -0.20744,0.116959 -0.34532,0.151434 -0.13789,0.0357 -0.29732,0.05355 -0.47829,0.05355 -0.14034,0 -0.26284,-0.01354 -0.36748,-0.04062 -0.10464,-0.02586 -0.19205,-0.06402 -0.26222,-0.114491 -0.0702,-0.04925 -0.12311,-0.108959 -0.15881,-0.179124 -0.0345,-0.07017 -0.0517,-0.149583 -0.0517,-0.238225 0,-0.07509 0.0129,-0.14034 0.0388,-0.19574 0.0258,-0.0554 0.0603,-0.1028 0.10341,-0.142191 0.0431,-0.0394 0.0917,-0.07141 0.14589,-0.09602 0.0554,-0.02463 0.11203,-0.04371 0.16989,-0.05725 -0.0259,-0.01107 -0.0517,-0.02647 -0.0776,-0.04617 -0.0246,-0.0197 -0.0474,-0.04247 -0.0683,-0.06832 -0.0197,-0.02585 -0.0363,-0.05417 -0.0499,-0.08495 -0.0123,-0.03201 -0.0185,-0.06524 -0.0185,-0.09972 0,-0.03939 0.006,-0.0751 0.0166,-0.107108 0.0123,-0.03201 0.0295,-0.06155 0.0517,-0.08863 0.0222,-0.02832 0.0499,-0.05478 0.0831,-0.07941 0.0332,-0.02463 0.0708,-0.04986 0.11265,-0.07572 -0.10834,-0.04677 -0.19452,-0.121873 -0.25853,-0.22529 -0.0628,-0.103407 -0.0942,-0.225291 -0.0942,-0.365631 0,-0.110799 0.0172,-0.209898 0.0517,-0.297316 0.0345,-0.0874 0.085,-0.161264 0.15143,-0.221589 0.0665,-0.06156 0.14896,-0.108342 0.24745,-0.14035 0.0985,-0.03201 0.21175,-0.04801 0.33978,-0.04801 0.0246,0 0.0523,0.0018 0.0831,0.0055 0.0308,0.0025 0.0609,0.0062 0.0905,0.01108 0.0308,0.0037 0.0591,0.008 0.0849,0.01293 0.0259,0.0049 0.0462,0.0092 0.0609,0.01293 l 0.70173,0 m -1.47732,2.35263 c 0,0.03077 0.006,0.06032 0.0185,0.08864 0.0135,0.02954 0.0351,0.0554 0.0646,0.07756 0.0296,0.02216 0.0683,0.03939 0.11634,0.05171 0.048,0.01354 0.1071,0.02031 0.17728,0.02031 0.19205,0 0.3367,-0.02708 0.43396,-0.08125 0.0973,-0.05417 0.14588,-0.126808 0.14588,-0.217908 0,-0.07756 -0.0302,-0.129266 -0.0905,-0.155115 -0.0603,-0.02585 -0.15389,-0.03878 -0.28069,-0.03878 l -0.26038,0 c -0.0332,0 -0.0689,0.0037 -0.1071,0.01108 -0.0382,0.0086 -0.0733,0.02278 -0.10526,0.04248 -0.032,0.01969 -0.0591,0.04555 -0.0813,0.07756 -0.0209,0.03324 -0.0314,0.07448 -0.0314,0.123724 m 0.20313,-1.68045 c 0,0.112033 0.0209,0.198824 0.0628,0.260383 0.0419,0.06155 0.10526,0.09233 0.1902,0.09233 0.0886,0 0.15266,-0.03078 0.19205,-0.09233 0.0394,-0.06156 0.0591,-0.14835 0.0591,-0.260383 0,-0.1108 -0.0197,-0.198815 -0.0591,-0.264065 -0.0382,-0.06525 -0.10218,-0.09787 -0.19205,-0.09787 -0.16866,0 -0.25299,0.12065 -0.25299,0.36194 m 2.49113,-0.313932 c -0.0997,9e-6 -0.18282,0.03509 -0.2493,0.105267 -0.0653,0.07016 -0.1028,0.180358 -0.11265,0.330548 l 0.71835,0 c -10e-4,-0.06278 -0.009,-0.120649 -0.024,-0.173591 -0.0148,-0.05293 -0.0369,-0.09848 -0.0665,-0.136649 -0.0295,-0.03939 -0.0665,-0.07017 -0.11079,-0.09233 -0.0443,-0.02216 -0.096,-0.03323 -0.15512,-0.03324 m 0.072,1.739541 c -0.14774,0 -0.28377,-0.02154 -0.40811,-0.06463 -0.12434,-0.04308 -0.23145,-0.107715 -0.32132,-0.193889 -0.0899,-0.08741 -0.16004,-0.196984 -0.21052,-0.328708 -0.0492,-0.132957 -0.0739,-0.28869 -0.0739,-0.467197 0,-0.180974 0.0228,-0.339174 0.0683,-0.474589 0.0456,-0.135425 0.10896,-0.248066 0.19021,-0.337941 0.0825,-0.0911 0.18097,-0.159424 0.29546,-0.204973 0.11572,-0.04555 0.24376,-0.06833 0.3841,-0.06833 0.13665,0 0.25976,0.02093 0.36933,0.06278 0.1108,0.04062 0.20436,0.100949 0.28069,0.180974 0.0776,0.08002 0.13665,0.178508 0.17728,0.295456 0.0419,0.115725 0.0628,0.248682 0.0628,0.398883 l 0,0.273297 -1.25941,0 c 0.002,0.07879 0.0148,0.1502 0.0369,0.214217 0.0234,0.06278 0.0554,0.116332 0.096,0.160657 0.0419,0.04308 0.0917,0.07632 0.14958,0.09972 0.0591,0.02339 0.12619,0.03509 0.20129,0.03508 0.0628,9e-6 0.12187,-0.0031 0.17727,-0.0092 0.0566,-0.0074 0.11142,-0.01785 0.16436,-0.03139 0.0529,-0.01354 0.10525,-0.03016 0.15696,-0.04986 0.0517,-0.02092 0.10464,-0.04493 0.15881,-0.07202 l 0,0.435806 c -0.0492,0.02585 -0.0991,0.04802 -0.14958,0.06648 -0.0492,0.01723 -0.10156,0.03201 -0.15696,0.04432 -0.0554,0.01231 -0.11511,0.02092 -0.17913,0.02585 -0.064,0.0062 -0.13419,0.0092 -0.21051,0.0092"
         id="text5307"
         style="font-size:2.45246196px;font-style:normal;font-variant:normal;font-weight:normal;font-stretch:normal;fill:#fffade;fill-opacity:1;stroke:none;font-family:Droid Sans;-inkscape-font-specification:Droid Sans" />
      <rect
         height="27.510681"
         id="rect3291"
         rx="5.8358965"
         ry="5.8358965"
         style="fill:none;stroke:url(#linearGradient3536);stroke-width:2;stroke-linecap:butt;stroke-linejoin:miter;stroke-miterlimit:4;stroke-opacity:1;stroke-dasharray:none;stroke-dashoffset:0;marker:none;visibility:visible;display:inline;overflow:visible;enable-background:new"
         width="91.094383"
         x="22.039906"
         y="61.84948" />
      <path
         d="m 16.340646,34.999259 0,63.712186 m 2.48535,-63.712186 0,63.712186 m 2.48535,-63.712186 0,63.712186 m 2.48535,-63.712186 0,63.712186 m 2.48535,-63.712186 0,63.712186 m 2.48535,-63.712186 0,63.712186 m 2.48536,-63.712186 0,63.712186 m 2.48534,-63.712186 0,63.712186 m 2.48536,-63.712186 0,63.712186 m 2.485355,-63.712186 0,63.712186 m 2.48535,-63.712186 0,63.712186 m 2.48535,-63.712186 0,63.712186 m 2.48536,-63.712186 0,63.712186 m 2.48534,-63.712186 0,63.712186 m 2.48536,-63.712186 0,63.712186 m 2.48535,-63.712186 0,63.712186 m 2.48535,-63.712186 0,63.712186 m 2.48535,-63.712186 0,63.712186 m 2.48536,-63.712186 0,63.712186 m 2.48535,-63.712186 0,63.712186 m 2.48535,-63.712186 0,63.712186 m 2.48535,-63.712186 0,63.712186 m 2.48535,-63.712186 0,63.712186 m 2.48536,-63.712186 0,63.712186 m 2.48534,-63.712186 0,63.712186 m 2.48536,-63.712186 0,63.712186 m 2.48535,-63.712186 0,63.712186 m 2.48535,-63.712186 0,63.712186 m 2.48535,-63.712186 0,63.712186 m 2.48536,-63.712186 0,63.712186 m 2.48534,-63.712186 0,63.712186 m 2.48536,-63.712186 0,63.712186 m 2.48535,-63.712186 0,63.712186 m 2.48535,-63.712186 0,63.712186 m 2.485349,-63.712186 0,63.712186 m 2.48535,-63.712186 0,63.712186 m 2.48536,-63.712186 0,63.712186 m 2.48535,-63.712186 0,63.712186 m 2.48535,-63.712186 0,63.712186 m 2.48535,-63.712186 0,63.712186 m 2.48536,-63.712186 0,63.712186 m -99.579774,-63.543566 101.650094,0 m -101.650094,8.431023 101.650094,0 m -101.650094,8.43103 101.650094,0 m -101.650094,8.431023 101.650094,0 m -101.650094,8.43102 101.650094,0 m -101.650094,8.43103 101.650094,0 m -101.650094,8.43102 101.650094,0 m -101.650094,8.43103 101.650094,0"
         id="path3446"
         style="opacity:0.15;fill:none;stroke:#ffffff;stroke-width:0.83574438;stroke-linecap:butt;stroke-linejoin:miter;stroke-opacity:1;filter:url(#filter3505)"
         transform="matrix(1.1591045,0,0,1.0596215,-10.660002,-3.4556906)" />
    </g>
    <g
       id="g3259"
       style="display:inline;enable-background:new"
       transform="matrix(0.3712897,0,0,0.3712897,133.12359,2.7616082)">
      <g
         id="g3271"
         style="display:inline;enable-background:new"
         transform="matrix(0.2363706,0,0,0.2363706,113.14075,-29.946791)" />
      <g
         id="g3285"
         style="display:inline;enable-background:new"
         transform="matrix(0.2363706,0,0,0.2363706,153.92073,-29.946791)" />
    </g>
    <g
       id="g3431">
      <g
         id="g3340"
         style="display:inline;enable-background:new"
         transform="matrix(0.06114387,0,0,0.06114387,161.93565,46.271409)" />
      <g
         id="g3354"
         style="display:inline;enable-background:new"
         transform="matrix(0.06114387,0,0,0.06114387,172.48454,46.271409)" />
    </g>
    <g
       id="g2578" />
    <g
       id="g2653">
      <g
         id="g3505"
         transform="translate(-16.182584,-1.9654099)" />
    </g>
  </g>
</svg>
