<?xml version="1.0" encoding="UTF-8" standalone="no"?>
<!-- Created with Inkscape (http://www.inkscape.org/) -->

<svg
   xmlns:dc="http://purl.org/dc/elements/1.1/"
   xmlns:cc="http://creativecommons.org/ns#"
   xmlns:rdf="http://www.w3.org/1999/02/22-rdf-syntax-ns#"
   xmlns:svg="http://www.w3.org/2000/svg"
   xmlns="http://www.w3.org/2000/svg"
   xmlns:xlink="http://www.w3.org/1999/xlink"
   xmlns:sodipodi="http://sodipodi.sourceforge.net/DTD/sodipodi-0.dtd"
   xmlns:inkscape="http://www.inkscape.org/namespaces/inkscape"
   height="128"
   id="svg11300"
   inkscape:export-filename="/home/mma/BZR-WORK/breathe-icon-set/source_svg/rendered/computer.png"
   inkscape:export-xdpi="90.000000"
   inkscape:export-ydpi="90.000000"
   inkscape:output_extension="org.inkscape.output.svg.inkscape"
   inkscape:version="0.46+devel r21673"
   sodipodi:docname="modem.svg"
   sodipodi:version="0.32"
   style="display:inline;enable-background:new"
   version="1.0"
   width="128">
  <sodipodi:namedview
     bordercolor="#666666"
     borderopacity="0.25490196"
     fill="#f57900"
     gridtolerance="12"
     guidetolerance="13"
     height="300px"
     id="base"
     inkscape:current-layer="layer6"
     inkscape:cx="141.59161"
     inkscape:cy="69.642123"
     inkscape:document-units="px"
     inkscape:grid-bbox="true"
     inkscape:guide-bbox="true"
     inkscape:pageopacity="0.0"
     inkscape:pageshadow="2"
     inkscape:showpageshadow="false"
     inkscape:snap-bbox="true"
     inkscape:snap-nodes="false"
     inkscape:window-height="701"
     inkscape:window-maximized="0"
     inkscape:window-width="1256"
     inkscape:window-x="1"
     inkscape:window-y="24"
     inkscape:zoom="1"
     objecttolerance="7"
     pagecolor="#ffffff"
     showgrid="false"
     showguides="true"
     stroke="#ef2929"
     width="400px">
    <inkscape:grid
       empspacing="5"
       enabled="true"
       id="grid5883"
       spacingx="1px"
       spacingy="1px"
       type="xygrid"
       visible="true" />
  </sodipodi:namedview>
  <title
     id="title4119">Breathe Icon Theme computer</title>
  <defs
     id="defs3">
    <linearGradient
       id="linearGradient3453">
      <stop
         id="stop3455"
         offset="0"
         style="stop-color:#969696;stop-opacity:0;" />
      <stop
         id="stop3461"
         offset="0.5"
         style="stop-color:#969696;stop-opacity:1;" />
      <stop
         id="stop3457"
         offset="1"
         style="stop-color:#969696;stop-opacity:0;" />
    </linearGradient>
    <linearGradient
       id="linearGradient3433"
       inkscape:collect="always">
      <stop
         id="stop3435"
         offset="0"
         style="stop-color:#1d1d1d;stop-opacity:1" />
      <stop
         id="stop3437"
         offset="1"
         style="stop-color:#272727;stop-opacity:1" />
    </linearGradient>
    <linearGradient
       id="linearGradient3422"
       inkscape:collect="always">
      <stop
         id="stop3424"
         offset="0"
         style="stop-color:#838383;stop-opacity:1" />
      <stop
         id="stop3426"
         offset="1"
         style="stop-color:#ffffff;stop-opacity:1" />
    </linearGradient>
    <linearGradient
       id="linearGradient3402">
      <stop
         id="stop3404"
         offset="0"
         style="stop-color:#252525;stop-opacity:1" />
      <stop
         id="stop3449"
         offset="0.37361041"
         style="stop-color:#2e2e2e;stop-opacity:1" />
      <stop
         id="stop3451"
         offset="0.66574025"
         style="stop-color:#3c3c3c;stop-opacity:1" />
      <stop
         id="stop3406"
         offset="1"
         style="stop-color:#585858;stop-opacity:1" />
    </linearGradient>
    <linearGradient
       id="linearGradient3372">
      <stop
         id="stop3374"
         offset="0"
         style="stop-color:#a0a0a0;stop-opacity:1;" />
      <stop
         id="stop3394"
         offset="0.03434891"
         style="stop-color:#ffffff;stop-opacity:1" />
      <stop
         id="stop3396"
         offset="0.05161127"
         style="stop-color:#b4b4b4;stop-opacity:1" />
      <stop
         id="stop3380"
         offset="0.94295472"
         style="stop-color:#c9c9c9;stop-opacity:1" />
      <stop
         id="stop3382"
         offset="0.96467787"
         style="stop-color:#ffffff;stop-opacity:1" />
      <stop
         id="stop3376"
         offset="1"
         style="stop-color:#a0a0a0;stop-opacity:1;" />
    </linearGradient>
    <linearGradient
       id="linearGradient3333"
       inkscape:collect="always">
      <stop
         id="stop3335"
         offset="0"
         style="stop-color:#ffffff;stop-opacity:1;" />
      <stop
         id="stop3337"
         offset="1"
         style="stop-color:#ffffff;stop-opacity:0;" />
    </linearGradient>
    <linearGradient
       id="linearGradient3323"
       inkscape:collect="always">
      <stop
         id="stop3325"
         offset="0"
         style="stop-color:#ffffff;stop-opacity:1;" />
      <stop
         id="stop3327"
         offset="1"
         style="stop-color:#ffffff;stop-opacity:0;" />
    </linearGradient>
    <linearGradient
       id="linearGradient3313">
      <stop
         id="stop3315"
         offset="0"
         style="stop-color:#000000;stop-opacity:1;" />
      <stop
         id="stop3317"
         offset="1"
         style="stop-color:#2b2b2b;stop-opacity:1" />
    </linearGradient>
    <filter
       color-interpolation-filters="sRGB"
       height="2.0123146"
       id="filter3441"
       inkscape:collect="always"
       width="1.0373274"
       x="-0.018663721"
       y="-0.50615728">
      <feGaussianBlur
         id="feGaussianBlur3443"
         inkscape:collect="always"
         stdDeviation="0.93205483" />
    </filter>
    <linearGradient
       gradientTransform="matrix(0.8956364,0,0,0.8956364,115.40319,128.2211)"
       gradientUnits="userSpaceOnUse"
       id="linearGradient3493"
       inkscape:collect="always"
       x1="-56.739071"
       x2="-57.167786"
       xlink:href="#linearGradient3433"
       y1="-61.231026"
       y2="-36.25" />
    <linearGradient
       gradientTransform="matrix(0.8956364,0,0,0.8956364,115.40319,128.2211)"
       gradientUnits="userSpaceOnUse"
       id="linearGradient3495"
       inkscape:collect="always"
       x1="-125.50092"
       x2="17.414213"
       xlink:href="#linearGradient3372"
       y1="-68.568733"
       y2="-68.568733" />
    <linearGradient
       gradientTransform="matrix(0.8956364,0,0,0.8956364,115.40319,128.2211)"
       gradientUnits="userSpaceOnUse"
       id="linearGradient3497"
       inkscape:collect="always"
       x1="-54.125"
       x2="-54.125"
       xlink:href="#linearGradient3402"
       y1="-100.75"
       y2="-63.270554" />
    <linearGradient
       gradientTransform="matrix(0.8956364,0,0,0.8956364,115.40319,128.2211)"
       gradientUnits="userSpaceOnUse"
       id="linearGradient3499"
       inkscape:collect="always"
       x1="-50.5"
       x2="-50"
       xlink:href="#linearGradient3313"
       y1="-61.25"
       y2="-78.125" />
    <linearGradient
       gradientUnits="userSpaceOnUse"
       id="linearGradient3501"
       inkscape:collect="always"
       x1="-128.23688"
       x2="-116.03274"
       xlink:href="#linearGradient3323"
       y1="-59.230251"
       y2="-54.973755" />
    <linearGradient
       gradientUnits="userSpaceOnUse"
       id="linearGradient3503"
       inkscape:collect="always"
       x1="-120.45731"
       x2="-119.78033"
       xlink:href="#linearGradient3333"
       y1="-62.8125"
       y2="-63.519608" />
    <linearGradient
       gradientUnits="userSpaceOnUse"
       id="linearGradient3505"
       inkscape:collect="always"
       x1="-126.46049"
       x2="-116.42749"
       xlink:href="#linearGradient3323"
       y1="-57.651245"
       y2="-56.158005" />
    <linearGradient
       gradientUnits="userSpaceOnUse"
       id="linearGradient3507"
       inkscape:collect="always"
       x1="-120.45731"
       x2="-119.78033"
       xlink:href="#linearGradient3333"
       y1="-62.8125"
       y2="-63.519608" />
    <linearGradient
       gradientUnits="userSpaceOnUse"
       id="linearGradient3509"
       inkscape:collect="always"
       x1="6.6070819"
       x2="127.14445"
       xlink:href="#linearGradient3453"
       y1="71.092583"
       y2="71.092583" />
    <linearGradient
       gradientUnits="userSpaceOnUse"
       id="linearGradient3511"
       inkscape:collect="always"
       x1="-55.623531"
       x2="-55.690857"
       xlink:href="#linearGradient3422"
       y1="-144.987"
       y2="-148.36119" />
    <linearGradient
       gradientUnits="userSpaceOnUse"
       id="linearGradient3513"
       inkscape:collect="always"
       x1="-55.286911"
       x2="-55.286911"
       xlink:href="#linearGradient3422"
       y1="-143.02556"
       y2="-146.5611" />
  </defs>
  <metadata
     id="metadata4">
    <rdf:RDF>
      <cc:Work
         rdf:about="">
        <dc:format>image/svg+xml</dc:format>
        <dc:type
           rdf:resource="http://purl.org/dc/dcmitype/StillImage" />
        <dc:creator>
          <cc:Agent>
            <dc:title>Breathe Icon Team</dc:title>
          </cc:Agent>
        </dc:creator>
        <dc:source />
        <cc:license
           rdf:resource="http://creativecommons.org/licenses/by-sa/3.0/" />
        <dc:title>Breathe Icon Theme icon</dc:title>
        <dc:subject>
          <rdf:Bag />
        </dc:subject>
        <dc:date />
        <dc:rights>
          <cc:Agent>
            <dc:title />
          </cc:Agent>
        </dc:rights>
        <dc:publisher>
          <cc:Agent>
            <dc:title />
          </cc:Agent>
        </dc:publisher>
        <dc:identifier />
        <dc:relation />
        <dc:language />
        <dc:coverage />
        <dc:description />
        <dc:contributor>
          <cc:Agent>
            <dc:title>Jakub Steiner, Cory Kontros, Oxygen and Breathe icon teams</dc:title>
          </cc:Agent>
        </dc:contributor>
      </cc:Work>
      <cc:License
         rdf:about="http://creativecommons.org/licenses/by-sa/3.0/">
        <cc:permits
           rdf:resource="http://creativecommons.org/ns#Reproduction" />
        <cc:permits
           rdf:resource="http://creativecommons.org/ns#Distribution" />
        <cc:requires
           rdf:resource="http://creativecommons.org/ns#Notice" />
        <cc:requires
           rdf:resource="http://creativecommons.org/ns#Attribution" />
        <cc:prohibits
           rdf:resource="http://creativecommons.org/ns#CommercialUse" />
        <cc:permits
           rdf:resource="http://creativecommons.org/ns#DerivativeWorks" />
        <cc:requires
           rdf:resource="http://creativecommons.org/ns#ShareAlike" />
      </cc:License>
    </rdf:RDF>
  </metadata>
  <g
     id="layer1"
     inkscape:groupmode="layer"
     inkscape:label="devices/modem"
     sodipodi:insensitive="true"
     style="display:inline"
     transform="translate(-3,-4)">
    <rect
       height="256"
       id="256x256"
       inkscape:label="256x256"
       style="fill:#eeeeec;fill-opacity:1;fill-rule:nonzero;stroke:none;stroke-width:5;marker:none;visibility:visible;display:none;overflow:visible;enable-background:accumulate"
       width="256"
       x="26.5"
       y="32.823101" />
    <rect
       height="48"
       id="48x48"
       inkscape:label="48x48"
       style="fill:#eeeeec;fill-opacity:1;fill-rule:nonzero;stroke:none;stroke-width:5;marker:none;visibility:visible;display:none;overflow:visible;enable-background:accumulate"
       width="48"
       x="-35.5"
       y="32.823101" />
    <text
       id="text6091"
       sodipodi:linespacing="125%"
       style="font-size:56.11526489px;font-style:normal;font-variant:normal;font-weight:bold;font-stretch:normal;text-indent:0;text-align:start;text-decoration:none;line-height:125%;letter-spacing:normal;word-spacing:normal;text-transform:none;direction:ltr;block-progression:tb;writing-mode:lr-tb;text-anchor:start;fill:#2e3436;fill-opacity:1;fill-rule:nonzero;stroke:none;stroke-width:5;marker:none;visibility:visible;display:none;overflow:visible;enable-background:accumulate;font-family:Myriad"
       x="-418.41196"
       xml:space="preserve"
       y="34.084831"><tspan
         id="tspan6093"
         sodipodi:role="line"
         x="-418.41196"
         y="34.084831">audio-x-generic</tspan></text>
    <g
       id="layer6"
       inkscape:groupmode="layer"
       inkscape:label="plate"
       sodipodi:insensitive="true"
       style="display:none" />
    <g
       id="Livello_1"
       transform="translate(387.11439,42.495045)" />
    <g
       id="g3290"
       transform="translate(443.11439,59.884345)" />
    <g
       id="g7148"
       transform="matrix(0.1956571,0,0,0.1956571,345.26471,19.402885)" />
    <g
       id="g7555"
       transform="matrix(0.1333333,0,0,0.1333333,319.90372,105.99052)" />
    <g
       id="g9283"
       transform="matrix(1.0666666,0,0,1.0666666,384.44667,40.470571)" />
    <g
       id="g3463"
       transform="matrix(1.0182802,0,0,1.0182802,-0.9546327,-1.3691763)">
      <rect
         height="4.4194398"
         id="rect3439"
         rx="2.1213315"
         ry="2.1213315"
         style="opacity:0.44715456;fill:#000000;fill-opacity:1;fill-rule:evenodd;stroke:none;stroke-width:1;marker:none;visibility:visible;display:inline;overflow:visible;filter:url(#filter3441);enable-background:accumulate"
         width="119.85454"
         x="6.9996014"
         y="93.842545" />
      <path
         d="M 8.8224584,70.90037 125.03128,71.12428 c 1.73664,0 2.42762,-2.184458 2.42762,-0.447819 l -0.86026,21.943092 c 0,1.736639 -1.39808,3.134728 -3.13472,3.134728 l -113.074098,0 c -1.7366389,0 -3.1347273,-1.398089 -3.1347273,-3.134728 L 5.687731,70.90037 c 0,-1.736639 1.3980884,0 3.1347274,0 z"
         id="rect2540"
         sodipodi:nodetypes="ccccccccc"
         style="fill:url(#linearGradient3493);fill-opacity:1;stroke:none" />
      <path
         d="m 14.314796,42.577678 102.606374,0.412439 2.67949,-1.119545 c 0,0 6.62742,23.105651 9.04033,36.273274 0.18847,1.028511 -3.02277,1.735295 -3.02277,1.735295 l -118.0280856,0 c 0,0 -2.7767684,-1.843118 -2.54779,-3.001917 C 7.4657215,64.613232 14.314796,42.577678 14.314796,42.577678 z"
         id="path3400"
         sodipodi:nodetypes="cccsccsc"
         style="fill:none;stroke:#ffffff;stroke-width:0.89563638px;stroke-linecap:butt;stroke-linejoin:miter;stroke-miterlimit:4;stroke-opacity:1;stroke-dasharray:none;stroke-dashoffset:0;marker:none;visibility:visible;display:inline;overflow:visible;enable-background:accumulate" />
      <path
         d="m 13.607691,41.870572 -1.595352,1.119545 -8.1284555,36.027765 c 0,0 -0.029019,7.007304 0.5435348,10.685271 0.143678,0.92295 2.3493976,2.043171 2.3493976,2.043171 l 119.8130541,0 c 0,0 2.03978,-1.156181 2.21905,-2.043171 0.75812,-3.750976 0.77686,-10.722168 0.77686,-10.722168 l -7.75646,-35.990868 -2.22866,-1.119545 c 0,0 5.74354,23.282428 8.15645,36.450051 0.18847,1.028511 -2.13889,1.558518 -2.13889,1.558518 l -118.0280856,0 c 0,0 -2.7767684,-1.843118 -2.54779,-3.001917 C 7.4657215,64.613232 13.607691,41.870572 13.607691,41.870572 z"
         id="path3363"
         sodipodi:nodetypes="cccsccscccsccsc"
         style="fill:url(#linearGradient3495);fill-opacity:1;fill-rule:evenodd;stroke:none;stroke-width:1px;marker:none;visibility:visible;display:inline;overflow:visible;enable-background:accumulate" />
      <path
         d="m 17.554913,38.65746 99.191727,0 c 1.73664,0 3.13473,1.398088 3.13473,3.134727 l 7.61291,27.54082 c 0,1.736639 -1.39809,3.134727 -3.13473,3.134727 l -114.8653643,0 c -1.736639,0 -3.1347274,-1.398088 -3.1347274,-3.134727 l 8.0607277,-27.54082 c 0,-1.736639 1.398088,-3.134727 3.134727,-3.134727 z"
         id="rect2535"
         sodipodi:nodetypes="ccccccccc"
         style="fill:url(#linearGradient3497);fill-opacity:1;stroke:url(#linearGradient3499);stroke-width:1.34344161;stroke-miterlimit:4;stroke-opacity:1;stroke-dasharray:none" />
      <g
         id="g3353"
         style="display:inline;enable-background:new"
         transform="matrix(-0.8956364,0,0,0.8956364,18.002731,128.2211)">
        <path
           d="m -119.25,-61.25 0.5,23 -1.25,-0.75 -0.81575,-24.052624 c 1.14306,1.798649 0.7441,1.611043 1.56575,1.802624 z"
           id="path3355"
           sodipodi:nodetypes="ccccc"
           style="opacity:0.5;fill:url(#linearGradient3501);fill-opacity:1;fill-rule:evenodd;stroke:none" />
        <path
           d="m -121.75,-63.625 0.88128,-0.5 c 0.38116,0.451184 0.64864,0.902369 1.70711,1.353553 L -119.875,-61.5 c -0.80908,-0.570275 -1.94415,-0.896052 -1.875,-2.125 z"
           id="path3357"
           sodipodi:nodetypes="ccccc"
           style="fill:url(#linearGradient3503);fill-opacity:1;fill-rule:evenodd;stroke:none" />
      </g>
      <g
         id="g3349"
         transform="matrix(0.8956364,0,0,0.8956364,115.40319,128.2211)">
        <path
           d="m -119.25,-61.25 0.5,23 -1.25,-0.75 -1.01312,-23.460498 c 1.14306,1.798649 0.94147,1.018917 1.76312,1.210498 z"
           id="path3321"
           sodipodi:nodetypes="ccccc"
           style="opacity:0.5;fill:url(#linearGradient3505);fill-opacity:1;fill-rule:evenodd;stroke:none" />
        <path
           d="m -121.75,-63.625 0.88128,-0.5 c 0.38116,0.451184 0.64864,0.902369 1.70711,1.353553 L -119.875,-61.5 c -0.80908,-0.570275 -1.94415,-0.896052 -1.875,-2.125 z"
           id="path3331"
           sodipodi:nodetypes="ccccc"
           style="fill:url(#linearGradient3507);fill-opacity:1;fill-rule:evenodd;stroke:none" />
      </g>
      <path
         d="m 6.4737684,80.904629 120.6456716,0"
         id="path3398"
         style="fill:none;stroke:#000000;stroke-width:0.44781819;stroke-linecap:round;stroke-linejoin:miter;stroke-miterlimit:4;stroke-opacity:1;stroke-dasharray:none" />
      <path
         d="m 7.1070818,70.538432 1.4249486,1.108294 116.0541596,0 2.05826,-1.108294"
         id="path3410"
         style="fill:none;stroke:url(#linearGradient3509);stroke-width:1;stroke-linecap:round;stroke-linejoin:miter;stroke-miterlimit:4;stroke-opacity:1;stroke-dasharray:none" />
      <g
         id="g3622"
         transform="matrix(1.214533,0,0,1.214533,133.91362,232.08613)">
        <path
           d="m -62.893858,-146.66286 15.567456,0 c 0.49402,0 0.891733,0.39772 0.891733,0.89174 l 0.176776,2.57436 c 0,0.49402 -0.397713,0.89173 -0.891733,0.89173 l -16.009397,0 c -0.49402,0 -0.891733,-0.39771 -0.891733,-0.89173 l 0.265165,-2.57436 c 0,-0.49402 0.397713,-0.89174 0.891733,-0.89174 z"
           id="path3620"
           sodipodi:nodetypes="ccccccccc"
           style="fill:none;stroke:#131313;stroke-width:1.60000002;stroke-linecap:round;stroke-linejoin:miter;stroke-miterlimit:4;stroke-opacity:1;stroke-dasharray:none;stroke-dashoffset:0;marker:none;visibility:visible;display:inline;overflow:visible;enable-background:accumulate" />
        <path
           d="m -62.893858,-146.66286 15.567456,0 c 0.49402,0 0.891733,0.39772 0.891733,0.89174 l 0.176776,2.57436 c 0,0.49402 -0.397713,0.89173 -0.891733,0.89173 l -16.009397,0 c -0.49402,0 -0.891733,-0.39771 -0.891733,-0.89173 l 0.265165,-2.57436 c 0,-0.49402 0.397713,-0.89174 0.891733,-0.89174 z"
           id="rect3412"
           sodipodi:nodetypes="ccccccccc"
           style="fill:#121212;fill-opacity:1;fill-rule:evenodd;stroke:url(#linearGradient3511);stroke-width:1;stroke-linecap:round;stroke-linejoin:miter;stroke-miterlimit:4;stroke-opacity:1;stroke-dashoffset:0;marker:none;visibility:visible;display:inline;overflow:visible;enable-background:accumulate" />
        <path
           d="m -59.865902,-144.98353 c -0.0053,0.0528 -0.02352,0.099 -0.05463,0.13872 -0.02965,0.039 -0.07025,0.0729 -0.121796,0.10182 -0.05152,0.0281 -0.112692,0.0524 -0.18351,0.0728 -0.06944,0.0204 -0.146458,0.0376 -0.231051,0.0517 0,0 -0.0013,0.0118 -0.0013,0.0118 0.100168,0.0141 0.190484,0.0338 0.270962,0.0589 0.08206,0.0244 0.151379,0.0547 0.207966,0.091 0.05817,0.0355 0.101436,0.077 0.129789,0.12453 0.02983,0.0476 0.04183,0.10118 0.03596,0.16087 -0.01589,0.16131 -0.134356,0.28246 -0.355768,0.36296 -0.221917,0.0799 -0.545403,0.11993 -0.970024,0.11993 0,0 -1.439649,0 -1.439649,0 0,0 0.01886,-0.13202 0.01886,-0.13202 0,0 0.182833,0 0.182833,0 0.03337,0 0.06407,-0.002 0.09208,-0.005 0.02957,-0.004 0.05529,-0.0117 0.07715,-0.023 0.02185,-0.0113 0.04,-0.0274 0.05444,-0.0483 0.01589,-0.0209 0.02623,-0.049 0.03103,-0.0843 0,0 0.157417,-1.15701 0.157417,-1.15701 0.0043,-0.0316 0.0014,-0.057 -0.0088,-0.0763 -0.0086,-0.02 -0.02281,-0.0354 -0.04259,-0.0461 -0.01836,-0.0108 -0.04143,-0.018 -0.06923,-0.0219 -0.02627,-0.005 -0.05498,-0.007 -0.08614,-0.007 0,0 -0.178441,0 -0.178441,0 0,0 0.01772,-0.12407 0.01772,-0.12407 0,0 1.267683,0 1.267683,0 0.412666,0 0.719108,0.0344 0.919675,0.10335 0.201026,0.0691 0.294267,0.1777 0.279317,0.32619 m -1.573016,1.14372 c 0,0 0.295922,0 0.295922,0 0.09864,0 0.183478,-0.006 0.254498,-0.0181 0.07099,-0.0121 0.129722,-0.0314 0.176199,-0.0579 0.04652,-0.0273 0.08159,-0.0626 0.105223,-0.10584 0.02504,-0.0432 0.04099,-0.0959 0.04788,-0.15807 0.0066,-0.0597 0.0037,-0.11127 -0.0087,-0.15488 -0.01233,-0.0443 -0.03773,-0.0807 -0.07619,-0.10913 -0.03843,-0.0284 -0.09055,-0.0497 -0.156365,-0.0639 -0.06578,-0.0142 -0.149579,-0.0213 -0.251408,-0.0213 0,0 -0.301191,0 -0.301191,0 0,0 -0.08582,0.68905 -0.08582,0.68905 m 0.10416,-0.83628 c 0,0 0.167397,0 0.167397,0 0.103013,0 0.188839,-0.006 0.257459,-0.0176 0.07002,-0.0117 0.126441,-0.0297 0.169256,-0.054 0.04429,-0.025 0.07721,-0.057 0.09877,-0.096 0.02152,-0.0389 0.03534,-0.0856 0.04148,-0.13989 0.0061,-0.0542 0.0013,-0.0995 -0.01449,-0.13576 -0.01434,-0.0363 -0.04151,-0.0655 -0.0815,-0.0879 -0.03996,-0.0223 -0.09341,-0.0381 -0.160353,-0.0473 -0.06683,-0.01 -0.149111,-0.015 -0.246859,-0.015 0,0 -0.15725,0 -0.15725,0 0,0 -0.0739,0.59334 -0.0739,0.59334 m 1.795209,0.44505 c 0,0 0.02401,-0.25528 0.02401,-0.25528 0,0 1.147482,0 1.147482,0 0,0 -0.01917,0.25528 -0.01917,0.25528 0,0 -1.152328,0 -1.152328,0 m 1.349347,0.54258 c 0,0 0.0094,-0.13202 0.0094,-0.13202 0,0 0.187186,0 0.187186,0 0.03337,0 0.06395,-0.002 0.09174,-0.005 0.02783,-0.004 0.05228,-0.0117 0.07332,-0.023 0.02104,-0.0113 0.03803,-0.0274 0.05099,-0.0483 0.01294,-0.0209 0.02054,-0.049 0.02282,-0.0843 0,0 0.07437,-1.1547 0.07437,-1.1547 0.0022,-0.0339 -0.0018,-0.0609 -0.0118,-0.0809 -0.01005,-0.02 -0.02464,-0.0354 -0.04377,-0.0461 -0.01913,-0.0108 -0.04204,-0.0177 -0.06875,-0.0207 -0.02665,-0.004 -0.05626,-0.006 -0.08884,-0.006 0,0 -0.182688,0 -0.182688,0 0,0 0.0088,-0.12407 0.0088,-0.12407 0,0 1.498748,0 1.498748,0 0,0 -0.0057,0.12407 -0.0057,0.12407 0,0 -0.182689,0 -0.182689,0 -0.02974,0 -0.05887,0.002 -0.08739,0.006 -0.02707,0.003 -0.05077,0.01 -0.07112,0.0196 -0.02036,0.01 -0.03742,0.0246 -0.05118,0.0438 -0.01232,0.0185 -0.01931,0.0435 -0.02098,0.0751 0,0 -0.06894,1.30494 -0.06894,1.30494 0,0 0.829016,0 0.829016,0 0.104441,0 0.18633,-0.0181 0.245616,-0.0543 0.05924,-0.037 0.103037,-0.0903 0.131401,-0.15994 0,0 0.07745,-0.18414 0.07745,-0.18414 0,0 0.248597,0 0.248597,0 0,0 -0.04808,0.54973 -0.04808,0.54973 0,0 -2.617542,0 -2.617542,0 m 3.214989,-1.68791 c 5.74e-4,-0.0298 0.01025,-0.0554 0.02902,-0.0768 0.02016,-0.0214 0.04659,-0.0385 0.07928,-0.0515 0.0341,-0.0137 0.07305,-0.0236 0.116874,-0.0297 0.04523,-0.007 0.09393,-0.0103 0.146108,-0.0103 0.04935,0 0.09655,0.003 0.141607,0.0103 0.04507,0.006 0.08447,0.016 0.118214,0.0297 0.03376,0.013 0.06045,0.0301 0.08005,0.0515 0.02103,0.0214 0.03146,0.047 0.03126,0.0768 -1.99e-4,0.0291 -0.01099,0.0544 -0.03237,0.0759 -0.01999,0.0215 -0.04704,0.0392 -0.08117,0.053 -0.03414,0.0138 -0.07393,0.0242 -0.119375,0.0311 -0.04545,0.007 -0.093,0.0104 -0.142636,0.0104 -0.05247,0 -0.101348,-0.003 -0.146619,-0.0104 -0.04384,-0.007 -0.08266,-0.0173 -0.116434,-0.0311 -0.03235,-0.0138 -0.05823,-0.0315 -0.07766,-0.053 -0.018,-0.0215 -0.02671,-0.0468 -0.02615,-0.0759 m -0.284613,1.55589 c 0.03337,0 0.06823,-0.002 0.104581,-0.005 0.03781,-0.004 0.07206,-0.0117 0.102751,-0.023 0.03213,-0.0113 0.05854,-0.0274 0.07923,-0.0483 0.02212,-0.0209 0.0335,-0.049 0.03414,-0.0843 0,0 0.01346,-0.73873 0.01346,-0.73873 5.83e-4,-0.032 -0.0097,-0.0574 -0.03074,-0.0762 -0.01962,-0.0195 -0.04502,-0.0343 -0.07622,-0.0444 -0.03117,-0.0109 -0.06526,-0.0179 -0.102276,-0.021 -0.03559,-0.003 -0.06907,-0.005 -0.100448,-0.005 0,0 -0.05134,0 -0.05134,0 0,0 0.0031,-0.127 0.0031,-0.127 0,0 1.026858,0 1.026858,0 0,0 -0.0072,1.01203 -0.0072,1.01203 -2.53e-4,0.0353 0.0097,0.0634 0.02983,0.0843 0.02161,0.0209 0.04761,0.037 0.078,0.0483 0.03185,0.0113 0.06664,0.0189 0.104345,0.023 0.03771,0.003 0.07253,0.005 0.104458,0.005 0,0 0.05224,0 0.05224,0 0,0 -1.44e-4,0.13202 -1.44e-4,0.13202 0,0 -1.420018,0 -1.420018,0 0,0 0.0032,-0.13202 0.0032,-0.13202 0,0 0.05224,0 0.05224,0 m 3.310281,0.13202 c 0,0 -0.02476,-0.80732 -0.02476,-0.80732 -0.0016,-0.052 -0.0095,-0.0979 -0.02356,-0.13798 -0.01268,-0.0408 -0.03373,-0.0748 -0.06313,-0.10219 -0.02795,-0.0273 -0.06497,-0.048 -0.111054,-0.0621 -0.04466,-0.0148 -0.0991,-0.0222 -0.163326,-0.0222 -0.0728,0 -0.133227,0.0101 -0.181321,0.0304 -0.04813,0.0203 -0.08686,0.0476 -0.116185,0.0821 -0.02795,0.0337 -0.04794,0.0733 -0.05997,0.11879 -0.01206,0.0448 -0.01764,0.0921 -0.01672,0.14173 0,0 0.0086,0.46648 0.0086,0.46648 6.37e-4,0.0345 0.0084,0.0622 0.02328,0.0831 0.01634,0.0209 0.03841,0.0374 0.0662,0.0495 0.02779,0.0113 0.06131,0.0189 0.100571,0.023 0.0407,0.003 0.08571,0.005 0.135053,0.005 0,0 0.01306,0 0.01306,0 0,0 0.0032,0.13202 0.0032,0.13202 0,0 -1.372029,0 -1.372029,0 0,0 -2.09e-4,-0.13202 -2.09e-4,-0.13202 0,0 0.0087,0 0.0087,0 0.05079,0 0.09721,-0.002 0.139282,-0.005 0.04206,-0.004 0.07829,-0.0121 0.108681,-0.0242 0.03183,-0.0121 0.05637,-0.0294 0.07361,-0.0519 0.01723,-0.0225 0.0257,-0.0522 0.02542,-0.0891 0,0 -0.0053,-0.71974 -0.0053,-0.71974 -2.5e-4,-0.0336 -0.0083,-0.0606 -0.02416,-0.0809 -0.01442,-0.0203 -0.03593,-0.0359 -0.06454,-0.0468 -0.02718,-0.0117 -0.06003,-0.0191 -0.09855,-0.0222 -0.03853,-0.004 -0.08204,-0.006 -0.130527,-0.006 0,0 -0.01284,0 -0.01284,0 0,0 -2.46e-4,-0.127 -2.46e-4,-0.127 0,0 0.917979,0 0.917979,0 0,0 0.06074,0.17022 0.06074,0.17022 0,0 0.02141,0 0.02141,0 0.04337,-0.0452 0.08901,-0.081 0.136916,-0.10737 0.04929,-0.0264 0.101527,-0.0466 0.15672,-0.0605 0.05517,-0.0139 0.11328,-0.0229 0.174356,-0.0267 0.06249,-0.004 0.127871,-0.006 0.196153,-0.006 0.112377,0 0.213671,0.009 0.303924,0.0267 0.0903,0.0178 0.166784,0.0454 0.229465,0.0827 0.06418,0.0373 0.113884,0.0852 0.149105,0.14373 0.03525,0.0578 0.05461,0.12756 0.05802,0.20922 0,0 0.02361,0.5655 0.02361,0.5655 0.0016,0.0385 0.0087,0.0694 0.02126,0.0927 0.01399,0.0225 0.03357,0.0398 0.05874,0.0519 0.02518,0.0121 0.05672,0.0201 0.09462,0.0242 0.0379,0.004 0.08225,0.006 0.13304,0.006 0,0 0.01306,0 0.01306,0 0,0 0.0062,0.13202 0.0062,0.13202 0,0 -0.992486,0 -0.992486,0 m 3.954672,0 c 0,0 -0.06326,0 -0.06326,0 -0.162871,0 -0.299746,-0.002 -0.410612,-0.006 -0.110857,-0.004 -0.206873,-0.0133 -0.288032,-0.0279 -0.08112,-0.0145 -0.151897,-0.0363 -0.212304,-0.0654 -0.06042,-0.0298 -0.121585,-0.0701 -0.18347,-0.12075 0,0 -0.419687,-0.34391 -0.419687,-0.34391 0,0 -0.172327,0.0728 -0.172327,0.0728 0,0 0.01337,0.19892 0.01337,0.19892 0.0024,0.0353 0.0144,0.0634 0.0361,0.0843 0.02316,0.0209 0.05036,0.037 0.08159,0.0483 0.03269,0.0113 0.06804,0.0189 0.106052,0.023 0.03795,0.003 0.07289,0.005 0.104817,0.005 0,0 0.05224,0 0.05224,0 0,0 0.0097,0.13202 0.0097,0.13202 0,0 -1.420018,0 -1.420018,0 0,0 -0.0066,-0.13202 -0.0066,-0.13202 0,0 0.05224,0 0.05224,0 0.03337,0 0.06812,-0.002 0.104222,-0.005 0.03751,-0.004 0.07119,-0.0117 0.101045,-0.023 0.03129,-0.0113 0.0565,-0.0274 0.07564,-0.0483 0.02057,-0.0209 0.02986,-0.049 0.02788,-0.0843 0,0 -0.07143,-1.27249 -0.07143,-1.27249 -0.0018,-0.0315 -0.01378,-0.0564 -0.03604,-0.0748 -0.02087,-0.0191 -0.04714,-0.0337 -0.0788,-0.0437 -0.03169,-0.0107 -0.06599,-0.0176 -0.102911,-0.0206 -0.0355,-0.003 -0.0688,-0.005 -0.0999,-0.005 0,0 -0.05089,0 -0.05089,0 0,0 -0.0062,-0.12362 -0.0062,-0.12362 0,0 1.017817,0 1.017817,0 0,0 0.06159,0.91631 0.06159,0.91631 0.0015,0.022 0.0018,0.0475 8.48e-4,0.0767 4.68e-4,0.0284 1.4e-4,0.0556 -9.85e-4,0.0816 -0.0022,0.0308 -0.0038,0.062 -0.0045,0.0937 0,0 0.53072,-0.34129 0.53072,-0.34129 0.04634,-0.0297 0.07598,-0.0532 0.08894,-0.0704 0.01431,-0.018 0.02101,-0.0328 0.0201,-0.0445 -0.0016,-0.0203 -0.02277,-0.0359 -0.06356,-0.0468 -0.03941,-0.0117 -0.09547,-0.0175 -0.1682,-0.0175 0,0 -0.0089,-0.11999 -0.0089,-0.11999 0,0 1.101576,0 1.101576,0 0,0 0.01111,0.11999 0.01111,0.11999 -0.101254,0 -0.199619,0.0163 -0.295176,0.0491 -0.0943,0.032 -0.196349,0.0835 -0.306251,0.15473 0,0 -0.263417,0.17326 -0.263417,0.17326 0,0 0.62777,0.48374 0.62777,0.48374 0.08387,0.0649 0.167122,0.11311 0.249693,0.14446 0.08265,0.0314 0.159559,0.0471 0.230664,0.0471 0,0 0.01524,0 0.01524,0 0,0 0.01257,0.13202 0.01257,0.13202"
           id="text3431"
           style="font-size:10px;font-style:normal;font-variant:normal;font-weight:bold;font-stretch:normal;fill:url(#linearGradient3513);fill-opacity:1;stroke:none;font-family:Droid Sans;-inkscape-font-specification:Droid Sans Bold" />
      </g>
      <rect
         height="4.1165028"
         id="rect3641"
         rx="2.0582514"
         ry="2.0582514"
         style="fill:#171717;fill-opacity:1;fill-rule:evenodd;stroke:none;stroke-width:1.60000002;marker:none;visibility:visible;display:inline;overflow:visible;enable-background:accumulate"
         width="106.5545"
         x="13.722745"
         y="84.454193" />
      <path
         d="m 17.086411,87.352104 -0.10933,-0.38047 -0.551026,0 -0.110424,0.38047 -0.342205,0 0.51932,-1.604973 0.414363,0 0.521507,1.604973 -0.342205,0 m -0.188048,-0.66473 -0.102771,-0.349858 c -0.0044,-0.01312 -0.01093,-0.03462 -0.01968,-0.0645 -0.0087,-0.02988 -0.01822,-0.06268 -0.02843,-0.0984 -0.0095,-0.03644 -0.01859,-0.07289 -0.02733,-0.109331 -0.0087,-0.03644 -0.01494,-0.06742 -0.01859,-0.09293 -0.0029,0.01604 -0.0069,0.03499 -0.01203,0.05685 -0.0044,0.02187 -0.0098,0.04519 -0.0164,0.06997 -0.0058,0.02405 -0.01203,0.04847 -0.01859,0.07325 -0.0066,0.02478 -0.01276,0.04811 -0.01859,0.06997 -0.0058,0.02187 -0.0113,0.04118 -0.0164,0.05795 -0.0044,0.01677 -0.0077,0.02916 -0.0098,0.03717 l -0.101677,0.349858 0.39031,0 m 1.967951,-0.149783 c -2e-6,0.134842 -0.01859,0.253283 -0.05576,0.355325 -0.03645,0.101313 -0.08965,0.186226 -0.159622,0.25474 -0.06924,0.06779 -0.154522,0.118806 -0.255834,0.153063 -0.100585,0.03426 -0.215382,0.05138 -0.344392,0.05138 l -0.420922,0 0,-1.598413 0.467935,0 c 0.117347,10e-7 0.223033,0.01676 0.317058,0.05029 0.09475,0.03353 0.175657,0.08346 0.242714,0.149783 0.06705,0.0656 0.118441,0.147233 0.154157,0.2449 0.03644,0.09767 0.05466,0.210645 0.05466,0.338925 m -0.343298,0.0087 c -1e-6,-0.08892 -0.0091,-0.165453 -0.02733,-0.229595 -0.01749,-0.06487 -0.04337,-0.11844 -0.07763,-0.160716 -0.03353,-0.04227 -0.07507,-0.07361 -0.124637,-0.09402 -0.04883,-0.02041 -0.104958,-0.03061 -0.168369,-0.03061 l -0.156342,0 0,1.040828 0.124636,0 c 0.142858,0 0.250002,-0.04373 0.321432,-0.131197 0.07216,-0.08746 0.108237,-0.219025 0.108238,-0.394683 m 1.550308,0.361884 c -1e-6,0.07143 -0.01239,0.135935 -0.03717,0.193515 -0.02405,0.05685 -0.05977,0.105686 -0.107144,0.146503 -0.04665,0.04009 -0.104229,0.07107 -0.172742,0.09293 -0.06779,0.02187 -0.145775,0.0328 -0.233967,0.0328 -0.07726,0 -0.15197,-0.008 -0.224128,-0.02405 -0.07143,-0.01604 -0.137757,-0.04009 -0.198982,-0.07216 l 0,-0.314872 c 0.03499,0.01677 0.07034,0.03316 0.106051,0.0492 0.03571,0.01531 0.07179,0.02916 0.108237,0.04155 0.03717,0.01239 0.07398,0.02223 0.110424,0.02952 0.03717,0.0073 0.07398,0.01093 0.110424,0.01093 0.03717,0 0.06888,-0.004 0.09512,-0.01203 0.02697,-0.0087 0.04847,-0.02041 0.06451,-0.03499 0.01676,-0.01531 0.02879,-0.03316 0.03608,-0.05357 0.008,-0.02114 0.01203,-0.0441 0.01203,-0.06888 -10e-7,-0.02988 -0.0066,-0.05612 -0.01968,-0.07872 -0.01239,-0.02332 -0.03025,-0.04483 -0.05357,-0.06451 -0.0226,-0.02041 -0.05029,-0.04009 -0.08309,-0.05904 -0.03207,-0.01895 -0.06815,-0.03899 -0.108237,-0.06013 -0.03353,-0.01749 -0.07106,-0.03863 -0.112611,-0.06341 -0.04155,-0.02478 -0.0809,-0.05539 -0.118077,-0.09184 -0.03644,-0.03717 -0.06706,-0.08163 -0.09184,-0.133384 -0.02478,-0.05248 -0.03717,-0.11516 -0.03717,-0.188048 0,-0.07143 0.01166,-0.135205 0.03499,-0.191329 0.02405,-0.05685 0.05795,-0.104591 0.101678,-0.143223 0.04373,-0.03936 0.09657,-0.06924 0.158529,-0.08965 0.06268,-0.02041 0.132654,-0.03061 0.209915,-0.03061 0.03863,2e-6 0.07617,0.0026 0.11261,0.0077 0.03717,0.0051 0.07362,0.01239 0.109331,0.02187 0.03644,0.0095 0.07289,0.02114 0.10933,0.03499 0.03644,0.01385 0.07398,0.02989 0.112611,0.04811 l -0.109331,0.263487 c -0.0328,-0.01531 -0.06341,-0.02879 -0.09184,-0.04045 -0.02843,-0.01166 -0.05612,-0.0215 -0.08309,-0.02952 -0.02697,-0.008 -0.05357,-0.01385 -0.07981,-0.01749 -0.02551,-0.0044 -0.05139,-0.0066 -0.07763,-0.0066 -0.05685,2e-6 -0.100584,0.01531 -0.131196,0.04592 -0.02989,0.02988 -0.04483,0.06997 -0.04483,0.120264 0,0.02697 0.0044,0.05102 0.01312,0.07216 0.0095,0.02041 0.02405,0.03972 0.04373,0.05795 0.02041,0.01822 0.04628,0.03681 0.07763,0.05576 0.03207,0.01895 0.0707,0.04045 0.11589,0.0645 0.05466,0.02916 0.104957,0.05904 0.150876,0.08965 0.04592,0.02988 0.08528,0.06341 0.118077,0.100584 0.03353,0.03644 0.0594,0.07799 0.07763,0.124637 0.01822,0.04665 0.02733,0.101314 0.02733,0.163996 m 0.297379,0.443882 0,-1.598413 0.338925,0 0,1.318527 0.581639,0 0,0.279886 -0.920564,0 m 2.422766,0 -0.350951,-1.254022 -0.0098,0 c 0.0044,0.06706 0.008,0.131927 0.01093,0.194609 0.0015,0.02697 0.0025,0.05467 0.0033,0.08309 0.0015,0.02843 0.0026,0.05649 0.0033,0.08418 0.0015,0.0277 0.0022,0.0543 0.0022,0.07981 7.28e-4,0.02551 0.0011,0.04847 0.0011,0.06888 l 0,0.743448 -0.302846,0 0,-1.598413 0.461376,0 0.345484,1.222316 0.0066,0 0.367351,-1.222316 0.461375,0 0,1.598413 -0.315965,0 0,-0.756568 c -2e-6,-0.01895 -2e-6,-0.04045 0,-0.0645 7.27e-4,-0.02405 0.0015,-0.04956 0.0022,-0.07653 7.28e-4,-0.02697 0.0015,-0.0543 0.0022,-0.082 0.0015,-0.0277 0.0025,-0.05466 0.0033,-0.08091 0.0029,-0.06122 0.0055,-0.125 0.0077,-0.191328 l -0.0087,0 -0.378284,1.251835 -0.311593,0 m 1.653079,-0.613345 c 0,0.121722 0.01713,0.21356 0.05138,0.275514 0.03426,0.06122 0.09002,0.09184 0.167276,0.09184 0.07653,1e-6 0.131925,-0.03098 0.166183,-0.09293 0.03426,-0.06195 0.05138,-0.153427 0.05138,-0.27442 -10e-7,-0.12172 -0.01713,-0.212465 -0.05138,-0.272233 -0.03426,-0.0605 -0.09038,-0.09074 -0.168369,-0.09074 -0.07653,10e-7 -0.131926,0.03025 -0.166183,0.09074 -0.03353,0.05977 -0.05029,0.150513 -0.05029,0.272233 m 0.776247,0 c -1e-6,0.102043 -0.01312,0.192423 -0.03936,0.27114 -0.02551,0.07872 -0.06268,0.145046 -0.111517,0.198982 -0.04811,0.05394 -0.107145,0.09512 -0.177115,0.123544 -0.06924,0.0277 -0.147233,0.04154 -0.233968,0.04154 -0.08091,0 -0.15525,-0.01385 -0.223034,-0.04154 -0.06779,-0.02843 -0.12646,-0.06961 -0.176023,-0.123544 -0.04883,-0.05394 -0.0871,-0.120263 -0.114797,-0.198982 -0.0277,-0.07872 -0.04155,-0.169097 -0.04155,-0.27114 -1e-6,-0.101312 0.01276,-0.191327 0.03827,-0.270046 0.02624,-0.07872 0.06341,-0.14468 0.111518,-0.197889 0.04883,-0.05394 0.107872,-0.09475 0.177115,-0.12245 0.06924,-0.0277 0.147596,-0.04154 0.235061,-0.04154 0.0809,10e-7 0.155249,0.01385 0.223034,0.04154 0.06778,0.0277 0.126094,0.06851 0.174929,0.12245 0.04956,0.05321 0.08819,0.119172 0.115891,0.197889 0.0277,0.07872 0.04154,0.168734 0.04155,0.270046 m 0.647238,0.635211 c -0.06268,0 -0.1199,-0.01348 -0.171649,-0.04045 -0.05175,-0.02697 -0.09621,-0.06669 -0.133383,-0.11917 -0.03717,-0.05321 -0.06633,-0.11917 -0.08746,-0.197889 -0.02041,-0.07872 -0.03061,-0.169826 -0.03061,-0.273326 -1e-6,-0.104957 0.0102,-0.196795 0.03061,-0.275513 0.02114,-0.07945 0.05066,-0.145774 0.08856,-0.198982 0.03863,-0.05393 0.08455,-0.09439 0.137756,-0.121357 0.05321,-0.02697 0.111882,-0.04045 0.176023,-0.04045 0.03936,10e-7 0.07544,0.0047 0.108237,0.01421 0.0328,0.0087 0.06232,0.0215 0.08856,0.03826 0.02624,0.01604 0.04956,0.03499 0.06997,0.05685 0.02114,0.02114 0.03972,0.04446 0.05576,0.06997 l 0.01093,0 c -0.0044,-0.02842 -0.0084,-0.05722 -0.01203,-0.08637 -0.0036,-0.02478 -0.0069,-0.05102 -0.0098,-0.07872 -0.0022,-0.02842 -0.0033,-0.05466 -0.0033,-0.07872 l 0,-0.391403 0.333458,0 0,1.701184 -0.25474,0 -0.06451,-0.158529 -0.01421,0 c -0.01531,0.02478 -0.0328,0.04847 -0.05248,0.07107 -0.01968,0.02187 -0.04264,0.04082 -0.06888,0.05685 -0.02551,0.01603 -0.05467,0.02879 -0.08746,0.03826 -0.03207,0.0095 -0.06852,0.01421 -0.109331,0.01421 m 0.121357,-0.265673 c 0.03936,0 0.07289,-0.0066 0.100584,-0.01968 0.0277,-0.01385 0.04993,-0.03426 0.06669,-0.06122 0.01749,-0.0277 0.03025,-0.06195 0.03827,-0.102771 0.0087,-0.04082 0.01348,-0.08856 0.01421,-0.143223 l 0,-0.03608 c 0,-0.05904 -0.0036,-0.111516 -0.01093,-0.157436 -0.0073,-0.04592 -0.01931,-0.08418 -0.03608,-0.114797 -0.01676,-0.03134 -0.03936,-0.05503 -0.06778,-0.07106 -0.02843,-0.01603 -0.06414,-0.02405 -0.107144,-0.02405 -0.06997,1e-6 -0.121357,0.03171 -0.154156,0.09512 -0.0328,0.06268 -0.0492,0.154157 -0.0492,0.27442 0,0.120264 0.0164,0.210644 0.0492,0.27114 0.03353,0.05977 0.08564,0.08965 0.156343,0.08965 m 1.374286,-0.764221 c -0.05904,10e-7 -0.108238,0.02077 -0.147597,0.06232 -0.03863,0.04155 -0.06086,0.106781 -0.06669,0.195702 l 0.425296,0 c -7.3e-4,-0.03717 -0.0055,-0.07143 -0.01421,-0.102771 -0.0087,-0.03134 -0.02187,-0.05831 -0.03936,-0.0809 -0.01749,-0.02332 -0.03936,-0.04154 -0.0656,-0.05467 -0.02624,-0.01312 -0.05685,-0.01968 -0.09184,-0.01968 m 0.04264,1.029894 c -0.08747,0 -0.168006,-0.01275 -0.241621,-0.03826 -0.07362,-0.02551 -0.137028,-0.06378 -0.190235,-0.114798 -0.05321,-0.05175 -0.09475,-0.116619 -0.124637,-0.194608 -0.02915,-0.07872 -0.04373,-0.17092 -0.04373,-0.276606 -1e-6,-0.107144 0.01348,-0.200804 0.04045,-0.28098 0.02697,-0.08017 0.06451,-0.146867 0.11261,-0.200075 0.04883,-0.05393 0.107144,-0.09439 0.174929,-0.121357 0.06851,-0.02697 0.144316,-0.04045 0.227408,-0.04045 0.0809,1e-6 0.153791,0.01239 0.218661,0.03717 0.0656,0.02405 0.120992,0.05977 0.166183,0.107144 0.04592,0.04738 0.0809,0.105687 0.104957,0.174929 0.02478,0.06852 0.03717,0.147233 0.03717,0.236154 l 0,0.161809 -0.745635,0 c 0.0015,0.04665 0.0087,0.08892 0.02187,0.126824 0.01385,0.03717 0.0328,0.06888 0.05685,0.09512 0.02478,0.02551 0.0543,0.04519 0.08856,0.05904 0.03498,0.01385 0.07471,0.02077 0.11917,0.02077 0.03717,0 0.07216,-0.0018 0.104957,-0.0055 0.03353,-0.0044 0.06596,-0.01057 0.0973,-0.01859 0.03134,-0.008 0.06232,-0.01786 0.09293,-0.02952 0.03061,-0.01239 0.06195,-0.0266 0.09402,-0.04264 l 0,0.25802 c -0.02916,0.01531 -0.05868,0.02843 -0.08856,0.03936 -0.02916,0.0102 -0.06013,0.01895 -0.09293,0.02624 -0.0328,0.0073 -0.06815,0.01239 -0.106051,0.01531 -0.0379,0.0036 -0.07945,0.0055 -0.124636,0.0055 m 1.813794,-0.02187 -0.333458,0 0,-0.713929 c -10e-7,-0.08819 -0.01312,-0.154155 -0.03936,-0.197888 -0.02624,-0.04446 -0.06742,-0.06669 -0.123544,-0.06669 -0.04228,10e-7 -0.07763,0.0087 -0.106051,0.02624 -0.0277,0.01749 -0.04993,0.04337 -0.06669,0.07762 -0.01676,0.03426 -0.02879,0.07653 -0.03608,0.126824 -0.0073,0.05029 -0.01093,0.107873 -0.01093,0.172742 l 0,0.575079 -0.333459,0 0,-1.222316 0.254741,0 0.04482,0.156343 0.01859,0 c 0.01749,-0.03134 0.03827,-0.05831 0.06232,-0.08091 0.02478,-0.02259 0.05175,-0.04118 0.0809,-0.05576 0.02915,-0.01458 0.06013,-0.02514 0.09293,-0.03171 0.0328,-0.0073 0.06596,-0.01093 0.09949,-0.01093 0.08382,10e-7 0.154884,0.01458 0.213195,0.04373 0.05904,0.02843 0.104227,0.07362 0.13557,0.13557 l 0.02733,0 c 0.01749,-0.03134 0.03863,-0.05831 0.06341,-0.08091 0.02478,-0.02259 0.05211,-0.04118 0.082,-0.05576 0.02988,-0.01458 0.06122,-0.02514 0.09402,-0.03171 0.03353,-0.0073 0.06705,-0.01093 0.100584,-0.01093 0.131195,10e-7 0.229957,0.03571 0.296286,0.107144 0.06705,0.0707 0.100582,0.184405 0.100584,0.341111 l 0,0.79702 -0.334552,0 0,-0.713929 c -1e-6,-0.08819 -0.01312,-0.154155 -0.03936,-0.197888 -0.02624,-0.04446 -0.06742,-0.06669 -0.123543,-0.06669 -0.07945,10e-7 -0.135936,0.03171 -0.169463,0.09512 -0.03353,0.06268 -0.05029,0.152699 -0.05029,0.270046 l 0,0.613345"
         id="text3643"
         style="font-size:8.95636368px;font-style:normal;font-variant:normal;font-weight:normal;font-stretch:normal;fill:#cecece;fill-opacity:1;stroke:none;font-family:Droid Sans;-inkscape-font-specification:Droid Sans" />
      <path
         d="m -84.499261,-46.019337 c 0,0.683418 -0.633165,1.237437 -1.414214,1.237437 -0.781049,0 -1.414214,-0.554019 -1.414214,-1.237437 0,-0.683417 0.633165,-1.237437 1.414214,-1.237437 0.781049,0 1.414214,0.55402 1.414214,1.237437 z"
         id="path3647"
         sodipodi:cx="-85.913475"
         sodipodi:cy="-46.019337"
         sodipodi:rx="1.4142135"
         sodipodi:ry="1.2374369"
         sodipodi:type="arc"
         style="fill:#37ea02;fill-opacity:1;fill-rule:evenodd;stroke:none;stroke-width:1.60000002;marker:none;visibility:visible;display:inline;overflow:visible;enable-background:accumulate"
         transform="matrix(0.8956364,0,0,0.8956364,113.88033,127.72904)" />
      <path
         d="m -84.499261,-46.019337 c 0,0.683418 -0.633165,1.237437 -1.414214,1.237437 -0.781049,0 -1.414214,-0.554019 -1.414214,-1.237437 0,-0.683417 0.633165,-1.237437 1.414214,-1.237437 0.781049,0 1.414214,0.55402 1.414214,1.237437 z"
         id="path3649"
         sodipodi:cx="-85.913475"
         sodipodi:cy="-46.019337"
         sodipodi:rx="1.4142135"
         sodipodi:ry="1.2374369"
         sodipodi:type="arc"
         style="fill:#37ea02;fill-opacity:1;fill-rule:evenodd;stroke:none;stroke-width:1.60000002;marker:none;visibility:visible;display:inline;overflow:visible;enable-background:accumulate"
         transform="matrix(0.8956364,0,0,0.8956364,121.04542,127.72904)" />
      <path
         d="m -84.499261,-46.019337 c 0,0.683418 -0.633165,1.237437 -1.414214,1.237437 -0.781049,0 -1.414214,-0.554019 -1.414214,-1.237437 0,-0.683417 0.633165,-1.237437 1.414214,-1.237437 0.781049,0 1.414214,0.55402 1.414214,1.237437 z"
         id="path3651"
         sodipodi:cx="-85.913475"
         sodipodi:cy="-46.019337"
         sodipodi:rx="1.4142135"
         sodipodi:ry="1.2374369"
         sodipodi:type="arc"
         style="fill:#37ea02;fill-opacity:1;fill-rule:evenodd;stroke:none;stroke-width:1.60000002;marker:none;visibility:visible;display:inline;overflow:visible;enable-background:accumulate"
         transform="matrix(0.8956364,0,0,0.8956364,128.21051,127.72904)" />
      <path
         d="m -84.499261,-46.019337 c 0,0.683418 -0.633165,1.237437 -1.414214,1.237437 -0.781049,0 -1.414214,-0.554019 -1.414214,-1.237437 0,-0.683417 0.633165,-1.237437 1.414214,-1.237437 0.781049,0 1.414214,0.55402 1.414214,1.237437 z"
         id="path3653"
         sodipodi:cx="-85.913475"
         sodipodi:cy="-46.019337"
         sodipodi:rx="1.4142135"
         sodipodi:ry="1.2374369"
         sodipodi:type="arc"
         style="fill:#37ea02;fill-opacity:1;fill-rule:evenodd;stroke:none;stroke-width:1.60000002;marker:none;visibility:visible;display:inline;overflow:visible;enable-background:accumulate"
         transform="matrix(0.8956364,0,0,0.8956364,147.91451,127.72904)" />
      <path
         d="m -84.499261,-46.019337 c 0,0.683418 -0.633165,1.237437 -1.414214,1.237437 -0.781049,0 -1.414214,-0.554019 -1.414214,-1.237437 0,-0.683417 0.633165,-1.237437 1.414214,-1.237437 0.781049,0 1.414214,0.55402 1.414214,1.237437 z"
         id="path3655"
         sodipodi:cx="-85.913475"
         sodipodi:cy="-46.019337"
         sodipodi:rx="1.4142135"
         sodipodi:ry="1.2374369"
         sodipodi:type="arc"
         style="fill:#37ea02;fill-opacity:1;fill-rule:evenodd;stroke:none;stroke-width:1.60000002;marker:none;visibility:visible;display:inline;overflow:visible;enable-background:accumulate"
         transform="matrix(0.8956364,0,0,0.8956364,165.82724,127.72904)" />
      <path
         d="m -84.499261,-46.019337 c 0,0.683418 -0.633165,1.237437 -1.414214,1.237437 -0.781049,0 -1.414214,-0.554019 -1.414214,-1.237437 0,-0.683417 0.633165,-1.237437 1.414214,-1.237437 0.781049,0 1.414214,0.55402 1.414214,1.237437 z"
         id="path3657"
         sodipodi:cx="-85.913475"
         sodipodi:cy="-46.019337"
         sodipodi:rx="1.4142135"
         sodipodi:ry="1.2374369"
         sodipodi:type="arc"
         style="fill:#37ea02;fill-opacity:1;fill-rule:evenodd;stroke:none;stroke-width:1.60000002;marker:none;visibility:visible;display:inline;overflow:visible;enable-background:accumulate"
         transform="matrix(0.8956364,0,0,0.8956364,183.73997,127.72904)" />
      <path
         d="m 33.992554,82.705012 0.06669,0 c 0.09548,10e-7 0.167275,-0.01895 0.215381,-0.05685 0.04883,-0.0379 0.07325,-0.09949 0.07325,-0.184769 -1e-6,-0.07945 -0.02187,-0.13812 -0.0656,-0.176022 -0.04301,-0.0379 -0.110789,-0.05685 -0.203355,-0.05685 l -0.08637,0 0,0.474494 m 0.698623,-0.253647 c -10e-7,0.06997 -0.01057,0.137029 -0.03171,0.201169 -0.02114,0.06414 -0.05612,0.120629 -0.104957,0.169462 -0.04811,0.04883 -0.111883,0.08783 -0.191329,0.116984 -0.07872,0.02916 -0.176387,0.04373 -0.293006,0.04373 l -0.07763,0 0,0.568519 -0.338924,0 0,-1.598413 0.443882,0 c 0.10277,10e-7 0.191328,0.01166 0.265673,0.03499 0.07507,0.0226 0.136662,0.0554 0.184769,0.0984 0.04883,0.04228 0.08491,0.09439 0.108237,0.156343 0.02332,0.06123 0.03498,0.130833 0.03499,0.208821 m 0.553213,0.486522 c 0,0.121722 0.01713,0.213559 0.05138,0.275513 0.03426,0.06123 0.09002,0.09184 0.167276,0.09184 0.07653,0 0.131925,-0.03098 0.166183,-0.09293 0.03426,-0.06195 0.05138,-0.153426 0.05139,-0.274419 -1e-6,-0.121721 -0.01713,-0.212465 -0.05139,-0.272234 -0.03426,-0.0605 -0.09038,-0.09074 -0.168369,-0.09074 -0.07653,1e-6 -0.131927,0.03025 -0.166183,0.09074 -0.03353,0.05977 -0.05029,0.150513 -0.05029,0.272234 m 0.776247,0 c -1e-6,0.102042 -0.01312,0.192422 -0.03936,0.27114 -0.02551,0.07872 -0.06268,0.145045 -0.111517,0.198981 -0.04811,0.05394 -0.107145,0.09512 -0.177115,0.123544 -0.06924,0.0277 -0.147233,0.04154 -0.233968,0.04155 -0.08091,-10e-7 -0.15525,-0.01385 -0.223034,-0.04155 -0.06779,-0.02843 -0.12646,-0.06961 -0.176023,-0.123544 -0.04883,-0.05394 -0.0871,-0.120263 -0.114797,-0.198981 -0.0277,-0.07872 -0.04155,-0.169098 -0.04154,-0.27114 -10e-7,-0.101313 0.01276,-0.191328 0.03827,-0.270047 0.02624,-0.07872 0.06341,-0.14468 0.111517,-0.197888 0.04883,-0.05394 0.107873,-0.09475 0.177116,-0.122451 0.06924,-0.0277 0.147596,-0.04154 0.235061,-0.04154 0.0809,1e-6 0.155248,0.01385 0.223034,0.04154 0.06778,0.0277 0.126094,0.06852 0.174929,0.122451 0.04956,0.05321 0.08819,0.119171 0.115891,0.197888 0.0277,0.07872 0.04154,0.168734 0.04154,0.270047 m 1.221223,0.613344 -0.09402,-0.427482 c -0.0029,-0.01239 -0.0069,-0.02988 -0.01203,-0.05248 -0.0044,-0.02332 -0.0095,-0.0492 -0.01531,-0.07762 -0.0058,-0.02915 -0.01203,-0.05977 -0.01859,-0.09184 -0.0058,-0.0328 -0.01203,-0.06523 -0.01859,-0.09731 -0.01458,-0.07507 -0.03061,-0.155977 -0.04811,-0.242714 l -0.0066,0 c -0.01676,0.08674 -0.03207,0.168006 -0.04592,0.243808 -0.0058,0.03207 -0.01203,0.0645 -0.01859,0.0973 -0.0058,0.0328 -0.01166,0.06378 -0.01749,0.09293 -0.0058,0.02843 -0.0113,0.0543 -0.0164,0.07763 -0.0044,0.02332 -0.008,0.04155 -0.01093,0.05466 l -0.0984,0.423109 -0.358604,0 -0.329085,-1.222316 0.331272,0 0.123543,0.541187 c 0.0066,0.02843 0.01312,0.06268 0.01968,0.10277 0.0073,0.03936 0.01385,0.07945 0.01968,0.120264 0.0066,0.04009 0.01239,0.07835 0.01749,0.114797 0.0051,0.03571 0.0091,0.06414 0.01203,0.08528 l 0.0066,0 c 7.29e-4,-0.01385 0.0022,-0.03171 0.0044,-0.05357 0.0029,-0.02259 0.0062,-0.04665 0.0098,-0.07216 0.0036,-0.02551 0.0073,-0.05138 0.01093,-0.07762 0.0044,-0.02697 0.0084,-0.05211 0.01203,-0.07544 0.0044,-0.02332 0.008,-0.04373 0.01093,-0.06123 0.0036,-0.01822 0.0066,-0.03098 0.0087,-0.03827 l 0.133384,-0.586012 0.36735,0 0.127917,0.586012 c 0.0036,0.01604 0.0084,0.04082 0.01421,0.07434 0.0058,0.03353 0.01166,0.06961 0.01749,0.108237 0.0066,0.0379 0.01203,0.07507 0.0164,0.111518 0.0044,0.03571 0.0069,0.06378 0.0077,0.08418 l 0.0066,0 c 0.0022,-0.01822 0.0058,-0.04519 0.01093,-0.08091 0.0058,-0.03571 0.01203,-0.07398 0.01859,-0.114797 0.0066,-0.04154 0.01348,-0.08273 0.02077,-0.123543 0.008,-0.04082 0.0153,-0.07544 0.02187,-0.103864 l 0.127917,-0.541187 0.326898,0 -0.333458,1.222316 -0.362978,0 m 1.36554,-1.008028 c -0.05904,10e-7 -0.108238,0.02077 -0.147597,0.06232 -0.03863,0.04155 -0.06086,0.10678 -0.06669,0.195701 l 0.425296,0 c -7.3e-4,-0.03717 -0.0055,-0.07143 -0.01421,-0.10277 -0.0087,-0.03134 -0.02187,-0.05831 -0.03936,-0.08091 -0.01749,-0.02332 -0.03936,-0.04154 -0.0656,-0.05466 -0.02624,-0.01312 -0.05685,-0.01968 -0.09184,-0.01968 m 0.04264,1.029895 c -0.08747,-10e-7 -0.168006,-0.01276 -0.241621,-0.03827 -0.07362,-0.02551 -0.137028,-0.06378 -0.190235,-0.114797 -0.05321,-0.05175 -0.09475,-0.116619 -0.124637,-0.194609 -0.02916,-0.07872 -0.04373,-0.17092 -0.04373,-0.276606 -10e-7,-0.107144 0.01348,-0.200803 0.04045,-0.28098 0.02697,-0.08017 0.0645,-0.146866 0.11261,-0.200075 0.04883,-0.05393 0.107144,-0.09439 0.174929,-0.121357 0.06851,-0.02697 0.144316,-0.04045 0.227408,-0.04045 0.0809,10e-7 0.153791,0.01239 0.218661,0.03717 0.0656,0.02405 0.120992,0.05977 0.166183,0.107144 0.04592,0.04738 0.0809,0.105687 0.104957,0.174929 0.02478,0.06851 0.03717,0.147233 0.03717,0.236154 l 0,0.16181 -0.745635,0 c 0.0015,0.04665 0.0087,0.08892 0.02187,0.126823 0.01385,0.03717 0.0328,0.06888 0.05685,0.09512 0.02478,0.02551 0.0543,0.04519 0.08856,0.05904 0.03498,0.01385 0.07471,0.02077 0.11917,0.02077 0.03717,0 0.07216,-0.0018 0.104957,-0.0055 0.03353,-0.0044 0.06596,-0.01057 0.0973,-0.01859 0.03134,-0.008 0.06232,-0.01786 0.09293,-0.02952 0.03061,-0.01239 0.06195,-0.0266 0.09402,-0.04264 l 0,0.25802 c -0.02916,0.01531 -0.05868,0.02843 -0.08856,0.03936 -0.02916,0.0102 -0.06013,0.01895 -0.09293,0.02624 -0.0328,0.0073 -0.06815,0.01239 -0.106051,0.01531 -0.0379,0.0036 -0.07945,0.0055 -0.124636,0.0055 m 1.401618,-1.267142 c 0.0087,10e-7 0.01822,3.65e-4 0.02843,0.0011 0.01093,10e-7 0.02114,7.3e-4 0.03061,0.0022 0.0102,7.3e-4 0.01931,0.0018 0.02733,0.0033 0.0087,7.3e-4 0.01531,0.0018 0.01968,0.0033 l 0,0.312686 c -0.0058,-0.0015 -0.01385,-0.0029 -0.02405,-0.0044 -0.0102,-0.0015 -0.02114,-0.0026 -0.0328,-0.0033 -0.01093,-0.0015 -0.02187,-0.0022 -0.0328,-0.0022 -0.01093,-7.28e-4 -0.02004,-0.0011 -0.02733,-0.0011 -0.043,10e-7 -0.08273,0.0055 -0.119171,0.0164 -0.03572,0.01093 -0.06669,0.02879 -0.09293,0.05357 -0.02551,0.02405 -0.04556,0.05612 -0.06013,0.09621 -0.01385,0.03936 -0.02077,0.08783 -0.02077,0.14541 l 0,0.622091 -0.333459,0 0,-1.222316 0.252554,0 0.0492,0.183676 0.0164,0 c 0.01749,-0.03134 0.03644,-0.05977 0.05685,-0.08528 0.02041,-0.02551 0.043,-0.04701 0.06779,-0.0645 0.02551,-0.01822 0.05394,-0.03207 0.08528,-0.04155 0.03207,-0.0102 0.06851,-0.0153 0.109331,-0.01531 m 2.981445,0.801393 c -10e-7,0.07143 -0.01239,0.135935 -0.03717,0.193515 -0.02405,0.05685 -0.05977,0.105687 -0.107144,0.146503 -0.04665,0.04009 -0.104229,0.07107 -0.172742,0.09293 -0.06779,0.02187 -0.145775,0.0328 -0.233968,0.0328 -0.07726,-10e-7 -0.15197,-0.008 -0.224128,-0.02405 -0.07143,-0.01604 -0.137756,-0.04009 -0.198981,-0.07216 l 0,-0.314873 c 0.03498,0.01677 0.07034,0.03316 0.10605,0.0492 0.03572,0.01531 0.07179,0.02916 0.108238,0.04155 0.03717,0.01239 0.07398,0.02223 0.110424,0.02952 0.03717,0.0073 0.07398,0.01093 0.110423,0.01093 0.03717,0 0.06888,-0.004 0.09512,-0.01203 0.02697,-0.0087 0.04847,-0.02041 0.06451,-0.03499 0.01676,-0.01531 0.02879,-0.03316 0.03608,-0.05357 0.008,-0.02114 0.01203,-0.0441 0.01203,-0.06888 -10e-7,-0.02988 -0.0066,-0.05612 -0.01968,-0.07872 -0.01239,-0.02332 -0.03025,-0.04482 -0.05357,-0.0645 -0.0226,-0.02041 -0.05029,-0.04009 -0.08309,-0.05904 -0.03207,-0.01895 -0.06815,-0.03899 -0.108237,-0.06013 -0.03353,-0.01749 -0.07107,-0.03863 -0.112611,-0.06341 -0.04155,-0.02478 -0.08091,-0.05539 -0.118077,-0.09184 -0.03644,-0.03717 -0.06706,-0.08163 -0.09184,-0.133384 -0.02478,-0.05248 -0.03717,-0.11516 -0.03717,-0.188048 0,-0.07143 0.01166,-0.135204 0.03499,-0.191329 0.02405,-0.05685 0.05795,-0.104591 0.101677,-0.143223 0.04373,-0.03936 0.09658,-0.06924 0.158529,-0.08965 0.06268,-0.02041 0.132654,-0.03061 0.209915,-0.03061 0.03863,2e-6 0.07617,0.0026 0.112611,0.0077 0.03717,0.0051 0.07362,0.01239 0.10933,0.02187 0.03644,0.0095 0.07289,0.02114 0.109331,0.03499 0.03644,0.01385 0.07398,0.02989 0.112611,0.04811 l -0.109331,0.263487 c -0.0328,-0.0153 -0.06341,-0.02879 -0.09184,-0.04045 -0.02843,-0.01166 -0.05612,-0.0215 -0.08309,-0.02952 -0.02697,-0.008 -0.05357,-0.01385 -0.07981,-0.01749 -0.02551,-0.0044 -0.05139,-0.0066 -0.07762,-0.0066 -0.05685,2e-6 -0.100585,0.01531 -0.131197,0.04592 -0.02988,0.02988 -0.04483,0.06997 -0.04483,0.120264 -10e-7,0.02697 0.0044,0.05102 0.01312,0.07216 0.0095,0.02041 0.02405,0.03973 0.04373,0.05795 0.02041,0.01822 0.04628,0.03681 0.07762,0.05576 0.03207,0.01895 0.0707,0.04045 0.115891,0.0645 0.05466,0.02916 0.104956,0.05904 0.150876,0.08965 0.04592,0.02989 0.08528,0.06341 0.118077,0.100584 0.03353,0.03645 0.0594,0.07799 0.07762,0.124637 0.01822,0.04665 0.02733,0.101314 0.02733,0.163996 m 0.767501,0.200075 c 0.0328,0 0.06378,-0.0036 0.09293,-0.01093 0.02988,-0.0073 0.06013,-0.0164 0.09074,-0.02733 l 0,0.248181 c -0.03134,0.01603 -0.07034,0.02915 -0.116984,0.03936 -0.04592,0.01093 -0.09621,0.0164 -0.150876,0.0164 -0.05321,-10e-7 -0.102771,-0.0062 -0.14869,-0.01859 -0.04592,-0.01239 -0.08564,-0.03389 -0.11917,-0.06451 -0.03353,-0.03134 -0.06013,-0.07289 -0.07981,-0.124637 -0.01895,-0.05248 -0.02843,-0.118076 -0.02843,-0.196795 l 0,-0.589292 -0.159623,0 0,-0.141036 0.183675,-0.111517 0.09621,-0.258021 0.213195,0 0,0.260207 0.297379,0 0,0.250367 -0.297379,0 0,0.589292 c -10e-7,0.04738 0.01166,0.08236 0.03499,0.104958 0.02332,0.02259 0.05394,0.03389 0.09184,0.03389 m 1.140319,0.243807 -0.06451,-0.166182 -0.0098,0 c -0.02405,0.0328 -0.04811,0.06123 -0.07216,0.08528 -0.02405,0.02332 -0.05029,0.04264 -0.07872,0.05795 -0.02843,0.01531 -0.0605,0.0266 -0.09621,0.03389 -0.03499,0.0073 -0.0758,0.01093 -0.12245,0.01093 -0.04956,-10e-7 -0.09548,-0.0077 -0.137757,-0.02296 -0.04227,-0.01604 -0.07908,-0.03972 -0.110424,-0.07107 -0.03061,-0.03207 -0.05466,-0.07216 -0.07216,-0.120263 -0.01749,-0.04884 -0.02624,-0.106415 -0.02624,-0.172743 0,-0.129738 0.04154,-0.22522 0.124637,-0.286446 0.08309,-0.06195 0.207363,-0.09621 0.372817,-0.102771 l 0.194609,-0.0066 0,-0.09184 c -1e-6,-0.05029 -0.01458,-0.08746 -0.04373,-0.111518 -0.02915,-0.02405 -0.06997,-0.03608 -0.12245,-0.03608 -0.05248,10e-7 -0.103865,0.0077 -0.154156,0.02296 -0.04956,0.01531 -0.09949,0.03572 -0.149783,0.06123 l -0.108237,-0.220848 c 0.06123,-0.03426 0.129009,-0.06122 0.203355,-0.08091 0.07434,-0.01968 0.152333,-0.02952 0.233967,-0.02952 0.152333,10e-7 0.268952,0.03572 0.349858,0.107144 0.08163,0.07143 0.122449,0.180032 0.12245,0.325805 l 0,0.814513 -0.232874,0 m -0.0984,-0.566332 -0.110424,0.0044 c -0.04446,0.0015 -0.082,0.0073 -0.112611,0.01749 -0.03061,0.0102 -0.05539,0.02405 -0.07435,0.04155 -0.01822,0.01676 -0.03171,0.03717 -0.04045,0.06123 -0.008,0.02332 -0.01203,0.04956 -0.01203,0.07872 -1e-6,0.05102 0.01239,0.08746 0.03717,0.10933 0.02478,0.02114 0.05722,0.03171 0.0973,0.03171 0.03061,0 0.05904,-0.0051 0.08528,-0.01531 0.02624,-0.01093 0.04883,-0.0266 0.06779,-0.04701 0.01968,-0.02114 0.03498,-0.04665 0.04592,-0.07653 0.01093,-0.03061 0.0164,-0.0656 0.0164,-0.104957 l 0,-0.100584 m 1.17093,0.322525 c 0.0328,0 0.06377,-0.0036 0.09293,-0.01093 0.02988,-0.0073 0.06013,-0.0164 0.09074,-0.02733 l 0,0.248181 c -0.03134,0.01603 -0.07034,0.02915 -0.116983,0.03936 -0.04592,0.01093 -0.09621,0.0164 -0.150877,0.0164 -0.05321,-10e-7 -0.102771,-0.0062 -0.148689,-0.01859 -0.04592,-0.01239 -0.08564,-0.03389 -0.119171,-0.06451 -0.03353,-0.03134 -0.06013,-0.07289 -0.07981,-0.124637 -0.01895,-0.05248 -0.02843,-0.118076 -0.02843,-0.196795 l 0,-0.589292 -0.159623,0 0,-0.141036 0.183676,-0.111517 0.09621,-0.258021 0.213194,0 0,0.260207 0.29738,0 0,0.250367 -0.29738,0 0,0.589292 c 0,0.04738 0.01166,0.08236 0.03499,0.104958 0.02332,0.02259 0.05394,0.03389 0.09184,0.03389 m 1.22997,0.243807 -0.04483,-0.156342 -0.01749,0 c -0.01822,0.03134 -0.04009,0.05831 -0.0656,0.0809 -0.02478,0.02187 -0.05212,0.04009 -0.082,0.05467 -0.02988,0.01458 -0.06159,0.02515 -0.09512,0.03171 -0.03353,0.0073 -0.06779,0.01093 -0.10277,0.01093 -0.05977,-10e-7 -0.114069,-0.0084 -0.162903,-0.02515 -0.04884,-0.01749 -0.09074,-0.04446 -0.12573,-0.0809 -0.03499,-0.03644 -0.06195,-0.08273 -0.08091,-0.13885 -0.01895,-0.05612 -0.02843,-0.123543 -0.02843,-0.202262 l 0,-0.79702 0.333459,0 0,0.713929 c -1e-6,0.08819 0.01312,0.154521 0.03936,0.198982 0.02697,0.04373 0.06961,0.0656 0.127916,0.0656 0.04373,0 0.08017,-0.0087 0.109331,-0.02624 0.02915,-0.01749 0.05211,-0.04337 0.06888,-0.07762 0.01749,-0.03426 0.02988,-0.07653 0.03717,-0.126823 0.0073,-0.05029 0.01093,-0.107873 0.01093,-0.172743 l 0,-0.575079 0.333458,0 0,1.222316 -0.25474,0 m 1.419111,-0.362977 c -1e-6,0.06414 -0.01166,0.120264 -0.03499,0.168369 -0.02332,0.04811 -0.05649,0.08819 -0.09949,0.120264 -0.043,0.03207 -0.09512,0.05612 -0.156343,0.07216 -0.06123,0.01603 -0.129739,0.02405 -0.205541,0.02405 -0.04009,-10e-7 -0.07726,-0.0015 -0.111517,-0.0044 -0.03426,-0.0022 -0.06669,-0.0062 -0.09731,-0.01203 -0.03061,-0.0058 -0.06013,-0.01312 -0.08856,-0.02187 -0.02843,-0.0087 -0.05722,-0.01968 -0.08637,-0.0328 l 0,-0.275514 c 0.03061,0.01531 0.06268,0.02916 0.09621,0.04155 0.03426,0.01239 0.06815,0.02332 0.101678,0.0328 0.03353,0.0087 0.06596,0.01567 0.0973,0.02077 0.03207,0.0051 0.06159,0.0077 0.08856,0.0077 0.02988,0 0.05539,-0.0026 0.07653,-0.0077 0.02114,-0.0058 0.03827,-0.01348 0.05139,-0.02296 0.01385,-0.0102 0.02369,-0.02187 0.02952,-0.03499 0.0066,-0.01385 0.0098,-0.02843 0.0098,-0.04373 -1e-6,-0.01531 -0.0026,-0.02879 -0.0077,-0.04045 -0.0044,-0.01239 -0.01494,-0.02514 -0.03171,-0.03826 -0.01676,-0.01385 -0.04155,-0.02916 -0.07435,-0.04592 -0.03207,-0.01749 -0.07544,-0.03863 -0.130104,-0.06341 -0.05321,-0.02405 -0.09949,-0.04774 -0.138849,-0.07106 -0.03863,-0.02405 -0.0707,-0.05066 -0.09621,-0.07981 -0.02478,-0.02915 -0.04337,-0.06232 -0.05576,-0.09949 -0.01239,-0.0379 -0.01859,-0.08273 -0.01859,-0.134477 0,-0.05685 0.01093,-0.106414 0.0328,-0.148689 0.02187,-0.043 0.05284,-0.07872 0.09293,-0.107144 0.04009,-0.02842 0.08819,-0.04956 0.144316,-0.06341 0.05685,-0.01458 0.119899,-0.02186 0.189142,-0.02187 0.07289,10e-7 0.142129,0.0084 0.207729,0.02515 0.0656,0.01676 0.133018,0.04191 0.202261,0.07544 l -0.100584,0.236154 c -0.05539,-0.02624 -0.108238,-0.04774 -0.158529,-0.06451 -0.05029,-0.01676 -0.100585,-0.02514 -0.150877,-0.02515 -0.04519,1e-6 -0.07799,0.008 -0.0984,0.02405 -0.01968,0.01604 -0.02952,0.0379 -0.02952,0.0656 -10e-7,0.01458 0.0025,0.0277 0.0077,0.03936 0.0051,0.01093 0.01531,0.0226 0.03061,0.03499 0.01531,0.01166 0.03681,0.02478 0.06451,0.03936 0.0277,0.01385 0.06378,0.03098 0.108238,0.05138 0.05175,0.0226 0.0984,0.04519 0.139943,0.06779 0.04154,0.02187 0.07726,0.04701 0.107144,0.07544 0.02988,0.02843 0.05284,0.06159 0.06888,0.09949 0.01603,0.0379 0.02405,0.08382 0.02405,0.137757 m 3.270078,-0.451536 c -1e-6,0.134842 -0.01859,0.253283 -0.05576,0.355325 -0.03644,0.101313 -0.08965,0.186227 -0.159623,0.25474 -0.06924,0.06779 -0.154522,0.118806 -0.255833,0.153063 -0.100586,0.03426 -0.215383,0.05138 -0.344392,0.05138 l -0.420923,0 0,-1.598413 0.467935,0 c 0.117348,10e-7 0.223034,0.01677 0.317059,0.05029 0.09475,0.03353 0.175657,0.08346 0.242714,0.149783 0.06705,0.0656 0.11844,0.147233 0.154156,0.2449 0.03644,0.09767 0.05466,0.210645 0.05466,0.338925 m -0.343298,0.0087 c -1e-6,-0.08892 -0.0091,-0.165453 -0.02733,-0.229595 -0.01749,-0.06487 -0.04337,-0.11844 -0.07763,-0.160716 -0.03353,-0.04227 -0.07507,-0.07361 -0.124637,-0.09402 -0.04883,-0.02041 -0.104958,-0.03061 -0.168369,-0.03061 l -0.156343,0 0,1.040827 0.124637,0 c 0.142858,0 0.250002,-0.04373 0.321432,-0.131197 0.07216,-0.08746 0.108236,-0.219025 0.108237,-0.394683 m 1.550308,0.361884 c -1e-6,0.07143 -0.01239,0.135935 -0.03717,0.193515 -0.02405,0.05685 -0.05977,0.105687 -0.107144,0.146503 -0.04665,0.04009 -0.10423,0.07107 -0.172743,0.09293 -0.06779,0.02187 -0.145775,0.0328 -0.233967,0.0328 -0.07726,-10e-7 -0.15197,-0.008 -0.224128,-0.02405 -0.07143,-0.01604 -0.137757,-0.04009 -0.198982,-0.07216 l 0,-0.314873 c 0.03499,0.01677 0.07034,0.03316 0.106051,0.0492 0.03571,0.01531 0.07179,0.02916 0.108237,0.04155 0.03717,0.01239 0.07398,0.02223 0.110424,0.02952 0.03717,0.0073 0.07398,0.01093 0.110424,0.01093 0.03717,0 0.06888,-0.004 0.09512,-0.01203 0.02697,-0.0087 0.04847,-0.02041 0.0645,-0.03499 0.01676,-0.01531 0.02879,-0.03316 0.03608,-0.05357 0.008,-0.02114 0.01203,-0.0441 0.01203,-0.06888 -1e-6,-0.02988 -0.0066,-0.05612 -0.01968,-0.07872 -0.01239,-0.02332 -0.03025,-0.04482 -0.05357,-0.0645 -0.0226,-0.02041 -0.05029,-0.04009 -0.08309,-0.05904 -0.03207,-0.01895 -0.06815,-0.03899 -0.108237,-0.06013 -0.03353,-0.01749 -0.07106,-0.03863 -0.11261,-0.06341 -0.04155,-0.02478 -0.08091,-0.05539 -0.118077,-0.09184 -0.03644,-0.03717 -0.06706,-0.08163 -0.09184,-0.133384 -0.02478,-0.05248 -0.03717,-0.11516 -0.03717,-0.188048 0,-0.07143 0.01166,-0.135204 0.03499,-0.191329 0.02405,-0.05685 0.05795,-0.104591 0.101678,-0.143223 0.04373,-0.03936 0.09658,-0.06924 0.158529,-0.08965 0.06268,-0.02041 0.132654,-0.03061 0.209915,-0.03061 0.03863,2e-6 0.07617,0.0026 0.11261,0.0077 0.03717,0.0051 0.07362,0.01239 0.109331,0.02187 0.03644,0.0095 0.07289,0.02114 0.109331,0.03499 0.03644,0.01385 0.07398,0.02989 0.11261,0.04811 l -0.10933,0.263487 c -0.0328,-0.0153 -0.06341,-0.02879 -0.09184,-0.04045 -0.02843,-0.01166 -0.05612,-0.0215 -0.08309,-0.02952 -0.02697,-0.008 -0.05357,-0.01385 -0.07981,-0.01749 -0.02551,-0.0044 -0.05139,-0.0066 -0.07763,-0.0066 -0.05685,2e-6 -0.100584,0.01531 -0.131196,0.04592 -0.02988,0.02988 -0.04483,0.06997 -0.04483,0.120264 0,0.02697 0.0044,0.05102 0.01312,0.07216 0.0095,0.02041 0.02405,0.03973 0.04373,0.05795 0.02041,0.01822 0.04628,0.03681 0.07762,0.05576 0.03207,0.01895 0.0707,0.04045 0.11589,0.0645 0.05466,0.02916 0.104957,0.05904 0.150877,0.08965 0.04592,0.02989 0.08528,0.06341 0.118077,0.100584 0.03353,0.03645 0.0594,0.07799 0.07762,0.124637 0.01822,0.04665 0.02733,0.101314 0.02733,0.163996 m 0.29738,0.443882 0,-1.598413 0.338925,0 0,1.318527 0.581639,0 0,0.279886 -0.920564,0 m 15.739235,0 0,-1.598413 0.338925,0 0,1.318527 0.581639,0 0,0.279886 -0.920564,0 m 2.110083,0 -0.109331,-0.38047 -0.551026,0 -0.110424,0.38047 -0.342205,0 0.51932,-1.604973 0.414363,0 0.521507,1.604973 -0.342204,0 m -0.188049,-0.66473 -0.102771,-0.349858 c -0.0044,-0.01312 -0.01093,-0.03462 -0.01968,-0.0645 -0.0087,-0.02988 -0.01822,-0.06268 -0.02843,-0.0984 -0.0095,-0.03644 -0.01859,-0.07289 -0.02733,-0.109331 -0.0087,-0.03644 -0.01494,-0.06742 -0.01859,-0.09293 -0.0029,0.01604 -0.0069,0.03499 -0.01203,0.05685 -0.0044,0.02187 -0.0098,0.04519 -0.0164,0.06997 -0.0058,0.02405 -0.01203,0.04847 -0.01859,0.07325 -0.0066,0.02478 -0.01276,0.04811 -0.01859,0.06997 -0.0058,0.02187 -0.0113,0.04118 -0.0164,0.05795 -0.0044,0.01677 -0.0077,0.02916 -0.0098,0.03717 l -0.101677,0.349858 0.39031,0 m 2.081653,0.66473 -0.429669,0 -0.628651,-1.209196 -0.0098,0 c 0.0044,0.05612 0.008,0.111883 0.01093,0.167276 0.0029,0.04738 0.0051,0.09731 0.0066,0.149783 0.0022,0.05175 0.0033,0.0984 0.0033,0.139943 l 0,0.752194 -0.302846,0 0,-1.598413 0.427483,0 0.627558,1.19717 0.0066,0 c -0.0022,-0.05539 -0.0047,-0.110059 -0.0077,-0.163996 -7.3e-4,-0.02332 -0.0018,-0.04701 -0.0033,-0.07106 -7.3e-4,-0.02478 -0.0015,-0.0492 -0.0022,-0.07325 -7.3e-4,-0.02478 -0.0015,-0.04847 -0.0022,-0.07107 -10e-7,-0.02259 -10e-7,-0.043 0,-0.06123 l 0,-0.756568 0.303939,0 0,1.598413 m 14.992509,-1.598413 0,1.034267 c -10e-7,0.08309 -0.01276,0.160352 -0.03826,0.231781 -0.02478,0.07143 -0.06305,0.133384 -0.114797,0.185862 -0.05102,0.05248 -0.115163,0.09366 -0.192422,0.123544 -0.07726,0.02988 -0.168006,0.04483 -0.272234,0.04483 -0.0984,-10e-7 -0.185498,-0.01385 -0.2613,-0.04155 -0.07507,-0.02843 -0.138121,-0.06851 -0.189142,-0.120264 -0.05029,-0.05175 -0.08856,-0.113703 -0.114797,-0.185862 -0.02624,-0.07289 -0.03936,-0.153791 -0.03936,-0.242714 l 0,-1.029894 0.337832,0 0,1.004748 c -10e-7,0.05904 0.0058,0.109696 0.01749,0.15197 0.01166,0.04155 0.02879,0.0758 0.05139,0.10277 0.02332,0.02624 0.05211,0.04556 0.08637,0.05795 0.03426,0.01239 0.07434,0.01859 0.120264,0.01859 0.09548,0 0.164359,-0.0277 0.206635,-0.08309 0.043,-0.05539 0.0645,-0.13885 0.0645,-0.250367 l 0,-1.002562 0.337831,0 m 1.267139,1.154531 c -10e-7,0.07143 -0.01239,0.135935 -0.03717,0.193515 -0.02405,0.05685 -0.05977,0.105687 -0.107144,0.146503 -0.04665,0.04009 -0.104229,0.07107 -0.172742,0.09293 -0.06779,0.02187 -0.145775,0.0328 -0.233968,0.0328 -0.07726,-10e-7 -0.15197,-0.008 -0.224127,-0.02405 -0.07143,-0.01604 -0.137757,-0.04009 -0.198982,-0.07216 l 0,-0.314873 c 0.03499,0.01677 0.07034,0.03316 0.106051,0.0492 0.03571,0.01531 0.07179,0.02916 0.108237,0.04155 0.03717,0.01239 0.07398,0.02223 0.110424,0.02952 0.03717,0.0073 0.07398,0.01093 0.110424,0.01093 0.03717,0 0.06888,-0.004 0.09512,-0.01203 0.02697,-0.0087 0.04847,-0.02041 0.06451,-0.03499 0.01676,-0.01531 0.02879,-0.03316 0.03608,-0.05357 0.008,-0.02114 0.01203,-0.0441 0.01203,-0.06888 -1e-6,-0.02988 -0.0066,-0.05612 -0.01968,-0.07872 -0.01239,-0.02332 -0.03025,-0.04482 -0.05357,-0.0645 -0.02259,-0.02041 -0.05029,-0.04009 -0.08309,-0.05904 -0.03207,-0.01895 -0.06815,-0.03899 -0.108237,-0.06013 -0.03353,-0.01749 -0.07107,-0.03863 -0.112611,-0.06341 -0.04155,-0.02478 -0.08091,-0.05539 -0.118077,-0.09184 -0.03644,-0.03717 -0.06706,-0.08163 -0.09184,-0.133384 -0.02478,-0.05248 -0.03717,-0.11516 -0.03717,-0.188048 0,-0.07143 0.01166,-0.135204 0.03499,-0.191329 0.02405,-0.05685 0.05795,-0.104591 0.101677,-0.143223 0.04373,-0.03936 0.09658,-0.06924 0.15853,-0.08965 0.06268,-0.02041 0.132654,-0.03061 0.209914,-0.03061 0.03863,2e-6 0.07617,0.0026 0.112611,0.0077 0.03717,0.0051 0.07362,0.01239 0.109331,0.02187 0.03644,0.0095 0.07289,0.02114 0.10933,0.03499 0.03644,0.01385 0.07398,0.02989 0.112611,0.04811 l -0.109331,0.263487 c -0.0328,-0.0153 -0.06341,-0.02879 -0.09184,-0.04045 -0.02843,-0.01166 -0.05612,-0.0215 -0.08309,-0.02952 -0.02697,-0.008 -0.05357,-0.01385 -0.07981,-0.01749 -0.02551,-0.0044 -0.05139,-0.0066 -0.07762,-0.0066 -0.05685,2e-6 -0.100585,0.01531 -0.131197,0.04592 -0.02988,0.02988 -0.04483,0.06997 -0.04483,0.120264 -10e-7,0.02697 0.0044,0.05102 0.01312,0.07216 0.0095,0.02041 0.02405,0.03973 0.04373,0.05795 0.02041,0.01822 0.04628,0.03681 0.07762,0.05576 0.03207,0.01895 0.0707,0.04045 0.115891,0.0645 0.05466,0.02916 0.104956,0.05904 0.150876,0.08965 0.04592,0.02989 0.08528,0.06341 0.118077,0.100584 0.03353,0.03645 0.0594,0.07799 0.07762,0.124637 0.01822,0.04665 0.02733,0.101314 0.02733,0.163996 m 0.29738,-1.154531 0.467935,0 c 0.100583,10e-7 0.188777,0.0073 0.26458,0.02187 0.0758,0.01385 0.139213,0.03681 0.190235,0.06888 0.05102,0.03134 0.08929,0.07289 0.114798,0.124637 0.02624,0.05102 0.03936,0.11407 0.03936,0.189142 -2e-6,0.04519 -0.0055,0.08747 -0.0164,0.126824 -0.01093,0.03936 -0.02697,0.07398 -0.04811,0.103864 -0.02114,0.02988 -0.04701,0.05503 -0.07762,0.07544 -0.02988,0.01968 -0.06451,0.0328 -0.103864,0.03936 l 0,0.01093 c 0.04009,0.0087 0.07726,0.0215 0.111517,0.03827 0.03498,0.01604 0.06523,0.03863 0.09074,0.06779 0.02624,0.02843 0.04665,0.0645 0.06122,0.108237 0.01531,0.04373 0.02296,0.09694 0.02296,0.159623 -10e-7,0.07289 -0.01276,0.138121 -0.03827,0.195701 -0.02551,0.05685 -0.06232,0.105322 -0.110424,0.14541 -0.04738,0.03936 -0.105323,0.06961 -0.173835,0.09074 -0.06779,0.02114 -0.144682,0.03171 -0.230688,0.03171 l -0.564146,0 0,-1.598413 m 0.338925,0.633024 0.176022,0 c 0.04227,10e-7 0.07762,-0.0036 0.106051,-0.01093 0.02842,-0.008 0.05138,-0.01968 0.06888,-0.03499 0.01749,-0.0153 0.02988,-0.03426 0.03717,-0.05685 0.008,-0.02332 0.01202,-0.05029 0.01203,-0.0809 -1e-6,-0.06122 -0.01932,-0.104956 -0.05795,-0.131197 -0.0379,-0.02697 -0.0984,-0.04045 -0.181489,-0.04045 l -0.160716,0 0,0.355324 m 0,0.268953 0,0.41655 0.198982,0 c 0.04446,0 0.08163,-0.0051 0.111517,-0.01531 0.03061,-0.0102 0.05503,-0.02478 0.07325,-0.04373 0.01895,-0.01895 0.03243,-0.04191 0.04045,-0.06888 0.008,-0.02697 0.01202,-0.05685 0.01203,-0.08965 -1e-6,-0.02988 -0.004,-0.05685 -0.01203,-0.08091 -0.008,-0.02478 -0.02187,-0.04592 -0.04155,-0.06341 -0.01895,-0.01749 -0.0441,-0.03098 -0.07544,-0.04045 -0.03134,-0.0095 -0.07034,-0.01421 -0.116984,-0.01421 l -0.190235,0 m 14.492875,0.696436 -0.72705,0 0,-0.192421 0.19461,-0.08965 0,-1.034267 -0.19461,-0.08965 0,-0.192422 0.72705,0 0,0.192422 -0.19461,0.08965 0,1.034267 0.19461,0.08965 0,0.192421 m 1.30759,0 -0.33346,0 0,-0.713929 c 0,-0.08819 -0.0135,-0.154155 -0.0404,-0.197888 -0.0262,-0.04446 -0.0685,-0.06669 -0.12682,-0.06669 -0.0437,10e-7 -0.0802,0.0087 -0.10933,0.02624 -0.0292,0.01749 -0.0525,0.04337 -0.07,0.07762 -0.0168,0.03426 -0.0288,0.07653 -0.0361,0.126824 -0.007,0.05029 -0.0109,0.107874 -0.0109,0.172742 l 0,0.575079 -0.33345,0 0,-1.222316 0.25474,0 0.0448,0.156343 0.0186,0 c 0.0175,-0.03134 0.0386,-0.05831 0.0634,-0.08091 0.0255,-0.02259 0.0532,-0.04118 0.0831,-0.05576 0.0299,-0.01458 0.0616,-0.02515 0.0951,-0.03171 0.0335,-0.0073 0.0678,-0.01093 0.10277,-0.01093 0.0598,10e-7 0.11407,0.0087 0.1629,0.02624 0.0488,0.01677 0.0907,0.04337 0.12573,0.07981 0.035,0.03645 0.062,0.08309 0.0809,0.139944 0.019,0.05612 0.0284,0.123544 0.0284,0.202261 l 0,0.79702 m 0.83966,-0.243807 c 0.0328,0 0.0638,-0.0036 0.0929,-0.01093 0.0299,-0.0073 0.0601,-0.0164 0.0907,-0.02733 l 0,0.248181 c -0.0313,0.01603 -0.0703,0.02915 -0.11698,0.03936 -0.0459,0.01093 -0.0962,0.0164 -0.15088,0.0164 -0.0532,-10e-7 -0.10277,-0.0062 -0.14869,-0.01859 -0.0459,-0.01239 -0.0856,-0.03389 -0.11917,-0.06451 -0.0335,-0.03134 -0.0601,-0.07289 -0.0798,-0.124637 -0.0189,-0.05248 -0.0284,-0.118076 -0.0284,-0.196795 l 0,-0.589292 -0.15963,0 0,-0.141036 0.18368,-0.111517 0.0962,-0.258021 0.21319,0 0,0.260207 0.29738,0 0,0.250367 -0.29738,0 0,0.589292 c 0,0.04738 0.0117,0.08236 0.035,0.104958 0.0233,0.02259 0.0539,0.03389 0.0918,0.03389 m 0.92494,-0.764221 c -0.059,1e-6 -0.10824,0.02077 -0.1476,0.06232 -0.0386,0.04155 -0.0609,0.10678 -0.0667,0.195701 l 0.42529,0 c -7.3e-4,-0.03717 -0.005,-0.07143 -0.0142,-0.10277 -0.009,-0.03134 -0.0219,-0.05831 -0.0394,-0.08091 -0.0175,-0.02332 -0.0394,-0.04154 -0.0656,-0.05466 -0.0262,-0.01312 -0.0568,-0.01968 -0.0918,-0.01968 m 0.0426,1.029895 c -0.0875,-10e-7 -0.168,-0.01276 -0.24162,-0.03827 -0.0736,-0.02551 -0.13702,-0.06378 -0.19023,-0.114797 -0.0532,-0.05175 -0.0948,-0.116619 -0.12464,-0.194609 -0.0292,-0.07872 -0.0437,-0.17092 -0.0437,-0.276606 0,-0.107144 0.0135,-0.200803 0.0405,-0.28098 0.027,-0.08017 0.0645,-0.146866 0.11261,-0.200075 0.0488,-0.05393 0.10715,-0.09439 0.17493,-0.121357 0.0685,-0.02697 0.14432,-0.04045 0.22741,-0.04045 0.0809,10e-7 0.15379,0.01239 0.21866,0.03717 0.0656,0.02405 0.12099,0.05977 0.16618,0.107144 0.0459,0.04738 0.0809,0.105687 0.10496,0.174929 0.0248,0.06851 0.0372,0.147233 0.0372,0.236154 l 0,0.16181 -0.74563,0 c 0.001,0.04665 0.009,0.08892 0.0219,0.126823 0.0138,0.03717 0.0328,0.06888 0.0569,0.09512 0.0248,0.02551 0.0543,0.04519 0.0885,0.05904 0.035,0.01385 0.0747,0.02077 0.11917,0.02077 0.0372,0 0.0722,-0.0018 0.10496,-0.0055 0.0335,-0.0044 0.066,-0.01057 0.0973,-0.01859 0.0313,-0.008 0.0623,-0.01786 0.0929,-0.02952 0.0306,-0.01239 0.062,-0.0266 0.094,-0.04264 l 0,0.25802 c -0.0292,0.01531 -0.0587,0.02843 -0.0886,0.03936 -0.0292,0.0102 -0.0601,0.01895 -0.0929,0.02624 -0.0328,0.0073 -0.0682,0.01239 -0.10605,0.01531 -0.0379,0.0036 -0.0795,0.0055 -0.12464,0.0055 m 1.40162,-1.267142 c 0.009,10e-7 0.0182,3.65e-4 0.0284,0.0011 0.0109,10e-7 0.0211,7.3e-4 0.0306,0.0022 0.0102,7.3e-4 0.0193,0.0018 0.0273,0.0033 0.009,7.3e-4 0.0153,0.0018 0.0197,0.0033 l 0,0.312686 c -0.006,-0.0015 -0.0138,-0.0029 -0.024,-0.0044 -0.0102,-0.0015 -0.0211,-0.0026 -0.0328,-0.0033 -0.0109,-0.0015 -0.0219,-0.0022 -0.0328,-0.0022 -0.0109,-7.28e-4 -0.02,-0.0011 -0.0273,-0.0011 -0.043,10e-7 -0.0827,0.0055 -0.11917,0.0164 -0.0357,0.01093 -0.0667,0.02879 -0.0929,0.05357 -0.0255,0.02405 -0.0456,0.05612 -0.0601,0.09621 -0.0139,0.03936 -0.0208,0.08783 -0.0208,0.14541 l 0,0.622091 -0.33346,0 0,-1.222316 0.25256,0 0.0492,0.183676 0.0164,0 c 0.0175,-0.03134 0.0364,-0.05977 0.0568,-0.08528 0.0204,-0.02551 0.043,-0.04701 0.0678,-0.0645 0.0255,-0.01822 0.0539,-0.03207 0.0853,-0.04155 0.0321,-0.0102 0.0685,-0.0153 0.10933,-0.01531 m 1.39507,1.245275 -0.33346,0 0,-0.713929 c 0,-0.08819 -0.0135,-0.154155 -0.0405,-0.197888 -0.0262,-0.04446 -0.0685,-0.06669 -0.12682,-0.06669 -0.0437,1e-6 -0.0802,0.0087 -0.10933,0.02624 -0.0291,0.01749 -0.0525,0.04337 -0.07,0.07762 -0.0168,0.03426 -0.0288,0.07653 -0.0361,0.126824 -0.007,0.05029 -0.0109,0.107874 -0.0109,0.172742 l 0,0.575079 -0.33346,0 0,-1.222316 0.25474,0 0.0448,0.156343 0.0186,0 c 0.0175,-0.03134 0.0386,-0.05831 0.0634,-0.08091 0.0255,-0.02259 0.0532,-0.04118 0.0831,-0.05576 0.0299,-0.01458 0.0616,-0.02515 0.0951,-0.03171 0.0335,-0.0073 0.0678,-0.01093 0.10277,-0.01093 0.0598,10e-7 0.11407,0.0087 0.1629,0.02624 0.0488,0.01677 0.0907,0.04337 0.12573,0.07981 0.035,0.03645 0.062,0.08309 0.0809,0.139944 0.019,0.05612 0.0284,0.123544 0.0284,0.202261 l 0,0.79702 m 0.83746,-1.008028 c -0.059,10e-7 -0.10823,0.02077 -0.14759,0.06232 -0.0386,0.04155 -0.0609,0.10678 -0.0667,0.195701 l 0.42529,0 c -7.3e-4,-0.03717 -0.005,-0.07143 -0.0142,-0.10277 -0.009,-0.03134 -0.0219,-0.05831 -0.0394,-0.08091 -0.0175,-0.02332 -0.0394,-0.04154 -0.0656,-0.05466 -0.0262,-0.01312 -0.0568,-0.01968 -0.0918,-0.01968 m 0.0426,1.029895 c -0.0875,-10e-7 -0.168,-0.01276 -0.24162,-0.03827 -0.0736,-0.02551 -0.13703,-0.06378 -0.19023,-0.114797 -0.0532,-0.05175 -0.0948,-0.116619 -0.12464,-0.194609 -0.0292,-0.07872 -0.0437,-0.17092 -0.0437,-0.276606 0,-0.107144 0.0135,-0.200803 0.0404,-0.28098 0.027,-0.08017 0.0645,-0.146866 0.11261,-0.200075 0.0488,-0.05393 0.10714,-0.09439 0.17493,-0.121357 0.0685,-0.02697 0.14432,-0.04045 0.22741,-0.04045 0.0809,1e-6 0.15379,0.01239 0.21866,0.03717 0.0656,0.02405 0.12099,0.05977 0.16618,0.107144 0.0459,0.04738 0.0809,0.105687 0.10496,0.174929 0.0248,0.06851 0.0372,0.147233 0.0372,0.236154 l 0,0.16181 -0.74563,0 c 0.001,0.04665 0.009,0.08892 0.0219,0.126823 0.0138,0.03717 0.0328,0.06888 0.0568,0.09512 0.0248,0.02551 0.0543,0.04519 0.0886,0.05904 0.035,0.01385 0.0747,0.02077 0.11917,0.02077 0.0372,0 0.0722,-0.0018 0.10496,-0.0055 0.0335,-0.0044 0.066,-0.01057 0.0973,-0.01859 0.0313,-0.008 0.0623,-0.01786 0.0929,-0.02952 0.0306,-0.01239 0.062,-0.0266 0.094,-0.04264 l 0,0.25802 c -0.0292,0.01531 -0.0587,0.02843 -0.0886,0.03936 -0.0292,0.0102 -0.0601,0.01895 -0.0929,0.02624 -0.0328,0.0073 -0.0681,0.01239 -0.10605,0.01531 -0.0379,0.0036 -0.0794,0.0055 -0.12464,0.0055 m 1.26058,-0.265674 c 0.0328,0 0.0638,-0.0036 0.0929,-0.01093 0.0299,-0.0073 0.0601,-0.0164 0.0907,-0.02733 l 0,0.248181 c -0.0313,0.01603 -0.0703,0.02915 -0.11698,0.03936 -0.0459,0.01093 -0.0962,0.0164 -0.15088,0.0164 -0.0532,-10e-7 -0.10277,-0.0062 -0.14869,-0.01859 -0.0459,-0.01239 -0.0856,-0.03389 -0.11917,-0.06451 -0.0335,-0.03134 -0.0601,-0.07289 -0.0798,-0.124637 -0.0189,-0.05248 -0.0284,-0.118076 -0.0284,-0.196795 l 0,-0.589292 -0.15962,0 0,-0.141036 0.18367,-0.111517 0.0962,-0.258021 0.21319,0 0,0.260207 0.29738,0 0,0.250367 -0.29738,0 0,0.589292 c 0,0.04738 0.0117,0.08236 0.035,0.104958 0.0233,0.02259 0.0539,0.03389 0.0918,0.03389"
         id="text3659"
         style="font-size:2.23909092px;font-style:normal;font-variant:normal;font-weight:bold;font-stretch:normal;fill:#000000;fill-opacity:1;stroke:none;font-family:Droid Sans;-inkscape-font-specification:Droid Sans Bold" />
    </g>
    <g
       id="g3313"
       transform="matrix(0.9896906,0,0,0.9896906,1.6288871,-0.7010275)">
      <g
         id="g3527"
         style="display:inline;enable-background:new"
         transform="matrix(-0.3420033,0,0,0.3420033,139.39144,50.948436)" />
      <g
         id="g3533"
         transform="matrix(0.3420033,0,0,0.3420033,176.58431,50.948436)" />
      <g
         id="g3543"
         transform="matrix(0.4637756,0,0,0.4637756,183.65261,90.609827)" />
    </g>
    <g
       id="g3579"
       transform="translate(9.5268554e-7,-0.1717116)">
      <g
         id="g3456"
         style="display:inline;enable-background:new"
         transform="matrix(-0.2256517,0,0,0.2256517,137.72219,85.481443)" />
      <g
         id="g3462"
         transform="matrix(0.2256517,0,0,0.2256517,162.26181,85.481443)" />
      <g
         id="g3470"
         transform="matrix(0.4655185,0,0,0.4655185,175.72377,134.69818)" />
    </g>
    <g
       id="g3815">
      <g
         id="g3647"
         transform="matrix(0.4151597,0,0,0.4151597,168.93072,157.46392)" />
    </g>
    <g
       id="g4053"
       transform="matrix(1.0019493,0,0,1.0019493,-0.2768004,-0.2898018)" />
  </g>
</svg>
