<?xml version="1.0" encoding="UTF-8" standalone="no"?>
<!-- Created with Inkscape (http://www.inkscape.org/) -->

<svg
   xmlns:dc="http://purl.org/dc/elements/1.1/"
   xmlns:cc="http://creativecommons.org/ns#"
   xmlns:rdf="http://www.w3.org/1999/02/22-rdf-syntax-ns#"
   xmlns:svg="http://www.w3.org/2000/svg"
   xmlns="http://www.w3.org/2000/svg"
   xmlns:xlink="http://www.w3.org/1999/xlink"
   xmlns:sodipodi="http://sodipodi.sourceforge.net/DTD/sodipodi-0.dtd"
   xmlns:inkscape="http://www.inkscape.org/namespaces/inkscape"
   height="128"
   id="svg11300"
   inkscape:export-filename="/home/mma/BZR-WORK/breathe-icon-set/source_svg/rendered/computer.png"
   inkscape:export-xdpi="90.000000"
   inkscape:export-ydpi="90.000000"
   inkscape:output_extension="org.inkscape.output.svg.inkscape"
   inkscape:version="0.46+devel r21673"
   sodipodi:docname="network-wireless.svg"
   sodipodi:version="0.32"
   style="display:inline;enable-background:new"
   version="1.0"
   width="128">
  <title
     id="title4119">Breathe Icon Theme computer</title>
  <defs
     id="defs3">
    <linearGradient
       id="linearGradient3913"
       inkscape:collect="always">
      <stop
         id="stop3915"
         offset="0"
         style="stop-color:#cccccc;stop-opacity:1;" />
      <stop
         id="stop3917"
         offset="1"
         style="stop-color:#e1e1e1;stop-opacity:1" />
    </linearGradient>
    <linearGradient
       id="linearGradient3531"
       inkscape:collect="always">
      <stop
         id="stop3533"
         offset="0"
         style="stop-color:#ffffff;stop-opacity:1;" />
      <stop
         id="stop3535"
         offset="1"
         style="stop-color:#ffffff;stop-opacity:0;" />
    </linearGradient>
    <linearGradient
       id="linearGradient5196">
      <stop
         id="stop5198"
         offset="0"
         style="stop-color:#ff6600;stop-opacity:1;" />
      <stop
         id="stop5200"
         offset="1"
         style="stop-color:#ff6600;stop-opacity:0;" />
    </linearGradient>
    <filter
       color-interpolation-filters="sRGB"
       height="2.0041251"
       id="filter3678"
       inkscape:collect="always"
       width="1.2384106"
       x="-0.11920529"
       y="-0.5020625">
      <feGaussianBlur
         id="feGaussianBlur3680"
         inkscape:collect="always"
         stdDeviation="1.3352365" />
    </filter>
    <radialGradient
       cx="-153.79573"
       cy="118.2946"
       fx="-153.79573"
       fy="118.2946"
       gradientTransform="matrix(1,0,0,0.9642857,0,4.2248117)"
       gradientUnits="userSpaceOnUse"
       id="radialGradient3886"
       inkscape:collect="always"
       r="2.4748738"
       xlink:href="#linearGradient3531" />
    <linearGradient
       gradientTransform="matrix(1.0776603,0,0,1.0776603,228.108,-68.251847)"
       gradientUnits="userSpaceOnUse"
       id="linearGradient3895"
       inkscape:collect="always"
       x1="-158.26953"
       x2="-142.47636"
       xlink:href="#linearGradient3913"
       y1="139.3109"
       y2="139.3109" />
    <filter
       color-interpolation-filters="sRGB"
       height="1.0669779"
       id="filter3954"
       inkscape:collect="always"
       width="1.5759217"
       x="-0.2879608"
       y="-0.033488903">
      <feGaussianBlur
         id="feGaussianBlur3956"
         inkscape:collect="always"
         stdDeviation="1.2802204" />
    </filter>
    <linearGradient
       gradientUnits="userSpaceOnUse"
       id="linearGradient4213"
       inkscape:collect="always"
       x1="-37.735165"
       x2="-37.735165"
       xlink:href="#linearGradient5196"
       y1="114.84604"
       y2="176.24823" />
    <linearGradient
       gradientUnits="userSpaceOnUse"
       id="linearGradient4240"
       inkscape:collect="always"
       x1="-37.735165"
       x2="-37.735165"
       xlink:href="#linearGradient5196"
       y1="121.82846"
       y2="179.76118" />
    <linearGradient
       gradientUnits="userSpaceOnUse"
       id="linearGradient4248"
       inkscape:collect="always"
       x1="-37.735161"
       x2="-37.735161"
       xlink:href="#linearGradient5196"
       y1="116.00727"
       y2="181.41519" />
    <linearGradient
       gradientUnits="userSpaceOnUse"
       id="linearGradient4395"
       inkscape:collect="always"
       x1="-37.735161"
       x2="-38.86628"
       xlink:href="#linearGradient5196"
       y1="116.9443"
       y2="190.47261" />
    <linearGradient
       gradientUnits="userSpaceOnUse"
       id="linearGradient2941"
       inkscape:collect="always"
       x1="-37.735165"
       x2="-37.735165"
       xlink:href="#linearGradient5196"
       y1="114.84604"
       y2="176.24823" />
    <linearGradient
       gradientUnits="userSpaceOnUse"
       id="linearGradient2943"
       inkscape:collect="always"
       x1="-37.735165"
       x2="-37.735165"
       xlink:href="#linearGradient5196"
       y1="114.84604"
       y2="176.24823" />
    <linearGradient
       gradientUnits="userSpaceOnUse"
       id="linearGradient2945"
       inkscape:collect="always"
       x1="-37.735165"
       x2="-37.735165"
       xlink:href="#linearGradient5196"
       y1="114.84604"
       y2="176.24823" />
    <linearGradient
       gradientUnits="userSpaceOnUse"
       id="linearGradient2947"
       inkscape:collect="always"
       x1="-37.735165"
       x2="-37.735165"
       xlink:href="#linearGradient5196"
       y1="114.84604"
       y2="176.24823" />
    <linearGradient
       gradientUnits="userSpaceOnUse"
       id="linearGradient2949"
       inkscape:collect="always"
       x1="-37.735165"
       x2="-37.735165"
       xlink:href="#linearGradient5196"
       y1="114.84604"
       y2="176.24823" />
    <linearGradient
       gradientUnits="userSpaceOnUse"
       id="linearGradient2951"
       inkscape:collect="always"
       x1="-37.735165"
       x2="-37.735165"
       xlink:href="#linearGradient5196"
       y1="114.84604"
       y2="176.24823" />
  </defs>
  <sodipodi:namedview
     bordercolor="#666666"
     borderopacity="0.25490196"
     fill="#f57900"
     gridtolerance="12"
     guidetolerance="13"
     height="300px"
     id="base"
     inkscape:current-layer="layer6"
     inkscape:cx="130.6758"
     inkscape:cy="5.5928519"
     inkscape:document-units="px"
     inkscape:grid-bbox="true"
     inkscape:guide-bbox="true"
     inkscape:pageopacity="0.0"
     inkscape:pageshadow="2"
     inkscape:showpageshadow="false"
     inkscape:snap-bbox="true"
     inkscape:snap-nodes="false"
     inkscape:window-height="751"
     inkscape:window-maximized="0"
     inkscape:window-width="1280"
     inkscape:window-x="0"
     inkscape:window-y="24"
     inkscape:zoom="1"
     objecttolerance="7"
     pagecolor="#ffffff"
     showgrid="false"
     showguides="true"
     stroke="#ef2929"
     width="400px">
    <inkscape:grid
       empspacing="5"
       enabled="true"
       id="grid5883"
       spacingx="1px"
       spacingy="1px"
       type="xygrid"
       visible="true" />
  </sodipodi:namedview>
  <metadata
     id="metadata4">
    <rdf:RDF>
      <cc:Work
         rdf:about="">
        <dc:format>image/svg+xml</dc:format>
        <dc:type
           rdf:resource="http://purl.org/dc/dcmitype/StillImage" />
        <dc:creator>
          <cc:Agent>
            <dc:title>Breathe Icon Team</dc:title>
          </cc:Agent>
        </dc:creator>
        <dc:source />
        <cc:license
           rdf:resource="http://creativecommons.org/licenses/by-sa/3.0/" />
        <dc:title>Breathe Icon Theme icon</dc:title>
        <dc:subject>
          <rdf:Bag />
        </dc:subject>
        <dc:date />
        <dc:rights>
          <cc:Agent>
            <dc:title />
          </cc:Agent>
        </dc:rights>
        <dc:publisher>
          <cc:Agent>
            <dc:title />
          </cc:Agent>
        </dc:publisher>
        <dc:identifier />
        <dc:relation />
        <dc:language />
        <dc:coverage />
        <dc:description />
        <dc:contributor>
          <cc:Agent>
            <dc:title>Jakub Steiner, Cory Kontros, Oxygen and Breathe icon teams</dc:title>
          </cc:Agent>
        </dc:contributor>
      </cc:Work>
      <cc:License
         rdf:about="http://creativecommons.org/licenses/by-sa/3.0/">
        <cc:permits
           rdf:resource="http://creativecommons.org/ns#Reproduction" />
        <cc:permits
           rdf:resource="http://creativecommons.org/ns#Distribution" />
        <cc:requires
           rdf:resource="http://creativecommons.org/ns#Notice" />
        <cc:requires
           rdf:resource="http://creativecommons.org/ns#Attribution" />
        <cc:prohibits
           rdf:resource="http://creativecommons.org/ns#CommercialUse" />
        <cc:permits
           rdf:resource="http://creativecommons.org/ns#DerivativeWorks" />
        <cc:requires
           rdf:resource="http://creativecommons.org/ns#ShareAlike" />
      </cc:License>
    </rdf:RDF>
  </metadata>
  <g
     id="layer1"
     inkscape:groupmode="layer"
     inkscape:label="devices/network-wireless"
     style="display:inline"
     transform="translate(-3,-4)">
    <rect
       height="256"
       id="256x256"
       inkscape:label="256x256"
       style="fill:#eeeeec;fill-opacity:1;fill-rule:nonzero;stroke:none;stroke-width:5;marker:none;visibility:visible;display:none;overflow:visible;enable-background:accumulate"
       width="256"
       x="26.5"
       y="32.823101" />
    <rect
       height="48"
       id="48x48"
       inkscape:label="48x48"
       style="fill:#eeeeec;fill-opacity:1;fill-rule:nonzero;stroke:none;stroke-width:5;marker:none;visibility:visible;display:none;overflow:visible;enable-background:accumulate"
       width="48"
       x="-35.5"
       y="32.823101" />
    <text
       id="text6091"
       sodipodi:linespacing="125%"
       style="font-size:56.11526489px;font-style:normal;font-variant:normal;font-weight:bold;font-stretch:normal;text-indent:0;text-align:start;text-decoration:none;line-height:125%;letter-spacing:normal;word-spacing:normal;text-transform:none;direction:ltr;block-progression:tb;writing-mode:lr-tb;text-anchor:start;fill:#2e3436;fill-opacity:1;fill-rule:nonzero;stroke:none;stroke-width:5;marker:none;visibility:visible;display:none;overflow:visible;enable-background:accumulate;font-family:Myriad"
       x="-418.41196"
       xml:space="preserve"
       y="34.084831"><tspan
         id="tspan6093"
         sodipodi:role="line"
         x="-418.41196"
         y="34.084831">audio-x-generic</tspan></text>
    <g
       id="layer6"
       inkscape:groupmode="layer"
       inkscape:label="plate"
       style="display:none" />
    <g
       id="Livello_1"
       transform="translate(387.11439,42.495045)" />
    <g
       id="g3290"
       transform="translate(443.11439,59.884345)" />
    <g
       id="g7148"
       transform="matrix(0.1956571,0,0,0.1956571,345.26471,19.402885)" />
    <g
       id="g7555"
       transform="matrix(0.1333333,0,0,0.1333333,319.90372,105.99052)" />
    <g
       id="g9283"
       transform="matrix(1.0666666,0,0,1.0666666,384.44667,40.470571)" />
    <g
       id="g5188"
       style="stroke:url(#linearGradient4213);stroke-opacity:1"
       transform="matrix(1.2158572,0,0,1.2158572,112.88057,-135.63638)">
      <path
         d="m -129.04699,159.74873 c 0,12.10626 -9.81406,21.92031 -21.92031,21.92031 -12.10625,0 -21.92031,-9.81405 -21.92031,-21.92031 0,-12.10625 9.81406,-21.92031 21.92031,-21.92031 12.10625,0 21.92031,9.81406 21.92031,21.92031 z"
         id="path5120"
         sodipodi:cx="-150.9673"
         sodipodi:cy="159.74873"
         sodipodi:rx="21.920311"
         sodipodi:ry="21.920311"
         sodipodi:type="arc"
         style="fill:none;stroke:url(#linearGradient2941);stroke-width:1.5;stroke-linecap:round;stroke-linejoin:round;stroke-miterlimit:4;stroke-opacity:1;stroke-dasharray:none;stroke-dashoffset:0;marker:none;visibility:visible;display:inline;overflow:visible;enable-background:new"
         transform="translate(113.23214,-2.8284271)" />
      <path
         d="m -129.04699,159.74873 c 0,12.10626 -9.81406,21.92031 -21.92031,21.92031 -12.10625,0 -21.92031,-9.81405 -21.92031,-21.92031 0,-12.10625 9.81406,-21.92031 21.92031,-21.92031 12.10625,0 21.92031,9.81406 21.92031,21.92031 z"
         id="path5122"
         sodipodi:cx="-150.9673"
         sodipodi:cy="159.74873"
         sodipodi:rx="21.920311"
         sodipodi:ry="21.920311"
         sodipodi:type="arc"
         style="fill:none;stroke:url(#linearGradient2943);stroke-width:1.33361363;stroke-linecap:round;stroke-linejoin:round;stroke-miterlimit:4;stroke-opacity:1;stroke-dasharray:none;stroke-dashoffset:0;marker:none;visibility:visible;display:inline;overflow:visible;enable-background:new"
         transform="matrix(1.1169371,0,0,1.1169371,130.70904,-21.332197)" />
      <path
         d="m -129.04699,159.74873 c 0,12.10626 -9.81406,21.92031 -21.92031,21.92031 -12.10625,0 -21.92031,-9.81405 -21.92031,-21.92031 0,-12.10625 9.81406,-21.92031 21.92031,-21.92031 12.10625,0 21.92031,9.81406 21.92031,21.92031 z"
         id="path5124"
         sodipodi:cx="-150.9673"
         sodipodi:cy="159.74873"
         sodipodi:rx="21.920311"
         sodipodi:ry="21.920311"
         sodipodi:type="arc"
         style="fill:none;stroke:url(#linearGradient2945);stroke-width:1.0914098;stroke-linecap:round;stroke-linejoin:round;stroke-miterlimit:4;stroke-opacity:1;stroke-dasharray:none;stroke-dashoffset:0;marker:none;visibility:visible;display:inline;overflow:visible;enable-background:new"
         transform="matrix(1.3743692,0,0,1.3743692,169.74964,-62.633429)" />
      <path
         d="m -129.04699,159.74873 c 0,12.10626 -9.81406,21.92031 -21.92031,21.92031 -12.10625,0 -21.92031,-9.81405 -21.92031,-21.92031 0,-12.10625 9.81406,-21.92031 21.92031,-21.92031 12.10625,0 21.92031,9.81406 21.92031,21.92031 z"
         id="path5126"
         sodipodi:cx="-150.9673"
         sodipodi:cy="159.74873"
         sodipodi:rx="21.920311"
         sodipodi:ry="21.920311"
         sodipodi:type="arc"
         style="fill:none;stroke:url(#linearGradient2947);stroke-width:0.97034603;stroke-linecap:round;stroke-linejoin:round;stroke-miterlimit:4;stroke-opacity:1;stroke-dasharray:none;stroke-dashoffset:0;marker:none;visibility:visible;display:inline;overflow:visible;enable-background:new"
         transform="matrix(1.4827212,0,0,1.4827212,186.10725,-79.942526)" />
      <path
         d="m -129.04699,159.74873 c 0,12.10626 -9.81406,21.92031 -21.92031,21.92031 -12.10625,0 -21.92031,-9.81405 -21.92031,-21.92031 0,-12.10625 9.81406,-21.92031 21.92031,-21.92031 12.10625,0 21.92031,9.81406 21.92031,21.92031 z"
         id="path5128"
         sodipodi:cx="-150.9673"
         sodipodi:cy="159.74873"
         sodipodi:rx="21.920311"
         sodipodi:ry="21.920311"
         sodipodi:type="arc"
         style="fill:none;stroke:url(#linearGradient2949);stroke-width:0.84437144;stroke-linecap:round;stroke-linejoin:round;stroke-miterlimit:4;stroke-opacity:1;stroke-dasharray:none;stroke-dashoffset:0;marker:none;visibility:visible;display:inline;overflow:visible;enable-background:new"
         transform="matrix(1.7764694,0,0,1.7764694,230.45363,-126.86843)" />
      <path
         d="m -129.04699,159.74873 c 0,12.10626 -9.81406,21.92031 -21.92031,21.92031 -12.10625,0 -21.92031,-9.81405 -21.92031,-21.92031 0,-12.10625 9.81406,-21.92031 21.92031,-21.92031 12.10625,0 21.92031,9.81406 21.92031,21.92031 z"
         id="path5130"
         sodipodi:cx="-150.9673"
         sodipodi:cy="159.74873"
         sodipodi:rx="21.920311"
         sodipodi:ry="21.920311"
         sodipodi:type="arc"
         style="fill:none;stroke:url(#linearGradient2951);stroke-width:0.7505064;stroke-linecap:round;stroke-linejoin:round;stroke-miterlimit:4;stroke-opacity:1;stroke-dasharray:none;stroke-dashoffset:0;marker:none;visibility:visible;display:inline;overflow:visible;enable-background:new"
         transform="matrix(1.8871055,0,0,1.8871055,247.15606,-144.5424)" />
    </g>
    <g
       id="g3958">
      <path
         d="m 79.5,128.125 c 0,1.44975 -5.820298,2.625 -13,2.625 -7.179702,0 -13,-1.17525 -13,-2.625 0,-1.44975 5.820298,-2.625 13,-2.625 7.179702,0 13,1.17525 13,2.625 z"
         id="path3568"
         sodipodi:cx="66.5"
         sodipodi:cy="128.125"
         sodipodi:rx="13"
         sodipodi:ry="2.625"
         sodipodi:type="arc"
         style="opacity:0.66260167;fill:#000000;fill-opacity:1;fill-rule:nonzero;stroke:#000000;stroke-width:1;stroke-linecap:round;stroke-linejoin:miter;stroke-miterlimit:4;stroke-opacity:1;stroke-dasharray:none;stroke-dashoffset:0;marker:none;visibility:visible;display:inline;overflow:visible;filter:url(#filter3678);enable-background:new"
         transform="matrix(1.0614459,0,0,0.870754,-3.5861514,16.368219)" />
      <path
         d="m 59.065526,41.177465 c -0.0033,1.417684 -0.0044,5.054939 -0.0057,6.472622 -4.2e-4,0.542979 2.835303,0.554532 2.835001,1.14051 -2.91e-4,0.552538 0.06111,0.51733 0.06092,1.101368 -1.83e-4,0.56741 -2.898066,-0.578164 -2.898184,0.0129 -2.16e-4,1.146038 -2.91e-4,2.997685 -2.59e-4,4.199545 1.1e-5,0.442509 2.179837,0.712948 2.179881,1.158981 4.3e-5,0.400318 0.08729,1.165015 0.08734,1.566508 5.4e-5,0.418477 -2.266848,-0.732291 -2.266762,-0.314299 0.0017,8.727863 0.0078,18.535972 0.0078,18.535972 -1.815987,15.405499 -2.398968,34.509958 -3.356901,52.489608 8.711041,2.8089 15.822554,1.73625 22.582738,0 -1.069125,-17.49653 -1.53087,-34.993071 -3.88004,-52.489608 0,0 0.03449,-9.891024 0.04315,-18.847664 3.78e-4,-0.381179 -2.963835,0.719866 -2.963565,0.339312 2.47e-4,-0.352416 4.52e-4,-0.806122 6.25e-4,-1.156857 1.5e-4,-0.342265 2.964794,-0.770668 2.964848,-1.110281 2.15e-4,-1.185297 -1.62e-4,-3.366913 -0.0013,-4.492152 -7.98e-4,-0.793643 -3.824498,0.714219 -3.826082,-0.03121 -0.0015,-0.718271 0.05819,-0.620549 0.05585,-1.280228 -0.0016,-0.456389 3.819077,-0.650551 3.817019,-1.073404 -0.0069,-1.420507 -0.07801,-5.290202 -0.09056,-6.221624 -0.128511,-9.542212 -15.325213,-8.956169 -15.345797,0 z"
         id="path3516"
         sodipodi:nodetypes="ccsssssssccccsssssssssc"
         style="fill:url(#linearGradient3895);fill-opacity:1;fill-rule:nonzero;stroke:#aaaaaa;stroke-width:1.07799995;stroke-linecap:round;stroke-linejoin:miter;stroke-miterlimit:4;stroke-opacity:1;stroke-dasharray:none;stroke-dashoffset:0;marker:none;visibility:visible;display:inline;overflow:visible;enable-background:new" />
      <path
         d="m -151.32086,118.2946 c 0,1.31802 -1.10804,2.38649 -2.47487,2.38649 -1.36684,0 -2.47487,-1.06847 -2.47487,-2.38649 0,-1.31802 1.10803,-2.38648 2.47487,-2.38648 1.36683,0 2.47487,1.06846 2.47487,2.38648 z"
         id="path3529"
         sodipodi:cx="-153.79573"
         sodipodi:cy="118.2946"
         sodipodi:rx="2.4748738"
         sodipodi:ry="2.3864853"
         sodipodi:type="arc"
         style="fill:url(#radialGradient3886);fill-opacity:1;fill-rule:nonzero;stroke:none;stroke-width:1.20000005;marker:none;visibility:visible;display:inline;overflow:visible;enable-background:new"
         transform="matrix(1.3950726,0,0,1.3950726,278.39838,-126.01455)" />
      <path
         d="m 59.033154,49.666853 c 3.139116,1.435433 9.012634,1.43761 15.29021,-0.123317"
         id="path3539"
         sodipodi:nodetypes="cc"
         style="fill:none;stroke:#aaaaaa;stroke-width:1.07766032;stroke-linecap:butt;stroke-linejoin:miter;stroke-miterlimit:4;stroke-opacity:1;stroke-dasharray:none" />
      <path
         d="m 59.033154,47.630291 c 3.139116,1.435432 10.233322,1.263222 15.464586,-0.2105"
         id="path3541"
         sodipodi:nodetypes="cc"
         style="fill:none;stroke:#aaaaaa;stroke-width:1.07766032;stroke-linecap:butt;stroke-linejoin:miter;stroke-miterlimit:4;stroke-opacity:1;stroke-dasharray:none;display:inline;enable-background:new" />
      <path
         d="m 59.033154,56.672723 c 3.139116,1.435432 9.012634,1.437609 15.29021,-0.123306"
         id="path3543"
         sodipodi:nodetypes="cc"
         style="fill:none;stroke:#aaaaaa;stroke-width:1.07766032;stroke-linecap:butt;stroke-linejoin:miter;stroke-miterlimit:4;stroke-opacity:1;stroke-dasharray:none;display:inline;enable-background:new" />
      <path
         d="m 58.94596,54.169695 c 3.139117,1.435433 9.099828,1.873566 15.377404,0.312651"
         id="path3545"
         sodipodi:nodetypes="cc"
         style="fill:none;stroke:#aaaaaa;stroke-width:1.07766032;stroke-linecap:butt;stroke-linejoin:miter;stroke-miterlimit:4;stroke-opacity:1;stroke-dasharray:none;display:inline;enable-background:new" />
      <path
         d="m 66.942222,37.03125 c -1.837621,0.183741 -2.989918,1.755291 -2.936306,4.15625 -0.0015,1.376593 0.117428,5.324604 0.116974,6.822303 2.397932,0.189046 2.867975,-0.02789 5.230473,-0.291053 0.06788,-2.07449 0.0095,-4.441739 0,-6.53125 0.02805,-3.135921 -0.57352,-4.339991 -2.411141,-4.15625 z m 2.411141,13.9375 c -1.796939,0.348772 -3.726909,0.584795 -5.347447,0.208027 -1.6e-5,1.047274 0.04135,2.684362 0.04136,3.572303 3.029464,0.283055 2.441968,0.210973 5.147761,-0.04641 7.2e-5,-0.87251 0.158413,-2.598187 0.158329,-3.733915 z m -0.116972,7.109835 c -2.583706,0.239215 -2.400839,0.27143 -5.230475,0.171415 0.0011,7.927616 -0.0012,15.575063 -0.0012,15.575063 -0.86018,15.405496 -1.819644,36.226537 -2.273386,54.206187 4.126148,1.1839 7.137017,0.73625 10.669956,0 -0.506416,-17.49653 -1.642742,-36.70965 -2.755471,-54.206187 -2e-6,-2e-6 -0.415174,-7.735041 -0.409407,-15.746478 z"
         id="path3905"
         sodipodi:nodetypes="ccccccccccccccccsc"
         style="opacity:0.5;fill:#ffffff;fill-opacity:1;fill-rule:nonzero;stroke:none;stroke-width:1.07800007;marker:none;visibility:visible;display:inline;overflow:visible;filter:url(#filter3954);enable-background:new" />
    </g>
    <g
       id="g3957"
       style="stroke:url(#linearGradient4240);stroke-opacity:1"
       transform="matrix(0.4559464,0,0,0.4559464,175.20521,-48.363637)" />
    <g
       id="g4002"
       transform="matrix(0.3788477,0,0,0.3788477,132.77924,1.9248734)" />
    <g
       id="g4250">
      <g
         id="g4051"
         style="stroke:url(#linearGradient4248);stroke-width:3.94454241;stroke-miterlimit:4;stroke-opacity:1;stroke-dasharray:none"
         transform="matrix(0.3099632,0,0,0.3099632,161.69651,19.042014)" />
      <g
         id="g4132"
         transform="matrix(0.2790219,0,0,0.2790219,131.30553,53.196686)" />
    </g>
    <g
       id="g4374"
       transform="matrix(1.0045419,0,0,1.0045419,-0.6631162,-0.5086932)">
      <g
         id="g4266"
         style="stroke:url(#linearGradient4395);stroke-width:3.94454241;stroke-miterlimit:4;stroke-opacity:1;stroke-dasharray:none"
         transform="matrix(0.2130997,0,0,0.2130997,154.04135,65.178676)" />
      <g
         id="g4274"
         transform="matrix(0.2104864,0,0,0.2104864,131.89741,88.281501)" />
    </g>
    <g
       id="g4411"
       transform="matrix(0.1739999,0,0,0.1639521,130.34201,115.81762)" />
  </g>
</svg>
