<?xml version="1.0" encoding="UTF-8" standalone="no"?>
<!-- Created with Inkscape (http://www.inkscape.org/) -->

<svg
   xmlns:dc="http://purl.org/dc/elements/1.1/"
   xmlns:cc="http://creativecommons.org/ns#"
   xmlns:rdf="http://www.w3.org/1999/02/22-rdf-syntax-ns#"
   xmlns:svg="http://www.w3.org/2000/svg"
   xmlns="http://www.w3.org/2000/svg"
   xmlns:xlink="http://www.w3.org/1999/xlink"
   xmlns:sodipodi="http://sodipodi.sourceforge.net/DTD/sodipodi-0.dtd"
   xmlns:inkscape="http://www.inkscape.org/namespaces/inkscape"
   height="128"
   id="svg11300"
   inkscape:export-filename="/home/oliver/Desktopaussehen/Icons/Breathe/fix/edit-cut.png"
   inkscape:export-xdpi="90.000000"
   inkscape:export-ydpi="90.000000"
   inkscape:output_extension="org.inkscape.output.svg.inkscape"
   inkscape:version="0.46+devel r21673"
   sodipodi:docname="edit-cut.svg"
   sodipodi:version="0.32"
   style="display:inline;enable-background:new"
   version="1.0"
   width="128">
  <title
     id="title4119">Breathe Icon Theme computer</title>
  <defs
     id="defs3">
    <linearGradient
       id="linearGradient3928"
       inkscape:collect="always">
      <stop
         id="stop3930"
         offset="0"
         style="stop-color:#ffffff;stop-opacity:1;" />
      <stop
         id="stop3932"
         offset="1"
         style="stop-color:#ffffff;stop-opacity:0;" />
    </linearGradient>
    <linearGradient
       id="linearGradient3908"
       inkscape:collect="always">
      <stop
         id="stop3910"
         offset="0"
         style="stop-color:#ffffff;stop-opacity:1;" />
      <stop
         id="stop3912"
         offset="1"
         style="stop-color:#ffffff;stop-opacity:0;" />
    </linearGradient>
    <linearGradient
       id="linearGradient3862"
       inkscape:collect="always">
      <stop
         id="stop3864"
         offset="0"
         style="stop-color:#ffffff;stop-opacity:1;" />
      <stop
         id="stop3866"
         offset="1"
         style="stop-color:#ffffff;stop-opacity:0;" />
    </linearGradient>
    <linearGradient
       id="linearGradient3854"
       inkscape:collect="always">
      <stop
         id="stop3856"
         offset="0"
         style="stop-color:#ffffff;stop-opacity:1;" />
      <stop
         id="stop3858"
         offset="1"
         style="stop-color:#ffffff;stop-opacity:0;" />
    </linearGradient>
    <filter
       color-interpolation-filters="sRGB"
       id="filter4809"
       inkscape:collect="always">
      <feGaussianBlur
         id="feGaussianBlur4811"
         inkscape:collect="always"
         stdDeviation="1.4884193" />
    </filter>
    <filter
       color-interpolation-filters="sRGB"
       height="1.2382222"
       id="filter4805"
       inkscape:collect="always"
       width="1.0797153"
       x="-0.039857585"
       y="-0.11911112">
      <feGaussianBlur
         id="feGaussianBlur4807"
         inkscape:collect="always"
         stdDeviation="1.3053684" />
    </filter>
    <filter
       color-interpolation-filters="sRGB"
       height="1.202837"
       id="filter4131"
       inkscape:collect="always"
       width="1.2839718"
       x="-0.14198591"
       y="-0.10141851">
      <feGaussianBlur
         id="feGaussianBlur4133"
         inkscape:collect="always"
         stdDeviation="0.67184617" />
    </filter>
    <linearGradient
       id="linearGradient3766">
      <stop
         id="stop3768"
         offset="0"
         style="stop-color:#c73700;stop-opacity:1;" />
      <stop
         id="stop3770"
         offset="1"
         style="stop-color:#e97100;stop-opacity:1;" />
    </linearGradient>
    <linearGradient
       id="linearGradient4070">
      <stop
         id="stop4072"
         offset="0"
         style="stop-color:#d9d9d9;stop-opacity:1;" />
      <stop
         id="stop3836"
         offset="0.5"
         style="stop-color:#d3d7da;stop-opacity:1;" />
      <stop
         id="stop3838"
         offset="0.75"
         style="stop-color:#f2f5f5;stop-opacity:1;" />
      <stop
         id="stop3840"
         offset="0.875"
         style="stop-color:#cfdada;stop-opacity:1;" />
      <stop
         id="stop4074"
         offset="1"
         style="stop-color:#aab6c1;stop-opacity:1;" />
    </linearGradient>
    <linearGradient
       id="linearGradient4093"
       inkscape:collect="always">
      <stop
         id="stop4095"
         offset="0"
         style="stop-color:#c3c3c3;stop-opacity:1" />
      <stop
         id="stop4097"
         offset="1"
         style="stop-color:#f5f5f5;stop-opacity:1" />
    </linearGradient>
    <linearGradient
       id="linearGradient4101">
      <stop
         id="stop4103"
         offset="0"
         style="stop-color:#ffffff;stop-opacity:1;" />
      <stop
         id="stop4109"
         offset="0.16729899"
         style="stop-color:#ffffff;stop-opacity:1;" />
      <stop
         id="stop4111"
         offset="0.71224535"
         style="stop-color:#a8b3b5;stop-opacity:1;" />
      <stop
         id="stop4105"
         offset="1"
         style="stop-color:#869a9e;stop-opacity:1;" />
    </linearGradient>
    <linearGradient
       id="linearGradient4682">
      <stop
         id="stop4684"
         offset="0"
         style="stop-color:#000000;stop-opacity:1;" />
      <stop
         id="stop4690"
         offset="0.5"
         style="stop-color:#5c5c5c;stop-opacity:1;" />
      <stop
         id="stop4686"
         offset="1"
         style="stop-color:#5c5c5c;stop-opacity:0;" />
    </linearGradient>
    <linearGradient
       gradientTransform="matrix(0.9799353,-0.02527998,0.02527998,0.9799353,-208.64664,-22.828619)"
       gradientUnits="userSpaceOnUse"
       id="linearGradient2898"
       inkscape:collect="always"
       x1="81.622208"
       x2="95.329842"
       xlink:href="#linearGradient4101"
       y1="31.473747"
       y2="34.973747" />
    <linearGradient
       gradientTransform="matrix(0.9799353,-0.02527998,0.02527998,0.9799353,-208.64664,-22.828619)"
       gradientUnits="userSpaceOnUse"
       id="linearGradient2900"
       inkscape:collect="always"
       x1="71.408913"
       x2="78.966087"
       xlink:href="#linearGradient4093"
       y1="79.5"
       y2="69" />
    <linearGradient
       gradientTransform="matrix(0.8396386,0.5431455,-0.5431455,0.8396386,-145.56041,-44.175233)"
       gradientUnits="userSpaceOnUse"
       id="linearGradient2902"
       inkscape:collect="always"
       x1="59.805038"
       x2="58.734375"
       xlink:href="#linearGradient4682"
       y1="64.297577"
       y2="71.09375" />
    <linearGradient
       gradientTransform="matrix(0.9799353,-0.02527998,0.02527998,0.9799353,-208.64664,-22.828619)"
       gradientUnits="userSpaceOnUse"
       id="linearGradient2904"
       inkscape:collect="always"
       x1="88.327385"
       x2="68.43338"
       xlink:href="#linearGradient4070"
       y1="76.279343"
       y2="17.779339" />
    <linearGradient
       gradientUnits="userSpaceOnUse"
       id="linearGradient3682"
       inkscape:collect="always"
       x1="-148.56567"
       x2="-99.465652"
       xlink:href="#linearGradient3766"
       y1="100.65234"
       y2="45.652344" />
    <linearGradient
       gradientTransform="translate(3.1819805,8.4852814)"
       gradientUnits="userSpaceOnUse"
       id="linearGradient3860"
       inkscape:collect="always"
       x1="58.689865"
       x2="64.435104"
       xlink:href="#linearGradient3854"
       y1="29.552702"
       y2="36.535381" />
    <linearGradient
       gradientUnits="userSpaceOnUse"
       id="linearGradient3868"
       inkscape:collect="always"
       x1="52.502678"
       x2="56.568542"
       xlink:href="#linearGradient3862"
       y1="16.824778"
       y2="22.304855" />
    <radialGradient
       cx="53.66254"
       cy="95.908607"
       fx="53.66254"
       fy="95.908607"
       gradientTransform="matrix(3.5366771,-2.293262,2.9922525,4.6146613,-421.58236,-228.33598)"
       gradientUnits="userSpaceOnUse"
       id="radialGradient3914"
       inkscape:collect="always"
       r="1.9375"
       xlink:href="#linearGradient3908" />
    <radialGradient
       cx="98.383568"
       cy="85.358879"
       fx="98.383568"
       fy="85.358879"
       gradientTransform="matrix(-0.9380367,0.346536,-0.3717949,-1.0064102,221.25057,137.4035)"
       gradientUnits="userSpaceOnUse"
       id="radialGradient3934"
       inkscape:collect="always"
       r="13.788582"
       xlink:href="#linearGradient3928" />
    <radialGradient
       cx="65.407379"
       cy="122.80241"
       fx="65.407379"
       fy="122.80241"
       gradientTransform="matrix(1,0,0,0.05555555,0,115.98005)"
       gradientUnits="userSpaceOnUse"
       id="radialGradient3404"
       inkscape:collect="always"
       r="35.001785"
       xlink:href="#linearGradient4682" />
  </defs>
  <sodipodi:namedview
     bordercolor="#666666"
     borderopacity="0.25490196"
     fill="#f57900"
     gridtolerance="12"
     guidetolerance="13"
     height="300px"
     id="base"
     inkscape:current-layer="layer6"
     inkscape:cx="89.5"
     inkscape:cy="64.5"
     inkscape:document-units="px"
     inkscape:grid-bbox="true"
     inkscape:guide-bbox="true"
     inkscape:pageopacity="0.0"
     inkscape:pageshadow="2"
     inkscape:showpageshadow="false"
     inkscape:snap-bbox="true"
     inkscape:snap-nodes="false"
     inkscape:window-height="926"
     inkscape:window-maximized="0"
     inkscape:window-width="1680"
     inkscape:window-x="0"
     inkscape:window-y="25"
     inkscape:zoom="5.362963"
     objecttolerance="7"
     pagecolor="#ffffff"
     showgrid="true"
     showguides="true"
     stroke="#ef2929"
     width="400px">
    <inkscape:grid
       empspacing="5"
       enabled="true"
       id="grid5883"
       spacingx="1px"
       spacingy="1px"
       type="xygrid"
       visible="true" />
  </sodipodi:namedview>
  <metadata
     id="metadata4">
    <rdf:RDF>
      <cc:Work
         rdf:about="">
        <dc:format>image/svg+xml</dc:format>
        <dc:type
           rdf:resource="http://purl.org/dc/dcmitype/StillImage" />
        <dc:creator>
          <cc:Agent>
            <dc:title>Breathe Icon Team</dc:title>
          </cc:Agent>
        </dc:creator>
        <dc:source />
        <cc:license
           rdf:resource="http://creativecommons.org/licenses/by-sa/3.0/" />
        <dc:title>Breathe Icon Theme icon</dc:title>
        <dc:subject>
          <rdf:Bag />
        </dc:subject>
        <dc:date />
        <dc:rights>
          <cc:Agent>
            <dc:title />
          </cc:Agent>
        </dc:rights>
        <dc:publisher>
          <cc:Agent>
            <dc:title />
          </cc:Agent>
        </dc:publisher>
        <dc:identifier />
        <dc:relation />
        <dc:language />
        <dc:coverage />
        <dc:description />
        <dc:contributor>
          <cc:Agent>
            <dc:title>Jakub Steiner, Cory Kontros, Oxygen and Breathe icon teams</dc:title>
          </cc:Agent>
        </dc:contributor>
      </cc:Work>
      <cc:License
         rdf:about="http://creativecommons.org/licenses/by-sa/3.0/">
        <cc:permits
           rdf:resource="http://creativecommons.org/ns#Reproduction" />
        <cc:permits
           rdf:resource="http://creativecommons.org/ns#Distribution" />
        <cc:requires
           rdf:resource="http://creativecommons.org/ns#Notice" />
        <cc:requires
           rdf:resource="http://creativecommons.org/ns#Attribution" />
        <cc:prohibits
           rdf:resource="http://creativecommons.org/ns#CommercialUse" />
        <cc:permits
           rdf:resource="http://creativecommons.org/ns#DerivativeWorks" />
        <cc:requires
           rdf:resource="http://creativecommons.org/ns#ShareAlike" />
      </cc:License>
    </rdf:RDF>
  </metadata>
  <g
     id="layer1"
     inkscape:groupmode="layer"
     inkscape:label="actions/edit-cut"
     style="display:inline"
     transform="translate(-3,-4)">
    <rect
       height="256"
       id="256x256"
       inkscape:label="256x256"
       style="fill:#eeeeec;fill-opacity:1;fill-rule:nonzero;stroke:none;stroke-width:5;marker:none;visibility:visible;display:none;overflow:visible;enable-background:accumulate"
       width="256"
       x="26.5"
       y="32.823101" />
    <rect
       height="48"
       id="48x48"
       inkscape:label="48x48"
       style="fill:#eeeeec;fill-opacity:1;fill-rule:nonzero;stroke:none;stroke-width:5;marker:none;visibility:visible;display:none;overflow:visible;enable-background:accumulate"
       width="48"
       x="-35.5"
       y="32.823101" />
    <text
       id="text6091"
       sodipodi:linespacing="125%"
       style="font-size:56.11526489px;font-style:normal;font-variant:normal;font-weight:bold;font-stretch:normal;text-indent:0;text-align:start;text-decoration:none;line-height:125%;letter-spacing:normal;word-spacing:normal;text-transform:none;direction:ltr;block-progression:tb;writing-mode:lr-tb;text-anchor:start;fill:#2e3436;fill-opacity:1;fill-rule:nonzero;stroke:none;stroke-width:5;marker:none;visibility:visible;display:none;overflow:visible;enable-background:accumulate;font-family:Myriad"
       x="-418.41196"
       xml:space="preserve"
       y="34.084831"><tspan
         id="tspan6093"
         sodipodi:role="line"
         x="-418.41196"
         y="34.084831">audio-x-generic</tspan></text>
    <g
       id="layer6"
       inkscape:groupmode="layer"
       inkscape:label="plate"
       sodipodi:insensitive="true"
       style="display:none" />
    <g
       id="Livello_1"
       transform="translate(387.11439,42.495045)" />
    <g
       id="g3290"
       transform="translate(443.11439,59.884345)" />
    <g
       id="g7148"
       transform="matrix(0.1956571,0,0,0.1956571,345.26471,19.402885)" />
    <g
       id="g7555"
       transform="matrix(0.1333333,0,0,0.1333333,319.90372,105.99052)" />
    <g
       id="g9283"
       transform="matrix(1.0666666,0,0,1.0666666,384.44667,40.470571)" />
    <rect
       height="256"
       id="rect2718"
       inkscape:label="256x256"
       style="fill:#eeeeec;fill-opacity:1;fill-rule:nonzero;stroke:none;stroke-width:5;marker:none;visibility:visible;display:none;overflow:visible;enable-background:accumulate"
       width="256"
       x="-177.60072"
       y="7.6863599" />
    <g
       id="g2746"
       transform="translate(183.01367,17.358304)" />
    <g
       id="g2748"
       transform="translate(239.01367,34.747604)" />
    <g
       id="g2750"
       transform="matrix(0.1956571,0,0,0.1956571,141.16399,-5.733856)" />
    <g
       id="g2752"
       transform="matrix(0.1333333,0,0,0.1333333,115.803,80.853779)" />
    <g
       id="g2754"
       transform="matrix(1.0666666,0,0,1.0666666,180.34595,15.33383)" />
    <g
       id="g4703"
       transform="matrix(0.1682249,0,0,0.1682249,-4.23813,71.341014)" />
    <g
       id="g4705"
       transform="matrix(0.1682249,0,0,0.1682249,5.18246,74.266327)" />
    <g
       id="g4707"
       transform="matrix(0.0329144,0,0,0.0329144,-11.27829,67.456337)" />
    <g
       id="g4709"
       transform="matrix(0.02242998,0,0,0.02242998,-15.54464,82.022529)" />
    <g
       id="g4711"
       transform="matrix(0.1794399,0,0,0.1794399,-4.68691,71.000447)" />
    <g
       id="g3638"
       transform="matrix(0.1653543,0,0,0.1653543,-5.14996,71.615218)" />
    <g
       id="g3640"
       transform="matrix(0.1653543,0,0,0.1653543,4.10988,74.490614)" />
    <g
       id="g3642"
       transform="matrix(0.03235274,0,0,0.03235274,-12.06999,67.79683)" />
    <g
       id="g3644"
       transform="matrix(0.02204723,0,0,0.02204723,-16.26353,82.114469)" />
    <g
       id="g3646"
       transform="matrix(0.1763779,0,0,0.1763779,-5.59108,71.280463)" />
    <g
       id="g3918"
       transform="matrix(0.02781671,0,0,0.02781671,-36.11285,80.541489)" />
    <g
       id="g3920"
       transform="matrix(0.02781671,0,0,0.02781671,-34.55512,81.025209)" />
    <g
       id="g3922"
       transform="matrix(0.00544254,0,0,0.00544254,-37.27697,79.899139)" />
    <g
       id="g3924"
       transform="matrix(0.00370889,0,0,0.00370889,-37.98243,82.307729)" />
    <g
       id="g3926"
       transform="matrix(0.02967116,0,0,0.02967116,-36.18706,80.485179)" />
    <g
       id="g3430">
      <g
         id="g3684"
         style="display:inline;enable-background:new"
         transform="matrix(0.3656081,0,0,0.3163312,205.88164,16.658675)" />
    </g>
    <g
       id="g3722"
       style="display:inline;enable-background:new"
       transform="matrix(0.2438673,0,0,0.2006914,180.60916,63.847116)" />
    <g
       id="g3760"
       style="display:inline;enable-background:new"
       transform="matrix(0.2440518,0,0,0.1579715,176.48602,93.43758)" />
    <g
       id="g3798"
       style="display:inline;enable-background:new"
       transform="matrix(0.1709292,0,0,0.11053,163.45312,119.34566)" />
    <g
       id="g3406">
      <path
         d="m 100.40916,122.80241 c 0,1.07394 -15.670829,1.94454 -35.001781,1.94454 -19.330952,0 -35.001785,-0.8706 -35.001785,-1.94454 0,-1.07395 15.670833,-1.94455 35.001785,-1.94455 19.330952,0 35.001781,0.8706 35.001781,1.94455 z"
         id="path3396"
         sodipodi:cx="65.407379"
         sodipodi:cy="122.80241"
         sodipodi:rx="35.001785"
         sodipodi:ry="1.9445436"
         sodipodi:type="arc"
         style="opacity:0.38869258;fill:url(#radialGradient3404);fill-opacity:1;stroke:none"
         transform="matrix(1.060606,0,0,1,-3.9640836,0)" />
      <g
         id="g2883"
         transform="matrix(1,0,0,0.9491684,190.5,24.985837)">
        <path
           d="m -139.92613,51.304131 2.77059,-8.761645 15.16297,-62.72068 c 0,0 6.44657,1.69237 6.69632,4.022506 1.52535,14.23144 -8.05712,52.348889 -5.24394,52.276316 l -14.07878,23.437103 -5.30716,-8.2536 0,0 0,0 z"
           id="path2698"
           sodipodi:nodetypes="cccsccc"
           style="fill:url(#linearGradient2898);fill-opacity:1;fill-rule:evenodd;stroke:#494949;stroke-width:0.51321387;stroke-linecap:butt;stroke-linejoin:miter;stroke-miterlimit:4;stroke-opacity:1;stroke-dasharray:none" />
        <path
           d="m -135.85479,37.101183 -1.30024,5.426775 -2.77669,8.774345 5.29987,8.259557 9.81491,-16.279678 -11.03785,-6.180999 0,0 0,0 z"
           id="path4088"
           style="fill:url(#linearGradient2900);fill-opacity:1;fill-rule:evenodd;stroke:#3e3e3e;stroke-width:0.42364389px;stroke-linecap:butt;stroke-linejoin:miter;stroke-opacity:1;display:inline;enable-background:new" />
        <path
           d="m -124.82251,43.267091 -11.04174,-6.175005 -1.27719,5.4265 -0.60629,1.915346 c 3.09637,1.925159 5.96416,4.279685 8.30701,6.490189 l 4.61821,-7.65703 z"
           id="path3801"
           style="opacity:0.6;fill:url(#linearGradient2902);fill-opacity:1;fill-rule:evenodd;stroke:none;display:inline;enable-background:new" />
        <path
           d="m -118.53802,59.878321 c -4.35292,-7.822937 -9.75218,-15.802302 -17.19747,-20.36908 0.3848,0.180149 -8.5352,-34.789861 -10.37443,-53.671367 -0.22315,-2.29091 5.86563,-4.945895 5.86563,-4.945895 0,0 14.63359,35.751575 18.61975,52.158556 0.51097,2.103137 2.39808,7.531119 2.39808,7.531119 l 5.36896,10.64929 -4.68052,8.647377 0,0 0,0 z"
           id="path2696"
           sodipodi:nodetypes="ccscsccc"
           style="fill:url(#linearGradient2904);fill-opacity:1;fill-rule:evenodd;stroke:#4a4a4a;stroke-width:0.51321387;stroke-linecap:butt;stroke-linejoin:miter;stroke-miterlimit:4;stroke-opacity:1;stroke-dasharray:none" />
        <path
           d="m 77.139311,61.578955 c -0.225714,0.188613 -0.107338,0.410384 0.350165,0.76801 0.841041,0.657464 1.319476,4.439273 1.097102,8.711745 -0.07034,1.351596 -0.03404,2.575729 0.08302,2.746842 0.117058,0.171113 1.535097,1.174366 3.14557,2.228815 4.874985,3.19187 9.634556,7.689694 14.34245,13.537425 2.544415,3.16047 2.565495,3.170909 2.193635,4.80753 -0.33776,1.48658 -0.25811,1.74802 0.88556,2.76732 0.851747,0.75914 1.490917,0.99371 2.044737,0.74773 1.19276,-0.52964 1.9391,-0.38157 4.56386,0.90813 3.08053,1.513638 8.20127,2.743028 10.00714,2.397408 2.12898,-0.40747 5.23722,-2.721368 6.49133,-4.791138 2.43774,-4.02326 2.63995,-12.19201 0.40662,-17.976115 -0.57481,-1.488724 -1.9098,-3.938226 -2.95371,-5.470347 -3.72732,-5.471304 -8.32094,-7.631508 -13.10076,-6.151183 -3.23655,1.002372 -7.964687,1.165906 -11.909262,0.393256 -1.668263,-0.326777 -6.084311,-1.852665 -9.798188,-3.372683 -3.958363,-1.620078 -7.056191,-2.644238 -7.500597,-2.447461 -0.150961,0.06682 -0.27348,0.131783 -0.348671,0.194716 l -10e-7,0 0,0 z M 55.13979,77.767667 c -0.662686,0.294485 -0.684266,2.989789 -0.117106,11.163225 0.442905,6.3827 -0.548391,11.063279 -3.388877,15.986028 -2.581107,4.47326 -3.220497,7.39393 -2.262377,10.39664 3.015683,9.45097 15.782735,17.54932 24.202027,15.33489 2.567805,-0.67538 5.397939,-2.78531 6.491329,-4.79113 1.077005,-1.97577 1.472558,-6.05055 0.999673,-10.32136 -0.207563,-1.87454 -0.100925,-3.12885 0.30024,-3.40329 0.825895,-0.56499 0.912029,-1.65891 0.242111,-3.23211 -0.455148,-1.06885 -0.761036,-1.25417 -1.980322,-1.22987 l -1.463724,0.0376 -3.639997,-5.8332 C 70.605192,95.659682 68.801161,91.843342 67.327888,86.426899 66.649622,83.933257 66.13307,82.739344 65.308558,81.938199 63.946448,80.614698 56.036679,77.369107 55.13979,77.767667 z m 45.22647,-3.559904 c 1.66585,-1.167634 3.65001,-2.172331 5.20489,-2.509269 4.82782,-1.0462 7.41986,-0.103931 9.98192,3.641244 4.00989,5.861611 4.96533,13.357024 2.27898,17.803573 -1.11442,1.844621 -1.21266,1.963341 -2.99833,2.533 -1.86329,0.594431 -3.31938,0.250611 -6.5772,-1.545909 -3.92907,-2.16668 -6.74189,-4.70855 -9.347048,-8.41244 -2.396223,-3.406763 -2.846001,-5.279827 -1.901259,-8.030203 0.340624,-0.991653 1.692199,-2.312362 3.358047,-3.479996 l 0,0 0,0 z M 59.861915,102.79266 c 4.450429,-3.043098 8.025355,-2.06771 11.671827,3.22991 1.171886,1.7026 2.606405,4.25875 3.176707,5.66826 1.315581,3.25146 2.05141,8.3751 1.444078,10.05142 -1.086052,2.99763 -4.366297,4.51254 -8.088464,3.73719 -4.919537,-1.02477 -9.321691,-4.14897 -12.582277,-8.91526 -1.845223,-2.69732 -1.842521,-2.70854 -1.347084,-5.29904 0.613955,-3.2104 2.833195,-6.49521 5.725213,-8.47248 l 0,0 0,0 z"
           id="path3983"
           style="fill:none;stroke:#000000;stroke-width:0;stroke-miterlimit:4;stroke-opacity:1;stroke-dasharray:none;display:inline;enable-background:new"
           transform="matrix(0.8230652,0.5324245,-0.5324245,0.8230652,-144.72508,-42.318228)" />
        <path
           d="m -114.02054,49.436129 c -0.2862,0.03507 -0.30685,0.280623 -0.1207,0.818559 0.34218,0.988926 -1.27757,4.356333 -3.73536,7.754458 -0.77752,1.075002 -1.3994,2.101868 -1.39416,2.305032 0.005,0.203162 0.63822,1.783902 1.40233,3.509238 2.313,5.222679 3.83569,11.458793 4.59712,18.778453 0.4115,3.95599 0.4233,3.9758 -0.75414,5.12486 -1.0695,1.04372 -1.14313,1.30131 -0.74452,2.74918 0.29686,1.07831 0.69805,1.61168 1.28484,1.7041 1.26372,0.19913 1.79916,0.71836 3.27285,3.17736 1.72958,2.88597 5.28972,6.624241 6.96009,7.301261 1.96923,0.79815 5.75949,0.54857 7.89371,-0.48727 4.14849,-2.01349 8.66417,-8.629241 9.90559,-14.579021 0.31953,-1.53136 0.52492,-4.25824 0.48145,-6.07508 -0.15476,-6.48775 -2.78547,-10.711499 -7.50773,-12.037987 -3.19758,-0.898204 -7.17622,-3.280981 -10.01148,-6.017111 -1.19911,-1.157183 -4.02138,-4.764301 -6.26885,-7.992732 -2.39542,-3.440961 -4.39985,-5.933271 -4.87039,-6.007924 -0.15984,-0.02537 -0.29526,-0.03714 -0.39065,-0.02538 l 0,0 0,4e-6 z m -26.72631,1.611282 c -0.70223,-0.11045 -2.15504,2.096471 -6.03996,9.125714 -3.03377,5.489191 -6.34173,8.813821 -11.30063,11.353224 -4.50609,2.307537 -6.58738,4.37101 -7.3975,7.35256 -2.54983,9.38439 3.64653,22.847361 11.75517,25.507371 2.47306,0.81128 5.92582,0.58151 7.8937,-0.48727 1.9384,-1.05276 4.43348,-4.195971 6.31815,-7.962901 0.82721,-1.65338 1.58281,-2.62898 2.05911,-2.64127 0.98058,-0.0253 1.6339,-0.87981 1.92013,-2.53134 0.19446,-1.12206 0.0414,-1.43745 -0.97513,-2.06663 l -1.22472,-0.74843 0.10978,-6.73912 c 0.0848,-7.201485 0.63188,-11.303091 2.30313,-16.545587 0.76942,-2.413555 0.97993,-3.671249 0.72785,-4.769634 -0.41644,-1.814548 -5.19866,-8.697236 -6.14906,-8.846721 l -2e-5,3.4e-5 0,0 z m 39.11971,21.14965 c 1.99279,-0.0741 4.1608,0.155382 5.61996,0.705917 4.53063,1.709357 6.16237,3.864971 6.27709,8.311601 0.17953,6.95945 -3.02482,13.63737 -7.60332,15.86688 -1.89936,0.9249 -2.04343,0.97031 -3.81644,0.48845 -1.8501,-0.50281 -2.8655,-1.56105 -4.59039,-4.77425 -2.08028,-3.87525 -3.04207,-7.465 -3.21424,-11.90059 -0.15841,-4.07979 0.46866,-5.86092 2.71062,-7.621653 0.80833,-0.634839 2.62394,-1.002257 4.61672,-1.076355 l 0,0 0,0 z m -48.55702,1.96173 c 5.28322,-0.135156 7.70629,2.571028 7.887,8.872788 0.058,2.02529 -0.12223,4.89294 -0.40329,6.35671 -0.64835,3.37661 -2.77066,7.98547 -4.16305,9.04184 -2.4899,1.889001 -5.99633,1.38938 -8.64711,-1.23055 -3.50348,-3.46273 -5.46334,-8.37798 -5.60932,-14.03696 -0.0826,-3.2025 -0.0744,-3.2103 1.71259,-5.07867 2.21463,-2.31549 5.79012,-3.837518 9.22318,-3.925158 l 0,0 0,0 z"
           id="path3470"
           style="fill:url(#linearGradient3682);fill-opacity:1;stroke:#9f4200;stroke-width:0.51321387;stroke-miterlimit:4;stroke-opacity:1;stroke-dasharray:none;display:inline;enable-background:new" />
        <path
           d="m -140.24661,-19.108012 c 0,0 -1.46963,0.628828 -2.93251,1.546532 l 1.137,0.123885 20.62553,58.303161 3.05357,4.333869 4.50725,6.043039 -5.36149,-10.648148 c 0,0 -1.88981,-5.434481 -2.40078,-7.537619 -3.98616,-16.40698 -18.62858,-52.164719 -18.62857,-52.164719 l 0,0 z"
           id="path4078"
           style="fill:#605f64;fill-opacity:1;fill-rule:evenodd;stroke:none;display:inline;enable-background:new" />
        <path
           d="m 84.5,62 c 0,3.865993 -2.238576,7 -5,7 -2.761424,0 -5,-3.134007 -5,-7 0,-3.865993 2.238576,-7 5,-7 2.761424,0 5,3.134007 5,7 z"
           id="path4115"
           sodipodi:cx="79.5"
           sodipodi:cy="62"
           sodipodi:rx="5"
           sodipodi:ry="7"
           sodipodi:type="arc"
           style="fill:none;stroke:#000000;stroke-width:1.60476387;stroke-linecap:round;stroke-linejoin:round;stroke-miterlimit:4;stroke-opacity:1;stroke-dasharray:none;stroke-dashoffset:1.26169998;filter:url(#filter4131)"
           transform="matrix(0.9060409,-0.0233737,0.0166955,0.6471721,-202.19782,-1.386509)" />
        <path
           d="m 84.5,62 c 0,3.865993 -2.238576,7 -5,7 -2.761424,0 -5,-3.134007 -5,-7 0,-3.865993 2.238576,-7 5,-7 2.761424,0 5,3.134007 5,7 z"
           id="path4117"
           sodipodi:cx="79.5"
           sodipodi:cy="62"
           sodipodi:rx="5"
           sodipodi:ry="7"
           sodipodi:type="arc"
           style="fill:#000000;fill-opacity:1;stroke:#4c4c4c;stroke-width:0.96499997;stroke-linecap:round;stroke-linejoin:round;stroke-miterlimit:4;stroke-opacity:1;stroke-dasharray:none;stroke-dashoffset:1.26169998;display:inline;enable-background:new"
           transform="matrix(0.9060409,-0.0233737,0.0166955,0.6471721,-202.19782,-1.386509)" />
        <path
           d="m 79.616037,59.219855 c -1.963832,0 -3.559232,1.115409 -3.559234,2.509415 0,0.509168 0.211537,0.985981 0.577173,1.382739 0.08961,-1.337517 1.628875,-2.40699 3.535185,-2.40699 1.227394,-10e-7 2.318466,0.437816 2.958012,1.109605 0.0014,-0.02909 0.02405,-0.05603 0.02405,-0.08535 0,-1.394006 -1.571352,-2.509416 -3.535185,-2.509415 l -10e-7,-4e-6 0,0 z"
           id="path4137"
           style="opacity:0.55830389;fill:#9b9b9b;fill-opacity:1;stroke:none;display:inline;enable-background:new"
           transform="matrix(0.9799353,-0.02527998,0.02527998,0.9799353,-208.64664,-22.828619)" />
        <path
           d="m 67.25,80.875 c -0.904318,1.324426 -2.180243,3.404838 -4.125,6.71875 -2.951811,5.029973 -6.390869,8.485844 -10.8125,11.0625 1.54144,-0.465668 3.130745,-0.781689 4.75,-0.78125 3.152094,6.78e-4 6.01236,0.924587 7.875,3.125 1.293343,1.52788 1.973038,3.46434 2.28125,5.6875 0.315433,-6.688376 1.011706,-11.192028 2.8125,-16.375 0.783883,-2.256117 0.877204,-3.05105 0.8125,-3.4375 -0.0058,-0.01356 -0.02435,-0.01492 -0.03125,-0.03125 -0.03589,-0.0849 -0.08966,-0.223856 -0.15625,-0.375 -0.133179,-0.302287 -0.307333,-0.712738 -0.53125,-1.125 -0.462108,-0.850804 -1.084055,-1.907818 -1.71875,-2.875 C 67.997899,81.846483 67.620765,81.378816 67.25,80.875 z m 28.59375,0.375 c -0.815456,1.566015 -1.973746,3.33021 -3.34375,5.125 -0.299216,0.392003 -0.544559,0.725648 -0.75,1.03125 0.0063,0.01977 0.0233,0.04038 0.03125,0.0625 0.220299,0.613093 0.523851,1.460959 0.875,2.3125 1.860374,4.511452 3.120117,9.653084 3.875,15.40625 0.117,-0.87372 0.326374,-1.69048 0.625,-2.46875 0.647153,-1.6866 1.795583,-3.034234 3.21875,-4.09375 1.85136,-1.37831 3.98634,-1.443355 6.21875,-1.46875 1.34535,-0.0153 2.70706,0.139515 4.03125,0.375 -2.32433,-1.341191 -4.59297,-3.031468 -6.46875,-4.9375 C 102.53207,90.943372 99.952856,87.315042 97.6875,83.875 96.984188,82.80699 96.414415,82.04141 95.84375,81.25 z m -52.5,30.6875 c 0.01623,0.17929 0.01061,0.35105 0.03125,0.53125 -0.01987,-0.17495 -0.01474,-0.35509 -0.03125,-0.53125 z m 53.6875,2.5 c -0.132346,0.56513 -0.306607,1.12612 -0.65625,1.59375 -0.36718,0.49108 -0.740249,0.79281 -1.03125,1.0625 -0.08675,0.0804 -0.100153,0.10099 -0.15625,0.15625 0.01367,0.0653 0.0084,0.064 0.03125,0.15625 0.02448,0.0988 0.0713,0.12974 0.09375,0.1875 0.711848,0.22174 1.487085,0.52824 2.125,1.1875 0.789618,0.81604 1.322239,1.78303 2.0625,3.09375 0.125245,0.22176 0.405587,0.50631 0.5625,0.75 -0.154118,-0.28872 -0.3084,-0.52562 -0.46875,-0.84375 -1.227098,-2.43455 -2.043506,-4.84224 -2.5625,-7.34375 z M 67,115.40625 c -0.06464,0.43247 -0.106474,0.94234 -0.1875,1.3125 -0.380432,1.73797 -1.066581,3.54244 -1.84375,5.21875 0.04591,-0.0837 0.1113,-0.13442 0.15625,-0.21875 0.491952,-0.92299 0.97227,-1.68876 1.5,-2.34375 0.247191,-0.3068 0.497961,-0.65657 0.90625,-0.96875 0.314761,-0.24067 0.821535,-0.35507 1.3125,-0.46875 0.02022,-0.0352 0.0083,-0.006 0.03125,-0.0625 0.02261,-0.0561 0.0682,-0.16915 0.09375,-0.25 l -0.9375,-0.59375 C 67.458513,116.66249 67.146633,116.05335 67,115.40625 z M 46.8125,122.5 c 1.912232,3.08922 4.386019,5.41753 6.71875,6.25 0.810924,0.28939 2.077992,0.42779 3.25,0.375 1.172008,-0.0528 2.29813,-0.31603 2.78125,-0.5625 0.07761,-0.0396 0.35035,-0.35133 0.46875,-0.4375 -3.538645,1.65731 -7.892515,0.50885 -10.84375,-2.5625 -0.905047,-0.94188 -1.6698,-1.96888 -2.375,-3.0625 z m 67.34375,3.3125 c -0.85127,0.6863 -1.72899,1.29923 -2.71875,1.75 -0.96879,0.44122 -1.74436,0.84831 -2.8125,0.96875 -1.08933,0.12282 -1.97825,-0.1594 -2.90625,-0.4375 -0.63688,-0.19085 -1.25748,-0.4809 -1.84375,-0.84375 0.16523,0.15044 0.35265,0.37388 0.5,0.5 0.25333,0.21684 0.46392,0.37663 0.625,0.5 0.0805,0.0617 0.14386,0.12585 0.1875,0.15625 0.32569,0.14189 1.63881,0.38697 2.84375,0.34375 1.2089,-0.0434 2.54567,-0.34787 3.15625,-0.625 0.83578,-0.37934 1.89015,-1.24464 2.96875,-2.3125 z"
           id="path4724"
           inkscape:original="M 67.25 79.75 C 67.138206 79.89826 67.100696 79.904979 66.96875 80.09375 C 66.043638 81.417279 64.627631 83.730968 62.5625 87.25 C 59.189942 92.996939 55.328164 96.678998 49.90625 99.28125 C 45.449385 101.42034 43.919469 102.96317 43.1875 105.40625 C 41.943035 109.55991 42.612272 115.02766 44.625 119.71875 C 46.637728 124.40984 49.979316 128.18551 53.3125 129.375 C 55.205448 130.05053 58.53248 129.82521 59.84375 129.15625 C 61.046784 128.5425 63.785532 125.59969 65.6875 122.03125 C 66.166778 121.13204 66.632485 120.39253 67.125 119.78125 C 67.371257 119.47561 67.596414 119.1983 67.9375 118.9375 C 68.232758 118.71174 68.712111 118.50476 69.3125 118.4375 C 69.364262 118.37322 69.557461 118.02519 69.6875 117.375 C 69.779364 116.91568 69.690057 117.00505 69.8125 117.28125 C 69.934943 117.55745 69.991156 117.49962 69.5625 117.21875 L 68.375 116.46875 C 67.794988 116.09531 67.460722 115.43872 67.5 114.75 L 67.78125 107.875 C 68.060487 100.44534 68.758643 95.992865 70.65625 90.53125 C 71.475576 88.173122 71.586058 87.266769 71.46875 86.6875 C 71.480441 86.745235 71.160718 85.902509 70.6875 85.03125 C 70.214282 84.159991 69.58215 83.107352 68.9375 82.125 C 68.339116 81.21315 67.752645 80.389989 67.25 79.75 z M 95.6875 79.90625 C 95.539446 80.243079 95.437465 80.545401 95.25 80.90625 C 94.45643 82.433779 93.324858 84.192165 91.96875 85.96875 C 91.599555 86.452433 91.256291 86.928372 91.03125 87.28125 C 91.077018 87.416631 91.093698 87.513418 91.15625 87.6875 C 91.380378 88.31125 91.70689 89.168891 92.0625 90.03125 C 94.378815 95.648369 95.81028 102.23607 96.40625 109.875 C 96.56393 111.89615 96.695481 112.90053 96.5 114.03125 C 96.40226 114.59661 96.164908 115.22672 95.84375 115.65625 C 95.522592 116.08578 95.215023 116.33884 94.90625 116.625 C 94.392692 117.10095 94.377667 117.1979 94.4375 117 C 94.497333 116.8021 94.425655 116.88402 94.59375 117.5625 C 94.694533 117.96929 94.828989 118.14725 94.8125 118.125 C 95.562597 118.3401 96.372201 118.63349 96.96875 119.25 C 97.685265 119.99049 98.198654 120.87929 98.9375 122.1875 C 99.67565 123.49448 100.93464 125.15107 102.15625 126.5 C 103.37786 127.84893 104.78393 128.9331 104.9375 129 C 105.47746 129.23524 106.76907 129.45264 108.0625 129.40625 C 109.35593 129.35986 110.71898 129.05905 111.46875 128.71875 C 113.10617 127.97557 115.22978 126.03464 117 123.5625 C 118.77022 121.09036 120.20594 118.11208 120.84375 115.40625 C 121.14404 114.13234 121.46564 111.31646 121.46875 109.65625 C 121.47469 106.5952 120.86029 104.19452 119.84375 102.46875 C 118.82721 100.74298 117.4429 99.641138 115.46875 99.03125 C 111.77991 97.891625 107.67833 95.227581 104.625 92.125 C 103.09413 90.56944 100.47238 86.953486 98.21875 83.53125 C 97.248171 82.057384 96.429543 80.905749 95.6875 79.90625 z M 106.59375 97.8125 C 108.83083 97.78705 111.17488 98.044126 113.0625 98.8125 C 115.52401 99.814456 117.44963 101.01581 118.71875 102.78125 C 119.98787 104.54669 120.4375 106.7232 120.4375 109.21875 C 120.4375 116.9368 116.93867 124.33524 111.15625 126.96875 C 110.17143 127.41727 109.50563 127.76866 108.5625 127.875 C 107.61937 127.98134 106.83392 127.74675 105.90625 127.46875 C 104.7263 127.11515 103.59314 126.43073 102.6875 125.4375 C 101.78186 124.44427 101.0559 123.22289 100.1875 121.5 C 98.057479 117.27406 97.093238 113.20281 97.03125 108.4375 C 97.002727 106.24577 97.153938 104.49095 97.75 102.9375 C 98.346062 101.38405 99.399644 100.16156 100.75 99.15625 C 102.41567 97.916186 104.37233 97.83777 106.59375 97.8125 z M 57.0625 98.53125 C 60.091608 98.531902 62.730068 99.389191 64.4375 101.40625 C 66.144932 103.42331 66.771327 106.23428 66.78125 109.6875 C 66.787591 111.90981 66.583106 114.78644 66.1875 116.59375 C 65.763487 118.53081 64.943895 120.6279 64.03125 122.46875 C 63.118605 124.3096 62.362653 125.81934 60.9375 126.84375 C 57.518411 129.30139 52.79249 128.38888 49.65625 125.125 C 45.792568 121.10406 43.78125 115.5301 43.78125 109.34375 C 43.781251 107.70903 43.709672 106.72658 44.125 105.59375 C 44.540328 104.46092 45.283565 103.80358 46.21875 102.875 C 48.965211 100.14786 53.01997 98.530154 57.0625 98.53125 z "
           inkscape:radius="-0.6522643"
           sodipodi:type="inkscape:offset"
           style="opacity:0.47926271;fill:#e8e8e8;fill-opacity:1;stroke:none;display:inline;filter:url(#filter4809);enable-background:new"
           transform="matrix(0.9799353,-0.02527998,0.02527998,0.9799353,-208.64664,-22.828619)" />
        <path
           d="m 120.15625,103.375 -0.40625,1.34375 c 0.51879,1.36172 0.8125,2.82882 0.8125,4.5 0,7.75527 -3.49762,15.18122 -9.34375,17.84375 -0.98508,0.44864 -1.65552,0.79694 -2.625,0.90625 -0.96948,0.10931 -1.78927,-0.12771 -2.71875,-0.40625 -1.19464,-0.358 -2.33176,-1.02421 -3.25,-2.03125 -0.7955,-0.87244 -1.46079,-2.07855 -2.1875,-3.46875 l -1.21875,0.28125 c 0.742488,1.26312 1.87593,2.78677 3.03125,4.0625 1.21658,1.34338 2.63807,2.41999 2.75,2.46875 0.51255,0.2233 1.78106,0.45221 3.0625,0.40625 1.28144,-0.046 2.61525,-0.32561 3.34375,-0.65625 1.60695,-0.72935 3.73786,-2.66414 5.5,-5.125 1.76214,-2.46086 3.21038,-5.43799 3.84375,-8.125 0.29631,-1.25703 0.59066,-4.07024 0.59375,-5.71875 0.005,-2.61482 -0.43837,-4.65674 -1.1875,-6.28125 z m -77.09375,3.40625 c -0.764326,3.9242 -0.14277,8.71325 1.65625,12.90625 2.003885,4.67048 5.338118,8.42078 8.625,9.59375 1.856242,0.66243 5.169939,0.42791 6.4375,-0.21875 1.154614,-0.58905 3.91773,-3.53881 5.8125,-7.09375 0.123646,-0.23198 0.254158,-0.35232 0.375,-0.5625 l -1.125,-0.84375 c -0.353515,0.86618 -0.623767,1.78123 -1.03125,2.5625 -0.825241,1.58224 -1.5016,2.87022 -2.8125,3.8125 -3.469242,2.49369 -8.27094,1.57669 -11.4375,-1.71875 -3.886755,-4.04495 -5.90625,-9.66379 -5.90625,-15.875 0,-1.00985 0.01523,-1.69077 0.09375,-2.40625 l -0.6875,-0.15625 z"
           id="path4775"
           inkscape:original="M 119.3125 98.90625 L 117.65625 104.75 C 118.26667 105.95787 118.53125 107.39108 118.53125 109.21875 C 118.53125 116.3207 115.10279 123.06555 110.375 125.21875 C 108.41371 126.11199 108.26419 126.16305 106.46875 125.625 C 104.59525 125.06356 103.58075 123.94719 101.90625 120.625 C 101.7578 120.33047 101.60508 120.04152 101.46875 119.75 L 95.9375 121.03125 C 96.305885 121.51106 96.7485 122.18171 97.28125 123.125 C 98.969141 126.11361 102.50187 130.01563 104.1875 130.75 C 106.17472 131.61576 110.04629 131.46895 112.25 130.46875 C 116.5336 128.52454 121.29622 121.87865 122.71875 115.84375 C 123.08489 114.29048 123.37153 111.5102 123.375 109.65625 C 123.38452 104.74459 121.9949 101.08004 119.3125 98.90625 z M 41.53125 104.375 C 41.473035 104.53671 41.39393 104.67627 41.34375 104.84375 C 38.496558 114.34684 44.457061 128.2615 52.65625 131.1875 C 55.156926 132.0799 58.683795 131.91316 60.71875 130.875 C 62.723214 129.85239 65.353921 126.72942 67.375 122.9375 C 67.857683 122.0319 68.293953 121.35766 68.6875 120.90625 L 63.96875 117.375 C 63.022301 120.60324 61.096352 124.35841 59.8125 125.28125 C 57.223614 127.14214 53.665571 126.55404 51.03125 123.8125 C 47.549504 120.18904 45.6875 115.1186 45.6875 109.34375 C 45.6875 107.01137 45.692177 106.33773 46.375 105.46875 L 41.53125 104.375 z "
           inkscape:radius="-2.0299919"
           sodipodi:type="inkscape:offset"
           style="fill:#e8e8e8;fill-opacity:1;display:inline;filter:url(#filter4805);enable-background:new"
           transform="matrix(0.9799353,-0.02527998,0.02527998,0.9799353,-208.64664,-22.828619)" />
      </g>
      <path
         d="m 53.474951,13.907963 3.093591,7.866564 -1.944543,3.270368 -3.181981,-8.662058 2.032933,-2.474874 0,0 z"
         id="path3842"
         sodipodi:nodetypes="ccccc"
         style="opacity:0.8798587;fill:url(#linearGradient3868);fill-opacity:1;fill-rule:evenodd;stroke:none" />
      <path
         d="M 58.778253,27.96171 67.617087,50.50074 65.672544,53.771108 56.74532,30.436584 58.778253,27.96171 z"
         id="path3852"
         sodipodi:nodetypes="ccccc"
         style="opacity:0.8798587;fill:url(#linearGradient3860);fill-opacity:1;fill-rule:evenodd;stroke:none;display:inline;enable-background:new" />
      <path
         d="m 51.5,81 2,3 c 0,0 0.389192,1.213269 0.375,1.75 -0.03799,1.43678 -1.25,4.625 -1.25,4.625 l -0.75,5.75 -0.125,6 0,6.125 2.625,2.125 -0.125,1.5 -0.625,-0.25 -0.375,-0.75 -2.5,-2.25 L 50.5,93.75 c 0,0 0.750546,-4.26788 1.125,-5.5 0.374454,-1.23212 1.177907,-1.860207 1.125,-2.75 -0.06875,-1.156216 -1.875,-3.375 -1.875,-3.375 L 51.5,81 z"
         id="path3898"
         sodipodi:nodetypes="ccscccccccccczscc"
         style="fill:url(#radialGradient3914);fill-opacity:1;fill-rule:evenodd;stroke:none" />
      <path
         d="m 78.312076,75.249477 7.778175,10.076272 3.71231,2.828427 c 0,0 4.718418,2.717982 6.894291,3.535534 1.228132,0.461453 3.14447,0.342833 4.242638,1.06066 1.23419,0.806741 3.00521,3.889087 3.00521,3.889087 l 0.88388,4.242643 -0.35355,5.48008 -1.23744,5.3033 -0.70711,0.53033 c 0,0 1.41422,-7.95496 1.41422,-9.01562 0,-1.06066 -0.88389,-5.126519 -0.88389,-5.126519 0,0 -1.21975,-2.579348 -2.12132,-3.358758 -1.185392,-1.024772 -3.331722,-1.506405 -4.772968,-2.12132 -1.159459,-0.494689 -2.71376,-1.135284 -3.889087,-1.59099 -1.579965,-0.612595 -3.854853,-1.065021 -5.303301,-1.944544 -1.411809,-0.857275 -4.065864,-3.71231 -4.065864,-3.71231 l -5.656854,-8.485282 1.06066,-1.59099 0,0 z"
         id="path3926"
         sodipodi:nodetypes="cccsscccccscssssccc"
         style="fill:url(#radialGradient3934);fill-opacity:1;fill-rule:evenodd;stroke:none" />
    </g>
  </g>
</svg>
