<?xml version="1.0" encoding="UTF-8" standalone="no"?>
<!-- Created with Inkscape (http://www.inkscape.org/) -->

<svg
   xmlns:dc="http://purl.org/dc/elements/1.1/"
   xmlns:cc="http://creativecommons.org/ns#"
   xmlns:rdf="http://www.w3.org/1999/02/22-rdf-syntax-ns#"
   xmlns:svg="http://www.w3.org/2000/svg"
   xmlns="http://www.w3.org/2000/svg"
   xmlns:xlink="http://www.w3.org/1999/xlink"
   xmlns:sodipodi="http://sodipodi.sourceforge.net/DTD/sodipodi-0.dtd"
   xmlns:inkscape="http://www.inkscape.org/namespaces/inkscape"
   height="128"
   id="svg11300"
   inkscape:export-filename="/home/mma/BZR-WORK/breathe-icon-set/source_svg/rendered/computer.png"
   inkscape:export-xdpi="90.000000"
   inkscape:export-ydpi="90.000000"
   inkscape:output_extension="org.inkscape.output.svg.inkscape"
   inkscape:version="0.46+devel r21673"
   sodipodi:docname="format-text-italic.svg"
   sodipodi:version="0.32"
   style="display:inline;enable-background:new"
   version="1.0"
   width="128">
  <title
     id="title4119">Breathe Icon Theme computer</title>
  <defs
     id="defs3">
    <linearGradient
       id="linearGradient3309">
      <stop
         id="stop3311"
         offset="0"
         style="stop-color:#e1e3df;stop-opacity:0;" />
      <stop
         id="stop3315"
         offset="0.5"
         style="stop-color:#ffffff;stop-opacity:1;" />
      <stop
         id="stop3313"
         offset="1"
         style="stop-color:#dadbd9;stop-opacity:0;" />
    </linearGradient>
    <linearGradient
       id="linearGradient2512">
      <stop
         id="stop2514"
         offset="0"
         style="stop-color:#babdb6;stop-opacity:1" />
      <stop
         id="stop2516"
         offset="1"
         style="stop-color:#555753;stop-opacity:1" />
    </linearGradient>
    <linearGradient
       id="linearGradient4260">
      <stop
         id="stop4262"
         offset="0"
         style="stop-color:#171817;stop-opacity:1;" />
      <stop
         id="stop4264"
         offset="1"
         style="stop-color:#555652;stop-opacity:1;" />
    </linearGradient>
    <linearGradient
       gradientTransform="translate(69.394547,0)"
       gradientUnits="userSpaceOnUse"
       id="linearGradient3346"
       inkscape:collect="always"
       x1="75.348129"
       x2="76.814034"
       xlink:href="#linearGradient4260"
       y1="40.28717"
       y2="-2.2743428" />
    <linearGradient
       gradientUnits="userSpaceOnUse"
       id="linearGradient3348"
       inkscape:collect="always"
       x1="141.07101"
       x2="139.79109"
       xlink:href="#linearGradient2512"
       y1="-21.143559"
       y2="38.349987" />
    <linearGradient
       gradientUnits="userSpaceOnUse"
       id="linearGradient3350"
       inkscape:collect="always"
       x1="133.16072"
       x2="135.59573"
       xlink:href="#linearGradient2512"
       y1="31.107067"
       y2="10.16264" />
    <linearGradient
       gradientUnits="userSpaceOnUse"
       id="linearGradient3352"
       inkscape:collect="always"
       x1="70.224541"
       x2="89.449013"
       xlink:href="#linearGradient3309"
       y1="25.199574"
       y2="25.199574" />
    <linearGradient
       gradientTransform="matrix(-1,0,0,-1,131.11132,124.58426)"
       gradientUnits="userSpaceOnUse"
       id="linearGradient3354"
       inkscape:collect="always"
       x1="70.224541"
       x2="89.449013"
       xlink:href="#linearGradient3309"
       y1="25.199574"
       y2="25.199574" />
    <linearGradient
       gradientTransform="matrix(-1,0,0,-1,175.02693,126.52514)"
       gradientUnits="userSpaceOnUse"
       id="linearGradient3356"
       inkscape:collect="always"
       x1="76.255791"
       x2="82.855263"
       xlink:href="#linearGradient3309"
       y1="25.012074"
       y2="25.480824" />
    <linearGradient
       gradientTransform="matrix(1.0473677,0,0,0.6153505,-9.6138995,24.456277)"
       gradientUnits="userSpaceOnUse"
       id="linearGradient3358"
       inkscape:collect="always"
       x1="99.875"
       x2="109.75"
       xlink:href="#linearGradient3309"
       y1="25.374998"
       y2="25.374998" />
  </defs>
  <sodipodi:namedview
     bordercolor="#666666"
     borderopacity="0.25490196"
     fill="#f57900"
     gridtolerance="12"
     guidetolerance="13"
     height="300px"
     id="base"
     inkscape:current-layer="layer6"
     inkscape:cx="71.355639"
     inkscape:cy="56.064396"
     inkscape:document-units="px"
     inkscape:grid-bbox="true"
     inkscape:guide-bbox="true"
     inkscape:pageopacity="0.0"
     inkscape:pageshadow="2"
     inkscape:showpageshadow="false"
     inkscape:snap-bbox="true"
     inkscape:snap-nodes="false"
     inkscape:window-height="926"
     inkscape:window-maximized="0"
     inkscape:window-width="1680"
     inkscape:window-x="0"
     inkscape:window-y="25"
     inkscape:zoom="2"
     objecttolerance="7"
     pagecolor="#ffffff"
     showgrid="false"
     showguides="true"
     stroke="#ef2929"
     width="400px">
    <inkscape:grid
       empspacing="5"
       enabled="true"
       id="grid5883"
       spacingx="1px"
       spacingy="1px"
       type="xygrid"
       visible="true" />
  </sodipodi:namedview>
  <metadata
     id="metadata4">
    <rdf:RDF>
      <cc:Work
         rdf:about="">
        <dc:format>image/svg+xml</dc:format>
        <dc:type
           rdf:resource="http://purl.org/dc/dcmitype/StillImage" />
        <dc:creator>
          <cc:Agent>
            <dc:title>Breathe Icon Team</dc:title>
          </cc:Agent>
        </dc:creator>
        <dc:source />
        <cc:license
           rdf:resource="http://creativecommons.org/licenses/by-sa/3.0/" />
        <dc:title>Breathe Icon Theme icon</dc:title>
        <dc:subject>
          <rdf:Bag />
        </dc:subject>
        <dc:date />
        <dc:rights>
          <cc:Agent>
            <dc:title />
          </cc:Agent>
        </dc:rights>
        <dc:publisher>
          <cc:Agent>
            <dc:title />
          </cc:Agent>
        </dc:publisher>
        <dc:identifier />
        <dc:relation />
        <dc:language />
        <dc:coverage />
        <dc:description />
        <dc:contributor>
          <cc:Agent>
            <dc:title>Jakub Steiner, Cory Kontros, Oxygen and Breathe icon teams</dc:title>
          </cc:Agent>
        </dc:contributor>
      </cc:Work>
      <cc:License
         rdf:about="http://creativecommons.org/licenses/by-sa/3.0/">
        <cc:permits
           rdf:resource="http://creativecommons.org/ns#Reproduction" />
        <cc:permits
           rdf:resource="http://creativecommons.org/ns#Distribution" />
        <cc:requires
           rdf:resource="http://creativecommons.org/ns#Notice" />
        <cc:requires
           rdf:resource="http://creativecommons.org/ns#Attribution" />
        <cc:prohibits
           rdf:resource="http://creativecommons.org/ns#CommercialUse" />
        <cc:permits
           rdf:resource="http://creativecommons.org/ns#DerivativeWorks" />
        <cc:requires
           rdf:resource="http://creativecommons.org/ns#ShareAlike" />
      </cc:License>
    </rdf:RDF>
  </metadata>
  <g
     id="layer1"
     inkscape:groupmode="layer"
     inkscape:label="actions/format-text-italic"
     style="display:inline"
     transform="translate(-3,-4)">
    <rect
       height="256"
       id="256x256"
       inkscape:label="256x256"
       style="fill:#eeeeec;fill-opacity:1;fill-rule:nonzero;stroke:none;stroke-width:5;marker:none;visibility:visible;display:none;overflow:visible;enable-background:accumulate"
       width="256"
       x="26.5"
       y="32.823101" />
    <rect
       height="48"
       id="48x48"
       inkscape:label="48x48"
       style="fill:#eeeeec;fill-opacity:1;fill-rule:nonzero;stroke:none;stroke-width:5;marker:none;visibility:visible;display:none;overflow:visible;enable-background:accumulate"
       width="48"
       x="-35.5"
       y="32.823101" />
    <text
       id="text6091"
       sodipodi:linespacing="125%"
       style="font-size:56.11526489px;font-style:normal;font-variant:normal;font-weight:bold;font-stretch:normal;text-indent:0;text-align:start;text-decoration:none;line-height:125%;letter-spacing:normal;word-spacing:normal;text-transform:none;direction:ltr;block-progression:tb;writing-mode:lr-tb;text-anchor:start;fill:#2e3436;fill-opacity:1;fill-rule:nonzero;stroke:none;stroke-width:5;marker:none;visibility:visible;display:none;overflow:visible;enable-background:accumulate;font-family:Myriad"
       x="-418.41196"
       xml:space="preserve"
       y="34.084831"><tspan
         id="tspan6093"
         sodipodi:role="line"
         x="-418.41196"
         y="34.084831">audio-x-generic</tspan></text>
    <g
       id="layer6"
       inkscape:groupmode="layer"
       inkscape:label="plate"
       sodipodi:insensitive="true"
       style="display:none" />
    <g
       id="Livello_1"
       transform="translate(387.11439,42.495045)" />
    <g
       id="g3290"
       transform="translate(443.11439,59.884345)" />
    <g
       id="g7148"
       transform="matrix(0.1956571,0,0,0.1956571,345.26471,19.402885)" />
    <g
       id="g7555"
       transform="matrix(0.1333333,0,0,0.1333333,319.90372,105.99052)" />
    <g
       id="g9283"
       transform="matrix(1.0666666,0,0,1.0666666,384.44667,40.470571)" />
    <g
       id="g3335"
       transform="matrix(1.1919707,0,0,1.1919707,-15.783215,-11.768975)">
      <g
         id="g5627"
         inkscape:export-filename="/home/lapo/Desktop/format-text.png"
         inkscape:export-xdpi="90"
         inkscape:export-ydpi="90"
         transform="matrix(2.8726356,0,0,2.957746,-340.46155,-3.6619525)">
        <path
           d="m 156.63352,9.078512 -6.35203,22.085522 -0.71664,2.964281 c -0.0652,0.282316 -0.0978,0.521196 -0.0977,0.716639 -2e-5,0.347465 0.10856,0.651493 0.32575,0.912086 0.1737,0.19545 0.39087,0.293174 0.65149,0.293171 0.28229,3e-6 0.65146,-0.173728 1.10753,-0.521192 0.84691,-0.62977 1.97616,-1.93275 3.38775,-3.908942 l 1.10754,0.781788 c -1.49846,2.258504 -3.04032,3.984952 -4.62559,5.179348 -1.58531,1.172683 -3.05117,1.759023 -4.39756,1.759024 -0.93382,-1e-6 -1.6396,-0.23888 -2.11734,-0.716639 -0.45606,-0.456043 -0.68408,-1.129249 -0.68406,-2.01962 -2e-5,-1.064098 0.23886,-2.464801 0.71664,-4.202113 l 0.68406,-2.443088 c -2.84486,3.713499 -5.46168,6.3086 -7.85046,7.785309 -1.7156,1.0641 -3.39862,1.59615 -5.04905,1.596151 -1.5853,-1e-6 -2.95343,-0.65149 -4.10439,-1.954471 -1.15097,-1.324694 -1.72645,-3.138007 -1.72645,-5.439944 0,-3.452889 1.03153,-7.090372 3.09458,-10.912463 2.08476,-3.843771 4.7233,-6.916631 7.91561,-9.218588 2.49736,-1.824144 4.85359,-2.7362295 7.06867,-2.736259 1.32468,2.95e-5 2.42135,0.3474906 3.29003,1.042385 0.89034,0.69495 1.56355,1.845915 2.01962,3.452898 l 1.17268,-3.7134946 5.17935,-0.7817884 m -11.59653,1.693875 c -1.38987,2.8e-5 -2.86658,0.651517 -4.43014,1.954471 -2.21508,1.845913 -4.19126,4.58217 -5.92856,8.208778 -1.7156,3.626643 -2.57339,6.905808 -2.57338,9.837504 -1e-5,1.476717 0.36917,2.649399 1.10753,3.518047 0.73835,0.846941 1.58528,1.270409 2.54081,1.270406 2.36707,3e-6 4.94045,-1.748161 7.72016,-5.244497 3.71347,-4.647284 5.57022,-9.414017 5.57024,-14.300212 -2e-5,-1.845865 -0.35834,-3.181419 -1.07495,-4.006666 -0.71667,-0.825193 -1.6939,-1.237803 -2.93171,-1.237831"
           id="text4586"
           style="font-size:14.29555988px;font-style:normal;font-weight:bold;fill:none;stroke:#2e3436;stroke-width:0.34306729;stroke-linecap:butt;stroke-linejoin:round;stroke-miterlimit:4;stroke-opacity:1;stroke-dasharray:none;display:inline;font-family:Bitstream Vera Serif"
           transform="scale(1.0087241,0.9913513)" />
        <path
           d="m 156.63352,9.0785158 -6.35203,22.0855222 -0.71664,2.96428 c -0.0652,0.282317 -0.0978,0.521197 -0.0977,0.71664 -2e-5,0.347465 0.10856,0.651493 0.32575,0.912086 0.1737,0.19545 0.39087,0.293173 0.65149,0.293171 0.28229,2e-6 0.65146,-0.173728 1.10753,-0.521192 0.84691,-0.629771 1.97616,-1.93275 3.38775,-3.908942 l 1.10754,0.781788 c -1.49846,2.258504 -3.04032,3.984951 -4.62559,5.179348 -1.58531,1.172683 -3.05117,1.759023 -4.39756,1.759024 -0.93382,-10e-7 -1.6396,-0.23888 -2.11734,-0.716639 -0.45606,-0.456043 -0.68408,-1.129249 -0.68406,-2.01962 -2e-5,-1.064098 0.23886,-2.464801 0.71664,-4.202113 l 0.68406,-2.443089 c -2.84486,3.7135 -5.46168,6.308601 -7.85046,7.78531 -1.7156,1.0641 -3.39862,1.59615 -5.04905,1.596151 -1.5853,-10e-7 -2.95343,-0.65149 -4.10439,-1.954471 -1.15097,-1.324694 -1.72645,-3.138007 -1.72645,-5.439944 0,-3.452889 1.03153,-7.090373 3.09458,-10.912463 2.08476,-3.843771 4.7233,-6.916631 7.91561,-9.218588 2.49736,-1.8241442 4.85359,-2.7362297 7.06867,-2.7362592 1.32468,2.95e-5 2.42135,0.3474907 3.29003,1.0423842 0.89034,0.694951 1.56355,1.845916 2.01962,3.452899 l 1.17268,-3.7134948 5.17935,-0.7817884 m -11.59653,1.6938752 c -1.38987,2.7e-5 -2.86658,0.651517 -4.43014,1.954471 -2.21508,1.845913 -4.19126,4.582169 -5.92856,8.208778 -1.7156,3.626643 -2.57339,6.905808 -2.57338,9.837503 -1e-5,1.476718 0.36917,2.649399 1.10753,3.518048 0.73835,0.846941 1.58528,1.270409 2.54081,1.270406 2.36707,3e-6 4.94045,-1.748161 7.72016,-5.244497 3.71347,-4.647285 5.57022,-9.414017 5.57024,-14.300212 -2e-5,-1.845865 -0.35834,-3.181419 -1.07495,-4.006666 -0.71667,-0.825193 -1.6939,-1.237804 -2.93171,-1.237831"
           id="text4201"
           style="font-size:14.29555988px;font-style:normal;font-weight:bold;fill:url(#linearGradient3346);fill-opacity:1;stroke:none;font-family:Bitstream Vera Serif"
           transform="scale(1.0087241,0.9913513)" />
        <path
           d="m 147.20287,29.691512 -0.70462,2.455212 c -0.48301,1.726052 -0.70465,3.09495 -0.70463,4.092014 -2e-5,0.811024 0.28215,1.652254 0.63151,1.995599 0.37221,0.36581 1.17279,0.566583 2.04321,0.566583 1.23592,0 2.6249,-0.526316 4.19575,-1.66828 1.46389,-1.083956 3.07674,-2.897085 4.49794,-4.93287 l -0.86422,-0.569221 c -1.30118,1.746748 -2.6347,3.302733 -3.51653,3.947175 -0.49967,0.374121 -0.87732,0.303819 -1.16993,0.333703 -0.20148,0.02058 -0.50605,-0.09892 -0.65257,-0.227424 -0.12327,-0.108123 -0.39636,-0.371621 -0.40752,-0.874569 -0.0105,-0.473078 -0.14401,-0.28019 0.76763,-3.877779 1.66228,-6.587044 6.45168,-21.720931 6.45168,-21.720931 l -4.83699,0.7354148 -1.13249,3.4098702 c -0.0986,0.201597 -0.17806,0.300273 -0.19846,0.29915 -0.057,-0.0031 -0.15953,-0.006 -0.21847,-0.214407 -0.44829,-1.552358 -1.15475,-2.604608 -1.95622,-3.219412 -0.792,-0.6226577 -1.92417,-1.0323428 -3.19657,-1.0323713 -2.13465,2.85e-5 -4.57193,0.9231693 -7.07329,2.7187803 -3.20704,2.272749 -5.79834,5.31558 -7.90307,9.129317 -2.08442,3.795174 -2.93271,7.427976 -2.93271,10.807422 0,2.232768 0.57816,3.932361 1.6655,5.162244 1.10587,1.23039 2.32765,1.794188 3.81141,1.794188 1.58375,0 3.20249,-0.47592 4.90038,-1.510892 2.36538,-1.437077 5.09363,-3.989805 7.98662,-7.701103"
           id="path4651"
           sodipodi:nodetypes="ccssscccssszscccssccccscssc"
           style="font-size:14.29555988px;font-style:normal;font-weight:bold;fill:none;stroke:url(#linearGradient3348);stroke-width:0.34855634;stroke-linecap:round;stroke-linejoin:miter;stroke-miterlimit:4;stroke-opacity:1;stroke-dasharray:none;display:inline;font-family:Bitstream Vera Serif" />
        <path
           d="m 135.125,10.6875 c -1.41955,2.8e-5 -2.92508,0.656333 -4.5,1.96875 -2.22961,1.858025 -4.22723,4.614584 -5.96875,8.25 -1.72003,3.636011 -2.5625,6.924519 -2.5625,9.875 0,1.493743 0.40114,2.674153 1.15625,3.5625 0.75149,0.862027 1.60866,1.312503 2.59375,1.3125 2.41525,4e-6 4.99319,-1.774408 7.78125,-5.28125 3.72383,-4.660261 5.59373,-9.432947 5.59375,-14.34375 -2e-5,-1.858049 -0.35253,-3.240171 -1.09375,-4.09375 -0.73555,-0.846943 -1.74152,-1.249973 -3,-1.25 z"
           id="path4618"
           inkscape:original="M 135.125 10.78125 C 133.73514 10.781277 132.25106 11.415796 130.6875 12.71875 C 128.47242 14.564663 126.4873 17.310891 124.75 20.9375 C 123.0344 24.564143 122.1875 27.849555 122.1875 30.78125 C 122.1875 32.257967 122.57413 33.412601 123.3125 34.28125 C 124.05084 35.128191 124.88822 35.562503 125.84375 35.5625 C 128.21082 35.562504 130.78279 33.808836 133.5625 30.3125 C 137.27596 25.665214 139.12498 20.917445 139.125 16.03125 C 139.12498 14.185385 138.77912 12.825247 138.0625 12 C 137.34584 11.174807 136.36281 10.781277 135.125 10.78125 z "
           inkscape:radius="0.097545974"
           sodipodi:type="inkscape:offset"
           style="font-size:14.29555988px;font-style:normal;font-weight:bold;fill:none;stroke:url(#linearGradient3350);stroke-width:0.34306729;stroke-linecap:butt;stroke-linejoin:round;stroke-miterlimit:4;stroke-opacity:1;stroke-dasharray:none;display:inline;font-family:Bitstream Vera Serif"
           transform="matrix(1.0087241,0,0,0.9913513,10,0)" />
      </g>
      <path
         d="m 70.224543,24.868118 c 2.891044,-1.051771 6.566907,-2.130438 9.457553,-1.944544 3.092104,0.19885 7.777877,1.604222 9.766913,3.358757 0.297952,0.262824 -0.287325,1.467776 -0.574524,1.193243 -2.80294,-2.679322 -6.403858,-3.199592 -9.324971,-3.402951 -2.763018,-0.192353 -7.225196,0.6594 -9.015612,1.988737 -0.235636,0.174953 -0.309359,-0.928077 -0.309359,-0.928077 0,0 -0.07476,-0.237969 0,-0.265165 z"
         id="path3299"
         sodipodi:nodetypes="cssssscs"
         style="opacity:0.7642857;fill:url(#linearGradient3352);fill-opacity:1;fill-rule:evenodd;stroke:none" />
      <path
         d="m 60.886776,99.71614 c -2.891044,1.05177 -7.193794,1.90598 -9.957553,1.41329 -3.224304,-0.57479 -5.527877,-3.41672 -6.985663,-5.140009 -0.256596,-0.303329 0.256075,-0.84277 0.543274,-0.56824 2.80294,2.679319 3.927408,4.355595 6.824971,4.777949 4.106768,0.59861 6.850196,-0.7844 9.265612,-1.676229 0.275321,-0.101655 0.309359,0.928069 0.309359,0.928069 0,0 0.07476,0.23797 0,0.26517 z"
         id="path3317"
         sodipodi:nodetypes="cssssscs"
         style="opacity:0.7642857;fill:url(#linearGradient3354);fill-opacity:1;fill-rule:evenodd;stroke:none;display:inline;enable-background:new" />
      <path
         d="m 100.70863,100.40702 c -0.10979,0.11427 -3.112267,3.09005 -5.863801,2.66329 -0.346323,-0.0534 -2.539914,-0.23674 -3.235663,-2.95251 -0.01801,-0.0703 0.949583,-0.77787 0.949524,-0.599493 -1.21e-4,0.349915 0.320426,2.473023 2.668721,2.621703 0.132497,0.008 2.553324,-0.33127 4.578109,-2.42623 0.20396,-0.211032 0.95823,0.63587 0.90311,0.69324 z"
         id="path3321"
         sodipodi:nodetypes="cssssss"
         style="opacity:0.7642857;fill:url(#linearGradient3356);fill-opacity:1;fill-rule:evenodd;stroke:none;display:inline;enable-background:new" />
      <rect
         height="0.92302579"
         id="rect3325"
         style="opacity:0.7642857;fill:url(#linearGradient3358);fill-opacity:1;stroke:none"
         transform="matrix(0.9889961,-0.1479417,0.1479417,0.9889961,0,0)"
         width="10.342755"
         x="94.991951"
         y="39.609287" />
    </g>
    <g
       id="g3360"
       style="display:inline;enable-background:new"
       transform="matrix(0.5014912,0,0,0.5014912,122.87268,-6.262362)">
      <g
         id="g3362"
         inkscape:export-filename="/home/lapo/Desktop/format-text.png"
         inkscape:export-xdpi="90"
         inkscape:export-ydpi="90"
         transform="matrix(2.8726356,0,0,2.957746,-340.46155,-3.6619525)" />
    </g>
    <g
       id="g3394"
       style="display:inline;enable-background:new"
       transform="matrix(0.3135758,0,0,0.3135758,126.94767,49.478808)">
      <g
         id="g3396"
         inkscape:export-filename="/home/lapo/Desktop/format-text.png"
         inkscape:export-xdpi="90"
         inkscape:export-ydpi="90"
         transform="matrix(2.8726356,0,0,2.957746,-340.46155,-3.6619525)" />
    </g>
    <g
       id="g3428"
       style="display:inline;enable-background:new"
       transform="matrix(0.2374238,0,0,0.2374238,128.91214,84.92786)">
      <g
         id="g3430"
         inkscape:export-filename="/home/lapo/Desktop/format-text.png"
         inkscape:export-xdpi="90"
         inkscape:export-ydpi="90"
         transform="matrix(2.8726356,0,0,2.957746,-340.46155,-3.6619525)" />
    </g>
    <g
       id="g3462"
       style="display:inline;enable-background:new"
       transform="matrix(0.150628,0,0,0.150628,131.21474,113.85913)">
      <g
         id="g3464"
         inkscape:export-filename="/home/lapo/Desktop/format-text.png"
         inkscape:export-xdpi="90"
         inkscape:export-ydpi="90"
         transform="matrix(2.8726356,0,0,2.957746,-340.46155,-3.6619525)" />
    </g>
  </g>
</svg>
