<?xml version="1.0" encoding="UTF-8" standalone="no"?>
<!-- Created with Inkscape (http://www.inkscape.org/) -->

<svg
   xmlns:dc="http://purl.org/dc/elements/1.1/"
   xmlns:cc="http://creativecommons.org/ns#"
   xmlns:rdf="http://www.w3.org/1999/02/22-rdf-syntax-ns#"
   xmlns:svg="http://www.w3.org/2000/svg"
   xmlns="http://www.w3.org/2000/svg"
   xmlns:xlink="http://www.w3.org/1999/xlink"
   xmlns:sodipodi="http://sodipodi.sourceforge.net/DTD/sodipodi-0.dtd"
   xmlns:inkscape="http://www.inkscape.org/namespaces/inkscape"
   height="128"
   id="svg11300"
   inkscape:export-filename="/home/mma/BZR-WORK/breathe-icon-set/source_svg/rendered/computer.png"
   inkscape:export-xdpi="90.000000"
   inkscape:export-ydpi="90.000000"
   inkscape:output_extension="org.inkscape.output.svg.inkscape"
   inkscape:version="0.46+devel r21673"
   sodipodi:docname="format-indent-more.svg"
   sodipodi:version="0.32"
   style="display:inline"
   version="1.0"
   width="128">
  <title
     id="title4119">Breathe Icon Theme computer</title>
  <defs
     id="defs3">
    <linearGradient
       id="linearGradient3517">
      <stop
         id="stop3519"
         offset="0"
         style="stop-color: rgb(255, 209, 15); stop-opacity: 0;" />
      <stop
         id="stop3525"
         offset="0.16235223"
         style="stop-color: rgb(255, 229, 53); stop-opacity: 0.852349;" />
      <stop
         id="stop3527"
         offset="0.27195501"
         style="stop-color: rgb(255, 251, 170); stop-opacity: 0.838926;" />
      <stop
         id="stop3529"
         offset="0.6674785"
         style="stop-color: rgb(255, 255, 255); stop-opacity: 1;" />
      <stop
         id="stop3531"
         offset="0.83509475"
         style="stop-color: rgb(255, 250, 115); stop-opacity: 0.744966;" />
      <stop
         id="stop3533"
         offset="0.91426289"
         style="stop-color: rgb(255, 251, 132); stop-opacity: 0.590604;" />
      <stop
         id="stop3521"
         offset="1"
         style="stop-color: rgb(255, 250, 91); stop-opacity: 0;" />
    </linearGradient>
    <linearGradient
       id="linearGradient3491">
      <stop
         id="stop3493"
         offset="0"
         style="stop-color: rgb(138, 97, 36); stop-opacity: 1;" />
      <stop
         id="stop3495"
         offset="1"
         style="stop-color: rgb(237, 190, 0); stop-opacity: 1;" />
    </linearGradient>
    <linearGradient
       id="linearGradient4709"
       inkscape:collect="always">
      <stop
         id="stop4711"
         offset="0"
         style="stop-color: rgb(255, 255, 255); stop-opacity: 1;" />
      <stop
         id="stop4713"
         offset="1"
         style="stop-color: rgb(255, 255, 255); stop-opacity: 0;" />
    </linearGradient>
    <linearGradient
       id="linearGradient4790">
      <stop
         id="stop4792"
         offset="0"
         style="stop-color: rgb(94, 96, 92); stop-opacity: 1;" />
      <stop
         id="stop4794"
         offset="1"
         style="stop-color: rgb(34, 35, 33); stop-opacity: 1;" />
    </linearGradient>
    <linearGradient
       id="linearGradient5852"
       inkscape:collect="always">
      <stop
         id="stop5854"
         offset="0"
         style="stop-color: rgb(252, 175, 62); stop-opacity: 1;" />
      <stop
         id="stop5856"
         offset="1"
         style="stop-color: rgb(245, 121, 0); stop-opacity: 1;" />
    </linearGradient>
    <radialGradient
       cx="10.125"
       cy="5.710938"
       fx="10.125"
       fy="5.710938"
       gradientTransform="matrix(4.09273,0,0,3.67819,-11.1378,6.31852)"
       gradientUnits="userSpaceOnUse"
       id="radialGradient2691"
       inkscape:collect="always"
       r="21"
       xlink:href="#linearGradient4790" />
    <linearGradient
       gradientTransform="matrix(1.04443,0,0,0.979301,-4.16537,0.401746)"
       gradientUnits="userSpaceOnUse"
       id="linearGradient3469"
       inkscape:collect="always"
       x1="93.745811"
       x2="93.745804"
       xlink:href="#linearGradient4709"
       y1="12.388708"
       y2="16.492558" />
    <linearGradient
       gradientTransform="matrix(0.97818,0,0,0.973063,2.36061,1.54008)"
       gradientUnits="userSpaceOnUse"
       id="linearGradient3489"
       inkscape:collect="always"
       x1="92.042603"
       x2="124.33208"
       xlink:href="#linearGradient3491"
       y1="57.174061"
       y2="57.174061" />
    <linearGradient
       gradientUnits="userSpaceOnUse"
       id="linearGradient3513"
       inkscape:collect="always"
       x1="116.58848"
       x2="116.91924"
       xlink:href="#linearGradient5852"
       y1="40.152145"
       y2="76.017532" />
    <linearGradient
       gradientTransform="matrix(0.884615,0,0,1,14.1965,0)"
       gradientUnits="userSpaceOnUse"
       id="linearGradient3523"
       inkscape:collect="always"
       x1="124.98112"
       x2="124.61604"
       xlink:href="#linearGradient3517"
       y1="69.901978"
       y2="49.616856" />
    <linearGradient
       gradientTransform="translate(1.11738,-0.839689)"
       gradientUnits="userSpaceOnUse"
       id="linearGradient3571"
       inkscape:collect="always"
       x1="121.65269"
       x2="121.23848"
       xlink:href="#linearGradient4709"
       y1="8.2953033"
       y2="17.57608" />
    <radialGradient
       cx="10.125"
       cy="5.710938"
       fx="10.125"
       fy="5.710938"
       gradientTransform="matrix(4.09273,0,0,3.67819,-11.1378,6.31852)"
       gradientUnits="userSpaceOnUse"
       id="radialGradient3610"
       inkscape:collect="always"
       r="21"
       xlink:href="#linearGradient4790" />
    <linearGradient
       gradientTransform="matrix(1.04443,0,0,0.979301,-4.16537,0.401746)"
       gradientUnits="userSpaceOnUse"
       id="linearGradient3612"
       inkscape:collect="always"
       x1="93.745811"
       x2="93.745804"
       xlink:href="#linearGradient4709"
       y1="12.388708"
       y2="16.492558" />
    <linearGradient
       gradientTransform="translate(1.11738,-0.839689)"
       gradientUnits="userSpaceOnUse"
       id="linearGradient3614"
       inkscape:collect="always"
       x1="121.65269"
       x2="121.23848"
       xlink:href="#linearGradient4709"
       y1="8.2953033"
       y2="17.57608" />
    <radialGradient
       cx="10.125"
       cy="5.710938"
       fx="10.125"
       fy="5.710938"
       gradientTransform="matrix(4.09273,0,0,3.67819,-11.1378,6.31852)"
       gradientUnits="userSpaceOnUse"
       id="radialGradient3628"
       inkscape:collect="always"
       r="21"
       xlink:href="#linearGradient4790" />
    <linearGradient
       gradientTransform="matrix(1.04443,0,0,0.979301,-4.16537,0.401746)"
       gradientUnits="userSpaceOnUse"
       id="linearGradient3630"
       inkscape:collect="always"
       x1="93.745811"
       x2="93.745804"
       xlink:href="#linearGradient4709"
       y1="12.388708"
       y2="16.492558" />
    <linearGradient
       gradientTransform="translate(1.11738,-0.839689)"
       gradientUnits="userSpaceOnUse"
       id="linearGradient3632"
       inkscape:collect="always"
       x1="121.65269"
       x2="121.23848"
       xlink:href="#linearGradient4709"
       y1="8.2953033"
       y2="17.57608" />
    <radialGradient
       cx="10.125"
       cy="5.710938"
       fx="10.125"
       fy="5.710938"
       gradientTransform="matrix(4.09273,0,0,3.67819,-11.1378,6.31852)"
       gradientUnits="userSpaceOnUse"
       id="radialGradient3646"
       inkscape:collect="always"
       r="21"
       xlink:href="#linearGradient4790" />
    <linearGradient
       gradientTransform="matrix(1.04443,0,0,0.979301,-4.16537,0.401746)"
       gradientUnits="userSpaceOnUse"
       id="linearGradient3648"
       inkscape:collect="always"
       x1="93.745811"
       x2="93.745804"
       xlink:href="#linearGradient4709"
       y1="12.388708"
       y2="16.492558" />
    <linearGradient
       gradientTransform="translate(1.11738,-0.839689)"
       gradientUnits="userSpaceOnUse"
       id="linearGradient3650"
       inkscape:collect="always"
       x1="121.65269"
       x2="121.23848"
       xlink:href="#linearGradient4709"
       y1="8.2953033"
       y2="17.57608" />
    <radialGradient
       cx="10.125"
       cy="5.710938"
       fx="10.125"
       fy="5.710938"
       gradientTransform="matrix(4.09273,0,0,3.67819,-11.1378,6.31852)"
       gradientUnits="userSpaceOnUse"
       id="radialGradient3664"
       inkscape:collect="always"
       r="21"
       xlink:href="#linearGradient4790" />
    <linearGradient
       gradientTransform="matrix(1.04443,0,0,0.979301,-4.16537,0.401746)"
       gradientUnits="userSpaceOnUse"
       id="linearGradient3666"
       inkscape:collect="always"
       x1="93.745811"
       x2="93.745804"
       xlink:href="#linearGradient4709"
       y1="12.388708"
       y2="16.492558" />
    <linearGradient
       gradientTransform="translate(1.11738,-0.839689)"
       gradientUnits="userSpaceOnUse"
       id="linearGradient3668"
       inkscape:collect="always"
       x1="121.65269"
       x2="121.23848"
       xlink:href="#linearGradient4709"
       y1="8.2953033"
       y2="17.57608" />
    <radialGradient
       cx="10.125"
       cy="5.710938"
       fx="10.125"
       fy="5.710938"
       gradientTransform="matrix(4.09273,0,0,3.67819,-11.1378,6.31852)"
       gradientUnits="userSpaceOnUse"
       id="radialGradient3682"
       inkscape:collect="always"
       r="21"
       xlink:href="#linearGradient4790" />
    <linearGradient
       gradientTransform="matrix(1.04443,0,0,0.979301,-4.16537,0.401746)"
       gradientUnits="userSpaceOnUse"
       id="linearGradient3684"
       inkscape:collect="always"
       x1="93.745811"
       x2="93.745804"
       xlink:href="#linearGradient4709"
       y1="12.388708"
       y2="16.492558" />
    <linearGradient
       gradientTransform="translate(1.11738,-0.839689)"
       gradientUnits="userSpaceOnUse"
       id="linearGradient3686"
       inkscape:collect="always"
       x1="121.65269"
       x2="121.23848"
       xlink:href="#linearGradient4709"
       y1="8.2953033"
       y2="17.57608" />
  </defs>
  <sodipodi:namedview
     bordercolor="#666666"
     borderopacity="0.25490196"
     fill="#f57900"
     gridtolerance="12"
     guidetolerance="13"
     height="300px"
     id="base"
     inkscape:current-layer="layer6"
     inkscape:cx="113.70955"
     inkscape:cy="56.544402"
     inkscape:document-units="px"
     inkscape:grid-bbox="true"
     inkscape:guide-bbox="true"
     inkscape:pageopacity="0.0"
     inkscape:pageshadow="2"
     inkscape:showpageshadow="false"
     inkscape:snap-bbox="true"
     inkscape:snap-nodes="false"
     inkscape:window-height="975"
     inkscape:window-maximized="0"
     inkscape:window-width="1680"
     inkscape:window-x="0"
     inkscape:window-y="25"
     inkscape:zoom="4"
     objecttolerance="7"
     pagecolor="#ffffff"
     showgrid="false"
     showguides="true"
     stroke="#ef2929"
     width="400px">
    <inkscape:grid
       empspacing="5"
       enabled="true"
       id="grid5883"
       spacingx="1px"
       spacingy="1px"
       type="xygrid"
       visible="true" />
  </sodipodi:namedview>
  <metadata
     id="metadata4">
    <rdf:RDF>
      <cc:Work
         rdf:about="">
        <dc:format>image/svg+xml</dc:format>
        <dc:type
           rdf:resource="http://purl.org/dc/dcmitype/StillImage" />
        <dc:creator>
          <cc:Agent>
            <dc:title>Breathe Icon Team</dc:title>
          </cc:Agent>
        </dc:creator>
        <dc:source />
        <cc:license
           rdf:resource="http://creativecommons.org/licenses/by-sa/3.0/" />
        <dc:title>Breathe Icon Theme icon</dc:title>
        <dc:subject>
          <rdf:Bag />
        </dc:subject>
        <dc:date />
        <dc:rights>
          <cc:Agent>
            <dc:title />
          </cc:Agent>
        </dc:rights>
        <dc:publisher>
          <cc:Agent>
            <dc:title />
          </cc:Agent>
        </dc:publisher>
        <dc:identifier />
        <dc:relation />
        <dc:language />
        <dc:coverage />
        <dc:description />
        <dc:contributor>
          <cc:Agent>
            <dc:title>Jakub Steiner, Cory Kontros, Oxygen and Breathe icon teams</dc:title>
          </cc:Agent>
        </dc:contributor>
      </cc:Work>
      <cc:License
         rdf:about="http://creativecommons.org/licenses/by-sa/3.0/">
        <cc:permits
           rdf:resource="http://creativecommons.org/ns#Reproduction" />
        <cc:permits
           rdf:resource="http://creativecommons.org/ns#Distribution" />
        <cc:requires
           rdf:resource="http://creativecommons.org/ns#Notice" />
        <cc:requires
           rdf:resource="http://creativecommons.org/ns#Attribution" />
        <cc:prohibits
           rdf:resource="http://creativecommons.org/ns#CommercialUse" />
        <cc:permits
           rdf:resource="http://creativecommons.org/ns#DerivativeWorks" />
        <cc:requires
           rdf:resource="http://creativecommons.org/ns#ShareAlike" />
      </cc:License>
    </rdf:RDF>
  </metadata>
  <g
     id="layer1"
     inkscape:groupmode="layer"
     inkscape:label="actions/format-indent-more"
     style="display:inline"
     transform="translate(-3,-4)">
    <rect
       height="256"
       id="256x256"
       inkscape:label="256x256"
       style="fill:#eeeeec;fill-opacity:1;fill-rule:nonzero;stroke:none;stroke-width:5;marker:none;visibility:visible;display:none;overflow:visible"
       width="256"
       x="26.5"
       y="32.823101" />
    <rect
       height="48"
       id="48x48"
       inkscape:label="48x48"
       style="fill:#eeeeec;fill-opacity:1;fill-rule:nonzero;stroke:none;stroke-width:5;marker:none;visibility:visible;display:none;overflow:visible"
       width="48"
       x="-35.5"
       y="32.823101" />
    <text
       id="text6091"
       sodipodi:linespacing="125%"
       style="font-size:56.11529922px;font-style:normal;font-variant:normal;font-weight:bold;font-stretch:normal;text-indent:0pt;text-align:start;text-decoration:none;line-height:125%;letter-spacing:normal;word-spacing:normal;text-transform:none;direction:ltr;text-anchor:start;fill:#2e3436;fill-opacity:1;fill-rule:nonzero;stroke:none;stroke-width:5;marker:none;visibility:visible;display:none;overflow:visible;font-family:Myriad"
       x="-418.41199"
       xml:space="preserve"
       y="34.084801"><tspan
         id="tspan6093"
         sodipodi:role="line"
         x="-418.41199"
         y="34.084801">audio-x-generic</tspan></text>
    <g
       id="layer6"
       inkscape:groupmode="layer"
       inkscape:label="plate"
       sodipodi:insensitive="true"
       style="display:none" />
    <g
       id="Livello_1"
       transform="translate(387.114,42.495)" />
    <g
       id="g3290"
       transform="translate(443.114,59.8843)" />
    <g
       id="g7148"
       transform="matrix(0.195657,0,0,0.195657,345.265,19.4029)" />
    <g
       id="g7555"
       transform="matrix(0.133333,0,0,0.133333,319.904,105.991)" />
    <g
       id="g9283"
       transform="matrix(1.06667,0,0,1.06667,384.447,40.4706)" />
    <g
       id="g3688"
       transform="matrix(-1,0,0,1,134.927,0)">
      <path
         d="m 123.4367,40.652146 -1.50057,0.586451 c 0,0 -23.56345,12.289919 -28.31364,14.547903 l -1.81307,0.773952 5.7e-4,0.711451 2.31307,1.148952 27.75057,14.523951 1.87557,0.961452 0.625,-0.422903 -0.0625,-30.860403 -0.125,-1.297903 -0.75,-0.672903 0,0 z"
         id="rect5837"
         sodipodi:nodetypes="cccccccccccc"
         style="fill:url(#linearGradient3513);fill-opacity:1;fill-rule:nonzero;stroke:#c86500;stroke-width:1;stroke-linecap:round;stroke-linejoin:miter;stroke-miterlimit:4;stroke-opacity:1;stroke-dasharray:none;stroke-dashoffset:0;marker:none;visibility:visible;display:inline;overflow:visible" />
      <path
         d="m 122.36674,41.821729 0.51876,-0.172015 0.60522,0.430038 0,30.274624 -0.34585,0.34403 L 92.883963,56.873034 122.36674,41.821729 z"
         id="path3481"
         style="fill:none;stroke:url(#linearGradient3489);stroke-width:0.975618px;stroke-linecap:butt;stroke-linejoin:miter;stroke-opacity:1" />
      <rect
         height="20.594484"
         id="rect3515"
         rx="3.3277397"
         ry="0"
         style="opacity:0.47703199;fill:url(#linearGradient3523);fill-opacity:1;stroke:none"
         width="1.016466"
         x="123.03658"
         y="48.821362" />
      <g
         id="g3573">
        <rect
           height="8.8477125"
           id="rect5736"
           rx="3.7617927"
           ry="3.6865468"
           style="fill:url(#radialGradient2691);fill-opacity:1;fill-rule:nonzero;stroke:#2e3436;stroke-width:0.5;stroke-linecap:round;stroke-linejoin:miter;stroke-miterlimit:4;stroke-opacity:1;stroke-dasharray:none;stroke-dashoffset:0;marker:none;visibility:visible;display:inline;overflow:visible"
           width="60.006844"
           x="63.742355"
           y="11.472268" />
        <path
           d="m 65.992876,15.999903 c 0,-0.807302 -0.38464,-1.501417 0.345287,-1.501417 l 54.815297,0 c 0.72992,0 0.56625,0.738309 0.56625,1.545611"
           id="path5746"
           sodipodi:nodetypes="cccs"
           style="opacity:0.55;fill:none;stroke:url(#linearGradient3469);stroke-width:2.74629998;stroke-linecap:round;stroke-linejoin:miter;stroke-miterlimit:4;stroke-opacity:1;stroke-dashoffset:0;marker:none;visibility:visible;display:inline;overflow:visible" />
        <g
           id="g3555"
           transform="translate(-1.01647,0.574524)">
          <g
             id="g3560">
            <path
               d="m 65.537331,15.136255 c 0.04237,0.597954 0.227552,1.407788 0.525873,1.927739 0.280374,0.48867 0.820897,1.069766 1.31468,1.341035 0.424074,0.232973 1.577617,0.335259 1.577617,0.335259 l 52.937809,-0.08382 c 0,0 1.18608,-0.40518 1.57762,-0.754333 0.22154,-0.197561 0.39733,-0.570585 0.52587,-0.838146 0.20756,-0.432034 0.26767,-1.030807 0.3049,-1.508666 0.0457,-0.586032 0.0991,-1.474639 -0.12961,-2.016127 -0.26434,-0.625849 -0.7945,-1.318535 -1.31469,-1.755535 -0.26778,-0.224962 -1.05175,-0.502889 -1.05175,-0.502889 l -53.288376,-0.08382 c 0,0 -0.982002,0.110858 -1.272715,0.286491 -0.562763,0.339993 -1.138255,0.989073 -1.444292,1.557433 -0.306037,0.56836 -0.307716,1.463414 -0.262936,2.09537 l 0,9e-6 z"
               id="path3551"
               sodipodi:nodetypes="cssccsssssccszs"
               style="opacity:0.858657;fill:none;stroke:url(#linearGradient3571);stroke-width:0.5;stroke-linecap:butt;stroke-linejoin:miter;stroke-miterlimit:4;stroke-opacity:1;stroke-dasharray:none;display:inline" />
          </g>
        </g>
      </g>
      <g
         id="g3598"
         style="display:inline"
         transform="matrix(1.4062,0,0,1.06558,-79.3251,18.0782)">
        <rect
           height="8.8477125"
           id="rect3600"
           rx="3.7617927"
           ry="3.6865468"
           style="fill:url(#radialGradient3610);fill-opacity:1;fill-rule:nonzero;stroke:#2e3436;stroke-width:0.5;stroke-linecap:round;stroke-linejoin:miter;stroke-miterlimit:4;stroke-opacity:1;stroke-dasharray:none;stroke-dashoffset:0;marker:none;visibility:visible;display:inline;overflow:visible"
           width="60.006844"
           x="63.742355"
           y="11.472268" />
        <path
           d="m 65.992876,15.999903 c 0,-0.807302 -0.38464,-1.501417 0.345287,-1.501417 l 54.815297,0 c 0.72992,0 0.56625,0.738309 0.56625,1.545611"
           id="path3602"
           sodipodi:nodetypes="cccs"
           style="opacity:0.55;fill:none;stroke:url(#linearGradient3612);stroke-width:2.74629998;stroke-linecap:round;stroke-linejoin:miter;stroke-miterlimit:4;stroke-opacity:1;stroke-dashoffset:0;marker:none;visibility:visible;display:inline;overflow:visible" />
        <g
           id="g3604"
           transform="translate(-1.01647,0.574524)">
          <g
             id="g3606">
            <path
               d="m 65.537331,15.136255 c 0.04237,0.597954 0.227552,1.407788 0.525873,1.927739 0.280374,0.48867 0.820897,1.069766 1.31468,1.341035 0.424074,0.232973 1.577617,0.335259 1.577617,0.335259 l 52.937809,-0.08382 c 0,0 1.18608,-0.40518 1.57762,-0.754333 0.22154,-0.197561 0.39733,-0.570585 0.52587,-0.838146 0.20756,-0.432034 0.26767,-1.030807 0.3049,-1.508666 0.0457,-0.586032 0.0991,-1.474639 -0.12961,-2.016127 -0.26434,-0.625849 -0.7945,-1.318535 -1.31469,-1.755535 -0.26778,-0.224962 -1.05175,-0.502889 -1.05175,-0.502889 l -53.288376,-0.08382 c 0,0 -0.982002,0.110858 -1.272715,0.286491 -0.562763,0.339993 -1.138255,0.989073 -1.444292,1.557433 -0.306037,0.56836 -0.307716,1.463414 -0.262936,2.09537 l 0,9e-6 z"
               id="path3608"
               sodipodi:nodetypes="cssccsssssccszs"
               style="opacity:0.858657;fill:none;stroke:url(#linearGradient3614);stroke-width:0.5;stroke-linecap:butt;stroke-linejoin:miter;stroke-miterlimit:4;stroke-opacity:1;stroke-dasharray:none;display:inline" />
          </g>
        </g>
      </g>
      <g
         id="g3616"
         style="display:inline"
         transform="matrix(1.07541,0,0,1.06558,-58.3151,38.0814)">
        <rect
           height="8.8477125"
           id="rect3618"
           rx="3.7617927"
           ry="3.6865468"
           style="fill:url(#radialGradient3628);fill-opacity:1;fill-rule:nonzero;stroke:#2e3436;stroke-width:0.5;stroke-linecap:round;stroke-linejoin:miter;stroke-miterlimit:4;stroke-opacity:1;stroke-dasharray:none;stroke-dashoffset:0;marker:none;visibility:visible;display:inline;overflow:visible"
           width="60.006844"
           x="63.742355"
           y="11.472268" />
        <path
           d="m 65.992876,15.999903 c 0,-0.807302 -0.38464,-1.501417 0.345287,-1.501417 l 54.815297,0 c 0.72992,0 0.56625,0.738309 0.56625,1.545611"
           id="path3620"
           sodipodi:nodetypes="cccs"
           style="opacity:0.55;fill:none;stroke:url(#linearGradient3630);stroke-width:2.74629998;stroke-linecap:round;stroke-linejoin:miter;stroke-miterlimit:4;stroke-opacity:1;stroke-dashoffset:0;marker:none;visibility:visible;display:inline;overflow:visible" />
        <g
           id="g3622"
           transform="translate(-1.01647,0.574524)">
          <g
             id="g3624">
            <path
               d="m 65.537331,15.136255 c 0.04237,0.597954 0.227552,1.407788 0.525873,1.927739 0.280374,0.48867 0.820897,1.069766 1.31468,1.341035 0.424074,0.232973 1.577617,0.335259 1.577617,0.335259 l 52.937809,-0.08382 c 0,0 1.18608,-0.40518 1.57762,-0.754333 0.22154,-0.197561 0.39733,-0.570585 0.52587,-0.838146 0.20756,-0.432034 0.26767,-1.030807 0.3049,-1.508666 0.0457,-0.586032 0.0991,-1.474639 -0.12961,-2.016127 -0.26434,-0.625849 -0.7945,-1.318535 -1.31469,-1.755535 -0.26778,-0.224962 -1.05175,-0.502889 -1.05175,-0.502889 l -53.288376,-0.08382 c 0,0 -0.982002,0.110858 -1.272715,0.286491 -0.562763,0.339993 -1.138255,0.989073 -1.444292,1.557433 -0.306037,0.56836 -0.307716,1.463414 -0.262936,2.09537 l 0,9e-6 z"
               id="path3626"
               sodipodi:nodetypes="cssccsssssccszs"
               style="opacity:0.858657;fill:none;stroke:url(#linearGradient3632);stroke-width:0.5;stroke-linecap:butt;stroke-linejoin:miter;stroke-miterlimit:4;stroke-opacity:1;stroke-dasharray:none;display:inline" />
          </g>
        </g>
      </g>
      <g
         id="g3634"
         style="display:inline"
         transform="matrix(1.40485,0,0,1.06558,-79.199,58.0798)">
        <rect
           height="8.8477125"
           id="rect3636"
           rx="3.7617927"
           ry="3.6865468"
           style="fill:url(#radialGradient3646);fill-opacity:1;fill-rule:nonzero;stroke:#2e3436;stroke-width:0.5;stroke-linecap:round;stroke-linejoin:miter;stroke-miterlimit:4;stroke-opacity:1;stroke-dasharray:none;stroke-dashoffset:0;marker:none;visibility:visible;display:inline;overflow:visible"
           width="60.006844"
           x="63.742355"
           y="11.472268" />
        <path
           d="m 65.992876,15.999903 c 0,-0.807302 -0.38464,-1.501417 0.345287,-1.501417 l 54.815297,0 c 0.72992,0 0.56625,0.738309 0.56625,1.545611"
           id="path3638"
           sodipodi:nodetypes="cccs"
           style="opacity:0.55;fill:none;stroke:url(#linearGradient3648);stroke-width:2.74629998;stroke-linecap:round;stroke-linejoin:miter;stroke-miterlimit:4;stroke-opacity:1;stroke-dashoffset:0;marker:none;visibility:visible;display:inline;overflow:visible" />
        <g
           id="g3640"
           transform="translate(-1.01647,0.574524)">
          <g
             id="g3642">
            <path
               d="m 65.537331,15.136255 c 0.04237,0.597954 0.227552,1.407788 0.525873,1.927739 0.280374,0.48867 0.820897,1.069766 1.31468,1.341035 0.424074,0.232973 1.577617,0.335259 1.577617,0.335259 l 52.937809,-0.08382 c 0,0 1.18608,-0.40518 1.57762,-0.754333 0.22154,-0.197561 0.39733,-0.570585 0.52587,-0.838146 0.20756,-0.432034 0.26767,-1.030807 0.3049,-1.508666 0.0457,-0.586032 0.0991,-1.474639 -0.12961,-2.016127 -0.26434,-0.625849 -0.7945,-1.318535 -1.31469,-1.755535 -0.26778,-0.224962 -1.05175,-0.502889 -1.05175,-0.502889 l -53.288376,-0.08382 c 0,0 -0.982002,0.110858 -1.272715,0.286491 -0.562763,0.339993 -1.138255,0.989073 -1.444292,1.557433 -0.306037,0.56836 -0.307716,1.463414 -0.262936,2.09537 l 0,9e-6 z"
               id="path3644"
               sodipodi:nodetypes="cssccsssssccszs"
               style="opacity:0.858657;fill:none;stroke:url(#linearGradient3650);stroke-width:0.5;stroke-linecap:butt;stroke-linejoin:miter;stroke-miterlimit:4;stroke-opacity:1;stroke-dasharray:none;display:inline" />
          </g>
        </g>
      </g>
      <g
         id="g3652"
         style="display:inline"
         transform="matrix(0.744512,0,0,1.06558,12.6446,78.1247)">
        <rect
           height="8.8477125"
           id="rect3654"
           rx="3.7617927"
           ry="3.6865468"
           style="fill:url(#radialGradient3664);fill-opacity:1;fill-rule:nonzero;stroke:#2e3436;stroke-width:0.5;stroke-linecap:round;stroke-linejoin:miter;stroke-miterlimit:4;stroke-opacity:1;stroke-dasharray:none;stroke-dashoffset:0;marker:none;visibility:visible;display:inline;overflow:visible"
           width="60.006844"
           x="63.742355"
           y="11.472268" />
        <path
           d="m 65.992876,15.999903 c 0,-0.807302 -0.38464,-1.501417 0.345287,-1.501417 l 54.815297,0 c 0.72992,0 0.56625,0.738309 0.56625,1.545611"
           id="path3656"
           sodipodi:nodetypes="cccs"
           style="opacity:0.55;fill:none;stroke:url(#linearGradient3666);stroke-width:2.74629998;stroke-linecap:round;stroke-linejoin:miter;stroke-miterlimit:4;stroke-opacity:1;stroke-dashoffset:0;marker:none;visibility:visible;display:inline;overflow:visible" />
        <g
           id="g3658"
           transform="translate(-1.01647,0.574524)">
          <g
             id="g3660">
            <path
               d="m 65.537331,15.136255 c 0.04237,0.597954 0.227552,1.407788 0.525873,1.927739 0.280374,0.48867 0.820897,1.069766 1.31468,1.341035 0.424074,0.232973 1.577617,0.335259 1.577617,0.335259 l 52.937809,-0.08382 c 0,0 1.18608,-0.40518 1.57762,-0.754333 0.22154,-0.197561 0.39733,-0.570585 0.52587,-0.838146 0.20756,-0.432034 0.26767,-1.030807 0.3049,-1.508666 0.0457,-0.586032 0.0991,-1.474639 -0.12961,-2.016127 -0.26434,-0.625849 -0.7945,-1.318535 -1.31469,-1.755535 -0.26778,-0.224962 -1.05175,-0.502889 -1.05175,-0.502889 l -53.288376,-0.08382 c 0,0 -0.982002,0.110858 -1.272715,0.286491 -0.562763,0.339993 -1.138255,0.989073 -1.444292,1.557433 -0.306037,0.56836 -0.307716,1.463414 -0.262936,2.09537 l 0,9e-6 z"
               id="path3662"
               sodipodi:nodetypes="cssccsssssccszs"
               style="opacity:0.858657;fill:none;stroke:url(#linearGradient3668);stroke-width:0.5;stroke-linecap:butt;stroke-linejoin:miter;stroke-miterlimit:4;stroke-opacity:1;stroke-dasharray:none;display:inline" />
          </g>
        </g>
      </g>
      <g
         id="g3670"
         style="display:inline"
         transform="matrix(0.992016,0,0,1.06558,1.94212,98.1247)">
        <rect
           height="8.8477125"
           id="rect3672"
           rx="3.7617927"
           ry="3.6865468"
           style="fill:url(#radialGradient3682);fill-opacity:1;fill-rule:nonzero;stroke:#2e3436;stroke-width:0.5;stroke-linecap:round;stroke-linejoin:miter;stroke-miterlimit:4;stroke-opacity:1;stroke-dasharray:none;stroke-dashoffset:0;marker:none;visibility:visible;display:inline;overflow:visible"
           width="60.006844"
           x="63.742355"
           y="11.472268" />
        <path
           d="m 65.992876,15.999903 c 0,-0.807302 -0.38464,-1.501417 0.345287,-1.501417 l 54.815297,0 c 0.72992,0 0.56625,0.738309 0.56625,1.545611"
           id="path3674"
           sodipodi:nodetypes="cccs"
           style="opacity:0.55;fill:none;stroke:url(#linearGradient3684);stroke-width:2.74629998;stroke-linecap:round;stroke-linejoin:miter;stroke-miterlimit:4;stroke-opacity:1;stroke-dashoffset:0;marker:none;visibility:visible;display:inline;overflow:visible" />
        <g
           id="g3676"
           transform="translate(-1.01647,0.574524)">
          <g
             id="g3678">
            <path
               d="m 65.537331,15.136255 c 0.04237,0.597954 0.227552,1.407788 0.525873,1.927739 0.280374,0.48867 0.820897,1.069766 1.31468,1.341035 0.424074,0.232973 1.577617,0.335259 1.577617,0.335259 l 52.937809,-0.08382 c 0,0 1.18608,-0.40518 1.57762,-0.754333 0.22154,-0.197561 0.39733,-0.570585 0.52587,-0.838146 0.20756,-0.432034 0.26767,-1.030807 0.3049,-1.508666 0.0457,-0.586032 0.0991,-1.474639 -0.12961,-2.016127 -0.26434,-0.625849 -0.7945,-1.318535 -1.31469,-1.755535 -0.26778,-0.224962 -1.05175,-0.502889 -1.05175,-0.502889 l -53.288376,-0.08382 c 0,0 -0.982002,0.110858 -1.272715,0.286491 -0.562763,0.339993 -1.138255,0.989073 -1.444292,1.557433 -0.306037,0.56836 -0.307716,1.463414 -0.262936,2.09537 l 0,9e-6 z"
               id="path3680"
               sodipodi:nodetypes="cssccsssssccszs"
               style="opacity:0.858657;fill:none;stroke:url(#linearGradient3686);stroke-width:0.5;stroke-linecap:butt;stroke-linejoin:miter;stroke-miterlimit:4;stroke-opacity:1;stroke-dasharray:none;display:inline" />
          </g>
        </g>
      </g>
    </g>
    <g
       id="g4257"
       transform="matrix(-1,0,0,1,315.092,0)">
      <g
         id="g3737"
         transform="matrix(0.407933,0,0,0.391325,129.258,0.760614)">
        <g
           id="g3743"
           transform="translate(-1.01647,0.574524)">
          <g
             id="g3745" />
        </g>
      </g>
      <g
         id="g4185"
         style="display:inline"
         transform="matrix(0.571106,0,0,0.391325,98.9612,10.7606)">
        <g
           id="g4191"
           transform="translate(-1.01647,0.574524)">
          <g
             id="g4193" />
        </g>
      </g>
      <g
         id="g4203"
         style="display:inline"
         transform="matrix(0.407345,0,0,0.391325,109.376,20.8126)">
        <g
           id="g4209"
           transform="translate(-1.01647,0.574524)">
          <g
             id="g4211" />
        </g>
      </g>
      <g
         id="g4221"
         style="display:inline"
         transform="matrix(0.570586,0,0,0.391325,99.0332,30.7657)">
        <g
           id="g4227"
           transform="translate(-1.01647,0.574524)">
          <g
             id="g4229" />
        </g>
      </g>
      <g
         id="g4239"
         style="display:inline"
         transform="matrix(0.407933,0,0,0.391325,129.258,40.7606)">
        <g
           id="g4245"
           transform="translate(-1.01647,0.574524)">
          <g
             id="g4247" />
        </g>
      </g>
    </g>
    <g
       id="g4362"
       transform="matrix(-1,0,0,1,299.505,0)">
      <g
         id="g3957"
         transform="matrix(0.30795,0,0,0.267121,125.678,54.3098)">
        <g
           id="g3963"
           transform="translate(-1.01647,0.574524)">
          <g
             id="g3965" />
        </g>
      </g>
      <g
         id="g4306"
         style="display:inline"
         transform="matrix(0.356627,0,0,0.267121,112.578,60.3221)">
        <g
           id="g4310"
           transform="translate(-1.01647,0.574524)">
          <g
             id="g4312" />
        </g>
      </g>
      <g
         id="g4320"
         style="display:inline"
         transform="matrix(0.242835,0,0,0.267121,119.766,67.2046)">
        <g
           id="g4324"
           transform="translate(-1.01647,0.574524)">
          <g
             id="g4326" />
        </g>
      </g>
      <g
         id="g4334"
         style="display:inline"
         transform="matrix(0.356627,0,0,0.267121,112.537,73.3031)">
        <g
           id="g4338"
           transform="translate(-1.01647,0.574524)">
          <g
             id="g4340" />
        </g>
      </g>
      <g
         id="g4348"
         style="display:inline"
         transform="matrix(0.30795,0,0,0.267121,125.621,79.1855)">
        <g
           id="g4352"
           transform="translate(-1.01647,0.574524)">
          <g
             id="g4354" />
        </g>
      </g>
    </g>
    <g
       id="g4576"
       transform="matrix(-1,0,0,1,290.146,0)">
      <g
         id="g4440"
         style="display:inline"
         transform="matrix(0.224399,0,0,0.176585,126.962,106.247)">
        <g
           id="g4444"
           transform="translate(-1.01647,0.574524)">
          <g
             id="g4446" />
        </g>
      </g>
      <g
         id="g4516"
         style="display:inline"
         transform="matrix(0.224351,0,0,0.176585,120.968,102.162)">
        <g
           id="g4520"
           transform="translate(-1.01647,0.574524)">
          <g
             id="g4522" />
        </g>
      </g>
      <g
         id="g4534"
         style="display:inline"
         transform="matrix(0.160164,0,0,0.176585,124.995,98.1526)">
        <g
           id="g4538"
           transform="translate(-1.01647,0.574524)">
          <g
             id="g4540" />
        </g>
      </g>
      <g
         id="g4548"
         style="display:inline"
         transform="matrix(0.223138,0,0,0.176585,121.082,94.1928)">
        <g
           id="g4552"
           transform="translate(-1.01647,0.574524)">
          <g
             id="g4554" />
        </g>
      </g>
      <g
         id="g4562"
         style="display:inline"
         transform="matrix(0.224399,0,0,0.176585,126.956,90.2334)">
        <g
           id="g4566"
           transform="translate(-1.01647,0.574524)">
          <g
             id="g4568" />
        </g>
      </g>
    </g>
    <g
       id="g4778"
       transform="matrix(-1,0,0,1,284.1,0)">
      <g
         id="g4654"
         style="display:inline"
         transform="matrix(0.158176,0,0,0.161169,129.172,114.439)">
        <g
           id="g4658"
           transform="translate(-1.01647,0.574524)">
          <g
             id="g4660" />
        </g>
      </g>
      <g
         id="g4720"
         style="display:inline"
         transform="matrix(0.158176,0,0,0.161385,125.172,118.435)">
        <g
           id="g4724"
           transform="translate(-1.01647,0.574524)">
          <g
             id="g4726" />
        </g>
      </g>
      <g
         id="g4736"
         style="display:inline"
         transform="matrix(0.110816,0,0,0.17125,128.111,121.298)">
        <g
           id="g4740"
           transform="translate(-1.01647,0.574524)">
          <g
             id="g4742" />
        </g>
      </g>
      <g
         id="g4750"
         style="display:inline"
         transform="matrix(0.156781,0,0,0.170936,125.302,124.263)">
        <g
           id="g4754"
           transform="translate(-1.01647,0.574524)">
          <g
             id="g4756" />
        </g>
      </g>
      <g
         id="g4764"
         style="display:inline"
         transform="matrix(0.156781,0,0,0.170936,129.263,128.27)">
        <g
           id="g4768"
           transform="translate(-1.01647,0.574524)">
          <g
             id="g4770" />
        </g>
      </g>
    </g>
  </g>
</svg>
