<?xml version="1.0" encoding="UTF-8" standalone="no"?>
<!-- Created with Inkscape (http://www.inkscape.org/) -->

<svg
   xmlns:dc="http://purl.org/dc/elements/1.1/"
   xmlns:cc="http://creativecommons.org/ns#"
   xmlns:rdf="http://www.w3.org/1999/02/22-rdf-syntax-ns#"
   xmlns:svg="http://www.w3.org/2000/svg"
   xmlns="http://www.w3.org/2000/svg"
   xmlns:xlink="http://www.w3.org/1999/xlink"
   xmlns:sodipodi="http://sodipodi.sourceforge.net/DTD/sodipodi-0.dtd"
   xmlns:inkscape="http://www.inkscape.org/namespaces/inkscape"
   height="128"
   id="svg11300"
   inkscape:export-filename="/home/mma/BZR-WORK/breathe-icon-set/source_svg/rendered/computer.png"
   inkscape:export-xdpi="90.000000"
   inkscape:export-ydpi="90.000000"
   inkscape:output_extension="org.inkscape.output.svg.inkscape"
   inkscape:version="0.46+devel r21673"
   sodipodi:docname="format-justify-left.svg"
   sodipodi:version="0.32"
   style="display:inline"
   version="1.0"
   width="128">
  <title
     id="title4119">Breathe Icon Theme computer</title>
  <defs
     id="defs3">
    <linearGradient
       id="linearGradient4709"
       inkscape:collect="always">
      <stop
         id="stop4711"
         offset="0"
         style="stop-color: rgb(255, 255, 255); stop-opacity: 1;" />
      <stop
         id="stop4713"
         offset="1"
         style="stop-color: rgb(255, 255, 255); stop-opacity: 0;" />
    </linearGradient>
    <linearGradient
       id="linearGradient4790">
      <stop
         id="stop4792"
         offset="0"
         style="stop-color: rgb(94, 96, 92); stop-opacity: 1;" />
      <stop
         id="stop4794"
         offset="1"
         style="stop-color: rgb(34, 35, 33); stop-opacity: 1;" />
    </linearGradient>
    <linearGradient
       id="linearGradient10525">
      <stop
         id="stop10527"
         offset="0"
         style="stop-color: rgb(184, 127, 56); stop-opacity: 1;" />
      <stop
         id="stop10529"
         offset="1"
         style="stop-color: rgb(231, 180, 24); stop-opacity: 1;" />
    </linearGradient>
    <linearGradient
       id="linearGradient3784-6">
      <stop
         id="stop3786-8"
         offset="0"
         style="stop-color: rgb(254, 203, 77); stop-opacity: 1;" />
      <stop
         id="stop3788-2"
         offset="1"
         style="stop-color: rgb(218, 103, 1); stop-opacity: 1;" />
    </linearGradient>
    <linearGradient
       id="linearGradient6099">
      <stop
         id="stop6101"
         offset="0"
         style="stop-color: rgb(245, 216, 67); stop-opacity: 0;" />
      <stop
         id="stop6110"
         offset="0.25"
         style="stop-color: rgb(251, 239, 175); stop-opacity: 0.498039;" />
      <stop
         id="stop6108"
         offset="0.5"
         style="stop-color: rgb(245, 216, 67); stop-opacity: 1;" />
      <stop
         id="stop6103"
         offset="1"
         style="stop-color: rgb(245, 216, 67); stop-opacity: 0;" />
    </linearGradient>
    <radialGradient
       cx="10.125"
       cy="5.710938"
       fx="10.125"
       fy="5.710938"
       gradientTransform="matrix(4.09273,0,0,3.67819,-11.1378,6.31852)"
       gradientUnits="userSpaceOnUse"
       id="radialGradient4027"
       inkscape:collect="always"
       r="21"
       xlink:href="#linearGradient4790" />
    <linearGradient
       gradientTransform="matrix(1.04443,0,0,0.979301,-4.16537,0.401746)"
       gradientUnits="userSpaceOnUse"
       id="linearGradient4029"
       inkscape:collect="always"
       x1="93.745811"
       x2="93.745804"
       xlink:href="#linearGradient4709"
       y1="12.388708"
       y2="16.492558" />
    <linearGradient
       gradientTransform="translate(1.11738,-0.839689)"
       gradientUnits="userSpaceOnUse"
       id="linearGradient4031"
       inkscape:collect="always"
       x1="121.65269"
       x2="121.23848"
       xlink:href="#linearGradient4709"
       y1="8.2953033"
       y2="17.57608" />
    <linearGradient
       gradientTransform="matrix(0.460556,0,0,0.734366,96.0187,-12.4936)"
       gradientUnits="userSpaceOnUse"
       id="linearGradient4828"
       inkscape:collect="always"
       x1="79.490326"
       x2="96.127853"
       xlink:href="#linearGradient6099"
       y1="-46.872349"
       y2="-47.037727" />
    <linearGradient
       gradientTransform="matrix(0.880061,0,0,0.375379,19.526,96.5858)"
       gradientUnits="userSpaceOnUse"
       id="linearGradient4834"
       inkscape:collect="always"
       x1="7.5426416"
       x2="138.92612"
       xlink:href="#linearGradient10525"
       y1="88.082359"
       y2="46.484375" />
    <linearGradient
       gradientTransform="matrix(-0.639995,0,0,0.272982,16.2526,103.136)"
       gradientUnits="userSpaceOnUse"
       id="linearGradient4837"
       inkscape:collect="always"
       x1="-34.461807"
       x2="-34.586777"
       xlink:href="#linearGradient3784-6"
       y1="12.820758"
       y2="104.3657" />
    <linearGradient
       gradientTransform="matrix(3.04391,0,0,2.78806,-706.484,650.774)"
       gradientUnits="userSpaceOnUse"
       id="linearGradient4841"
       inkscape:collect="always"
       x1="79.490326"
       x2="96.127853"
       xlink:href="#linearGradient6099"
       y1="-46.872349"
       y2="-47.037727" />
    <radialGradient
       cx="10.125"
       cy="5.710938"
       fx="10.125"
       fy="5.710938"
       gradientTransform="matrix(4.09273,0,0,3.67819,-11.1378,6.31852)"
       gradientUnits="userSpaceOnUse"
       id="radialGradient3316"
       inkscape:collect="always"
       r="21"
       xlink:href="#linearGradient4790" />
    <linearGradient
       gradientTransform="matrix(1.04443,0,0,0.979301,-4.16537,0.401746)"
       gradientUnits="userSpaceOnUse"
       id="linearGradient3318"
       inkscape:collect="always"
       x1="93.745811"
       x2="93.745804"
       xlink:href="#linearGradient4709"
       y1="12.388708"
       y2="16.492558" />
    <linearGradient
       gradientTransform="translate(1.11738,-0.839689)"
       gradientUnits="userSpaceOnUse"
       id="linearGradient3320"
       inkscape:collect="always"
       x1="121.65269"
       x2="121.23848"
       xlink:href="#linearGradient4709"
       y1="8.2953033"
       y2="17.57608" />
    <radialGradient
       cx="10.125"
       cy="5.710938"
       fx="10.125"
       fy="5.710938"
       gradientTransform="matrix(4.09273,0,0,3.67819,-11.1378,6.31852)"
       gradientUnits="userSpaceOnUse"
       id="radialGradient3322"
       inkscape:collect="always"
       r="21"
       xlink:href="#linearGradient4790" />
    <linearGradient
       gradientTransform="matrix(1.04443,0,0,0.979301,-4.16537,0.401746)"
       gradientUnits="userSpaceOnUse"
       id="linearGradient3324"
       inkscape:collect="always"
       x1="93.745811"
       x2="93.745804"
       xlink:href="#linearGradient4709"
       y1="12.388708"
       y2="16.492558" />
    <linearGradient
       gradientTransform="translate(1.11738,-0.839689)"
       gradientUnits="userSpaceOnUse"
       id="linearGradient3326"
       inkscape:collect="always"
       x1="121.65269"
       x2="121.23848"
       xlink:href="#linearGradient4709"
       y1="8.2953033"
       y2="17.57608" />
    <radialGradient
       cx="10.125"
       cy="5.710938"
       fx="10.125"
       fy="5.710938"
       gradientTransform="matrix(4.09273,0,0,3.67819,-11.1378,6.31852)"
       gradientUnits="userSpaceOnUse"
       id="radialGradient3328"
       inkscape:collect="always"
       r="21"
       xlink:href="#linearGradient4790" />
    <linearGradient
       gradientTransform="matrix(1.04443,0,0,0.979301,-4.16537,0.401746)"
       gradientUnits="userSpaceOnUse"
       id="linearGradient3330"
       inkscape:collect="always"
       x1="93.745811"
       x2="93.745804"
       xlink:href="#linearGradient4709"
       y1="12.388708"
       y2="16.492558" />
    <linearGradient
       gradientTransform="translate(1.11738,-0.839689)"
       gradientUnits="userSpaceOnUse"
       id="linearGradient3332"
       inkscape:collect="always"
       x1="121.65269"
       x2="121.23848"
       xlink:href="#linearGradient4709"
       y1="8.2953033"
       y2="17.57608" />
    <radialGradient
       cx="10.125"
       cy="5.710938"
       fx="10.125"
       fy="5.710938"
       gradientTransform="matrix(4.09273,0,0,3.67819,-11.1378,6.31852)"
       gradientUnits="userSpaceOnUse"
       id="radialGradient3334"
       inkscape:collect="always"
       r="21"
       xlink:href="#linearGradient4790" />
    <linearGradient
       gradientTransform="matrix(1.04443,0,0,0.979301,-4.16537,0.401746)"
       gradientUnits="userSpaceOnUse"
       id="linearGradient3336"
       inkscape:collect="always"
       x1="93.745811"
       x2="93.745804"
       xlink:href="#linearGradient4709"
       y1="12.388708"
       y2="16.492558" />
    <linearGradient
       gradientTransform="translate(1.11738,-0.839689)"
       gradientUnits="userSpaceOnUse"
       id="linearGradient3338"
       inkscape:collect="always"
       x1="121.65269"
       x2="121.23848"
       xlink:href="#linearGradient4709"
       y1="8.2953033"
       y2="17.57608" />
  </defs>
  <sodipodi:namedview
     bordercolor="#666666"
     borderopacity="0.25490196"
     fill="#f57900"
     gridtolerance="12"
     guidetolerance="13"
     height="300px"
     id="base"
     inkscape:current-layer="layer6"
     inkscape:cx="133.52323"
     inkscape:cy="54.984352"
     inkscape:document-units="px"
     inkscape:grid-bbox="true"
     inkscape:guide-bbox="true"
     inkscape:pageopacity="0.0"
     inkscape:pageshadow="2"
     inkscape:showpageshadow="false"
     inkscape:snap-bbox="true"
     inkscape:snap-nodes="false"
     inkscape:window-height="975"
     inkscape:window-maximized="0"
     inkscape:window-width="1680"
     inkscape:window-x="0"
     inkscape:window-y="25"
     inkscape:zoom="4"
     objecttolerance="7"
     pagecolor="#ffffff"
     showgrid="false"
     showguides="true"
     stroke="#ef2929"
     width="400px">
    <inkscape:grid
       empspacing="5"
       enabled="true"
       id="grid5883"
       spacingx="1px"
       spacingy="1px"
       type="xygrid"
       visible="true" />
  </sodipodi:namedview>
  <metadata
     id="metadata4">
    <rdf:RDF>
      <cc:Work
         rdf:about="">
        <dc:format>image/svg+xml</dc:format>
        <dc:type
           rdf:resource="http://purl.org/dc/dcmitype/StillImage" />
        <dc:creator>
          <cc:Agent>
            <dc:title>Breathe Icon Team</dc:title>
          </cc:Agent>
        </dc:creator>
        <dc:source />
        <cc:license
           rdf:resource="http://creativecommons.org/licenses/by-sa/3.0/" />
        <dc:title>Breathe Icon Theme icon</dc:title>
        <dc:subject>
          <rdf:Bag />
        </dc:subject>
        <dc:date />
        <dc:rights>
          <cc:Agent>
            <dc:title />
          </cc:Agent>
        </dc:rights>
        <dc:publisher>
          <cc:Agent>
            <dc:title />
          </cc:Agent>
        </dc:publisher>
        <dc:identifier />
        <dc:relation />
        <dc:language />
        <dc:coverage />
        <dc:description />
        <dc:contributor>
          <cc:Agent>
            <dc:title>Jakub Steiner, Cory Kontros, Oxygen and Breathe icon teams</dc:title>
          </cc:Agent>
        </dc:contributor>
      </cc:Work>
      <cc:License
         rdf:about="http://creativecommons.org/licenses/by-sa/3.0/">
        <cc:permits
           rdf:resource="http://creativecommons.org/ns#Reproduction" />
        <cc:permits
           rdf:resource="http://creativecommons.org/ns#Distribution" />
        <cc:requires
           rdf:resource="http://creativecommons.org/ns#Notice" />
        <cc:requires
           rdf:resource="http://creativecommons.org/ns#Attribution" />
        <cc:prohibits
           rdf:resource="http://creativecommons.org/ns#CommercialUse" />
        <cc:permits
           rdf:resource="http://creativecommons.org/ns#DerivativeWorks" />
        <cc:requires
           rdf:resource="http://creativecommons.org/ns#ShareAlike" />
      </cc:License>
    </rdf:RDF>
  </metadata>
  <g
     id="layer1"
     inkscape:groupmode="layer"
     inkscape:label="actions/format-justify-left"
     style="display:inline"
     transform="translate(-3,-4)">
    <rect
       height="256"
       id="256x256"
       inkscape:label="256x256"
       style="fill:#eeeeec;fill-opacity:1;fill-rule:nonzero;stroke:none;stroke-width:5;marker:none;visibility:visible;display:none;overflow:visible"
       width="256"
       x="26.5"
       y="32.823101" />
    <rect
       height="48"
       id="48x48"
       inkscape:label="48x48"
       style="fill:#eeeeec;fill-opacity:1;fill-rule:nonzero;stroke:none;stroke-width:5;marker:none;visibility:visible;display:none;overflow:visible"
       width="48"
       x="-35.5"
       y="32.823101" />
    <text
       id="text6091"
       sodipodi:linespacing="125%"
       style="font-size:56.11529922px;font-style:normal;font-variant:normal;font-weight:bold;font-stretch:normal;text-indent:0pt;text-align:start;text-decoration:none;line-height:125%;letter-spacing:normal;word-spacing:normal;text-transform:none;direction:ltr;text-anchor:start;fill:#2e3436;fill-opacity:1;fill-rule:nonzero;stroke:none;stroke-width:5;marker:none;visibility:visible;display:none;overflow:visible;font-family:Myriad"
       x="-418.41199"
       xml:space="preserve"
       y="34.084801"><tspan
         id="tspan6093"
         sodipodi:role="line"
         x="-418.41199"
         y="34.084801">audio-x-generic</tspan></text>
    <g
       id="layer6"
       inkscape:groupmode="layer"
       inkscape:label="plate"
       sodipodi:insensitive="true"
       style="display:none" />
    <g
       id="Livello_1"
       transform="translate(387.114,42.495)" />
    <g
       id="g3290"
       transform="translate(443.114,59.8843)" />
    <g
       id="g7148"
       transform="matrix(0.195657,0,0,0.195657,345.265,19.4029)" />
    <g
       id="g7555"
       transform="matrix(0.133333,0,0,0.133333,319.904,105.991)" />
    <g
       id="g9283"
       transform="matrix(1.06667,0,0,1.06667,384.447,40.4706)" />
    <rect
       height="256"
       id="rect3684"
       inkscape:label="256x256"
       style="fill:#eeeeec;fill-opacity:1;fill-rule:nonzero;stroke:none;stroke-width:5;marker:none;visibility:visible;display:none;overflow:visible"
       width="256"
       x="-173.75076"
       y="27.600863" />
    <g
       id="g3712"
       transform="translate(186.863,37.2728)" />
    <g
       id="g3714"
       transform="translate(242.863,54.6621)" />
    <g
       id="g3716"
       transform="matrix(0.195657,0,0,0.195657,145.014,14.1807)" />
    <g
       id="g3718"
       transform="matrix(0.133333,0,0,0.133333,119.653,100.769)" />
    <g
       id="g3720"
       transform="matrix(1.06667,0,0,1.06667,184.196,35.2484)" />
    <text
       id="text3265-2"
       style="font-size:18px;font-style:normal;font-weight:normal;fill:#000000;fill-opacity:1;stroke:none;font-family:Bitstream Vera Sans"
       x="-1634.91"
       xml:space="preserve"
       y="-1602.75"><tspan
         id="tspan3267-1"
         sodipodi:role="line"
         x="-1634.91"
         y="-1602.75" /></text>
    <g
       id="g4130">
      <g
         id="g3573"
         transform="matrix(-0.90907,0,0,1,127.774,-0.569981)">
        <rect
           height="8.8477125"
           id="rect5736"
           rx="3.7617927"
           ry="3.6865468"
           style="fill:url(#radialGradient3316);fill-opacity:1;fill-rule:nonzero;stroke:#2e3436;stroke-width:0.5;stroke-linecap:round;stroke-linejoin:miter;stroke-miterlimit:4;stroke-opacity:1;stroke-dasharray:none;stroke-dashoffset:0;marker:none;visibility:visible;display:inline;overflow:visible"
           width="60.006844"
           x="63.742355"
           y="11.472268" />
        <path
           d="m 65.992876,15.999903 c 0,-0.807302 -0.38464,-1.501417 0.345287,-1.501417 l 54.815297,0 c 0.72992,0 0.56625,0.738309 0.56625,1.545611"
           id="path5746"
           sodipodi:nodetypes="cccs"
           style="opacity:0.55;fill:none;stroke:url(#linearGradient3318);stroke-width:2.74629998;stroke-linecap:round;stroke-linejoin:miter;stroke-miterlimit:4;stroke-opacity:1;stroke-dashoffset:0;marker:none;visibility:visible;display:inline;overflow:visible" />
        <g
           id="g3555"
           transform="translate(-1.01647,0.574524)">
          <g
             id="g3560">
            <path
               d="m 65.537331,15.136255 c 0.04237,0.597954 0.227552,1.407788 0.525873,1.927739 0.280374,0.48867 0.820897,1.069766 1.31468,1.341035 0.424074,0.232973 1.577617,0.335259 1.577617,0.335259 l 52.937809,-0.08382 c 0,0 1.18608,-0.40518 1.57762,-0.754333 0.22154,-0.197561 0.39733,-0.570585 0.52587,-0.838146 0.20756,-0.432034 0.26767,-1.030807 0.3049,-1.508666 0.0457,-0.586032 0.0991,-1.474639 -0.12961,-2.016127 -0.26434,-0.625849 -0.7945,-1.318535 -1.31469,-1.755535 -0.26778,-0.224962 -1.05175,-0.502889 -1.05175,-0.502889 l -53.288376,-0.08382 c 0,0 -0.982002,0.110858 -1.272715,0.286491 -0.562763,0.339993 -1.138255,0.989073 -1.444292,1.557433 -0.306037,0.56836 -0.307716,1.463414 -0.262936,2.09537 l 0,9e-6 z"
               id="path3551"
               sodipodi:nodetypes="cssccsssssccszs"
               style="opacity:0.858657;fill:none;stroke:url(#linearGradient3320);stroke-width:0.5;stroke-linecap:butt;stroke-linejoin:miter;stroke-miterlimit:4;stroke-opacity:1;stroke-dasharray:none;display:inline" />
          </g>
        </g>
      </g>
      <g
         id="g3598"
         style="display:inline"
         transform="matrix(-1.7372,0,0,1.06558,230.355,18.0414)">
        <rect
           height="8.8477125"
           id="rect3600"
           rx="3.7617927"
           ry="3.6865468"
           style="fill:url(#radialGradient4027);fill-opacity:1;fill-rule:nonzero;stroke:#2e3436;stroke-width:0.5;stroke-linecap:round;stroke-linejoin:miter;stroke-miterlimit:4;stroke-opacity:1;stroke-dasharray:none;stroke-dashoffset:0;marker:none;visibility:visible;display:inline;overflow:visible"
           width="60.006844"
           x="63.742355"
           y="11.472268" />
        <path
           d="m 65.992876,15.999903 c 0,-0.807302 -0.38464,-1.501417 0.345287,-1.501417 l 54.815297,0 c 0.72992,0 0.56625,0.738309 0.56625,1.545611"
           id="path3602"
           sodipodi:nodetypes="cccs"
           style="opacity:0.55;fill:none;stroke:url(#linearGradient4029);stroke-width:2.74629998;stroke-linecap:round;stroke-linejoin:miter;stroke-miterlimit:4;stroke-opacity:1;stroke-dashoffset:0;marker:none;visibility:visible;display:inline;overflow:visible" />
        <g
           id="g3604"
           transform="translate(-1.01647,0.574524)">
          <g
             id="g3606">
            <path
               d="m 65.537331,15.136255 c 0.04237,0.597954 0.227552,1.407788 0.525873,1.927739 0.280374,0.48867 0.820897,1.069766 1.31468,1.341035 0.424074,0.232973 1.577617,0.335259 1.577617,0.335259 l 52.937809,-0.08382 c 0,0 1.18608,-0.40518 1.57762,-0.754333 0.22154,-0.197561 0.39733,-0.570585 0.52587,-0.838146 0.20756,-0.432034 0.26767,-1.030807 0.3049,-1.508666 0.0457,-0.586032 0.0991,-1.474639 -0.12961,-2.016127 -0.26434,-0.625849 -0.7945,-1.318535 -1.31469,-1.755535 -0.26778,-0.224962 -1.05175,-0.502889 -1.05175,-0.502889 l -53.288376,-0.08382 c 0,0 -0.982002,0.110858 -1.272715,0.286491 -0.562763,0.339993 -1.138255,0.989073 -1.444292,1.557433 -0.306037,0.56836 -0.307716,1.463414 -0.262936,2.09537 l 0,9e-6 z"
               id="path3608"
               sodipodi:nodetypes="cssccsssssccszs"
               style="opacity:0.858657;fill:none;stroke:url(#linearGradient4031);stroke-width:0.5;stroke-linecap:butt;stroke-linejoin:miter;stroke-miterlimit:4;stroke-opacity:1;stroke-dasharray:none;display:inline" />
          </g>
        </g>
      </g>
      <g
         id="g3616"
         style="display:inline"
         transform="matrix(-1.32301,0,0,1.06558,179.073,38.0798)">
        <rect
           height="8.8477125"
           id="rect3618"
           rx="3.7617927"
           ry="3.6865468"
           style="fill:url(#radialGradient3322);fill-opacity:1;fill-rule:nonzero;stroke:#2e3436;stroke-width:0.5;stroke-linecap:round;stroke-linejoin:miter;stroke-miterlimit:4;stroke-opacity:1;stroke-dasharray:none;stroke-dashoffset:0;marker:none;visibility:visible;display:inline;overflow:visible"
           width="60.006844"
           x="63.742355"
           y="11.472268" />
        <path
           d="m 65.992876,15.999903 c 0,-0.807302 -0.38464,-1.501417 0.345287,-1.501417 l 54.815297,0 c 0.72992,0 0.56625,0.738309 0.56625,1.545611"
           id="path3620"
           sodipodi:nodetypes="cccs"
           style="opacity:0.55;fill:none;stroke:url(#linearGradient3324);stroke-width:2.74629998;stroke-linecap:round;stroke-linejoin:miter;stroke-miterlimit:4;stroke-opacity:1;stroke-dashoffset:0;marker:none;visibility:visible;display:inline;overflow:visible" />
        <g
           id="g3622"
           transform="translate(-1.01647,0.574524)">
          <g
             id="g3624">
            <path
               d="m 65.537331,15.136255 c 0.04237,0.597954 0.227552,1.407788 0.525873,1.927739 0.280374,0.48867 0.820897,1.069766 1.31468,1.341035 0.424074,0.232973 1.577617,0.335259 1.577617,0.335259 l 52.937809,-0.08382 c 0,0 1.18608,-0.40518 1.57762,-0.754333 0.22154,-0.197561 0.39733,-0.570585 0.52587,-0.838146 0.20756,-0.432034 0.26767,-1.030807 0.3049,-1.508666 0.0457,-0.586032 0.0991,-1.474639 -0.12961,-2.016127 -0.26434,-0.625849 -0.7945,-1.318535 -1.31469,-1.755535 -0.26778,-0.224962 -1.05175,-0.502889 -1.05175,-0.502889 l -53.288376,-0.08382 c 0,0 -0.982002,0.110858 -1.272715,0.286491 -0.562763,0.339993 -1.138255,0.989073 -1.444292,1.557433 -0.306037,0.56836 -0.307716,1.463414 -0.262936,2.09537 l 0,9e-6 z"
               id="path3626"
               sodipodi:nodetypes="cssccsssssccszs"
               style="opacity:0.858657;fill:none;stroke:url(#linearGradient3326);stroke-width:0.5;stroke-linecap:butt;stroke-linejoin:miter;stroke-miterlimit:4;stroke-opacity:1;stroke-dasharray:none;display:inline" />
          </g>
        </g>
      </g>
      <g
         id="g3634"
         style="display:inline"
         transform="matrix(-1.65554,0,0,1.06558,220.204,58.0798)">
        <rect
           height="8.8477125"
           id="rect3636"
           rx="3.7617927"
           ry="3.6865468"
           style="fill:url(#radialGradient3328);fill-opacity:1;fill-rule:nonzero;stroke:#2e3436;stroke-width:0.5;stroke-linecap:round;stroke-linejoin:miter;stroke-miterlimit:4;stroke-opacity:1;stroke-dasharray:none;stroke-dashoffset:0;marker:none;visibility:visible;display:inline;overflow:visible"
           width="60.006844"
           x="63.742355"
           y="11.472268" />
        <path
           d="m 65.992876,15.999903 c 0,-0.807302 -0.38464,-1.501417 0.345287,-1.501417 l 54.815297,0 c 0.72992,0 0.56625,0.738309 0.56625,1.545611"
           id="path3638"
           sodipodi:nodetypes="cccs"
           style="opacity:0.55;fill:none;stroke:url(#linearGradient3330);stroke-width:2.74629998;stroke-linecap:round;stroke-linejoin:miter;stroke-miterlimit:4;stroke-opacity:1;stroke-dashoffset:0;marker:none;visibility:visible;display:inline;overflow:visible" />
        <g
           id="g3640"
           transform="translate(-1.01647,0.574524)">
          <g
             id="g3642">
            <path
               d="m 65.537331,15.136255 c 0.04237,0.597954 0.227552,1.407788 0.525873,1.927739 0.280374,0.48867 0.820897,1.069766 1.31468,1.341035 0.424074,0.232973 1.577617,0.335259 1.577617,0.335259 l 52.937809,-0.08382 c 0,0 1.18608,-0.40518 1.57762,-0.754333 0.22154,-0.197561 0.39733,-0.570585 0.52587,-0.838146 0.20756,-0.432034 0.26767,-1.030807 0.3049,-1.508666 0.0457,-0.586032 0.0991,-1.474639 -0.12961,-2.016127 -0.26434,-0.625849 -0.7945,-1.318535 -1.31469,-1.755535 -0.26778,-0.224962 -1.05175,-0.502889 -1.05175,-0.502889 l -53.288376,-0.08382 c 0,0 -0.982002,0.110858 -1.272715,0.286491 -0.562763,0.339993 -1.138255,0.989073 -1.444292,1.557433 -0.306037,0.56836 -0.307716,1.463414 -0.262936,2.09537 l 0,9e-6 z"
               id="path3644"
               sodipodi:nodetypes="cssccsssssccszs"
               style="opacity:0.858657;fill:none;stroke:url(#linearGradient3332);stroke-width:0.5;stroke-linecap:butt;stroke-linejoin:miter;stroke-miterlimit:4;stroke-opacity:1;stroke-dasharray:none;display:inline" />
          </g>
        </g>
      </g>
      <g
         id="g3652"
         style="display:inline"
         transform="matrix(-0.910473,0,0,1.06558,127.857,78.1247)">
        <rect
           height="8.8477125"
           id="rect3654"
           rx="3.7617927"
           ry="3.6865468"
           style="fill:url(#radialGradient3334);fill-opacity:1;fill-rule:nonzero;stroke:#2e3436;stroke-width:0.5;stroke-linecap:round;stroke-linejoin:miter;stroke-miterlimit:4;stroke-opacity:1;stroke-dasharray:none;stroke-dashoffset:0;marker:none;visibility:visible;display:inline;overflow:visible"
           width="60.006844"
           x="63.742355"
           y="11.472268" />
        <path
           d="m 65.992876,15.999903 c 0,-0.807302 -0.38464,-1.501417 0.345287,-1.501417 l 54.815297,0 c 0.72992,0 0.56625,0.738309 0.56625,1.545611"
           id="path3656"
           sodipodi:nodetypes="cccs"
           style="opacity:0.55;fill:none;stroke:url(#linearGradient3336);stroke-width:2.74629998;stroke-linecap:round;stroke-linejoin:miter;stroke-miterlimit:4;stroke-opacity:1;stroke-dashoffset:0;marker:none;visibility:visible;display:inline;overflow:visible" />
        <g
           id="g3658"
           transform="translate(-1.01647,0.574524)">
          <g
             id="g3660">
            <path
               d="m 65.537331,15.136255 c 0.04237,0.597954 0.227552,1.407788 0.525873,1.927739 0.280374,0.48867 0.820897,1.069766 1.31468,1.341035 0.424074,0.232973 1.577617,0.335259 1.577617,0.335259 l 52.937809,-0.08382 c 0,0 1.18608,-0.40518 1.57762,-0.754333 0.22154,-0.197561 0.39733,-0.570585 0.52587,-0.838146 0.20756,-0.432034 0.26767,-1.030807 0.3049,-1.508666 0.0457,-0.586032 0.0991,-1.474639 -0.12961,-2.016127 -0.26434,-0.625849 -0.7945,-1.318535 -1.31469,-1.755535 -0.26778,-0.224962 -1.05175,-0.502889 -1.05175,-0.502889 l -53.288376,-0.08382 c 0,0 -0.982002,0.110858 -1.272715,0.286491 -0.562763,0.339993 -1.138255,0.989073 -1.444292,1.557433 -0.306037,0.56836 -0.307716,1.463414 -0.262936,2.09537 l 0,9e-6 z"
               id="path3662"
               sodipodi:nodetypes="cssccsssssccszs"
               style="opacity:0.858657;fill:none;stroke:url(#linearGradient3338);stroke-width:0.5;stroke-linecap:butt;stroke-linejoin:miter;stroke-miterlimit:4;stroke-opacity:1;stroke-dasharray:none;display:inline" />
          </g>
        </g>
      </g>
      <g
         id="g4843">
        <path
           d="m 114.37734,112.91962 -74.160212,0.0186 -0.165011,-7.09701 -0.165011,-0.32846 -0.632544,-0.22288 -0.825057,-0.0469 -0.770054,0.11731 -22.396277,12.15289 22.561289,12.10597 0.742551,0.11731 0.852559,-0.0587 0.632544,-0.21115 0.165011,-0.32846 0.165012,-7.09701 c 0,0 74.71407,-0.93911 73.83019,-0.14361 l 0.16501,-8.97794 0,4e-5 z"
           id="path2697"
           sodipodi:nodetypes="cccccccccccccccc"
           style="fill:url(#linearGradient4837);fill-opacity:1;fill-rule:evenodd;stroke:#af4700;stroke-width:1;stroke-linecap:butt;stroke-linejoin:miter;stroke-miterlimit:4;stroke-opacity:1;stroke-dasharray:none" />
        <path
           d="m 113.65916,113.78268 -73.688465,-0.11229 -0.758455,-7.49179 -0.57554,-0.27855 -0.792553,0.0582 -21.613405,11.55445 21.763918,11.42802 0.852559,0.0469 0.57754,-0.23461 0.157515,-7.73071 73.874036,0.0696 0.20285,-7.3093 0,8e-5 z"
           id="path3502"
           sodipodi:nodetypes="cccccccccccc"
           style="fill:none;stroke:url(#linearGradient4834);stroke-width:1;stroke-linecap:butt;stroke-linejoin:miter;stroke-miterlimit:4;stroke-opacity:1;stroke-dasharray:none" />
        <rect
           height="0.9087345"
           id="rect3740"
           style="fill:url(#linearGradient4828);fill-opacity:1;stroke:none;display:inline"
           transform="matrix(0.00457173,0.99999,-0.828088,0.560598,0,0)"
           width="7.1645679"
           x="132.64786"
           y="-47.532177" />
        <rect
           height="3.4500616"
           id="rect4839"
           style="fill:url(#linearGradient4841);fill-opacity:1;stroke:none;display:inline"
           transform="matrix(1,-6.91722e-4,0.975923,0.218115,0,0)"
           width="47.35207"
           x="-464.39484"
           y="517.74811" />
      </g>
    </g>
    <g
       id="g4167">
      <g
         id="g3737"
         transform="matrix(-0.326441,0,0,0.391325,180.635,1.79303)">
        <g
           id="g3743"
           transform="translate(-1.01647,0.574524)">
          <g
             id="g3745" />
        </g>
      </g>
      <g
         id="g4185"
         style="display:inline"
         transform="matrix(-0.571106,0,0,0.391325,211.102,10.7463)">
        <g
           id="g4191"
           transform="translate(-1.01647,0.574524)">
          <g
             id="g4193" />
        </g>
      </g>
      <g
         id="g4203"
         style="display:inline"
         transform="matrix(-0.407733,0,0,0.391325,190.774,19.7657)">
        <g
           id="g4209"
           transform="translate(-1.01647,0.574524)">
          <g
             id="g4211" />
        </g>
      </g>
      <g
         id="g4221"
         style="display:inline"
         transform="matrix(-0.488706,0,0,0.391325,200.893,28.7464)">
        <g
           id="g4227"
           transform="translate(-1.01647,0.574524)">
          <g
             id="g4229" />
        </g>
      </g>
      <g
         id="g4850"
         style="display:inline"
         transform="matrix(0.336365,0,0,0.391429,134.554,-0.997109)" />
    </g>
    <g
       id="g4198">
      <g
         id="g3957"
         transform="matrix(-0.211887,0,0,0.267121,163.359,54.3098)">
        <g
           id="g3963"
           transform="translate(-1.01647,0.574524)">
          <g
             id="g3965" />
        </g>
      </g>
      <g
         id="g4306"
         style="display:inline"
         transform="matrix(-0.423178,0,0,0.267121,189.689,60.3221)">
        <g
           id="g4310"
           transform="translate(-1.01647,0.574524)">
          <g
             id="g4312" />
        </g>
      </g>
      <g
         id="g4320"
         style="display:inline"
         transform="matrix(-0.291523,0,0,0.285445,173.373,65.9625)">
        <g
           id="g4324"
           transform="translate(-1.01647,0.574524)">
          <g
             id="g4326" />
        </g>
      </g>
      <g
         id="g4334"
         style="display:inline"
         transform="matrix(-0.374214,0,0,0.267121,183.594,72.3031)">
        <g
           id="g4338"
           transform="translate(-1.01647,0.574524)">
          <g
             id="g4340" />
        </g>
      </g>
      <g
         id="g4909" />
    </g>
    <g
       id="g4225">
      <g
         id="g4516"
         style="display:inline"
         transform="matrix(-0.257247,0,0,0.176585,169.136,102.153)">
        <g
           id="g4520"
           transform="translate(-1.01647,0.574524)">
          <g
             id="g4522" />
        </g>
      </g>
      <g
         id="g4534"
         style="display:inline"
         transform="matrix(-0.207905,0,0,0.176585,163.041,98.1526)">
        <g
           id="g4538"
           transform="translate(-1.01647,0.574524)">
          <g
             id="g4540" />
        </g>
      </g>
      <g
         id="g4548"
         style="display:inline"
         transform="matrix(-0.288815,0,0,0.176585,173.075,94.1533)">
        <g
           id="g4552"
           transform="translate(-1.01647,0.574524)">
          <g
             id="g4554" />
        </g>
      </g>
      <g
         id="g4562"
         style="display:inline"
         transform="matrix(-0.129167,0,0,0.176585,153.102,90.2334)">
        <g
           id="g4566"
           transform="translate(-1.01647,0.574524)">
          <g
             id="g4568" />
        </g>
      </g>
      <g
         id="g4916"
         style="display:inline"
         transform="matrix(0.684836,0,0,0.653121,43.1524,55.6024)" />
    </g>
    <g
       id="g4252">
      <g
         id="g4654"
         style="display:inline"
         transform="matrix(-0.109203,0,0,0.161169,148.815,114.439)">
        <g
           id="g4658"
           transform="translate(-1.01647,0.574524)">
          <g
             id="g4660" />
        </g>
      </g>
      <g
         id="g4720"
         style="display:inline"
         transform="matrix(-0.223366,0,0,0.161385,162.94,117.444)">
        <g
           id="g4724"
           transform="translate(-1.01647,0.574524)">
          <g
             id="g4726" />
        </g>
      </g>
      <g
         id="g4736"
         style="display:inline"
         transform="matrix(-0.159321,0,0,0.17125,154.937,120.338)">
        <g
           id="g4740"
           transform="translate(-1.01647,0.574524)">
          <g
             id="g4742" />
        </g>
      </g>
      <g
         id="g4750"
         style="display:inline"
         transform="matrix(-0.191213,0,0,0.170936,158.926,123.342)">
        <g
           id="g4754"
           transform="translate(-1.01647,0.574524)">
          <g
             id="g4756" />
        </g>
      </g>
      <g
         id="g4938"
         style="display:inline"
         transform="matrix(0.532515,0,0,0.521524,62.0359,86.9596)" />
    </g>
  </g>
</svg>
