<?xml version="1.0" encoding="UTF-8" standalone="no"?>
<!-- Created with Inkscape (http://www.inkscape.org/) -->

<svg
   xmlns:dc="http://purl.org/dc/elements/1.1/"
   xmlns:cc="http://creativecommons.org/ns#"
   xmlns:rdf="http://www.w3.org/1999/02/22-rdf-syntax-ns#"
   xmlns:svg="http://www.w3.org/2000/svg"
   xmlns="http://www.w3.org/2000/svg"
   xmlns:xlink="http://www.w3.org/1999/xlink"
   xmlns:sodipodi="http://sodipodi.sourceforge.net/DTD/sodipodi-0.dtd"
   xmlns:inkscape="http://www.inkscape.org/namespaces/inkscape"
   height="128"
   id="svg11300"
   inkscape:export-filename="/home/mma/BZR-WORK/breathe-icon-set/source_svg/rendered/computer.png"
   inkscape:export-xdpi="90.000000"
   inkscape:export-ydpi="90.000000"
   inkscape:output_extension="org.inkscape.output.svg.inkscape"
   inkscape:version="0.46+devel r21673"
   sodipodi:docname="format-text-bold.svg"
   sodipodi:version="0.32"
   style="display:inline;enable-background:new"
   version="1.0"
   width="128">
  <title
     id="title4119">Breathe Icon Theme computer</title>
  <defs
     id="defs3">
    <radialGradient
       cx="-42.750153"
       cy="5.3468766"
       fx="-42.750153"
       fy="5.3468766"
       gradientTransform="matrix(2.3919552,0,0,1.8142261,124.28351,-5.2517318)"
       gradientUnits="userSpaceOnUse"
       id="radialGradient5728"
       inkscape:collect="always"
       r="15.500008"
       xlink:href="#linearGradient4229" />
    <linearGradient
       gradientTransform="matrix(0.9167537,0,0,0.9167537,-0.8535114,-0.4271049)"
       gradientUnits="userSpaceOnUse"
       id="linearGradient5726"
       inkscape:collect="always"
       x1="28.216566"
       x2="20.90625"
       xlink:href="#linearGradient3421"
       y1="38.63026"
       y2="21.48896" />
    <linearGradient
       gradientTransform="translate(-1,-3)"
       gradientUnits="userSpaceOnUse"
       id="linearGradient5724"
       inkscape:collect="always"
       x1="29.402817"
       x2="28.727032"
       xlink:href="#linearGradient3186"
       y1="39.585972"
       y2="3.0899398" />
    <linearGradient
       id="linearGradient3421">
      <stop
         id="stop3423"
         offset="0"
         style="stop-color:#cfd1cc;stop-opacity:1;" />
      <stop
         id="stop3425"
         offset="1"
         style="stop-color:#717171;stop-opacity:1;" />
    </linearGradient>
    <linearGradient
       id="linearGradient3186">
      <stop
         id="stop3188"
         offset="0"
         style="stop-color:#2c2d2b;stop-opacity:1;" />
      <stop
         id="stop3190"
         offset="1"
         style="stop-color:#4e4f4c;stop-opacity:1;" />
    </linearGradient>
    <linearGradient
       id="linearGradient4229">
      <stop
         id="stop4231"
         offset="0"
         style="stop-color:#ffffff;stop-opacity:1;" />
      <stop
         id="stop4233"
         offset="1"
         style="stop-color:#ffffff;stop-opacity:0;" />
    </linearGradient>
    <linearGradient
       gradientUnits="userSpaceOnUse"
       id="linearGradient3278"
       inkscape:collect="always"
       x1="28.494125"
       x2="29.77895"
       xlink:href="#linearGradient3421"
       y1="1.0454239"
       y2="39.227654" />
    <radialGradient
       cx="11.992094"
       cy="19.570276"
       fx="11.992094"
       fy="19.570276"
       gradientTransform="matrix(1,0,0,0.8461572,0,4.2077448)"
       gradientUnits="userSpaceOnUse"
       id="radialGradient3282"
       inkscape:collect="always"
       r="11.172122"
       xlink:href="#linearGradient4229" />
  </defs>
  <sodipodi:namedview
     bordercolor="#666666"
     borderopacity="0.25490196"
     fill="#f57900"
     gridtolerance="12"
     guidetolerance="13"
     height="300px"
     id="base"
     inkscape:current-layer="layer6"
     inkscape:cx="62.730993"
     inkscape:cy="76.106974"
     inkscape:document-units="px"
     inkscape:grid-bbox="true"
     inkscape:guide-bbox="true"
     inkscape:pageopacity="0.0"
     inkscape:pageshadow="2"
     inkscape:showpageshadow="false"
     inkscape:snap-bbox="true"
     inkscape:snap-nodes="false"
     inkscape:window-height="926"
     inkscape:window-maximized="0"
     inkscape:window-width="1680"
     inkscape:window-x="0"
     inkscape:window-y="25"
     inkscape:zoom="2.8284271"
     objecttolerance="7"
     pagecolor="#ffffff"
     showgrid="false"
     showguides="true"
     stroke="#ef2929"
     width="400px">
    <inkscape:grid
       empspacing="5"
       enabled="true"
       id="grid5883"
       spacingx="1px"
       spacingy="1px"
       type="xygrid"
       visible="true" />
  </sodipodi:namedview>
  <metadata
     id="metadata4">
    <rdf:RDF>
      <cc:Work
         rdf:about="">
        <dc:format>image/svg+xml</dc:format>
        <dc:type
           rdf:resource="http://purl.org/dc/dcmitype/StillImage" />
        <dc:creator>
          <cc:Agent>
            <dc:title>Breathe Icon Team</dc:title>
          </cc:Agent>
        </dc:creator>
        <dc:source />
        <cc:license
           rdf:resource="http://creativecommons.org/licenses/by-sa/3.0/" />
        <dc:title>Breathe Icon Theme icon</dc:title>
        <dc:subject>
          <rdf:Bag />
        </dc:subject>
        <dc:date />
        <dc:rights>
          <cc:Agent>
            <dc:title />
          </cc:Agent>
        </dc:rights>
        <dc:publisher>
          <cc:Agent>
            <dc:title />
          </cc:Agent>
        </dc:publisher>
        <dc:identifier />
        <dc:relation />
        <dc:language />
        <dc:coverage />
        <dc:description />
        <dc:contributor>
          <cc:Agent>
            <dc:title>Jakub Steiner, Cory Kontros, Oxygen and Breathe icon teams</dc:title>
          </cc:Agent>
        </dc:contributor>
      </cc:Work>
      <cc:License
         rdf:about="http://creativecommons.org/licenses/by-sa/3.0/">
        <cc:permits
           rdf:resource="http://creativecommons.org/ns#Reproduction" />
        <cc:permits
           rdf:resource="http://creativecommons.org/ns#Distribution" />
        <cc:requires
           rdf:resource="http://creativecommons.org/ns#Notice" />
        <cc:requires
           rdf:resource="http://creativecommons.org/ns#Attribution" />
        <cc:prohibits
           rdf:resource="http://creativecommons.org/ns#CommercialUse" />
        <cc:permits
           rdf:resource="http://creativecommons.org/ns#DerivativeWorks" />
        <cc:requires
           rdf:resource="http://creativecommons.org/ns#ShareAlike" />
      </cc:License>
    </rdf:RDF>
  </metadata>
  <g
     id="layer1"
     inkscape:groupmode="layer"
     inkscape:label="actions/format-text-bold"
     style="display:inline"
     transform="translate(-3,-4)">
    <rect
       height="256"
       id="256x256"
       inkscape:label="256x256"
       style="fill:#eeeeec;fill-opacity:1;fill-rule:nonzero;stroke:none;stroke-width:5;marker:none;visibility:visible;display:none;overflow:visible;enable-background:accumulate"
       width="256"
       x="26.5"
       y="32.823101" />
    <rect
       height="48"
       id="48x48"
       inkscape:label="48x48"
       style="fill:#eeeeec;fill-opacity:1;fill-rule:nonzero;stroke:none;stroke-width:5;marker:none;visibility:visible;display:none;overflow:visible;enable-background:accumulate"
       width="48"
       x="-35.5"
       y="32.823101" />
    <text
       id="text6091"
       sodipodi:linespacing="125%"
       style="font-size:56.11526489px;font-style:normal;font-variant:normal;font-weight:bold;font-stretch:normal;text-indent:0;text-align:start;text-decoration:none;line-height:125%;letter-spacing:normal;word-spacing:normal;text-transform:none;direction:ltr;block-progression:tb;writing-mode:lr-tb;text-anchor:start;fill:#2e3436;fill-opacity:1;fill-rule:nonzero;stroke:none;stroke-width:5;marker:none;visibility:visible;display:none;overflow:visible;enable-background:accumulate;font-family:Myriad"
       x="-418.41196"
       xml:space="preserve"
       y="34.084831"><tspan
         id="tspan6093"
         sodipodi:role="line"
         x="-418.41196"
         y="34.084831">audio-x-generic</tspan></text>
    <g
       id="layer6"
       inkscape:groupmode="layer"
       inkscape:label="plate"
       sodipodi:insensitive="true"
       style="display:none" />
    <g
       id="Livello_1"
       transform="translate(387.11439,42.495045)" />
    <g
       id="g3290"
       transform="translate(443.11439,59.884345)" />
    <g
       id="g7148"
       transform="matrix(0.1956571,0,0,0.1956571,345.26471,19.402885)" />
    <g
       id="g7555"
       transform="matrix(0.1333333,0,0,0.1333333,319.90372,105.99052)" />
    <g
       id="g9283"
       transform="matrix(1.0666666,0,0,1.0666666,384.44667,40.470571)" />
    <g
       id="g5653"
       inkscape:export-filename="/home/lapo/Desktop/format-text.png"
       inkscape:export-xdpi="90"
       inkscape:export-ydpi="90"
       transform="matrix(2.9049157,0,0,2.9049157,0.4683793,-1.3638306)">
      <path
         d="m 39.5,19 c 3.7e-5,4.72492 0,16.5 0,16.5 l 4,0 0,4 -16,0 0,-4 c -1.560783,1.74844 -3.222989,2.91853 -5.140468,3.75112 C 20.44201,40.08371 18.256951,40.5 15.804347,40.5 12.17,40.5 10.371786,39.59456 8.409698,37.78368 6.469895,35.95198 5.499997,33.33973 5.5,29.94692 5.499997,26.2211 6.893529,23.43192 9.680601,21.5794 12.489957,19.7269 15.358959,18.50002 21,18.5 l 6.5,0 0,-3.5 c 0,-3.5 -4,-4.5 -8,-4.5 -4,0 -7.088749,1.60142 -8.363637,6 L 7.5,16.5 l 0,-8 c 4.358867,-1.4477 8.950339,-1.93512 13.521738,-2 6.354489,3e-5 11.003315,1.10321 13.94649,3.30955 C 37.933632,12.01594 39.499963,14.27508 39.5,19 z m -12,10 0,-6.5 -4.44816,0 c -2.207377,2e-5 -3.824991,0.57807 -5.00669,1.70205 -1.181732,1.12401 -1.77259,2.73716 -1.772575,4.83943 -1.5e-5,2.1023 0.423618,3.67381 1.270903,4.71454 0.869548,1.04074 2.185043,1.56111 3.946489,1.56111 1.828295,0 3.299864,-0.562 4.414714,-1.686 C 27.019483,32.50715 27.499973,30.85252 27.5,29 z"
         id="text3336"
         sodipodi:nodetypes="ccccccsscscccczcccccccccsscssc"
         style="font-size:6.8395505px;font-style:normal;font-weight:bold;fill:url(#linearGradient5724);fill-opacity:1;stroke:#313131;stroke-width:0.34424406;stroke-linecap:butt;stroke-linejoin:round;stroke-miterlimit:4;stroke-opacity:1;stroke-dasharray:none;font-family:Bitstream Vera Sans Mono" />
      <path
         d="m 21.061899,6.9031089 c -4.392207,0.0628 -9.027031,0.5959054 -13.166577,1.8776793 l 0.021515,7.2921338 2.91737,0.04303 c 0.741646,-2.039746 1.90185,-3.686175 3.396157,-4.683341 1.691859,-1.128989 3.362773,-1.274242 5.558044,-1.274242 2.143255,0 3.740863,0.163378 5.514469,0.982274 1.773608,0.818896 2.536091,1.901835 2.536091,4.113085 0,0 0.03224,3.408656 -0.01716,3.58606 l -6.878103,0.06455 c -5.648878,2.1e-5 -8.366152,1.293099 -11.1626556,3.150713 -2.6030748,1.742984 -3.6627852,4.494626 -3.6627852,8.092435 0,3.316256 0.9065062,5.70625 2.6673592,7.381222 1.9110576,1.776798 3.3447846,2.525156 6.9094256,2.525156 2.404442,0 4.507885,-0.432793 6.33096,-1.230205 1.845472,-0.807231 3.40034,-1.742272 4.916939,-3.45374 0.290415,-0.315918 0.655266,-0.207795 0.861488,-0.176712 0.161799,0.02439 0.05675,0.264731 0.05605,0.695299 l 0.02152,3.215457 15.257923,-0.08606 0.06455,-3.083139 -3.53696,0.04303 c -0.565773,-0.0053 -0.549801,-0.100257 -0.555044,-0.6702 0,0 -0.08602,-11.596119 -0.08606,-16.49093 -3.6e-5,-4.663836 -1.323988,-6.488991 -4.242064,-8.676175 C 32.043323,8.070554 27.476278,6.9031401 21.061899,6.9031089 z"
         id="path3092"
         sodipodi:nodetypes="ccccsssccccscsscsccccccscc"
         style="font-size:6.8395505px;font-style:normal;font-weight:bold;fill:none;stroke:url(#linearGradient3278);stroke-width:0.35531607;stroke-linecap:butt;stroke-linejoin:miter;stroke-miterlimit:4;stroke-opacity:1;stroke-dasharray:none;font-family:Bitstream Vera Sans Mono" />
      <path
         d="m 23.039382,22.03336 4.068094,0 c 0.50436,0.0047 0.91208,0.412393 0.916754,0.916754 l 0,5.958899 c -2.8e-5,1.857765 -0.471683,3.6414 -1.718913,4.898902 -1.198192,1.208026 -2.832144,1.804868 -4.698363,1.80486 -1.797532,8e-6 -3.355595,-0.551896 -4.35458,-1.747562 -1.48e-4,-0.0096 -1.48e-4,-0.0191 0,-0.02865 -0.974817,-1.197381 -1.346497,-2.853442 -1.346482,-4.898902 -1.5e-5,-2.094022 0.593595,-3.865593 1.890804,-5.099442 1.281601,-1.218999 3.061597,-1.804841 5.242686,-1.80486 z"
         id="path3404"
         sodipodi:nodetypes="ccccssccssc"
         style="font-size:6.8395505px;font-style:normal;font-weight:bold;fill:none;stroke:url(#linearGradient5726);stroke-width:0.31558701;stroke-linecap:butt;stroke-linejoin:miter;stroke-miterlimit:4;stroke-opacity:1;stroke-dasharray:none;font-family:Bitstream Vera Sans Mono" />
      <path
         d="m 39.056013,35.066313 c 0,0 3.9e-5,-11.772255 0,-16.496014 -3.6e-5,-4.500852 -1.338867,-6.262227 -4.289737,-8.372977 C 31.994457,8.1997248 27.290027,6.9225002 20.803565,6.9224702 16.361999,6.9830756 12.043989,7.648158 7.8579245,8.8851391 l 0,6.1860049"
         id="path4226"
         sodipodi:nodetypes="cscccc"
         style="font-size:6.8395505px;font-style:normal;font-weight:bold;fill:none;stroke:url(#radialGradient5728);stroke-width:0.3510083;stroke-linecap:round;stroke-linejoin:miter;stroke-miterlimit:4;stroke-opacity:1;stroke-dasharray:none;display:inline;font-family:Bitstream Vera Sans Mono" />
      <path
         d="m 28.069695,18.069695 c -0.0051,0.55016 -0.449841,0.9949 -1,1 l -6.5,0 c -5.492988,2e-5 -8.030674,1.14437 -10.7500001,2.9375 -2.531244,1.68248 -3.750003,4.02708 -3.75,7.5 -3e-6,3.20114 0.881488,5.50817 2.59375,7.125"
         id="path4239"
         sodipodi:nodetypes="ccccsc"
         style="font-size:6.8395505px;font-style:normal;font-weight:bold;fill:none;stroke:url(#radialGradient3282);stroke-width:0.34424406;stroke-linecap:round;stroke-linejoin:miter;stroke-miterlimit:4;stroke-opacity:1;stroke-dasharray:none;display:inline;font-family:Bitstream Vera Sans Mono" />
    </g>
    <g
       id="g3284"
       inkscape:export-filename="/home/lapo/Desktop/format-text.png"
       inkscape:export-xdpi="90"
       inkscape:export-ydpi="90"
       style="display:inline;enable-background:new"
       transform="matrix(1.1735789,0,0,1.1646784,129.74732,2.6300572)" />
    <g
       id="g3306"
       inkscape:export-filename="/home/lapo/Desktop/format-text.png"
       inkscape:export-xdpi="90"
       inkscape:export-ydpi="90"
       style="display:inline;enable-background:new"
       transform="matrix(0.7721591,0,0,0.766303,131.0821,53.63575)" />
    <g
       id="g3328"
       inkscape:export-filename="/home/lapo/Desktop/format-text.png"
       inkscape:export-xdpi="90"
       inkscape:export-ydpi="90"
       style="display:inline;enable-background:new"
       transform="matrix(0.5598668,0,0,0.5556207,132.28326,89.134827)" />
    <g
       id="g3350"
       inkscape:export-filename="/home/lapo/Desktop/format-text.png"
       inkscape:export-xdpi="90"
       inkscape:export-ydpi="90"
       style="display:inline;enable-background:new"
       transform="matrix(0.4021502,0,0,0.3991002,132.14732,115.3684)" />
  </g>
</svg>
