<?xml version="1.0" encoding="UTF-8" standalone="no"?>
<!-- Created with Inkscape (http://www.inkscape.org/) -->

<svg
   xmlns:dc="http://purl.org/dc/elements/1.1/"
   xmlns:cc="http://creativecommons.org/ns#"
   xmlns:rdf="http://www.w3.org/1999/02/22-rdf-syntax-ns#"
   xmlns:svg="http://www.w3.org/2000/svg"
   xmlns="http://www.w3.org/2000/svg"
   xmlns:xlink="http://www.w3.org/1999/xlink"
   xmlns:sodipodi="http://sodipodi.sourceforge.net/DTD/sodipodi-0.dtd"
   xmlns:inkscape="http://www.inkscape.org/namespaces/inkscape"
   height="128"
   id="svg11300"
   inkscape:export-filename="/home/atm/BZR-WORK/breathe-icon-set/source_svg/rendered/application-pdf.png"
   inkscape:export-xdpi="90.000000"
   inkscape:export-ydpi="90.000000"
   inkscape:output_extension="org.inkscape.output.svg.inkscape"
   inkscape:version="0.46+devel r21673"
   sodipodi:docname="application-pdf.svg"
   sodipodi:version="0.32"
   style="display:inline;enable-background:new"
   version="1.0"
   width="128">
  <title
     id="title4119">Breathe Icon Theme computer</title>
  <defs
     id="defs3">
    <linearGradient
       gradientUnits="userSpaceOnUse"
       id="linearGradient6117"
       inkscape:collect="always"
       x1="28.81802"
       x2="97.504311"
       xlink:href="#linearGradient6111"
       y1="23.69491"
       y2="97.234016" />
    <filter
       color-interpolation-filters="sRGB"
       id="filter2770"
       inkscape:collect="always">
      <feGaussianBlur
         id="feGaussianBlur2772"
         inkscape:collect="always"
         stdDeviation="2.0786429" />
    </filter>
    <linearGradient
       gradientUnits="userSpaceOnUse"
       id="linearGradient10213"
       inkscape:collect="always"
       x1="98.617439"
       x2="91.228737"
       xlink:href="#linearGradient10207"
       y1="106.41443"
       y2="99.254974" />
    <radialGradient
       cx="102"
       cy="112.3047"
       gradientTransform="matrix(1,0,0,0.9996653,2e-6,0.00301608)"
       gradientUnits="userSpaceOnUse"
       id="radialGradient9437"
       inkscape:collect="always"
       r="139.55859"
       xlink:href="#XMLID_8_" />
    <clipPath
       clipPathUnits="userSpaceOnUse"
       id="clipPath7084">
      <path
         d="m 72,88 -32,32 -8,0 0,-40 40,0 0,8 z"
         id="path7086"
         style="fill:#000000;fill-opacity:1;fill-rule:evenodd;stroke:none" />
    </clipPath>
    <filter
       color-interpolation-filters="sRGB"
       height="1.3839999"
       id="filter6697"
       inkscape:collect="always"
       width="1.3839999"
       x="-0.19200002"
       y="-0.19199999">
      <feGaussianBlur
         id="feGaussianBlur6699"
         inkscape:collect="always"
         stdDeviation="1.9447689" />
    </filter>
    <radialGradient
       cx="102"
       cy="112.3047"
       gradientUnits="userSpaceOnUse"
       id="XMLID_8_"
       r="139.55859">
      <stop
         id="stop41"
         offset="0"
         style="stop-color:#b7b8b9;stop-opacity:1;" />
      <stop
         id="stop47"
         offset="0.18851049"
         style="stop-color:#ECECEC" />
      <stop
         id="stop49"
         offset="0.25718147"
         style="stop-color:#FAFAFA" />
      <stop
         id="stop51"
         offset="0.30111277"
         style="stop-color:#FFFFFF" />
      <stop
         id="stop53"
         offset="0.5313"
         style="stop-color:#FAFAFA" />
      <stop
         id="stop55"
         offset="0.8449"
         style="stop-color:#EBECEC" />
      <stop
         id="stop57"
         offset="1"
         style="stop-color:#E1E2E3" />
    </radialGradient>
    <linearGradient
       id="linearGradient10207">
      <stop
         id="stop10209"
         offset="0"
         style="stop-color:#a2a2a2;stop-opacity:1;" />
      <stop
         id="stop10211"
         offset="1"
         style="stop-color:#ffffff;stop-opacity:1;" />
    </linearGradient>
    <linearGradient
       id="linearGradient6111">
      <stop
         id="stop6113"
         offset="0"
         style="stop-color:#9c0f0f;stop-opacity:1;" />
      <stop
         id="stop7088"
         offset="0.5"
         style="stop-color:#e81919;stop-opacity:1;" />
      <stop
         id="stop6115"
         offset="1"
         style="stop-color:#cd1313;stop-opacity:1;" />
    </linearGradient>
  </defs>
  <sodipodi:namedview
     bordercolor="#666666"
     borderopacity="0.25490196"
     fill="#f57900"
     gridtolerance="12"
     guidetolerance="13"
     height="300px"
     id="base"
     inkscape:current-layer="layer6"
     inkscape:cx="143.66179"
     inkscape:cy="22.153463"
     inkscape:document-units="px"
     inkscape:grid-bbox="true"
     inkscape:guide-bbox="true"
     inkscape:pageopacity="0.0"
     inkscape:pageshadow="2"
     inkscape:showpageshadow="false"
     inkscape:snap-bbox="true"
     inkscape:snap-nodes="false"
     inkscape:window-height="902"
     inkscape:window-maximized="0"
     inkscape:window-width="1392"
     inkscape:window-x="518"
     inkscape:window-y="271"
     inkscape:zoom="1"
     objecttolerance="7"
     pagecolor="#ffffff"
     showgrid="false"
     showguides="true"
     stroke="#ef2929"
     width="400px">
    <inkscape:grid
       empspacing="5"
       enabled="true"
       id="grid5883"
       spacingx="1px"
       spacingy="1px"
       type="xygrid"
       visible="true" />
  </sodipodi:namedview>
  <metadata
     id="metadata4">
    <rdf:RDF>
      <cc:Work
         rdf:about="">
        <dc:format>image/svg+xml</dc:format>
        <dc:type
           rdf:resource="http://purl.org/dc/dcmitype/StillImage" />
        <dc:creator>
          <cc:Agent>
            <dc:title>Breathe Icon Team</dc:title>
          </cc:Agent>
        </dc:creator>
        <dc:source />
        <cc:license
           rdf:resource="http://creativecommons.org/licenses/by-sa/3.0/" />
        <dc:title>Breathe Icon Set generic file</dc:title>
        <dc:subject>
          <rdf:Bag />
        </dc:subject>
        <dc:date />
        <dc:rights>
          <cc:Agent>
            <dc:title />
          </cc:Agent>
        </dc:rights>
        <dc:publisher>
          <cc:Agent>
            <dc:title />
          </cc:Agent>
        </dc:publisher>
        <dc:identifier />
        <dc:relation />
        <dc:language />
        <dc:coverage />
        <dc:description>generic file</dc:description>
        <dc:contributor>
          <cc:Agent>
            <dc:title>Jakub Steiner, Cory Kontros, Oxygen icon team</dc:title>
          </cc:Agent>
        </dc:contributor>
      </cc:Work>
      <cc:License
         rdf:about="http://creativecommons.org/licenses/by-sa/3.0/">
        <cc:permits
           rdf:resource="http://creativecommons.org/ns#Reproduction" />
        <cc:permits
           rdf:resource="http://creativecommons.org/ns#Distribution" />
        <cc:requires
           rdf:resource="http://creativecommons.org/ns#Notice" />
        <cc:requires
           rdf:resource="http://creativecommons.org/ns#Attribution" />
        <cc:prohibits
           rdf:resource="http://creativecommons.org/ns#CommercialUse" />
        <cc:permits
           rdf:resource="http://creativecommons.org/ns#DerivativeWorks" />
        <cc:requires
           rdf:resource="http://creativecommons.org/ns#ShareAlike" />
      </cc:License>
    </rdf:RDF>
  </metadata>
  <g
     id="layer5"
     inkscape:groupmode="layer"
     inkscape:label="palette"
     sodipodi:insensitive="true"
     style="display:none"
     transform="translate(-3,-4)">
    <g
       id="layer12"
       inkscape:groupmode="layer"
       inkscape:label="440013 (background)"
       sodipodi:insensitive="true"
       style="display:none">
      <rect
         height="135"
         id="rect2757-9"
         style="fill:#440013;fill-opacity:1;stroke:none;display:inline;enable-background:new"
         width="185"
         x="0"
         y="0" />
    </g>
    <g
       id="layer11"
       inkscape:groupmode="layer"
       inkscape:label="8a461b (background)"
       sodipodi:insensitive="true"
       style="display:none">
      <rect
         height="135"
         id="rect3567-8"
         style="fill:#8a461b;fill-opacity:1;stroke:none;display:inline;enable-background:new"
         width="185"
         x="0"
         y="0" />
    </g>
    <g
       id="layer10"
       inkscape:groupmode="layer"
       inkscape:label="fbce87 (background)"
       sodipodi:insensitive="true"
       style="display:none">
      <rect
         height="135"
         id="rect3559-0"
         style="fill:#fbce87;fill-opacity:1;stroke:none;display:inline;enable-background:new"
         width="185"
         x="0"
         y="0" />
    </g>
    <g
       id="layer9"
       inkscape:groupmode="layer"
       inkscape:label="e9e3d8 (background)"
       sodipodi:insensitive="true"
       style="display:none">
      <rect
         height="135"
         id="rect2759-9"
         style="fill:#e9e3d8;fill-opacity:1;stroke:none;display:inline;enable-background:new"
         width="185"
         x="0"
         y="0" />
    </g>
    <g
       id="layer7"
       inkscape:groupmode="layer"
       inkscape:label="Color cues"
       sodipodi:insensitive="true"
       style="display:inline">
      <g
         id="g2881"
         transform="matrix(0.9642857,0,0,0.9642857,-3.5908195,-0.684932)" />
    </g>
  </g>
  <g
     id="layer1"
     inkscape:groupmode="layer"
     inkscape:label="mimetypes/application-pdf"
     style="display:inline"
     transform="translate(-3,-4)">
    <rect
       height="256"
       id="256x256"
       inkscape:label="256x256"
       style="fill:#eeeeec;fill-opacity:1;fill-rule:nonzero;stroke:none;stroke-width:5;marker:none;visibility:visible;display:none;overflow:visible;enable-background:accumulate"
       width="256"
       x="26.5"
       y="32.823101" />
    <rect
       height="48"
       id="48x48"
       inkscape:label="48x48"
       style="fill:#eeeeec;fill-opacity:1;fill-rule:nonzero;stroke:none;stroke-width:5;marker:none;visibility:visible;display:none;overflow:visible;enable-background:accumulate"
       width="48"
       x="-35.5"
       y="32.823101" />
    <text
       id="text6091"
       sodipodi:linespacing="125%"
       style="font-size:56.11526489px;font-style:normal;font-variant:normal;font-weight:bold;font-stretch:normal;text-indent:0;text-align:start;text-decoration:none;line-height:125%;letter-spacing:normal;word-spacing:normal;text-transform:none;direction:ltr;block-progression:tb;writing-mode:lr-tb;text-anchor:start;fill:#2e3436;fill-opacity:1;fill-rule:nonzero;stroke:none;stroke-width:5;marker:none;visibility:visible;display:none;overflow:visible;enable-background:accumulate;font-family:Myriad"
       x="-418.41196"
       xml:space="preserve"
       y="34.084831"><tspan
         id="tspan6093"
         sodipodi:role="line"
         x="-418.41196"
         y="34.084831">audio-x-generic</tspan></text>
    <g
       id="layer6"
       inkscape:groupmode="layer"
       inkscape:label="plate"
       sodipodi:insensitive="true"
       style="display:none" />
    <g
       id="Livello_1"
       transform="translate(387.11439,42.495045)" />
    <g
       id="g3290"
       transform="translate(443.11439,59.884345)" />
    <g
       id="g7148"
       transform="matrix(0.1956571,0,0,0.1956571,345.26471,19.402885)" />
    <g
       id="g7555"
       transform="matrix(0.1333333,0,0,0.1333333,319.90372,105.99052)" />
    <g
       id="g9283"
       transform="matrix(1.0666666,0,0,1.0666666,384.44667,40.470571)" />
    <rect
       height="256"
       id="rect2719"
       inkscape:label="256x256"
       style="fill:#eeeeec;fill-opacity:1;fill-rule:nonzero;stroke:none;stroke-width:5;marker:none;visibility:visible;display:none;overflow:visible"
       width="256"
       x="-90.538307"
       y="31.07062" />
    <rect
       height="256"
       id="256x256-1"
       inkscape:label="256x256"
       style="fill:#eeeeec;fill-opacity:1;fill-rule:nonzero;stroke:none;stroke-width:5;marker:none;visibility:visible;display:none;overflow:visible;enable-background:accumulate"
       width="256"
       x="-89.641304"
       y="33.842472" />
    <text
       id="text3265-2"
       style="font-size:18px;font-style:normal;font-weight:normal;fill:#000000;fill-opacity:1;stroke:none;font-family:Bitstream Vera Sans"
       x="-1442.8583"
       xml:space="preserve"
       y="-1575.4125"><tspan
         id="tspan3267-1"
         sodipodi:role="line"
         x="-1442.8583"
         y="-1575.4125" /></text>
    <rect
       height="0"
       id="rect1327"
       style="opacity:0.57786889;fill:#ffffff;fill-opacity:1;fill-rule:nonzero;stroke:none"
       width="1"
       x="116.32082"
       y="420.57401" />
    <g
       id="g4640"
       style="opacity:0.40163933"
       transform="matrix(-0.782995,0,0,0.650879,-2365.4752,1033.8755)" />
    <g
       id="g4646"
       style="opacity:0.40163933"
       transform="matrix(-0.782995,0,0,0.650879,-2365.4752,1033.8755)" />
    <g
       id="g4730"
       style="opacity:0.40163933"
       transform="matrix(1,0,0,0.650879,835.48782,1041.2033)" />
    <g
       id="g4748"
       style="opacity:0.40163933"
       transform="matrix(1,0,0,0.650879,835.48782,1041.2033)" />
    <g
       id="g2682"
       inkscape:label="Livello 1"
       transform="translate(2.9999979,3.5000043)">
      <path
         d="m 16,8 0,112 c 0,0 63.15625,0 63.15625,0 l 0.03125,0 c 3e-6,0 11.90625,-9.90625 17.40625,-15.40625 C 102.09375,99.09375 112,87.1875 112,87.1875 L 112,87.15625 112,8 16,8 z"
         id="path2684"
         sodipodi:nodetypes="csccscccc"
         style="opacity:0.5;fill:#000000;fill-opacity:1;filter:url(#filter2770)"
         transform="matrix(1.0416667,0,0,1.0267857,-2.6666667,-1.2142891)" />
      <path
         d="M 16.000001,8 16,120 c 0,0 63.146418,0 63.146418,0 L 112,87.14642 112,8 16.000001,8 z"
         id="path2686"
         sodipodi:nodetypes="cccccc"
         style="fill:#ffffff;fill-opacity:1" />
      <path
         d="m 18.000002,9.0000034 c -0.551,0 -1,0.44885 -1,0.999665 l 0,107.9638516 c 0,0.55181 0.449,0.99966 1,0.99966 l 59.171997,0 c 0.263,0 2.76268,0.11813 2.948681,-0.0688 L 110.707,88.094202 C 110.894,87.907264 111,85.40942 111,85.146508 l 0,-75.1468396 c 0,-0.550815 -0.448,-0.999665 -1,-0.999665 l -91.999998,0 z"
         id="path2688"
         sodipodi:nodetypes="ccccccccccc"
         style="fill:url(#radialGradient9437);fill-opacity:1" />
      <path
         clip-path="url(#clipPath7084)"
         d="m 41.879531,115.98249 c 0,0 24.309609,-24.309614 24.309609,-24.309614 0,0 -9.35314,2.913124 -19.60314,2.913124 0,10.25 -4.706469,21.39649 -4.706469,21.39649 z"
         id="path2690"
         sodipodi:nodetypes="cccc"
         style="opacity:0.4;fill:#000000;fill-opacity:1;filter:url(#filter6697)"
         transform="translate(40,0)" />
      <path
         d="m 79.172,120 c 0,0 11.914,-9.914 17.414,-15.414 5.5,-5.5 15.414,-17.414 15.414,-17.414 0,0 -13.75,8.828 -24,8.828 0,10.25 -8.828,24 -8.828,24 z"
         id="path2692"
         sodipodi:nodetypes="csccc"
         style="fill:url(#linearGradient10213);fill-opacity:1" />
      <path
         d="M 55.735583,7.9999999 C 54.530186,16.482889 63.878122,27.5525 77.863478,37.975649 73.731116,54.141797 66.661633,72.39311 59.065975,87.542186 l -0.03202,0.03185 C 38.152199,98.238217 24.17334,109.2739 28.93233,116.59404 c 1.147579,1.76514 2.566014,2.60362 4.130967,2.70769 -10.951886,-6.66511 12.348302,-16.40898 19.469986,-20.164284 l 0.160115,0.19113 c -7.254596,12.183504 -14.446765,20.317804 -19.630101,19.973154 7.45883,3.6448 17.743325,-7.36221 27.155507,-24.082464 C 75.316343,87.766783 94.015533,79.560726 112,72.570289 c 0,-2.327193 0,-3.693578 0,-6.434731 C 96.290242,71.206068 79.932888,77.555791 65.822829,84.261111 72.328645,70.627892 78.013468,54.945445 81.482078,40.587768 90.554087,46.928532 101.16759,52.905673 112,57.789522 c 0,-4.529014 0,-4.833372 0,-9.49282 -10.17084,-5.148549 -20.150267,-10.926415 -28.628565,-16.723928 1.6493,-9.16072 2.18264,-17.350311 1.152828,-23.5727741 -1.308829,0 -1.786051,0 -3.170277,0 0.744743,5.5567931 0.13919,12.8647821 -1.473058,21.1199321 C 69.266597,21.463312 61.620886,13.953594 59.930597,7.9999999 c -2.019659,0 -2.237709,0 -4.195014,0 z"
         id="path1937"
         style="opacity:0.06557378;fill:#2e3436" />
      <path
         d="m 47.483879,12.004963 c -1.354759,0.0509 -2.803708,0.426652 -4.394665,1.133007 -14.219073,6.313001 -3.744069,20.798078 14.374216,34.051437 0.109974,-2.541875 0.176431,-5.02387 0.152593,-7.410475 C 42.157545,28.787347 33.109868,18.086941 42.96714,13.842272 c 10.385952,-4.4723286 14.471602,8.193503 14.648883,25.93666 0.966875,0.687491 1.945674,1.363119 2.960294,2.051661 C 60.197205,25.674724 56.788888,13.008032 48.826693,12.066207 48.4022,12.015994 47.935465,11.987996 47.483879,12.004963 z m 13.092438,29.82563 -1.85477,-3.047151 -2.351742,2.108616 -0.493746,3.205629 3.106458,6.076352 1.563282,-0.779863 c 10.432955,7.216864 22.88717,13.863789 34.577466,18.434322 l 3.466981,2.09528 6.566114,0.518762 3.61965,-1.688878 1.18201,-2.906734 -5.89284,-0.835636 C 90.0999,59.397682 73.537405,50.626192 60.576317,41.830593 z m 43.488863,23.180699 c 1.81916,0.731244 3.62523,1.403429 5.34074,2.021039 0.87989,-0.329401 1.74433,-0.677519 2.59408,-0.979897 0,-1.213387 0,-1.705464 0,-3.000937 -2.5073,0.524613 -5.15842,1.170468 -7.93482,1.959795 z m 5.34074,2.021039 c -2.53338,0.948418 -5.19858,1.970363 -7.9348,3.123423 3.68506,1.218425 7.22283,2.161711 10.52888,2.817205 0,-1.62583 0,-3.108706 0,-5.052596 -0.84345,-0.275465 -1.69621,-0.564786 -2.59408,-0.888032 z m -7.9348,3.123423 C 99.383258,69.465437 97.283253,68.672987 95.123265,67.828498 81.896136,72.403184 67.410695,78.987993 55.63232,86.017845 l -3.41144,0.701198 -2.632608,4.889126 -3.535318,4.786813 3.98807,4.129378 3.119297,-5.319977 C 66.949424,86.619469 85.564528,76.858891 101.47112,70.155754 z M 53.160321,95.204383 c -1.684893,1.048986 -3.296917,2.087675 -4.821924,3.092801 -3.535927,10.419576 -7.659959,17.410076 -11.597032,17.117586 6.081485,3.05721 12.007045,-6.18569 16.418956,-20.210387 z M 36.741365,115.41477 c -9.281834,-5.68326 7.203959,-14.08866 11.597032,-17.117586 0.995852,-2.93453 1.923379,-6.125491 2.807702,-9.523378 -13.847754,8.950161 -22.531211,18.231054 -17.883843,24.374944 1.119956,1.48058 2.30423,2.17873 3.479109,2.26602 z M 51.146099,88.773806 c 1.437955,-0.929385 2.945158,-1.836188 4.486221,-2.755961 2.731909,-11.435346 4.541681,-24.580654 4.913479,-36.623669 -1.050304,-0.726535 -2.076538,-1.469018 -3.082369,-2.204769 -0.586629,13.559934 -3.010267,28.877572 -6.317331,41.584399 z"
         id="path3342"
         sodipodi:nodetypes="csccsccsccccccccccccccccccccccccccccccccccccccccscccccc"
         style="fill:url(#linearGradient6117);fill-opacity:1" />
    </g>
    <g
       id="g2696"
       inkscape:label="Livello 1"
       style="display:inline;enable-background:new"
       transform="matrix(0.3832522,0,0,0.3832522,133.47186,3.2802321)" />
    <g
       id="g2718"
       inkscape:label="Livello 1"
       style="display:inline;enable-background:new"
       transform="matrix(0.2554957,0,0,0.2554957,133.64827,54.520528)" />
    <g
       id="g3134">
      <g
         id="g3128"
         transform="matrix(1.0731827,0,0,1.0731827,-11.277552,-7.619239)" />
    </g>
    <g
       id="g3167">
      <g
         id="g7479"
         transform="matrix(0.125,0,0,0.125,127.12833,78.146993)">
        <g
           id="g2485"
           transform="translate(54.973346,302.82406)" />
      </g>
      <g
         id="g3161"
         transform="matrix(1.046138,0,0,1.046138,-6.8142929,-5.7544431)" />
    </g>
  </g>
</svg>
